/* XPM */
static char *result[] = {
/* columns rows colors chars-per-pixel */
"32 32 43 1 ",
"  c black",
". c #0A0801",
"X c #110E02",
"o c #1F1A05",
"O c #A78A19",
"+ c #A7891A",
"@ c #A68A1A",
"# c #A78A1A",
"$ c #A68B1A",
"% c #A78B1A",
"& c #A68A1B",
"* c #A78A1B",
"= c #A78B1B",
"- c #A68C1B",
"; c #A78C1B",
": c #A68A1C",
"> c #A78A1C",
", c #A68B1C",
"< c #A78B1C",
"1 c #A68B1D",
"2 c #A78B1D",
"3 c #A68C1C",
"4 c #A78C1C",
"5 c #A78C1D",
"6 c #A78D1D",
"7 c #A8891B",
"8 c #A88A1A",
"9 c #A88B1A",
"0 c #A88A1B",
"q c #A88B1B",
"w c #A98B1B",
"e c #A98C1A",
"r c #A88C1B",
"t c #A98C1B",
"y c #A88A1C",
"u c #A88B1C",
"i c #A88B1D",
"p c #A88C1C",
"a c #A98C1C",
"s c #A88D1C",
"d c #A88C1D",
"f c #A88D1D",
"g c #A88C1E",
/* pixels */
" .                              ",
" ppuupppdrw<4ri52p4didpddpdpp4g ",
" p55<pidrd2d5u5ppdiddpdpprrrp;r ",
" a45<pidqup5u5ppdpdppp=uduuuqu0 ",
" p55<pipq25pp2pddddpqdw22pppapp ",
".p542piuqd55qpdpdpuuw2p<555545p.",
".p542pud<5p5p4idpdu2p56puu45654 ",
" p5uup<qp4p<ppd=u2p45p4p5u2<<<2 ",
" 25i4pu2=pdp4i=q<p4p442pppppppp ",
" u=spp425u4ap<q2<5ipqpp4ddiiiii ",
" up54=qp5uuppq2=tu5<p4didpddddd ",
" pu4p;q4252ri2p5i5ppdiddpdppppp ",
" uud448p442qyppi5ppdpdppdpddddd ",
" pu25ru444=q26pd2ppddddpdaddddd ",
" duupry444>qi44updpddddadpddddd.",
" dpd2r<u5;<<2p4p4idddddpdfdpppd.",
" dppq=*r2:0p442pappdddpdpppdddp ",
" pdi<q<,37,=rpp4idppapdppdddddd ",
" <p4f>0:<4<4<2ppppddddppddddddd ",
" dupp4@0**<1yupppdpapfpdddddddd ",
" p4p<prr=#<44<pidpddddpdddddddd ",
" 45p5p58O+>><<42dpdddpddddddddd ",
"o2d55puu;:-=4>4ippdddpddddddddd ",
".qq2p4p5%*45<,r2ppdddpddddddddd ",
"Xpudu2<peq<44<4ippddddpdddddddd ",
" pdr<qpu980,*quppdpapfpdddddddd.",
" ppdipdrpr$%*<ppppddddppddddddd.",
" 4<p4didpu2&q2p4idppapdppdddddd ",
" idqpp4dd:y<:><4p4pdddpdpppdddp ",
" 2u22<ppprr<4;<q42pdpdd4dddpppd ",
" p34p4p4q2>*<<=0=44pdddadpddddd ",
"      .     ..     ..           "
};
