/* XPM */
static char *result[] = {
/* columns rows colors chars-per-pixel */
"64 64 34 1 ",
"  c yellow",
". c #FFFF14",
"X c #FFFF3B",
"o c #FFFF68",
"O c #FFFF6E",
"+ c #FFFF79",
"@ c #FFFF84",
"# c #FFFF90",
"$ c #FFFFA5",
"% c #FFFFA9",
"& c #FFFFAA",
"* c #FFFFAC",
"= c #FFFFCC",
"- c #FFFFD0",
"; c #FFFFD4",
": c #FFFFE4",
"> c #FFFFE8",
", c #FFFFEA",
"< c #FFFFED",
"1 c ivory",
"2 c #FFFFF2",
"3 c #FFFFF4",
"4 c #FFFFF5",
"5 c #FFFFF6",
"6 c #FFFFF7",
"7 c #FFFFF8",
"8 c #FFFFF9",
"9 c #FFFFFA",
"0 c #FFFFFB",
"q c #FFFFFC",
"w c #FFFFFD",
"e c #FFFFFE",
"r c white",
"t c None",
/* pixels */
"tttttttttttttttttttttttttttttttttttttttttttttttttttttttttttttttt",
"tttttttttttttttttttttttttttttttttttttttttttttttttttttttttttttttt",
"tttttttttttttttttttttttttttttttttttttttttttttttttttttttttttttttt",
"ttttttttttttttttttttttttttt           tttttttttttttttttttttttttt",
"ttttttttttttttttttttttt                   tttttttttttttttttttttt",
"ttttttttttttttttttttt                       tttttttttttttttttttt",
"ttttttttttttttttttt                           tttttttttttttttttt",
"ttttttttttttttttt                               tttttttttttttttt",
"ttttttttttttttt                                   tttttttttttttt",
"tttttttttttttt                                     ttttttttttttt",
"ttttttttttttt                                       tttttttttttt",
"tttttttttttt           .XO+##@##@##+OX.              ttttttttttt",
"ttttttttttt         .X#=270eeeeeeee072=#X.            tttttttttt",
"tttttttttt         X$<wrrrrrrrrrrrrrrrrw<$X            ttttttttt",
"ttttttttt        .o:8rrrrrrrrrrrrrrrrrrrr4-X            tttttttt",
"tttttttt        X*6rrrrrrrrrrrrrrrrrrrrrre3$.            ttttttt",
"tttttttt       X-5rrrrrrrrrrrrrrrrrrrrrrree>X            ttttttt",
"ttttttt       .*6errrrrrrrrrrrrrrrrrrrrrree3O             tttttt",
"ttttttt       o6rrrrrrrrrrrrrrrrrrrrrrrrree3O             tttttt",
"tttttt       X:rrrrrrrrrrrrrrrrrrrrrrrrrree3O              ttttt",
"tttttt      .*9rrrrrrrrrrrrrrrrrrrrrrrrrree>X              ttttt",
"ttttt       o6rrrrrrrrrrrrrrrrrrrrrrrrrree3$.               tttt",
"ttttt      X:rrrrrrrrrrrrrrreeeeeerrrrree3-X                tttt",
"tttt      .$8rrrrrrrrrrrr9;&#@##@#&-2643>$X                  ttt",
"tttt      X>errrrrrrrrrr1o.        .XOOOX.                   ttt",
"tttt      O6rrrrrrrrrrr6o                                    ttt",
"tttt      +0rrrrrrrrrr9*.                                    ttt",
"ttt       #errrrrrrrrr,X                                      tt",
"ttt       #errrrrrrrrr%                                       tt",
"ttt       @errrrrrrrre@                                       tt",
"ttt       #errrrrrrrre#                                       tt",
"ttt       #errrrrrrrrr&                                       tt",
"ttt       +0rrrrrrrrrr;.                                      tt",
"ttt       O7rrrrrrrrrr9o                                      tt",
"ttt       X2rrrrrrrrrrr:X                                     tt",
"ttt       .=rrrrrrrrrrr8$.                                    tt",
"ttt        #wrrrrrrrrrrr<X                                    tt",
"ttt        X<rrrrrrrrrrrw#                                    tt",
"tttt       .$8rrrrrrrrrrr-.                                  ttt",
"tttt        X:rrrrrrrrrrrq%X.                                ttt",
"tttt         o9rrrrrrrrrrre<$X                               ttt",
"tttt         .-rrrrrrrrrrrrr8:o.                             ttt",
"ttttt         #wrrrrrrrrrrrrrr9-#X.                         tttt",
"ttttt         X<rrrrrrrrrrrrrrrrw<$X                        tttt",
"tttttt        .$8rrrrrrrrrrrrrrrrr4-X                      ttttt",
"tttttt         X:rrrrrrrrrrrrrrrrre3$.                     ttttt",
"ttttttt         o6rrrrrrrrrrrrrrrree>X                    tttttt",
"ttttttt         .*5errrrrrrrrrrrrree3O                    tttttt",
"tttttttt         X-4rrrrrrrrrrrrrree3O                   ttttttt",
"tttttttt          X$<wrrrrrrrrrrrree3O                   ttttttt",
"ttttttttt          .X#-9rrrrrrrrrree>X                  tttttttt",
"tttttttttt            .o:8rrrrrrree3$.                 ttttttttt",
"ttttttttttt             X$<wrrrree3-X                 tttttttttt",
"tttttttttttt             .X#=2543>$X                 ttttttttttt",
"ttttttttttttt               .XOOOX.                 tttttttttttt",
"tttttttttttttt                                     ttttttttttttt",
"ttttttttttttttt                                   tttttttttttttt",
"ttttttttttttttttt                               tttttttttttttttt",
"ttttttttttttttttttt                           tttttttttttttttttt",
"ttttttttttttttttttttt                       tttttttttttttttttttt",
"ttttttttttttttttttttttt                   tttttttttttttttttttttt",
"ttttttttttttttttttttttttttt           tttttttttttttttttttttttttt",
"tttttttttttttttttttttttttttttttttttttttttttttttttttttttttttttttt",
"tttttttttttttttttttttttttttttttttttttttttttttttttttttttttttttttt"
};
