/* XPM */
static char *result[] = {
/* columns rows colors chars-per-pixel */
"64 64 7 1 ",
"  c black",
". c #004018",
"X c #008031",
"o c #00C049",
"O c #00FF61",
"+ c #00FF62",
"@ c None",
/* pixels */
"@@@@@@@@@@@@@OO+++++OO++++++++++++O++++++OOO+++++OO@@@@@@@@@@@@@",
"@@@@@@@@@@O+++++++++++++OO++++++++++OOOO++++++++++++++@@@@@@@@@@",
"@@@@@@@@O+++++++++++++++++O+++++++++OO+++++++++++++++++O@@@@@@@@",
"@@@@@@@+++++++++++++++++++++O+++++OO+++++++++++++++++++++@@@@@@@",
"@@@@@@+++++++++++++++++++++++O++++++++++++++++++++++++++++@@@@@@",
"@@@@@++++++++++++++++++++++++++O+++++++++++++++++++++++++++@@@@@",
"@@@@+++++++++++++++++++++++++++OO+++++++++++++++++++++++++++@@@@",
"@@@++++++++++++++++++++++++++++++++++++++++++++++++++++++++++@@@",
"@@O+++++++++++++++++++++++++++OO+++++++++++++++++++++++++++++O@@",
"@@+++++++++++++++++++++++++++OO+++++++++++++++++++++++++++++++@@",
"@O+++++++++++++++++++++++++++OO+++++++++++++++++++++++++++++++O@",
"@++++++++++++++++++++++++++++++++++++++++++++++++++++++++++++++@",
"@++++++++++++++++++++++++++++++++++++++++++++++++++++++++++++++@",
"O+++++++++++++++++++++++++++OO+++++++++++++++++++++++++++++++++O",
"O+++++++++++++++++++++++++++OO+++++++++++++++++++++++++++++++++O",
"++++++++++++++++++++++++++++++++++++++++++++++++++++++++++++++++",
"++++++++++++++++++++++++++++++++++++++++++++++++++++++++++++++++",
"++++++++++++++++++++++++++++++++++++++++++++++++++++++++++++++++",
"++++++++++++++++++++++++++++++++++++++++++++++++++++++++++++++++",
"++++++++++++++++++++++++++++++++++++++++++++++++++++++++++++++++",
"O+++++++++++++++++++++++++++OO+++++++++++++++++++++++++++++++++O",
"O+++++++++++++++++++++++++++OO+++++++++++++++++++++++++++++++++O",
"++++++++++++++++++++++++++++++++++++++++++++++++++++++++++++++++",
"++++++++++++++++++++++++++++++++++++++++++++++++++++++++++++++++",
"+O+++++++++++++++++++++++++++OO+++++++++++++++++++++++++++++++O+",
"+O+++++++++++++++++++++++++++OO+++++++++++++++++++++++++++++++O+",
"++O+++++++++++++++++++++++++++OO+++++++++++++++++++++++++++++O++",
"+++++++++++++X.   .X++++++++++++++++++++++++++++++++++++++++++++",
"+++O+++++++o         o+++++++++OO+++++++++++++++++++++++++++O+++",
"++++++++++o           o+++++++++++++++++++++++++++++++++++++++++",
"++++++++++             +++++++++++++++++++++++++++++++++++++++++",
"++++++O++X             X++++O+++++OO+++++++++++++++++++++O++++++",
"O+++++++O.             .++O+++++++++OO+++++++++++++++++O++++++++",
"O++++++++               OO+++++OO++++OOO+++++++++++++OO+++++++++",
"OO+++++++               +++++O+OO++++++++OOO+++++OO+++++++++++++",
"OO+++++++               +++OO++O++++++++++++++++++++++++++++++++",
"++O++++++.             .O+++++O+O+++++++++++++++++++++++++++++++",
"++O++++++X             X++++++O+OO++++++++++++++++++++++++++++++",
"+O++++++++             ++++++++++O++++++++++++++++++++++++++++++",
"+O+++O++++o           o++++O+++++OO+++++++++++++++++++++++++++++",
"++O++O+O+++o         o+++O+O++++O+O+++++++++++++++++++++++++++++",
"+++++++OOO+++X.   .X+++OOO+++++++++O+++++++++++++++++++++++++++O",
"+++O++++OO++OO+++++OO++OO++++++OOO++O+++++++++++++++++++++++++++",
"++++++++++++OO+++++OO++++++++++++O++++++++++++++++++++++++++++++",
"+++++++++++++++++++++++++++++O++++O+++O+++++++++++++++++++++O+++",
"++++++O+++++++++++++++++++++OO++++++O++OO+++++++++++++++++O++O++",
"++++++++O+++++++++++++++++O+O++++++O+OO++OO+++++++++++++OO+O++++",
"+++++++++OO+++++++++++++OO+++++++++++O+OO+OO+OO+++++OO+++OO+++++",
"+++++++++++++OO+++++OO+++++O++++++++O++++++OO+OO+++++OO+++++++++",
"++++++++++++++++++++++++++++++++++++O+++++++++++++++++++++++++++",
"++++++++++++++++++++++++++++++++++++++O+++++++++++++++++++++++++",
"++O+++++++++++++++++++++O+++++++++++++O+++++++++++++++++++++++++",
"+++OO+++++++++++++++++O++++++++++++O+++O++++++++++++++++++++++++",
"+++O+OO+++++++++++++OO+++++++++++++O++++++++++++++++++++++++++++",
"++++O++++OO+++++OO++++++++++++++++O+++++O+++++++++++++++++++++++",
"++O+++++++++++++++++++++++++++++++++++++++++++++++++++++++++++++",
"++++OO+++++++++++++++++++++++++++O++++++++O+++++++++++++++++++++",
"+++++OO+++++++++++++++++++++++++++++++++++OO++++++++++++++++++++",
"+++++++++++++++++++++++++++++++++++++++++++++O+++++++++++++++++O",
"++++++++O+++++++++++++++++++++O+++++++++++++++OO+++++++++++++OO+",
"+++++++++OO+++++++++++++++++O++++++++++++O++++++++OO+++++OO+++++",
"+++++++++O+OO+++++++++++++OO+++++++++++++O+++++O++++++++++++++++",
"++++++++++O++++OO+++++OO++++++++++++++++O++++++++++++++O++++++++",
"+O++++++++++++++++++++++++++++++++++++++++++++++++++++++++++++++"
};
