/* XPM */
static char *result[] = {
/* columns rows colors chars-per-pixel */
"64 64 32 1 ",
"  c #00FF60",
". c #00FF61",
"X c #00FF62",
"o c #00FF63",
"O c #3FFF88",
"+ c #3FFF89",
"@ c #3FFF8A",
"# c #6EFFA4",
"$ c #6EFFA5",
"% c #6EFFA6",
"& c #7FFFAF",
"* c #7FFFB0",
"= c #80FFAF",
"- c #80FFB0",
"; c #9EFFC3",
": c #9DFFC5",
"> c #BDFFD6",
", c #BDFFD7",
"< c #BEFFD6",
"1 c #BFFFD6",
"2 c #BEFFD7",
"3 c #BFFFD7",
"4 c #BFFFD8",
"5 c #C0FFD7",
"6 c #C0FFD8",
"7 c #DEFFEB",
"8 c #DFFFEB",
"9 c #EFFFF5",
"0 c #F1FFF8",
"q c #F7FFFA",
"w c white",
"e c None",
/* pixels */
"eeeeeeeeeeeee..XXXXX..XXXXXXXXXXXX.XXXXXX...XXXXX..eeeeeeeeeeeee",
"eeeeeeeeee.XXXXXXXXXXXXX..XXXXXXXXXXXXXXoXXXXXXXXXXXXXeeeeeeeeee",
"eeeeeeee.XXXXXXXXXXXXXXXXXXXXXXXooo.. .XXX..XXXXXXXXXXX.eeeeeeee",
"eeeeeeeXXXXXXXXXX+-6wwwwwww4;:<wwwwwww3&+o.oXXXXXXXXXXXXXeeeeeee",
"eeeeeeXXXXXXXX.-wwwwwwwwwwwwwwwwwwwwwwwwwww01$XXXXXXXXXXXXeeeeee",
"eeeeeXXXXXXX.-wwwwwwweeeeeeeeeeeeeeeeeeeeeewwww>XoXXXXXXXXXeeeee",
"eeeeXXXXXXX+wwwwweeeeeeeeeeeeeeeeeeeeeeeeeeeeewww6oXXXXXXXXXeeee",
"eeeXXXXXXX-wwwweeeeeeeeeeeeeeeeeeeeeeeeeeeeeeeeewww$XXXXXXXXXeee",
"ee.XXXXXX*wwweeeeeeeeeeeeeeeeeeeeeeeeeeeeeeeeeeeewww3XXXXXXXX.ee",
"eeXXXXXX-wwweeeeeeeeeeeeeeeeeeeeeeeeeeeeeeeeeeeeeewww2XXXXXXXXee",
"e.XXXXX-wwweeeeeeeeeeeeeeeeeeeeeeeeeeeeeeeeeeeeeeeewww,.XXXXXX.e",
"eXXXXX+wwweeeeeeeeeeeeeeeeeeeeeeeeeeeeeeeeeeeeeeeeeewww2XXXXXXXe",
"eXXXXXwwweeeeeeeeeeeeeeeeeeeeeeeeeeeeeeeeeeeeeeeeeeeewww%oXXXXXe",
".XXXX-wwweeeeeeeeeeeeeeeeeeeeeeeeeeeeeeeeeeeeeeeeeeeeewww.XXXXX.",
".XXXXwwweeeeeeeeeeeeeeeeeeeeeeeeeeeeeeeeeeeeeeeeeeeeeewww3oXXXX.",
"XXXX=wwweeeeeeeeeeeeeeeeeeeeeeeeeeeeeeeeeeeeeeeeeeeeeeewww.XXXXX",
"XXXXwwweeeeeeeeeeeeeeeeeeeeeeeeeeeeeeeeeeeeeeeeeeeeeeeewww2XXXXX",
"XXX@wwweeeeeeeeeeeeeeeeeeeeeeeeeeeeeeeeeeeeeeeeeeeeeeeeewwwXXXXX",
"XXX-wwweeeeeeeeeeeeeeeeeeeeeeeeeeeeeeeeeeeeeeeeeeeeeeeeewww#XXXX",
"XXX4wwweeeeeeeeeeeeeeeeeeeeeeeeeeeeeeeeeeeeeeeeeeeeeeeeewww2XXXX",
".XXwwweeeeeeeeeeeeeeeeeeeeeeeeeeeeeeeeeeeeeeeeeeeeeeeeeewww9XXX.",
".XXwwweeeeeeeeeeeeeeeeeeeeeeeeeeeeeeeeeeeeeeeeeeeeeeeeeewwwwXXX.",
"XXXwwweeeeeeeeeeeeeeeeeeeeeeeeeeeeeeeeeeeeeeeeeeeeeeeeeewwwwXXXX",
"XXXwwweeeeeeeeeeeeeeeeeeeeeeeeeeeeeeeeeeeeeeeeeeeeeeeeeeewwwXXXX",
"X.XwwwweeeeeeeeeeeeeeeeeeeeeeeeeeeeeeeeeeeeeeeeeeeeeeeeeewwwXX.X",
"X.XwwwweeeeeeeeeeeeeeeeeeeeeeeeeeeeeeeeeeeeeeeeeeeeeeeeeewwwXX.X",
"XX.wwwweeeeeeeeeeeeeeeeeeeeeeeeeeeeeeeeeeeeeeeeeeeeeeeeeewwwX.XX",
"XXX4wwweeeeeeeeeeeeeeeeeeeeeeeeeeeeeeeeeeeeeeeeeeeeeeeeewwwwXXXX",
"XXX=wwweeeeeeeeeeeeeeeeeeeeeeeeeeeeeeeeeeeeeeeeeeeeeeeeewwwq.XXX",
"XXX+wwweeeeeeeeeeeeeeeeeeeeeeeeeeeeeeeeeeeeeeeeeeeeeeeeewww9XXXX",
"XXXXwwweeeeeeeeeeeeeeeeeeeeeeeeeeeeeeeeeeeeeeeeeeeeeeeeewwwwXXXX",
"XXXXwwweeeeeeeeeeeeeeeeeeeeeeeeeeeeeeeeeeeeeeeeeeeeeeeeewwwwXXXX",
".XXX8wweeeeeeeeeeeeeeeeeeeeeeeeeeeeeeeeeeeeeeeeeeeeeeeeewwwwXXXX",
".XXX8wweeeeeeeeeeeeeeeeeeeeeeeeeeeeeeeeeeeeeeeeeeeeeeeeewwwwXXXX",
"..XXwwweeeeeeeeeeeeeeeeeeeeeeeeeeeeeeeeeeeeeeeeeeeeeeeeewwwwXXXX",
"..XXwwweeeeeeeeeeeeeeeeeeeeeeeeeeeeeeeeeeeeeeeeeeeeeeeeewwwwOXXX",
"XX.Xwwweeeeeeeeeeeeeeeeeeeeeeeeeeeeeeeeeeeeeeeeeeeeeeeeewwww*XXX",
"XX.owwweeeeeeeeeeeeeeeeeeeeeeeeeeeeeeeeeeeeeeeeeeeeeeeeewwww3XXX",
"X.XXwwweeeeeeeeeeeeeeeeeeeeeeeeeeeeeeeeeeeeeeeeeeeeeeeeewwwwwXXX",
"X.XXwwweeeeeeeeeeeeeeeeeeeeeeeeeeeeeeeeeeeeeeeeeeeeeeeeewwwwwXXX",
"XX.XwwweeeeeeeeeeeeeeeeeeeeeeeeeeeeeeeeeeeeeeeeeeeeeeeeewwwwwXXX",
"XXXX8wweeeeeeeeeeeeeeeeeeeeeeeeeeeeeeeeeeeeeeeeeeeeeeeeewwwwwXX.",
"XXX.7wweeeeeeeeeeeeeeeeeeeeeeeeeeeeeeeeeeeeeeeeeeeeeeeeewwwwwXXX",
"XXXXwwweeeeeeeeeeeeeeeeeeeeeeeeeeeeeeeeeeeeeeeeeeeeeeeeewwwwwXXX",
"XXXXwwweeeeeeeeeeeeeeeeeeeeeeeeeeeeeeeeeeeeeeeeeeeeeeeeewwwwwXXX",
"XXXXwwweeeeeeeeeeeeeeeeeeeeeeeeeeeeeeeeeeeeeeeeeeeeeeeeewwww8.XX",
"XXXXwwweeeeeeeeeeeeeeeeeeeeeeeeeeeeeeeeeeeeeeeeeeeeeeeeewwww8XXX",
"XXXXwwweeeeeeeeeeeeeeeeeeeeeeeeeeeeeeeeeeeeeeeeeeeeeeeeewwwwwXXX",
"XXXXwwweeeeeeeeeeeeeeeeeeeeeeeeeeeeeeeeeeeeeeeeeeeeeeeeewwwwwXXX",
"XXXXwwweeeeeeeeeeeeeeeeeeeeeeeeeeeeeeeeeeeeeeeeeeeeeeeeewwwwwXXX",
"XXXX8wweeeeeeeeeeeeeeeeeeeeeeeeeeeeeeeeeeeeeeeeeeeeeeeeewwwwwXXX",
"XX.X8wweeeeeeeeeeeeeeeeeeeeeeeeeeeeeeeeeeeeeeeeeeeeeeeeewwwwwXXX",
"XXX.wwweeeeeeeeeeeeeeeeeeeeeeeeeeeeeeeeeeeeeeeeeeeeeeeeewwwwwXXX",
"XXX.wwweeeeeeeeeeeeeeeeeeeeeeeeeeeeeeeeeeeeeeeeeeeeeeeeewwwwwXXX",
"XXXXwwweeeeeeeeeeeeeeeeeeeeeeeeeeeeeeeeeeeeeeeeeeeeeeeeewwwwwXXX",
"XX.XwwweeeeeeeeeeeeeeeeeeeeeeeeeeeeeeeeeeeeeeeeeeeeeeeeewwwwwXXX",
"XXXXwwweeeeeeeeeeeeeeeeeeeeeeeeeeeeeeeeeeeeeeeeeeeeeeeeewwwwwXXX",
"XXXXwwweeeeeeeeeeeeeeeeeeeeeeeeeeeeeeeeeeeeeeeeeeeeeeeeewwwwwXXX",
"XXXXwwweeeeeeeeeeeeeeeeeeeeeeeeeeeeeeeeeeeeeeeeeeeeeeeeewwwwwXX.",
"XXXX5wweeeeeeeeeeeeeeeeeeeeeeeeeeeeeeeeeeeeeeeeeeeeeeeeewwwww..X",
"XXXX-wweeeeeeeeeeeeeeeeeeeeeeeeeeeeeeeeeeeeeeeeeeeeeeeeewwwwwXXX",
"XXXXOwweeeeeeeeeeeeeeeeeeeeeeeeeeeeeeeeeeeeeeeeeeeeeeeeewwww8XXX",
"XXXXXwweeeeeeeeeeeeeeeeeeeeeeeeeeeeeeeeeeeeeeeeeeeeeeeeewwww8XXX",
"X.XXXwweeeeeeeeeeeeeeeeeeeeeeeeeeeeeeeeeeeeeeeeeeeeeeeeeewwwwXXX"
};
