/* XPM */
static char *result[] = {
/* columns rows colors chars-per-pixel */
"64 64 3 1 ",
"  c #F00121",
". c #F00222",
"X c None",
/* pixels */
"XXXXXXXXXXXXXXXXXXXXXXXXXXX  .......  XXXXXXXXXXXXXXXXXXXXXXXXXX",
"XXXXXXXXXXXXXXXXXXXXXXX ................. XXXXXXXXXXXXXXXXXXXXXX",
"XXXXXXXXXXXXXXXXXXXX ....................... XXXXXXXXXXXXXXXXXXX",
"XXXXXXXXXXXXXXXXXX ........................... XXXXXXXXXXXXXXXXX",
"XXXXXXXXXXXXXXXX ............................... XXXXXXXXXXXXXXX",
"XXXXXXXXXXXXXXX...................................XXXXXXXXXXXXXX",
"XXXXXXXXXXXXX ..................................... XXXXXXXXXXXX",
"XXXXXXXXXXXX.........................................XXXXXXXXXXX",
"XXXXXXXXXXX...........................................XXXXXXXXXX",
"XXXXXXXXXX.............................................XXXXXXXXX",
"XXXXXXXXX...............................................XXXXXXXX",
"XXXXXXXX.................................................XXXXXXX",
"XXXXXXX ................................................. XXXXXX",
"XXXXXXX...................................................XXXXXX",
"XXXXXX.....................................................XXXXX",
"XXXXX ..................................................... XXXX",
"XXXXX.......................................................XXXX",
"XXXX ....................................................... XXX",
"XXXX.........................................................XXX",
"XXX ......................................................... XX",
"XXX...........................................................XX",
"XXX...........................................................XX",
"XX ........................................................... X",
"XX.............................................................X",
"XX.............................................................X",
"XX.............................................................X",
"X ............................................................. ",
"X ............................................................. ",
"X...............................................................",
"X...............................................................",
"X...............................................................",
"X...............................................................",
"X...............................................................",
"X...............................................................",
"X...............................................................",
"X ............................................................. ",
"X ............................................................. ",
"XX.............................................................X",
"XX.............................................................X",
"XX.............................................................X",
"XX ........................................................... X",
"XXX...........................................................XX",
"XXX...........................................................XX",
"XXX ......................................................... XX",
"XXXX.........................................................XXX",
"XXXX ....................................................... XXX",
"XXXXX.......................................................XXXX",
"XXXXX ..................................................... XXXX",
"XXXXXX.....................................................XXXXX",
"XXXXXXX...................................................XXXXXX",
"XXXXXXX ................................................. XXXXXX",
"XXXXXXXX.................................................XXXXXXX",
"XXXXXXXXX...............................................XXXXXXXX",
"XXXXXXXXXX.............................................XXXXXXXXX",
"XXXXXXXXXXX...........................................XXXXXXXXXX",
"XXXXXXXXXXXX.........................................XXXXXXXXXXX",
"XXXXXXXXXXXXX ..................................... XXXXXXXXXXXX",
"XXXXXXXXXXXXXXX...................................XXXXXXXXXXXXXX",
"XXXXXXXXXXXXXXXX ............................... XXXXXXXXXXXXXXX",
"XXXXXXXXXXXXXXXXXX ........................... XXXXXXXXXXXXXXXXX",
"XXXXXXXXXXXXXXXXXXXX ....................... XXXXXXXXXXXXXXXXXXX",
"XXXXXXXXXXXXXXXXXXXXXXX ................. XXXXXXXXXXXXXXXXXXXXXX",
"XXXXXXXXXXXXXXXXXXXXXXXXXXX  .......  XXXXXXXXXXXXXXXXXXXXXXXXXX",
"XXXXXXXXXXXXXXXXXXXXXXXXXXXXXXXXXXXXXXXXXXXXXXXXXXXXXXXXXXXXXXXX"
};
