/* XPM */
static char *cd93c2d53abc463ec4861ee883d35536H5GK9m5h0voM6tVm[] = {
/* columns rows colors chars-per-pixel */
"64 64 149 2 ",
"   c None",
".  c #01044E",
"X  c #000452",
"o  c #070E55",
"O  c #080B55",
"+  c #01075C",
"@  c #030A5C",
"#  c #091154",
"$  c #07115D",
"%  c #0B145D",
"&  c #0C185F",
"*  c #10155C",
"=  c #101B5E",
"-  c #000762",
";  c #010964",
":  c #050D68",
">  c #071161",
",  c #0B1765",
"<  c #0F1E61",
"1  c #0A126A",
"2  c #0F2067",
"3  c #132364",
"4  c #1D2265",
"5  c #13216B",
"6  c #1D236A",
"7  c #162A6B",
"8  c #1B2E6D",
"9  c #1A3273",
"0  c #1D3A75",
"q  c #23296A",
"w  c #272F7D",
"e  c #2F3471",
"r  c #213C79",
"t  c #22417D",
"y  c #234781",
"u  c #274E85",
"i  c #2A4B84",
"p  c #384D83",
"a  c #3A4088",
"s  c #275086",
"d  c #2F548C",
"f  c #30568E",
"g  c #2F5D91",
"h  c #335F93",
"j  c #376297",
"k  c #346699",
"l  c #3C6699",
"z  c #3D73A5",
"x  c #494F91",
"c  c #575C99",
"v  c #476694",
"b  c #5A6390",
"n  c #5D6B98",
"m  c #686C97",
"M  c #4174A7",
"N  c #467EAF",
"B  c #477FB0",
"V  c #3F94B5",
"C  c #4487B4",
"Z  c #4B83B2",
"A  c #4A8AB7",
"S  c #4C8EBB",
"D  c #5389B4",
"F  c #508FBD",
"G  c #4196B7",
"H  c #4297B8",
"J  c #4C93BE",
"K  c #449ABB",
"L  c #4C9DBD",
"P  c #499FC1",
"I  c #5397C1",
"U  c #559BC6",
"Y  c #599ECA",
"T  c #6597C1",
"R  c #4AA2C5",
"E  c #4DA6C9",
"W  c #4FA9CB",
"Q  c #54A3C3",
"!  c #58A6C4",
"~  c #5DA9C7",
"^  c #5CA4CF",
"/  c #52AACD",
"(  c #59AECF",
")  c #5CA6D0",
"_  c #53AED1",
"`  c #5BADD4",
"'  c #56B2D6",
"]  c #58B3D7",
"[  c #57B4D8",
"{  c #58B5D9",
"}  c #5CB9DD",
"|  c #69AFCA",
" . c #67B1CD",
".. c #6CB1CD",
"X. c #63ADD4",
"o. c #62AFD8",
"O. c #6DB6D3",
"+. c #64B5DC",
"@. c #63B9DA",
"#. c #6ABADA",
"$. c #71B9D5",
"%. c #71BFDF",
"&. c #78BED9",
"*. c #5FBCE0",
"=. c #62BEE2",
"-. c #6ABCE3",
";. c #65C1E5",
":. c #69C3E7",
">. c #67C3E8",
",. c #6AC5EA",
"<. c #6DC9ED",
"1. c #75C4E5",
"2. c #70C7ED",
"3. c #71C9EE",
"4. c #7CCBE9",
"5. c #72CEF2",
"6. c #76D2F6",
"7. c #7AD3F6",
"8. c #8084B2",
"9. c #8A8DB8",
"0. c #A7A9C7",
"q. c #BCBDD0",
"w. c #82C5DE",
"e. c #8DCCE5",
"r. c #89CFEA",
"t. c #93D1E9",
"y. c #9BD6ED",
"u. c #83D5F6",
"i. c #88D7F7",
"p. c #8AD8F7",
"a. c #93DCF9",
"s. c #9BDFFA",
"d. c #A4DEF5",
"f. c #9EE0FA",
"g. c #A9E1F6",
"h. c #A1E1FA",
"j. c #ABE4FB",
"k. c #B1E6FB",
"l. c #B3E8FC",
"z. c #B4E8FC",
"x. c #C4C7D9",
"c. c #CECFDD",
"v. c #D2D3E2",
"b. c #D5D5E1",
"n. c #E5E6EF",
"m. c #E9E9F0",
"M. c #FDFDFE",
"N. c #FEFEFF",
"B. c #FCFCFD",
/* pixels */
"                                                                                                                                ",
"                                                                                                                                ",
"                                                                                                                                ",
"                                                                                                                                ",
"                                                                                                                                ",
"                                                                                                                                ",
"                                                                                                                                ",
"                            L Q                                                                                                 ",
"                            / r.w...L                     L Q ! Q R K                                                           ",
"                            E [ u.h.j.d.t.w.&.$.#.1.1.4.u.u.u.p.7.6.6.5.4.$.L                                                   ",
"                            R [ } 5.7.7.7.7.7.7.6.7.7.7.7.7.7.7.7.6.6.6.6.u.d.e.!                                               ",
"                            K [ [ } >.<.5.6.6.6.6.6.6.6.6.6.6.6.6.6.6.6.6.6.7.s.k.w.L                                           ",
"                              R [ [ [ [ [ [ >.6.6.6.6.6.6.6.6.6.6.6.6.6.6.6.6.6.a.l.d.~                                         ",
"                                R { [ [ W :.6.6.7.6.6.6.6.6.6.6.6.6.6.6.6.6.6.6.6.a.l.j.$.                                      ",
"                                  K E E :.6.6.7.6.6.6.6.6.6.6.6.6.7.6.6.6.6.6.6.6.6.a.z.k.$.                                    ",
"                                    K <.6.6.7.6.6.6.6.6.6.6.6.6.6.6.7.6.6.6.6.6.6.6.7.s.z.z.O.                                  ",
"                                  K =.6.6.7.6.6.6.6.6.6.6.6.6.6.6.6.6.7.6.6.6.6.6.6.6.7.j.z.k. .                                ",
"                                H ' 5.6.7.6.6.6.6.6.6.6.6.6.6.6.6.6.6.6.7.6.6.6.6.6.6.6.u.l.z.g.Q                               ",
"                                / =.7.6.6.6.6.6.6.6.6.6.6.6.6.6.6.6.6.6.6.6.6.6.6.6.6.6.6.s.z.z.t.                              ",
"                              R [ ,.6.6.6.6.6.6.6.6.6.6.6.6.6.6.6.6.6.6.6.6.6.6.6.6.6.6.6.7.j.z.z.O.                            ",
"                            K ' [ 5.6.6.7.6.6.6.6.6.6.6.6.6.6.6.6.6.6.6.6.7.6.7.6.6.6.6.6.6.7.f.z.d.G                           ",
"                            E [ } 6.6.6.6.7.6.6.6.6.6.6.6.6.6.6.6.6.6.6.6.6.6.6.7.6.6.6.6.6.6.6.a.l.$.                          ",
"                          V ' [ =.6.6.6.6.6.7.6.6.6.6.6.6.6.6.6.6.6.6.6.6.6.6.6.6.7.6.6.6.6.6.6.6.a.y.                          ",
"                          K [ [ ,.6.6.6.6.6.6.7.6.6.6.6.6.6.6.6.6.6.6.6.6.6.6.6.6.6.7.6.6.6.6.6.6.6.p.Q                         ",
"                          E [ [ <.6.6.6.6.6.6.6.7.6.6.6.6.6.6.6.6.6.6.6.6.6.6.6.6.6.6.7.6.6.6.6.6.6.7./                         ",
"                          / [ [ 5.6.6.6.6.6.6.6.6.6.6.6.6.6.6.6.6.6.6.6.6.6.6.6.6.6.6.6.6.6.6.6.6.6.-.`                         ",
"                          _ [ } 6.6.6.6.6.6.6.6.6.6.6.6.F ) 6.6.6.6.6.6.6.6.6.6.6.6.6.6.6.6.6.6.6.U # J                         ",
"                          ' [ } 6.6.6.6.6.6.6.6.7.u.7.7.l 3 S 2.6.6.6.6.6.6.5.5.6.6.5.6.u.7.6.2.Z = O I                         ",
"                        ..] [ *.6.6.6.6.6.6.6.6.7.i.u.i.T 4 q p A =.,.<.<.>.C +.6.5.z } 1.%.D n m q 6 X.                        ",
"                        Q @.[ =.6.6.6.6.6.6.6.6.6.7.7.7.-.* % * * b v h g u g :.6.5.J 0 8 e c.M.x., 5 1.K                       ",
"                        K { [ >.6.6.6.6.6.6.6.6.6.6.6.6.6.9 + + @ v.m.b.q.4 0 <.6.6.;.< X % n.M.8.; t 5.V                       ",
"                        K [ [ >.6.6.6.6.6.6.6.6.6.6.6.6.6.Y $ ; ; 9.M.M.0.@ @ -.6.6.6.$ - ; w c 1 $ +.6.V                       ",
"                        K [ [ ,.6.6.6.6.6.6.6.6.6.6.6.6.6.6.Y & - : a x 1 ; $ -.6.6.6.h @ - - + 7 o.6.6.G                       ",
"                        K [ [ ,.6.6.6.6.6.6.6.6.6.6.6.6.6.6.6.-.z 9 , : > 5 N 6.6.6.6.5.Y M M U 2.6.6.6.K                       ",
"                        K [ [ <.6.6.6.6.6.6.6.6.6.6.6.6.6.6.6.6.6.5.+.Y ^ -.6.6.6.6.7.6.6.6.6.6.6.6.6.6.G                       ",
"                        K [ [ <.7.6.6.6.6.6.6.6.6.6.6.6.6.6.6.6.6.6.6.7.6.6.6.6.2.5.6.6.6.6.6.6.6.6.6.6.G                       ",
"                        K [ [ <.6.7.6.6.6.6.6.6.6.6.6.6.6.6.6.6.6.5.:.6.7.5.F r < 3 f ` +.B N :.6.6.6.6.G                       ",
"                        K [ [ <.6.6.6.6.6.6.6.6.6.6.6.6.6.6.6.6.:.d 7 j Z i . X X X X o % . . 8 -.6.6.6.G                       ",
"                        K [ [ ,.6.6.6.6.6.6.6.6.6.6.6.6.6.6.6.2.3 X X X X X X X X X X X X X X X % +.6.6.G                       ",
"                        K { [ ,.6.6.6.6.7.6.6.6.6.6.6.6.6.6.2.t X X X X + @ - - - ; ; ; - X X X X r 6.6.G                       ",
"                        K ' [ >.6.6.6.6.6.7.6.6.6.6.6.6.6.6.A . X X X - ; ; @ t g 2 - ; @ y s o X . 5.6.H                       ",
"                        K ' [ >.6.6.6.6.6.6.7.6.6.6.6.6.6.6.r X X 9 k @ + $ S 5.6.=.k 7 J 6.5.` 0 r 6.6.H                       ",
"                        K ' [ =.6.6.6.6.6.6.6.7.6.6.6.6.6.6.d . u +.<.U S +.6.6.6.6.6.5.6.6.6.6.5.5.6.6.K                       ",
"                        K ' [ } 6.6.6.6.6.6.6.6.7.6.6.6.6.6.5.=.5.6.6.6.6.6.6.6.6.6.6.7.6.6.6.6.6.6.6.6.L                       ",
"                        K ' [ } 5.6.6.6.6.6.6.6.6.6.6.6.6.6.6.6.6.6.6.6.6.6.6.6.6.6.6.6.6.6.6.6.6.6.6.6.K                       ",
"                        K ' [ [ 5.6.6.6.6.6.6.6.6.6.6.6.6.6.6.6.6.6.6.6.6.6.6.6.6.6.6.6.6.6.6.6.6.6.6.6.P                       ",
"                        K ' [ [ ,.6.6.6.6.6.6.6.6.u.7.6.6.6.6.6.6.6.6.6.6.6.6.6.6.6.6.6.u.7.6.6.6.6.6.6.E                       ",
"                        | [ [ [ ;.6.6.6.6.6.6.6.7.p.p.u.p.u.p.p.7.6.6.6.6.6.6.6.6.6.6.6.p.p.u.p.p.p.p.7./                       ",
"                        ! @.[ [ [ 6.6.6.6.6.6.6.6.u.7.u.7.u.u.u.7.7.6.6.6.6.6.6.6.6.6.6.u.u.u.7.u.u.7.7.(                       ",
"                        R [ [ [ [ <.6.6.6.6.6.6.6.6.6.6.6.6.6.6.6.6.6.6.6.6.6.6.6.6.6.6.6.6.6.6.6.6.6.6.}                       ",
"                        W [ [ [ [ >.6.6.6.6.6.6.6.6.6.6.6.6.6.6.6.6.6.6.6.6.6.6.6.6.6.6.6.6.6.6.6.6.6.6.:.                      ",
"                      V ' [ [ [ [ } 6.6.6.6.6.6.6.6.6.6.6.6.6.6.6.6.6.6.6.6.6.6.6.6.6.6.6.6.6.6.6.6.6.6.6.K                     ",
"                      K [ [ [ [ [ [ <.6.6.6.6.6.7.6.6.6.6.6.6.6.6.7.6.6.6.6.6.6.6.6.6.7.6.6.6.6.6.6.6.6.7.}                     ",
"                      R [ [ [ [ [ [ } 5.;.=.<.6.6.6.6.6.6.6.6.6.5.5.3.6.6.6.6.6.6.6.7.5.=.' } <.6.6.6.6.6.3.K                   ",
"                      / [ [ [ [ [ [ _ K   G E } 5.6.6.6.6.6.6.,.E R _ } <.6.6.6.6.7.6.E     K ' >.6.6.6.6.6._                   ",
"                    V _ [ [ [ [ [ / V         / } 5.6.6.6.6.;.H     V / } <.6.6.7.6./         K ' >.6.6.6.6.:.                  ",
"                    V ' [ [ [ [ _ K           K ' *.6.6.6.<.R         K ' } 5.7.6.=.            R [ >.5.6.6.>.                  ",
"                      / [ [ { E G               K { =.<.<.R             R [ } <.<.K               E [ [ =.=.P                   ",
"                      K R R K                     K E E K                 R / W K                   K R R K                     ",
"                                                                                                                                ",
"                                                                                                                                ",
"                                                                                                                                ",
"                                                                                                                                ",
"                                                                                                                                "
};
