/* XPM */
static char *result[] = {
/* columns rows colors chars-per-pixel */
"64 64 57 1 ",
"  c #FFEF00",
". c #FBF000",
"X c #FCF000",
"o c #FDF000",
"O c #FCF100",
"+ c #FDF100",
"@ c #FFF000",
"# c #FEF100",
"$ c #FFF100",
"% c #FFF101",
"& c #FEF200",
"* c #FFF200",
"= c #FFF300",
"- c #FFF201",
"; c #FFF301",
": c #FFF202",
"> c #FFF203",
", c #FFF303",
"< c #FFF204",
"1 c #FFF304",
"2 c #FFF207",
"3 c #FFF208",
"4 c #FFF319",
"5 c #FFF11A",
"6 c #FFF12D",
"7 c #FFF22D",
"8 c #FFF344",
"9 c #FFF246",
"0 c #FFF359",
"q c #FFF25D",
"w c #FFF25F",
"e c #FFF160",
"r c #FFF260",
"t c #FFF575",
"y c #FFF88D",
"u c #FFF9A4",
"i c #FFF9A8",
"p c #FFFABA",
"a c #FFFABC",
"s c #FFFABF",
"d c #FFFBBF",
"f c #FFFCBF",
"g c #FFFDDA",
"h c #FFFDDF",
"j c #FFFEDF",
"k c #FFFDE6",
"l c #FFFEE6",
"z c #FFFEE7",
"x c #FFFEEE",
"c c #FFFEEF",
"v c #FFFFF3",
"b c #FFFEF5",
"n c #FFFEF6",
"m c #FFFFF7",
"M c #FFFFF9",
"N c #FFFEFA",
"B c white",
/* pixels */
"BBBBBBBBBBBBBBBBBBBBBBBBBBBBBBBBBBBBBBBBBBBBBBBBBBBBBBBBBBBBBBBB",
"BBBBBBBMmvgBBBBBBBvmBBBBBBBBBBBmvBBBBBBBgccvBBBBBBBBBBBBBBBBffBB",
"BBdr3@*$***$*$**=*****=*==******************=*=@$##oo.X$$$$$$$BB",
"BBse3$@@$*$****$**===*$*=***===$=****===*=*********##+O$$$$$$$BB",
"BBsr3=$**$$*$=*$=*=**=$***********=*****=**=$*******$$&$$$$$$$BB",
"BBsr3@*****=*=***=***=*=$***==*******==**$=**$******=*$#$$$$$$BB",
"BBde3$$$$***$**********=$**=****=***=**=$=**$****=*=***$$$$$$$BB",
"BBaw3**=****$****=*****=********=******=$**$*****=*=*****$$$$$BB",
"BBpq2*****==**=**=*****=********=********=$***=**=******$$$$$$BB",
"BMi9-**=****$=*********=********=*****$=*=***==**$********$$$$BB",
"BNu8;*$*=*==$*****=****=********=*****$*******$$*=**======$$$$BB",
"Bby6**$=*=**=*=****==$**********=******=*****$*$**********$$$$BB",
"Bnt5*=**=***=$*******$=**=*=****=***=$*=*****=*=**=*********$$BB",
"Bx02*=**=***=$=****===*=$*=*==************$*$*=*************$$BB",
"BB7$=*******=*=*******$***********=****$*$=*=$******=*****=**$BB",
"BB4$********=**$******$*****===$=***$==*$***$****=*=*******=*=BB",
"BB-**=******=********==*************$***$$*$***=*=*=*******=*=cB",
"BB***=$**=**=*=***$***=$$=***==*$*=*$*=$**$**===*=**===****$$*BB",
"BB*=*=$***==***=$$*$***$*=*=**==$**=$*$******==***=*$$******=*BB",
"BB*=$********=*=****$***$=*****=*$=*@*$$*****=****$*=*=====**=BB",
"BB*=$=****===*=*=****$***$$=*******$*$*********=$**==*$$*****$BB",
"BB*=*=***********=*=$****$***$******$$$$***===$**==**********=BB",
"BB*=************=****====*****$****$*$*$*****$=$==************BB",
"BB=**$=*****==***=***$*$***$$$****$*$$$$***=***********=*****=BB",
"BB**=**=*$***=**=**===**==***$**=***$@@$$*=$********=*=*******BB",
"BB==*=****$*****=*=******$**=***$*$* @*$$$*$$=$*****=*=*******BB",
"BB*****$=**$****=*=**********$$@@@$*$@$$$*$******=**=**===****BB",
"BB*****=$**=*==****=*****=****$*$*$* *$**$***=*===***=*$$*****BB",
"BB*==***=$*$******=***==******$**$**$$$@$$$**=*=*****$*=*=====BB",
"BB**=**=****====***=******$**$*******$$************$**==*$$***BB",
"BB**==*=*=**$*$***$******$$$$$@**=$*@**$@*=***===$**==********BB",
"BB$****=*=***$$****=*$**$****=*$***$****$**=****$=$==*********BB",
"Bv=*==****=******$**$$*****@$**$$=********$***=***********=***BB",
"BB$*************$*$$$$*@ $$***==**=****$*$$**=$********=*=****BB",
"BB$*****=*=**$$$$**$**=**$******=*=***$@$**$**$$=$*****=*=****BB",
"BB*@*$*=*$$**$$*$$$**$=$=*******=*=$**@@*****$******=**=******BB",
"BB=*$$********$$*$$**$$**=*****==***=*@$*$$*$***=*===**$******BB",
"BB*****$$***==*@$$$$******=*=****$$$*@$ *$**$$**=*=*$$*=**====BB",
"BB********$*@*$$@$*******=*******$***$*$@**$*******$*$********BB",
"BB*=********$$===*$*$*=**$*****$$$**$*$*$=$$$=*****=*=**=*****BB",
"BB$*=****$$**=**===**==**=*****$***$$****$*$**=*$*$*=*********BB",
"BB$$**$$*==***=*******$$=***===*$$@*$***$*$=$$*$**=$******=***BB",
"BB*$*=****=**=**=======***$***$@*$$$*==*$*$$$$****$****=*=****BB",
"BB**$@$$$$==$*$*$$$**$$$$*$$***$=$*$*$***$@**$$$*$***=*=*=****BB",
"Bm**$=**$$$$$=*=**$$$$***=*$*$ $$@$$@$*$$@ *$@**$**===*=*$****BB",
"Bm=*=$$$=*****$@******=$$*$$$$**$@=*$$$$*$$****$$**==*$$=*****BB",
"Bl$$*$*$$$$$$*@*@*$$$$$$@@*$$*$*$$$*$***=$ *$@****$$$*****====BB",
"BB$$***$$***$$***$$**$*$*$$$*$$$**$@@$$$*$$$$$$*$$@$ *$*******BB",
"BB-$$****$*$*****$*$*$$**=$$$*$$***$*$$***$$$@$$$*==**$=$$****BB",
"BB:;*****=******$***$****$***$****$***$$***$$$$$*$***$*$***$$*BB",
"BB,-$*****=*=****$********$********$***$***$***@$***$*$$$=*$*$BB",
"BB>%$*****=*=*****$=$******$=$******$=$*****$$***$***$**=$****BB",
"BB<-**====**=*===**$*=$===**$*=$*=*****=$****$*$$**=**$*$$****BB",
"BB<:*******=***==***=**$==***=**$===***=**==**$*=$*=***$**$==*BB",
"Bc1-**====**==**==***=*$*==*=*=$$*******$$==***=**$==**=*=*$**BB",
"BB,-$****===********************=******==**==***=$$****=*=$*=*BB",
"BB:-*******==*=*===****=$===****=$===*****$*******=******=**=*BB",
"BB-$********==*=*****=********=********=**$===****=$===******=BB",
"BB-**********=***==*******==*******==*****=*****=********=**$*BB",
"BB***********==*=**=***=****=***=****=*****$==*******====*$***BB",
"BB************=*=******=********=********=****=***=****=*=$=**BB",
"BB************=*=******=********=********=********=*********=$BB",
"BBBBBBBBBBBBBBBBBBBBBhczBBBBBBBBBBBBBBBkcjBBBBBBBBBBBBBBBBBBBBBB",
"BBBBBBBBBBBBBBBBBBBBBBBBBBBBBBBBBBBBBBBBBBBBBBBBBBBBBBBBBBBBBBBB"
};
