/* XPM */
static char *result[] = {
/* columns rows colors chars-per-pixel */
"64 64 174 2 ",
"   c #010101",
".  c #080707",
"X  c #00050B",
"o  c #0C0C0C",
"O  c #07090A",
"+  c #120F0B",
"@  c #1B160C",
"#  c #18140C",
"$  c #000912",
"%  c #141413",
"&  c #191717",
"*  c #1C1B1B",
"=  c #1B1918",
"-  c #0F151A",
";  c #221B0E",
":  c #221E1C",
">  c #241E13",
",  c #2A2212",
"<  c #26211F",
"1  c #29251C",
"2  c #322916",
"3  c #3C3018",
"4  c #001326",
"5  c #01162B",
"6  c #011C37",
"7  c #232222",
"8  c #2B2624",
"9  c #2F2927",
"0  c #2B2B2B",
"q  c #332C2A",
"w  c #39322F",
"e  c #323232",
"r  c #3D3632",
"t  c gray23",
"y  c #262C33",
"u  c #413419",
"i  c #4A3B1E",
"p  c #423A36",
"a  c #443C38",
"s  c #433822",
"d  c #534321",
"f  c #5C4A25",
"g  c #4B423E",
"h  c #604D26",
"j  c #665229",
"k  c #6B562B",
"l  c #735C2E",
"z  c #7A6231",
"x  c #012244",
"c  c #0C2846",
"v  c #002953",
"b  c #002D5A",
"n  c #03305D",
"m  c #183A5D",
"M  c #203F5F",
"N  c #01366B",
"B  c #003366",
"V  c #003C78",
"C  c #3F4143",
"Z  c #434343",
"A  c #4E4541",
"S  c #4B4B4B",
"D  c #544B46",
"F  c #564D48",
"G  c #584D49",
"H  c #5A514B",
"J  c #535353",
"K  c #5C5C5C",
"L  c #60544F",
"P  c #615650",
"I  c #645953",
"U  c #685C56",
"Y  c #6D615B",
"T  c #5E6771",
"R  c #646464",
"E  c #6C6C6C",
"W  c #796A64",
"Q  c #7A6B64",
"!  c #737373",
"~  c #7D7D7D",
"^  c #73777C",
"/  c #836934",
"(  c #8F7339",
")  c #9A7B3D",
"_  c #84746D",
"`  c #9F8040",
"'  c #AD8A45",
"]  c #A68542",
"[  c #B28F48",
"{  c #BC964B",
"}  c #B49048",
"|  c #C69F4F",
" . c #CCA352",
".. c #D9AE57",
"X. c #D4AA55",
"o. c #EBBC5E",
"O. c #E5B85C",
"+. c #EFBF60",
"@. c #F4C361",
"#. c #F8C763",
"$. c #FFCC66",
"%. c #00458A",
"&. c #004488",
"*. c #004A94",
"=. c #004D9B",
"-. c #135597",
";. c #095097",
":. c #205E9D",
">. c #23609E",
",. c #0051A2",
"<. c #0055AA",
"1. c #0059B3",
"2. c #005EBC",
"3. c #366DA3",
"4. c #2D67A0",
"5. c #5A7999",
"6. c #6D7680",
"7. c #487BAD",
"8. c #0066CC",
"9. c #0469CD",
"0. c #0A6CCE",
"q. c #0463C2",
"w. c #1E6FC1",
"e. c #1271CF",
"r. c #1875D1",
"t. c #327FCC",
"y. c #247CD3",
"u. c #3485D6",
"i. c #3B89D8",
"p. c #4790DA",
"a. c #559ADD",
"s. c #4D8ECF",
"d. c #64A2E0",
"f. c #6FA9E2",
"g. c #73ABE3",
"h. c #7EB2E5",
"j. c #838383",
"k. c #8B8B8B",
"l. c #8A8F94",
"z. c #949494",
"x. c #9A9A9A",
"c. c #98ABBE",
"v. c #8EA4BB",
"b. c #A3A3A3",
"n. c #ABABAB",
"m. c #B4B4B4",
"M. c #BDBDBD",
"N. c #9DAEC0",
"B. c #9BB3CC",
"V. c #ADB7C1",
"C. c #93BEEA",
"Z. c #8BB9E8",
"A. c #BCC6CF",
"S. c #9BC3EB",
"D. c #A3C8ED",
"F. c #B1D0EF",
"G. c #BED8F2",
"H. c #C3C3C3",
"J. c #CCCCCC",
"K. c #D4D3D3",
"L. c #DBDBDB",
"P. c #D4DEE8",
"I. c #C4DBF3",
"U. c #CADFF4",
"Y. c #D9E9F7",
"T. c #D9E8F8",
"R. c #E3E3E3",
"E. c #EBEBEB",
"W. c #E2EEF9",
"Q. c #EAF1F8",
"!. c #F4F4F4",
"~. c #FFFFFF",
"^. c #F5F9FD",
"/. c None",
/* pixels */
"/./././././././././././././././././././././././././././././././././././././././././././././././././././././././././././././././.",
"/./././././././././././././././././././././././././././././././././././././././././././././././././././././././././././././././.",
"/./././././././././././././././././././././././././././././././././././././././././././././././././././././././././././././././.",
"/./././././././././././././.    $ $ $ $ X X           /././././././././././././././././././././././././././././././././././././.",
"/././././././././././.    7 b ,.1.2.2.2.1.1.1.,.B 6 $           /./././././././././././././././././././././././././././././././.",
"/././././././././.  o E J.W.8.8.8.8.8.8.8.8.8.8.8.8.e.P.M.j.J &       /././././././././././././././././././././././././././././.",
"/./././././././.o K J.!.E.B.*.&.*.*.,.<.1.2.8.8.8.9.h.~.~.~.^.L.b.J =     /././././././././././././././././././././././././././.",
"/././././././.  ! E.z.0 & o o o % % + . O $ 5 b %.t.^.~.~.~.~.~.~.~.R.E .   /././././././././.    /././././././././././././././.",
"/././././././.  t % 8 p D F F F F F F F F g r 9 % o J M.^.~.~.~.~.~.~.~.K.S   /././././././.  K Z /././././././././././././././.",
"/./././././.    7 A F F F F F F F F F F F G F F D a : o R R.~.~.~.~.~.~.~.!.R . /./././././.  b.E /././././././././././././././.",
"/././././.  . 8 A F F F F G I U Y Y P G F G F F D G F w + % J.~.~.~.~.~.~.~.~.~   /././././.  M.E /././././././././././././././.",
"/././././.  = r F F F P W _ _ _ _ _ _ _ Q Y P F G D D g p : 7 K.~.~.~.~.~.~.~.^.J   /./././.  K.~   /./././././././././././././.",
"/././././.o q g F F U _ _ _ _ _ _ _ _ _ _ _ _ Q H G G G a p % Z ^.~.~.~.~.~.~.~.R.*   /././.o R.j.  /./././././././././././././.",
"/./././.  * r D F U _ _ _ _ _ _ _ _ _ _ _ _ _ _ Q H G G a p 8 . n.~.~.~.~.~.~.~.!.z.  /././.& E.~   /./././././././././././././.",
"/./././.  < p A p r r r p p g g g G L I W _ _ _ _ Y G D a p q o J ~.~.~.~.~.~.~.!.J.t /././.& E.~   /./././././././././././././.",
"/./././.  < r q   @ d d h k d d u 3 , ; # + * 8 g G A D p p 9 % 0 ~.~.~.~.~.~.~.E.J.~   /./.* !.z.  /./././././././././././././.",
"/./././.  & 9 9   ) $.$.$.$.$.$.$.$.$.@.o.O... .) d # r p p 9 # e ~.~.~.~.~.~.x.R n.M.. /./.7 !.z.  /./././././././././././././.",
"/././.    . : =    .$.$.$.$.$.$.$.$.$.$.$.$.$.$.$.$.{ @ 0 p < + S ~.~.~.~.~.~ * S 0 J.* /./.7 !.z.  /./././././././././././././.",
"/././.  7 k.% % ; O.$.#.$.$.$.$.$.$.$.$.#.@.$.$.$.$.$.o.> : : o j.~.~.~.~.H.* m.H.0 x.Z     & z.J   /./././././././././././././.",
"/././.  0 ~.k.+ i #.$.j } $.$.$.$.$.$.$.f z $.$.$.$.$.$.u . = . H.~.~.~.~.S k.J.K.E ! K 7 R E K J 0 %     /././././././././././.",
"/././.  t ~.~.S k $.@.. / $.$.$.$.$.$.$.+ u $.$.$.$.$.$.u ! o % R.~.~.~.L.& A.K.!.n.J ! E ~.~.~.~.^.J.k.J o /./././././././././.",
"/././.  0 ~.!.e ( $.|   ) $.$.$.$.$.$. .  u $.$.$.$.$.$., M.l.g ~.~.~.~.z.g J.E.~.H.Z ! R E.R.L.R.E.~.~.E.z.. /././././././././.",
"/././.  * ~.R.o [ $.[   ) $.$.$.$.$.$.(   d $.$.$.$.$.$., K.^.!.~.~.~.~.! K J.^.~.m.S E % 0 8 0 8 e t E x.H.* /././././././././.",
"/././.  . ~.K.   .$.'   ' $.$.$.$.$.$.l   d $.$.$.$.$.#., L.~.~.~.~.~.~.E R J.~.~.j.K S ! n.L.E.E.L.b.t % ~ 7 /././././././././.",
"/./././.  K.H.  o.$.X.  { $.$.$.$.$.$.z   f $.$.$.$.$.+.1 R.~.~.~.~.~.~.! R J.E.~.t k.0 b.J.~.~.~.~.~.~.z.o   /././././././././.",
"/./././.  n.J.  o.$.$.] +.$.$.$.$.$.$.'   k $.$.$.$.$.O.1 E.~.~.~.~.~.~.k.t J.K.J.% n.. & * 0 J j.n.R.^.!.R   /././././././././.",
"/./././.  K L.o X.$.$.$.$.$.$.$.$.$.$.#.i { $.$.$.$.$...8 ^.~.~.~.~.~.~.K.o n.J.J J j.^ x.k.E S 0 o o e n.H.7 /././././././././.",
"/./././.  & J.* j / 3 ; # > 2 2 3 d z ] @.$.$.$.$.$.$.{ e ~.~.~.~.~.~.~.~.l.8 Z = m.t !.~.^.E.K.J.H.x.S . 7 S   /./././././././.",
"/././././.  m.J   o K ! j.j.j.~ E S . 7 s X.$.$.$.@...k S ~.~.~.~.~.~.~.~.!.x.R b.k.R ~.~.~.~.~.!.L.J.J.S & .   /./././././././.",
"/././././.  E R.t 7 z.x.x.x.z.x.x.x.q ^ ^ , X.' f @ .   R ~.~.~.~.~.~.~.~.R.J.J.H.7 R.~.~.~.~.~.~.~.!.J.e ! n.g . /././././././.",
"/././././.  % H.n.e x.x.x.x.x.x.x.x.J J x.0       * R M.~.~.~.~.~.~.~.~.R.J.J.J.R k.~.~.~.~.~.~.~.~.~.!.& b.L.J.n.t   /././././.",
"/./././././.  S n.7 z.x.x.x.x.x.x.x.R t k.9 K x.R.~.~.~.~.~.~.~.~.~.~.R.J.J.J.x.8 E.~.~.~.~.~.~.~.~.~.~.+ A.~.R.J.J.7 /././././.",
"/./././././.  . k.7 E z.x.b.x.v.x.x.Z t R 0 K.~.~.~.~.~.~.~.~.~.~.E.K.J.J.J.m.* H.~.~.~.~.~.~.~.~.~.~.~.O M.~.~.R.J.0 /././././.",
"/././././././.  0 0 S ! ~ 6.6.` ~ E % S R e E.~.~.~.~.~.~.~.^.R.K.J.J.J.J.M.7 z.~.~.b.E R J J R ! z.b.M.7 b.~.~.E.H.o /././././.",
"/./././././././.    o K E R R R R Z % R t m Q.~.~.~.~.^.E.L.J.J.J.J.J.J.M.0 ! ~.~.~.!.m.k.R Z   7 t 0 & % 7 b.E.L.k.  /././././.",
"/././././././././.    o 7 0 0 e e o 7 7 5 q.F.~.E.R.K.K.J.J.J.J.J.J.J.H.0 K !.~.~.~.~.E.J.J.H.* S ~.!.E.R.n.Z & 0 % /./././././.",
"/./././././././././.  - x x 5 4 4 4 6 n =.,.7.J.J.J.J.J.J.J.J.J.J.J.b.7 E ^.~.~.~.~.~.~.K.J.J.!   K.~.~.~.E.H.  /./././././././.",
"/././././././././././.  X b *.*.*.*.*.*.*.*.;.c.J.J.J.J.J.J.J.J.H.K % z.~.~.~.~.~.~.~.~.E.J.J.H.0 K ^.~.~.R.m.  /./././././././.",
"/./././././././././././.    4 N *.*.*.*.*.*.*.3.J.J.J.J.J.J.n.E 8 S H.~.~.~.~.~.~.~.~.~.^.K.J.J.k.o H.~.~.R.b.  /./././././././.",
"/./././././././././././././.    4 v &.*.*.*.*.*.c.J.J.H.k.S + t z.^.~.~.~.~.~.~.~.~.~.~.~.E.J.J.H.7 K ~.~.L.x.  /./././././././.",
"/./././././././././././././././.      X 5 x x x c M 2 . 4 N w.S.^.~.~.~.~.~.~.~.~.~.~.~.~.~.K.J.J.~ o L.~.K.k.  /./././././././.",
"/./././././././././././././././././././.  o R M N V %.1.8.9.8.9.i.T.~.~.~.~.~.~.~.~.~.~.~.~.R.J.J.H.t J !.J.^   /./././././././.",
"/./././././././././././././././././././.  o K.S.8.8.9.9.8.r.y.9.9.y.I.~.~.~.~.~.~.~.~.~.~.~.~.J.J.J.~ X H.J.R   /./././././././.",
"/././././././././././././././././././././.  E ~.t.8.8.e.I.~.~.W.p.9.y.Q.~.~.~.~.~.n.e 0 e A ^ b.M.J.H.* Y J.t /././././././././.",
"/././././././././././././././././././././.  & H.I.9.9.C.~.~.^.~.^.a.8.d.~.~.~.~.~ 7 k.M.b.E e % & E A.k.% x.* /././././././././.",
"/./././././././././././././././././././././.  S W.0.9.G.~.F.y.f.~.T.r.9.W.~.~.b.7 L.~.~.~.~.~.R.M.R E J.e t o /././././././././.",
"/././././././././././././././././././././././.  V.r.9.S.~.f.9.8.G.~.f.9.C.~.E.& J.~.~.~.~.!.L.J.J.J.J.J.~     /././././././././.",
"/././././././././././././././././././././././.  t s.9.i.^.I.9.9.Z.~.S.9.d.~.l.t ~.~.~.~.~.L.J.^ ` J.J.J.n.%   /././././././././.",
"/./././././././././././././././././././././././.  5.9.9.F.~.F.f.W.~.C.8.p.~.K t ~.~.~.~.~.R.J.H.M J J.J.m.= /./././././././././.",
"/./././././././././././././././././././././././.  0 s.9.r.Y.~.~.~.~.a.9.0.G.k.  E ~.~.~.~.~.J.J.J.* J J.! . /./././././././././.",
"/././././././././././././././././././././././././.  ^ y.9.y.D.T.T.g.9.9.9.y.A.* o m.~.~.~.~.E.J.J.~ - E % /././././././././././.",
"/././././././././././././././././././././././././.  o P.u.9.9.9.9.9.9.9.1.=.:.l.  o H.~.~.~.~.R.J.J.S   /./././././././././././.",
"/./././././././././././././././././././././././././.  K Q.h.e.9.9.8.q.,.*.*.*.3.^ . 8 E.~.~.~.^.L.J.x.. /./././././././././././.",
"/./././././././././././././././././././././././././.  . M.~.~.D.q.,.*.*.*.*.*.*.>.R X e R.~.~.~.!.J.H.0 /./././././././././././.",
"/././././././././././././././././././././././././././.  Z ^.~.E.c.=.*.*.*.*.*.*.*.>.T   t R.~.~.~.K.J.E   /././././././././././.",
"/././././././././././././././././././././././././././.    x.~.L.J.v.-.*.*.*.*.*.*.*.-.y   = n.~.E.J.H.J   /././././././././././.",
"/./././././././././././././././././././././././././././.  o R.R.J.J.c.:.;.*.*.&.V v $         J m.z.7   /./././././././././././.",
"/././././././././././././././././././././././././././././.  t H.J.J.m.l.M x 4 $ & e K R Z       & . /./././././././././././././.",
"/./././././././././././././././././././././././././././././.  % J x.H.J.J.J.J.J.J.J.J.J.x.  /./././././././././././././././././.",
"/./././././././././././././././././././././././././././././././.    o Z x.H.J.J.J.J.J.J.k.o /./././././././././././././././././.",
"/./././././././././././././././././././././././././././././././././.    . & 0 R z.n.z.J o /././././././././././././././././././.",
"/./././././././././././././././././././././././././././././././././././././.            /./././././././././././././././././././.",
"/./././././././././././././././././././././././././././././././././././././././././././././././././././././././././././././././.",
"/./././././././././././././././././././././././././././././././././././././././././././././././././././././././././././././././."
};
