/* XPM */
static char *result[] = {
/* columns rows colors chars-per-pixel */
"64 64 180 2 ",
"   c #010101",
".  c #0C0A06",
"X  c #010509",
"o  c #0C0B0B",
"O  c #080707",
"+  c #110E0B",
"@  c #120E07",
"#  c #14110A",
"$  c #1B160B",
"%  c #000911",
"&  c #000F1D",
"*  c #0D1014",
"=  c #04111E",
"-  c #0A131B",
";  c #141313",
":  c #191615",
">  c #1B1816",
",  c #1C1B1B",
"<  c #241D0E",
"1  c #221E1C",
"2  c #231D12",
"3  c #2C2311",
"4  c #26221F",
"5  c #392E17",
"6  c #332915",
"7  c #3E3219",
"8  c #011223",
"9  c #00152A",
"0  c #001933",
"q  c #001D3A",
"w  c #15202D",
"e  c #132639",
"r  c #242423",
"t  c #2B2623",
"y  c #2D2D2C",
"u  c #2E2926",
"i  c #332E2C",
"p  c #39322F",
"a  c #202831",
"s  c #353535",
"d  c #3D3632",
"f  c #3F3834",
"g  c #3C3C3C",
"h  c #29333E",
"j  c #403319",
"k  c #4C3D1E",
"l  c #46381C",
"z  c #423A36",
"x  c #453D39",
"c  c #554422",
"v  c #5D4B25",
"b  c #4B423E",
"n  c #6A552A",
"m  c #645028",
"M  c #796130",
"N  c #002243",
"B  c #00254A",
"V  c #012D5A",
"C  c #0E355C",
"Z  c #003569",
"A  c #003A74",
"S  c #003E7B",
"D  c #374B5E",
"F  c #434343",
"G  c #4E4641",
"H  c #4C4C4C",
"J  c #534A46",
"K  c #564D48",
"L  c #584E49",
"P  c #5C524D",
"I  c #545454",
"U  c #5B5B5B",
"Y  c #655A54",
"T  c #665B55",
"R  c #6F615C",
"E  c #72645E",
"W  c #435C76",
"Q  c #646464",
"!  c #6B6B6B",
"~  c #7E6F68",
"^  c #7A6B65",
"/  c #7F7069",
"(  c #737373",
")  c #7C7C7C",
"_  c #787877",
"`  c #8D7138",
"'  c #94763B",
"]  c #866B35",
"[  c #9F7F40",
"{  c #84746D",
"}  c #A88643",
"|  c #B28E47",
" . c #BA944A",
".. c #CCA352",
"X. c #DAAE57",
"o. c #D4A955",
"O. c #E3B55B",
"+. c #EBBC5E",
"@. c #E6B85C",
"#. c #F4C362",
"$. c #FFCC66",
"%. c #F8C663",
"&. c #004080",
"*. c #00458A",
"=. c #004A94",
"-. c #084F96",
";. c #105498",
":. c #23609E",
">. c #0052A3",
",. c #0057AD",
"<. c #005AB4",
"1. c #005DBA",
"2. c #1964AF",
"3. c #0060BF",
"4. c #1B69B8",
"5. c #517EAA",
"6. c #4576A6",
"7. c #0061C3",
"8. c #0066CC",
"9. c #0368CD",
"0. c #0A6CCE",
"q. c #1171CF",
"w. c #1573D0",
"e. c #1874D1",
"r. c #257CD3",
"t. c #7B98B6",
"y. c #2D81D5",
"u. c #3485D7",
"i. c #3A89D8",
"p. c #5599DD",
"a. c #4C94DB",
"s. c #6FA4DA",
"d. c #65A3E1",
"f. c #6EA8E2",
"g. c #73ABE3",
"h. c #78AEE4",
"j. c #7EB1E5",
"k. c #828282",
"l. c #8B8B8B",
"z. c #939393",
"x. c #9A9A9A",
"c. c #989897",
"v. c #A2A2A2",
"b. c #ABABAB",
"n. c #B4B4B4",
"m. c #BCBCBC",
"M. c #B1B7BC",
"N. c #B4BCC4",
"B. c #A6B6C5",
"V. c #83B5E7",
"C. c #8FBCE9",
"Z. c #89B8E7",
"A. c #BFC4C8",
"S. c #A5C1DC",
"D. c #B7CBDF",
"F. c #9BC3EB",
"G. c #AACCEE",
"H. c #B1D0EF",
"J. c #B6D3F0",
"K. c #C3C3C3",
"L. c #CCCCCC",
"P. c #CFD0D0",
"I. c LightGray",
"U. c #DCDCDC",
"Y. c #C3CCD4",
"T. c #C9DFF4",
"R. c #C5DCF3",
"E. c #C8D6E4",
"W. c #CCE0F5",
"Q. c #DDEBF9",
"!. c #D1E3F6",
"~. c #E3E3E3",
"^. c #EBEBEB",
"/. c #ECEFF1",
"(. c #ECF4FC",
"). c #F4F4F4",
"_. c #F2F7FC",
"`. c #F6FAFD",
"'. c #FFFFFF",
"]. c None",
/* pixels */
"].].].].].].].].].].].].].].].].].].].].].].].].].].].].].].].].].].].].].].].].].].].].].].].].].].].].].].].].].].].].].].].].",
"].].].].].].].].].].].].].].].].].].].].].].].].].].].].].].].].].].].].].].].].].].].].].].].].].].].].].].].].].].].].].].].].",
"].].].].].].].].].].].].].].].].].].].].].].].].].].].].].].].].].].].].].].].].].].].].].].].].].].].].].].].].].].].].].].].].",
"].].].].].].].].].].].].].].].].].].].].].].].].].].].].].].].].].].].].].].].].].].].].].].].].].].].].].].].].].].].].].].].].",
"].].].].].].].].].].].].].].].].].].].].].].].].].].].].].].].].].].].].].                ].].].].].].].].].].].].].].].].].].].",
"].].].].].].].].].].].].].].].].].].].].].].].].].].].].].].              % 8 9 0 0 0 9 8 & X     ].].].].].].].].].].].].].].].",
"].].].].].].].].].].].].].].].].].].].].].].].].].].].      o u I ) v.M.2.<.1.1.7.8.7.1.1.1.,.S N *   ].].].].].].].].].].].].].",
"].].].].].].].].].].].].].].].].].].].].].].].].].    O U m.U.`.'.'.'.'.C.8.8.8.8.8.8.8.8.8.8.8.8.S.( o   ].].].].].].].].].].].",
"].].].].].].].].].].].].].].].].].].].].].].].].  r z.^.'.'.'.'.'.'.'.'._.q.3.>.*.S A A S *.=.>.<.C.'.~.! O ].].].].].].].].].].",
"].].].].].].].].].].].].].].].].].].].].].].  O U U.'.'.'.'.'.'.'.'.`.U.l.e = * ; : , , , # + - = a ( n.^.v.> ].].].].].].].].].",
"].].].].].].].].].].    ].].].].].].].].].    x.'.'.'.'.'.'.'.'.'.L.G o 4 d b J K K K K K K J J G x p ; 1 t.!   ].].].].].].].].",
"].].].].].].].].].].I F ].].].].].].].].].O v.'.'.'.'.'.'.'.'.`.) O > f K K J K K K K K K K K J K K K J k $ ;   ].].].].].].].].",
"].].].].].].].].].].} x.  ].].].].].].].  ) '.'.'.'.'.'.'.'.'.Q o u z J K K K K L P P Y Y Y Y Y L K K K K K u     ].].].].].].].",
"].].].].].].].].].].6.I.  ].].].].].].  y I.'.'.'.'.'.'.'.'.v.  i z b K K K P E ^ { { { { { { { { ^ Y K K K b t   ].].].].].].].",
"].].].].].].].].].].I `.o ].].].].].].o b.U.'.'.'.'.'.'.'.~.r : d z G K K Y ^ { { { { { { { { { { { { Y K K G p .   ].].].].].].",
"].].].].].].].].].].g '.F   ].].].].  H L.U.'.'.'.'.'.'.'.v.  4 z z G K P ~ { { { { { { { { { { { { { { T K J x ,   ].].].].].].",
"].].].].].].].].].].r ).k.  ].].].].  z.n.U z.).'.'.'.'.'.k.. t f z b J K T P K G x z x b b G K K P Y R E J K b t O ].].].].].].",
"].].].].].].].].].].> U.N.  ].].].]., n.F g , ) '.'.'.'.'.) . 4 f z f : . 5 m n n n n v c c j j 6 < .   + 1 x x t o ].].].].].].",
"].].].].].].].].].].o m.~.; ].].].].H b.r L.m.> K.'.'.'.'.z.o r d i . ] #.$.$.$.$.$.$.$.$.$.$.$.$.$.$.+.[   1 z 4 o   ].].].].].",
"].].].].].].].].].].  v.'.t ].].].  ( _ ) I.L.) Q '.'.'.'.c.  1 , #  .$.$.$.$.$.$.$.$.$.$.$.$.$.$.$.$.$.@.  , i :     ].].].].].",
"].].].].].].].].].].  l.'.H ].].].  k.I L.).I.K.r '.'.'.'.b.  :   j $.$.$.$.$.$.X...$.$.$.$.$.$.$.$.$.$.%.  : 1 O     ].].].].].",
"].].].].].].].].].].  g I >     ; O x.F ~.'./.L.s U.'.'.'.L.  r ) k $.$.$.$.$.$.c k $.$.$.$.$.$.$.O.} $.$.# ; + l.,   ].].].].].",
"].].].].].].].].].  ; s ( c.n.U.~.H c.F ~.'.).L.F m.'.'.'.).( U.} c $.$.$.$.$.$.< < #.$.$.$.$.$.$.M 5 $.$.< r b.^.,   ].].].].].",
"].].].].].].].  * _ L.'.'.'.'.'.'._ c.s U.'.).L.F m.'.'.'.'.'.'.5.c $.$.$.$.$.$.@ # +.$.$.$.$.$.$.v $ +.$.3 _ '.~.,   ].].].].].",
"].].].].].].O t.^.).'.~.n.l.) ! Q s k.H z.'.U.L.r ~.'.'.'.'.'.'.5.] $.$.$.$.$.$.  . O.$.$.$.$.$.$.c @ O.$.j ! '.L.; ].].].].].].",
"].].].].].].u L.I.n.L i s H U ( _ ( Q ) g ~.L.n., '.'.'.'.'.'.'.R m $.$.$.$.$.$.  @ @.$.$.$.$.$.$.c . O.$.k U '.b.  ].].].].].].",
"].].].].].].F m.g o } !.'.~.m.k.( Q s v.O n.L.H Q '.'.'.'.'.'.'.E n $.$.$.$.$.$.  < #.$.$.$.$.$.$.c < %.$.c I '.)   ].].].].].].",
"].].].].].].> y F ~.b.W o o u g F I u z.U u H s ^.'.'.'.'.'.'.'.^ c $.$.$.$.$.$.. v $.$.$.$.$.$.$.} } $.$.c I '.F   ].].].].].].",
"].].].].].].  ; l.H O r ) b.m.L.I.U.b.I K.( / ~.'.'.'.'.'.'.'.'.! c $.$.$.$.$.$.} o.$.$.$.$.$.$.$.$.$.$.$.7 ! '.o   ].].].].].].",
"].].].].].].  O o H s ! L.P.U.).'.'.'.I n.L.L.U.'.'.'.'.'.'.'.'.! j #.$.$.$.$.$.O.` c 6 3 3 7 k c ` ..#.$.@ c.m.  ].].].].].].].",
"].].].].].  s k.m.L.U I ~.`.'.'.'.'.'.n.D L.L.L.^.'.'.'.'.'.'.'.c.    l ' X.%.| 3 b * H ( ( ( ( ! I s 2 k   m.I   ].].].].].].].",
"].].].].].F L.L.U.`.! Q '.'.'.'.'.'.'.).p z.L.L.L.^.'.'.'.'.'.'.'.I.I .     $ @ { t.r x.x.c.c.x.x.c.c.y O F m.O   ].].].].].].].",
"].].].].  k.L.^.'.'.! ! '.'.'.'.'.'.'.'.U., K.L.L.L.^.'.'.'.'.'.'.'.'.U.c.U r ; c.I I x.x.c.x.x.x.x.x.h l./.H   ].].].].].].].].",
"].].].].].( L.'.'.'.F ) '.'.'.'.'.'.'.'.'.! F L.L.L.L.U.).'.'.'.'.'.'.'.'.'.n., ) H Q x.x.x.x.x.x.x.c.a b.v.O   ].].].].].].].].",
"].].].].].U L.).'.L.; Q l.) k.k.z.c.b.L.^.).y ) L.L.L.L.L.U.).'.'.'.'.'.'.'.L.r Q s H c.x.c.c.x.x.x.k.1 c.:   ].].].].].].].].].",
"].].].].].; ) ( g o H Q U U U Q u O I Q k.~.L.; l.L.L.L.L.L.L.U.).'.'.'.'.'.E.- Q F , ! _ 5.| l.k._ H y H   ].].].].].].].].].].",
"].].].].].].  H x.`.'.'.'.'.'.'.! > L.L.L.).'.v.; c.L.L.L.L.L.L.L.I.~.).'.'.j.Z s U O I ! Q Q Q ! Q : *   ].].].].].].].].].].].",
"].].].].].].  ) I.'.'.'.'.'.'.'.I w L.L.L.'.'.'.b.o _ L.L.L.L.L.L.L.L.L.L.Y.4.1.q * O ; y s g g s ;     ].].].].].].].].].].].].",
"].].].].].].].U L.'.'.'.'.'.'.'.y b L.L.I.'.'.'.'.m.r F n.L.L.L.L.L.L.L.L.5.=.=.=.S V q 8 8 9 0 w     ].].].].].].].].].].].].].",
"].].].].].].].s L.`.'.'.'.'.'.~., ! L.L.U.'.'.'.'.'.I.h ; ) m.L.L.L.L.L.N.-.=.=.=.=.=.=.=.=.*.B X   ].].].].].].].].].].].].].].",
"].].].].].].].> m.^.'.'.'.'.'.n.O v.L.L.~.'.'.'.'.'.'.i.*.9 o Q n.L.L.A.:.=.=.=.=.=.=.=.&.N X     ].].].].].].].].].].].].].].].",
"].].].].].].].O z.U.'.'.'.'.'.l.* m.L.L./.'.'.'.'.'.F.8.8.s.N.! s s U W A S S S A V q =       ].].].].].].].].].].].].].].].].].",
"].].].].].].].  ! I.'.'.'.'.'.! 4 K.L.L.`.'.'.'.'.`.y.8.p.`.'.'.^.b.C q %         O ,         ].].].].].].].].].].].].].].].].].",
"].].].].].].].].g L.).'.'.'.'.F F L.L.I.'.'.'.'.'.W.8.0.`.'.W.F._.'.g.8.8.^.^.^.^.`.( r K.I.l.; ].].].].].].].].].].].].].].].].",
"].].].].].].].].> L.~.'.'.'.'.; Q L.L.U.'.'.'.'.'.F.8.a.'.T.w.8.V.'.H.8.8.(.'.'.).k.H U.'.'.'.~.r ].].].].].].].].].].].].].].].",
"].].].].].].].].  n.I.`.'.'.L.  l.L.L.U.'.'.'.'.'.V.8.j.'.V.8.8.h.'.H.8.8.`.'.'.Q ! ).'.'.'.'.'.z.  ].].].].].].].].].].].].].].",
"].].].].].].].].  ) L.~.'.'.( o b.L.L.~.'.'.'.'.'.h.8.f.'.R.w.w.W.'.d.8.r.'.^.Q n.'.'.'.'.'.'.'.Q   ].].].].].].].].].].].].].].",
"].].].].].].].].].g L.L.'.~.r g K.L.L.^.'.'.'.'.'.C.8.u.'.'.W.Q.'._.w.8.g._.c.L.'.^.I.'.'.'.'.'.g   ].].].].].].].].].].].].].].",
"].].].].].].].].].o n.L.^.x.  k.L.L.L.).'.'.'.'.'.R.8.8.J.'.'.'.'.d.9.q./.`.).'.'.k.I.^.'.'.'.^.;   ].].].].].].].].].].].].].].",
"].].].].].].].].].  ) L.L.s ; K.L.L.L.).'.'.'.'.'.J.8.8.9.g.G.F.y.8.8.Z.'.'.'.'.L.g L.).'.'.'.m.  ].].].].].].].].].].].].].].].",
"].].].].].].].].].  s K.c.o U L.L.L.L.~.'.'.'.'.'.V.8.8.8.8.8.8.8.8.p._.'.).^.I.( H L.'.'.'.'.(   ].].].].].].].].].].].].].].].",
"].].].].].].].        I ; y m.L.L.L.L.L.^.'.'.'.'.i.8.8.8.8.8.8.8.7.D.U.I.L.L.L.H _ ~.'.'.'.).o   ].].].].].].].].].].].].].].].",
"].].].].].].].O y s     o c.L.L.L.L.L.L.L.~.).'.`.9.8.1.1.,.>.>.=.;.L.L.L.v.Q s   z.^.'.'.'.b.  ].].].].].].].].].].].].].].].].",
"].].].].].].].> n.L.x.H v.L.L.L.L.L.L.L.L.L.L.I.B.=.=.=.=.=.=.=.=.6.m.z.F     ].  c.^.'.'.'.F   ].].].].].].].].].].].].].].].].",
"].].].].].].].O _ L.L.L.L.L.L.L.L.L.L.L.L.L.L.L.t.=.=.=.=.=.=.A N w *   ].].].].  c.~.'.'.K.  ].].].].].].].].].].].].].].].].].",
"].].].].].].].].; x.L.L.L.L.L.L.L.L.L.L.L.b.c.) D B B B 0 8         ].].].].].].  z.L.~.^.s   ].].].].].].].].].].].].].].].].].",
"].].].].].].].].].O _ m.L.L.L.L.L.L.K.l.r                 ].].].].].].].].].].].  U b.K.l.  ].].].].].].].].].].].].].].].].].].",
"].].].].].].].].].].  ; F l.n.n.c.U ;     ].].].].].].].].].].].].].].].].].].].].  O ; *   ].].].].].].].].].].].].].].].].].].",
"].].].].].].].].].].].].].        ].].].].].].].].].].].].].].].].].].].].].].].].].].].].].].].].].].].].].].].].].].].].].].].",
"].].].].].].].].].].].].].].].].].].].].].].].].].].].].].].].].].].].].].].].].].].].].].].].].].].].].].].].].].].].].].].].].",
"].].].].].].].].].].].].].].].].].].].].].].].].].].].].].].].].].].].].].].].].].].].].].].].].].].].].].].].].].].].].].].].].",
"].].].].].].].].].].].].].].].].].].].].].].].].].].].].].].].].].].].].].].].].].].].].].].].].].].].].].].].].].].].].].].].].",
"].].].].].].].].].].].].].].].].].].].].].].].].].].].].].].].].].].].].].].].].].].].].].].].].].].].].].].].].].].].].].].].].",
"].].].].].].].].].].].].].].].].].].].].].].].].].].].].].].].].].].].].].].].].].].].].].].].].].].].].].].].].].].].].].].].]."
};
