/* XPM */
static char *result[] = {
/* columns rows colors chars-per-pixel */
"64 64 168 2 ",
"   c #010101",
".  c #080705",
"X  c #0B0905",
"o  c #00060B",
"O  c #0C0B0B",
"+  c #110F0E",
"@  c #14110A",
"#  c #020B14",
"$  c #000E1D",
"%  c #0D1115",
"&  c #141413",
"*  c #191614",
"=  c #1D1A15",
"-  c #1B1B1B",
";  c #231C0E",
":  c #211D1B",
">  c #2B2211",
",  c #25201E",
"<  c #332915",
"1  c #3A2F17",
"2  c #3D3118",
"3  c #001225",
"4  c #00152B",
"5  c #001933",
"6  c #001E3D",
"7  c #1E2022",
"8  c #07223D",
"9  c #192A3B",
"0  c #242323",
"q  c #2B2523",
"w  c #2B2B2B",
"e  c #282827",
"r  c #342D2A",
"t  c #37312D",
"y  c #3A332F",
"u  c #333333",
"i  c #3D3632",
"p  c #3C3C3C",
"a  c #30383F",
"s  c #41341A",
"d  c #4D3D1E",
"f  c #423A36",
"g  c #463D39",
"h  c #534321",
"j  c #5C4925",
"k  c #4B433E",
"l  c #634F28",
"z  c #665229",
"x  c #6A552A",
"c  c #735C2E",
"v  c #7C6332",
"b  c #002243",
"n  c #00264D",
"m  c #002A54",
"M  c #002F5C",
"N  c #172D44",
"B  c #243B52",
"V  c #013161",
"C  c #00366D",
"Z  c #003A74",
"A  c #003E7B",
"S  c #434343",
"D  c #4E4641",
"F  c #4B4B4B",
"G  c #504742",
"H  c #544B46",
"J  c #564D48",
"K  c #594F4A",
"L  c #5C524D",
"P  c #555555",
"I  c #5A5A5A",
"U  c #625752",
"Y  c #695D57",
"T  c #665954",
"R  c #6E615B",
"E  c #71645E",
"W  c #656565",
"Q  c #6B6B6B",
"!  c #666768",
"~  c #7A6C65",
"^  c #7E6F68",
"/  c #766861",
"(  c #7F7069",
")  c #737373",
"_  c #7D7D7D",
"`  c #71767B",
"'  c #67717B",
"]  c #816733",
"[  c #866C36",
"{  c #8D7139",
"}  c #987A3D",
"|  c #84746D",
" . c #A48342",
".. c #AB8945",
"X. c #B28E47",
"o. c #B59149",
"O. c #BB964B",
"+. c #C59E4F",
"@. c #CDA452",
"#. c #DAAE57",
"$. c #D3A955",
"%. c #DEB259",
"&. c #E2B55B",
"*. c #EABB5E",
"=. c #E6B85C",
"-. c #F4C462",
";. c #FFCC66",
":. c #004285",
">. c #004489",
",. c #004A94",
"<. c #004C99",
"1. c #084F96",
"2. c #16589A",
"3. c #0052A3",
"4. c #005BB5",
"5. c #005DBA",
"6. c #2E6EAE",
"7. c #566C84",
"8. c #4172A3",
"9. c #0162C4",
"0. c #0066CC",
"q. c #0B6CCC",
"w. c #066ACD",
"e. c #1774D0",
"r. c #1A73CB",
"t. c #227AD3",
"y. c #7389A0",
"u. c #658AB0",
"i. c #6585A6",
"p. c #2B80D5",
"a. c #5498DC",
"s. c #438BD2",
"d. c #7EB2E5",
"f. c #71AAE2",
"g. c #838383",
"h. c #8B8B8B",
"j. c #959595",
"k. c #999999",
"l. c #829EBB",
"z. c #9BADBF",
"x. c #92A5B8",
"c. c #A3A3A3",
"v. c #ABABAB",
"b. c #B4B4B4",
"n. c #BBBBBB",
"m. c #B3B6B9",
"M. c #A1BDD9",
"N. c #ABB8C4",
"B. c #93BEEA",
"V. c #81B3E6",
"C. c #BCC2C8",
"Z. c #9EC5EB",
"A. c #B8D3EE",
"S. c #A4C8ED",
"D. c #C4C4C4",
"F. c #CCCCCC",
"G. c #D3D3D3",
"H. c #DCDCDC",
"J. c #C5DCF3",
"K. c #CEE2F5",
"L. c #D5E6F7",
"P. c #E4E4E4",
"I. c #EBEBEB",
"U. c #EBF3FB",
"Y. c #F3F3F3",
"T. c #FEFFFF",
"R. c #F6FAFD",
"E. c None",
/* pixels */
"E.E.E.E.E.E.E.E.E.E.E.E.E.E.E.E.E.E.E.E.E.E.E.E.E.E.E.E.E.E.E.E.E.E.E.E.E.E.E.E.E.E.E.E.E.E.E.E.E.E.E.E.E.E.E.E.E.E.E.E.E.E.E.E.",
"E.E.E.E.E.E.E.E.E.E.E.E.E.E.E.E.E.E.E.E.E.E.E.E.E.E.E.E.E.E.E.E.E.E.E.E.E.E.E.E.E.  E.E.E.E.E.E.E.E.E.E.E.E.E.E.E.E.E.E.E.E.E.E.",
"E.E.E.E.E.E.E.E.E.E.E.E.E.E.E.E.E.E.E.E.E.E.E.E.E.E.E.E.E.E.E.E.E.E.E.E.E.E.E.E.  g.  E.E.E.E.E.E.E.E.E.E.E.E.E.E.E.E.E.E.E.E.E.",
"E.E.E.E.E.E.E.E.E.E.E.E.E.E.E.E.E.E.E.E.E.E.E.E.E.E.E.E.E.E.E.E.          E.E.E.  H.  E.E.E.E.E.E.E.E.E.E.E.E.E.E.E.E.E.E.E.E.E.",
"E.E.E.E.E.E.E.E.E.E.E.E.E.E.E.E.E.E.E.E.E.E.E.E.E.                                F   E.E.E.E.E.E.E.E.E.E.E.E.E.E.E.E.E.E.E.E.E.",
"E.E.E.E.E.E.E.E.E.E.E.E.E.E.E.E.E.E.E.E.E.      5 M A ,.3.5.0.0.0.0.0.0.0.0.s.G.c.W &     E.E.E.E.E.E.E.E.E.E.E.E.E.E.E.E.E.E.E.",
"E.E.E.E.E.E.E.E.E.E.E.E.E.E.E.E.E.E.E.    u _ N.9.0.0.0.0.0.0.0.0.0.0.0.0.0.q.U.T.T.H.h.u   E.E.E.E.E.E.E.E.E.E.E.E.E.E.E.E.E.E.",
"E.E.E.E.E.E.E.E.E.E.E.E.E.E.E.E.E.E.  0 c.R.T.Z.0.0.0.0.9.3.<.:.C C Z :.>.<.5.B.T.T.T.T.Y.c.-   E.E.E.E.E.E.E.E.E.E.E.E.E.E.E.E.",
"E.E.E.E.E.E.E.E.E.E.E.E.E.E.E.E.  & h.Y.T.T.T.a.3.C 6 #   . O & & * = & + O   & ! b.T.T.T.T.I.F   E.E.E.E.E.E.E.E.E.E.E.E.E.E.E.",
"E.E.E.E.E.E.E.E.E.E.E.E.E.E.E.  p F.T.T.T.Y.v.9 # O : q r y f f f f f f f i r q = & F v.Y.T.T.G.. E.E.E.E.E.E.E.E.E.E.E.E.E.E.E.",
"E.E.E.E.E.E.E.E.E.E.E.E.E.E.E.S Y.T.T.T.F.u . q y f f f f f f g g g g g g f f f f f q O p Y.T.T.Q   E.E.E.E.E.E.E.E.E.E.E.E.E.E.",
"E.E.E.E.E.E.E.E.E.E.E.E.E.E.  n.T.T.T.g.. : i f g g k G G H H J J J J J J J H G g f f i & u P.T.P.*   E.E.E.E.E.E.E.E.E.E.E.E.E.",
"E.E.E.E.E.E.E.E.E.E.E.E.E.  0 Y.T.T.) X y f f k H J J J J J J J L K J J K J J H J J D f f & J Y.T.Q   E.E.E.E.E.E.E.E.E.E.E.E.E.",
"E.E.E.E.E.E.E.E.E.E.E.E.E.  ! T.T.j.. y f k H J J J L R / ~ ~ ^ ^ | | | | ~ Y J J J J H g f + _ T.D.  E.E.E.E.E.E.E.E.E.E.E.E.E.",
"E.E.E.E.E.E.E.E.E.E.E.E.E.  b.T.H.X r g k K J J L E | | | | | | | | | | | | | ^ U J J J H f q & T.Y.e   E.E.E.E.E.E.E.E.E.E.E.E.",
"E.E.E.E.E.E.E.E.E.E.E.E.  - P.T.W + f k J J H L | | | | | | | | | | | | | | | | | U J J H G y   D.T.7.    E.E.E.E.E.E.E.E.E.E.E.",
"E.E.E.E.E.E.E.E.E.E.E.E.  P T.T.& q k J J J L ^ | | | | | | | | | | | | | | | | | | J J J J g + j.T.G.    E.E.E.E.E.E.E.E.E.E.E.",
"E.E.E.E.E.E.E.E.E.E.E.E.  _ T.P.  i D J J J E | | | | | | | | ~ T U T T T R R R Y ~ Y J J J k * W T.R.X     E.E.E.E.E.E.E.E.E.E.",
"E.E.E.E.E.E.E.E.E.E.E.E.  c.T.n.  g H J J L | ~ R J i q - O . . @ @ @ @ @ @ @ @ @ X   + : g D - F T.T.u & F   E.E.E.E.E.E.E.E.E.",
"E.E.E.E.E.E.E.E.E.E.E.    n.T.D.  i J H g q = = > s j v } o.@.&.*.*.*.*.*.*.%.@.*.%.@.} c X q : u T.T.P . F.7 E.E.E.E.E.E.E.E.E.",
"E.E.E.E.E.E.E.E.E.E.      G.T.G.  i k -   d { @.*.*.;.;.;.;.;.;.;.;.;.;.;.;.{ d ;.;.;.;.;.1   + u T.T.)   D.g.  E.E.E.E.E.E.E.E.",
"E.E.E.E.E.E.E.E.E.E.      G.T.Y.  t X z -.;.;.;.v 2 ;.;.;.;.;.;.;.;.;.;.;.;.h X &.;.;.;.;.c     F T.T.g.  b.H.- E.E.E.E.E.E.E.E.",
"E.E.E.E.E.E.E.E.E.  p p   G.T.T.* &   ..;.;.;.;.h   ;.;.;.;.;.;.;.;.;.;.;.;.h   o.;.;.;.;.X.  o g.T.T.j.  b.T.w E.E.E.E.E.E.E.E.",
"E.E.E.E.E.E.E.E.E.  k.W   G.T.T.S     O.;.;.;.;.2   &.;.;.;.;.;.;.;.;.;.;.;.l   { ;.;.;.;.%.X F P.T.T.j.  v.H.e E.E.E.E.E.E.E.E.",
"E.E.E.E.E.E.E.E.E.  I.)   D.T.T.h.    $.;.;.;.;.>   @.;.;.;.;.;.;.;.;.;.;.;.x   ] ;.;.;.;.-.> S T.T.T.h.  k.j.O E.E.E.E.E.E.E.E.",
"E.E.E.E.E.E.E.E.E.  T.j.  v.T.T.P.P   &.;.;.;.;.<   O.;.;.;.;.;.;.;.;.;.;.;.c   ] ;.;.;.;.;.s 0 T.T.T.`   v.F   E.E.E.E.E.E.E.E.",
"E.E.E.E.E.E.E.E.E.  R.b.  h.T.T.T.g.  *.;.;.;.;.h   ..;.;.;.;.;.;.;.;.;.;.;.{    .;.;.;.;.;.z   T.T.T.W X h.  E.E.E.E.E.E.E.E.E.",
"E.E.E.E.E.E.E.E.E.  j.n.. I T.T.T._   -.;.;.;.;.{   ..;.;.;.;.;.;.;.;.;.;.;.+.= #.;.;.;.;.;.x   I.T.T.p . O E.E.E.E.E.E.E.E.E.E.",
"E.E.E.E.E.E.E.E.w P S n.* w I.T.T.g.  *.;.;.;.;.#.> +.;.;.;.;.;.;.;.;.;.;.;.;.&.;.;.;.;.;.;.h . T.T.T.&     O 0 e O E.E.E.E.E.E.",
"E.E.E.E.E.E.E.  k.F.* Q F   D.T.T.g.  @.;.;.;.;.;.;.;.;.;.;.;.;.-.-.;.;.;.;.;.;.;.;.;.;.;.;.< - T.T.H.  u h.b.D.F.h.  E.E.E.E.E.",
"E.E.E.E.E.E.E.p D.P.v.& p   ) T.T.c.  } ;.;.;.;.;.;.;.&...v d >         X < l @.;.;.;.;.;. .X P T.T.g.  Q H.H.H.G.F.p E.E.E.E.E.",
"E.E.E.E.E.E.E.) G.T.T.c.o   w R.T.P.O j ;.;.;.;.;.;.v X O * w S W ) ) R P F u = #.;.=. .<   O v.T.Y.0 . 0 I.T.T.T.G.c.. E.E.E.E.",
"E.E.E.E.E.E.E.e c.T.T.I.0 O   n.T.R.F X  .-.;.;.;.O.q _ h.j.k.k.k.k.k.k.k.k.k.P 2 d @   - h.H.T.T.n.  ! P H T.T.T.P.v.o E.E.E.E.",
"E.E.E.E.E.E.E.E.  & u 0 u n.O S T.T.F.w     > h v 2 I k.k.k.k.k.k.k.k.k.k.k.k.)   q ) D.R.T.T.T.Y.F   F.P.q ) G.v.R & E.E.E.E.E.",
"E.E.E.E.E.E.E.E.E.E.E.    ) S   b.T.T.T.Y.v.Q p - . P j.k.k.k.k.k.k.k.k.k.k.k.! . R.T.T.T.T.T.R.v.X g T.T.D.        E.E.E.E.E.E.",
"E.E.E.E.E.E.E.E.E.E.E.E.E.      q P.T.T.T.T.T.T.I.F P h.k.k.k.k.k.k.k.k.k.k.k.I O T.T.T.T.T.Y.G.e O F.R.7.&   E.E.E.E.E.E.E.E.E.",
"E.E.E.E.E.E.E.E.E.E.E.E.E.E.E.    P P.T.T.T.T.T.T.) u _ k.k.k.k.k.k.k.k.k.k.g.S i T.T.T.T.P.F._   Q n.e   E.E.E.E.E.E.E.E.E.E.E.",
"E.E.E.E.E.E.E.E.E.E.E.E.E.E.E.E.    _ G.Y.T.T.T.T.n.. I ) _ _ _ _ _ ) ) ! W W & ` R.T.I.F.F.j.o 0 I     E.E.E.E.E.E.E.E.E.E.E.E.",
"E.E.E.E.E.E.E.E.E.E.E.E.E.E.E.E.E.  o h.F.H.I.R.T.Y.7 e W W W W W W W W W ! p   y.G.G.F.F.v.*   %   E.E.E.E.E.E.E.E.E.E.E.E.E.E.",
"E.E.E.E.E.E.E.E.E.E.E.E.E.E.E.E.E.E.  + j.F.F.H.H.G.7.o u ! W ! W ! W ! W S o n l.F.F.F.b.,     E.E.E.E.E.E.E.E.E.E.E.E.E.E.E.E.",
"E.E.E.E.E.E.E.E.E.E.E.E.E.E.E.E.E.E.    .  .A.F.F.F.z.M   * S P P J F p * o m ,.z.F.F.v.0 O !   E.E.E.E.E.E.E.E.E.E.E.E.E.E.E.E.",
"E.E.E.E.E.E.E.E.E.E.E.E.E.E.E.E.E.E.  W S o F N.F.F.C.2.A m 5 3 3 3 5 n C >.,.1.N.F.g.* e G.b.  E.E.E.E.E.E.E.E.E.E.E.E.E.E.E.E.",
"E.E.E.E.E.E.E.E.E.E.E.E.E.E.E.E.E.E.  h.Y.W o w j.F.F.6.,.,.,.,.,.,.,.,.,.,.>.2.m.I   I H.T.b.  E.E.E.E.E.E.E.E.E.E.E.E.E.E.E.E.",
"E.E.E.E.E.E.E.E.E.E.E.E.E.E.E.E.E.E.  _ T.T.H.u   = h.i.,.,.,.,.,.,.,.,.,.1.A 8 . $ x.T.T.T.v.  E.E.E.E.E.E.E.E.E.E.E.E.E.E.E.E.",
"E.E.E.E.E.E.E.E.E.E.E.E.E.E.E.E.E.E.  Q T.T.T.Y.n.! - % 3 m C :.A A C V n 3 % B :.9.d.T.T.T.c.  E.E.E.E.E.E.E.E.E.E.E.E.E.E.E.E.",
"E.E.E.E.E.E.E.E.E.E.E.E.E.E.E.E.E.E.  g.T.T.T.T.T.T.I.b.! 3 o         o 4 ' H.K.0.0.8.k.m.I.j.  E.E.E.E.E.E.E.E.E.E.E.E.E.E.E.E.",
"E.E.E.E.E.E.E.E.E.E.E.E.E.E.E.E.E.E.  j.Y.T.T.T.T.T.T.T.T.e.0.6.G.G.M.a.d.R.T.Z.,.N W | ) e *   E.E.E.E.E.E.E.E.E.E.E.E.E.E.E.E.",
"E.E.E.E.E.E.E.E.E.E.E.E.E.E.E.E.E.E.  k.H.T.T.T.T.T.T.T.T.f.0.0.S.T.T.T.T.T.K.r.3 _ G.R.T.P.h.w E.E.E.E.E.E.E.E.E.E.E.E.E.E.E.E.",
"E.E.E.E.E.E.E.E.E.E.E.E.E.E.E.E.E.E.  k.F.Y.T.T.T.T.T.T.T.U.e.0.w.a.J.L.K.V.q.3.  n.G.T.T.T.T.Y.p   E.E.E.E.E.E.E.E.E.E.E.E.E.E.",
"E.E.E.E.E.E.E.E.E.E.E.E.E.E.E.E.E.E.  k.F.H.R.T.T.T.T.T.T.T.p.w.0.0.0.0.0.0.0.A S F.G.T.T.T.T.T.H.@ E.E.E.E.E.E.E.E.E.E.E.E.E.E.",
"E.E.E.E.E.E.E.E.E.E.E.E.E.E.E.E.E.E.  k.F.F.P.T.T.T.T.T.T.R.t.0.0.0.0.0.0.0.0.b _ F.P.T.T.T.T.T.I.* E.E.E.E.E.E.E.E.E.E.E.E.E.E.",
"E.E.E.E.E.E.E.E.E.E.E.E.E.E.E.E.E.E.  g.F.F.F.I.T.T.T.T.T.U.t.0.0.0.0.0.0.5.<.o k.F.Y.T.T.T.T.T.G.. E.E.E.E.E.E.E.E.E.E.E.E.E.E.",
"E.E.E.E.E.E.E.E.E.E.E.E.E.E.E.E.E.E.  I F.F.F.F.I.T.T.T.T.L.e.0.0.0.0.5.3.,.:.X b.F.T.T.T.T.T.T.Q   E.E.E.E.E.E.E.E.E.E.E.E.E.E.",
"E.E.E.E.E.E.E.E.E.E.E.E.E.E.E.E.E.E.E.* F.F.F.F.F.P.Y.T.T.A.q.9.5.5.3.,.,.,.C = D.H.T.T.T.T.T.H.. E.E.E.E.E.E.E.E.E.E.E.E.E.E.E.",
"E.E.E.E.E.E.E.E.E.E.E.E.E.E.E.E.E.E.E.  _ F.F.F.F.F.F.G.G.l.<.,.,.,.,.,.,.,.m w F.G.R.T.T.T.H.u E.E.E.E.E.E.E.E.E.E.E.E.E.E.E.E.",
"E.E.E.E.E.E.E.E.E.E.E.E.E.E.E.E.E.E.E.  0 D.F.F.F.F.F.F.F.u.,.,.:.C M b 5 $   u F.F.F.G.P.n.w E.E.E.E.E.E.E.E.E.E.E.E.E.E.E.E.E.",
"E.E.E.E.E.E.E.E.E.E.E.E.E.E.E.E.E.E.E.E.  7.F.F.F.F.b.c.h.B 4 o         E.E.E.  S c.n.v.I   E.E.E.E.E.E.E.E.E.E.E.E.E.E.E.E.E.E.",
"E.E.E.E.E.E.E.E.E.E.E.E.E.E.E.E.E.E.E.E.. < v.F.F.F.S     E.E.E.E.E.E.E.E.E.E.E.E.. & . E.E.E.E.E.E.E.E.E.E.E.E.E.E.E.E.E.E.E.E.",
"E.E.E.E.E.E.E.E.E.E.E.E.E.E.E.E.E.E.E.E.E.  w D.F.F.b.-   E.E.E.E.E.E.E.E.E.E.E.E.E.E.E.E.E.E.E.E.E.E.E.E.E.E.E.E.E.E.E.E.E.E.E.",
"E.E.E.E.E.E.E.E.E.E.E.E.E.E.E.E.E.E.E.E.E.E.  q v.F.F._   E.E.E.E.E.E.E.E.E.E.E.E.E.E.E.E.E.E.E.E.E.E.E.E.E.E.E.E.E.E.E.E.E.E.E.",
"E.E.E.E.E.E.E.E.E.E.E.E.E.E.E.E.E.E.E.E.E.E.E.E.& u u X E.E.E.E.E.E.E.E.E.E.E.E.E.E.E.E.E.E.E.E.E.E.E.E.E.E.E.E.E.E.E.E.E.E.E.E.",
"E.E.E.E.E.E.E.E.E.E.E.E.E.E.E.E.E.E.E.E.E.E.E.E.E.E.E.E.E.E.E.E.E.E.E.E.E.E.E.E.E.E.E.E.E.E.E.E.E.E.E.E.E.E.E.E.E.E.E.E.E.E.E.E.",
"E.E.E.E.E.E.E.E.E.E.E.E.E.E.E.E.E.E.E.E.E.E.E.E.E.E.E.E.E.E.E.E.E.E.E.E.E.E.E.E.E.E.E.E.E.E.E.E.E.E.E.E.E.E.E.E.E.E.E.E.E.E.E.E.",
"E.E.E.E.E.E.E.E.E.E.E.E.E.E.E.E.E.E.E.E.E.E.E.E.E.E.E.E.E.E.E.E.E.E.E.E.E.E.E.E.E.E.E.E.E.E.E.E.E.E.E.E.E.E.E.E.E.E.E.E.E.E.E.E."
};
