/* XPM */
static char *result[] = {
/* columns rows colors chars-per-pixel */
"64 64 108 2 ",
"   c #010101",
".  c #00060C",
"X  c #05090C",
"o  c #0B0B0B",
"O  c #100E0E",
"+  c #12100F",
"@  c #0C0E11",
"#  c #000E1B",
"$  c #141414",
"%  c #1A1615",
"&  c #1C1917",
"*  c #1B1B1B",
"=  c #221E1B",
"-  c #26221F",
";  c #001121",
":  c #00172E",
">  c #101C28",
",  c #001D3A",
"<  c #232323",
"1  c #2C2724",
"2  c #2E2926",
"3  c #20262B",
"4  c #2C2C2C",
"5  c #302A27",
"6  c #332C29",
"7  c #36302C",
"8  c #3A332F",
"9  c #25303B",
"0  c #333333",
"q  c #3D3532",
"w  c #3C3C3C",
"e  c #423A36",
"r  c #002244",
"t  c #00264C",
"y  c #0B2A49",
"u  c #162D45",
"i  c #002D5A",
"p  c #003264",
"a  c #03376B",
"s  c #00386F",
"d  c #003B76",
"f  c #003D7A",
"g  c #434343",
"h  c #4C4C4C",
"j  c #545454",
"k  c #5B5B5B",
"l  c #646464",
"z  c #6C6C6C",
"x  c #747474",
"c  c #7C7C7C",
"v  c #004183",
"b  c #00468B",
"n  c #004A94",
"m  c #004D99",
"M  c #095096",
"N  c #105498",
"B  c #18599B",
"V  c #255E96",
"C  c #0050A1",
"Z  c #0956A4",
"A  c #0059B3",
"S  c #005DBA",
"D  c #0062C4",
"F  c #0066CC",
"G  c #076ACD",
"H  c #1170CF",
"J  c #1A76D1",
"K  c #2179D2",
"L  c #297FD4",
"P  c #3888D7",
"I  c #4A92DB",
"U  c #5599DD",
"Y  c #73ABE3",
"T  c #7AAFE4",
"R  c #858585",
"E  c #8C8C8C",
"W  c #939393",
"Q  c #9B9B9B",
"!  c #92A7BC",
"~  c #97ABBE",
"^  c #9DAEBF",
"/  c #A4A4A4",
"(  c #ACACAC",
")  c #B4B4B4",
"_  c #BBBBBB",
"`  c #A1B1C0",
"'  c #B1BBC5",
"]  c #BDC3C8",
"[  c #9FC5EC",
"{  c #A8C9EA",
"}  c #BED0E1",
"|  c #C3C3C3",
" . c #C3C6C9",
".. c #C3C8CD",
"X. c #CCCCCC",
"o. c #D3D3D3",
"O. c #DBDBDB",
"+. c #D8E8F7",
"@. c #DAE9F8",
"#. c #E3E3E3",
"$. c #EBEBEB",
"%. c #EAF0F7",
"&. c #E8F1FA",
"*. c #F4F4F4",
"=. c #F2F7FC",
"-. c #F7FAFD",
";. c #FFFFFF",
":. c None",
/* pixels */
":.:.:.:.:.:.:.:.:.:.:.:.:.:.:.:.:.:.:.:.:.:.:.:.:.:.            o             :.:.:.:.:.:.:.:.:.:.:.:.:.:.:.:.:.:.:.:.:.:.:.:.:.",
":.:.:.:.:.:.:.:.:.:.:.:.:.:.:.:.:.:.:.:.:.:.:.    + = 1 6 q q e e e e 8 6 5 - %     :.:.:.:.:.:.:.:.:.:.:.:.:.:.:.:.:.:.:.:.:.:.",
":.:.:.:.:.:.:.:.:.:.:.:.:.:.:.:.:.:.:.:.:.  % 2 8 6 - & $ o @ @ X X   o o + % - 5 5 &   :.:.:.:.:.:.:.:.:.:.:.:.:.:.:.:.:.:.:.:.",
":.:.:.:.:.:.:.:.:.:.:.:.:.:.:.:.:.:.:.:.o 6 2 & $ 3 r s v m C m C C n n v v a j < O = = o :.:.:.:.:.:.:.:.:.:.:.:.:.:.:.:.:.:.:.",
":.:.:.:.:.:.:.:.:.:.:.:.:.:.:.:.:.:.:.  = $ 4 c  .{ F F F F F F F F F F F F F @.$.) k *     :.:.:.:.:.:.:.:.:.:.:.:.:.:.:.:.:.:.",
":.:.:.:.:.:.:.:.:.:.:.:.:.:.:.:.:.:.:.  6 Q *.;.;.T F F F F F F F F F F F F F { ;.;.;.o.z o :.:.:.:.:.:.:.:.:.:.:.:.:.:.:.:.:.:.",
":.:.:.:.:.:.:.:.:.:.:.:.:.:.:.:.:.:.  z $.;.;.;.;.I F F F F F F F F F F F F F Y ;.;.;.;.;.( $ :.:.:.:.:.:.:.:.:.:.:.:.:.:.:.:.:.",
":.:.:.:.:.:.:.:.:.:.:.:.:.:.:.:.:.  R ;.;.;.;.;.;.L F F F F F F F F F F F F F U ;.;.;.;.;.;.| o :.:.:.:.:.:.:.:.:.:.:.:.:.:.:.:.",
":.:.:.:.:.:.:.:.:.:.:.:.:.:.:.:.:.g -.;.;.;.;.;.;.J F F F F F F F F F F F F F I ;.;.;.;.;.;.;.c   :.:.:.:.:.:.:.:.:.:.:.:.:.:.:.",
":.:.:.:.:.:.:.:.:.:.:.:.:.:.:.:.  X.;.;.;.;.;.;.;.J F F F F F F F F F F F F F P ;.;.;.;.;.;.;.#.o :.:.:.:.:.:.:.:.:.:.:.:.:.:.:.",
":.:.:.:.:.:.:.:.:.:.:.:.:.:.:.  < -.;.;.;.;.;.;.;.G F F F F F F F F F F F F F L ;.;.;.;.;.;.;.;.g   :.:.:.:.:.:.:.:.:.:.:.:.:.:.",
":.:.:.:.:.:.:.:.:.:.:.:.:.:.:.  c ;.;.;.;.;.;.;.;.F F F F F F F F F F F F F F K -.;.;.;.;.;.;.;./   :.:.:.:.:.:.:.:.:.:.:.:.:.:.",
":.:.:.:.:.:.:.:.:.:.:.:.:.:.:.  | ;.;.;.;.;.;.;.;.F F F F F F F F F F F F F F J &.;.;.;.;.;.;.;.O.    :.:.:.:.:.:.:.:.:.:.:.:.:.",
":.:.:.:.:.:.:.:.:.:.:.:.:.:.  o #.;.;.;.;.;.;.;.=.F F F D D S S A A A A D D F H +.;.;.;.;.;.;.;.-.=   :.:.:.:.:.:.:.:.:.:.:.:.:.",
":.:.:.:.:.:.:.:.:.:.:.:.:.    * *.;.;.;.;.;.;.;.%.A C m n n n n n n n n n n m Z } ;.;.;.;.;.;.;.;.w     :.:.:.:.:.:.:.:.:.:.:.:.",
":.:.:.:.:.:.:.:.:.:.:.:.:.4 4 0 ;.;.;.;.;.;.;.$...n n n n n n n n n n n n n n n ~ o.*.;.;.;.;.;.;.k o j   :.:.:.:.:.:.:.:.:.:.:.",
":.:.:.:.:.:.:.:.:.:.:.:.  | < g ;.;.;.;.;.-.O.X.] n f i n n n n n n n n n n n n ! X.X.$.;.;.;.;.;.x o X.$ :.:.:.:.:.:.:.:.:.:.:.",
":.:.:.:.:.:.:.:.:.:.:.:.j ;.< k ;.;.;.;.-.O.X.X.] n > g p n n n n n n n n n n n ! X.X.X.#.;.;.;.;.R o #.g :.:.:.:.:.:.:.:.:.:.:.",
":.:.:.:.:.:.:.:.:.:.:.  / ;.0 h ;.;.;.;.O.X.X.X.| d 4 ) , n n n n n n n n n n n ! X.X.X.X.$.;.;.;.R o #.h :.:.:.:.:.:.:.:.:.:.:.",
":.:.:.:.:.:.:.:.:.:.:.  ) ;.h 0 ;.;.;.#.X.X.X.X.X.i h _ : n n n n n n n n n n n ! X.X.X.X.X.-.;.;.l $ | < :.:.:.:.:.:.:.:.:.:.:.",
":.:.:.:.:.:.:.:.:.:.:.:.l O.z * *.;.-.o.X.X.X.X.X.y z X.; n n n n n n n n n n m ^ X.X.X.X.X.O.;.;.h 1 c   :.:.:.:.:.:.:.:.:.:.:.",
":.:.:.:.:.:.:.:.:.:.:.:.* _ R o O.;.#.X.X.X.X.X.X.u E  .# n n n n n n n n n n M ^ X.X.X.X.X.X.*.-.< 4 $ :.:.:.:.:.:.:.:.:.:.:.:.",
":.:.:.:.:.:.:.:.:.:.:.:.  0 /   ( -.X.X.X.X.X.X.X.9 Q X.; n n n n n n n n n n M ` X.X.X.X.X.X.O.O.    :.:.:.:.:.:.:.:.:.:.:.:.:.",
":.:.:.:.:.:.:.:.:.:.:.:.:.  4 o g #.X.X.X.X.X.X.X.4 (  .; n n n n n n n n n n M ` X.X.X.X.X.X.X.W   :.:.:.:.:.:.:.:.:.:.:.:.:.:.",
":.:.:.:.:.:.:.:.:.:.:.:.:.:.    o _ X.X.X.X.X.X.X.< _ ..; n n n n n n n n n n N ' X.X.X.X.X.X. .4   :.:.:.:.:.:.:.:.:.:.:.:.:.:.",
":.:.:.:.:.:.:.:.:.:.:.:.:.:.:.:.  z X.X.X.X.X.X.X.*  .X.# n n n n n n n n n n B  .X.X.X.X.X.X./   :.:.:.:.:.:.:.:.:.:.:.:.:.:.:.",
":.:.:.:.:.:.:.:.:.:.:.:.:.:.:.:.  O _ X.X.X.X.X.X.$ O.X.: n n n n n n n n b v V X.X.X.X.X.X.X.w   :.:.:.:.:.:.:.:.:.:.:.:.:.:.:.",
":.:.:.:.:.:.:.:.:.:.:.:.:.:.:.:.:.  h X.X.X.l = *   #.X.. ; , f n n n s #   = < $ l | X.X.X.R   :.:.:.:.:.:.:.:.:.:.:.:.:.:.:.:.",
":.:.:.:.:.:.:.:.:.:.:.:.:.:.:.:.:.:.  E X.X.1 ) X.  *._ 0 ) x # t t t   c #.;.;.$.h w X.X.) o   :.:.:.:.:.:.:.:.:.:.:.:.:.:.:.:.",
":.:.:.:.:.:.:.:.:.:.:.:.:.:.:.:.:.:.  o Q c 4 $.;.o X.Q k ;.] = Q Q * Q #.) Q / o.|   W _ <   :.:.:.:.:.:.:.:.:.:.:.:.:.:.:.:.:.",
":.:.:.:.:.:.:.:.:.:.:.:.:.:.:.:.:.:.:.      g -.;.4 c j l ;.o.w ;.;.  k   0 k l 4 w * < 4   :.:.:.:.:.:.:.:.:.:.:.:.:.:.:.:.:.:.",
":.:.:.:.:.:.:.:.:.:.:.:.:.:.:.:.:.:.:.  w W h $.;.x k l ( ;.O.q ;.;.4 4 O.;.;.;.;.l o j   :.:.:.:.:.:.:.:.:.:.:.:.:.:.:.:.:.:.:.",
":.:.:.:.:.:.:.:.:.:.:.:.:.:.:.:.:.:.$   ) _ 7 | O.Q ) x *.$./ w ;.-.$ o.;.;.X.$.;.X.o ) g   :.:.:.:.:.:.:.:.:.:.:.:.:.:.:.:.:.:.",
":.:.:.:.:.:.:.:.:.:.:.:.:.:.:.:.  * )   X.;.z 0 / | R / X._ 4 Q ;.$.$ ;.;.k z < #.$.7 X.l   :.:.:.:.:.:.:.:.:.:.:.:.:.:.:.:.:.:.",
":.:.:.:.:.:.:.:.:.:.:.:.:.:.:.:.$ o.(   x ;.-.Q < g z l j < E ;.;.;.k / E l ;.0 R E h ;.x     :.:.:.:.:.:.:.:.:.:.:.:.:.:.:.:.:.",
":.:.:.:.:.:.:.:.:.:.:.:.:.:.:.  ( ;.W g w x $.;.*.| W E ( *.;.;.;.;.;.W x $.;.| k l O.X.* + E X :.:.:.:.:.:.:.:.:.:.:.:.:.:.:.:.",
":.:.:.:.:.:.:.:.:.:.:.:.:.:.:.h $.;.E l $.c 0 x  .-.;.;.;.;.;.;.;.;.;.;.;.;.;.;.-.o.E l ) & o.k   :.:.:.:.:.:.:.:.:.:.:.:.:.:.:.",
":.:.:.:.:.:.:.:.:.:.:.:.:.:.X ( *.;.E z ;.;.*._ Q _ $.;.;.;.;.;.;.;.;.;.;.;.O.( E x ( -.#.* $._ * :.:.:.:.:.:.:.:.:.:.:.:.:.:.:.",
":.:.:.:.:.:.:.:.:.:.:.:.:.:.e X.;.;.W z ;.;.;.;.;.;.;.;.;.;.E $.Q #.) ;.;.;.;.;.;.;.;.;.O.< -.O.R   :.:.:.:.:.:.:.:.:.:.:.:.:.:.",
":.:.:.:.:.:.:.:.:.:.:.:.:.  Q O.;.;./ k ;.;.;.;.;.;.;.;.;.;.$ O.$ X.j ;.;.;.;.;.;.;.;.;.] 7 ;.$. .* :.:.:.:.:.:.:.:.:.:.:.:.:.:.",
":.:.:.:.:.:.:.:.:.:.:.:.:.$  .#.;.;. .g ;.;.;.;.;.;.;.;.;.;.o O.$  .k ;.;.;.;.;.;.;.;.;./ h ;.*.X.j   :.:.:.:.:.:.:.:.:.:.:.:.:.",
":.:.:.:.:.:.:.:.:.:.:.:.:.0 X.$.;.;.O.w *.;.;.;.;.;.;.;.;.;.  O.< ) z ;.;.;.;.;.;.;.;.;.R z ;.-.X.R   :.:.:.:.:.:.:.:.:.:.:.:.:.",
":.:.:.:.:.:.:.:.:.:.:.:.  o l X.;.;.#.4 $.;.;.;.;.;.;.;.;.;.  O.< ) z ;.;.;.;.;.;.;.;.;.l Q ;.$.z $   :.:.:.:.:.:.:.:.:.:.:.:.:.",
":.:.:.:.:.:.:.:.:.:.:.:.  j j * / ;./ o #.;.;.;.;.;.;.;.;.;./ $.Q o.( ;.;.;.;.;.;.;.;.-.g o.O.7 j _ < :.:.:.:.:.:.:.:.:.:.:.:.:.",
":.:.:.:.:.:.:.:.:.:.:.:.  W O.X.4 z <   X.;.;.;.;.;.;.;.;.;.;.;.;.;.;.;.;.;.;.;.;.;.;.$.* l 4 W -.X.j :.:.:.:.:.:.:.:.:.:.:.:.:.",
":.:.:.:.:.:.:.:.:.:.:.:.o ) #.;.$.0     ) ;.;.-.;.;.;.;.;.O.O.O.-.;.;.;.;.;.;.;.;.;.;.o.    x ;.;.o.E :.:.:.:.:.:.:.:.:.:.:.:.:.",
":.:.:.:.:.:.:.:.:.:.:.:.$ | O.;.;.k     Q ;.*.X.X.O.-.;.-.X.X.X.O.;.;.;.;.;.;.;.;.;.;.) w w E ;.;.o.)   :.:.:.:.:.:.:.:.:.:.:.:.",
":.:.:.:.:.:.:.:.:.:.:.:.o ) X.*.-.4     c ;.*.X.X.X.$.;.;.X.X.X.O.;.;.;.;.;.;.;.;.;.;.R z X.g -.#.X.c :.:.:.:.:.:.:.:.:.:.:.:.:.",
":.:.:.:.:.:.:.:.:.:.:.:.:.0 E X.( o :.  k ;.$.X.X.X.$.;.;.X.X.X.#.;.;.-.-.-.;.;.;.;.;.k W $.* / ( h o :.:.:.:.:.:.:.:.:.:.:.:.:.",
":.:.:.:.:.:.:.:.:.:.:.:.:.:.:.* $ :.:.  g -.*.X.X.X.$.;.-.X.X.X.$.;.$.X.X.X.X.o.O.;.*.w _ #.o o   :.:.:.:.:.:.:.:.:.:.:.:.:.:.:.",
":.:.:.:.:.:.:.:.:.:.:.:.:.:.:.:.:.:.:.  - $.*.X.X.X.#.;.;.X.X.X.*.;.#.X.X.X.X.X.O.;.O.1 $.)   :.:.:.:.:.:.:.:.:.:.:.:.:.:.:.:.:.",
":.:.:.:.:.:.:.:.:.:.:.:.:.:.:.:.:.:.:.    o.-.X.X.X.O.;.;.*.#.#.-.;.#.X.X.X.X.X.#.;.) g -.w :.:.:.:.:.:.:.:.:.:.:.:.:.:.:.:.:.:.",
":.:.:.:.:.:.:.:.:.:.:.:.:.:.:.:.:.:.:.    ( ;.O.X.X.O.;.;.;.;.;.;.;.O.X.X.X.X.X.$.;.R x /   :.:.:.:.:.:.:.:.:.:.:.:.:.:.:.:.:.:.",
":.:.:.:.:.:.:.:.:.:.:.:.:.:.:.:.:.:.:.:.  x ;.O.X.X.o.*.;.;.;.;.;.;.O.X.X.X.X.X.*.*.g l * :.:.:.:.:.:.:.:.:.:.:.:.:.:.:.:.:.:.:.",
":.:.:.:.:.:.:.:.:.:.:.:.:.:.:.:.:.:.:.:.  w *.#.X.X.X.o.#.#.$.#.#.o.X.X.X.X.X.X.-.o.o o :.:.:.:.:.:.:.:.:.:.:.:.:.:.:.:.:.:.:.:.",
":.:.:.:.:.:.:.:.:.:.:.:.:.:.:.:.:.:.:.:.  o O.*.X.X.X.X.X.X.X.X.X.X.X.X.X.X.X.O.;.Q   :.:.:.:.:.:.:.:.:.:.:.:.:.:.:.:.:.:.:.:.:.",
":.:.:.:.:.:.:.:.:.:.:.:.:.:.:.:.:.:.:.:.:.  w E / X.X.X.X.X.X.X.X.X.X.X.X.X.X.#.X.w :.:.:.:.:.:.:.:.:.:.:.:.:.:.:.:.:.:.:.:.:.:.",
":.:.:.:.:.:.:.:.:.:.:.:.:.:.:.:.:.:.:.:.:.:.        4 j z c W Q / Q W c x k 0       :.:.:.:.:.:.:.:.:.:.:.:.:.:.:.:.:.:.:.:.:.:.",
":.:.:.:.:.:.:.:.:.:.:.:.:.:.:.:.:.:.:.:.:.:.:.  g k 4                         :.:.:.:.:.:.:.:.:.:.:.:.:.:.:.:.:.:.:.:.:.:.:.:.:.",
":.:.:.:.:.:.:.:.:.:.:.:.:.:.:.:.:.:.:.:.:.:.:.:.:.      :.:.:.:.:.:.:.:.:.:.:.:.:.:.:.:.:.:.:.:.:.:.:.:.:.:.:.:.:.:.:.:.:.:.:.:.",
":.:.:.:.:.:.:.:.:.:.:.:.:.:.:.:.:.:.:.:.:.:.:.:.:.:.:.:.:.:.:.:.:.:.:.:.:.:.:.:.:.:.:.:.:.:.:.:.:.:.:.:.:.:.:.:.:.:.:.:.:.:.:.:.",
":.:.:.:.:.:.:.:.:.:.:.:.:.:.:.:.:.:.:.:.:.:.:.:.:.:.:.:.:.:.:.:.:.:.:.:.:.:.:.:.:.:.:.:.:.:.:.:.:.:.:.:.:.:.:.:.:.:.:.:.:.:.:.:.",
":.:.:.:.:.:.:.:.:.:.:.:.:.:.:.:.:.:.:.:.:.:.:.:.:.:.:.:.:.:.:.:.:.:.:.:.:.:.:.:.:.:.:.:.:.:.:.:.:.:.:.:.:.:.:.:.:.:.:.:.:.:.:.:.",
":.:.:.:.:.:.:.:.:.:.:.:.:.:.:.:.:.:.:.:.:.:.:.:.:.:.:.:.:.:.:.:.:.:.:.:.:.:.:.:.:.:.:.:.:.:.:.:.:.:.:.:.:.:.:.:.:.:.:.:.:.:.:.:."
};
