/* XPM */
static char *result[] = {
/* columns rows colors chars-per-pixel */
"64 64 175 2 ",
"   c #010101",
".  c #0B0905",
"X  c #00060B",
"o  c #03090E",
"O  c #0B0B0B",
"+  c #080603",
"@  c #110E0A",
"#  c #18140C",
"$  c #010911",
"%  c #000E1C",
"&  c #05101A",
"*  c #131313",
"=  c #191614",
"-  c #1E1914",
";  c #1B1B1B",
":  c #14181C",
">  c #231C0E",
",  c #221E1C",
"<  c #231C10",
"1  c #2A2211",
"2  c #24211E",
"3  c #3C3018",
"4  c #001223",
"5  c #00152B",
"6  c #1A1E22",
"7  c #001A35",
"8  c #001E3C",
"9  c #1C252F",
"0  c #222222",
"q  c #2B2623",
"w  c #2E2926",
"e  c #2B2B2B",
"r  c #322C29",
"t  c #39322F",
"y  c #37312D",
"u  c #333333",
"i  c #3E3632",
"p  c #3B3B3B",
"a  c #3B3938",
"s  c #43361A",
"d  c #423A36",
"f  c #453D39",
"g  c #554422",
"h  c #5A4824",
"j  c #594723",
"k  c #4A423E",
"l  c #624E27",
"z  c #675229",
"x  c #69552A",
"c  c #6F592D",
"v  c #745D2F",
"b  c #7C6432",
"n  c #002244",
"m  c #00254A",
"M  c #00284F",
"N  c #002B57",
"B  c #002D5B",
"V  c #123354",
"C  c #233D58",
"Z  c #003365",
"A  c #00366B",
"S  c #003A75",
"D  c #003D7B",
"F  c #424242",
"G  c #4E4641",
"H  c #4C4C4C",
"J  c #504742",
"K  c #544A46",
"L  c #564D48",
"P  c #5B514C",
"I  c #4E4F50",
"U  c #545454",
"Y  c #5A5A5A",
"T  c #615651",
"R  c #665A54",
"E  c #695D57",
"W  c #6A5E58",
"Q  c #6D615B",
"!  c #71645E",
"~  c #475664",
"^  c #656565",
"/  c #6B6B6B",
"(  c #786A64",
")  c #7F6F69",
"_  c #737373",
"`  c #7B7B7B",
"'  c #806633",
"]  c #896E37",
"[  c #93763B",
"{  c #9A7C3E",
"}  c #96783C",
"|  c #9F7F40",
" . c #84746D",
".. c #A48342",
"X. c #AE8B45",
"o. c #BB954B",
"O. c #BF984C",
"+. c #B38F48",
"@. c #C09A4D",
"#. c #C79F50",
"$. c #CBA351",
"%. c #D8AD56",
"&. c #D5AB55",
"*. c #DCB158",
"=. c #E2B55B",
"-. c #EBBC5E",
";. c #E7B95C",
":. c #F6C562",
">. c #FFCC66",
",. c #F9C763",
"<. c #004182",
"1. c #01468B",
"2. c #084888",
"3. c #004A94",
"4. c #004F9D",
"5. c #115293",
"6. c #285786",
"7. c #29639D",
"8. c #3F6A94",
"9. c #0051A2",
"0. c #0056AC",
"q. c #0359AF",
"w. c #005BB5",
"e. c #005DBA",
"r. c #47719C",
"t. c #527BA4",
"y. c #0061C2",
"u. c #0066CC",
"i. c #0B6CCE",
"p. c #1170CF",
"a. c #1B76D1",
"s. c #2A7FD4",
"d. c #217AD3",
"f. c #7997B5",
"g. c #2C81D5",
"h. c #3988D7",
"j. c #448ED9",
"k. c #4A93DB",
"l. c #7FACD9",
"z. c #66A2DD",
"x. c #838383",
"c. c #8D8D8D",
"v. c #81909E",
"b. c #959595",
"n. c #999999",
"m. c #9CA6B0",
"M. c #9BA1A7",
"N. c #A4A4A4",
"B. c #ACACAC",
"V. c #A1AEBC",
"C. c gray70",
"Z. c #BCBCBC",
"A. c #92B8DF",
"S. c #B2BBC5",
"D. c #A2BDD9",
"F. c #B1D0EF",
"G. c #BAD5F1",
"H. c #C4C4C4",
"J. c #CCCCCC",
"K. c #C4C7C9",
"L. c #D3D3D3",
"P. c #DCDCDC",
"I. c #CEDDEC",
"U. c #DDE5EE",
"Y. c #DDEBF8",
"T. c #D5E6F7",
"R. c #CBE0F5",
"E. c #E3E3E3",
"W. c gray92",
"Q. c #E4EFFA",
"!. c #E9F2FB",
"~. c #F5F5F5",
"^. c #FFFFFF",
"/. c #F5F9FD",
"(. c None",
/* pixels */
"(.(.(.(.(.(.(.(.(.(.(.(.(.(.(.(.(.(.(.(.(.(.(.(.(.(.(.(.(.(.(.(.(.(.(.(.(.(.(.(.(.(.(.(.(.(.(.(.(.(.(.(.(.(.(.(.(.(.(.(.(.(.(.(.",
"(.(.(.(.(.(.(.(.(.(.(.(.(.(.(.(.(.(.(.(.(.(.(.(.(.(.(.(.(.(.(.(.(.(.(.(.(.(.(.(.  (.(.(.(.(.(.(.(.(.(.(.(.(.(.(.(.(.(.(.(.(.(.(.",
"(.(.(.(.(.(.(.(.(.(.(.(.(.(.(.(.(.(.(.(.(.(.(.(.(.(.(.(.(.(.(.(.(.(.(.(.(.(.(.  _ e (.(.(.(.(.(.(.(.(.(.(.(.(.(.(.(.(.(.(.(.(.(.",
"(.(.(.(.(.(.(.(.(.(.(.(.(.(.(.(.(.(.(.(.(.(.(.(.(.(.(.(.(.(.(.(.(.(.(.(.(.(.(.  J.F (.(.(.(.(.(.(.(.(.(.(.(.(.(.(.(.(.(.(.(.(.(.",
"(.(.(.(.(.(.(.(.(.(.(.(.(.(.(.(.(.(.(.(.(.(.(.(.(.(.(.                          N.H (.(.(.(.(.(.(.(.(.(.(.(.(.(.(.(.(.(.(.(.(.(.",
"(.(.(.(.(.(.(.(.(.(.(.(.(.(.(.(.(.(.(.(.(.(.(.    o 5 m Z A S S S S Z Z Z Z N p *     (.(.(.(.(.(.(.(.(.(.(.(.(.(.(.(.(.(.(.(.(.",
"(.(.(.(.(.(.(.(.(.(.(.(.(.(.(.(.(.(.(.(.    - Y 6.0.y.u.u.u.u.u.u.u.u.u.u.u.u.A.P.B.^ 6   (.(.(.(.(.(.(.(.(.(.(.(.(.(.(.(.(.(.(.",
"(.(.(.(.(.(.(.(.(.(.(.(.(.(.(.(.(.(.    ; n.W.^.g.u.u.u.u.u.u.u.u.u.u.u.u.u.u.j.^.^.^.W.b.=   (.(.(.(.(.(.(.(.(.(.(.(.(.(.(.(.(.",
"(.(.(.(.(.(.(.(.(.(.(.(.(.(.(.(.(.  0 N.^./.^.Q.p.y.3.D B 8 4 4 $ $ $ % 4 7 B 2.E.^.^.^.^.~.c.; (.(.(.(.(.(.(.(.(.(.(.(.(.(.(.(.",
"(.(.(.(.(.(.(.(.(.(.(.(.(.(.(.(.+ U P.^.^.^.~.m.m % o @ = , 2 q q q q q 2 ; * O , ^ H.^.^.^.^.Z.+ (.(.(.(.(.(.(.(.(.(.(.(.(.(.(.",
"(.(.(.(.(.(.(.(.(.(.(.(.(.(.(.  n.^.^.^.^.N.e   ; r i d d d d d d d d d d d d d u , + p Z.^.^.^.U   (.(.(.(.(.(.(.(.(.(.(.(.(.(.",
"(.(.(.(.(.(.(.(.(.(.(.(.(.(.  u ^.^.^.W.U O , d d d f f f k k G J G G k G k f f d d i , O n./.^.E.*   (.(.(.(.(.(.(.(.(.(.(.(.(.",
"(.(.(.(.(.(.(.(.(.(.(.(.(.(.  B.^.^.E.r = d d d k J L L L L L L K P P K L L L L K k d d r . b.^.^.^   (.(.(.(.(.(.(.(.(.(.(.(.(.",
"(.(.(.(.(.(.(.(.(.(.(.(.(.  ; ~.^.W.0 ; d f k K L L L L P T T R W W Q Q E P L L K P L k d r * B.^.H.  (.(.(.(.(.(.(.(.(.(.(.(.(.",
"(.(.(.(.(.(.(.(.(.(.(.(.(.  Y ^.^._ * d f K L L K P !  . . . . . . . . . . .( R P K K L J d , q ^.~.e   (.(.(.(.(.(.(.(.(.(.(.(.",
"(.(.(.(.(.(.(.(.(.(.(.(.(.  N.^.P.  y f K L L L R  . . . . . . . . . . . . . . .( P L L L k i   H.^.c.  (.(.(.(.(.(.(.(.(.(.(.(.",
"(.(.(.(.(.(.(.(.(.(.(.(.  * P.^./ @ d K L L L Q  . . . . . . . . . . . . . . . . .( P L L L f - ^ ^.P.    (.(.(.(.(.(.(.(.(.(.(.",
"(.(.(.(.(.(.(.(.(.(.(.(.  p ~.^.a , f L L L P  . . . . . . . . . . . . . . . . . . .T L L L k , u ^.^.;     (.(.(.(.(.(.(.(.(.(.",
"(.(.(.(.(.(.(.(.(.(.(.(.  / ^.^.: r J L L L !  . .) ( ! E L f r 2 , , , , q w r i K R J K L J 2 0 ~.^.H     (.(.(.(.(.(.(.(.(.(.",
"(.(.(.(.(.(.(.(.(.(.(.    c.^.^.O r K L K f k w - * - < 1 s g z v ' ' b b x x x x j > # O q k r 0 ~.^._   /   (.(.(.(.(.(.(.(.(.",
"(.(.(.(.(.(.(.(.(.(.(.    N.^.^.= r K y = + 1 c [ X.&.;.,.>.>.>.>.>.>.>.>.>.:.+.>.>.,.$.{ > = r 0 ~.^.c.  N.p   (.(.(.(.(.(.(.(.",
"(.(.(.(.(.(.(.(.(.(.  +   C.^.^.; q ; > ..-.>.>.O.z >.>.>.>.>.>.>.>.>.>.>.>.} @ ;.>.>.>.>.b   O ; ~.^.B.  ` B.+ (.(.(.(.(.(.(.(.",
"(.(.(.(.(.(.(.(.(.(.= ^   Z.^.^.u =   [ >.>.>.>.b + :.>.>.>.>.>.>.>.>.>.>.>.b   @.>.>.>.>.o.    u ^.^.Z.+ _ ~.e (.(.(.(.(.(.(.(.",
"(.(.(.(.(.(.(.(.(.  _ b.  Z.^.^.U     ..>.>.>.>.g   *.>.>.>.>.>.>.>.>.>.>.>.b   { >.>.>.>.*..   Y ^.^.Z.O _ ^.F (.(.(.(.(.(.(.(.",
"(.(.(.(.(.(.(.(.(.  J.n.  C.^.^.b.    o.>.>.>.>.s   @.>.>.>.>.>.>.>.>.>.>.>.b   x >.>.>.>.,.> F ~.^.^.Z.O _ E.u (.(.(.(.(.(.(.(.",
"(.(.(.(.(.(.(.(.(.  W.B.  N.^.^.P.H   $.>.>.>.>.s   X.>.>.>.>.>.>.>.>.>.>.>.'   h >.>.>.>.>.3 e ^.^.^.B.  ` N.* (.(.(.(.(.(.(.(.",
"(.(.(.(.(.(.(.(.(.  E.H.  c.^.^.^.b.  &.>.>.>.>.g   { >.>.>.>.>.>.>.>.>.>.>.}   b >.>.>.>.>.j * ^.^.^.b.  b.U   (.(.(.(.(.(.(.(.",
"(.(.(.(.(.(.(.(.(.  c.Z.O ^ ^.^.^.`   -.>.>.>.>.'   ] >.>.>.>.>.>.>.>.>.>.>...  ..>.>.>.>.>.x   ~.^.^._ + x.  (.(.(.(.(.(.(.(.(.",
"(.(.(.(.(.(.(.(.* u F Z.= a W.^.^.`   -.>.>.>.>.o.+ | >.>.>.>.>.>.>.>.>.>.>.%.j =.>.>.>.>.>.z   W.^.^.H + * + 6 0 + (.(.(.(.(.(.",
"(.(.(.(.(.(.(.(.Y H.O ` k X L.^.^.x.  &.>.>.>.>.,.$.:.>.>.>.>.>.>.>.>.>.>.>.>.>.>.>.>.>.>.>.g   ^.^.^.=   u C.H.K.^   (.(.(.(.(.",
"(.(.(.(.(.(.(.* B.L.b.* F   c.^.^.N.  X.>.>.>.>.>.>.>.>.>.$...] b b b } | $.-.>.>.>.>.>.>.,.1 u ^.^.L.  H L.L.P.L.H.; (.(.(.(.(.",
"(.(.(.(.(.(.(.H J.~.^.x.    F ^.^.L.  v >.>.>.>.>.>.&.v >     O * * * O O + . { >.>.>.>.-.] + / ^.^.^   Y ^.^.^.^.J.`   (.(.(.(.",
"(.(.(.(.(.(.(.u Z.^.^./.U   + P.^./.q > >.>.>.>.>.*.# F Y / x.c.b.b.b.c.c.x.` 9 @.>.@.j #   ; J.^.W.= 0 6 b.^.^.^.E.c.(.(.(.(.(.",
"(.(.(.(.(.(.(.(.O F _ / * /   ` ^.^.c.  . s v ..$.h / n.n.n.n.n.n.n.b.n.n.n.b.U > -   * Y B.~.^.^.n.  x.C.O n.P.N.U O (.(.(.(.(.",
"(.(.(.(.(.(.(.(.(.(.    0 H.u   P.^.^.P.c.I 0       / b.n.n.n.n.n.n.n.n.n.n.b.^ + Y B.~.^.^.^.^.W.u + W.^.B.      (.(.(.(.(.(.(.",
"(.(.(.(.(.(.(.(.(.(.(.(.  + =   U ^.^.^.^.^.~.L.B.; ^ b.n.n.n.n.n.n.n.n.n.n.n.Y 0 ^.^.^.^.^.^.~.x.  / ^.N.;   (.(.(.(.(.(.(.(.(.",
"(.(.(.(.(.(.(.(.(.(.(.(.(.(.      b.~.^.^.^.^.^./.H H x.n.n.n.n.n.n.n.n.n.m.f.F u ^.^.^.^.^.W.Z.O 0 E.I   (.(.(.(.(.(.(.(.(.(.(.",
"(.(.(.(.(.(.(.(.(.(.(.(.(.(.(.(.  O C.W.^.^.^.^.^.` q _ b.b.n.b.b.b.b.b.b..._ e _ ^.^.^.~.L.H.H   ^ =   (.(.(.(.(.(.(.(.(.(.(.(.",
"(.(.(.(.(.(.(.(.(.(.(.(.(.(.(.(.(.  e C.L.W.^.^.^.K.+ I / _ / / / / / / ^ ^ I X M.W.W.E.J.J.^   + O   (.(.(.(.(.(.(.(.(.(.(.(.(.",
"(.(.(.(.(.(.(.(.(.(.(.(.(.(.(.(.(.    p H.J.L.E.W.P.6 ; Y ^ / ^ ^ ^ ^ ^ ^ ^ : % S.J.J.J.J.x.+     (.(.(.(.(.(.(.(.(.(.(.(.(.(.(.",
"(.(.(.(.(.(.(.(.(.(.(.(.(.(.(.(.(.(.    0 Z.J.J.J.J.8.$ * U ^ ^ / ^ ^ ^ I @ $ 2.S.J.J.J.x.  O   (.(.(.(.(.(.(.(.(.(.(.(.(.(.(.(.",
"(.(.(.(.(.(.(.(.(.(.(.(.(.(.(.(.(.(.  e O p B.J.J.J.f.D 7 $ = 0 0 0 ; 6 % n <.5.K.J.H.^ + U b.  (.(.(.(.(.(.(.(.(.(.(.(.(.(.(.(.",
"(.(.(.(.(.(.(.(.(.(.(.(.(.(.(.(.(.(.  c.B.* = c.K.J.S.5.3.<.A N N N Z D 3.3.3.7.J.C.F + ^ ~.C.  (.(.(.(.(.(.(.(.(.(.(.(.(.(.(.(.",
"(.(.(.(.(.(.(.(.(.(.(.(.(.(.(.(.(.(.  ` ^.E.Y   u n.K.7.3.3.3.3.3.3.3.3.3.3.3.r.^ O 6 H.^.^.B.  (.(.(.(.(.(.(.(.(.(.(.(.(.(.(.(.",
"(.(.(.(.(.(.(.(.(.(.(.(.(.(.(.(.(.(.  _ ^.^.^.Z.H * e C S 1.3.3.3.3.3.3.1.A 7 o % S A./.^.^.N.  (.(.(.(.(.(.(.(.(.(.(.(.(.(.(.(.",
"(.(.(.(.(.(.(.(.(.(.(.(.(.(.(.(.(.(.  _ ^.^.^.^.^.P./ ;   $ 4 8 n 7 5 % X + H v.y.u.z.~.^.^.b.  (.(.(.(.(.(.(.(.(.(.(.(.(.(.(.(.",
"(.(.(.(.(.(.(.(.(.(.(.(.(.(.(.(.(.(.  c.^.^.^.^.^.^.^.^.E.2.A V U Y ~ A 7.U.^.F.y.S 9 , : f H   (.(.(.(.(.(.(.(.(.(.(.(.(.(.(.(.",
"(.(.(.(.(.(.(.(.(.(.(.(.(.(.(.(.(.(.  x.E.^.^.^.^.^.^.^.^.j.u.i.Y.^./.T.Q.^./.j.m I S.E.P.n.F + (.(.(.(.(.(.(.(.(.(.(.(.(.(.(.(.",
"(.(.(.(.(.(.(.(.(.(.(.(.(.(.(.(.(.(.  b.L.^.^.^.^.^.^.^.^.G.i.u.d.R.^.^.^.!.k.w.X N.L.^.^.^.^.N.+ (.(.(.(.(.(.(.(.(.(.(.(.(.(.(.",
"(.(.(.(.(.(.(.(.(.(.(.(.(.(.(.(.(.(.  n.J.E.^.^.^.^.^.^.^.^.g.u.u.u.s.j.h.i.u.3.; J.L.^.^.^.^.^.B.O (.(.(.(.(.(.(.(.(.(.(.(.(.(.",
"(.(.(.(.(.(.(.(.(.(.(.(.(.(.(.(.(.(.  n.J.J.~.^.^.^.^.^.^.^.s.u.u.u.u.u.u.u.u.B ^ J.P.^.^.^.^.^.W.= (.(.(.(.(.(.(.(.(.(.(.(.(.(.",
"(.(.(.(.(.(.(.(.(.(.(.(.(.(.(.(.(.(.  b.J.J.L.^.^.^.^.^.^.!.d.u.u.u.u.u.u.u.w.4 c.J.W.^.^.^.^.^.U.* (.(.(.(.(.(.(.(.(.(.(.(.(.(.",
"(.(.(.(.(.(.(.(.(.(.(.(.(.(.(.(.(.(.   .J.J.J.P.^.^.^.^.^.Y.a.u.u.u.u.u.e.4.3.  B.J.~.^.^.^.^.^.N.  (.(.(.(.(.(.(.(.(.(.(.(.(.(.",
"(.(.(.(.(.(.(.(.(.(.(.(.(.(.(.(.(.(.  C J.J.J.J.P.~.^.^.^.R.p.u.u.u.y.4.3.3.S * Z.L.^.^.^.^.^.^.u (.(.(.(.(.(.(.(.(.(.(.(.(.(.(.",
"(.(.(.(.(.(.(.(.(.(.(.(.(.(.(.(.(.(.(.+ Z.J.J.J.J.L.P.E.W.D.q.0.4.4.3.3.3.3.Z 0 J.L.^.^.^.^.^.b.  (.(.(.(.(.(.(.(.(.(.(.(.(.(.(.",
"(.(.(.(.(.(.(.(.(.(.(.(.(.(.(.(.(.(.(.  U J.J.J.J.J.J.J.J.f.3.3.3.3.3.3.D Z 5 p J.J.E.W.^.^.c.O (.(.(.(.(.(.(.(.(.(.(.(.(.(.(.(.",
"(.(.(.(.(.(.(.(.(.(.(.(.(.(.(.(.(.(.(.  O C.J.J.J.J.J.J.J.t.<.S B n 4         0 B.J.J.J.H.U   (.(.(.(.(.(.(.(.(.(.(.(.(.(.(.(.(.",
"(.(.(.(.(.(.(.(.(.(.(.(.(.(.(.(.(.(.(.(.  H J.J.J.J._ U y & X     (.(.(.(.(.(.(.O F ^ U ; (.(.(.(.(.(.(.(.(.(.(.(.(.(.(.(.(.(.(.",
"(.(.(.(.(.(.(.(.(.(.(.(.(.(.(.(.(.(.(.(.(.+ _ J.J.J.^     (.(.(.(.(.(.(.(.(.(.(.(.(.(.(.(.(.(.(.(.(.(.(.(.(.(.(.(.(.(.(.(.(.(.(.",
"(.(.(.(.(.(.(.(.(.(.(.(.(.(.(.(.(.(.(.(.(.(.+ b.J.J.J.F   (.(.(.(.(.(.(.(.(.(.(.(.(.(.(.(.(.(.(.(.(.(.(.(.(.(.(.(.(.(.(.(.(.(.(.",
"(.(.(.(.(.(.(.(.(.(.(.(.(.(.(.(.(.(.(.(.(.(.(.O ^ N.N.U   (.(.(.(.(.(.(.(.(.(.(.(.(.(.(.(.(.(.(.(.(.(.(.(.(.(.(.(.(.(.(.(.(.(.(.",
"(.(.(.(.(.(.(.(.(.(.(.(.(.(.(.(.(.(.(.(.(.(.(.(.(.      (.(.(.(.(.(.(.(.(.(.(.(.(.(.(.(.(.(.(.(.(.(.(.(.(.(.(.(.(.(.(.(.(.(.(.(.",
"(.(.(.(.(.(.(.(.(.(.(.(.(.(.(.(.(.(.(.(.(.(.(.(.(.(.(.(.(.(.(.(.(.(.(.(.(.(.(.(.(.(.(.(.(.(.(.(.(.(.(.(.(.(.(.(.(.(.(.(.(.(.(.(.",
"(.(.(.(.(.(.(.(.(.(.(.(.(.(.(.(.(.(.(.(.(.(.(.(.(.(.(.(.(.(.(.(.(.(.(.(.(.(.(.(.(.(.(.(.(.(.(.(.(.(.(.(.(.(.(.(.(.(.(.(.(.(.(.(."
};
