/* XPM */
static char *result[] = {
/* columns rows colors chars-per-pixel */
"64 64 97 2 ",
"   c #010101",
".  c #090807",
"X  c #00070D",
"o  c #0B0B0B",
"O  c #13110F",
"+  c #000C16",
"@  c #000F1D",
"#  c #141414",
"$  c #1A1715",
"%  c #1C1917",
"&  c #1C1C1C",
"*  c #211D1B",
"=  c #25211E",
"-  c #001020",
";  c #0D1B28",
":  c #001A35",
">  c #001F3E",
",  c #04203C",
"<  c #122130",
"1  c #242424",
"2  c #2A2522",
"3  c #2B2B2B",
"4  c #322C29",
"5  c #37302D",
"6  c #3A332F",
"7  c #353535",
"8  c #3B3B3B",
"9  c #002143",
"0  c #00264D",
"q  c #002B56",
"w  c #002C58",
"e  c #003366",
"r  c #00356A",
"t  c #003A76",
"y  c #454545",
"u  c #4B4B4B",
"i  c #535353",
"p  c #5C5C5C",
"a  c #656565",
"s  c #6C6C6C",
"d  c #747474",
"f  c #7C7C7C",
"g  c #004081",
"h  c #00478E",
"j  c #004A94",
"k  c #004D9A",
"l  c #0F5398",
"z  c #16589A",
"x  c #23609E",
"c  c #0052A3",
"v  c #0057AF",
"b  c #0A5EB2",
"n  c #0062C5",
"m  c #0066CC",
"M  c #0468CD",
"N  c #0F6FCF",
"B  c #1371D0",
"V  c #1B76D1",
"C  c #227AD3",
"Z  c #2F82D5",
"A  c #3D8BD8",
"S  c #4992DA",
"D  c #5599DD",
"F  c #5B9CDE",
"G  c #7BB0E4",
"H  c #848484",
"J  c #8B8B8B",
"K  c #939393",
"L  c #9C9C9C",
"P  c #92A7BC",
"I  c #9AACBE",
"U  c #A3A3A3",
"Y  c #ADADAD",
"T  c #B4B5B5",
"R  c #BCBCBC",
"E  c #8FA9C3",
"W  c #9EB0C2",
"Q  c #A0B0C0",
"!  c #AFB9C4",
"~  c #86B6E7",
"^  c #BDC3C8",
"/  c #ACCDEE",
"(  c #C3C3C3",
")  c #CCCCCC",
"_  c #CBD0D6",
"`  c #D4D4D4",
"'  c #DCDCDC",
"]  c #C8DAED",
"[  c #DCE5EF",
"{  c #DCEAF8",
"}  c #E4E4E4",
"|  c #ECECEC",
" . c #ECF3FB",
".. c #F4F4F4",
"X. c #F7FAFD",
"o. c #FFFFFF",
"O. c None",
/* pixels */
"O.O.O.O.O.O.O.O.O.O.O.O.O.O.O.O.O.O.O.O.O.O.O.O.O.O.O.O.O.O.O.O.O.O.O.O.O.O.O.O.O.O.O.O.O.O.O.O.O.O.O.O.O.O.O.O.O.O.O.O.O.O.O.O.",
"O.O.O.O.O.O.O.O.O.O.O.O.O.O.O.O.O.O.O.O.O.O.O.O.O.O.O.O.                    O.O.O.O.O.O.O.O.O.O.O.O.O.O.O.O.O.O.O.O.O.O.O.O.O.O.",
"O.O.O.O.O.O.O.O.O.O.O.O.O.O.O.O.O.O.O.O.O.O.O.    o # % 1 2 4 4 5 4 4 2 2 * $ o     O.O.O.O.O.O.O.O.O.O.O.O.O.O.O.O.O.O.O.O.O.O.",
"O.O.O.O.O.O.O.O.O.O.O.O.O.O.O.O.O.O.O.O.O.  o * 4 6 4 2 * % % $ # O O O $ * 2 4 4 = O   O.O.O.O.O.O.O.O.O.O.O.O.O.O.O.O.O.O.O.O.",
"O.O.O.O.O.O.O.O.O.O.O.O.O.O.O.O.O.O.O.O.. = 4 2 $ O - 9 w r t t t t e e q q > 1 o $ 2 %   O.O.O.O.O.O.O.O.O.O.O.O.O.O.O.O.O.O.O.",
"O.O.O.O.O.O.O.O.O.O.O.O.O.O.O.O.O.O.O.  * % # y K E n m m m m m m m m m m m M [ ( d 3 O .   O.O.O.O.O.O.O.O.O.O.O.O.O.O.O.O.O.O.",
"O.O.O.O.O.O.O.O.O.O.O.O.O.O.O.O.O.O.O.  # a ) o.o.~ n m m m m m m m m m m m m / o.o...U 7   O.O.O.O.O.O.O.O.O.O.O.O.O.O.O.O.O.O.",
"O.O.O.O.O.O.O.O.O.O.O.O.O.O.O.O.O.O.  y ` o.o.o.o.D m m m m m m m m m m m m m G o.o.o.o.X.H . O.O.O.O.O.O.O.O.O.O.O.O.O.O.O.O.O.",
"O.O.O.O.O.O.O.O.O.O.O.O.O.O.O.O.O.O.i ..o.o.o.o.o.Z m m m m m m m m m m m m m F o.o.o.o.o.o.K . O.O.O.O.O.O.O.O.O.O.O.O.O.O.O.O.",
"O.O.O.O.O.O.O.O.O.O.O.O.O.O.O.O.O.1 | o.o.o.o.o.o.V m m m m m m m m m m m m m S o.o.o.o.o.o.o.i   O.O.O.O.O.O.O.O.O.O.O.O.O.O.O.",
"O.O.O.O.O.O.O.O.O.O.O.O.O.O.O.O.  Y o.o.o.o.o.o.o.V m m m m m m m m m m m m m A o.o.o.o.o.o.o.) . O.O.O.O.O.O.O.O.O.O.O.O.O.O.O.",
"O.O.O.O.O.O.O.O.O.O.O.O.O.O.O.O.$ ..o.o.o.o.o.o.o.N m m m m m m m m m m m m m Z o.o.o.o.o.o.o.X.3   O.O.O.O.O.O.O.O.O.O.O.O.O.O.",
"O.O.O.O.O.O.O.O.O.O.O.O.O.O.O.  s o.o.o.o.o.o.o.o.m m m m m m m m m m m m m m C o.o.o.o.o.o.o.o.K   O.O.O.O.O.O.O.O.O.O.O.O.O.O.",
"O.O.O.O.O.O.O.O.O.O.O.O.O.O.O.  T o.o.o.o.o.o.o.o.m m m m m m m m m m m m m m V  .o.o.o.o.o.o.o.` . O.O.O.O.O.O.O.O.O.O.O.O.O.O.",
"O.O.O.O.O.O.O.O.O.O.O.O.O.O.  . ' o.o.o.o.o.o.o.X.m m m m n n n n n n n m m m B { o.o.o.o.o.o.o...$   O.O.O.O.O.O.O.O.O.O.O.O.O.",
"O.O.O.O.O.O.O.O.O.O.O.O.O.    $ ..o.o.o.o.o.o.o. .n v c k k k j j j j j k k c b ] o.o.o.o.o.o.o.o.7     O.O.O.O.O.O.O.O.O.O.O.O.",
"O.O.O.O.O.O.O.O.O.O.O.O.O.$ 1 3 o.o.o.o.o.o.o..._ j j j j j j j j j j j j j j j Q } X.o.o.o.o.o.o.i O 3   O.O.O.O.O.O.O.O.O.O.O.",
"O.O.O.O.O.O.O.O.O.O.O.O.  L 1 y o.o.o.o.o.o.} ` ^ j j j j j j j j j j j j j j j P ) ` | o.o.o.o.o.a o R o O.O.O.O.O.O.O.O.O.O.O.",
"O.O.O.O.O.O.O.O.O.O.O.O.8 X.1 i o.o.o.o.X.} ) ) T w g j j j j j j j j j j j j j P ) ) ` | o.o.o.o.s o } 7 O.O.O.O.O.O.O.O.O.O.O.",
"O.O.O.O.O.O.O.O.O.O.O.  K o.3 i o.o.o.o.} ) ) ) a 8 > j j j j j j j j j j j j j P ) ) ) ) ..o.o.o.s O } i O.O.O.O.O.O.O.O.O.O.O.",
"O.O.O.O.O.O.O.O.O.O.O.  R o.y 8 o.o.o.| ) ) ) ) 7 _ ; j j j j j j j j j j j j j P ) ) ) ) ` o.o.o.a # ) 3 O.O.O.O.O.O.O.O.O.O.O.",
"O.O.O.O.O.O.O.O.O.O.O.O.f | a & X.o.o.` ) ) ) R $ | 1 h j j j j j j j j j j j j I ) ) ) ) ) } o.o.u & L o O.O.O.O.O.O.O.O.O.O.O.",
"O.O.O.O.O.O.O.O.O.O.O.O.1 ) H o } o.} ) ) ) ) Y O o.7 t j j j j j j j j j j j j I ) ) ) ) ) ) ..o.3 8 & O.O.O.O.O.O.O.O.O.O.O.O.",
"O.O.O.O.O.O.O.O.O.O.O.O.  p U   R o.` ) ) ) ) Y * o.u e j j j j j j j j j j j l Q ) ) ) ) ) ) } } o     O.O.O.O.O.O.O.O.O.O.O.O.",
"O.O.O.O.O.O.O.O.O.O.O.O.O.  i o p | ) ) ) ) ) T = o.a w j j j j j j j j j j j j Q ) ) ) ) ) ) ` Y     O.O.O.O.O.O.O.O.O.O.O.O.O.",
"O.O.O.O.O.O.O.O.O.O.O.O.O.O.    # ) ) ) ) ) ) Y = o.f 0 j j j j j j j j j j j l ! ) ) ) ) ) ) ) y   O.O.O.O.O.O.O.O.O.O.O.O.O.O.",
"O.O.O.O.O.O.O.O.O.O.O.O.O.O.O.O.  H ) ) ) ) ) R 3 o.H , j j j j j j j j j j j z ! ) ) ) ) ) ) Y o O.O.O.O.O.O.O.O.O.O.O.O.O.O.O.",
"O.O.O.O.O.O.O.O.O.O.O.O.O.O.O.O.  % ( ) ) ) ) R 1 o.K : j j j j j j j j j j j x ) ) ) ) ) ) ) i   O.O.O.O.O.O.O.O.O.O.O.O.O.O.O.",
"O.O.O.O.O.O.O.O.O.O.O.O.O.O.O.O.O.  s ) ) ) ) ( 3 o.U : j j j j j j h 0 @ + @ < J ) ) ) ) ) U   O.O.O.O.O.O.O.O.O.O.O.O.O.O.O.O.",
"O.O.O.O.O.O.O.O.O.O.O.O.O.O.O.O.O.  o U ) U p i o o.T X + @ r j j h + 3 L | | R 3 i ) ) ) R 1   O.O.O.O.O.O.O.O.O.O.O.O.O.O.O.O.",
"O.O.O.O.O.O.O.O.O.O.O.O.O.O.O.O.O.O.  1 R 7 d L % o.R 8 ) K X - - + i ..o.| | o.T o L ) ) y   O.O.O.O.O.O.O.O.O.O.O.O.O.O.O.O.O.",
"O.O.O.O.O.O.O.O.O.O.O.O.O.O.O.O.O.O.O.  7 % } o.7 ) U u o.` & ' ' & T y . % 1 $ u 1 % H p   O.O.O.O.O.O.O.O.O.O.O.O.O.O.O.O.O.O.",
"O.O.O.O.O.O.O.O.O.O.O.O.O.O.O.O.O.O.O.    1 | o.y d a y o...o o.o.$ o s ` o.o.X.s o d #   O.O.O.O.O.O.O.O.O.O.O.O.O.O.O.O.O.O.O.",
"O.O.O.O.O.O.O.O.O.O.O.O.O.O.O.O.O.O.    s 1 ' o.U s f U o.o.# o.o.s s o.o.o.o.o.| 1 L s   O.O.O.O.O.O.O.O.O.O.O.O.O.O.O.O.O.O.O.",
"O.O.O.O.O.O.O.O.O.O.O.O.O.O.O.O.O.  o p } 1 T ' ` f J X.| ) o o.o.7 R o.) 1 3 ) o.s U U     O.O.O.O.O.O.O.O.O.O.O.O.O.O.O.O.O.O.",
"O.O.O.O.O.O.O.O.O.O.O.O.O.O.O.  & T 3 J o.d y Y ) J J ) ) p p o.o.y R o.8 ` a d ` u } Y   s $   O.O.O.O.O.O.O.O.O.O.O.O.O.O.O.O.",
"O.O.O.O.O.O.O.O.O.O.O.O.O.O.O.1 R ..& a o.X.K 8 u s d p 8 d ..o.o.| s i H o.' u 8 U } y 1 K ( 8   O.O.O.O.O.O.O.O.O.O.O.O.O.O.O.",
"O.O.O.O.O.O.O.O.O.O.O.O.O.O.% Y ..| # 3 J ..o...R H f U } o.o.o.o.o.o.| o.o.o.o...R a U d f X.) y   O.O.O.O.O.O.O.O.O.O.O.O.O.O.",
"O.O.O.O.O.O.O.O.O.O.O.O.O.o K ' o...$ R p 8 f ` ..o.o.o.o.o.o.o.o.o.o.o.o.X.` K s f ' o.f s o.| ( y   O.O.O.O.O.O.O.O.O.O.O.O.O.",
"O.O.O.O.O.O.O.O.O.O.O.O.  p ) ..o.X.& ) o.) K d L ` o.o.o.o.o.o.o.X.o.o.o...' | o.o.o.o.f H o.o.' R 1   O.O.O.O.O.O.O.O.O.O.O.O.",
"O.O.O.O.O.O.O.O.O.O.O.O.% ( ` o.o.o.7 ( o.o.o.o.o.o.o.o.o.' f R K H T o.o.o.o.o.o.o.o.o.a L o.o..._ K   O.O.O.O.O.O.O.O.O.O.O.O.",
"O.O.O.O.O.O.O.O.O.O.O.  % L } o.o.o.u U o.o.o.o.o.o.o.o.o.) 7 L a a U o.o.o.o.o.o.o.o.o.p Y o.o.o.' L o   O.O.O.O.O.O.O.O.O.O.O.",
"O.O.O.O.O.O.O.O.O.O.O.$ H $ T o.o...u H o.o.o.o.o.o.o.o.o.' 1 T u f K o.o.o.o.o.o.o.o.o.u T o.o.o.R $ d o O.O.O.O.O.O.O.O.O.O.O.",
"O.O.O.O.O.O.O.O.O.O.  a _ Y & ' X.a   p o.o.o.o.o.o.o.o.o.' 1 T u f K o.o.o.o.o.o.o.o.X.8 & ` o.| 1 L ` u O.O.O.O.O.O.O.O.O.O.O.",
"O.O.O.O.O.O.O.O.O.O.$ ! ' o.K i a   O.8 X.o.o.o.o.o.o.o.o.| # ) y L J o.o.o.o.o.o.o.o.| 3   # T d d o.} R # O.O.O.O.O.O.O.O.O.O.",
"O.O.O.O.O.O.O.O.O.O.y ) | o...1   O.O.$ } o.o.o.o.o.o.o.o.o.' ..| ....o.o.o.o.o.o.o.o.} % O.O.. # } o...) i O.O.O.O.O.O.O.O.O.O.",
"O.O.O.O.O.O.O.O.O.O.u ) | o.' o O.O.O.  ) o.o.o.o.o.o.o.o.o.o.o.o.o.o.o.o.o.o.o.o.o.o.'   O.O.O.o } o.| ) a O.O.O.O.O.O.O.O.O.O.",
"O.O.O.O.O.O.O.O.O.O.o s ) } p O.O.O.O.  U o.o.o.o.o.o.o.o.` ` ` } o.o.o.o.o.o.o.o.o.o.) # $ O.O.O.y | ` L # O.O.O.O.O.O.O.O.O.O.",
"O.O.O.O.O.O.O.O.O.O.O.. y i . O.O.O.O.  H o...' ` ' ..o.o.` ) ) ` o.o.o.o.o.o.o.o.o.o.Y 8 ^ . O.O.  a d # O.O.O.O.O.O.O.O.O.O.O.",
"O.O.O.O.O.O.O.O.O.O.O.O.O.O.O.O.O.O.O.  p o.X.` ) ) } o.o.' ) ) ` o.o.o.o.o.o.o.o.o.o.L p | # O.O.O.O.O.O.O.O.O.O.O.O.O.O.O.O.O.",
"O.O.O.O.O.O.O.O.O.O.O.O.O.O.O.O.O.O.O.# 7 ..o.` ) ) ' o.o.' ) ) ` o.o.} ` ` ` ` ` ..o.f d | o O.O.O.O.O.O.O.O.O.O.O.O.O.O.O.O.O.",
"O.O.O.O.O.O.O.O.O.O.O.O.O.O.O.O.O.O.O.& $ ` o.` ) ) ' o.o.} ) ) ` o.o.) ) ) ) ) ` ..o.p K (   O.O.O.O.O.O.O.O.O.O.O.O.O.O.O.O.O.",
"O.O.O.O.O.O.O.O.O.O.O.O.O.O.O.O.O.O.O.o # Y o.` ) ) ` o.o.| ) ) ' o.o.) ) ) ) ) ) X...8 R a O.O.O.O.O.O.O.O.O.O.O.O.O.O.O.O.O.O.",
"O.O.O.O.O.O.O.O.O.O.O.O.O.O.O.O.O.O.O.    d o.} ) ) ) ..o.o...| ..o.o.) ) ) ) ) ` o.} 3 Y o O.O.O.O.O.O.O.O.O.O.O.O.O.O.O.O.O.O.",
"O.O.O.O.O.O.O.O.O.O.O.O.O.O.O.O.O.O.O.    y X.| ) ) ) } o.o.o.o.o.o.o.) ) ) ) ) ` o.( $ 7 O.O.O.O.O.O.O.O.O.O.O.O.O.O.O.O.O.O.O.",
"O.O.O.O.O.O.O.O.O.O.O.O.O.O.O.O.O.O.O.O.  # ' ..) ) ) ' X.o.o.o.o...} ) ) ) ) ) ' o.K   O.O.O.O.O.O.O.O.O.O.O.O.O.O.O.O.O.O.O.O.",
"O.O.O.O.O.O.O.O.O.O.O.O.O.O.O.O.O.O.O.O.    K o.` ) ) ) ` ' } ' ' ) ) ) ) ) ) ) } o.p   O.O.O.O.O.O.O.O.O.O.O.O.O.O.O.O.O.O.O.O.",
"O.O.O.O.O.O.O.O.O.O.O.O.O.O.O.O.O.O.O.O.O.  i o.} ) ) ) ) ) ) ) ) ) ) ) ) ) ) ) | ) % O.O.O.O.O.O.O.O.O.O.O.O.O.O.O.O.O.O.O.O.O.",
"O.O.O.O.O.O.O.O.O.O.O.O.O.O.O.O.O.O.O.O.O.O.o J ( ( ) ) ) ) ) ) ) ) ) ) ( U H a 7   O.O.O.O.O.O.O.O.O.O.O.O.O.O.O.O.O.O.O.O.O.O.",
"O.O.O.O.O.O.O.O.O.O.O.O.O.O.O.O.O.O.O.O.O.O.O.      % 7 y p a a a a 7 &           O.O.O.O.O.O.O.O.O.O.O.O.O.O.O.O.O.O.O.O.O.O.O.",
"O.O.O.O.O.O.O.O.O.O.O.O.O.O.O.O.O.O.O.O.O.O.O.O.                      O.O.O.O.O.O.O.O.O.O.O.O.O.O.O.O.O.O.O.O.O.O.O.O.O.O.O.O.O.",
"O.O.O.O.O.O.O.O.O.O.O.O.O.O.O.O.O.O.O.O.O.O.O.O.O.O.O.O.O.O.O.O.O.O.O.O.O.O.O.O.O.O.O.O.O.O.O.O.O.O.O.O.O.O.O.O.O.O.O.O.O.O.O.O.",
"O.O.O.O.O.O.O.O.O.O.O.O.O.O.O.O.O.O.O.O.O.O.O.O.O.O.O.O.O.O.O.O.O.O.O.O.O.O.O.O.O.O.O.O.O.O.O.O.O.O.O.O.O.O.O.O.O.O.O.O.O.O.O.O.",
"O.O.O.O.O.O.O.O.O.O.O.O.O.O.O.O.O.O.O.O.O.O.O.O.O.O.O.O.O.O.O.O.O.O.O.O.O.O.O.O.O.O.O.O.O.O.O.O.O.O.O.O.O.O.O.O.O.O.O.O.O.O.O.O."
};
