/* XPM */
static char *result[] = {
/* columns rows colors chars-per-pixel */
"64 64 175 2 ",
"   c #010101",
".  c #080707",
"X  c #0D0B06",
"o  c #00050A",
"O  c #0B0B0B",
"+  c #01080F",
"@  c #110F0D",
"#  c #14110A",
"$  c #1E180C",
"%  c #000A15",
"&  c #000E1C",
"*  c #131313",
"=  c #191514",
"-  c #1C1B1B",
";  c #231C0E",
":  c #211D1B",
">  c #201B12",
",  c #2D2312",
"<  c #26211F",
"1  c #352B15",
"2  c #3A2F17",
"3  c #302713",
"4  c #3E3119",
"5  c #00162B",
"6  c #001327",
"7  c #001A33",
"8  c #001E3C",
"9  c #242424",
"0  c #2B2523",
"q  c #2E2826",
"w  c #2A2B2B",
"e  c #212529",
"r  c #332D2A",
"t  c #39322F",
"y  c #37302D",
"u  c #333333",
"i  c #3D3532",
"p  c #3B3B3B",
"a  c #3F3834",
"s  c #2B323A",
"d  c #483A1D",
"f  c #423A36",
"g  c #453D39",
"h  c #483F3B",
"j  c #534221",
"k  c #5D4A25",
"l  c #4A413D",
"z  c #624F27",
"x  c #665229",
"c  c #6A552B",
"v  c #775F2F",
"b  c #7F6633",
"n  c #002142",
"m  c #00274E",
"M  c #012B56",
"N  c #002F5E",
"B  c #153759",
"V  c #003163",
"C  c #00376E",
"Z  c #123F6D",
"A  c #003A75",
"S  c #003E7B",
"D  c #3B4854",
"F  c #1F466D",
"G  c #1B4B7D",
"H  c #434343",
"J  c #4E4541",
"K  c #4C4C4C",
"L  c #534A45",
"P  c #564D48",
"I  c #594F4A",
"U  c #514742",
"Y  c #5B514C",
"T  c #545454",
"R  c #5C5C5C",
"E  c #60554F",
"W  c #625752",
"Q  c #675B55",
"!  c #6E615B",
"~  c #73655E",
"^  c #475869",
"/  c #656565",
"(  c #6D6D6D",
")  c #776962",
"_  c #796B64",
"`  c #7F6F68",
"'  c #746660",
"]  c #7F7069",
"[  c #747474",
"{  c #7C7C7C",
"}  c #856A35",
"|  c #93763B",
" . c #9A7B3E",
".. c #96783C",
"X. c #8E7239",
"o. c #9F7F40",
"O. c #84746D",
"+. c #A48342",
"@. c #AB8944",
"#. c #A98743",
"$. c #BA954A",
"%. c #BF994C",
"&. c #B28E47",
"*. c #C09A4D",
"=. c #CBA251",
"-. c #D4AA55",
";. c #D1A754",
":. c #DEB259",
">. c #E2B55A",
",. c #E7B95C",
"<. c #ECBD5E",
"1. c #EFBF60",
"2. c #F4C361",
"3. c #FFCC66",
"4. c #004284",
"5. c #00458A",
"6. c #004A94",
"7. c #004D9A",
"8. c #175696",
"9. c #3A6086",
"0. c #0052A4",
"q. c #0055AA",
"w. c #005AB4",
"e. c #005EBD",
"r. c #5D768F",
"t. c #4A7AA9",
"y. c #4475A7",
"u. c #557FA8",
"i. c #0062C4",
"p. c #0066CC",
"a. c #096BCE",
"s. c #106FCF",
"d. c #1674D0",
"f. c #1A73CD",
"g. c #227AD3",
"h. c #77828D",
"j. c #6E92B5",
"k. c #2D81D5",
"l. c #3988D7",
"z. c #5096DC",
"x. c #7EB1E5",
"c. c #72AAE3",
"v. c #848484",
"b. c #8B8B8B",
"n. c #949494",
"m. c #999999",
"M. c #809BB6",
"N. c #A3A3A3",
"B. c #ABABAB",
"V. c #B4B4B4",
"C. c #BBBBBB",
"Z. c #B6BDC4",
"A. c #8DB8E2",
"S. c #9FC5EC",
"D. c #A8CBEE",
"F. c #B1D1EF",
"G. c #BDD5EE",
"H. c #BCD6F1",
"J. c #C4C4C4",
"K. c #CCCCCC",
"L. c #C5C7CA",
"P. c #D4D4D4",
"I. c #DBDBDB",
"U. c #CADFF4",
"Y. c #D5E5F5",
"T. c #DDEBF9",
"R. c #E4E4E4",
"E. c #EBECEC",
"W. c #E4EFFA",
"Q. c #ECF3FB",
"!. c #E5F0FA",
"~. c #F4F4F4",
"^. c #FEFEFF",
"/. c #F6FAFD",
"(. c None",
/* pixels */
"(.(.(.(.(.(.(.(.(.(.(.(.(.(.(.(.(.(.(.(.(.(.(.(.(.(.(.(.(.(.(.(.(.(.(.(.(.(.(.(.(.(.(.(.(.(.(.(.(.(.(.(.(.(.(.(.(.(.(.(.(.(.(.(.",
"(.(.(.(.(.(.(.(.(.(.(.(.(.(.(.(.(.(.(.(.(.(.(.(.(.(.(.(.(.(.(.(.(.(.(.(.(.(.(.(.(.(.(.(.(.(.(.(.(.(.(.(.(.(.(.(.(.(.(.(.(.(.(.(.",
"(.(.(.(.(.(.(.(.(.(.(.(.(.(.(.(.(.(.(.(.(.(.(.(.(.(.(.(.(.(.(.(.(.(.(.(.(.(.(.(.(.(.  9   (.(.(.(.(.(.(.(.(.(.(.(.(.(.(.(.(.(.(.",
"(.(.(.(.(.(.(.(.(.(.(.(.(.(.(.(.(.(.(.(.(.(.(.(.(.                            (.(.(.= C.O (.(.(.(.(.(.(.(.(.(.(.(.(.(.(.(.(.(.(.",
"(.(.(.(.(.(.(.(.(.(.(.(.(.(.(.(.(.(.(.(.(.(.    O p [ r.5.6.q.q.q.q.0.5.A 8 %       * [   (.(.(.(.(.(.(.(.(.(.(.(.(.(.(.(.(.(.(.",
"(.(.(.(.(.(.(.(.(.(.(.(.(.(.(.(.(.(.(.(.  @ R V./.^.^.z.p.p.p.p.p.p.p.p.p.p.p.e.7.A ^ 9     (.(.(.(.(.(.(.(.(.(.(.(.(.(.(.(.(.(.",
"(.(.(.(.(.(.(.(.(.(.(.(.(.(.(.(.(.(.(.@ R P.^.^.^.^.Q.g.i.w.w.q.q.q.w.i.i.p.p.p.p.p.A.R.N.u o   (.(.(.(.(.(.(.(.(.(.(.(.(.(.(.(.",
"(.(.(.(.(.(.(.(.(.(.(.(.(.(.(.(.(.(.  K.^.^.^.^.^.I.r.7 % o o     o + % & 8 A 0.p.p.l.^.^./.N.=   (.(.(.(.(.(.(.(.(.(.(.(.(.(.(.",
"(.(.(.(.(.(.(.(.(.(.(.(.(.(.(.(.(.  m.^.^.^.E.{ w . = < q r i f f t t r 0 : * X o 7 G E.^.^.^.~./ O (.(.(.(.(.(.(.(.(.(.(.(.(.(.",
"(.(.(.(.(.(.(.(.(.(.(.(.(.(.(.(.  u ~.^.^.C.u * < i f f f f f f f f f f f f f t q - . u n.~.^.^./.b.* (.(.(.(.(.(.(.(.(.(.(.(.(.",
"(.(.(.(.(.(.(.(.(.(.(.(.(.(.(.(.  C.^.^.B.* q f f f l J U L L L L L L J l l h f f f f 0 O p P.^.^.^.n.  (.(.(.(.(.(.(.(.(.(.(.(.",
"(.(.(.(.(.(.(.(.(.(.(.(.(.(.(.  K ^.^.N.  r f l U P P P P P P P P P P P P P P L U l g f a : = m.^.^.E.O (.(.(.(.(.(.(.(.(.(.(.(.",
"(.(.(.(.(.(.(.(.(.(.(.(.(.(.(.  B.^.E.= 0 f l P P P P Y W ~ ' ) ~ Q ! Q W Y Y P I P P J g f 0 . K.^.^.T   (.(.(.(.(.(.(.(.(.(.(.",
"(.(.(.(.(.(.(.(.(.(.(.(.(.(.  = /.^.T # f U P P P P ! ` O.O.O.O.O.O.O.O.O.O.O.` W P P P L h f 0 - R.^.n.  (.(.(.(.(.(.(.(.(.(.(.",
"(.(.(.(.(.(.(.(.(.(.(.(.(.(.  { ^.E.- 0 h P P P I ~ O.O.O.O.O.O.O.O.O.O.O.O.O.O.O.~ P P P P l f O { ^.I.-   (.(.(.(.(.(.(.(.(.(.",
"(.(.(.(.(.(.(.(.(.(.(.(.(.    J.^.P.  t U P P P ~ O.O.O.O.O.O.O.O.O.O.O.O.O.O.O.O.O.' I P P L h 0 9 ~.^.p   (.(.(.(.(.(.(.(.(.(.",
"(.(.(.(.(.(.(.(.(.(.(.(.    = E.^.V.  h P P P Y ) ~ ~ ~ ~ ) _ _ ` O.O.O.O.O.O.O.O.O.O.! P P P J i O I.^.(   (.(.(.(.(.(.(.(.(.(.",
"(.(.(.(.(.(.(.(.(.(.(.  O   u ^.^.m.  l L t 0 - = O O O O # * = : : q i U E ~ O.O.O.O.` Y P P P f O B.^.n.  (.(.(.(.(.(.(.(.(.(.",
"(.(.(.(.(.(.(.(.(.(.(.  n.  R ^.^.n.O i X , k @.=.-.=.-.-.=.%.%.$.+.X.x 4 $ X   O : i Q W P P P h O n.^.V.    (.(.(.(.(.(.(.(.(.",
"(.(.(.(.(.(.(.(.(.(.  T L.  { ^.^.b.@   2 3.3.3.3.2., :.3.3.3.3.3.3.3.3.3.2.>.=.@.} k > # < g P h O N.^.L.      (.(.(.(.(.(.(.(.",
"(.(.(.(.(.(.(.(.(.(.  B.V.  n.^.^.n.    x 3.3.3.3.@.  @.3.3.3.3.3.3.3.3.3.3.3.3.b 2.3.>.o.j @ 0 h   J.^.P.  O o (.(.(.(.(.(.(.(.",
"(.(.(.(.(.(.(.(.(.(.- R.B.  N.^.^.B.    @.3.3.3.3.x   $.3.3.3.3.3.3.3.3.3.3.3.$.  $.3.3.3.3.|   q # I.^.P.  Q u (.(.(.(.(.(.(.(.",
"(.(.(.(.(.(.(.(.(.(.w R.B.  B.^.^.E.u   <.3.3.3.2.4   =.3.3.3.3.3.3.3.3.3.3.3. .   .3.3.3.3.+.    < ~.^.P.  ( m.  (.(.(.(.(.(.(.",
"(.(.(.(.(.(.(.(.(.(.* C.n.  N.^.^./.u ; 3.3.3.3.,.;   -.3.3.3.3.3.3.3.3.3.3.3.}   } 3.3.3.3.#.  o p ^.^.L.  [ P.  (.(.(.(.(.(.(.",
"(.(.(.(.(.(.(.(.(.(.  v.n.  n.^.^.E.= j 3.3.3.3.:.#   -.3.3.3.3.3.3.3.3.3.3.3.d   } 3.3.3.3.$.  O b.^.^.B.  n.E.= (.(.(.(.(.(.(.",
"(.(.(.(.(.(.(.(.(.(.(.u m.  { ^.^.P.  v 3.3.3.3.2.3 X >.3.3.3.3.3.3.3.3.3.3.3.,   +.3.3.3.3.%.  { ~.^.^.n.  V.R.= (.(.(.(.(.(.(.",
"(.(.(.(.(.(.(.(.(.(.(.  T   R ^.^.J.  } 3.3.3.3.3.k ; 2.3.3.3.3.3.3.3.3.3.3.3.    -.3.3.3.3.;.  b.^.^.^./   C.B.  (.(.(.(.(.(.(.",
"(.(.(.(.(.(.(.(.(.          p ^.^.P.  b 3.3.3.3.3.2.,.3.3.3.3.3.3.3.3.3.3.3.3.# 2 3.3.3.3.3.=.  n.^.^./.u O L.K (.(.(.(.(.(.(.(.",
"(.(.(.(.(.(.(.(.w v.v.[ T O = E.^.R.O x 3.3.3.3.3.3.3.3.3.3.3.3.3.3.3.3.3.3.3.&.;.3.3.3.3.3.$.  B.^.^.K.* u { * 9 O (.(.(.(.(.(.",
"(.(.(.(.(.(.(.  m.K.K.K.K.R   J.^.~.9 1 3.3.3.3.3.3.-...z , , , 1 k ..=.2.3.3.3.3.3.3.3.3.3.|   C.^.^.{   T O { K.n.  (.(.(.(.(.",
"(.(.(.(.(.(.(.p L.R.~.^./.(   ( ^.^./   1 | ,.3.3.+.- w u u p p p w *     d  .3.3.3.3.3.3.3.j . E.^.^.w     b.I.P.K.p (.(.(.(.(.",
"(.(.(.(.(.(.(.[ P.^.^.^.R.@ * * ~.^.^.V.K *   j | > b.m.m.m.m.m.m.n.n.n.( p = c 3.3.3.3.3.=.@ p ^.^.K.    N.^.^.^.P.N.. (.(.(.(.",
"(.(.(.(.(.(.(.w N.^.^.R.u [ v.  n.^.^.^./.R.N.w   - b.m.m.m.m.m.m.m.m.m.m.m.n.X >.3.;.b 4 X X B.^.^.H   w K ^.^.^.E.B.O (.(.(.(.",
"(.(.(.(.(.(.(.(.  = u w u ~.R.* w I.^.^.^.^.^.^.{ w { m.m.m.m.m.m.m.m.m.m.m.n.= ; X     w T b./.^.C.  T P.9 [ K.B.R * (.(.(.(.(.",
"(.(.(.(.(.(.(.(.(.(.(.    [ R.(   [ R.^.^.^.^.^.v.9 [ m.n.m.m.m.m.m.m.m.m.m.b.9 T { C.E.^.^.^.^.~.H   P.^.J.        (.(.(.(.(.(.",
"(.(.(.(.(.(.(.(.(.(.(.(.(.  = ( = * V.P.~.^.^.^.m.* ( n.m.m.m.m.m.m.m.n.m.m.[ @ P.^.^.^.^.^.^.~.[   / ~.v.O   (.(.(.(.(.(.(.(.(.",
"(.(.(.(.(.(.(.(.(.(.(.(.(.(.(.      p K.K.R./.^.L.  R [ { { b.b.n.n.n.n.n.n.T 9 ~.^.^.^.^.^.E.N.O w B.w   (.(.(.(.(.(.(.(.(.(.(.",
"(.(.(.(.(.(.(.(.(.(.(.(.(.(.(.(.(.    R K.K.K.P.L.s - / ( / / / / ( / / / / - ( ^.^.^.^.~.P.N.*   u     (.(.(.(.(.(.(.(.(.(.(.(.",
"(.(.(.(.(.(.(.(.(.(.(.(.(.(.(.(.(.(.    [ K.K.K.L.9.  p R / / / / / / / / w % Z.E.~.R.P.K.N.9       (.(.(.(.(.(.(.(.(.(.(.(.(.(.",
"(.(.(.(.(.(.(.(.(.(.(.(.(.(.(.(.(.(.  . . b.K.K.K.t.M o w T / / / / / R w o F K.K.K.K.K.B.=     (.(.(.(.(.(.(.(.(.(.(.(.(.(.(.(.",
"(.(.(.(.(.(.(.(.(.(.(.(.(.(.(.(.(.(.  / /   / K.K.j.6.5.N % o   @ * * + 6 A t.K.K.K.K.{ O * R   (.(.(.(.(.(.(.(.(.(.(.(.(.(.(.(.",
"(.(.(.(.(.(.(.(.(.(.(.(.(.(.(.(.(.(.  v.~.b.= u N.j.6.6.6.6.4.S S S S 5.6.6.M.K.K.B.H O H I.B.  (.(.(.(.(.(.(.(.(.(.(.(.(.(.(.(.",
"(.(.(.(.(.(.(.(.(.(.(.(.(.(.(.(.(.(.  b.^.^.L.u @ D G 6.6.6.6.6.6.6.6.6.6.6.Z.J.( - * v.~.^.C.  (.(.(.(.(.(.(.(.(.(.(.(.(.(.(.(.",
"(.(.(.(.(.(.(.(.(.(.(.(.(.(.(.(.(.(.  { ^.^.^.Q.8.5   6 V 5.6.6.6.6.6.6.4.F p   = { ~.^.^.^.B.  (.(.(.(.(.(.(.(.(.(.(.(.(.(.(.(.",
"(.(.(.(.(.(.(.(.(.(.(.(.(.(.(.(.(.(.  { ^.^.^.F.p.i.j.( w % & 7 7 7 6 % % e / B.E.^.^.^.^.^.m.  (.(.(.(.(.(.(.(.(.(.(.(.(.(.(.(.",
"(.(.(.(.(.(.(.(.(.(.(.(.(.(.(.(.(.(.  ( ^.^./.A.p.p.S./.Y.q.5.V ^ [ h.0.w.G.^.^.^.^.^.^.^.^.N.  (.(.(.(.(.(.(.(.(.(.(.(.(.(.(.(.",
"(.(.(.(.(.(.(.(.(.(.(.(.(.(.(.(.(.(.  p P w w 9 M 0.c.^./.l.p.k.!.^.D.p.a.Y.^.^.^.^.^.^.^.^.V.O (.(.(.(.(.(.(.(.(.(.(.(.(.(.(.(.",
"(.(.(.(.(.(.(.(.(.(.(.(.(.(.(.(.(.(.  p m.I.E.L.[ & f.T.^.Q.Y.Q.^.!.k.p.k./.^.^.^.^.^.^.^.E.V.* (.(.(.(.(.(.(.(.(.(.(.(.(.(.(.(.",
"(.(.(.(.(.(.(.(.(.(.(.(.(.(.(.(.(.  b.~.^.^.^.I.C.9 6.g.D.^.^.^.H.k.p.p.F.^.^.^.^.^.^.^.^.P.V.* (.(.(.(.(.(.(.(.(.(.(.(.(.(.(.(.",
"(.(.(.(.(.(.(.(.(.(.(.(.(.(.(.(.  b.^.^.^.^.^.I.K./ m p.p.s.d.s.p.p.p.p.^.^.^.^.^.^.^.^.R.K.V.* (.(.(.(.(.(.(.(.(.(.(.(.(.(.(.(.",
"(.(.(.(.(.(.(.(.(.(.(.(.(.(.(.(.  C.^.^.^.^.^.E.K.n.& i.p.p.p.p.p.p.p.p.^.^.^.^.^.^.^.~.P.K.V.* (.(.(.(.(.(.(.(.(.(.(.(.(.(.(.(.",
"(.(.(.(.(.(.(.(.(.(.(.(.(.(.(.(.  m.^.^.^.^.^.~.K.V.o 6.e.p.p.p.p.p.p.p.T.^.^.^.^.^.~.P.K.K.B.  (.(.(.(.(.(.(.(.(.(.(.(.(.(.(.(.",
"(.(.(.(.(.(.(.(.(.(.(.(.(.(.(.(.(.K ^.^.^.^.^./.P.K.@ C 6.q.e.p.p.p.p.p.U.^.^.^.^.~.P.K.K.K.v.  (.(.(.(.(.(.(.(.(.(.(.(.(.(.(.(.",
"(.(.(.(.(.(.(.(.(.(.(.(.(.(.(.(.(.  J.^.^.^.^.^.R.K.w M 6.6.6.0.e.i.i.p.S.^.^./.~.P.K.K.K.K.K   (.(.(.(.(.(.(.(.(.(.(.(.(.(.(.(.",
"(.(.(.(.(.(.(.(.(.(.(.(.(.(.(.(.(.(.= I.^.^.^.^.I.K.K n 6.6.6.6.6.6.6.7.j.I.P.P.P.K.K.K.K.C.@ (.(.(.(.(.(.(.(.(.(.(.(.(.(.(.(.(.",
"(.(.(.(.(.(.(.(.(.(.(.(.(.(.(.(.(.(.(.- V.R.I.P.K.K./ o & 8 m V G 5.6.6.y.K.K.K.K.K.K.K.K.K   (.(.(.(.(.(.(.(.(.(.(.(.(.(.(.(.(.",
"(.(.(.(.(.(.(.(.(.(.(.(.(.(.(.(.(.(.(.(.  R B.C.B.( O (.(.(.        % 8 B n.B.C.K.K.K.K.N.  (.(.(.(.(.(.(.(.(.(.(.(.(.(.(.(.(.(.",
"(.(.(.(.(.(.(.(.(.(.(.(.(.(.(.(.(.(.(.(.(.(.  * O (.(.(.(.(.(.(.(.(.(.(.(.    w J.K.K.C.q   (.(.(.(.(.(.(.(.(.(.(.(.(.(.(.(.(.(.",
"(.(.(.(.(.(.(.(.(.(.(.(.(.(.(.(.(.(.(.(.(.(.(.(.(.(.(.(.(.(.(.(.(.(.(.(.(.(.  m.K.K.L.K   (.(.(.(.(.(.(.(.(.(.(.(.(.(.(.(.(.(.(.",
"(.(.(.(.(.(.(.(.(.(.(.(.(.(.(.(.(.(.(.(.(.(.(.(.(.(.(.(.(.(.(.(.(.(.(.(.(.  R K.K.C.u   (.(.(.(.(.(.(.(.(.(.(.(.(.(.(.(.(.(.(.(.",
"(.(.(.(.(.(.(.(.(.(.(.(.(.(.(.(.(.(.(.(.(.(.(.(.(.(.(.(.(.(.(.(.(.(.(.(.(.(.  w p - (.(.(.(.(.(.(.(.(.(.(.(.(.(.(.(.(.(.(.(.(.(.",
"(.(.(.(.(.(.(.(.(.(.(.(.(.(.(.(.(.(.(.(.(.(.(.(.(.(.(.(.(.(.(.(.(.(.(.(.(.(.(.(.(.(.(.(.(.(.(.(.(.(.(.(.(.(.(.(.(.(.(.(.(.(.(.(.",
"(.(.(.(.(.(.(.(.(.(.(.(.(.(.(.(.(.(.(.(.(.(.(.(.(.(.(.(.(.(.(.(.(.(.(.(.(.(.(.(.(.(.(.(.(.(.(.(.(.(.(.(.(.(.(.(.(.(.(.(.(.(.(.(.",
"(.(.(.(.(.(.(.(.(.(.(.(.(.(.(.(.(.(.(.(.(.(.(.(.(.(.(.(.(.(.(.(.(.(.(.(.(.(.(.(.(.(.(.(.(.(.(.(.(.(.(.(.(.(.(.(.(.(.(.(.(.(.(.(."
};
