/* XPM */
static char *result[] = {
/* columns rows colors chars-per-pixel */
"64 64 173 2 ",
"   c #010101",
".  c #090706",
"X  c #00060C",
"o  c #0C0C0B",
"O  c #0A0A08",
"+  c #110F0E",
"@  c #100D06",
"#  c #15120C",
"$  c #1F190C",
"%  c #1B160B",
"&  c #010A14",
"*  c #010E1C",
"=  c #141413",
"-  c #191614",
";  c #1B1816",
":  c #1B1B1B",
">  c #08131D",
",  c #221C0E",
"<  c #241F1E",
"1  c #2A2211",
"2  c #26211F",
"3  c #322814",
"4  c #3D3118",
"5  c #001223",
"6  c #00152B",
"7  c #081828",
"8  c #001931",
"9  c #001F3E",
"0  c #232323",
"q  c #2A2522",
"w  c #2F2926",
"e  c #2C2C2C",
"r  c #362F2C",
"t  c #302A27",
"y  c #39322F",
"u  c #343434",
"i  c #3D3532",
"p  c #3A3A3A",
"a  c #373A3E",
"s  c #42351A",
"d  c #4A3C1E",
"f  c #423A36",
"g  c #453D39",
"h  c #554422",
"j  c #5C4A25",
"k  c #4A423D",
"l  c #614D27",
"z  c #6A552A",
"x  c #6F592D",
"c  c #735C2E",
"v  c #7C6332",
"b  c #002243",
"n  c #002449",
"m  c #002A55",
"M  c #002E5C",
"N  c #1E344A",
"B  c #26394D",
"V  c #003366",
"C  c #00366C",
"Z  c #0E3A65",
"A  c #003A74",
"S  c #003E7D",
"D  c #00407F",
"F  c #194673",
"G  c #214B75",
"H  c #444444",
"J  c #4F4642",
"K  c #4C4C4C",
"L  c #514743",
"P  c #544B46",
"I  c #564D48",
"U  c #594F4A",
"Y  c #5D534E",
"T  c #535353",
"R  c #5C5C5C",
"E  c #605650",
"W  c #655954",
"Q  c #6B5E58",
"!  c #6E615B",
"~  c #71645E",
"^  c #475563",
"/  c #5C646D",
"(  c #656565",
")  c #6B6B6B",
"_  c #756761",
"`  c #776962",
"'  c #796A64",
"]  c #7E6E68",
"[  c #737373",
"{  c #7E7E7E",
"}  c #836934",
"|  c #806633",
" . c #93753A",
".. c #9B7C3E",
"X. c #8C7038",
"o. c #9F7F40",
"O. c #84746D",
"+. c #A58442",
"@. c #AC8945",
"#. c #A98744",
"$. c #B28E47",
"%. c #BA954B",
"&. c #BF994C",
"*. c #C29B4D",
"=. c #CEA553",
"-. c #D5AA55",
";. c #DAAF58",
":. c #DFB259",
">. c #E2B45A",
",. c #E9BB5E",
"<. c #F4C362",
"1. c #FFCC66",
"2. c #00468B",
"3. c #004386",
"4. c #004A94",
"5. c #004D99",
"6. c #1A5999",
"7. c #355E88",
"8. c #225F9D",
"9. c #0051A3",
"0. c #0055AB",
"q. c #0059B2",
"w. c #005EBD",
"e. c #0060BF",
"r. c #2A65A0",
"t. c #416E9A",
"y. c #557290",
"u. c #4777A8",
"i. c #0062C5",
"p. c #0066CC",
"a. c #0569CD",
"s. c #086BCE",
"d. c #1271CF",
"f. c #1472D0",
"g. c #227AD2",
"h. c #287ED4",
"j. c #668BB0",
"k. c #3083D6",
"l. c #5196DC",
"z. c #709BC6",
"x. c #838383",
"c. c #8C8C8C",
"v. c #939393",
"b. c #999999",
"n. c #A5A5A5",
"m. c #ADADAD",
"M. c #B4B4B4",
"N. c #BCBCBC",
"B. c #ADB2B7",
"V. c #8BB5DF",
"C. c #A5B6C7",
"Z. c #B4BDC6",
"A. c #89B8E7",
"S. c #BFC4C9",
"D. c #A5C9ED",
"F. c #BBD6F1",
"G. c #C3C3C3",
"H. c #CCCCCC",
"J. c #C4CFDA",
"K. c #D3D3D3",
"L. c #DBDBDB",
"P. c #C1DAF3",
"I. c #CCE1F5",
"U. c #D8E7F7",
"Y. c #E4E4E4",
"T. c #EAEAEA",
"R. c #E7EFF6",
"E. c #E7F1FA",
"W. c #ECF3FB",
"Q. c #F3F3F3",
"!. c #FEFEFE",
"~. c #F1F7FC",
"^. c None",
/* pixels */
"^.^.^.^.^.^.^.^.^.^.^.^.^.^.^.^.^.^.^.^.^.^.^.^.^.^.^.^.^.^.^.^.^.^.^.^.^.^.^.^.^.^.^.^.^.^.^.^.^.^.^.^.^.^.^.^.^.^.^.^.^.^.^.^.",
"^.^.^.^.^.^.^.^.^.^.^.^.^.^.^.^.^.^.^.^.^.^.^.^.^.^.^.^.^.^.^.^.^.^.^.^.^.^.^.^.^.^.    ^.^.^.^.^.^.^.^.^.^.^.^.^.^.^.^.^.^.^.^.",
"^.^.^.^.^.^.^.^.^.^.^.^.^.^.^.^.^.^.^.^.^.^.^.^.^.                            ^.^.  ) p ^.^.^.^.^.^.^.^.^.^.^.^.^.^.^.^.^.^.^.^.",
"^.^.^.^.^.^.^.^.^.^.^.^.^.^.^.^.^.^.^.^.^.^.    - p [ c.7.3.4.5.5.5.2.S M b *       R u ^.^.^.^.^.^.^.^.^.^.^.^.^.^.^.^.^.^.^.^.",
"^.^.^.^.^.^.^.^.^.^.^.^.^.^.^.^.^.^.^.^.    e n.T.!.!.U.f.a.p.p.p.p.p.p.p.p.w.0.D b &     ^.^.^.^.^.^.^.^.^.^.^.^.^.^.^.^.^.^.^.",
"^.^.^.^.^.^.^.^.^.^.^.^.^.^.^.^.^.^.^.O R H.!.!.!.!.!.A.p.w.0.0.w.w.p.p.p.p.p.p.p.p.a.C.y.-   ^.^.^.^.^.^.^.^.^.^.^.^.^.^.^.^.^.",
"^.^.^.^.^.^.^.^.^.^.^.^.^.^.^.^.^.^.  { !.!.!.!.~.H.c.B 5 * & & * * 5 8 n V 3.0.i.p.i.F.!.L.) -   ^.^.^.^.^.^.^.^.^.^.^.^.^.^.^.",
"^.^.^.^.^.^.^.^.^.^.^.^.^.^.^.^.^.  e Q.!.!.!.M.p . o ; q r r y y y t q - + . X * m 9.D.!.!.!.K.e   ^.^.^.^.^.^.^.^.^.^.^.^.^.^.",
"^.^.^.^.^.^.^.^.^.^.^.^.^.^.^.^.  O H.!.!.K.I o q i f f f f f f f f f f f f f i w -   a M.!.!.!.!.[ . ^.^.^.^.^.^.^.^.^.^.^.^.^.",
"^.^.^.^.^.^.^.^.^.^.^.^.^.^.^.^.  T !.!.H.e - i f g g k J J J L L L L k k g f f f f y : # R K.!.!.Q.c.  ^.^.^.^.^.^.^.^.^.^.^.^.",
"^.^.^.^.^.^.^.^.^.^.^.^.^.^.^.  O Y.!.L.: 0 f g L P I I I I I I I I I I I I I L J k f f i ; : m.!.!.!.0 ^.^.^.^.^.^.^.^.^.^.^.^.",
"^.^.^.^.^.^.^.^.^.^.^.^.^.^.^.  ! !.!.B - i k I I I I I E ! _ ` ~ ! W W Y U I Y I I L k f g q o N.!.!.{   ^.^.^.^.^.^.^.^.^.^.^.",
"^.^.^.^.^.^.^.^.^.^.^.^.^.^.^.  N.!.M.. i k I I I I Y ' O.O.O.O.O.O.O.O.O.O.O.~ Y I I I P g f 2 : Y.!.G.o ^.^.^.^.^.^.^.^.^.^.^.",
"^.^.^.^.^.^.^.^.^.^.^.^.^.^.  : !.!.T - g P I I I Q O.O.O.O.O.O.O.O.O.O.O.O.O.O.O.~ I I I I k f = [ !.!.u   ^.^.^.^.^.^.^.^.^.^.",
"^.^.^.^.^.^.^.^.^.^.^.^.^.    [ !.!.e 2 k I I I W O.O.O.O.O.O.O.O.O.O.O.O.O.O.O.O.O.~ Y I I I g r = L.!.)   ^.^.^.^.^.^.^.^.^.^.",
"^.^.^.^.^.^.^.^.^.^.^.^.      N.!.T.= w I I I I ~ ' ' ' ' ] O.O.O.O.O.O.O.O.O.O.O.O.O.~ I I I L f o c.!.b.  ^.^.^.^.^.^.^.^.^.^.",
"^.^.^.^.^.^.^.^.^.^.^.  o : + Y.!.L.. i k q - o # # # # # - - : 2 w r k Y Q ` ] O.O.O.O.E I I I g - T !.G.  ^.^.^.^.^.^.^.^.^.^.",
"^.^.^.^.^.^.^.^.^.^.^.. v.0 0 ~.!.K.  i o h } +.%.&.&.&.&.&.@.+.X.v l s $ . # 2 i L Q O.! I I I k ; H !.L.    ^.^.^.^.^.^.^.^.^.",
"^.^.^.^.^.^.^.^.^.^.  H !.  H !.!.K.O . % <.1.1.1.1.4 +.1.1.1.1.1.1.1.1.1.<.=.#.z 3 @ o < g P I J - g !.Y.o     ^.^.^.^.^.^.^.^.",
"^.^.^.^.^.^.^.^.^.^.  b.T.  R !.!.K.    4 1.1.1.1.:.  z 1.1.1.1.1.1.1.1.1.1.1.1.-.>.,.%.x $ = i L = R !.T.-     ^.^.^.^.^.^.^.^.",
"^.^.^.^.^.^.^.^.^.^.  H.L.  ) !.!.L..   c 1.1.1.1.+.  v 1.1.1.1.1.1.1.1.1.1.1.<.1  .1.1.1.>.v . f o j.Q.T., < = ^.^.^.^.^.^.^.^.",
"^.^.^.^.^.^.^.^.^.^.  N.H.  { !.!.!.)   *.1.1.1.1.z    .1.1.1.1.1.1.1.1.1.1.1.-.  c 1.1.1.1.-.  o O M.!.Y.% H [   ^.^.^.^.^.^.^.",
"^.^.^.^.^.^.^.^.^.^.  x.m.  [ !.!.!.p @ 1.1.1.1.1.d   #.1.1.1.1.1.1.1.1.1.1.1.$.  z 1.1.1.1.-.    = Y.!.Y.@ T K.. ^.^.^.^.^.^.^.",
"^.^.^.^.^.^.^.^.^.^.  H m.  ) !.!.Q.0 4 1.1.1.1.<.4   %.1.1.1.1.1.1.1.1.1.1.1. .  z 1.1.1.1.-.    p !.!.L.. ( Q.: ^.^.^.^.^.^.^.",
"^.^.^.^.^.^.^.^.^.^.^.O c.  T !.!.L.o c 1.1.1.1.1.j   ;.1.1.1.1.1.1.1.1.1.1.1.l   } 1.1.1.1.-.  p N.!.!.N.  c.!.e ^.^.^.^.^.^.^.",
"^.^.^.^.^.^.^.^.^.^.^.  0   p !.!.K.  v 1.1.1.1.1.v 1 ,.1.1.1.1.1.1.1.1.1.1.1.3   $.1.1.1.1.-.  { !.!.!.b.  m.Y.: ^.^.^.^.^.^.^.",
"^.^.^.^.^.^.^.^.^.^.^.^.    : Q.!.L.  v 1.1.1.1.1.<.,.1.1.1.1.1.1.1.1.1.1.1.1.$ O <.1.1.1.1.-.  c.!.!.!.(   N.b.  ^.^.^.^.^.^.^.",
"^.^.^.^.^.^.^.^.O u H e :   . L.!.Y.= h 1.1.1.1.1.1.1.1.1.1.1.1.1.1.1.1.1.1.1.} #.1.1.1.1.1.=.  v.!.!.Q.e ; Z.u ^.^.^.^.^.^.^.^.",
"^.^.^.^.^.^.^.. x.G.H.G.M.(   n.!.!.e 1 ,.1.1.1.1.1.%.c z h h h j } %.>.1.1.1.1.1.1.1.1.1.1.#.  M.!.!.N.o K K : K e   ^.^.^.^.^.",
"^.^.^.^.^.^.^.u G.H.L.Y.Y.[   T !.!.c.. # v :.1.1...= : q 0 e 0 0 +   O 1 } >.1.1.1.1.1.1.1.c   K.!.!.)   : o b.H.G.u ^.^.^.^.^.",
"^.^.^.^.^.^.^.) K.Q.!.!.T.: -   L.!.!.Y.c.0   4 z - v.b.b.b.b.b.b.b.x.) K q O +.1.1.1.1.1.<., 0 !.!.Q.=   0 G.T.Y.H.c.  ^.^.^.^.",
"^.^.^.^.^.^.^.{ L.!.!.!.( K v.  ) !.!.!.!.!.n.H o 0 v.b.b.b.b.b.v.b.b.b.b.b.[ % <.1.<.:.@.d   x.!.!.c.  . c.!.!.!.Y.N.- ^.^.^.^.",
"^.^.^.^.^.^.^., Y y.b.[ + L.T.- - K.!.!.!.!.!.!.( u c.b.b.b.b.b.b.b.b.v.b.b.v.. d s , .     0 T.!.L.= 0 b.o H.!.!.Q.N.= ^.^.^.^.",
"^.^.^.^.^.^.^.^.^.      e N.!.{   R L.!.!.!.!.!.) e { b.b.b.b.b.b.b.b.b.b.b.x.o 0 H ) v.M.L.!.!.!.)   v.!.c.0 x.{ T o ^.^.^.^.^.",
"^.^.^.^.^.^.^.^.^.^.^.^.    H G.0 O m.H.T.!.!.!.y.3 ) v.b.b.b.b.b.b.b.b.b.b.[ + Y.!.!.!.!.!.!.!.N.O 0 !.Q.n.O     ^.^.^.^.^.^.^.",
"^.^.^.^.^.^.^.^.^.^.^.^.^.^.    o   r H.H.Y.!.!.m.@ ( ) [ { c.v.b.b.b.b.b.c.H u !.!.!.!.!.!.!.H.= o H.n.e   ^.^.^.^.^.^.^.^.^.^.",
"^.^.^.^.^.^.^.^.^.^.^.^.^.^.^.^.      ( H.H.K.K.M.& u ( ) ( ( ( ) ) ) ) ) ( = v.!.!.!.!.!.T.G.p   R H     ^.^.^.^.^.^.^.^.^.^.^.",
"^.^.^.^.^.^.^.^.^.^.^.^.^.^.^.^.^.^.    O.K.H.H.Z.Z   H ( ( ( ( ( ( ( ( ( 0 5 Y.!.!.Q.L.H.G.u   .     ^.^.^.^.^.^.^.^.^.^.^.^.^.",
"^.^.^.^.^.^.^.^.^.^.^.^.^.^.^.^.^.^.  O . y.H.H.Z.6.9 X 0 T R R ( ( ( T < & 7.H.K.K.H.H.N.e       ^.^.^.^.^.^.^.^.^.^.^.^.^.^.^.",
"^.^.^.^.^.^.^.^.^.^.^.^.^.^.^.^.^.^.  R T o [ H.G.r.4.A n * + = 0 0 : . 5 A j.H.H.H.H.n.e . u   ^.^.^.^.^.^.^.^.^.^.^.^.^.^.^.^.",
"^.^.^.^.^.^.^.^.^.^.^.^.^.^.^.^.^.^.  { !.{ O u m.u.4.4.4.4.4.D S S D 4.4.4.C.H.H.G.) . : G.n.  ^.^.^.^.^.^.^.^.^.^.^.^.^.^.^.^.",
"^.^.^.^.^.^.^.^.^.^.^.^.^.^.^.^.^.^.  c.!.!.G.p - N S 4.4.4.4.4.4.4.4.4.4.8.H.N.{ e = ) Y.!.N.  ^.^.^.^.^.^.^.^.^.^.^.^.^.^.^.^.",
"^.^.^.^.^.^.^.^.^.^.^.^.^.^.^.^.^.^.  x.!.!.!.R.F * X 9 A 2.4.4.4.4.4.4.4.y.) e . H N.!.!.!.m.  ^.^.^.^.^.^.^.^.^.^.^.^.^.^.^.^.",
"^.^.^.^.^.^.^.^.^.^.^.^.^.^.^.^.^.^.  { !.!.!.F.p.p.t.H o   & 5 8 8 8 &   O 0 x.Y.!.!.!.!.!.n.  ^.^.^.^.^.^.^.^.^.^.^.^.^.^.^.^.",
"^.^.^.^.^.^.^.^.^.^.^.^.^.^.^.^.^.^.  ) !.~.W.A.p.p.D.!.J.3.C m ^ ) / A 3.C.Q.!.!.!.!.!.!.!.b.  ^.^.^.^.^.^.^.^.^.^.^.^.^.^.^.^.",
"^.^.^.^.^.^.^.^.^.^.^.^.^.^.^.^.^.^.  T +.N : 7 3.i.A.!.~.d.p.s.U.!.F.p.a.I.!.!.!.!.!.!.!.!.M.  ^.^.^.^.^.^.^.^.^.^.^.^.^.^.^.^.",
"^.^.^.^.^.^.^.^.^.^.^.^.^.^.^.^.^.^.  : x.K.T.G.( * f.E.!.W.F.E.!.~.k.p.g.~.!.!.!.!.!.!.!.Q.M.= ^.^.^.^.^.^.^.^.^.^.^.^.^.^.^.^.",
"^.^.^.^.^.^.^.^.^.^.^.^.^.^.^.^.^.. ( L.!.!.!.L.M.: 9.l.F.!.!.!.I.l.a.a.A.!.!.!.!.!.!.!.!.L.M.o ^.^.^.^.^.^.^.^.^.^.^.^.^.^.^.^.",
"^.^.^.^.^.^.^.^.^.^.^.^.^.^.^.^.  ( !.!.!.!.!.L.H.T M a.a.g.k.h.s.p.p.p.!.!.!.!.!.!.!.!.R.H.M.+ ^.^.^.^.^.^.^.^.^.^.^.^.^.^.^.^.",
"^.^.^.^.^.^.^.^.^.^.^.^.^.^.^.^.  N.!.!.!.!.!.Y.H.c.5 p.p.p.p.p.p.p.p.p.!.!.!.!.!.!.!.Q.K.H.M.+ ^.^.^.^.^.^.^.^.^.^.^.^.^.^.^.^.",
"^.^.^.^.^.^.^.^.^.^.^.^.^.^.^.^.  n.!.!.!.!.!.Q.H.M.X 5.i.p.p.p.p.p.p.p.E.!.!.!.!.!.!.K.H.H.M.O ^.^.^.^.^.^.^.^.^.^.^.^.^.^.^.^.",
"^.^.^.^.^.^.^.^.^.^.^.^.^.^.^.^.  R !.!.!.!.!.!.H.H.O A 4.q.i.p.p.p.p.p.I.!.!.!.!.!.L.H.H.H.c.  ^.^.^.^.^.^.^.^.^.^.^.^.^.^.^.^.",
"^.^.^.^.^.^.^.^.^.^.^.^.^.^.^.^.^.o L.!.!.!.!.!.L.H.e M 4.4.5.q.e.p.p.p.D.!.!.!.!.K.H.H.H.H.Y   ^.^.^.^.^.^.^.^.^.^.^.^.^.^.^.^.",
"^.^.^.^.^.^.^.^.^.^.^.^.^.^.^.^.^.^.p T.!.!.!.!.L.H.H b 4.4.4.4.4.5.5.9.z.Y.Y.K.H.H.H.H.H.Z.- ^.^.^.^.^.^.^.^.^.^.^.^.^.^.^.^.^.",
"^.^.^.^.^.^.^.^.^.^.^.^.^.^.^.^.^.^.^.u Y.Q.Y.K.H.H.[ X 6 n V 3.4.4.4.4.u.H.H.H.H.H.H.H.H.(   ^.^.^.^.^.^.^.^.^.^.^.^.^.^.^.^.^.",
"^.^.^.^.^.^.^.^.^.^.^.^.^.^.^.^.^.^.^.^.: x.G.H.H.v.:   ^.      X 6 9 m G M.H.H.H.H.H.H.M.O   ^.^.^.^.^.^.^.^.^.^.^.^.^.^.^.^.^.",
"^.^.^.^.^.^.^.^.^.^.^.^.^.^.^.^.^.^.^.^.^.  = u -   ^.^.^.^.^.^.^.^.^.        e N.H.H.G.K   ^.^.^.^.^.^.^.^.^.^.^.^.^.^.^.^.^.^.",
"^.^.^.^.^.^.^.^.^.^.^.^.^.^.^.^.^.^.^.^.^.^.^.^.^.^.^.^.^.^.^.^.^.^.^.^.^.^.@ y.H.H.H.R   ^.^.^.^.^.^.^.^.^.^.^.^.^.^.^.^.^.^.^.",
"^.^.^.^.^.^.^.^.^.^.^.^.^.^.^.^.^.^.^.^.^.^.^.^.^.^.^.^.^.^.^.^.^.^.^.^.^.  I H.H.H.) . ^.^.^.^.^.^.^.^.^.^.^.^.^.^.^.^.^.^.^.^.",
"^.^.^.^.^.^.^.^.^.^.^.^.^.^.^.^.^.^.^.^.^.^.^.^.^.^.^.^.^.^.^.^.^.^.^.^.^.^.o I R 0 ^.^.^.^.^.^.^.^.^.^.^.^.^.^.^.^.^.^.^.^.^.^.",
"^.^.^.^.^.^.^.^.^.^.^.^.^.^.^.^.^.^.^.^.^.^.^.^.^.^.^.^.^.^.^.^.^.^.^.^.^.^.^.^.^.^.^.^.^.^.^.^.^.^.^.^.^.^.^.^.^.^.^.^.^.^.^.^.",
"^.^.^.^.^.^.^.^.^.^.^.^.^.^.^.^.^.^.^.^.^.^.^.^.^.^.^.^.^.^.^.^.^.^.^.^.^.^.^.^.^.^.^.^.^.^.^.^.^.^.^.^.^.^.^.^.^.^.^.^.^.^.^.^.",
"^.^.^.^.^.^.^.^.^.^.^.^.^.^.^.^.^.^.^.^.^.^.^.^.^.^.^.^.^.^.^.^.^.^.^.^.^.^.^.^.^.^.^.^.^.^.^.^.^.^.^.^.^.^.^.^.^.^.^.^.^.^.^.^.",
"^.^.^.^.^.^.^.^.^.^.^.^.^.^.^.^.^.^.^.^.^.^.^.^.^.^.^.^.^.^.^.^.^.^.^.^.^.^.^.^.^.^.^.^.^.^.^.^.^.^.^.^.^.^.^.^.^.^.^.^.^.^.^.^."
};
