/* XPM */
static char *result[] = {
/* columns rows colors chars-per-pixel */
"64 64 180 2 ",
"   c #010101",
".  c #080707",
"X  c #0C0A07",
"o  c #00050A",
"O  c #0B0B0B",
"+  c #04080C",
"@  c #110F0B",
"#  c #100D06",
"$  c #16120A",
"%  c #1C160B",
"&  c #1E180E",
"*  c #000911",
"=  c #020F1B",
"-  c #05121F",
";  c #141313",
":  c #1C1915",
">  c #1C1B1B",
",  c #181513",
"<  c #211B0D",
"1  c #221D1B",
"2  c #25201E",
"3  c #2D2412",
"4  c #332914",
"5  c #3D3119",
"6  c #001224",
"7  c #00152A",
"8  c #001933",
"9  c #051E37",
"0  c #151C23",
"q  c #242323",
"w  c #292522",
"e  c #2F2926",
"r  c #2B2B2B",
"t  c #252A2F",
"y  c #322C29",
"u  c #33302E",
"i  c #38312E",
"p  c #333333",
"a  c #3D3632",
"s  c #3B3B3B",
"d  c #42351A",
"f  c #4A3C1E",
"g  c #423A36",
"h  c #453D39",
"j  c #433720",
"k  c #4F4020",
"l  c #564522",
"z  c #5A4824",
"x  c #4A423E",
"c  c #40403F",
"v  c #69542A",
"b  c #755E2F",
"n  c #00264C",
"m  c #002A54",
"M  c #002F5E",
"N  c #003265",
"B  c #00356B",
"V  c #013972",
"C  c #003E7B",
"Z  c #3A4045",
"A  c #434343",
"S  c #4B4B4B",
"D  c #4F4641",
"F  c #544B46",
"G  c #564D48",
"H  c #594F4A",
"J  c #5B514C",
"K  c #545454",
"L  c #5C5C5C",
"P  c #5F5550",
"I  c #685C56",
"U  c #6F625C",
"Y  c #425C76",
"T  c #566A7D",
"R  c #636363",
"E  c #6B6B6B",
"W  c #66696C",
"Q  c #776862",
"!  c #796B64",
"~  c #7A6B64",
"^  c #747474",
"/  c #7C7C7C",
"(  c #68727C",
")  c #836935",
"_  c #846934",
"`  c #9B7C3E",
"'  c #95783C",
"]  c #9F7F40",
"[  c #84746D",
"{  c #9F8040",
"}  c #AA8844",
"|  c #B59148",
" . c #BF994C",
".. c #BC974B",
"X. c #C59E4F",
"o. c #D0A753",
"O. c #D4A955",
"+. c #DCB158",
"@. c #CCA351",
"#. c #E3B55B",
"$. c #EBBC5E",
"%. c #E7B95C",
"&. c #F4C462",
"*. c #FFCC66",
"=. c #004181",
"-. c #00468D",
";. c #004A94",
":. c #004D9B",
">. c #0A5197",
",. c #0E5398",
"<. c #17599A",
"1. c #24619E",
"2. c #0052A4",
"3. c #0057AD",
"4. c #0858A9",
"5. c #005DBA",
"6. c #3068A1",
"7. c #48698B",
"8. c #737F8B",
"9. c #687583",
"0. c #4475A7",
"q. c #0066CC",
"w. c #0569CD",
"e. c #0B6CCE",
"r. c #0063C6",
"t. c #1472D0",
"y. c #1A76D1",
"u. c #257CD3",
"i. c #2A7FD4",
"p. c #3279C1",
"a. c #4C84BD",
"s. c #7293B3",
"d. c #2C81D5",
"f. c #3485D5",
"g. c #3E8BD8",
"h. c #5397DC",
"j. c #4791DA",
"k. c #70A5DB",
"l. c #6BA6E1",
"z. c #76ADE4",
"x. c #848484",
"c. c #8C8C8C",
"v. c #80868C",
"b. c #949494",
"n. c #9A9A9A",
"m. c #919AA3",
"M. c #8BA2BA",
"N. c #99ABBE",
"B. c #A4A4A4",
"V. c #ACACAC",
"C. c #B3B3B3",
"Z. c #BDBDBD",
"A. c #8AB9E8",
"S. c #92BDE9",
"D. c #BBC2C8",
"F. c #9DC4EB",
"G. c #ADCEEF",
"H. c #A1C7EC",
"J. c #B0D0EF",
"K. c #BAD6F1",
"L. c #C4C4C4",
"P. c #CCCCCC",
"I. c #D3D3D3",
"U. c #DCDCDC",
"Y. c #D8D8D7",
"T. c #CADFF4",
"R. c #DFE0E0",
"E. c #D3E5F6",
"W. c #DAE9F8",
"Q. c #CDE1F5",
"!. c #E3E3E3",
"~. c #EBEBEB",
"^. c #E4EEF7",
"/. c #E9F2FB",
"(. c #E6F0FA",
"). c #F3F3F3",
"_. c #F4F8FD",
"`. c #FFFFFF",
"'. c #F3F6F8",
"]. c None",
/* pixels */
"].].].].].].].].].].].].].].].].].].].].].].].].].].].].].].].].].].].].].].].].].].].].].].].].].].].].].].].].].].].].].].].].",
"].].].].].].].].].].].].].].].].].].].].].].].].].].].].].].].].].].].].].].].].].].].].].].].].].].].].].].].].].].].].].].].].",
"].].].].].].].].].].].].].].].].].].].].].].].].].].].].].].].].].].].].].].].].].            ].].].].].].].].].].].].].].].].].",
"].].].].].].].].].].].].].].].].].].].].].].].].].].].].].].].].].].].].        o * = 6 7 8 8 7 *     ].].].].].].].].].].].].].",
"].].].].].].].].].].].].].].].].].].].].].].].].].].].].].].].].          7 n =.3.5.r.q.q.q.q.q.5.2.W >     ].].].].].].].].].].",
"].].].].].].].].].].].].].].].].].].].].].].].].].].].].].      q R b.P.'.d.q.q.q.q.q.q.q.q.q.q.q.q.J._.Z.G . ].].].].].].].].].",
"].].].].].].].].].].].].].].].].].].].].].].].].].].].    ; L V.!.`.`.`.`.G.e.q.r.5.2.-.C V N M m M Y C.Y.).V.p ].].].].].].].].",
"].].].].].].].].].].].].].].].].    ].].].].].].].].  . E !.`.`.`.`.`.`.`.`.a.V 7 *   @ 1 q y y e q > , ; r c.V.  ].].].].].].].",
"].].].].].].].].].].].].].].].]./ A ].].].].].].].  s I.`.`.`.`.`.`.`.'.n.u X q a x G G G G G G G G G G G D e ; .   ].].].].].].",
"].].].].].].].].].].].].].].].  B.R   ].].].].].  K ~.`.`.`.`.`.`.`.U.S . e D G G G G G G G G G G G G G G G G h ;   ].].].].].].",
"].].].].].].].].].].].].].].].  V.x.  ].].].].  K `.`.`.`.`.`.`.`.Z.; ; a G G G G G G G I I ~ ~ Q Q U J G G G F a ;   ].].].].].",
"].].].].].].].].].].].].].].].  C.B.  ].].].  r !.`.`.`.`.`.`.`.P.> 1 g D G G G G I Q [ [ [ [ [ [ [ [ [ Q J G G x e . ].].].].].",
"].].].].].].].].].].].].].].].  L.Z.  ].].].O P.`.`.`.`.`.`.`.`.S X g g G G G J ~ [ [ [ [ [ [ [ [ [ [ [ [ [ J G D a :   ].].].].",
"].].].].].].].].].].].].].].].  L.Z.  ].].  R ~.`.`.`.`.`.`.`.P.O 1 g h G G G [ [ [ [ [ [ [ [ [ [ [ [ [ [ [ Q G G h w   ].].].].",
"].].].].].].].].].].].].].].].  I.P.  ].].; L.~.`.`.`.`.`.`.`.8.O e g g D G I [ [ ~ I J G h i w w > ; ; @ X ; 1 g g w . ].].].].",
"].].].].].].].].].].].].].].].. Y.I.  ].  L P.!.`.`.`.`.`.`.`.9.X w g g x x g i : & 4 d l v b ) ] ] | X.X...b   1 a 1 .   ].].].",
"].].].].].].].].].].].].].].].; !.I.  ].  b.D.^ b.~.`.`.`.`.`.{ X q g g y & v | +.&.*.*.*.*.*.*.*.*.*.*.*.*.+.% > e ,     ].].].",
"].].].].].].].].].].].].].].].> !.I.  ].  Z.E y r K '.`.`.`.`.V.. 2 a e $ X.*.*.*.*.*.*.*.*.*.*.*.*.*.*.*.*.&.d @ 1 O w   ].].].",
"].].].].].].].].].].].].].].  O s p     ; P., C.P.A b.`.`.`.`.I.. 1 1 @ +.*.*.*.*.*.*.+.*.*.*.*.*.*.*.*.#.*.*.b O > L.W   ].].].",
"].].].].].].].].].].].  > A E c.b.B.V.^ > B.p I.P.C.> !.`.`.`.~.; , O $ %.*.*.*.*.*.| # &.*.*.*.*.*.*.o.% $.*.' O C.`./   ].].].",
"].].].].].].].].].].O ^ Y.`.`.`.`.`.`.Z.r c.L '.!.P.A b.`.`.`.`.p . b.: +.*.*.*.*.*.)   ` *.*.*.*.*.*.@.  ` *...; U.`.x.  ].].].",
"].].].].].].].].].  ^ P.~.~.P.B.b.c.C.n.r ^ E `.`.I./ K `.`.`.`.b.R ).w +.*.*.*.*.*.b   l *.*.*.*.*.*.O.  f *.#.  Z.`.^   ].].].",
"].].].].].].].].].  n.c.r r s K K K s q > / L `.`.Y.C.r `.`.`.`.`.'.`.q O.*.*.*.*.*.`   3 *.*.*.*.*.*.+.# f *.*.X n.`.R   ].].].",
"].].].].].].].].].  A O E P.`.`.`.`.U.Z.> c.s `.`.R.P.; `.`.`.`.`.`.`.p ..*.*.*.*.*.|   3 *.*.*.*.*.*.#.< l *.*.3 x.`.A   ].].].",
"].].].].].].].].].  . n.`.`.`.`.`.'.P.n.1 n.$ R.`.I.Z.2 `.`.`.`.`.`.`.S { *.*.*.*.*.O.  4 *.*.*.*.*.*.&.k { *.*.d E `.>   ].].].",
"].].].].].].].].].  K !.~.L.b.R A r > ; X 8.s c.!.P.x.c `.`.`.`.`.`.`.L _ *.*.*.*.*.$.  z *.*.*.*.*.*.*.%.*.*.*.5 / ).    ].].].",
"].].].].].].].].].O B.^ >   1 s R b.C.P.I.S n.O Z.P.p x.`.`.`.`.`.`.`.^ z *.*.*.*.*.*._ o.*.*.#.O. . .X.+.&.*.*.% b.V.  ].].].].",
"].].].].].].].].  > ; ; E C.P.I.!.).`.`.`.R n.A t c A ).`.`.`.`.`.`.`.c.5 *.*.*.*.*.*.%._ f < > q p p p u > : l   B.S   ].].].].",
"].].].].].].].].  @ > A P.P.!.'.`.`.`.`.`.L.A Z.E ^ !.`.`.`.`.`.`.`.`.B.$ ` o.&.*.*.$.j s , A x.b.n.n.n.b.c.s   r L.;   ].].].].",
"].].].].].].].O K C./ p I.'.`.`.`.`.`.`.`.`.L n.P.P.I.'.`.`.`.`.`.`.`.L..   . < k ' f K b.; c.n.n.n.n.n.n.n.L s ~.b.  ].].].].].",
"].].].].].  S Z.P.U.V., `.`.`.`.`.`.`.`.`.`.Y.q Z.P.P.I.'.`.`.`.`.`.`.`.).n.K r .     ^ s.% n.n.n.b.n.n.n.n.R A !.r   ].].].].].",
"].].].].].q P.P.~.`.I.  `.`.`.`.`.`.`.`.`.`.`.x.S P.P.P.I.).`.`.`.`.`.`.`.`.`.`.!.Z.> U ^ < b.n.n.n.n.n.n.b.A K E   ].].].].].].",
"].].].].].q P.!.`.`.L.  `.`.`.`.`.`.`.`.`.`.`.'.A R P.P.P.P.R.'.`.`.`.`.`.`.`.`.`.`.A K R O ^ n.n.b.n.n.b.^ q L O   ].].].].].].",
"].].].].].  Z.!.`.`.V.; n.x.^ K s r r h L B.`.`.!.r x.P.P.P.P.P.Y.~.`.`.`.`.`.`.`.`.8.p R > s E ^ ^ ^ E E L O >   ].].].].].].].",
"].].].].].  E I.!.n.> > q p c O O / B.L.!.`.`.`.`.I.; v.P.P.P.P.P.P.I.R.).'.`.`.`.`.h.- K S ; R R W R R K >     ].].].].].].].].",
"].].].].].].O q ; S C.).'.`.I.o R P.P.I.'.`.`.`.`.`.L.> [ P.P.P.P.P.P.P.P.I.I.!.~.^.y.2.= , . O > ; O O ;     ].].].].].].].].].",
"].].].].].].].].  n.!.`.`.'.I q C.P.P.!.`.`.`.`.`.`.`.L.; L D.P.P.P.P.P.P.P.P.P.P.N.;.:.-.B m n n n N N 9   ].].].].].].].].].].",
"].].].].].].].].  b.Y.`.`.C.o c.P.P.I.`.`.`.`.`.`.`.`.`.~.s ; b.P.P.P.P.P.P.P.P.P.0.;.;.;.;.;.;.;.;.N o   ].].].].].].].].].].].",
"].].].].].].].].  x.Y.`.'.c p P.P.P.~.`.`.`.`.`.`.`.`.`.`.~.n.> s / C.P.P.P.P.P.M.>.;.;.;.;.;.-.B 7     ].].].].].].].].].].].].",
"].].].].].].].].  x.I.`.V.O c.P.P.P.`.`.`.`.`.`.`.`.`.`.`.`.`.Y.^ 0 , L b.Z.P.P.1.;.;.;.;.C m 6     ].].].].].].].].].].].].].].",
"].].].].].].].].  E P.~.> S P.P.P.~.`.`.`.`.`.`.`.`.`.`.`.`.`.(.l.e.2.M 6 * > t 6 6 6 = o     ].].].].].].].].].].].].].].].].].",
"].].].].].].].].].K P.x.O B.P.P.Y.`.`.`.`.`.`.`.`.`.`.`.`._.S.t.q.q.q.q.q.5.2.-.7.v.O   ].].].].].].].].].].].].].].].].].].].].",
"].].].].].].].].].s L.r S P.P.P.U.Y.L.Z.L.U.`.`.`.`.`.`.`.z.q.q.e.u.e.q.q.q.q.q.T.V.  ].].].].].].].].].].].].].].].].].].].].].",
"].].].].].].].].].> ^ . Z.L./ ,     , c p X ^ '.`.`.`.`.S.q.w.F._.`.`.S.q.q.q.z.'.s   ].].].].].].].].].].].].].].].].].].].].].",
"].].].].].].].].].O ; W Z.L S x.V.I.~.`.`.Z.r / `.`.`./.t.e.H.`.`._.`._.u.q.u._.c.. ].].].].].].].].].].].].].].].].].].].].].].",
"].].].].].].].].].  > Z.P.P.P.I.!.'.`.`.`.`.!.> L.`.`.A.q.l.`.W.f.d./.`.j.q.j.).O   ].].].].].].].].].].].].].].].].].].].].].].",
"].].].].].].].].].  K P.P.P.L./ V.P.).`.`.`.`.x.s `.`.d.q.Q.`.d.q.q.^.`.f.q.l.R   ].].].].].].].].].].].].].].].].].].].].].].].",
"].].].].].].].].].  R P.P.B.h E P.P.'.`.`.`.`.L.O `._.w.t./.`.y.q.j.`.E.e.q.s..   ].].].].].].].].].].].].].].].].].].].].].].].",
"].].].].].].].].].].p P.Z.> c P.P.U.`.`.`.`.`.P > `.K.q.t./.`.K.S./.`.h.r.f.Z   ].].].].].].].].].].].].].].].].].].].].].].].].",
"].].].].].].].].].].  S A s Z.P.I.'.`.`.`.`.x.  K E.t.q.q.J.`.`.`.`.l.w.q.T . ].].].].].].].].].].].].].].].].].].].].].].].].].",
"].].].].].].].].].].].].O B.P.I.~.`.`.`.`.B.. X M.6.q.q.q.u.F.E.G.h.w.w.k.1   ].].].].].].].].].].].].].].].].].].].].].].].].].",
"].].].].].].].].].].].].S P.P.~.`.`.`.`.L.O . s.1.;.:.5.q.q.q.q.q.q.w.S.R   ].].].].].].].].].].].].].].].].].].].].].].].].].].",
"].].].].].].].].].].].  V.P.U.`.`.`.`.P., O ( 1.;.;.;.;.3.w.q.q.t.h.Q.V..   ].].].].].].].].].].].].].].].].].].].].].].].].].].",
"].].].].].].].].].].].q P.P.).`.`.`.C.; O 9.<.;.;.;.;.;.;.;.4.F._.`.~.r   ].].].].].].].].].].].].].].].].].].].].].].].].].].].",
"].].].].].].].].].].  p P.P.!.`.'./ . ; 7.,.;.;.;.;.;.;.;.,.M.U.`.`.R   ].].].].].].].].].].].].].].].].].].].].].].].].].].].].",
"].].].].].].].].].].].  r n.P.V.A     * 9 C ;.;.;.;.;.;.<.N.P.I.'.P.    ].].].].].].].].].].].].].].].].].].].].].].].].].].].].",
"].].].].].].].].].].].].  O S       O O .   7 M C ;.;.6.D.P.P.I.!.s   ].].].].].].].].].].].].].].].].].].].].].].].].].].].].].",
"].].].].].].].].].].].].].].    ].  ^ Z.V.V.c.^ W ( T n.L.P.P.P.p   ].].].].].].].].].].].].].].].].].].].].].].].].].].].].].].",
"].].].].].].].].].].].].].].].].].  B.P.P.P.P.P.P.P.P.P.V.^ A O   ].].].].].].].].].].].].].].].].].].].].].].].].].].].].].].].",
"].].].].].].].].].].].].].].].].].  r B.P.P.P.P.Z.b.S ;       ].].].].].].].].].].].].].].].].].].].].].].].].].].].].].].].].].",
"].].].].].].].].].].].].].].].].].].  O s K A q O       ].].].].].].].].].].].].].].].].].].].].].].].].].].].].].].].].].].].].",
"].].].].].].].].].].].].].].].].].].].].].].].].].].].].].].].].].].].].].].].].].].].].].].].].].].].].].].].].].].].].].].].].",
"].].].].].].].].].].].].].].].].].].].].].].].].].].].].].].].].].].].].].].].].].].].].].].].].].].].].].].].].].].].].].].].].",
"].].].].].].].].].].].].].].].].].].].].].].].].].].].].].].].].].].].].].].].].].].].].].].].].].].].].].].].].].].].].].].].]."
};
