/* XPM */
static char *result[] = {
/* columns rows colors chars-per-pixel */
"64 64 183 2 ",
"   c #010101",
".  c #0B0904",
"X  c #01060B",
"o  c #0B0B0B",
"O  c #05080A",
"+  c #110E0A",
"@  c #14110D",
"#  c #19140A",
"$  c #020E1B",
"%  c #131212",
"&  c #1C1917",
"*  c #1C1B1B",
"=  c #171819",
"-  c #0A131C",
";  c #211D1C",
":  c #231C0E",
">  c #26221F",
",  c #2B261C",
"<  c #282112",
"1  c #342B19",
"2  c #3D321D",
"3  c #001224",
"4  c #02162A",
"5  c #011932",
"6  c #001D3B",
"7  c #00203F",
"8  c #232323",
"9  c #2C2624",
"0  c #2F2B24",
"q  c #2B2B2B",
"w  c #25282C",
"e  c #322C29",
"r  c #302A27",
"t  c #38322F",
"y  c #333333",
"u  c #3C3531",
"i  c #3F3834",
"p  c #3C3C3C",
"a  c #242E38",
"s  c #44361B",
"d  c #423A36",
"f  c #453D39",
"g  c #534222",
"h  c #4A423D",
"j  c #614D27",
"k  c #6B562B",
"l  c #725B2D",
"z  c #7F6633",
"x  c #032548",
"c  c #002142",
"v  c #002B55",
"b  c #263340",
"n  c #003264",
"m  c #00366D",
"M  c #00386F",
"N  c #013B75",
"B  c #003E7C",
"V  c #3E4042",
"C  c #36485B",
"Z  c #24517F",
"A  c #434343",
"S  c #4E4541",
"D  c #4B4B4B",
"F  c #41454A",
"G  c #544C47",
"H  c #564D48",
"J  c #594F4A",
"K  c #504742",
"L  c #5C524C",
"P  c #545454",
"I  c #5C5C5C",
"U  c #615651",
"Y  c #655954",
"T  c #6B5F59",
"R  c #6E625C",
"E  c #72645E",
"W  c #5B666F",
"Q  c #646464",
"!  c #6C6C6C",
"~  c #63686D",
"^  c #7B6C65",
"/  c #786963",
"(  c #7F7069",
")  c #6F6F70",
"_  c #757575",
"`  c #7D7D7D",
"'  c #787777",
"]  c #806633",
"[  c #856A35",
"{  c #886D37",
"}  c #94763B",
"|  c #9A7C3E",
" . c #95783C",
".. c #84746D",
"X. c #A68543",
"o. c #AC8945",
"O. c #A88643",
"+. c #B38F47",
"@. c #B79349",
"#. c #C49D4E",
"$. c #D4AA55",
"%. c #D9AE57",
"&. c #DFB359",
"*. c #E1B45A",
"=. c #EABB5E",
"-. c #E6B85C",
";. c #F4C362",
":. c #FFCC66",
">. c #004182",
",. c #01478D",
"<. c #004A94",
"1. c #004E9B",
"2. c #125495",
"3. c #215D9A",
"4. c #30689F",
"5. c #0056AC",
"6. c #0050A0",
"7. c #0059B2",
"8. c #005DB9",
"9. c #3169A2",
"0. c #557494",
"q. c #4C7BA9",
"w. c #0061C3",
"e. c #0066CC",
"r. c #0569CD",
"t. c #0C6CCD",
"y. c #1070CF",
"u. c #1B76D1",
"i. c #1573D1",
"p. c #227AD3",
"a. c #287ED4",
"s. c #367DC5",
"d. c #7B8590",
"f. c #5580AB",
"g. c #7897B7",
"h. c #708FAE",
"j. c #3385D6",
"k. c #3887D6",
"l. c #3B89D7",
"z. c #3C8AD8",
"x. c #4E95DC",
"c. c #599BDE",
"v. c #5C95CE",
"b. c #61A0DF",
"n. c #75ACE3",
"m. c #78AEE4",
"M. c #65A3E0",
"N. c #848484",
"B. c #8C8C8C",
"V. c #939393",
"C. c #9A9A9A",
"Z. c #859FB8",
"A. c #9CADBF",
"S. c #99A3AE",
"D. c #A3A3A3",
"F. c #ABABAB",
"G. c #B0B0AF",
"H. c #B4B4B4",
"J. c #BDBDBD",
"K. c #87A5C3",
"L. c #94BEEA",
"P. c #87B7E7",
"I. c #9CC3EB",
"U. c #A6C9ED",
"Y. c #ACCDEE",
"T. c #BAD5F1",
"R. c #C4C4C4",
"E. c #CCCCCC",
"W. c #C4C7CA",
"Q. c #CFD7DF",
"!. c #D3D3D3",
"~. c #DBDBDB",
"^. c #C7DDF4",
"/. c #CDE2F5",
"(. c #DAE8F5",
"). c #E4E4E4",
"_. c #ECECEC",
"`. c #E6F0FA",
"'. c #EEF5FC",
"]. c #F4F4F4",
"[. c #FFFFFF",
"{. c #F3F8FC",
"}. c None",
/* pixels */
"}.}.}.}.}.}.}.}.}.}.}.}.}.}.}.}.}.}.}.}.}.}.}.}.}.}.}.}.}.}.}.}.}.}.}.}.}.}.}.}.}.}.}.}.}.}.}.}.}.}.}.}.}.}.}.}.}.}.}.}.}.}.}.}.",
"}.}.}.}.}.}.}.}.}.}.}.}.}.}.}.}.}.}.}.}.}.}.}.}.}.}.}.}.}.}.}.}.}.}.}.}.}.}.}.}.}.}.}.}.}.}.}.}.}.}.}.}.}.}.}.}.}.}.}.}.}.}.}.}.",
"}.}.}.}.}.}.}.}.}.}.}.}.}.}.}.}.}.}.}.}.}.}.}.}.}.}.}.}.}.}.}.}.}.}.}.}.}.}.}.}.}.}.}.}.}.}.}.}.}.}.}.}.}.}.}.}.}.}.}.}.}.}.}.}.",
"}.}.}.}.}.}.}.}.}.}.}.}.}.}.}.}.}.}.}.}.}.}.}.}.}.}.}.}.}.}.}.}.}.}.}.}.}.}.}.              }.}.}.}.}.}.}.}.}.}.}.}.}.}.}.}.}.}.",
"}.}.}.}.}.}.}.}.}.}.}.}.}.}.}.}.}.}.}.}.}.}.}.}.}.}.}.}.}.}.}.}.}.              3 5 5 5 5 5 4 X     }.}.}.}.}.}.}.}.}.}.}.}.}.}.",
"}.}.}.}.}.}.}.}.}.}.}.}.}.}.}.}.}.}.}.}.}.}.}.}.}.}.}.}.}.}.      8 P ' 0.1.7.e.e.e.e.e.e.e.e.e.5.Z D .   }.}.}.}.}.}.}.}.}.}.}.",
"}.}.}.}.}.}.}.}.}.}.}.}.}.}.}.}.}.}.}.}.}.}.}.}.}.}.}.    = A N.R.).[.[.`.t.e.e.e.e.e.e.e.e.e.e.e.a.].H.P O }.}.}.}.}.}.}.}.}.}.",
"}.}.}.}.}.}.}.}.}.}.}.}.}.}.}.}.}.}.}.}.}.}.}.}.}.}.  % N.).[.[.[.[.[.[.[.n.e.e.7.<.B n v v v M m ,.R.].[.J.q }.}.}.}.}.}.}.}.}.",
"}.}.}.}.}.}.}.}.}.}.}.}.}.    }.}.}.}.}.}.}.}.}.  o N._.[.[.[.[.[.[.[.[._.d.5 X + & 8 r e e e e 8 * & % y V.R.q }.}.}.}.}.}.}.}.",
"}.}.}.}.}.}.}.}.}.}.}.}.}.q A }.}.}.}.}.}.}.}.  * G.{.[.[.[.[.[.[.[._.B.9 % 0 d S G H H H H H H H H G S u ; q q   }.}.}.}.}.}.}.",
"}.}.}.}.}.}.}.}.}.}.}.}.}.Q H.  }.}.}.}.}.}.  o ~.[.[.[.[.[.[.[.[.H.8 o e H H H H H H H H H H H H H H H H H f &     }.}.}.}.}.}.",
"}.}.}.}.}.}.}.}.}.}.}.}.}.P ~.  }.}.}.}.}.  % E.[.[.[.[.[.[.[.[.C.O ; i G H H H H H L Y Y E / / E T U H H H G f @   }.}.}.}.}.}.",
"}.}.}.}.}.}.}.}.}.}.}.}.}.P {.. }.}.}.}.}.O C.[.[.[.[.[.[.[.[.E.o 9 d h H H H L E ....................E H H H S e . }.}.}.}.}.}.",
"}.}.}.}.}.}.}.}.}.}.}.}.}.A [.9 }.}.}.}.  P ~.[.[.[.[.[.[.[.[.y @ u d K H H L ............................L H H d &   }.}.}.}.}.",
"}.}.}.}.}.}.}.}.}.}.}.}.}.V [.D }.}.}.}.  G.~.[.[.[.[.[.[.[.~.  ; d d h H L ^ ............................^ H H f 9 O }.}.}.}.}.",
"}.}.}.}.}.}.}.}.}.}.}.}.}.V [.I   }.}.}.y E.~.[.[.[.[.[.[.[.F.  8 d d h H Y ^ E Y H K f f e e r ; ; ; > e d u K f e o }.}.}.}.}.",
"}.}.}.}.}.}.}.}.}.}.}.}.}.p [._   }.}.  B.J.Q ` ).[.[.[.[.[.F.. > u d f 0 & 1 g g l ] ] {  . .X.o.O.O. .} l   % d 9 o   }.}.}.}.",
"}.}.}.}.}.}.}.}.}.}.}.}.}.q [.B.  }.}.o H.I q q D [.[.[.[.[.H.. > u d * < O.=.:.:.:.:.:.:.:.:.:.:.:.:.:.:.=.# o t >     }.}.}.}.",
"}.}.}.}.}.}.}.}.}.}.}.}.}.q [.C.  }.}.8 W.8 R.E.A N.[.[.[.[.!.  ; 0 @ g ;.:.:.:.:.:.:.:.:.:.:.:.:.:.:.:.:.:.1 o > @     }.}.}.}.",
"}.}.}.}.}.}.}.}.}.}.}.}.}.& V.P       y F.D !.E.F.8 ].[.[.[.].O & + O &.:.:.:.:.:.=.| :.:.:.:.:.:.:.:.=.:.:.g . % P f   }.}.}.}.",
"}.}.}.}.}.}.}.}.}.}.      o q P I Q p A B.' {.~.E.A R.[.[.[.[.& + q . *.:.:.:.:.:.O.O =.:.:.:.:.:.:.=.s ;.:.k   I _.Q   }.}.}.}.",
"}.}.}.}.}.}.}.}.}.  p C.~.[.[.[.[.[.V.P ) V.[.[.E.' N.[.[.[.[.I p !.. &.:.:.:.:.:.{   o.:.:.:.:.:.:.$.  o.:.[ % [.[.!   }.}.}.}.",
"}.}.}.}.}.}.}.}.o C.].[.[._.~.!.!.!.B.D _ B.[.[.!.B.I [.[.[.[.~.)._.. *.:.:.:.:.:.z   [ :.:.:.:.:.:.$.  { :.X.  ].[.P   }.}.}.}.",
"}.}.}.}.}.}.}.}.A E.E.D.Q q @       o p B._ [.[.!.C.p [.[.[.[.[.[._.. &.:.:.:.:.:.z   k :.:.:.:.:.:.$.  l :.#.  ).[.p   }.}.}.}.",
"}.}.}.}.}.}.}.}.I ` o y C.E.).{._.E.R.A G.p [.{.E.N.Q [.[.[.[.[.[.{.  $.:.:.:.:.:.z   k :.:.:.:.:.:.$.  z :.&.+ R.].8   }.}.}.}.",
"}.}.}.}.}.}.}.}.8 o ` _.[.[._.!.F.` ' y H.> J.!.E.I B.[.[.[.[.[.[.[.  $.:.:.:.:.:.}   [ :.:.:.:.:.:.*.# +.:.-.: J.).o }.}.}.}.}.",
"}.}.}.}.}.}.}.}.  I {.).V.A = .   O 8 & d.Y p E.H.o !.[.[.[.[.[.[.[.% #.:.:.:.:.:.X.  +.:.:.:.:.:.:.:.*.:.:.*.# E.H.  }.}.}.}.}.",
"}.}.}.}.}.}.}.}.@ C.P o & Q B.D.J.!.).~.y H.& A w N.[.[.[.[.[.[.[.[.; +.:.:.:.:.:.;.@.:.:.=.$.$.$.$.$.=.:.:.$.  )._   }.}.}.}.}.",
"}.}.}.}.}.}.}.  = o . p H.E.!.~._.{.[.[.Q V.F.Q V.[.[.[.[.[.[.[.[.[.q | :.:.:.:.:.:.o.j 1 < , 9 0 , 0 1 e { l O ].y   }.}.}.}.}.",
"}.}.}.}.}.}.}.  q V.I A E.).{.[.[.[.[.[.).y E.E.E.).[.[.[.[.[.[.[.[.y + s | &.:.:.[ q D % ` V.V.C.C.C.V.N.    u D.O }.}.}.}.}.}.",
"}.}.}.}.}.  y F.E.E.B.q ].[.[.[.[.[.[.[.[.! ! E.E.E.).[.[.[.[.[.[.[.J.P o     # 2 > C.I p C.C.C.C.C.C.C.C.& ! ~.p   }.}.}.}.}.}.",
"}.}.}.}.}.y E.E.).[.F.w [.[.[.[.[.[.[.[.[.).* F.E.E.E.).[.[.[.[.[.[.[.[._.V.D q @ q C.V P C.V.C.C.C.C.C.C.> R.J.    }.}.}.}.}.}.",
"}.}.}.}.}.P E.).[.[.D.q [.[.[.[.[.[.[.[.[.[.H.q J.E.E.E.~.].[.[.[.[.[.[.[.[.[.{.B.q ..y ! C.C.C.C.C.C.C.V.O F.p   }.}.}.}.}.}.}.",
"}.}.}.}.}.q E.].[.[.N.P [._.).!.R.J.R.!.].[.[.! D E.E.E.E.!.).{.[.[.[.[.[.[.[.[.R.y ~ y p B.C.C.C.V.C.B.Q % I   }.}.}.}.}.}.}.}.",
"}.}.}.}.}.o R.).].H.8         o O   * 8 y D.[.[.V P W.E.E.E.E.E.~.].[.[.[.[.[.[.(.a I D % Q ! _ ' ' ! Q y 9 o   }.}.}.}.}.}.}.}.",
"}.}.}.}.}.}.q D 8 y C.J.J.E.!.E.* f E.E.E.[.[.[.).q T E.E.E.E.E.E.E.!.~.].[.[.[.L.N w Q % D Q Q Q Q Q D O     }.}.}.}.}.}.}.}.}.",
"}.}.}.}.}.}.}.  I !.[.[.[.[.[.V.  C.E.E.).[.[.[.[.!.8 P E.E.E.E.E.E.E.E.E.!.~.).s.8.x = o o 8 8 * & @ O     }.}.}.}.}.}.}.}.}.}.",
"}.}.}.}.}.}.}.  P !.{.[.[.[.[.A 8 W.E.!.].[.[.[.[.[.).y 8 F.E.E.E.E.E.E.E.E.E.A.<.<.<.<.>.n n n m N x O   }.}.}.}.}.}.}.}.}.}.}.",
"}.}.}.}.}.}.}.}.A !.[.[.[.[.).  Q E.E.!.[.[.[.[.[.[.[._.Q * P F.E.E.E.E.E.E.W.9.<.<.<.<.<.<.<.<.N 4     }.}.}.}.}.}.}.}.}.}.}.}.",
"}.}.}.}.}.}.}.}.e E.].[.[.[.C.O D.E.E._.[.[.[.[.[.[.[.[.[.H.A % I D.E.E.E.E.Z.<.<.<.<.<.<.<.N 6     }.}.}.}.}.}.}.}.}.}.}.}.}.}.",
"}.}.}.}.}.}.}.}.& E._.[.[.].A P W.E.!.].[.[.[.[.[.[.[.[.[.[.[.!.~ $ * I C.S.2.,.,.,.>.M 6 X     }.}.}.}.}.}.}.}.}.}.}.}.}.}.}.}.",
"}.}.}.}.}.}.}.}.  E.).[.[.R.  D.E.E.~.[.[.[.[.[.[.[.[.[.[.[.[./.k.8.<.n c 4 3 $ $ - O     }.}.}.}.}.}.}.}.}.}.}.}.}.}.}.}.}.}.}.",
"}.}.}.}.}.}.}.}.  J.!.[.[.' & E.E.E._.[.[.[.[.[.[.[.[.[.[.[.(.u.e.r.a.u.e.w.5.1.q.J.;   }.}.}.}.}.}.}.}.}.}.}.}.}.}.}.}.}.}.}.}.",
"}.}.}.}.}.}.}.}.  D.E.].].8 Q E.E.E.[.[.[.[.[.[.[.[.[.[.[.'.z.r.j./.[.[./.t.e.e.^.E.  }.}.}.}.}.}.}.}.}.}.}.}.}.}.}.}.}.}.}.}.}.",
"}.}.}.}.}.}.}.}.  ' E.).J.o C.E.E.~.[.).E.D.C.~.[.[.[.[.[.L.e.j.`.[.[.[.[.m.e.e.'.)   }.}.}.}.}.}.}.}.}.}.}.}.}.}.}.}.}.}.}.}.}.",
"}.}.}.}.}.}.}.}.  p E.!.D y E.E.F._ q @ & P q % D.[.[.[.[.l.e./.[.U.k.Y.[.U.e.e.Q.*   }.}.}.}.}.}.}.}.}.}.}.}.}.}.}.}.}.}.}.}.}.",
"}.}.}.}.}.}.}.}.}.& R.R.= 0.E.R o 8 _ E.[.[.[.J.q C.[.[.(.r.p.[.^.r.e.b.[.I.e.t.0.  }.}.}.}.}.}.}.}.}.}.}.}.}.}.}.}.}.}.}.}.}.}.",
"}.}.}.}.}.}.}.}.}.. D.V.# J.B.! C.~.{.[.[.[.[.[.J.& R.[.I.e.x.[.U.e.e.I.[.c.e.l.2 . }.}.}.}.}.}.}.}.}.}.}.}.}.}.}.}.}.}.}.}.}.}.",
"}.}.}.}.}.}.}.}.}.  ) Q D E.E.E.E.E.E.~.[.[.[.[.[.Q y [.n.e.x.[.`.M.P.{.{.t.r.h.  }.}.}.}.}.}.}.}.}.}.}.}.}.}.}.}.}.}.}.}.}.}.}.",
"}.}.}.}.}.}.}.}.}.}.* p ..!.E.E.V.P E.E.{.[.[.[.[.N.% [.n.e.u.[.[.[.[.{.x.e.k.V   }.}.}.}.}.}.}.}.}.}.}.}.}.}.}.}.}.}.}.}.}.}.}.",
"}.}.}.}.}.}.}.}.}.}.  O B.E.E.B.9 F.E.~.[.[.[.[.~.% y `.u.e.e.m.`.{./.c.e.y.K.o   }.}.}.}.}.}.}.}.}.}.}.}.}.}.}.}.}.}.}.}.}.}.}.",
"}.}.}.}.}.}.}.}.}.}.}.}.V E.J.o ' E.E.).[.[.[.[.Q   ` v.e.e.e.e.i.p.r.e.e.T.!   }.}.}.}.}.}.}.}.}.}.}.}.}.}.}.}.}.}.}.}.}.}.}.}.",
"}.}.}.}.}.}.}.}.}.}.}.}.  I Q y R.E.~.[.[.[.[.D.  8 h.<.1.5.w.e.e.e.e.k.T.~.&   }.}.}.}.}.}.}.}.}.}.}.}.}.}.}.}.}.}.}.}.}.}.}.}.",
"}.}.}.}.}.}.}.}.}.}.}.}.}.}.  V.E.E.].[.[.[.).= o d.2.<.<.<.<.7.8.t.Y.[.[.!   }.}.}.}.}.}.}.}.}.}.}.}.}.}.}.}.}.}.}.}.}.}.}.}.}.",
"}.}.}.}.}.}.}.}.}.}.}.}.}.}.O R.E.~.[.[.[.[.P   W 3.<.<.<.<.<.<.1.g.].[.].%   }.}.}.}.}.}.}.}.}.}.}.}.}.}.}.}.}.}.}.}.}.}.}.}.}.",
"}.}.}.}.}.}.}.}.}.}.}.}.}.}.0 E.!.{.[.[.[.'   F 4.<.<.<.<.<.<.<.h.E.~.[.N.  }.}.}.}.}.}.}.}.}.}.}.}.}.}.}.}.}.}.}.}.}.}.}.}.}.}.",
"}.}.}.}.}.}.}.}.}.}.}.}.}.  P E.!.[.[.[.C.  = 3.<.<.<.<.<.<.<.q.E.E.!.).%   }.}.}.}.}.}.}.}.}.}.}.}.}.}.}.}.}.}.}.}.}.}.}.}.}.}.",
"}.}.}.}.}.}.}.}.}.}.}.}.}.  I E.E.~.{.N.    X 4 v >.<.1.<.<.f.E.E.E.~.P   }.}.}.}.}.}.}.}.}.}.}.}.}.}.}.}.}.}.}.}.}.}.}.}.}.}.}.",
"}.}.}.}.}.}.}.}.}.}.}.}.}.}.  q ` J.D O     ; 8 8 y w b C W V.F.R.C.A   }.}.}.}.}.}.}.}.}.}.}.}.}.}.}.}.}.}.}.}.}.}.}.}.}.}.}.}.",
"}.}.}.}.}.}.}.}.}.}.}.}.}.}.}.}.      }.  I E.E.E.E.E.E.E.E.R.N.8     }.}.}.}.}.}.}.}.}.}.}.}.}.}.}.}.}.}.}.}.}.}.}.}.}.}.}.}.}.",
"}.}.}.}.}.}.}.}.}.}.}.}.}.}.}.}.}.}.}.}.  Q E.E.E.E.E.W.F.Q 8     }.}.}.}.}.}.}.}.}.}.}.}.}.}.}.}.}.}.}.}.}.}.}.}.}.}.}.}.}.}.}.",
"}.}.}.}.}.}.}.}.}.}.}.}.}.}.}.}.}.}.}.}.}.o ! F.E.R.V.A o     }.}.}.}.}.}.}.}.}.}.}.}.}.}.}.}.}.}.}.}.}.}.}.}.}.}.}.}.}.}.}.}.}.",
"}.}.}.}.}.}.}.}.}.}.}.}.}.}.}.}.}.}.}.}.}.}.          }.}.}.}.}.}.}.}.}.}.}.}.}.}.}.}.}.}.}.}.}.}.}.}.}.}.}.}.}.}.}.}.}.}.}.}.}.",
"}.}.}.}.}.}.}.}.}.}.}.}.}.}.}.}.}.}.}.}.}.}.}.}.}.}.}.}.}.}.}.}.}.}.}.}.}.}.}.}.}.}.}.}.}.}.}.}.}.}.}.}.}.}.}.}.}.}.}.}.}.}.}.}."
};
