/* XPM */
static char *result[] = {
/* columns rows colors chars-per-pixel */
"64 64 181 2 ",
"   c #010101",
".  c #080707",
"X  c #00050A",
"o  c #0C0C0C",
"O  c #0B0905",
"+  c #120F0D",
"@  c #14110C",
"#  c #19140A",
"$  c #040C13",
"%  c #000C18",
"&  c #0E1217",
"*  c #141413",
"=  c #1C1917",
"-  c #1B1B1A",
";  c #191716",
":  c #241D0F",
">  c #231F1D",
",  c #231D10",
"<  c #2C2412",
"1  c #25211F",
"2  c #2A251C",
"3  c #392E17",
"4  c #372D19",
"5  c #3D321B",
"6  c #001225",
"7  c #00152B",
"8  c #001D3A",
"9  c #001831",
"0  c #101B26",
"q  c #1A2026",
"w  c #242323",
"e  c #2A2522",
"r  c #2B2B2B",
"t  c #2D2825",
"y  c #322D2A",
"u  c #38322E",
"i  c #343434",
"p  c #3F3834",
"a  c #3C3C3C",
"s  c #3B3430",
"d  c #4B3C1E",
"f  c #43361B",
"g  c #423A36",
"h  c #453D39",
"j  c #483F3C",
"k  c #4F4020",
"l  c #594724",
"z  c #5A4824",
"x  c #4B423E",
"c  c #614D27",
"v  c #665129",
"b  c #755D2F",
"n  c #7E6532",
"m  c #002244",
"M  c #00264A",
"N  c #002A54",
"B  c #002E5D",
"V  c #152C44",
"C  c #003163",
"Z  c #003A74",
"A  c #334558",
"S  c #434343",
"D  c #4B4B4B",
"F  c #4F4642",
"G  c #544B46",
"H  c #564D48",
"J  c #584E49",
"K  c #514743",
"L  c #5D524D",
"P  c #545454",
"I  c #5B5B5B",
"U  c #655954",
"Y  c #6B5F59",
"T  c #695D57",
"R  c #6D605A",
"E  c #72655E",
"W  c #535A61",
"Q  c #646464",
"!  c #6C6C6C",
"~  c #756761",
"^  c #796B64",
"/  c #7E6E68",
"(  c #747474",
")  c #7C7C7C",
"_  c #6D7176",
"`  c #806633",
"'  c #8A6F37",
"]  c #866B36",
"[  c #8E7139",
"{  c #94763B",
"}  c #96783C",
"|  c #84746D",
" . c #AC8A45",
".. c #A78643",
"X. c #B08D46",
"o. c #B69149",
"O. c #C29C4E",
"+. c #CCA352",
"@. c #D5AB55",
"#. c #DAAE57",
"$. c #DDB159",
"%. c #E2B55A",
"&. c #ECBD5E",
"*. c #E7B95C",
"=. c #F3C261",
"-. c #FFCC66",
";. c #F8C663",
":. c #004284",
">. c #00458B",
",. c #004A94",
"<. c #004D9B",
"1. c #0E4F90",
"2. c #04519F",
"3. c #135699",
"4. c #0052A4",
"5. c #0055AA",
"6. c #005DBB",
"7. c #065CB3",
"8. c #1467BA",
"9. c #2163A4",
"0. c #376DA3",
"q. c #0063C5",
"w. c #0066CC",
"e. c #0569CD",
"r. c #0B6CCE",
"t. c #1271CF",
"y. c #2070C0",
"u. c #237BD3",
"i. c #287ED4",
"p. c #5B84AD",
"a. c #6389AF",
"s. c #2D81D5",
"d. c #3686D7",
"f. c #4686C7",
"g. c #418CD8",
"h. c #4B93DB",
"j. c #5F9FDE",
"k. c #5796D6",
"l. c #609FDF",
"z. c #60A0DF",
"x. c #65A2E0",
"c. c #69A5E1",
"v. c #6EA8E2",
"b. c #75ACE3",
"n. c #7FB2E5",
"m. c #838383",
"M. c #8B8B8B",
"N. c #878788",
"B. c #949494",
"V. c #9A9A9A",
"C. c #9FAFBF",
"Z. c #8AA2BA",
"A. c #A3A3A3",
"S. c #ACACAC",
"D. c #A8A7A7",
"F. c #B4B4B4",
"G. c #BCBCBC",
"H. c #B4B8BC",
"J. c #A4B3C2",
"K. c #87B7E7",
"L. c #8CBAE8",
"P. c #93BEE9",
"I. c #9BC3EB",
"U. c #ABCDEE",
"Y. c #A5C9ED",
"T. c #BED5ED",
"R. c #BCD6F1",
"E. c #C4C4C4",
"W. c #CCCCCC",
"Q. c #D3D3D3",
"!. c #DCDCDC",
"~. c #DFECF8",
"^. c #D5E6F7",
"/. c #E3E3E3",
"(. c #ECECEC",
"). c #E3EEF9",
"_. c #ECF3FB",
"`. c #F4F4F4",
"'. c #FFFFFF",
"]. c #F3F8FC",
"[. c None",
/* pixels */
"[.[.[.[.[.[.[.[.[.[.[.[.[.[.[.[.[.[.[.[.[.[.[.[.[.[.[.[.[.[.[.[.[.[.[.[.[.[.[.[.[.[.[.[.[.[.[.[.[.[.[.[.[.[.[.[.[.[.[.[.[.[.[.[.",
"[.[.[.[.[.[.[.[.[.[.[.[.[.[.[.[.[.[.[.[.[.[.[.[.[.[.[.[.[.[.[.[.[.[.[.[.[.                          [.[.[.[.[.[.[.[.[.[.[.[.[.[.",
"[.[.[.[.[.[.[.[.[.[.[.[.[.[.[.[.[.[.[.[.[.[.[.[.[.[.[.[.[.[.[.[.[.        % 8 B :.<.7.6.q.w.w.q.2.Z D + % [.[.[.[.[.[.[.[.[.[.[.",
"[.[.[.[.[.[.[.[.[.[.[.[.[.[.[.[.[.[.[.[.[.[.[.[.[.[.[.[.[.[.X % $ r I M.H.8.q.w.w.w.w.w.w.w.w.w.w.w.R.W...-   [.[.[.[.[.[.[.[.[.",
"[.[.[.[.[.[.[.[.[.[.[.[.[.[.[.[.[.[.[.[.[.[.[.[.[.[.[.[.    > ..!.].'.'.'.L.e.w.w.w.w.6.5.4.,.,.>.,.a.(.'.(.) * [.[.[.[.[.[.[.[.",
"[.[.[.[.[.[.[.[.[.[.[.[.[.[.[.[.    [.[.[.[.[.[.[.[.    D H.].'.'.'.'.'.'.].f.>.N 9 X o * - > 1 > ; * * w Q S.D.X [.[.[.[.[.[.[.",
"[.[.[.[.[.[.[.[.[.[.[.[.[.[.[.[.P i [.[.[.[.[.[.[.  - B.`.'.'.'.'.'.'.'.Q.! q * 1 y h K G H H H H G K K x u > i $ X [.[.[.[.[.[.",
"[.[.[.[.[.[.[.[.[.[.[.[.[.[.[.  V.I [.[.[.[.[.[.  w !.'.'.'.'.'.'.'.].( . - h H H H H H H H H H H H H H H H H p o   [.[.[.[.[.[.",
"[.[.[.[.[.[.[.[.[.[.[.[.[.[.[.  S.m.  [.[.[.[.  i (.'.'.'.'.'.'.'.!.i o y G G G J H H H J U Y R R T U J H H H K u o   [.[.[.[.[.",
"[.[.[.[.[.[.[.[.[.[.[.[.[.[.[.  S.V.  [.[.[.  + W.'.'.'.'.'.'.'./.S @ u x H J H J L Y ~ / | | | | | | ^ Y J H H h e   [.[.[.[.[.",
"[.[.[.[.[.[.[.[.[.[.[.[.[.[.[.  E.F.  [.[.[.. S.'.'.'.'.'.'.'.'.Q . g g G H H J ~ | | | | | | | | | | | | ^ J H F s *   [.[.[.[.",
"[.[.[.[.[.[.[.[.[.[.[.[.[.[.[.  E.G.  [.[.  D (.'.'.'.'.'.'.'.!.o > g g G H J ^ | | | | | | | | | | | | | | E H H g e   [.[.[.[.",
"[.[.[.[.[.[.[.[.[.[.[.[.[.[.[.  Q.E.  [.[.o G.(.'.'.'.'.'.'.'.M.o e g g K H U | | | / ~ E U J K x g y y e > y y x g e . [.[.[.[.",
"[.[.[.[.[.[.[.[.[.[.[.[.[.[.[.  Q.Q.  [.[.D W./.'.'.'.'.'.'.'.( o e g g x G G j t ; o O , 3 d v n ` [ { { { l   1 g > .   [.[.[.",
"[.[.[.[.[.[.[.[.[.[.[.[.[.[.[.* !.Q.  [.  M.W.S.Q.'.'.'.'.'.'.) + e g g g * < b  .+.=.-.-.-.-.-.-.-.-.-.-.-.#.O - y -     [.[.[.",
"[.[.[.[.[.[.[.[.[.[.[.[.[.[.[.- /.Q.  [.  F.m.* * ) '.'.'.'.'.V.. > g u @ { ;.-.-.-.-.-.-.-.-.-.-.-.-.-.-.-.=.3 @ > . *   [.[.[.",
"[.[.[.[.[.[.[.[.[.[.[.[.[.[.[.* ( !     o W.w V.S.y S.'.'.'.'.Q.. > e #  .-.-.-.-.-.-.*.-.-.-.-.-.-.-.-.&.-.-.v o ; B.Q   [.[.[.",
"[.[.[.[.[.[.[.[.[.[.[.    o r D P ! ! S w S.w W.W.A.r `.'.'.'./.& ; . # &.-.-.-.-.-.+.3 -.-.-.-.-.-.-.%.f ;.-.[ . N.'.(   [.[.[.",
"[.[.[.[.[.[.[.[.[.[.. D E.'.'.'.'.'.'.G.r M.P `.!.W.a D.'.'.'.].r . ( = $.-.-.-.-.-.`   ..-.-.-.-.-.-.+.   .-.o.; /.'.)   [.[.[.",
"[.[.[.[.[.[.[.[.[.X P W.`.`.!.E.G.G.Q.D.r ) ! '.].W.( I '.'.'.'.( S (.w $.-.-.-.-.-.`   c -.-.-.-.-.-.@.  z -.#.  E.'.)   [.[.[.",
"[.[.[.[.[.[.[.[.[.  V.F.Q S ; * * & X 6 > ( Q '.'.!.A.i '.'.'.'.`./.`.t @.-.-.-.-.-.{   3 -.-.-.-.-.-.#.O d -.-.O A.'.!   [.[.[.",
"[.[.[.[.[.[.[.[.[.  P * i F.`.'.'.'.!.J.- M.A '.'.!.W.* '.'.'.'.'.'.'.i O.-.-.-.-.-...  < -.-.-.-.-.-.$.# d -.-.< m.'.D   [.[.[.",
"[.[.[.[.[.[.[.[.[.  O Q ].'.'.'.(.!.F...* V.# (.'.Q.E.- '.'.'.'.'.'.'.S ..-.-.-.-.-.+.  < -.-.-.-.-.-.=.5 ] -.-.3 ! '.w   [.[.[.",
"[.[.[.[.[.[.[.[.[.  i !.].E.M.P r +   @ o M.1 S.`.W.V.i '.'.'.'.'.'.'.P ' -.-.-.-.-.%.  f -.-.;.-.-.-.-.O.&.-.-.f ( ]..   [.[.[.",
"[.[.[.[.[.[.[.[.[.. V.) * + S ! M.D.Q./.!.P M.1 E.W.a ( '.'.'.'.'.'.'.( c -.-.-.-.-.-.v o.-.;.;.*.@.@.$.=.-.-.-.: M.G.  [.[.[.[.",
"[.[.[.[.[.[.[.[.  > r   D A.W.W.!.`.'.'.'.P S.r P ! w !.'.'.'.'.'.'.'.N.f -.-.-.-.-.-.;.O.' v < 2 1 1 2 4 5 z {   A.Q   [.[.[.[.",
"[.[.[.[.[.[.[.[.  X a > V.W.!.].'.'.'.'.'.S.P F.a D !.'.'.'.'.'.'.'.'.V.: $.-.-.-.-.-.z * + r a.M.B.B.B.B.N.i   @ E.-   [.[.[.[.",
"[.[.[.[.[.[.[.o P S.W.P ( (.'.'.'.'.'.'.'.].D D.W.W.Q.'.'.'.'.'.'.'.'.G.    # l ] X.v D B.* N.V.V.V.V.B.V.V.P r W.D.  [.[.[.[.[.",
"[.[.[.[.[.[.- V.W.Q.(.) Q '.'.'.'.'.'.'.'.'.G.a E.W.W.!.'.'.'.'.'.'.'.`.F.I w o       ( m.* V.V.V.V.V.B.V.V.Q D (.S   [.[.[.[.[.",
"[.[.[.[.[.[.Q W.Q.'.'.B.D '.'.'.'.'.'.'.'.'.'.P _ W.W.W.!.].'.'.'.'.'.'.'.'.`.!.A.( @ ! a.> B.V.V.V.V.V.V.B.P D M.. [.[.[.[.[.[.",
"[.[.[.[.[.[.D W.`.'.'.) P '.'.'.`.!.Q.!.(.`.'.(.r N.W.W.W.Q./.'.'.'.'.'.'.'.'.'.'.'.i P T # m.V.B.V.V.V.V.) r P -   [.[.[.[.[.[.",
"[.[.[.[.[.[.w E.(.'.`.P a I S *       * r S D.'.W.* A.W.W.W.W.Q./.`.'.'.'.'.'.'.'.'._ S R # S ( ) m.m.( ! Q - r   [.[.[.[.[.[.[.",
"[.[.[.[.[.[.  A.W.M.r w Q ! M.V.F.S i G.W.W.].'.'.F.- A.W.W.W.W.W.Q.Q.(.].'.'.'.'.'.k.& I S ; Q Q Q Q Q Q r     [.[.[.[.[.[.[.[.",
"[.[.[.[.[.[.[.    h S.].'.'.'.'.].e P W.W.Q.'.'.'.'.B.* A.W.W.W.W.W.W.W.W.!./.(.].].i.Z & i . w i i w > *       [.[.[.[.[.[.[.[.",
"[.[.[.[.[.[.[.[.  V./.'.'.'.'.'.!.o ) W.W.!.'.'.'.'.'.V.. N.W.W.W.W.W.W.W.W.W.W.W.J.2.4.:.M 7 6 6 7 m N V     [.[.[.[.[.[.[.[.[.",
"[.[.[.[.[.[.[.[.  V.!.'.'.'.'.'.S.  S.W.W.(.'.'.'.'.'.'.1.% a E.W.W.W.W.W.W.W.W.W.p.,.,.,.,.,.,.,.,.:.6     [.[.[.[.[.[.[.[.[.[.",
"[.[.[.[.[.[.[.[.  N.Q.'.'.'.'.'.Q - W.W.W.`.'.'.'.'.'.).w.5.m + Q S.W.W.W.W.W.W.J.3.,.,.,.,.,.,.>.M X   [.[.[.[.[.[.[.[.[.[.[.[.",
"[.[.[.[.[.[.[.[.  N.Q.'.'.'.'.`.r I W.W.Q.'.'.'.'.'.'.U.w.w.w.<.8 X t m.F.W.W.W.0.,.,.,.,.>.Z 9     [.[.[.[.[.[.[.[.[.[.[.[.[.[.",
"[.[.[.[.[.[.[.[.  ( Q.`.'.'.'.G.o A.W.W.!.'.'.'.'.'._.s.w.r.h.c.g.7.Z 8 0 i D W M M m m 7 $     [.[.[.[.[.[.[.[.[.[.[.[.[.[.[.[.",
"[.[.[.[.[.[.[.[.  I W.(.'.'.'.) - E.W.W.(.'.'.'.'.'.c.w.e.I.'.'.'.U.e.e.8.G.B.( Q P P r   [.[.[.[.[.[.[.[.[.[.[.[.[.[.[.[.[.[.[.",
"[.[.[.[.[.[.[.[.[.a W.!.'.'.'.i D W.W.Q.].'.'.'.'.).r.w.U.'.'.'.'.'.j.w.w.].'.'.'.'.'.P   [.[.[.[.[.[.[.[.[.[.[.[.[.[.[.[.[.[.[.",
"[.[.[.[.[.[.[.[.[.w W.Q.'.'.Q.. m.W.W.Q.'.'.'.'.'.U.w.d.'._.x.s.R.'.R.w.w.^.'.'.'.'.`.o o *   [.[.[.[.[.[.[.[.[.[.[.[.[.[.[.[.[.",
"[.[.[.[.[.[.[.[.[.* G.W.].'.! o S.W.W./.'.'.'.'.'.b.w.v.'.I.w.w.v.'.^.w.w.~.'.'.'.`.Q a G.Q.B.- [.[.[.[.[.[.[.[.[.[.[.[.[.[.[.[.",
"[.[.[.[.[.[.[.[.[.. S.W./.W.+ P W.W.W.(.'.'.'.'.'.l.w.L.'.K.w.w.P.'.I.w.r.'.'.'.Q.i B.].'.'.'.!.* [.[.[.[.[.[.[.[.[.[.[.[.[.[.[.",
"[.[.[.[.[.[.[.[.[.  N.W.W.P   A.W.W.Q.`.'.'.'.'.'.x.w.v.'.~.x.K.].'.d.w.h.'.].S.P G.'.'.'.'.'.'.Q   [.[.[.[.[.[.[.[.[.[.[.[.[.[.",
"[.[.[.[.[.[.[.[.[.  D W.D.o i W.W.W.!.'.'.'.'.'.'.K.w.u.'.'.'.'.'.R.w.e.R.`.N.B.`.'.`.'.'.'.'.'.P   [.[.[.[.[.[.[.[.[.[.[.[.[.[.",
"[.[.[.[.[.[.[.[.[.[.o N.- * D.W.W.W.!.].'.'.'.'.'.h.w.w.j._.'.].L.t.w.h.'./.(.'.'.B./.'.'.'.'.(.*   [.[.[.[.[.[.[.[.[.[.[.[.[.[.",
"[.[.[.[.[.[.          o . ( W.W.W.W.W.`.'.'.'.'._.e.w.w.w.u.d.s.w.w.u.^.'.'.'.'.G.Q !.'.'.'.'.G.  [.[.[.[.[.[.[.[.[.[.[.[.[.[.[.",
"[.[.[.[.[.[.  ! B.a     ! E.W.W.W.W.W.Q.`.'.'.'.Y.w.w.w.w.w.w.w.w.r.).'.'.`.`./.a M.!.'.'.'.'.D   [.[.[.[.[.[.[.[.[.[.[.[.[.[.[.",
"[.[.[.[.[.[.[.( W.W.A.D.W.W.W.W.W.W.W.W.W./.`.'.j.q.w.q.q.q.6.6.7.f./.!.Q.W.W.F.w G.`.'.'.'.W.  [.[.[.[.[.[.[.[.[.[.[.[.[.[.[.[.",
"[.[.[.[.[.[.[.r F.W.W.W.W.W.W.W.W.W.W.W.W.W.Q.Q.9.<.<.<.<.,.<.,.<.Z.W.W.E.S.m.S P Q.'.'.'.'.!   [.[.[.[.[.[.[.[.[.[.[.[.[.[.[.[.",
"[.[.[.[.[.[.[.[.i W.W.W.W.W.W.W.W.W.W.W.W.W.W.C.,.,.,.,.,.,.,.,.0.G.M.P - o     ( !.'.'.'./.o   [.[.[.[.[.[.[.[.[.[.[.[.[.[.[.[.",
"[.[.[.[.[.[.[.[.[.i B.W.W.W.W.W.W.W.E.B.! Q Q A N C C C N m 8 7 $       [.[.[.  M./.'.'.].I   [.[.[.[.[.[.[.[.[.[.[.[.[.[.[.[.[.",
"[.[.[.[.[.[.[.[.[.[.  w ) V.S.S.B.Q *                           [.[.[.[.[.[.[.  V.!.'.'.E.o [.[.[.[.[.[.[.[.[.[.[.[.[.[.[.[.[.[.",
"[.[.[.[.[.[.[.[.[.[.[.[.[.        [.[.[.[.[.[.[.[.[.[.[.[.[.[.[.[.[.[.[.[.[.[.  V.W.Q.!.w   [.[.[.[.[.[.[.[.[.[.[.[.[.[.[.[.[.[.",
"[.[.[.[.[.[.[.[.[.[.[.[.[.[.[.[.[.[.[.[.[.[.[.[.[.[.[.[.[.[.[.[.[.[.[.[.[.[.[.  i ! A.P   [.[.[.[.[.[.[.[.[.[.[.[.[.[.[.[.[.[.[.",
"[.[.[.[.[.[.[.[.[.[.[.[.[.[.[.[.[.[.[.[.[.[.[.[.[.[.[.[.[.[.[.[.[.[.[.[.[.[.[.[.        [.[.[.[.[.[.[.[.[.[.[.[.[.[.[.[.[.[.[.[.",
"[.[.[.[.[.[.[.[.[.[.[.[.[.[.[.[.[.[.[.[.[.[.[.[.[.[.[.[.[.[.[.[.[.[.[.[.[.[.[.[.[.[.[.[.[.[.[.[.[.[.[.[.[.[.[.[.[.[.[.[.[.[.[.[.",
"[.[.[.[.[.[.[.[.[.[.[.[.[.[.[.[.[.[.[.[.[.[.[.[.[.[.[.[.[.[.[.[.[.[.[.[.[.[.[.[.[.[.[.[.[.[.[.[.[.[.[.[.[.[.[.[.[.[.[.[.[.[.[.[.",
"[.[.[.[.[.[.[.[.[.[.[.[.[.[.[.[.[.[.[.[.[.[.[.[.[.[.[.[.[.[.[.[.[.[.[.[.[.[.[.[.[.[.[.[.[.[.[.[.[.[.[.[.[.[.[.[.[.[.[.[.[.[.[.[.",
"[.[.[.[.[.[.[.[.[.[.[.[.[.[.[.[.[.[.[.[.[.[.[.[.[.[.[.[.[.[.[.[.[.[.[.[.[.[.[.[.[.[.[.[.[.[.[.[.[.[.[.[.[.[.[.[.[.[.[.[.[.[.[.[.",
"[.[.[.[.[.[.[.[.[.[.[.[.[.[.[.[.[.[.[.[.[.[.[.[.[.[.[.[.[.[.[.[.[.[.[.[.[.[.[.[.[.[.[.[.[.[.[.[.[.[.[.[.[.[.[.[.[.[.[.[.[.[.[.[.",
"[.[.[.[.[.[.[.[.[.[.[.[.[.[.[.[.[.[.[.[.[.[.[.[.[.[.[.[.[.[.[.[.[.[.[.[.[.[.[.[.[.[.[.[.[.[.[.[.[.[.[.[.[.[.[.[.[.[.[.[.[.[.[.[.",
"[.[.[.[.[.[.[.[.[.[.[.[.[.[.[.[.[.[.[.[.[.[.[.[.[.[.[.[.[.[.[.[.[.[.[.[.[.[.[.[.[.[.[.[.[.[.[.[.[.[.[.[.[.[.[.[.[.[.[.[.[.[.[.[."
};
