/* XPM */
static char *result[] = {
/* columns rows colors chars-per-pixel */
"64 64 180 2 ",
"   c #010101",
".  c #080707",
"X  c #0C0A07",
"o  c #00050A",
"O  c #0B0B0B",
"+  c #04080C",
"@  c #110F0B",
"#  c #100D06",
"$  c #16120A",
"%  c #1C160B",
"&  c #1E180E",
"*  c #000911",
"=  c #020F1B",
"-  c #05121F",
";  c #141313",
":  c #1C1915",
">  c #1C1B1B",
",  c #181513",
"<  c #211B0D",
"1  c #221D1B",
"2  c #25201E",
"3  c #2D2412",
"4  c #332914",
"5  c #3D3119",
"6  c #001224",
"7  c #00152A",
"8  c #001933",
"9  c #051E37",
"0  c #151C23",
"q  c #242323",
"w  c #292522",
"e  c #2F2926",
"r  c #2B2B2B",
"t  c #252A2F",
"y  c #322C29",
"u  c #33302E",
"i  c #38312E",
"p  c #333333",
"a  c #3D3632",
"s  c #3B3B3B",
"d  c #42351A",
"f  c #4A3C1E",
"g  c #423A36",
"h  c #453D39",
"j  c #433720",
"k  c #4F4020",
"l  c #564522",
"z  c #5A4824",
"x  c #4A423E",
"c  c #40403F",
"v  c #69542A",
"b  c #755E2F",
"n  c #00264C",
"m  c #002A54",
"M  c #002F5E",
"N  c #003265",
"B  c #00356B",
"V  c #013972",
"C  c #003E7B",
"Z  c #3A4045",
"A  c #434343",
"S  c #4B4B4B",
"D  c #4F4641",
"F  c #544B46",
"G  c #564D48",
"H  c #594F4A",
"J  c #5B514C",
"K  c #545454",
"L  c #5C5C5C",
"P  c #5F5550",
"I  c #685C56",
"U  c #6F625C",
"Y  c #425C76",
"T  c #566A7D",
"R  c #636363",
"E  c #6B6B6B",
"W  c #66696C",
"Q  c #776862",
"!  c #796B64",
"~  c #7A6B64",
"^  c #747474",
"/  c #7C7C7C",
"(  c #68727C",
")  c #836935",
"_  c #846934",
"`  c #9B7C3E",
"'  c #95783C",
"]  c #9F7F40",
"[  c #84746D",
"{  c #9F8040",
"}  c #AA8844",
"|  c #B59148",
" . c #BF994C",
".. c #BC974B",
"X. c #C59E4F",
"o. c #D0A753",
"O. c #D4A955",
"+. c #DCB158",
"@. c #CCA351",
"#. c #E3B55B",
"$. c #EBBC5E",
"%. c #E7B95C",
"&. c #F4C462",
"*. c #FFCC66",
"=. c #004181",
"-. c #00468D",
";. c #004A94",
":. c #004D9B",
">. c #0A5197",
",. c #0E5398",
"<. c #17599A",
"1. c #24619E",
"2. c #0052A4",
"3. c #0057AD",
"4. c #0858A9",
"5. c #005DBA",
"6. c #3068A1",
"7. c #48698B",
"8. c #737F8B",
"9. c #687583",
"0. c #4475A7",
"q. c #0066CC",
"w. c #0569CD",
"e. c #0B6CCE",
"r. c #0063C6",
"t. c #1472D0",
"y. c #1A76D1",
"u. c #257CD3",
"i. c #2A7FD4",
"p. c #3279C1",
"a. c #4C84BD",
"s. c #7293B3",
"d. c #2C81D5",
"f. c #3485D5",
"g. c #3E8BD8",
"h. c #5397DC",
"j. c #4791DA",
"k. c #70A5DB",
"l. c #6BA6E1",
"z. c #76ADE4",
"x. c #848484",
"c. c #8C8C8C",
"v. c #80868C",
"b. c #949494",
"n. c #9A9A9A",
"m. c #919AA3",
"M. c #8BA2BA",
"N. c #99ABBE",
"B. c #A4A4A4",
"V. c #ACACAC",
"C. c #B3B3B3",
"Z. c #BDBDBD",
"A. c #8AB9E8",
"S. c #92BDE9",
"D. c #BBC2C8",
"F. c #9DC4EB",
"G. c #ADCEEF",
"H. c #A1C7EC",
"J. c #B0D0EF",
"K. c #BAD6F1",
"L. c #C4C4C4",
"P. c #CCCCCC",
"I. c #D3D3D3",
"U. c #DCDCDC",
"Y. c #D8D8D7",
"T. c #CADFF4",
"R. c #DFE0E0",
"E. c #D3E5F6",
"W. c #DAE9F8",
"Q. c #CDE1F5",
"!. c #E3E3E3",
"~. c #EBEBEB",
"^. c #E4EEF7",
"/. c #E9F2FB",
"(. c #E6F0FA",
"). c #F3F3F3",
"_. c #F4F8FD",
"`. c #FFFFFF",
"'. c #F3F6F8",
"]. c None",
/* pixels */
"].].].].].].].].].].].].].].].].].].].].].].].].].].].].].].].].].].].].].].].].].].].].].].].].].].].].].].].].].].].].].].].].",
"].].].].].].].].].].].].].].].].].].].].].].].].].].].].].].].].].].].].].].].].].].].].].].].].].].].].].].].].].].].].].].].].",
"].].].].].].].].].].].].].].].].].            ].].].].].].].].].].].].].].].].].].].].].].].].].].].].].].].].].].].].].].].].].",
"].].].].].].].].].].].].].    * 8 8 8 7 6 = * o         ].].].].].].].].].].].].].].].].].].].].].].].].].].].].].].].].].].].].",
"].].].].].].].].].].    > W 2.5.q.q.q.q.q.q.5.3.=.n 7           ].].].].].].].].].].].].].].].].].].].].].].].].].].].].].].].].",
"].].].].].].].].].. S Z.`.G.q.q.q.q.q.q.q.q.q.q.q.q.i.'.P.n.R q       ].].].].].].].].].].].].].].].].].].].].].].].].].].].].].",
"].].].].].].].].p V.).Y.V.Y M m M N B V -.2.5.q.q.e.G.`.`.`.`.!.C.K ;     ].].].].].].].].].].].].].].].].].].].].].].].].].].].",
"].].].].].].].  V.c.r ; : > q w y y q 1 ;   + 7 V a.`.`.`.`.`.`.`.`.!.E .   ].].].].].].].].    ].].].].].].].].].].].].].].].].",
"].].].].].].  . , y D G G G G G G G G G G F x a w O y n.'.`.`.`.`.`.`.`.I.s   ].].].].].].].A / ].].].].].].].].].].].].].].].].",
"].].].].].].  , h G G G G G G G G G G G G G G G G x e . S U.`.`.`.`.`.`.`.~.K   ].].].].].  R B.  ].].].].].].].].].].].].].].].",
"].].].].].  $ a G G G F J U Q ! ! ! I I G G G G G G G a ; ; Z.`.`.`.`.`.`.`._.K   ].].].].  x.V.  ].].].].].].].].].].].].].].].",
"].].].].].. e x G G J Q [ [ [ [ [ [ [ [ [ Q I H G G G x g 1 > P.`.`.`.`.`.`.`.~.r   ].].].  B.C.  ].].].].].].].].].].].].].].].",
"].].].].  1 a D G J [ [ [ [ [ [ [ [ [ [ [ [ [ ~ J J G G g g @ S `.`.`.`.`.`.`.`.P.. ].].].  Z.Z.  ].].].].].].].].].].].].].].].",
"].].].].  2 g G G Q [ [ [ [ [ [ [ [ [ [ [ [ [ [ ~ J G F h g 1 . P.`.`.`.`.`.`.`.~.R   ].].  Z.P.  ].].].].].].].].].].].].].].].",
"].].].].. w g g > ; O @ ; ; 1 w e y h F J I ~ [ [ I G F g g e . x.`.`.`.`.`.`.`.~.L.> ].].  L.I.  ].].].].].].].].].].].].].].].",
"].].].  . 1 g 1   b .. . .| { ] ) b v l d 5 % : u g x x g g w @ ^ `.`.`.`.`.`.`.!.P.L   ].  I.Y.. ].].].].].].].].].].].].].].].",
"].].].    , y > $ #.*.*.*.*.*.*.*.*.*.*.*.*.&.+.| v % y g g q O / `.`.`.`.`.).b.^ Z.b.  ].  I.!.; ].].].].].].].].].].].].].].].",
"].].].  q O 1 O d &.*.*.*.*.*.*.*.*.*.*.*.*.*.*.*.*.X.$ y a 2 . V.`.`.`.`.'.K r u E Z.  ].  I.!.> ].].].].].].].].].].].].].].].",
"].].].  E L.> O b *.*.#.*.*.*.*.*.*.*.*.#.*.*.*.*.*.*.+.# 1 1 . Y.`.`.`.`.b.A L.C.; P.@     p s O   ].].].].].].].].].].].].].].",
"].].].  / `.C.O ' *.$.% o.*.*.*.*.*.*.&.$ } *.*.*.*.*.%.$ O , , ~.`.`.`.!.> C.P.I.p B.q ^ V.B.b.c.E A >   ].].].].].].].].].].].",
"].].].  / `.U.; ..*.`   @.*.*.*.*.*.*.`   _ *.*.*.*.*.+.1 b.. p _.`.`.`.n.Z P.!._.L c.r L.`.`.`.`.`.`.U.^ O ].].].].].].].].].].",
"].].].  ^ `.Z.  %.*.k   O.*.*.*.*.*.*.l   b *.*.*.*.*.+.w ).R c.`.`.`.`.K / P.`.`.E ^ q n.C.c.b.n.P.~.~.P.^   ].].].].].].].].].",
"].].].  R `.n.# *.*.f # +.*.*.*.*.*.*.3   ` *.*.*.*.*.O.r _.'.`.`.`.`.`.r V.U.`.`.L / 1 q p K K K s r r c.n.  ].].].].].].].].].",
"].].].  A `.x.3 *.*.z & #.*.*.*.*.*.*.3   } *.*.*.*.*.X.p `.`.`.`.`.`.`.> P.U.`.`.s c.> Z.!.`.`.`.`.P.E O Z   ].].].].].].].].].",
"].].].  > `.E 5 *.*.} f &.*.*.*.*.*.*.4   O.*.*.*.*.*.{ S `.`.`.`.`.`.`.q Z.I._.U.; n.1 n.P.'.`.`.`.`.`.n..   ].].].].].].].].].",
"].].].    )./ 5 *.*.&.%.*.*.*.*.*.*.*.z   $.*.*.*.*.*._ L `.`.`.`.`.`.`.A x.P.!.c.s / . ; > r A R b.L.~.!.K   ].].].].].].].].].",
"].].].].  V.b.< *.*.&.+.X. .X.O.#.*.*.o._ *.*.*.*.*.*.z ^ `.`.`.`.`.`.`.x.u P.Z.; b.S I.P.C.b.R A > . ; ^ B.O ].].].].].].].].].",
"].].].].  S B.  l : > u p p p q > < f _ +.*.*.*.*.*.*.5 c.`.`.`.`.`.`.`.).S s e S n.R `.`.`.).R.I.P.C.W ; ; q   ].].].].].].].].",
"].].].].  ; L.r   s c.b.n.n.b.b.c.A ; s j $.*.*.&.O.` $ B.`.`.`.`.`.`.`.`.!.^ ^ Z.s L.`.`.`.`.`.'.!.P.P.A > @   ].].].].].].].].",
"].].].].].  b.~.s L n.n.n.n.n.n.n.c.; c.K f ' l & .   . L.`.`.`.`.`.`.`.'.I.P.P.n.L `.`.`.`.`.`.`.`.'.I.u / C.K O ].].].].].].].",
"].].].].].  r R.A R n.n.n.b.n.n.b.n.> x./     . r K n.).`.`.`.`.`.`.`._.I.P.P.Z.r Y.`.`.`.`.`.`.`.`.`.`.> V.Y.P.Z.S   ].].].].].",
"].].].].].].  E K A b.n.n.n.n.n.n.b.> / R > Z.!.`.`.`.`.`.`.`.`.`.`.).P.P.P.P.A / `.`.`.`.`.`.`.`.`.`.`.  P.`.~.P.P.q ].].].].].",
"].].].].].].  O L q ^ b.n.b.n.n.n./ O L K c `.`.`.`.`.`.`.`.`.`._.U.P.P.P.P.U A _.`.`.`.`.`.`.`.`.`.`.`.  L.`.`.!.P.q ].].].].].",
"].].].].].].].  > @ L W E ^ ^ ^ W s 1 W s 8.`.`.`.`.`.`.`.`.~.U.P.P.P.P.P.x.r R.`.`.B.L s r t s K ^ x.n.; V.`.`.!.Z.. ].].].].].",
"].].].].].].].].    > K R R W R R @ G S - h.`.`.`.`._.).U.P.P.P.P.P.P.P.x.; I.`.`.`.`.!.L.B./ O O A p q > > n.!.I.E   ].].].].].",
"].].].].].].].].].  . @ O O ; : O o , = 2.t.^.~.!.I.I.P.P.P.P.P.P.P.P./ > L.`.`.`.`.`._.I.P.P.U o I.`.).).C.S ; q . ].].].].].].",
"].].].].].].].].].].  9 N N n n n m V -.:.:.N.P.P.P.P.P.P.P.P.P.P.L.R ; L.`.`.`.`.`.`.`.!.P.P.C.q L '.`.`.R.n.  ].].].].].].].].",
"].].].].].].].].].].].  + N ;.;.;.;.;.;.;.;.0.P.P.P.P.P.P.P.P.P.b.; s !.`.`.`.`.`.`.`.`.`.I.P.P.c.  C.`.`.U.b.  ].].].].].].].].",
"].].].].].].].].].].].].    7 B -.;.;.;.;.;.,.M.P.P.P.P.P.C./ s > b.~.`.`.`.`.`.`.`.`.`.`.~.P.P.P.p s _.`.I.x.  ].].].].].].].].",
"].].].].].].].].].].].].].].    - m C ;.;.;.;.1.L.P.L.b.L ; 0 ^ Y.`.`.`.`.`.`.`.`.`.`.`.`.`.I.P.P.c.O V.`.I.x.  ].].].].].].].].",
"].].].].].].].].].].].].].].].].].      = 7 6 6 t > * 6 M 2.e.l./.`.`.`.`.`.`.`.`.`.`.`.`.`.~.P.P.P.S > ~.P.E   ].].].].].].].].",
"].].].].].].].].].].].].].].].].].].].].  O v.7.-.2.5.q.q.q.q.q.t.S._.`.`.`.`.`.`.`.`.`.`.`.`.I.P.P.B.. x.P.K ].].].].].].].].].",
"].].].].].].].].].].].].].].].].].].].].].  V.T.q.q.q.q.q.e.u.w.q.w.z.`.`.`.`.`.`.`.U.L.Z.L.I.Y.P.P.P.S p L.s ].].].].].].].].].",
"].].].].].].].].].].].].].].].].].].].].].  s _.z.w.q.w.S.`.`.`.S.w.q.S.`.`.`.`._.^ . p c :   . ; / L.Z.. ^ > ].].].].].].].].].",
"].].].].].].].].].].].].].].].].].].].].].].. c._.u.q.u._.`._.`.`.H.e.t./.`.`.`.[ p Z.`.`.!.I.V.x.S L Z.E ; . ].].].].].].].].].",
"].].].].].].].].].].].].].].].].].].].].].].  O ).g.q.j.`._.i.f.W.`.l.q.A.`.`.L.> R.`.`.`.`.`.!.I.P.P.P.Z.>   ].].].].].].].].].",
"].].].].].].].].].].].].].].].].].].].].].].].  R l.q.d.`.^.q.q.d.`.Q.w.d.`.`.s s.`.`.`.`.).P.V./ P.P.P.P.K   ].].].].].].].].].",
"].].].].].].].].].].].].].].].].].].].].].].].  . s.w.w.E.`.j.q.t.`./.t.q._.`.. Z.`.`.`.`.).P.L.E Z B.P.P.R   ].].].].].].].].].",
"].].].].].].].].].].].].].].].].].].].].].].].].  Z f.q.h.`./.A.K.`./.t.q.K.`.> L `.`.`.`.`.Y.P.L.h > Z.P.p ].].].].].].].].].].",
"].].].].].].].].].].].].].].].].].].].].].].].].].. T w.w.l.`.`.`.`.J.q.q.t.E.K   x.`.`.`.`._.I.P.L.s A S   ].].].].].].].].].].",
"].].].].].].].].].].].].].].].].].].].].].].].].].  > k.e.q.h.J.E.F.u.q.q.q.p.m.O . B.`.`.`.`.~.I.P.B.. ].].].].].].].].].].].].",
"].].].].].].].].].].].].].].].].].].].].].].].].].].  U S.w.q.q.q.q.q.q.5.:.;.1.v.. . L.`.`.`.`.~.P.P.S ].].].].].].].].].].].].",
"].].].].].].].].].].].].].].].].].].].].].].].].].].  . V.Q.h.t.q.q.r.3.:.;.;.;.1.9.O : P.`.`.`.`.U.P.V.  ].].].].].].].].].].].",
"].].].].].].].].].].].].].].].].].].].].].].].].].].].  r ~.`.'.F.4.;.;.;.;.;.;.;.<.9.. ; C.`.`.`.).P.P.q ].].].].].].].].].].].",
"].].].].].].].].].].].].].].].].].].].].].].].].].].].].  R `.`.U.M.,.;.;.;.;.;.;.;.>.7.; . / '.`.!.P.P.p   ].].].].].].].].].].",
"].].].].].].].].].].].].].].].].].].].].].].].].].].].].    P._.I.P.N.<.;.;.;.;.;.;.C 9 .     A V.P.B.r   ].].].].].].].].].].].",
"].].].].].].].].].].].].].].].].].].].].].].].].].].].].].  s !.I.P.P.D.1.;.;.=.M 7   . ; .       S .   ].].].].].].].].].].].].",
"].].].].].].].].].].].].].].].].].].].].].].].].].].].].].].  p P.P.P.L.n.T ( E ^ c.V.V.Z.^   ].    ].].].].].].].].].].].].].].",
"].].].].].].].].].].].].].].].].].].].].].].].].].].].].].].].  . A / V.P.P.P.P.P.P.P.P.P.B.  ].].].].].].].].].].].].].].].].].",
"].].].].].].].].].].].].].].].].].].].].].].].].].].].].].].].].].      , S n.C.P.P.P.P.B.q   ].].].].].].].].].].].].].].].].].",
"].].].].].].].].].].].].].].].].].].].].].].].].].].].].].].].].].].].].      O q S K s O   ].].].].].].].].].].].].].].].].].].",
"].].].].].].].].].].].].].].].].].].].].].].].].].].].].].].].].].].].].].].].].].].].].].].].].].].].].].].].].].].].].].].].].",
"].].].].].].].].].].].].].].].].].].].].].].].].].].].].].].].].].].].].].].].].].].].].].].].].].].].].].].].].].].].].].].].].",
"].].].].].].].].].].].].].].].].].].].].].].].].].].].].].].].].].].].].].].].].].].].].].].].].].].].].].].].].].].].].].].].]."
};
