/* XPM */
static char *result[] = {
/* columns rows colors chars-per-pixel */
"64 64 108 2 ",
"   c #010101",
".  c #00060C",
"X  c #05090C",
"o  c #0C0C0C",
"O  c #100E0E",
"+  c #12100F",
"@  c #0C0E11",
"#  c #000E1B",
"$  c #141313",
"%  c #1A1615",
"&  c #1C1917",
"*  c #1B1B1B",
"=  c #221E1B",
"-  c #26221F",
";  c #001121",
":  c #00172E",
">  c #101C28",
",  c #001D3A",
"<  c #242424",
"1  c #2C2724",
"2  c #2E2926",
"3  c #20262B",
"4  c #2C2C2D",
"5  c #302A27",
"6  c #332C29",
"7  c #36302C",
"8  c #3A332F",
"9  c #25303B",
"0  c #333333",
"q  c #3D3532",
"w  c #3C3C3C",
"e  c #423A36",
"r  c #002244",
"t  c #00264C",
"y  c #0B2A49",
"u  c #162D45",
"i  c #002D5A",
"p  c #003264",
"a  c #03376B",
"s  c #00386F",
"d  c #003B76",
"f  c #003D7A",
"g  c #434343",
"h  c #4C4C4C",
"j  c #525353",
"k  c #5B5B5B",
"l  c #646464",
"z  c #6C6C6C",
"x  c #747474",
"c  c #7C7C7C",
"v  c #004183",
"b  c #00468B",
"n  c #004A94",
"m  c #004D99",
"M  c #095096",
"N  c #105498",
"B  c #18599B",
"V  c #255E96",
"C  c #0050A1",
"Z  c #0956A4",
"A  c #0059B3",
"S  c #005DBA",
"D  c #0062C4",
"F  c #0066CC",
"G  c #076ACD",
"H  c #1170CF",
"J  c #1A76D1",
"K  c #2179D2",
"L  c #297FD4",
"P  c #3888D7",
"I  c #4A92DB",
"U  c #5599DD",
"Y  c #73ABE3",
"T  c #7AAFE4",
"R  c #848484",
"E  c #8B8B8B",
"W  c #939393",
"Q  c #9B9B9B",
"!  c #92A7BC",
"~  c #97ABBE",
"^  c #9DAEBF",
"/  c #A4A4A4",
"(  c #ACACAC",
")  c #B4B4B4",
"_  c #BBBBBB",
"`  c #A1B1C0",
"'  c #B1BBC5",
"]  c #BDC3C8",
"[  c #9FC5EC",
"{  c #A8C9EA",
"}  c #BED0E1",
"|  c #C3C3C3",
" . c #C3C6C9",
".. c #C3C8CD",
"X. c #CCCCCC",
"o. c #D3D3D3",
"O. c #DBDBDB",
"+. c #D8E8F7",
"@. c #DAE9F8",
"#. c #E3E3E3",
"$. c #EBEBEB",
"%. c #EAF0F7",
"&. c #E8F1FA",
"*. c #F4F4F4",
"=. c #F2F7FC",
"-. c #F7FAFD",
";. c #FFFFFF",
":. c None",
/* pixels */
":.:.:.:.:.:.:.:.:.:.:.:.:.:.:.:.:.:.:.:.:.:.:.:.:.:.            o             :.:.:.:.:.:.:.:.:.:.:.:.:.:.:.:.:.:.:.:.:.:.:.:.:.",
":.:.:.:.:.:.:.:.:.:.:.:.:.:.:.:.:.:.:.:.:.:.:.    + = 1 6 q q e e e e 8 6 5 - %     :.:.:.:.:.:.:.:.:.:.:.:.:.:.:.:.:.:.:.:.:.:.",
":.:.:.:.:.:.:.:.:.:.:.:.:.:.:.:.:.:.:.:.:.  % 2 8 6 - & $ o @ @ X X   X o + % - 6 5 &   :.:.:.:.:.:.:.:.:.:.:.:.:.:.:.:.:.:.:.:.",
":.:.:.:.:.:.:.:.:.:.:.:.:.:.:.:.:.:.:.:.o 5 2 & $ 3 r s v m C m C C n n v v a j < + & = X :.:.:.:.:.:.:.:.:.:.:.:.:.:.:.:.:.:.:.",
":.:.:.:.:.:.:.:.:.:.:.:.:.:.:.:.:.:.:.  = + 4 c  .{ F F F F F F F F F F F F F @.$.) k *     :.:.:.:.:.:.:.:.:.:.:.:.:.:.:.:.:.:.",
":.:.:.:.:.:.:.:.:.:.:.:.:.:.:.:.:.:.:.  0 Q *.;.;.T F F F F F F F F F F F F F { ;.;.;.o.z o :.:.:.:.:.:.:.:.:.:.:.:.:.:.:.:.:.:.",
":.:.:.:.:.:.:.:.:.:.:.:.:.:.:.:.:.:.  z $.;.;.;.;.I F F F F F F F F F F F F F Y ;.;.;.;.;.( & :.:.:.:.:.:.:.:.:.:.:.:.:.:.:.:.:.",
":.:.:.:.:.:.:.:.:.:.:.:.:.:.:.:.:.  R ;.;.;.;.;.;.L F F F F F F F F F F F F F U ;.;.;.;.;.;. .  :.:.:.:.:.:.:.:.:.:.:.:.:.:.:.:.",
":.:.:.:.:.:.:.:.:.:.:.:.:.:.:.:.:.g -.;.;.;.;.;.;.J F F F F F F F F F F F F F I ;.;.;.;.;.;.;.c   :.:.:.:.:.:.:.:.:.:.:.:.:.:.:.",
":.:.:.:.:.:.:.:.:.:.:.:.:.:.:.:.  X.;.;.;.;.;.;.;.J F F F F F F F F F F F F F P ;.;.;.;.;.;.;.#.o :.:.:.:.:.:.:.:.:.:.:.:.:.:.:.",
":.:.:.:.:.:.:.:.:.:.:.:.:.:.:.  < *.;.;.;.;.;.;.;.G F F F F F F F F F F F F F L ;.;.;.;.;.;.;.;.g   :.:.:.:.:.:.:.:.:.:.:.:.:.:.",
":.:.:.:.:.:.:.:.:.:.:.:.:.:.:.  c ;.;.;.;.;.;.;.;.F F F F F F F F F F F F F F K -.;.;.;.;.;.;.;./   :.:.:.:.:.:.:.:.:.:.:.:.:.:.",
":.:.:.:.:.:.:.:.:.:.:.:.:.:.:.  | ;.;.;.;.;.;.;.;.F F F F F F F F F F F F F F J &.;.;.;.;.;.;.;.O.    :.:.:.:.:.:.:.:.:.:.:.:.:.",
":.:.:.:.:.:.:.:.:.:.:.:.:.:.  o #.;.;.;.;.;.;.;.=.F F F D S S S A A A A D D F H +.;.;.;.;.;.;.;.-.=   :.:.:.:.:.:.:.:.:.:.:.:.:.",
":.:.:.:.:.:.:.:.:.:.:.:.:.    * *.;.;.;.;.;.;.;.%.A C m n n n n n n n n n n m Z } ;.;.;.;.;.;.;.;.e     :.:.:.:.:.:.:.:.:.:.:.:.",
":.:.:.:.:.:.:.:.:.:.:.:.:.4 4 0 ;.;.;.;.;.;.;.$...n n n n n n n n n n n n n n n ~ o.*.;.;.;.;.;.;.k o j   :.:.:.:.:.:.:.:.:.:.:.",
":.:.:.:.:.:.:.:.:.:.:.:.  | < g ;.;.;.;.;.-.O.X.] n f i n n n n n n n n n n n n ! X.X.$.;.;.;.;.;.z o X.$ :.:.:.:.:.:.:.:.:.:.:.",
":.:.:.:.:.:.:.:.:.:.:.:.j ;.< k ;.;.;.;.-.O.X.X.] b > g p n n n n n n n n n n n ! X.X.X.#.;.;.;.;.E o #.g :.:.:.:.:.:.:.:.:.:.:.",
":.:.:.:.:.:.:.:.:.:.:.  / ;.0 h ;.;.;.;.O.X.X.X. .d 4 ) r n n n n n n n n n n n ! X.X.X.X.$.;.;.;.c o #.h :.:.:.:.:.:.:.:.:.:.:.",
":.:.:.:.:.:.:.:.:.:.:.  ) ;.h 0 ;.;.;.#.X.X.X.X.X.i h _ : n n n n n n n n n n n ! X.X.X.X.X.*.;.;.z $ | < :.:.:.:.:.:.:.:.:.:.:.",
":.:.:.:.:.:.:.:.:.:.:.:.l O.z * *.;.-.o.X.X.X.X.X.y z  .; n n n n n n n n n n M ^ X.X.X.X.X.O.;.;.h < c   :.:.:.:.:.:.:.:.:.:.:.",
":.:.:.:.:.:.:.:.:.:.:.:.* _ R o O.;.#.X.X.X.X.X.X.u E X.# n n n n n n n n n n m ` X.X.X.X.X.X.*.-.< 6 $ :.:.:.:.:.:.:.:.:.:.:.:.",
":.:.:.:.:.:.:.:.:.:.:.:.  0 /   ( -.X.X.X.X.X.X.X.9 Q X.; n n n n n n n n n n M ` X.X.X.X.X.X.O.O.    :.:.:.:.:.:.:.:.:.:.:.:.:.",
":.:.:.:.:.:.:.:.:.:.:.:.:.  4 o g #.X.X.X.X.X.X.X.4 (  .; n n n n n n n n n n M ` X.X.X.X.X.X.X.W   :.:.:.:.:.:.:.:.:.:.:.:.:.:.",
":.:.:.:.:.:.:.:.:.:.:.:.:.:.    o _ X.X.X.X.X.X.X.< _ X.; n n n n n n n n n n N ' X.X.X.X.X.X. .0   :.:.:.:.:.:.:.:.:.:.:.:.:.:.",
":.:.:.:.:.:.:.:.:.:.:.:.:.:.:.:.  z X.X.X.X.X.X.X.$ X. .# n n n n n n n n n n B  .X.X.X.X.X.X./   :.:.:.:.:.:.:.:.:.:.:.:.:.:.:.",
":.:.:.:.:.:.:.:.:.:.:.:.:.:.:.:.  O _ X.X.X.X.X.X.% O. .: n n n n n n n n b v V X.X.X.X.X.X.X.w   :.:.:.:.:.:.:.:.:.:.:.:.:.:.:.",
":.:.:.:.:.:.:.:.:.:.:.:.:.:.:.:.:.  h X.X.X.z * *   #.X.. ; , d n n n s #   = < $ l | X.X.X.R   :.:.:.:.:.:.:.:.:.:.:.:.:.:.:.:.",
":.:.:.:.:.:.:.:.:.:.:.:.:.:.:.:.:.:.  E X.X.4 ) X.  *._ 0 ) z ; t t t . c #.;.;.$.h w X.X.( o   :.:.:.:.:.:.:.:.:.:.:.:.:.:.:.:.",
":.:.:.:.:.:.:.:.:.:.:.:.:.:.:.:.:.:.  o Q c 4 $.;.o X.Q k ;.| < Q Q & Q #.) Q / o.|   W | <   :.:.:.:.:.:.:.:.:.:.:.:.:.:.:.:.:.",
":.:.:.:.:.:.:.:.:.:.:.:.:.:.:.:.:.:.:.      g ;.;.4 c j l ;.o.w ;.;.  j   0 k l 4 w * < 4   :.:.:.:.:.:.:.:.:.:.:.:.:.:.:.:.:.:.",
":.:.:.:.:.:.:.:.:.:.:.:.:.:.:.:.:.:.:.  w W h #.;.x k l ( ;.O.0 ;.;.4 4 O.;.;.;.;.l o j   :.:.:.:.:.:.:.:.:.:.:.:.:.:.:.:.:.:.:.",
":.:.:.:.:.:.:.:.:.:.:.:.:.:.:.:.:.:.    ) _ 6 | O.Q ) x -.$./ w ;.-.$ o.;.;.X.$.;.X.X _ w   :.:.:.:.:.:.:.:.:.:.:.:.:.:.:.:.:.:.",
":.:.:.:.:.:.:.:.:.:.:.:.:.:.:.:.:.  w   X.;.z 0 / | R / X._ 4 Q ;.*.$ ;.;.k z < #.$.6 X.z     :.:.:.:.:.:.:.:.:.:.:.:.:.:.:.:.:.",
":.:.:.:.:.:.:.:.:.:.:.:.:.:.:.:.  0 /   x ;.-.Q < g l l j = E ;.;.;.k / E l ;.0 R E j ;.x + <   :.:.:.:.:.:.:.:.:.:.:.:.:.:.:.:.",
":.:.:.:.:.:.:.:.:.:.:.:.:.:.:.:.  _ W g w x $.;.*.| W W ( *.;.;.;.;.;.W x $.;.| k l O.X.$ $ (   :.:.:.:.:.:.:.:.:.:.:.:.:.:.:.:.",
":.:.:.:.:.:.:.:.:.:.:.:.:.:.:.  j $.E l $.c 0 x  .*.;.;.;.;.;.;.;.;.;.;.;.;.;.;.-.o.W l ) & O.j   :.:.:.:.:.:.:.:.:.:.:.:.:.:.:.",
":.:.:.:.:.:.:.:.:.:.:.:.:.:.:.  ( *.E z ;.;.*._ Q _ $.;.;.;.;.;.;.;.;.;.;.;.O.( E x ( *.#.* $./   :.:.:.:.:.:.:.:.:.:.:.:.:.:.:.",
":.:.:.:.:.:.:.:.:.:.:.:.:.:.:.w X.;.Q l ;.;.;.;.;.;.;.;.;.;.E $.Q #.) ;.;.;.;.;.;.;.;.;.O.< -.X.< :.:.:.:.:.:.:.:.:.:.:.:.:.:.:.",
":.:.:.:.:.:.:.:.:.:.:.:.:.:.  c o.;./ k ;.;.;.;.;.;.;.;.;.;.$ O.$ X.j ;.;.;.;.;.;.;.;.;.| 4 ;.o.z   :.:.:.:.:.:.:.:.:.:.:.:.:.:.",
":.:.:.:.:.:.:.:.:.:.:.:.:.:.X ) O.;. .g ;.;.;.;.;.;.;.;.;.;.o O.$  .k ;.;.;.;.;.;.;.;.;./ h ;.o./   :.:.:.:.:.:.:.:.:.:.:.:.:.:.",
":.:.:.:.:.:.:.:.:.:.:.:.:.:.%  .O.;.#.0 *.;.;.;.;.;.;.;.;.;.  O.< ) z ;.;.;.;.;.;.;.;.;.R z ;.O.) o :.:.:.:.:.:.:.:.:.:.:.:.:.:.",
":.:.:.:.:.:.:.:.:.:.:.:.:.:.  e / ;.#.4 $.;.;.;.;.;.;.;.;.;.  O.< ) z ;.;.;.;.;.;.;.;.;.l Q ;.o.( O :.:.:.:.:.:.:.:.:.:.:.:.:.:.",
":.:.:.:.:.:.:.:.:.:.:.:.:.:.0 R 0 g X.< #.;.;.;.;.;.;.;.;.;./ $.Q o.( ;.;.;.;.;.;.;.;.-.g o._ w *   :.:.:.:.:.:.:.:.:.:.:.:.:.:.",
":.:.:.:.:.:.:.:.:.:.:.:.:.:.h X.*.E * o X.;.;.;.;.;.;.;.;.;.;.;.;.;.;.;.;.;.;.;.;.;.;.$.< w 4 Q _ * :.:.:.:.:.:.:.:.:.:.:.:.:.:.",
":.:.:.:.:.:.:.:.:.:.:.:.:.:.k o.;.;./   ) ;.;.-.-.;.;.;.;.O.O.O.-.;.;.;.;.;.;.;.;.;.;.o.  x *.*.X.< :.:.:.:.:.:.:.:.:.:.:.:.:.:.",
":.:.:.:.:.:.:.:.:.:.:.:.:.:.x o.-.;.o.  Q ;.*.X.X.O.-.;.-.X.X.X.O.;.;.;.;.;.;.;.;.;.;.) < ;.;.*.X.4 :.:.:.:.:.:.:.:.:.:.:.:.:.:.",
":.:.:.:.:.:.:.:.:.:.:.:.:.:.h X.O.*.W   R ;.$.X.X.X.$.;.;.X.X.X.O.;.;.;.;.;.;.;.;.;.;.R * *.;.#.X.4 :.:.:.:.:.:.:.:.:.:.:.:.:.:.",
":.:.:.:.:.:.:.:.:.:.:.:.:.:.o j / _ w k l ;.$.X.X.X.$.;.;.X.X.X.#.;.;.-.*.;.-.-.;.;.;.k o  .o.X./ $ :.:.:.:.:.:.:.:.:.:.:.:.:.:.",
":.:.:.:.:.:.:.:.:.:.:.:.:.:.:.:.  o / ) w -.*.X.X.X.$.;.-.X.X.X.$.;.*.X.X.X.X.o.O.;.*.0 o g l 0 o :.:.:.:.:.:.:.:.:.:.:.:.:.:.:.",
":.:.:.:.:.:.:.:.:.:.:.:.:.:.:.:.:.  ) X.4 $.*.X.X.X.#.;.;.X.X.X.*.;.#.X.X.X.X.X.O.;.#.$ $ :.:.:.:.:.:.:.:.:.:.:.:.:.:.:.:.:.:.:.",
":.:.:.:.:.:.:.:.:.:.:.:.:.:.:.:.:.:.w $.< O.*.X.X.X.O.;.;.*.#.#.*.;.#.X.X.X.X.X.#.;.)     :.:.:.:.:.:.:.:.:.:.:.:.:.:.:.:.:.:.:.",
":.:.:.:.:.:.:.:.:.:.:.:.:.:.:.:.:.:.  / h ( ;.o.X.X.O.;.;.;.;.;.;.;.#.X.X.X.X.X.$.;.R     :.:.:.:.:.:.:.:.:.:.:.:.:.:.:.:.:.:.:.",
":.:.:.:.:.:.:.:.:.:.:.:.:.:.:.:.:.:.:.* 0 x ;.#.X.X.o.*.;.;.;.;.;.;.o.X.X.X.X.X.*.*.g   :.:.:.:.:.:.:.:.:.:.:.:.:.:.:.:.:.:.:.:.",
":.:.:.:.:.:.:.:.:.:.:.:.:.:.:.:.:.:.:.:.  w *.#.X.X.X.o.#.#.$.#.#.o.X.X.X.X.X.o.;.o.o   :.:.:.:.:.:.:.:.:.:.:.:.:.:.:.:.:.:.:.:.",
":.:.:.:.:.:.:.:.:.:.:.:.:.:.:.:.:.:.:.:.:.o o.*.X.X.X.X.X.X.X.X.X.X.X.X.X.X.X.O.;.W     :.:.:.:.:.:.:.:.:.:.:.:.:.:.:.:.:.:.:.:.",
":.:.:.:.:.:.:.:.:.:.:.:.:.:.:.:.:.:.:.:.:.  w W /  .X.X.X.X.X.X.X.X.X.X.X.X.X.#.X.w   :.:.:.:.:.:.:.:.:.:.:.:.:.:.:.:.:.:.:.:.:.",
":.:.:.:.:.:.:.:.:.:.:.:.:.:.:.:.:.:.:.:.:.:.        0 j z c W Q Q / W c x k 4       :.:.:.:.:.:.:.:.:.:.:.:.:.:.:.:.:.:.:.:.:.:.",
":.:.:.:.:.:.:.:.:.:.:.:.:.:.:.:.:.:.:.:.:.:.:.:.:.:.                      o < $   :.:.:.:.:.:.:.:.:.:.:.:.:.:.:.:.:.:.:.:.:.:.:.",
":.:.:.:.:.:.:.:.:.:.:.:.:.:.:.:.:.:.:.:.:.:.:.:.:.:.:.:.:.:.:.:.:.:.:.:.      :.:.:.:.:.:.:.:.:.:.:.:.:.:.:.:.:.:.:.:.:.:.:.:.:.",
":.:.:.:.:.:.:.:.:.:.:.:.:.:.:.:.:.:.:.:.:.:.:.:.:.:.:.:.:.:.:.:.:.:.:.:.:.:.:.:.:.:.:.:.:.:.:.:.:.:.:.:.:.:.:.:.:.:.:.:.:.:.:.:.",
":.:.:.:.:.:.:.:.:.:.:.:.:.:.:.:.:.:.:.:.:.:.:.:.:.:.:.:.:.:.:.:.:.:.:.:.:.:.:.:.:.:.:.:.:.:.:.:.:.:.:.:.:.:.:.:.:.:.:.:.:.:.:.:.",
":.:.:.:.:.:.:.:.:.:.:.:.:.:.:.:.:.:.:.:.:.:.:.:.:.:.:.:.:.:.:.:.:.:.:.:.:.:.:.:.:.:.:.:.:.:.:.:.:.:.:.:.:.:.:.:.:.:.:.:.:.:.:.:.",
":.:.:.:.:.:.:.:.:.:.:.:.:.:.:.:.:.:.:.:.:.:.:.:.:.:.:.:.:.:.:.:.:.:.:.:.:.:.:.:.:.:.:.:.:.:.:.:.:.:.:.:.:.:.:.:.:.:.:.:.:.:.:.:."
};
