/* XPM */
static char *result[] = {
/* columns rows colors chars-per-pixel */
"64 64 171 2 ",
"   c #010101",
".  c #090704",
"X  c #0B0905",
"o  c #00060B",
"O  c #0B0B0B",
"+  c #05080A",
"@  c #100E0E",
"#  c #120E07",
"$  c #15110A",
"%  c #1C170B",
"&  c #020E1B",
"*  c #141413",
"=  c #1B1B1B",
"-  c #1B1816",
";  c #0E1318",
":  c #231C0E",
">  c #221E1C",
",  c #28231A",
"<  c #372C17",
"1  c #001529",
"2  c #091B2E",
"3  c #051423",
"4  c #001933",
"5  c #001E3D",
"6  c #06223F",
"7  c #1A2734",
"8  c #242323",
"9  c #2B2623",
"0  c #2E2926",
"q  c #2C2C2C",
"w  c #332D2A",
"e  c #36302D",
"r  c #3A332F",
"t  c #2B343E",
"y  c #333333",
"u  c #3E3632",
"i  c #3B3B3B",
"p  c #3D3B37",
"a  c #4B3C1E",
"s  c #46381C",
"d  c #423A36",
"f  c #453D39",
"g  c #594724",
"h  c #4A423D",
"j  c #6B562A",
"k  c #645028",
"l  c #745D2E",
"z  c #7C6332",
"x  c #002245",
"c  c #00264D",
"v  c #002B55",
"b  c #002F5E",
"n  c #003366",
"m  c #00366D",
"M  c #003C77",
"N  c #375472",
"B  c #444444",
"V  c #4E4540",
"C  c #4B4B4B",
"Z  c #544B46",
"A  c #564D48",
"S  c #584E49",
"D  c #5A514B",
"F  c #535353",
"G  c #5C5C5C",
"H  c #5F5550",
"J  c #655A54",
"K  c #6E615B",
"L  c #71645D",
"P  c #656565",
"I  c #6B6B6B",
"U  c #756761",
"Y  c #7B6C66",
"T  c #7B6C66",
"R  c #7F7069",
"E  c #747474",
"W  c #7B7B7B",
"Q  c #806633",
"!  c #876C36",
"~  c #95773B",
"^  c #9A7B3E",
"/  c #96783C",
"(  c #84746D",
")  c #9F8040",
"_  c #A88743",
"`  c #B28F47",
"'  c #B59148",
"]  c #C19B4D",
"[  c #C79F50",
"{  c #CDA452",
"}  c #D5AA55",
"|  c #DAAF57",
" . c #D6AB56",
".. c #DEB259",
"X. c #E3B65B",
"o. c #EEBF5F",
"O. c #E6B85C",
"+. c #F4C462",
"@. c #FFCC66",
"#. c #004284",
"$. c #00468D",
"%. c #004A94",
"&. c #004C99",
"*. c #19548E",
"=. c #27639F",
"-. c #0052A3",
";. c #005AB3",
":. c #005CB9",
">. c #2D66A0",
",. c #49698A",
"<. c #0063C5",
"1. c #0066CC",
"2. c #0468CD",
"3. c #0D6ECF",
"4. c #1271CF",
"5. c #1674D1",
"6. c #1B76D2",
"7. c #1F78D2",
"8. c #2176CC",
"9. c #237BD3",
"0. c #2A7FD4",
"q. c #377DC2",
"w. c #7D8389",
"e. c #7796B5",
"r. c #3787D7",
"t. c #428ED9",
"y. c #5C9DDE",
"u. c #5899D9",
"i. c #6DA7E2",
"p. c #65A2E0",
"a. c #79AFE4",
"s. c #72AAE3",
"d. c #7FB2E5",
"f. c #838383",
"g. c #8B8B8B",
"h. c #939393",
"j. c #9A9A9A",
"k. c #939EA9",
"l. c #87A1BC",
"z. c #A5A5A5",
"x. c #ACACAC",
"c. c #B4B4B4",
"v. c #BCBCBC",
"b. c #B5B8BC",
"n. c #B0BAC4",
"m. c #A8B5C2",
"M. c #85B6E7",
"N. c #9CC3EB",
"B. c #A6CAED",
"V. c #BFD9F2",
"C. c #B7D4F1",
"Z. c #C4C4C4",
"A. c #CCCCCC",
"S. c #C6C8CA",
"D. c #D3D3D3",
"F. c #DCDCDC",
"G. c #C2DAF3",
"H. c #C9DEF4",
"J. c #DAE4EF",
"K. c #CEE2F5",
"L. c #DAE9F8",
"P. c #E4E4E4",
"I. c #ECECEC",
"U. c #E3EEF9",
"Y. c #E7EEF4",
"T. c #EBF3FB",
"R. c #F4F4F4",
"E. c #F1F6FC",
"W. c #F5F9FD",
"Q. c #FFFFFF",
"!. c None",
/* pixels */
"!.!.!.!.!.!.!.!.!.!.!.!.!.!.!.!.!.!.!.!.!.!.!.!.!.!.!.!.!.!.!.!.!.!.!.!.!.!.!.!.!.!.!.!.!.!.!.!.!.!.!.!.!.!.!.!.!.!.!.!.!.!.!.!.",
"!.!.!.!.!.!.!.!.!.!.!.!.!.!.!.!.!.!.!.!.!.!.!.!.!.!.!.!.!.!.!.!.!.!.!.!.!.!.!.!.!.!.!.!.!.!.!.!.!.!.!.!.!.!.!.!.!.!.!.!.!.!.!.!.",
"!.!.!.!.!.!.!.!.!.!.!.!.!.!.!.!.!.!.!.!.!.!.!.!.!.!.!.!.!.!.!.!.!.!.!.!.!.!.!.                !.!.!.!.!.!.!.!.!.!.!.!.!.!.!.!.!.",
"!.!.!.!.!.!.!.!.!.!.!.!.!.!.!.!.!.!.!.!.!.!.!.!.!.!.!.!.!.!.!.!.!.          o & 4 4 4 4 4 4 4 1 o     !.!.!.!.!.!.!.!.!.!.!.!.!.",
"!.!.!.!.!.!.!.!.!.!.!.!.!.!.!.!.!.!.!.!.!.!.!.!.!.!.!.!.!.!.      . y G ,.&.;.<.1.1.1.1.1.1.1.<.;.*.y     !.!.!.!.!.!.!.!.!.!.!.",
"!.!.!.!.!.!.!.!.!.!.!.!.!.!.!.!.!.!.!.!.!.!.!.!.!.!.!.    * C h.Z.R.Q.Q.W.6.1.1.1.1.1.1.1.1.1.1.1.4.Q.A.I . !.!.!.!.!.!.!.!.!.!.",
"!.!.!.!.!.!.!.!.!.!.!.!.!.!.!.!.!.!.!.!.!.!.!.!.!.!.  = f.D.R.Q.Q.Q.Q.Q.Q.M.1.;.-.#.m b v v v n n M b.P.R.b.B !.!.!.!.!.!.!.!.!.",
"!.!.!.!.!.!.!.!.!.!.!.!.!.!.  !.!.!.!.!.!.!.!.!.    I I.Q.Q.Q.Q.Q.Q.Q.Q.R.w.2 o X * > 0 w w w w > - $ * q z.F.q !.!.!.!.!.!.!.!.",
"!.!.!.!.!.!.!.!.!.!.!.!.!.8 C !.!.!.!.!.!.!.!.  - b.Q.Q.Q.Q.Q.Q.Q.Q.P.I O - w h S Z Z S A A A A A A A A f 9 * q   !.!.!.!.!.!.!.",
"!.!.!.!.!.!.!.!.!.!.!.!.!.G Z.  !.!.!.!.!.!.  O Z.Q.Q.Q.Q.Q.Q.Q.Q.v.8 * e Z Z D Z D A S A A A S A A A A A A d -     !.!.!.!.!.!.",
"!.!.!.!.!.!.!.!.!.!.!.!.!.i I.  !.!.!.!.!.  O Z.Q.Q.Q.Q.Q.Q.Q.Q.h.O 9 d Z Z Z Z Z Z D J K L T T U K H A A A Z f O   !.!.!.!.!.!.",
"!.!.!.!.!.!.!.!.!.!.!.!.!.B Q.* !.!.!.!.!.  h.Q.Q.Q.Q.Q.Q.Q.Q.Z.O 9 d h S Z S D K R ( ( ( ( ( ( ( ( ( L D A Z V w O !.!.!.!.!.!.",
"!.!.!.!.!.!.!.!.!.!.!.!.!.q Q.i   !.!.!.  B F.Q.Q.Q.Q.Q.Q.Q.Q.9 * r d V A A J ( ( ( ( ( ( ( ( ( ( ( ( ( ( S A A d =   !.!.!.!.!.",
"!.!.!.!.!.!.!.!.!.!.!.!.!.q Q.G   !.!.!.  z.F.Q.Q.Q.Q.Q.Q.Q.A.  > d d V A S Y ( ( ( ( ( ( ( ( ( ( ( ( ( ( T S Z f 0 . !.!.!.!.!.",
"!.!.!.!.!.!.!.!.!.!.!.!.!.q Q.E   !.!.!.q A.D.Q.Q.Q.Q.Q.Q.Q.x.. , d d h A J ( J D h f d e 0 0 9 0 0 0 0 0 e w h f w O !.!.!.!.!.",
"!.!.!.!.!.!.!.!.!.!.!.!.!.q Q.f.  !.!.  W Z.E g.I.Q.Q.Q.Q.Q.k.. 9 u d f w * % < a g j j l z Q ^ ) ^ ^ z j a . @ d 0 O   !.!.!.!.",
"!.!.!.!.!.!.!.!.!.!.!.!.!.8 I.k.  !.!.O x.P y B q Y.Q.Q.Q.Q.c.  > u p - a [ +.@.@.@.@.@.@.@.@.@.@.@.@.@.@.o.$ O e > .   !.!.!.!.",
"!.!.!.!.!.!.!.!.!.!.!.!.!.8 I.x.  !.!.= Z.y b.Z.h E Q.Q.Q.Q.A.  > 0 $ k +.@.@.@.@.@.@.@.@.@.@.@.@.@.@.@.@.@.< . , @     !.!.!.!.",
"!.!.!.!.!.!.!.!.!.!.!.!.!.- z.E .     q v.C D.A.b.- P.Q.Q.Q.I.  - O    .@.@.@.@.@.+.' @.@.@.@.@.@.@.@.+.@.@.g O * B P   !.!.!.!.",
"!.!.!.!.!.!.!.!.!.!.    . - q C F P i i j.E Q.P.A.F x.Q.Q.Q.Q.* O C . ..@.@.@.@.@._ . ..@.@.@.@.@.@.o.s X.@.z   I I.f.  !.!.!.!.",
"!.!.!.!.!.!.!.!.!.  = P x.F.W.Q.Q.Q.z.B g.h.Q.Q.A.f.E Q.Q.Q.Q.C B P.. X.@.@.@.@.@./   _ @.@.@.@.@.@.| . _ @.~ O Q.Q.W   !.!.!.!.",
"!.!.!.!.!.!.!.!.  g.W.Q.Q.Q.R.I.I.I.z.B f.f.Q.Q.F.j.B Q.Q.Q.Q.I.R.Q.. ..@.@.@.@.@./   ! @.@.@.@.@.@.|   l @.`   R.Q.I   !.!.!.!.",
"!.!.!.!.!.!.!.!.y A.S.x.I e 8 = = = = y h.P Q.Q.D.j.B Q.Q.Q.Q.Q.Q.Q.  ..@.@.@.@.@.~   j @.@.@.@.@.@.|   j @.{   F.Q.B   !.!.!.!.",
"!.!.!.!.!.!.!.!.C z.q @ P z.x.v.b.j.j.B x.e Q.W.D.g.F Q.Q.Q.Q.Q.Q.Q.$ } @.@.@.@.@.~   j @.@.@.@.@.@...X l @...X S.W.8   !.!.!.!.",
"!.!.!.!.!.!.!.!.= O I I.Q.W.D.c.z.W I q x., x.D.A.F h.Q.Q.Q.Q.Q.Q.Q.* } @.@.@.@.@./   z @.@.@.@.@.@.X.$ _ @.O.: v.P.O !.!.!.!.!.",
"!.!.!.!.!.!.!.!.  i D.z.F y - * - 8 y q I P y S.c.* D.Q.Q.Q.Q.Q.Q.Q.* ] @.@.@.@.@.'   ' @.@.@.@.@.@.@.] +.@.X.% A.v.  !.!.!.!.!.",
"!.!.!.!.!.!.!.!.  P =   f g.x.b.Z.D.P.I.y b.* B = W Q.Q.Q.Q.Q.Q.Q.Q.8 ` @.@.@.@.@.+.' @.@.@.@.@.@.@.@.@.@.@.}   P.W   !.!.!.!.!.",
"!.!.!.!.!.!.!.    = O W A.A.F.I.W.Q.Q.Q.h.W c.W x.Q.Q.Q.Q.Q.Q.Q.Q.Q.q ~ @.@.@.@.@.@.' g , $ - - - - = , < ! l o R.e   !.!.!.!.!.",
"!.!.!.!.!.!.X i W b.i I D.R.Q.Q.Q.Q.Q.Q.I.B Z.A.A.P.Q.Q.Q.Q.Q.Q.Q.Q.i $ s ~ } +.@.~ i C @ I g.g.g.g.g.g.E .   y b.O !.!.!.!.!.!.",
"!.!.!.!.!.O g.A.A.F.F P Q.Q.Q.Q.Q.Q.Q.Q.Q.W E A.A.A.I.Q.Q.Q.Q.Q.Q.Q.Z.B o   . : a , h.P i j.j.j.j.j.j.j.j.* B D.F   !.!.!.!.!.!.",
"!.!.!.!.  W A.F.R.Q.I I Q.Q.Q.Q.Q.Q.Q.Q.Q.R.y z.A.A.A.P.Q.Q.Q.Q.Q.Q.Q.Q.P.j.G 8 O q j.i G h.j.j.j.h.j.j.j., D.Z.    !.!.!.!.!.!.",
"!.!.!.!.  W A.W.Q.Q.F W Q.Q.Q.Q.Q.Q.Q.Q.Q.Q.Z.q v.A.A.A.F.W.Q.Q.Q.Q.Q.Q.Q.Q.Q.Q.h.q w.y P j.j.j.j.j.j.j.h.@ b.B   !.!.!.!.!.!.!.",
"!.!.!.!.!.G A.W.Q.Q.q g.D.Z.v.Z.v.Z.A.I.Q.Q.W.E f A.A.A.A.A.P.R.Q.Q.Q.Q.Q.Q.Q.Q.Z.y P y i h.j.j.h.j.j.g.P * I   !.!.!.!.!.!.!.!.",
"!.!.!.!.!.q A.F.x.C       * * * O O y i I P.Q.Q.B F S.A.A.A.A.A.F.I.W.Q.Q.Q.Q.Q.J.t P B * P E E E W E I i 8 O   !.!.!.!.!.!.!.!.",
"!.!.!.!.!.!.* . 8 W P.Q.Q.Q.Q.I.8 C A.A.A.Q.Q.Q.I.q G S.A.A.A.A.A.A.D.P.R.W.Q.Q.N.M q G O C P P P P P C O     !.!.!.!.!.!.!.!.!.",
"!.!.!.!.!.!.!.  G D.W.Q.Q.Q.Q.j.  j.A.A.F.Q.Q.Q.Q.F.> C A.A.A.A.A.A.A.A.A.D.D.P.q.:.x . + . = = = = @       !.!.!.!.!.!.!.!.!.!.",
"!.!.!.!.!.!.!.  C D.R.Q.Q.Q.Q.F , S.A.A.R.Q.Q.Q.Q.Q.F.2 y z.A.A.A.A.A.A.A.A.A.b.%.%.%.#.n c c c c b x O   !.!.!.!.!.!.!.!.!.!.!.",
"!.!.!.!.!.!.!.!.y A.R.Q.Q.Q.R.O G A.A.D.Q.Q.Q.Q.Q.Q.K.<.v + C b.A.A.A.A.A.A.S.>.%.%.%.%.%.%.%.%.#.1     !.!.!.!.!.!.!.!.!.!.!.!.",
"!.!.!.!.!.!.!.!.8 A.R.Q.Q.Q.c.o j.A.A.F.Q.Q.Q.Q.Q.Q.s.1.1.&.x ; C h.Z.A.A.A.e.%.%.%.%.%.%.$.M 5 o   !.!.!.!.!.!.!.!.!.!.!.!.!.!.",
"!.!.!.!.!.!.!.!.O A.I.Q.Q.Q.I y Z.A.A.R.Q.Q.Q.Q.Q.H.4.1.1.5.3.&.b & q P g.k.*.%.%.%.#.m c 3     !.!.!.!.!.!.!.!.!.!.!.!.!.!.!.!.",
"!.!.!.!.!.!.!.!.  v.P.Q.Q.F., E A.A.D.W.Q.Q.Q.Q.T.5.1.5.G.Q.Q.K.9.<.-.N B = O             !.!.!.!.!.!.!.!.!.!.!.!.!.!.!.!.!.!.!.",
"!.!.!.!.!.!.!.!.  x.D.Q.Q.E   b.A.A.P.Q.Q.Q.Q.Q.M.1.6.L.Q.Q.Q.Q.C.2.1.a.Q.I.F.D.D.D.=   !.!.!.!.!.!.!.!.!.!.!.!.!.!.!.!.!.!.!.!.",
"!.!.!.!.!.!.!.!.  g.A.R.I.- 9 A.A.A.I.Q.Q.Q.Q.Q.r.1.B.Q.L.M.B.Q.T.r.1.y.Q.Q.Q.Q.Q.D.O !.!.!.!.!.!.!.!.!.!.!.!.!.!.!.!.!.!.!.!.!.",
"!.!.!.!.!.!.!.!.  P A.F.F o W A.A.A.Q.Q.Q.Q.Q.T.2.3.L.Q.9.1.1.E.E.r.1.y.Q.Q.Q.Q.Q.W       !.!.!.!.!.!.!.!.!.!.!.!.!.!.!.!.!.!.!.",
"!.!.!.!.!.!.!.!.!.w A.z.. p Z.A.A.F.Q.Q.Q.Q.Q.G.1.7.W.Q.1.1.5.Q.U.9.1.M.Q.Q.Q.R.g.i j.D.c.i !.!.!.!.!.!.!.!.!.!.!.!.!.!.!.!.!.!.",
"!.!.!.!.!.!.!.!.!.@ c.i . j.A.A.A.R.Q.Q.Q.Q.Q.G.1.7.E.Q.u.6.B.Q.B.1.1.V.Q.Q.F.y G F.Q.Q.Q.R.y !.!.!.!.!.!.!.!.!.!.!.!.!.!.!.!.!.",
"!.!.!.!.!.    !.!.  e X ,.D.A.A.D.W.Q.Q.Q.Q.Q.V.1.2.H.Q.Q.Q.Q.W.t.2.r.W.R.E P S.Q.Q.Q.Q.Q.Q.x.  !.!.!.!.!.!.!.!.!.!.!.!.!.!.!.!.",
"!.!.!.!.  O * .     . h A.D.A.A.A.R.Q.Q.Q.Q.Q.i.1.1.r.U.Q.Q.T.i.2.2.C.R.f.c.R.Q.P.Q.Q.Q.Q.Q.x.  !.!.!.!.!.!.!.!.!.!.!.!.!.!.!.!.",
"!.!.!.!.  P n.) 1 o F S.A.A.A.A.A.D.Q.Q.Q.Q.E.7.1.1.1.4.p.y.7.1.1.y.Q.Q.Q.Q.Q.z.Z.Q.Q.Q.Q.Q.F   !.!.!.!.!.!.!.!.!.!.!.!.!.!.!.!.",
"!.!.!.!.!.i A.A.n.x.A.A.A.A.A.A.A.A.F.R.Q.Q.V.1.1.1.1.1.1.1.1.1.a.Q.Q.Q.Q.Q.b.i F.R.Q.Q.Q.P.O   !.!.!.!.!.!.!.!.!.!.!.!.!.!.!.!.",
"!.!.!.!.!.. j.A.A.A.A.A.A.A.A.A.A.A.A.D.I.R.u.<.<.<.<.<.<.<.<.7.Y.R.I.P.F.D.B h.F.Q.Q.Q.Q.I   !.!.!.!.!.!.!.!.!.!.!.!.!.!.!.!.!.",
"!.!.!.!.!.!.= b.A.A.A.A.A.A.A.A.A.A.A.A.A.n.%.%.&.%.%.%.%.%.%.l.A.A.A.A.A.h.y A.R.Q.Q.Q.P.*   !.!.!.!.!.!.!.!.!.!.!.!.!.!.!.!.!.",
"!.!.!.!.!.!.!.8 g.A.A.A.A.A.A.A.A.A.A.A.A.e.%.%.%.%.%.%.%.%.>.A.A.c.W G i = G D.Q.Q.Q.Q.E   !.!.!.!.!.!.!.!.!.!.!.!.!.!.!.!.!.!.",
"!.!.!.!.!.!.!.!.  i g.c.v.v.c.g.G *   + - 3 5 c v v v v v x 7 q O       !.  g.P.Q.Q.Q.D.  !.!.!.!.!.!.!.!.!.!.!.!.!.!.!.!.!.!.!.",
"!.!.!.!.!.!.!.!.!.!.  O * * O                                 !.!.!.!.!.!.. x.I.Q.Q.Q.C   !.!.!.!.!.!.!.!.!.!.!.!.!.!.!.!.!.!.!.",
"!.!.!.!.!.!.!.!.!.!.!.!.!.!.!.!.!.!.!.!.!.!.!.!.!.!.!.!.!.!.!.!.!.!.!.!.!.> b.P.Q.Q.f.  !.!.!.!.!.!.!.!.!.!.!.!.!.!.!.!.!.!.!.!.",
"!.!.!.!.!.!.!.!.!.!.!.!.!.!.!.!.!.!.!.!.!.!.!.!.!.!.!.!.!.!.!.!.!.!.!.!.!.= b.A.F.c..   !.!.!.!.!.!.!.!.!.!.!.!.!.!.!.!.!.!.!.!.",
"!.!.!.!.!.!.!.!.!.!.!.!.!.!.!.!.!.!.!.!.!.!.!.!.!.!.!.!.!.!.!.!.!.!.!.!.!.  - F z.8   !.!.!.!.!.!.!.!.!.!.!.!.!.!.!.!.!.!.!.!.!.",
"!.!.!.!.!.!.!.!.!.!.!.!.!.!.!.!.!.!.!.!.!.!.!.!.!.!.!.!.!.!.!.!.!.!.!.!.!.!.!.      !.!.!.!.!.!.!.!.!.!.!.!.!.!.!.!.!.!.!.!.!.!.",
"!.!.!.!.!.!.!.!.!.!.!.!.!.!.!.!.!.!.!.!.!.!.!.!.!.!.!.!.!.!.!.!.!.!.!.!.!.!.!.!.!.!.!.!.!.!.!.!.!.!.!.!.!.!.!.!.!.!.!.!.!.!.!.!.",
"!.!.!.!.!.!.!.!.!.!.!.!.!.!.!.!.!.!.!.!.!.!.!.!.!.!.!.!.!.!.!.!.!.!.!.!.!.!.!.!.!.!.!.!.!.!.!.!.!.!.!.!.!.!.!.!.!.!.!.!.!.!.!.!.",
"!.!.!.!.!.!.!.!.!.!.!.!.!.!.!.!.!.!.!.!.!.!.!.!.!.!.!.!.!.!.!.!.!.!.!.!.!.!.!.!.!.!.!.!.!.!.!.!.!.!.!.!.!.!.!.!.!.!.!.!.!.!.!.!.",
"!.!.!.!.!.!.!.!.!.!.!.!.!.!.!.!.!.!.!.!.!.!.!.!.!.!.!.!.!.!.!.!.!.!.!.!.!.!.!.!.!.!.!.!.!.!.!.!.!.!.!.!.!.!.!.!.!.!.!.!.!.!.!.!.",
"!.!.!.!.!.!.!.!.!.!.!.!.!.!.!.!.!.!.!.!.!.!.!.!.!.!.!.!.!.!.!.!.!.!.!.!.!.!.!.!.!.!.!.!.!.!.!.!.!.!.!.!.!.!.!.!.!.!.!.!.!.!.!.!."
};
