/* XPM */
static char *result[] = {
/* columns rows colors chars-per-pixel */
"64 64 102 2 ",
"   c #010101",
".  c #090807",
"X  c #00060C",
"o  c #0B0B0B",
"O  c #110F0E",
"+  c #000A14",
"@  c #0A0E13",
"#  c #010E1B",
"$  c #00101F",
"%  c #141313",
"&  c #191614",
"*  c #1C1917",
"=  c #1B1B1B",
"-  c #201C1A",
";  c #001223",
":  c #0D1722",
">  c #00162D",
",  c #001933",
"<  c #001D3B",
"1  c #232323",
"2  c #2B2623",
"3  c #2F2927",
"4  c #252728",
"5  c #2C2C2C",
"6  c #322C29",
"7  c #37312D",
"8  c #39322F",
"9  c #343434",
"0  c #3B3330",
"q  c #3B3B3B",
"w  c #00254A",
"e  c #002953",
"r  c #002E5B",
"t  c #00356A",
"y  c #003A74",
"u  c #003D7B",
"i  c #22476D",
"p  c #444444",
"a  c #4B4B4B",
"s  c #545454",
"d  c #5C5C5C",
"f  c #54616E",
"g  c #636363",
"h  c #6C6C6C",
"j  c #747474",
"k  c #7C7C7C",
"l  c #004A94",
"z  c #0B5197",
"x  c #075099",
"c  c #125599",
"v  c #1A5B9B",
"b  c #0152A3",
"n  c #0055AA",
"m  c #0058AF",
"M  c #0058B0",
"N  c #005EBC",
"B  c #0063C7",
"V  c #0066CC",
"C  c #0E6CCA",
"Z  c #1573D0",
"A  c #1B76D1",
"S  c #1E78D2",
"D  c #257CD3",
"F  c #3486D6",
"G  c #3C8AD8",
"H  c #458FDA",
"J  c #4D94DB",
"K  c #6AA5E1",
"L  c #848484",
"P  c #8C8C8C",
"I  c #939393",
"U  c #96999C",
"Y  c #9C9C9C",
"T  c #92A7BC",
"R  c #94A9BD",
"E  c #A4A4A4",
"W  c #ABABAB",
"Q  c #B5B5B5",
"!  c #BCBCBC",
"~  c #A0B0C0",
"^  c #A8B5C2",
"/  c #B5BDC6",
"(  c #AEBFD0",
")  c #8EBBE8",
"_  c #BDC1C6",
"`  c #BEC3C9",
"'  c #9BC3EB",
"]  c #C4C4C4",
"[  c #C6C8CA",
"{  c #CCCCCC",
"}  c #D4D4D4",
"|  c #DBDBDB",
" . c #C6DDF3",
".. c #DEE4EA",
"X. c #D2E4F5",
"o. c #E4E4E4",
"O. c #ECECEC",
"+. c #E1EDF9",
"@. c #EFF5FC",
"#. c #F4F4F4",
"$. c #FFFFFF",
"%. c None",
/* pixels */
"%.%.%.%.%.%.%.%.%.%.%.%.%.%.%.%.%.%.%.%.%.%.%.%.%.%.%.%.%.%.%.%.  %.%.%.%.%.%.%.%.%.%.%.%.%.%.%.%.%.%.%.%.%.%.%.%.%.%.%.%.%.%.%.",
"%.%.%.%.%.%.%.%.%.%.%.%.%.%.%.%.%.%.%.%.%.%.%.%.%.        O * - - * & O .         %.%.%.%.%.%.%.%.%.%.%.%.%.%.%.%.%.%.%.%.%.%.%.",
"%.%.%.%.%.%.%.%.%.%.%.%.%.%.%.%.%.%.%.%.%.%.  . & 2 6 0 0 6 6 6 2 2 2 2 6 0 6 2 * O   %.%.%.%.%.%.%.%.%.%.%.%.%.%.%.%.%.%.%.%.%.",
"%.%.%.%.%.%.%.%.%.%.%.%.%.%.%.%.%.%.%.%.  O 2 8 3 - % @ + ; > > , > # $ + + o % - 6 2 o   %.%.%.%.%.%.%.%.%.%.%.%.%.%.%.%.%.%.%.",
"%.%.%.%.%.%.%.%.%.%.%.%.%.%.%.%.%.%.%.  % 6 * O 9 f u n N V V V V V V V N N b U g 1 o * . %.%.%.%.%.%.%.%.%.%.%.%.%.%.%.%.%.%.%.",
"%.%.%.%.%.%.%.%.%.%.%.%.%.%.%.%.%.%.%.  % - h [ $.' V V V V V V V V V V V V V  .$.O.W a .   %.%.%.%.%.%.%.%.%.%.%.%.%.%.%.%.%.%.",
"%.%.%.%.%.%.%.%.%.%.%.%.%.%.%.%.%.%.%.o h o.$.$.$.K V V V V V V V V V V V V V ) $.$.$.$.W 5 %.%.%.%.%.%.%.%.%.%.%.%.%.%.%.%.%.%.",
"%.%.%.%.%.%.%.%.%.%.%.%.%.%.%.%.%.%.= ! $.$.$.$.$.G V V V V V V V V V V V V V K $.$.$.$.$.#.p %.%.%.%.%.%.%.%.%.%.%.%.%.%.%.%.%.",
"%.%.%.%.%.%.%.%.%.%.%.%.%.%.%.%.%.. ] $.$.$.$.$.$.S V V V V V V V V V V V V V J $.$.$.$.$.$.O.1 %.%.%.%.%.%.%.%.%.%.%.%.%.%.%.%.",
"%.%.%.%.%.%.%.%.%.%.%.%.%.%.%.%.  j $.$.$.$.$.$.$.A V V V V V V V V V V V V V H $.$.$.$.$.$.$.E   %.%.%.%.%.%.%.%.%.%.%.%.%.%.%.",
"%.%.%.%.%.%.%.%.%.%.%.%.%.%.%.%.. | $.$.$.$.$.$.$.A V V V V V V V V V V V V V F $.$.$.$.$.$.$.O.% %.%.%.%.%.%.%.%.%.%.%.%.%.%.%.",
"%.%.%.%.%.%.%.%.%.%.%.%.%.%.%.  q $.$.$.$.$.$.$.$.V V V V V V V V V V V V V V D $.$.$.$.$.$.$.$.h   %.%.%.%.%.%.%.%.%.%.%.%.%.%.",
"%.%.%.%.%.%.%.%.%.%.%.%.%.%.%.  U $.$.$.$.$.$.$.$.V V V V V V V V V V V V V V S @.$.$.$.$.$.$.$.!   %.%.%.%.%.%.%.%.%.%.%.%.%.%.",
"%.%.%.%.%.%.%.%.%.%.%.%.%.%.%.  } $.$.$.$.$.$.$.$.V V V V V V V V V V V V V V Z +.$.$.$.$.$.$.$.O.o   %.%.%.%.%.%.%.%.%.%.%.%.%.",
"%.%.%.%.%.%.%.%.%.%.%.%.%.%.  % O.$.$.$.$.$.$.$.@.V B N M n b b b x b b n M N C X.$.$.$.$.$.$.$.$.4     %.%.%.%.%.%.%.%.%.%.%.%.",
"%.%.%.%.%.%.%.%.%.%.%.%.%.  % = $.$.$.$.$.$.$.$...b l l l l l l l l l l l l l x ( #.$.$.$.$.$.$.$.a   . %.%.%.%.%.%.%.%.%.%.%.%.",
"%.%.%.%.%.%.%.%.%.%.%.%.  s 5 q $.$.$.$.$.$.#.| ` l l l l l l l l l l l l l l l T { o.$.$.$.$.$.$.g o L   %.%.%.%.%.%.%.%.%.%.%.",
"%.%.%.%.%.%.%.%.%.%.%.%.= o.1 a $.$.$.$.$.#.} { ` u t l l l l l l l l l l l l l T { { | #.$.$.$.$.k . | 1 %.%.%.%.%.%.%.%.%.%.%.",
"%.%.%.%.%.%.%.%.%.%.%.%.h $.1 d $.$.$.$.#.{ { { ` : 1 u l l l l l l l l l l l l T { { { | $.$.$.$.L o o.s %.%.%.%.%.%.%.%.%.%.%.",
"%.%.%.%.%.%.%.%.%.%.%.  Q $.q p $.$.$.#.} { { { Y q W e l l l l l l l l l l l l T { { { { | $.$.$.k % | q %.%.%.%.%.%.%.%.%.%.%.",
"%.%.%.%.%.%.%.%.%.%.%.%.E $.d 5 $.$.$.| { { { { k s Q , l l l l l l l l l l l l R { { { { { #.$.$.g % Q % %.%.%.%.%.%.%.%.%.%.%.",
"%.%.%.%.%.%.%.%.%.%.%.%.p { j % O.$.#.{ { { { { h g [ ; l l l l l l l l l l l z R { { { { { } $.$.q 9 s   %.%.%.%.%.%.%.%.%.%.%.",
"%.%.%.%.%.%.%.%.%.%.%.%.. Y I   } $.} { { { { { g j } # l l l l l l l l l l l z ^ { { { { { { O.#.% =   %.%.%.%.%.%.%.%.%.%.%.%.",
"%.%.%.%.%.%.%.%.%.%.%.%.%.% I . P #.{ { { { { { g k | X l l l l l l l l l l l z R { { { { { { } {     %.%.%.%.%.%.%.%.%.%.%.%.%.",
"%.%.%.%.%.%.%.%.%.%.%.%.%.%.o . 4 | { { { { { { s k o.X l l l l l l l l l l l z ^ { { { { { { { j   %.%.%.%.%.%.%.%.%.%.%.%.%.%.",
"%.%.%.%.%.%.%.%.%.%.%.%.%.%.%.    W { { { { { { s L O.  l l l l l l l l l l l c / { { { { { { [ =   %.%.%.%.%.%.%.%.%.%.%.%.%.%.",
"%.%.%.%.%.%.%.%.%.%.%.%.%.%.%.%.  p { { { { { { d k O.  l l l l l l l l l l l v [ { { { { { { L   %.%.%.%.%.%.%.%.%.%.%.%.%.%.%.",
"%.%.%.%.%.%.%.%.%.%.%.%.%.%.%.%.%.  Y { { { { { s k $.  l l l l l l l l y r e i Q { { { { { _ %   %.%.%.%.%.%.%.%.%.%.%.%.%.%.%.",
"%.%.%.%.%.%.%.%.%.%.%.%.%.%.%.%.%.  1 ] { Q h s 1 P $.  , , e l l l y + % d k h = h { { { { s   %.%.%.%.%.%.%.%.%.%.%.%.%.%.%.%.",
"%.%.%.%.%.%.%.%.%.%.%.%.%.%.%.%.%.%.  g { h a P q I $.= Y W   < < w X k $.$.$.$.} % k { { P   %.%.%.%.%.%.%.%.%.%.%.%.%.%.%.%.%.",
"%.%.%.%.%.%.%.%.%.%.%.%.%.%.%.%.%.%.%.  j a Y $.k j { % $.$.% L Y s d | k a a s Y g q ! E     %.%.%.%.%.%.%.%.%.%.%.%.%.%.%.%.%.",
"%.%.%.%.%.%.%.%.%.%.%.%.%.%.%.%.%.%.%.      ! $.P d E o $.$.9 { $.g p   a W { ! p . . o o   %.%.%.%.%.%.%.%.%.%.%.%.%.%.%.%.%.%.",
"%.%.%.%.%.%.%.%.%.%.%.%.%.%.%.%.%.%.%.  k 6 Q $.] h h j $.$.a { $.Q   } $.$.$.$.O.6 j k   %.%.%.%.%.%.%.%.%.%.%.%.%.%.%.%.%.%.%.",
"%.%.%.%.%.%.%.%.%.%.%.%.%.%.%.%.%.    1 O.p U | O.k Y o.#.o.9 { $.P h $.$.Y j | $.L a {     %.%.%.%.%.%.%.%.%.%.%.%.%.%.%.%.%.%.",
"%.%.%.%.%.%.%.%.%.%.%.%.%.%.%.%.%.o 4 s $.Q 9 Y { L k ] { Y = $.$.j I $.W s d d $.Y j O.1 4   %.%.%.%.%.%.%.%.%.%.%.%.%.%.%.%.%.",
"%.%.%.%.%.%.%.%.%.%.%.%.%.%.%.%.. W q 1 O.$.W 1 p k P L p 4 } $.$.O.a P 5 o.| 1 a 9 | Q   g k   %.%.%.%.%.%.%.%.%.%.%.%.%.%.%.%.",
"%.%.%.%.%.%.%.%.%.%.%.%.%.%.%.  g O.9 9 g | $.#.Q k h k ! $.$.$.$.$.#.E } $.$.| Q } { a d d O.p   %.%.%.%.%.%.%.%.%.%.%.%.%.%.%.",
"%.%.%.%.%.%.%.%.%.%.%.%.%.%.%.- ] $.4 Q L q h { #.$.$.$.$.$.$.$.$.$.$.$.$.$.$.o.W h h } E s $.Q O %.%.%.%.%.%.%.%.%.%.%.%.%.%.%.",
"%.%.%.%.%.%.%.%.%.%.%.%.%.%.. I o.$.q ] $.o.E j I [ #.$.$.$.$.$.$.$.$.$.$.#.{ P E } $.$.E d $.| h   %.%.%.%.%.%.%.%.%.%.%.%.%.%.",
"%.%.%.%.%.%.%.%.%.%.%.%.%.%.5 { O.$.p W $.$.$.$.$.$.$.$.$.O.I | E ! { $.$.$.$.$.$.$.$.$.U d $.O._ * %.%.%.%.%.%.%.%.%.%.%.%.%.%.",
"%.%.%.%.%.%.%.%.%.%.%.%.%.  j { $.$.d P $.$.$.$.$.$.$.$.$.| 1 ! a L I $.$.$.$.$.$.$.$.$.L k $.#.{ d   %.%.%.%.%.%.%.%.%.%.%.%.%.",
"%.%.%.%.%.%.%.%.%.%.%.%.%.  U { $.$.k j $.$.$.$.$.$.$.$.$.| 1 Q a k I $.$.$.$.$.$.$.$.$.h I $.$.} Y   %.%.%.%.%.%.%.%.%.%.%.%.%.",
"%.%.%.%.%.%.%.%.%.%.%.%.%.. = h O.$.E s $.$.$.$.$.$.$.$.$.| 1 Q p L P $.$.$.$.$.$.$.$.$.s W $.$.] d   %.%.%.%.%.%.%.%.%.%.%.%.%.",
"%.%.%.%.%.%.%.%.%.%.%.%.%.a _ a p o.! 9 #.$.$.$.$.$.$.$.$.O.% [ q Y k $.$.$.$.$.$.$.$.$.q } $.! 1 s = %.%.%.%.%.%.%.%.%.%.%.%.%.",
"%.%.%.%.%.%.%.%.%.%.%.%.  L } $.j q q 1 O.$.$.$.$.$.$.$.$.#.W O.Q | } $.$.$.$.$.$.$.$.O.= W Y 1 Q } s %.%.%.%.%.%.%.%.%.%.%.%.%.",
"%.%.%.%.%.%.%.%.%.%.%.%.. ! | $.$.p     | $.$.$.$.$.$.$.$.$.$.$.$.$.$.$.$.$.$.$.$.$.$.|   o 1 | $.} P   %.%.%.%.%.%.%.%.%.%.%.%.",
"%.%.%.%.%.%.%.%.%.%.%.%.= [ | $.$.p     ! $.$.$.$.$.$.$.$.o.| | #.$.$.$.$.$.$.$.$.$.$.]     L $.$.| Q . %.%.%.%.%.%.%.%.%.%.%.%.",
"%.%.%.%.%.%.%.%.%.%.%.%.. Y { o.o.o k a Y $.#.| } | $.$.$.{ { { } $.$.$.$.$.$.$.$.$.$.E     a $.$.} Q . %.%.%.%.%.%.%.%.%.%.%.%.",
"%.%.%.%.%.%.%.%.%.%.%.%.%.. a Q d o O.j k $.#.} { { o.$.$.} { { | $.$.$.$.$.$.$.$.$.$.L   %.= { { Q q %.%.%.%.%.%.%.%.%.%.%.%.%.",
"%.%.%.%.%.%.%.%.%.%.%.%.%.%.%.. %.% O.U s $.#.{ { { o.$.$.} { { | $.$.O.O.O.O.O.O.$.$.g   %.%.q p o %.%.%.%.%.%.%.%.%.%.%.%.%.%.",
"%.%.%.%.%.%.%.%.%.%.%.%.%.%.%.%.%.  | ! 5 O.#.{ { { o.$.$.} { { | $.$.{ { { { { } $.$.p   %.%.%.%.%.%.%.%.%.%.%.%.%.%.%.%.%.%.%.",
"%.%.%.%.%.%.%.%.%.%.%.%.%.%.%.%.%.  U o.= } $.} { { | $.$.| { { O.$.#.{ { { { { | $.o.=   %.%.%.%.%.%.%.%.%.%.%.%.%.%.%.%.%.%.%.",
"%.%.%.%.%.%.%.%.%.%.%.%.%.%.%.%.%.%.4 #.q W $.} { { { $.$.#.o.o.#.$.O.{ { { { { | $.{     %.%.%.%.%.%.%.%.%.%.%.%.%.%.%.%.%.%.%.",
"%.%.%.%.%.%.%.%.%.%.%.%.%.%.%.%.%.%.  k h k $.| { { { $.$.$.$.$.$.$.O.{ { { { { | $.E     %.%.%.%.%.%.%.%.%.%.%.%.%.%.%.%.%.%.%.",
"%.%.%.%.%.%.%.%.%.%.%.%.%.%.%.%.%.%.%.. 9 p $.o.{ { { O.$.$.$.$.$.$.o.{ { { { { O.$.j   %.%.%.%.%.%.%.%.%.%.%.%.%.%.%.%.%.%.%.%.",
"%.%.%.%.%.%.%.%.%.%.%.%.%.%.%.%.%.%.%.%.  o | O.{ { { } | O.O.o.o.} { { { { { { O.#.q   %.%.%.%.%.%.%.%.%.%.%.%.%.%.%.%.%.%.%.%.",
"%.%.%.%.%.%.%.%.%.%.%.%.%.%.%.%.%.%.%.%.%.  Y $.} { { { { { { { { { { { { { { { #.{ . %.%.%.%.%.%.%.%.%.%.%.%.%.%.%.%.%.%.%.%.%.",
"%.%.%.%.%.%.%.%.%.%.%.%.%.%.%.%.%.%.%.%.%.%.9 Q } { { { { { { { { { { { { { ] W U 9   %.%.%.%.%.%.%.%.%.%.%.%.%.%.%.%.%.%.%.%.%.",
"%.%.%.%.%.%.%.%.%.%.%.%.%.%.%.%.%.%.%.%.%.%.%.    % q d h k P I I I j g p 1         %.%.%.%.%.%.%.%.%.%.%.%.%.%.%.%.%.%.%.%.%.%.",
"%.%.%.%.%.%.%.%.%.%.%.%.%.%.%.%.%.%.%.%.%.%.%.%.%.                        O 4 %   %.%.%.%.%.%.%.%.%.%.%.%.%.%.%.%.%.%.%.%.%.%.%.",
"%.%.%.%.%.%.%.%.%.%.%.%.%.%.%.%.%.%.%.%.%.%.%.%.%.%.%.%.%.%.%.%.%.%.%.%.%.    %.%.%.%.%.%.%.%.%.%.%.%.%.%.%.%.%.%.%.%.%.%.%.%.%.",
"%.%.%.%.%.%.%.%.%.%.%.%.%.%.%.%.%.%.%.%.%.%.%.%.%.%.%.%.%.%.%.%.%.%.%.%.%.%.%.%.%.%.%.%.%.%.%.%.%.%.%.%.%.%.%.%.%.%.%.%.%.%.%.%.",
"%.%.%.%.%.%.%.%.%.%.%.%.%.%.%.%.%.%.%.%.%.%.%.%.%.%.%.%.%.%.%.%.%.%.%.%.%.%.%.%.%.%.%.%.%.%.%.%.%.%.%.%.%.%.%.%.%.%.%.%.%.%.%.%.",
"%.%.%.%.%.%.%.%.%.%.%.%.%.%.%.%.%.%.%.%.%.%.%.%.%.%.%.%.%.%.%.%.%.%.%.%.%.%.%.%.%.%.%.%.%.%.%.%.%.%.%.%.%.%.%.%.%.%.%.%.%.%.%.%."
};
