/* XPM */
static char *result[] = {
/* columns rows colors chars-per-pixel */
"64 64 172 2 ",
"   c #010101",
".  c #0E0B06",
"X  c #000409",
"o  c #0C0C0B",
"O  c #110E07",
"+  c #100F0E",
"@  c #161109",
"#  c #1D170C",
"$  c #000811",
"%  c #070E17",
"&  c #0C121A",
"*  c #0B1118",
"=  c #141313",
"-  c #1A1614",
";  c #1B1916",
":  c #1C1C1B",
">  c #171819",
",  c #211A0D",
"<  c #221D1C",
"1  c #2C2312",
"2  c #24201F",
"3  c #262013",
"4  c #372C16",
"5  c #3E3119",
"6  c #001326",
"7  c #01152A",
"8  c #001A34",
"9  c #001D3A",
"0  c #161E27",
"q  c #0C233B",
"w  c #232323",
"e  c #2B2725",
"r  c #2F2926",
"t  c #2B2B2B",
"y  c #322E2B",
"u  c #37302D",
"i  c #39322E",
"p  c #333333",
"a  c #3D3532",
"s  c #3B3A3A",
"d  c #3F3834",
"f  c #41341A",
"g  c #4B3C1E",
"h  c #423A36",
"j  c #463E39",
"k  c #554422",
"l  c #5D4B25",
"z  c #49413D",
"x  c #665129",
"c  c #69542A",
"v  c #6E582C",
"b  c #775F2F",
"n  c #776030",
"m  c #002141",
"M  c #00254A",
"N  c #002953",
"B  c #002F5F",
"V  c #08315B",
"C  c #303A45",
"Z  c #003366",
"A  c #00356A",
"S  c #003E7B",
"D  c #003971",
"F  c #3D4248",
"G  c #18416A",
"H  c #444444",
"J  c #4D4540",
"K  c #4C4C4C",
"L  c #534A45",
"P  c #564D48",
"I  c #584E49",
"U  c #5B524C",
"Y  c #545454",
"T  c #5C5C5C",
"R  c #625752",
"E  c #645953",
"W  c #695D57",
"Q  c #656565",
"!  c #6C6B6B",
"~  c #666768",
"^  c #766862",
"/  c #7A6B65",
"(  c #7F7069",
")  c #737373",
"_  c #7C7C7C",
"`  c #846A35",
"'  c #8E7239",
"]  c #96783C",
"[  c #9F7F40",
"{  c #84746D",
"}  c #A48342",
"|  c #BC974C",
" . c #C8A050",
".. c #D7AC56",
"X. c #DDB158",
"o. c #EABB5E",
"O. c #E7B95C",
"+. c #EFBF60",
"@. c #F4C362",
"#. c #F9C763",
"$. c #FFCC66",
"%. c #004284",
"&. c #004589",
"*. c #00488F",
"=. c #004A94",
"-. c #004D9B",
";. c #084F97",
":. c #04519D",
">. c #0B5197",
",. c #26639F",
"<. c #0053A5",
"1. c #0057AD",
"2. c #0059B3",
"3. c #005EBC",
"4. c #2566A8",
"5. c #3C70A5",
"6. c #3C73AC",
"7. c #0062C3",
"8. c #0066CC",
"9. c #0569CD",
"0. c #0A6CCE",
"q. c #0D6AC7",
"w. c #1975D1",
"e. c #297FD4",
"r. c #227BD3",
"t. c #3787D6",
"y. c #448FDA",
"u. c #579ADD",
"i. c #5499DD",
"p. c #4B93DB",
"a. c #67A3E1",
"s. c #7FB0E2",
"d. c #73ABE3",
"f. c #838383",
"g. c #8B8B8B",
"h. c #939393",
"j. c #9A9A9A",
"k. c #92A7BD",
"l. c #A4A4A4",
"z. c #ABABAB",
"x. c #B3B3B3",
"c. c #BCBCBC",
"v. c #B4B8BD",
"b. c #89B4DF",
"n. c #A4B4C3",
"m. c #83B5E6",
"M. c #8CBAE8",
"N. c #93BEE9",
"B. c #BBC1C7",
"V. c #9CC4EB",
"C. c #BFD9F2",
"Z. c #B9D5F1",
"A. c #A2C7EC",
"S. c #C4C4C4",
"D. c #CCCCCC",
"F. c #C4C7CB",
"G. c #D3D3D3",
"H. c #DCDCDC",
"J. c #C7DDF4",
"K. c #DDE6EF",
"L. c #CEE2F5",
"P. c #D4E5F6",
"I. c #DFECF8",
"U. c #DBE8F5",
"Y. c #E4E4E4",
"T. c #ECECEC",
"R. c #E2EEF9",
"E. c #EBF1F8",
"W. c #F4F4F4",
"Q. c #F4F8FD",
"!. c #FFFFFF",
"~. c None",
/* pixels */
"~.~.~.~.~.~.~.~.~.~.~.~.~.~.~.~.~.~.~.~.~.~.~.~.~.~.~.~.~.~.~.~.~.~.~.~.~.~.~.~.~.~.~.~.~.~.~.~.~.~.~.~.~.~.~.~.~.~.~.~.~.~.~.~.",
"~.~.~.~.~.~.~.~.~.~.~.~.~.~.~.~.~.~.~.~.~.~.~.~.~.~.~.~.~.~.~.~.~.~.~.~.~.~.~.~.~.~.~.~.~.~.~.~.~.~.~.~.~.~.~.~.~.~.~.~.~.~.~.~.",
"~.~.~.~.~.~.~.~.~.~.~.~.~.~.    X $ $ $ $ $ X           ~.~.~.~.~.~.~.~.~.~.~.~.~.~.~.~.~.~.~.~.~.~.~.~.~.~.~.~.~.~.~.~.~.~.~.~.",
"~.~.~.~.~.~.~.~.~.~.~.    w V %.1.2.2.2.2.2.1.-.D N 8 0 @       ~.~.~.~.~.~.~.~.~.~.~.~.~.~.~.~.~.~.~.~.~.~.~.~.~.~.~.~.~.~.~.~.",
"~.~.~.~.~.~.~.~.~.~.  j c.E.9.8.8.8.8.8.8.8.8.8.8.8.0.U.Y.S.T t       ~.~.~.~.~.~.~.~.~.~.~.~.~.~.~.~.~.~.~.~.~.~.~.~.~.~.~.~.~.",
"~.~.~.~.~.~.~.~.  Y D.!.W.n.=.%.%.&.=.=.<.2.8.8.8.8.m.!.!.!.!.!.T.l.Y     ~.~.~.~.~.~.~.~.~.~.~.~.~.~.~.~.~.~.~.~.~.~.~.~.~.~.~.",
"~.~.~.~.~.~.~.~.Y H.l.Y t > + o = = = * * & 6 m A 4.K.!.!.!.!.!.!.!.W.S.H     ~.~.~.~.~.~.~.~.~.  ~.~.~.~.~.~.~.~.~.~.~.~.~.~.~.",
"~.~.~.~.~.~.~.  K = > j J L I I I I I I L J z u = . w l.W.!.!.!.!.!.!.!.!.h.o   ~.~.~.~.~.~.~.  p o ~.~.~.~.~.~.~.~.~.~.~.~.~.~.",
"~.~.~.~.~.~.    < J P P P I P P P P P P P P P P L L a o t c.!.!.!.!.!.!.!.!.S.:   ~.~.~.~.~.~.= S.: ~.~.~.~.~.~.~.~.~.~.~.~.~.~.",
"~.~.~.~.~.~.  ; j I P I P I R E W W E U I P P P I P P h - o h.!.!.!.!.!.!.!.!.c.o   ~.~.~.~.~.: Y.= ~.~.~.~.~.~.~.~.~.~.~.~.~.~.",
"~.~.~.~.~.  = h L P P U ^ { { { { { { { ( ^ W P I I P L h y o f.!.!.!.!.!.!.!.!.x.  ~.~.~.~.~.y !.t ~.~.~.~.~.~.~.~.~.~.~.~.~.~.",
"~.~.~.~.~.  r j I I R ( { { { { { { { { { { { { R P P P j h < + G.!.!.!.!.!.!.!.!.Q   ~.~.~.  Y !.t ~.~.~.~.~.~.~.~.~.~.~.~.~.~.",
"~.~.~.~.  = i J I U { { { { { { { { { { { { { { { R P P j h u O T !.!.!.!.!.!.!.W.G.: ~.~.~.  ! !.t ~.~.~.~.~.~.~.~.~.~.~.~.~.~.",
"~.~.~.~.  ; a z L a d u u y d j L L U E ( { { { { ^ P P j h u = = !.!.!.!.!.!.!.!.D.)   ~.~.  _ !.t ~.~.~.~.~.~.~.~.~.~.~.~.~.~.",
"~.~.~.~.  < a d   O g k l c k k g 5 f 1 1 1 - ; r h h L h h y -   !.!.!.!.!.!.!.W.D.c.  ~.~.  _ !.t ~.~.~.~.~.~.~.~.~.~.~.~.~.~.",
"~.~.~.~.  = e a   c $.$.$.$.$.$.$.$.$.$.$.$.$.+.| x # w h h y -   !.!.!.!.!.!.g.: Q D.w ~.~.  h.!.t ~.~.~.~.~.~.~.~.~.~.~.~.~.~.",
"~.~.~.~.  . ; w   ] $.$.$.$.$.$.$.$.$.$.$.$.$.$.$.$.+.l - a e - : !.!.!.!.Q._ t g.: l.Y   ~.  h.!.t ~.~.~.~.~.~.~.~.~.~.~.~.~.~.",
"~.~.~.~.  ) + -   | $.$.$.$.$.$.$.$.$.$.$.@.$.$.$.$.$.#.g = w @ s !.!.!.!.H.0 x.D.) ! f.  ~.  _ G.w ~.~.~.~.~.~.~.~.~.~.~.~.~.~.",
"~.~.~.    !.l.+ . X.$.' ` $.$.$.$.$.$.$.] 4 #.$.$.$.$.$.c   = o ) !.!.!.!.) } Z.G.H.d j.o t t w : =       ~.~.~.~.~.~.~.~.~.~.~.",
"~.~.~.    !.!.g.1 o.$.5 k $.$.$.$.$.$.$.5 @ o.$.$.$.$.$.c K H   c.!.!.!.W.2 x.G.!.!.t z.F !.!.!.W.Y.D.j.H =   ~.~.~.~.~.~.~.~.~.",
"~.~.~.    T.!.f.g #.$.. k $.$.$.$.$.$.$.@ @ o.$.$.$.$.$.x Q G.K T.!.!.!.G.: S.Y.!.!.w z.H !.!.!.!.!.!.!.!.x.= ~.~.~.~.~.~.~.~.~.",
"~.~.~.~.  Y.!.Q v $.@.  l $.$.$.$.$.$.O.  # @.$.$.$.$.$.x _ !.!.!.!.!.!.c.p D.W.!.!.: l.o - o     : H j.S.D.f.  ~.~.~.~.~.~.~.~.",
"~.~.~.~.  S.W.H ' $.$.  c $.$.$.$.$.$...  , @.$.$.$.$.$.k h.!.!.!.!.!.!.x.p D.T.!.F.p g.Y j.l.S.S.c.j.K = Q j.  ~.~.~.~.~.~.~.~.",
"~.~.~.~.  j.T.s [ $.$., n $.$.$.$.$.$.@.  3 $.$.$.$.$.$.g l.!.!.!.!.!.!.F.e D.H.!.) Y T Q l.H.!.!.!.!.!.j.: p   ~.~.~.~.~.~.~.~.",
"~.~.~.~.  Y W.p } $.$.| X.$.$.$.$.$.$.$.# 5 $.$.$.$.$.$.5 x.!.!.!.!.!.!.W.= x.D.D.: j.w w >     w T h.G.!.z.  ~.~.~.~.~.~.~.~.~.",
"~.~.~.~.  w T.Y ' $.$.$.@.o.o.@.@.@.$.$.' ] $.$.$.$.$.$.1 S.!.!.!.!.!.!.!.! T c.Q u z.Q G.c.l.g.) K : = ! x.H   ~.~.~.~.~.~.~.~.",
"~.~.~.~.~.  S.! k  .g 1 # @ @ # # 3 l } X.$.$.$.$.$.$.@.3 H.!.!.!.!.!.!.!.Y.s = o z.Y H.!.!.W.Y.G.D.c.g.  o H   ~.~.~.~.~.~.~.~.",
"~.~.~.~.~.  ! j.    Y g.g.g.f._ ) ~ : e 2 ` #.$.$.#. .n ; Y.!.!.!.!.!.!.!.!.H.x.v.z.Y !.!.!.!.!.!.Y.G.c.= ! p     ~.~.~.~.~.~.~.",
"~.~.~.~.~.  t H.T = f.j.j.j.j.j.j.j.! K g.u ] ] x 4 .   s W.!.!.!.!.!.!.!.Y.G.D.D.s x.!.!.!.!.!.!.!.W.j.t D.S.f.s   ~.~.~.~.~.~.",
"~.~.~.~.~.~.  f.!.s g.j.j.h.j.j.j.j.f.= j.T       o z B.W.!.!.!.!.!.!.!.Y.D.D.D.h.H !.!.!.!.!.!.!.!.!.z.Y !.H.D.S.H ~.~.~.~.~.~.",
"~.~.~.~.~.~.  = H.u _ j.j.j.j.j.j.j.f.o h.Y H x.G.!.!.!.!.!.!.!.!.!.!.H.D.D.D.z.: H.!.!.!.!.!.!.!.!.!.z.T !.!.Y.D.l.  ~.~.~.~.~.",
"~.~.~.~.~.~.~.  ~ s K h.j.j.h.j.j.j.! - ! K f.!.!.!.!.!.!.!.!.!.!.T.G.D.D.D.S.p j.!.!.Y.Y.H.Y.Y.T.W.!.x.H !.!.!.G.f.~.~.~.~.~.~.",
"~.~.~.~.~.~.~.~.  s w ! ) _ f._ _ ! p t Q s v.!.!.!.!.!.!.!.W.Y.G.D.D.D.D.D.s ) !.H.Q t : o o = : w p p = x.!.!.D.K ~.~.~.~.~.~.",
"~.~.~.~.~.~.~.~.      K ~ Q Q Q Q Q o Y K 7 b.!.!.!.!.!.T.H.G.D.D.D.D.D.S.H H W.!.!.G.D.D.Y w c.x.j.f._ Q w s g.g.: ~.~.~.~.~.~.",
"~.~.~.~.~.~.~.~.~.      : u p s s < o s * :.t.W.W.Y.G.D.D.D.D.D.D.D.D.S.H s W.!.!.!.H.D.D.) = Y.!.!.!.!.!.W.) o   ~.~.~.~.~.~.~.",
"~.~.~.~.~.~.~.~.~.~.  o q N m 6 7 7 M Z &.-.:.k.D.D.D.D.D.D.D.D.D.D.x.t H T.!.!.!.!.Y.D.D.g.  c.!.!.!.!.!.W.D.= ~.~.~.~.~.~.~.~.",
"~.~.~.~.~.~.~.~.~.~.~.    9 &.=.=.=.=.=.=.=.=.5.D.F.D.D.D.D.D.D.D.) > M K.!.!.!.!.!.W.D.D.c.  _ !.!.!.!.!.T.D.  ~.~.~.~.~.~.~.~.",
"~.~.~.~.~.~.~.~.~.~.~.~.~.  X N *.=.=.=.=.=.=.=.v.F.D.D.D.D.x.) = 7 -.8.J.!.!.!.!.!.W.D.D.D.e H !.!.!.!.!.Y.c.  ~.~.~.~.~.~.~.~.",
"~.~.~.~.~.~.~.~.~.~.~.~.~.~.~.  $ 8 B S *.=.=.=.4.B.S.x.g.H & 7 %.7.8.8.m.!.!.!.!.!.!.G.D.D.Q : H.!.!.!.!.Y.z.  ~.~.~.~.~.~.~.~.",
"~.~.~.~.~.~.~.~.~.~.~.~.~.~.~.~.~.    X 6 9 9 9 9 C p = 8 Z 4.s.N.d.w.8.w.I.!.!.!.!.!.K.D.D.l.  z.!.!.!.!.H.l.  ~.~.~.~.~.~.~.~.",
"~.~.~.~.~.~.~.~.~.~.~.~.~.~.~.~.~.~.~.  t g.g.g.l.x.D.0.8.w.Q.!.!.!.I.w.8.p.!.!.!.!.!.T.D.D.S.: ! !.!.!.!.G.h.  ~.~.~.~.~.~.~.~.",
"~.~.~.~.~.~.~.~.~.~.~.~.~.~.~.~.~.      : !.!.!.!.!.R.8.8.N.!.Q.U.Q.!.L.9.0.R.!.!.!.!.!.D.D.D.H s !.!.!.Y.D.)   ~.~.~.~.~.~.~.~.",
"~.~.~.~.~.~.~.~.~.~.~.~.~.~.~.~.  T h._ o x.!.!.!.!.P.8.8.L.!.m.9.i.E.!.t.8.Z.!.!.!.!.!.G.D.D.!   H.!.!.H.D.H   ~.~.~.~.~.~.~.~.",
"~.~.~.~.~.~.~.~.~.~.~.~.~.~.~.o c.!.!.!.H.t f.W.!.!.U.8.8.P.!.u.8.8.V.!.a.8.M.!.!.!.!.!.Y.D.D.l.  _ !.!.G.D.w ~.~.~.~.~.~.~.~.~.",
"~.~.~.~.~.~.~.~.~.~.~.~.~.~.  T !.!.!.!.!.T.! T W.!.Q.9.8.N.!.A.9.9.Z.!.a.8.m.!.!.!.!.!.Y.D.D.S.s : H.Y.D.c.= ~.~.~.~.~.~.~.~.~.",
"~.~.~.~.~.~.~.~.~.~.~.~.~.~.  _ !.!.!.!.!.!.!.S.I Y.!.y.8.r.!.!.P.J.!.!.t.8.M.!.!.!.!.!.W.D.D.D.h.  _ G.D.j.  ~.~.~.~.~.~.~.~.~.",
"~.~.~.~.~.~.~.~.~.~.~.~.~.~.  s !.!.!.!.!.H.H.!.Q.l.Y.J.0.8.m.!.!.!.!.P.9.8.V.!.!.!.!.!.!.G.D.D.D.w = c.D.~   ~.~.~.~.~.~.~.~.~.",
"~.~.~.~.~.~.~.~.~.~.~.~.~.~.  = Y.!.!.!.!.H.) W.!.!.Q.!.i.8.0.a.P.R.Z.e.8.8.i.!.!.!.!.!.!.D.D.D.D.f.o K x.w ~.~.~.~.~.~.~.~.~.~.",
"~.~.~.~.~.~.~.~.~.~.~.~.~.~.~.  z.!.!.!.!.D.T f.!.!.!.!.E.t.8.8.9.0.9.8.8.8.9.Q.!.!.!.!.Y.D.D.D.D.D.Y   :         ~.~.~.~.~.~.~.",
"~.~.~.~.~.~.~.~.~.~.~.~.~.~.~.  t !.!.!.!.Y.h.t D.G.Y.Y.Q.E.9.8.8.8.8.8.8.8.8.J.!.!.!.Y.G.D.D.D.D.D.S.H   o H ) s ~.~.~.~.~.~.~.",
"~.~.~.~.~.~.~.~.~.~.~.~.~.~.~.~.  S.!.!.!.W.c.w z.S.D.D.D.G.6.<.1.1.2.3.3.3.7.m.!.T.H.D.D.D.D.D.D.D.D.S._ f.D.D.T ~.~.~.~.~.~.~.",
"~.~.~.~.~.~.~.~.~.~.~.~.~.~.~.~.  Y !.!.!.!.D.s o w H g.F.F.n.>.=.=.=.=.=.=.=.5.D.D.D.D.D.D.D.D.D.D.D.D.D.D.D.l.= ~.~.~.~.~.~.~.",
"~.~.~.~.~.~.~.~.~.~.~.~.~.~.~.~.~.  D.!.!.!.G.Y ~.~.~.  - H Q G S *.=.=.=.=.=.>.F.D.D.D.D.D.D.D.D.D.D.D.D.D.c.t ~.~.~.~.~.~.~.~.",
"~.~.~.~.~.~.~.~.~.~.~.~.~.~.~.~.~.  H !.!.!.G.Q ~.~.~.~.~.          % 8 9 8 9 8 F K K T j.S.D.D.D.D.D.D.S.j.w ~.~.~.~.~.~.~.~.~.",
"~.~.~.~.~.~.~.~.~.~.~.~.~.~.~.~.~.~.  x.W.Y.D.~   ~.~.~.~.~.~.~.~.~.~.~.                  w T z.D.D.z.! t   ~.~.~.~.~.~.~.~.~.~.",
"~.~.~.~.~.~.~.~.~.~.~.~.~.~.~.~.~.~.  o z.S.j.s ~.~.~.~.~.~.~.~.~.~.~.~.~.~.~.~.~.~.~.~.~.~.~.        ~.~.~.~.~.~.~.~.~.~.~.~.~.",
"~.~.~.~.~.~.~.~.~.~.~.~.~.~.~.~.~.~.~.  w =     ~.~.~.~.~.~.~.~.~.~.~.~.~.~.~.~.~.~.~.~.~.~.~.~.~.~.~.~.~.~.~.~.~.~.~.~.~.~.~.~.",
"~.~.~.~.~.~.~.~.~.~.~.~.~.~.~.~.~.~.~.~.~.~.~.~.~.~.~.~.~.~.~.~.~.~.~.~.~.~.~.~.~.~.~.~.~.~.~.~.~.~.~.~.~.~.~.~.~.~.~.~.~.~.~.~.",
"~.~.~.~.~.~.~.~.~.~.~.~.~.~.~.~.~.~.~.~.~.~.~.~.~.~.~.~.~.~.~.~.~.~.~.~.~.~.~.~.~.~.~.~.~.~.~.~.~.~.~.~.~.~.~.~.~.~.~.~.~.~.~.~.",
"~.~.~.~.~.~.~.~.~.~.~.~.~.~.~.~.~.~.~.~.~.~.~.~.~.~.~.~.~.~.~.~.~.~.~.~.~.~.~.~.~.~.~.~.~.~.~.~.~.~.~.~.~.~.~.~.~.~.~.~.~.~.~.~.",
"~.~.~.~.~.~.~.~.~.~.~.~.~.~.~.~.~.~.~.~.~.~.~.~.~.~.~.~.~.~.~.~.~.~.~.~.~.~.~.~.~.~.~.~.~.~.~.~.~.~.~.~.~.~.~.~.~.~.~.~.~.~.~.~.",
"~.~.~.~.~.~.~.~.~.~.~.~.~.~.~.~.~.~.~.~.~.~.~.~.~.~.~.~.~.~.~.~.~.~.~.~.~.~.~.~.~.~.~.~.~.~.~.~.~.~.~.~.~.~.~.~.~.~.~.~.~.~.~.~.",
"~.~.~.~.~.~.~.~.~.~.~.~.~.~.~.~.~.~.~.~.~.~.~.~.~.~.~.~.~.~.~.~.~.~.~.~.~.~.~.~.~.~.~.~.~.~.~.~.~.~.~.~.~.~.~.~.~.~.~.~.~.~.~.~.",
"~.~.~.~.~.~.~.~.~.~.~.~.~.~.~.~.~.~.~.~.~.~.~.~.~.~.~.~.~.~.~.~.~.~.~.~.~.~.~.~.~.~.~.~.~.~.~.~.~.~.~.~.~.~.~.~.~.~.~.~.~.~.~.~."
};
