/* XPM */
static char *result[] = {
/* columns rows colors chars-per-pixel */
"64 64 174 2 ",
"   c #010101",
".  c #080707",
"X  c #00050B",
"o  c #0C0C0C",
"O  c #07090A",
"+  c #120F0B",
"@  c #1B160C",
"#  c #18140C",
"$  c #000912",
"%  c #141413",
"&  c #191717",
"*  c #1C1B1B",
"=  c #1B1918",
"-  c #0F151A",
";  c #221B0E",
":  c #221E1C",
">  c #241E13",
",  c #2A2212",
"<  c #26211F",
"1  c #29251C",
"2  c #322916",
"3  c #3C3018",
"4  c #001326",
"5  c #01162B",
"6  c #011C37",
"7  c #232222",
"8  c #2B2624",
"9  c #2F2927",
"0  c #2B2B2B",
"q  c #332C2A",
"w  c #39322F",
"e  c #323232",
"r  c #3D3632",
"t  c gray23",
"y  c #262C33",
"u  c #413419",
"i  c #4A3B1E",
"p  c #423A36",
"a  c #443C38",
"s  c #433822",
"d  c #534321",
"f  c #5C4A25",
"g  c #4B423E",
"h  c #604D26",
"j  c #665229",
"k  c #6B562B",
"l  c #735C2E",
"z  c #7A6231",
"x  c #012244",
"c  c #0C2846",
"v  c #002953",
"b  c #002D5A",
"n  c #03305D",
"m  c #183A5D",
"M  c #203F5F",
"N  c #01366B",
"B  c #003366",
"V  c #003C78",
"C  c #3F4143",
"Z  c #434343",
"A  c #4E4541",
"S  c #4B4B4B",
"D  c #544B46",
"F  c #564D48",
"G  c #584D49",
"H  c #5A514B",
"J  c #535353",
"K  c #5C5C5C",
"L  c #60544F",
"P  c #615650",
"I  c #645953",
"U  c #685C56",
"Y  c #6D615B",
"T  c #5E6771",
"R  c #646464",
"E  c #6C6C6C",
"W  c #796A64",
"Q  c #7A6B64",
"!  c #737373",
"~  c #7D7D7D",
"^  c #73777C",
"/  c #836934",
"(  c #8F7339",
")  c #9A7B3D",
"_  c #84746D",
"`  c #9F8040",
"'  c #AD8A45",
"]  c #A68542",
"[  c #B28F48",
"{  c #BC964B",
"}  c #B49048",
"|  c #C69F4F",
" . c #CCA352",
".. c #D9AE57",
"X. c #D4AA55",
"o. c #EBBC5E",
"O. c #E5B85C",
"+. c #EFBF60",
"@. c #F4C361",
"#. c #F8C763",
"$. c #FFCC66",
"%. c #00458A",
"&. c #004488",
"*. c #004A94",
"=. c #004D9B",
"-. c #135597",
";. c #095097",
":. c #205E9D",
">. c #23609E",
",. c #0051A2",
"<. c #0055AA",
"1. c #0059B3",
"2. c #005EBC",
"3. c #366DA3",
"4. c #2D67A0",
"5. c #5A7999",
"6. c #6D7680",
"7. c #487BAD",
"8. c #0066CC",
"9. c #0469CD",
"0. c #0A6CCE",
"q. c #0463C2",
"w. c #1E6FC1",
"e. c #1271CF",
"r. c #1875D1",
"t. c #327FCC",
"y. c #247CD3",
"u. c #3485D6",
"i. c #3B89D8",
"p. c #4790DA",
"a. c #559ADD",
"s. c #4D8ECF",
"d. c #64A2E0",
"f. c #6FA9E2",
"g. c #73ABE3",
"h. c #7EB2E5",
"j. c #838383",
"k. c #8B8B8B",
"l. c #8A8F94",
"z. c #949494",
"x. c #9A9A9A",
"c. c #98ABBE",
"v. c #8EA4BB",
"b. c #A3A3A3",
"n. c #ABABAB",
"m. c #B4B4B4",
"M. c #BDBDBD",
"N. c #9DAEC0",
"B. c #9BB3CC",
"V. c #ADB7C1",
"C. c #93BEEA",
"Z. c #8BB9E8",
"A. c #BCC6CF",
"S. c #9BC3EB",
"D. c #A3C8ED",
"F. c #B1D0EF",
"G. c #BED8F2",
"H. c #C3C3C3",
"J. c #CCCCCC",
"K. c #D4D3D3",
"L. c #DBDBDB",
"P. c #D4DEE8",
"I. c #C4DBF3",
"U. c #CADFF4",
"Y. c #D9E9F7",
"T. c #D9E8F8",
"R. c #E3E3E3",
"E. c #EBEBEB",
"W. c #E2EEF9",
"Q. c #EAF1F8",
"!. c #F4F4F4",
"~. c #FFFFFF",
"^. c #F5F9FD",
"/. c None",
/* pixels */
"/./././././././././././././././././././././././././././././././././././././././././././././././././././././././././././././././.",
"/./././././././././././././././././././././././././././././././././././././././././././././././././././././././././././././././.",
"/./././././././././././././././././././././././././././././././././././././././././././././././././././././././././././././././.",
"/././././././././././././././././././././././././././././././././././././.          X X $ $ $ X     /./././././././././././././.",
"/./././././././././././././././././././././././././././././././.          $ 5 B ,.1.1.1.2.2.2.2.,.n 7     /././././././././././.",
"/././././././././././././././././././././././././././././.      % J j.M.P.e.8.8.8.8.8.8.8.8.8.8.8.8.W.J.E o   /././././././././.",
"/././././././././././././././././././././././././././.    & K b.L.~.~.~.~.h.9.8.8.8.q.<.<.,.=.%.&.*.B.E.^.J.K . /./././././././.",
"/././././././././././././././.    /././././././././.  . E R.~.~.~.~.~.~.~.^.t.*.b 5 $ X . o % # o o o % 0 z.E.!   /././././././.",
"/././././././././././././././.Z K   /././././././.  S L.~.~.~.~.~.~.~.^.M.J o + 0 r g F F F F F F F F D p 8 % t   /././././././.",
"/././././././././././././././.E b.  /./././././.  E E.~.~.~.~.~.~.~.R.R o < a D F F F F F F F F F F F F F F A 8     /./././././.",
"/././././././././././././././.E M.  /././././.  ~ ~.~.~.~.~.~.~.~.J.% + w F F G F F F F G I Y Y U P H F F F F A 8 .   /././././.",
"/./././././././././././././.  j.K.  /./././.  J ^.~.~.~.~.~.~.~.K.: : p A F F G F P Y Q _ _ _ _ _ _ _ W P F G D p *   /././././.",
"/./././././././././././././.  ~ R.o /././.  * R.~.~.~.~.~.~.~.^.Z % a a D F G H Q _ _ _ _ _ _ _ _ _ _ _ _ U F F a q o /././././.",
"/./././././././././././././.  j.E.% /././.  x.!.~.~.~.~.~.~.~.n.. 8 a a F F H Q _ _ _ _ _ _ _ _ _ _ _ _ _ _ U D D p =   /./././.",
"/./././././././././././././.  ~ E.% /././.e J.!.~.~.~.~.~.~.~.S o q p a D G Y _ _ _ _ W I H G g g g p p r r r a A p <   /./././.",
"/./././././././././././././.  z.!.7 /./.  j.J.E.~.~.~.~.~.~.~.0 % 9 p p D g G g 9 = # @ ; , 3 u d d j h d d @   q r <   /./././.",
"/./././././././././././././.  z.!.7 /./.  M.n.R x.~.~.~.~.~.~.e # 8 a a w # d ) | ..O.o.#.$.$.$.$.$.$.$.$.$.)   9 9 &   /./././.",
"/./././././././././././././.  z.!.* /./.7 J.0 Z & ~ ~.~.~.~.~.S + < p 9 @ { $.$.$.$.$.$.$.$.$.$.$.$.$.$.$.$. .  * : .     /././.",
"/./././././././././././././.  K z.&     Z b.0 J.m.& H.~.~.~.~.j.o < : ; o.$.$.$.$.$.#.#.$.$.$.$.$.$.$.$.#.$.O.; % % k.7   /././.",
"/././././././././././.    % 0 J K E R 7 K E E K.J.k.S ~.~.~.~.H.. = O 3 $.$.$.$.$.$.z f $.$.$.$.$.$.$.} j $.#.i + k.~.0   /././.",
"/./././././././././.o J k.J.^.~.~.~.~.E ! J n.^.L.M.= L.~.~.~.R.% o ! 3 $.$.$.$.$.$.u + $.$.$.$.$.$.$./ . @.$.k S ~.~.r   /././.",
"/././././././././.. z.E.~.~.E.L.L.R.E.R ^ Z M.~.!.J.Z z.~.~.~.~.Z z.M., $.$.$.$.$.$.u    .$.$.$.$.$.$.)   | $.( e !.~.0   /././.",
"/././././././././.* H.b.E r e 0 0 8 0 % R S m.~.^.J.K ! ~.~.~.~.E.~.L.> $.$.$.$.$.$.i   ( $.$.$.$.$.$.`   } $.[ o R.~.*   /././.",
"/././././././././.* ~ + C b.L.E.E.L.n.! S K j.~.~.J.R E ~.~.~.~.~.~.L., #.$.$.$.$.$.d   l $.$.$.$.$.$.'   ' $. .  K.^..   /././.",
"/././././././././.  o z.~.~.~.~.~.~.J.b.0 k.t ~.!.J.U ! ~.~.~.~.~.~.R.1 o.$.$.$.$.$.f   z $.$.$.$.$.$.{   ..$.O.  H.K.  /./././.",
"/././././././././.  R !.^.R.n.j.J 0 7 & . n.% J.K.J.t l.~.~.~.~.~.~.E.1 O.$.$.$.$.$.l   ' $.$.$.$.$.$.+.' $.$.O.  J.n.  /./././.",
"/././././././././.7 H.n.e o . 0 S R k.x.^ j.J J J.n.O K.~.~.~.~.~.~.!.0 ..$.$.$.$.$.{ i #.$.$.$.$.$.$.$.$.$.$.X.O L.K   /./././.",
"/./././././././.  S * o S x.H.J.L.E.^.~.^.t m.& Z 8 k.~.~.~.~.~.~.~.~.e { $.$.$.$.$.$.@.] z d 3 , 2 > # ; 3 / j * K.%   /./././.",
"/./././././././.  o % S J.J.L.!.^.~.~.~.~.R k.x.R x.!.~.~.~.~.~.~.~.~.S k ..@.$.$.$...s 7 . S E ~ j.k.j.! K o   J m.  /././././.",
"/././././././.. t n.^ e J.!.~.~.~.~.~.~.~.R.8 H.J.J.R.~.~.~.~.~.~.~.~.R   . @ d '  ., ! ^ 0 x.x.x.x.z.x.x.x.7 t R.E   /././././.",
"/././././.  t n.J.L.b.& ^.~.~.~.~.~.~.~.~.~.j.R J.J.J.R.~.~.~.~.~.~.~.~.M.R *   X   0 z.J K x.x.z.x.x.x.x.x.e n.H.%   /././././.",
"/././././.7 J.J.R.~.H.o ~.~.~.~.~.~.~.~.~.~.!.7 x.J.J.J.R.^.~.~.~.~.~.~.~.~.~.R.x.K 0 k.t Y x.x.x.x.x.x.x.z.7 n.S   /./././././.",
"/././././.0 J.R.~.~.M.o ~.~.~.~.~.~.~.~.~.~.~.H.* m.J.J.J.K.E.~.~.~.~.~.~.~.~.~.~.K.0 E t Z z.x.x.x.x.x.x.E 7 k.    /./././././.",
"/././././.o J.R.~.~.b.7 M.n.k.! R J J R E b.~.~.l.7 M.J.J.J.J.K.E.!.~.~.~.~.~.~.~.E.0 R S % E ~ j.~ ` ^ E S 0 0   /././././././.",
"/././././.  k.K.E.b.7 % & 8 t 7   Z R k.m.!.~.~.~.! q M.J.J.J.J.J.J.L.E.^.~.~.~.~.W.m r R - S R R R 5.T K %     /./././././././.",
"/./././././.% e % Z n.R.E.^.~.S * H.J.J.E.~.~.~.~.!.K 0 H.J.J.J.J.J.J.J.K.K.R.E.~.F.q.5 8 * o e e 0 0 * o     /././././././././.",
"/./././././././.  H.E.~.~.~.K.  ! J.J.K.~.~.~.~.~.~.~.R 7 b.J.J.J.J.J.J.J.J.J.J.J.7.,.=.b 6 4 4 4 5 6 x -   /./././././././././.",
"/./././././././.  m.R.~.~.^.K 0 H.J.J.E.~.~.~.~.~.~.~.~.z.% K H.J.J.J.J.J.J.J.J.c.;.*.*.*.*.*.*.*.*.b X   /././././././././././.",
"/./././././././.  b.R.~.~.H.o j.J.J.K.^.~.~.~.~.~.~.~.~.~.H.S 7 E n.J.J.J.J.J.J.3.*.*.*.*.*.*.*.N 5     /./././././././././././.",
"/./././././././.  x.L.~.~.K 7 J.J.J.E.~.~.~.~.~.~.~.~.~.~.~.^.z.t + S k.H.J.J.c.*.*.*.*.*.&.v 4     /./././././././././././././.",
"/./././././././.  k.K.~.K.+ j.J.J.J.~.~.~.~.~.~.~.~.~.~.~.~.~.^.S.w.N 4 X 7 M c x x x 5 X       /./././././././././././././././.",
"/./././././././.  ^ J.!.S t H.J.J.E.~.~.~.~.~.~.~.~.~.~.~.~.T.i.9.8.8.8.1.*.m B M R o   /./././././././././././././././././././.",
"/./././././././.  R J.H.X j.J.J.K.~.~.~.~.~.~.~.~.~.~.~.~.U.y.8.0.y.r.8.8.8.8.8.S.K..   /./././././././././././././././././././.",
"/././././././././.t J.R : H.J.M.b.! S 0 0 e n.~.~.~.~.~.Q.y.9.p.Y.~.~.U.e.8.8.u.~.E   /././././././././././././././././././././.",
"/././././././././.& x.% k.H.! % % e E b.M.k.7 ~ ~.~.~.~.d.8.a.^.~.~.~.~.C.8.9.I.H.&   /././././././././././././././././././././.",
"/././././././././.. t e J.E R M.R.~.~.~.~.~.L.7 b.~.~.W.9.r.T.~.g.r.F.~.G.8.e.W.S   /./././././././././././././././././././././.",
"/././././././././.  X ~ J.J.J.J.J.L.!.~.~.~.~.J.& !.~.C.8.f.~.G.9.8.f.~.S.8.r.V.  /././././././././././././././././././././././.",
"/././././././././.  # n.J.J.H.j.~ J.L.~.~.~.~.~.r l.~.d.8.S.~.Z.8.0.I.~.i.9.s.t   /././././././././././././././././././././././.",
"/./././././././././.& M.J.H.J Z H.J.R.~.~.~.~.^.e R ~.p.8.S.~.W.d.F.~.F.9.9.5.  /./././././././././././././././././././././././.",
"/./././././././././.  ! J.J & H.J.J.^.~.~.~.~.E   k.I.0.9.a.~.~.~.~.Y.y.8.s.0   /./././././././././././././././././././././././.",
"/././././././././././.% E % j.J.J.E.~.~.~.~.m.o & A.y.8.8.0.g.T.Y.D.y.8.y.6.  /././././././././././././././././././././././././.",
"/./././././././././././.  S J.J.R.~.~.~.~.H.o   l.>.=.1.8.8.8.0.0.8.8.u.P.%   /././././././././././././././././././././././././.",
"/./././././././././././.  x.J.L.^.~.~.~.E.8 . ^ 3.*.*.*.,.q.8.8.8.e.h.Q.R   /./././././././././././././././././././././././././.",
"/./././././././././././.0 H.J.!.~.~.~.R.e   T 4.*.*.*.*.*.*.,.q.D.~.~.M.    /./././././././././././././././././././././././././.",
"/././././././././././.  E J.K.~.~.~.R.t   T >.*.*.*.*.*.*.*.;.N.E.~.^.a   /././././././././././././././././././././././././././.",
"/././././././././././.  J H.J.E.~.n.&   y -.*.*.*.*.*.*.*.-.v.J.L.~.x..   /././././././././././././././././././././././././././.",
"/./././././././././././.  7 z.M.J         $ v V %.*.*.*.:.N.J.J.R.R.o   /./././././././././././././././././././././././././././.",
"/./././././././././././././.  %       Z R K e % $ 5 x m l.m.J.J.H.e   /././././././././././././././././././././././././././././.",
"/./././././././././././././././././.. x.J.J.J.J.J.J.J.J.J.H.z.J %   /./././././././././././././././././././././././././././././.",
"/./././././././././././././././././.o k.J.J.J.J.J.J.M.b.Z o     /./././././././././././././././././././././././././././././././.",
"/././././././././././././././././././.o J z.n.z.R q % .     /./././././././././././././././././././././././././././././././././.",
"/./././././././././././././././././././.            /./././././././././././././././././././././././././././././././././././././.",
"/./././././././././././././././././././././././././././././././././././././././././././././././././././././././././././././././.",
"/./././././././././././././././././././././././././././././././././././././././././././././././././././././././././././././././."
};
