/* XPM */
static char *result[] = {
/* columns rows colors chars-per-pixel */
"64 64 177 2 ",
"   c #010101",
".  c #080707",
"X  c #0C0A05",
"o  c #00050B",
"O  c #0C0C0C",
"+  c #060A0F",
"@  c #100F0E",
"#  c #120E07",
"$  c #15120A",
"%  c #19140A",
"&  c #1D180D",
"*  c #000A13",
"=  c #000D1B",
"-  c #0C131B",
";  c #141313",
":  c #191615",
">  c #1D1915",
",  c #1B1B1B",
"<  c #201A0D",
"1  c #241E13",
"2  c #211D1C",
"3  c #2C2312",
"4  c #26211B",
"5  c #272012",
"6  c #322814",
"7  c #3F331A",
"8  c #001224",
"9  c #07192C",
"0  c #111820",
"q  c #001A33",
"w  c #001E3C",
"e  c #232323",
"r  c #2E2826",
"t  c #2C2C2C",
"y  c #292522",
"u  c #322C2A",
"i  c #37302D",
"p  c #38322F",
"a  c #333333",
"s  c #3B3532",
"d  c #3C3C3C",
"f  c #2A323A",
"g  c #41341B",
"h  c #483A1D",
"j  c #423A36",
"k  c #443D3A",
"l  c #544322",
"z  c #5B4924",
"x  c #584723",
"c  c #4A423D",
"v  c #655128",
"b  c #6A552A",
"n  c #6E582C",
"m  c #745D2E",
"M  c #7E6533",
"N  c #012143",
"B  c #00254A",
"V  c #002C59",
"C  c #00305F",
"Z  c #003162",
"A  c #003569",
"S  c #003D79",
"D  c #003A75",
"F  c #444444",
"G  c #4E4641",
"H  c #4B4B4B",
"J  c #534B46",
"K  c #564D48",
"L  c #5B514C",
"P  c #545454",
"I  c #5B5B5B",
"U  c #494D51",
"Y  c #635751",
"T  c #685C57",
"R  c #71635D",
"E  c #596878",
"W  c #646464",
"Q  c #6C6C6C",
"!  c #796B64",
"~  c #7E6F68",
"^  c #766862",
"/  c #747474",
"(  c #7C7C7C",
")  c #886C36",
"_  c #987A3D",
"`  c #9F7F40",
"'  c #84746D",
"]  c #A98743",
"[  c #B69249",
"{  c #BA944A",
"}  c #B38F47",
"|  c #C59E4F",
" . c #D4AA55",
".. c #D1A754",
"X. c #DFB359",
"o. c #E3B65B",
"O. c #E7B95C",
"+. c #EBBC5E",
"@. c #F4C462",
"#. c #FFCC66",
"$. c #F8C663",
"%. c #004283",
"&. c #00468C",
"*. c #13518F",
"=. c #004A94",
"-. c #004C98",
";. c #0B5197",
":. c #2B6095",
">. c #0151A2",
",. c #0057AF",
"<. c #125FAC",
"1. c #005EBC",
"2. c #0058B1",
"3. c #0260BF",
"4. c #306AA4",
"5. c #49729B",
"6. c #657B92",
"7. c #527EAA",
"8. c #4475A7",
"9. c #0162C4",
"0. c #0066CC",
"q. c #0569CD",
"w. c #0C6DCE",
"e. c #106FCF",
"r. c #1572CF",
"t. c #1572D0",
"y. c #1D77D2",
"u. c #257CD3",
"i. c #6B8CAD",
"p. c #728FAC",
"a. c #2C80D5",
"s. c #3385D6",
"d. c #3C8AD8",
"f. c #5197DC",
"g. c #5498DD",
"h. c #4790D9",
"j. c #649FDB",
"k. c #68A4E1",
"l. c #7BB0E5",
"z. c #848484",
"x. c #8B8B8B",
"c. c #939393",
"v. c #9A9A9A",
"b. c #8CA4BC",
"n. c #A4A4A4",
"m. c #ABABAB",
"M. c #B4B4B4",
"N. c #BBBBBB",
"B. c #97B6D5",
"V. c #AEBAC6",
"C. c #85B6E7",
"Z. c #8DBAE8",
"A. c #95BFEA",
"S. c #B6C0CB",
"D. c #9AC3EB",
"F. c #B0D0EF",
"G. c #B6D3F0",
"H. c #A7CAED",
"J. c #C3C3C3",
"K. c #CCCCCC",
"L. c #C6C8CA",
"P. c #CCCFD2",
"I. c #D3D3D3",
"U. c #DCDCDC",
"Y. c #C2DBF3",
"T. c #CDE1F5",
"R. c #D3E4F5",
"E. c #DAE9F7",
"W. c #E3E3E3",
"Q. c #ECECEC",
"!. c #E1E7ED",
"~. c #E7F1FA",
"^. c #EBF3FB",
"/. c #F3F3F3",
"(. c #F5F9FD",
"). c #FFFFFF",
"_. c None",
/* pixels */
"_._._._._._._._._._._._._._._._._._._._._._._._._._._._._._._._._._._._._._._._._._._._._._._._._._._._._._._._._._._._._._._._.",
"_._._._._._._._._._._._._._._._._._._._._._._._._._._._._._._._._._._._._._._._._._._._._._._._._._._._._._._._._._._._._._._._.",
"_._._._._._._._._._._._._._._._._._._._._._._._._._._._._._._._._._._._._._._._._._._._._._._._._._._._._._._._._._._._._._._._.",
"_._._._._._._._._._._._._._._.                      _._._._._._._._._._._._._._._._._._._._._._._._._._._._._._._._._._._._._._.",
"_._._._._._._._._._._._.    * N %.=.&.=.=.=.%.Z 9 o           _._._._._._._._._._._._._._._._._._._._._._._._._._._._._._._._._.",
"_._._._._._._._._._.  : / S.w.q.0.0.0.0.0.0.0.0.0.0.1.V.v./ t O     _._._._._._._._._._._._._._._._._._._._._._._._._._._._._._.",
"_._._._._._._._._., / U.).R.9.1.1.1.3.9.9.0.0.0.0.0.f.).).).Q.K.v.H ;     _._._._._._._._._._._._._._._._._._._._._._._._._._._.",
"_._._._._._._._.t U./.n.W e = o * * * = = q V %.2.t.R.).).).).).).).W.( O   _._._._._._._._._._._._._._._._._._._._._._._._._._.",
"_._._._._._._.  Q H @ y i s k c G G G k k p r 2 . 0 / I.).).).).).).).).W.P .   _._._._._._._.. ;   _._._._._._._._._._._._._._.",
"_._._._._._.    ; u G K K K K K K K K K K K K K c p , , ( Q.).).).).).).)././ .   _._._._._._.O m.; _._._._._._._._._._._._._._.",
"_._._._._._.  $ k K K K K K K K L L K K K K K K K K K u . 2 J.).).).).).).).).c.  _._._._._._., U.; _._._._._._._._._._._._._._.",
"_._._._._.  O p J K K K Y ^ ' ' ' ' ' ! R T L K K K K G j , : N.).).).).).).).)./   _._._._._.t (.e _._._._._._._._._._._._._._.",
"_._._._._.  y k K K L ! ' ' ' ' ' ' ' ' ' ' ' ^ L K K K k j 2 y Q.).).).).).).)./.d   _._._.  F ).t _._._._._._._._._._._._._._.",
"_._._._._.@ u c K L ! ' ' ' ' ' ' ' ' ' ' ' ' ' ~ L K K k j u . ( ).).).).).).)./.N.O _._._.  Q ).t _._._._._._._._._._._._._._.",
"_._._._.  > s G K L T Y Y Y T R ^ ! ' ' ' ' ' ' ' R K K k j p $ e ).).).).).).).(.I.I   _._.  ( ).t _._._._._._._._._._._._._._.",
"_._._._.  2 p k :   # $ % < $ % X X X   : u p k L T J K j j p :   ).).).).).).)./.K.n.  _._.  ' ).t _._._._._._._._._._._._._._.",
"_._._._.  : u p   l o.+.+.@.+.+.o.X.X. . ...[ ` M 7 $ a j j u :   ).).).).).).M.W x.K., _._.  x.).t _._._._._._._._._._._._._._.",
"_._._._.  . 2 r   ) #.#.#.#.#.#.#.#.#.#.#.#.#.#.#.$.[ & y j r : ; ).).).).).M., H O M.H   _.  c.).t _._._._._._._._._._._._._._.",
"_._._._.  d @ >   { #.#.#.#.#.#.#.#.#.#.#.#.#.#.#.#.#.O.3 2 4 ; a ).).).).Q.4 c.K.I / /   _.  v.).t _._._._._._._._._._._._._._.",
"_._._.    Q.W $    .#.{ { #.#.#.#.#.#.#.[ m #.#.#.#.#.#.b   : @ W ).).).).c.I K.P.N.H c.. ; ; t a .     _._._._._._._._._._._._.",
"_._._.    )./.W & o.#.z x #.#.#.#.#.#.#.z % +.#.#.#.#.#.b a , o n.).).).).a n.I./.).t m.a I.I.I.N.n.( F .   _._._._._._._._._._.",
"_._._.    /.).x.7 @.#.$ x #.#.#.#.#.#.#.% $ +.#.#.#.#.#.b I M.4 W.).).).U.: J.W.).).r m.F ).).).).).).).Q.z.. _._._._._._._._._.",
"_._._._.  W.).Q v #.$.  x #.#.#.#.#.#.@.  % +.#.#.#.#.#.b / ).U.).).).).S.r K.Q.).).2 m.e Q I P I Q v.I.W.I.W   _._._._._._._._.",
"_._._._.  K.).H ) #.@.  b #.#.#.#.#.#. .  < @.#.#.#.#.#.x x.).).).).).).m.a K./.).W.e v.t P I Q Q Q F ; F v.v.  _._._._._._._._.",
"_._._._.  n.Q.d _ #.#.% n #.#.#.#.#.#.+.  5 #.#.#.#.#.#.l v.).).).).).).J.t K.W.).x.H W x.K.Q.).).).).Q.Q ; H   _._._._._._._._.",
"_._._._.  Q Q.t ] #.#.m } #.#.#.#.#.#.#.# 6 #.#.#.#.#.#.g M.).).).).).).W.; N.I.W.a z.a d I x.v.M.U./.).)./   _._._._._._._._._.",
"_._._._.  a /.F _ #.#.#.#.#.#.#.#.#.#.#.h z #.#.#.#.#.#.3 N.).).).).).).).F x.K.c.O M., a a r ;   . , P M.I.e   _._._._._._._._.",
"_._._._._.O I.W n O._ M b x x v b n ]  .$.#.#.#.#.#.#.$.1 U.).).).).).).).I., H ; c.Q J.(.Q.U.I.K.m.z.F   , d   _._._._._._._._.",
"_._._._._.  x.z.X 6 t P I I U H F a . > 7 | #.#.#.#.@.| 1 W.).).).).).).).).N.Q ( N.F ).).).).(.Q.I.K.L.Q O O   _._._._._._._._.",
"_._._._._.  d U.:   ( v.c.v.v.v.v.v.I P ( 4 X.+.{ m 3   , Q.).).).).).).)./.K.K.K.W x.).).).).).).).Q.I./ a M.I O _._._._._._._.",
"_._._._._._.. n./.d x.v.v.v.v.v.v.v.z.2 v.P         , / K.).).).).).).)./.K.K.K.m.t /.).).).).).).).).).W P U.K.J.Q O _._._._._.",
"_._._._._._.  t Q.a x.v.v.v.v.c.v.c.x.. v.I e I z.K.(.).).).).).).).)./.I.K.K.J.t N.).).).).).).).).).).Q Q )./.I.K.Q   _._._._.",
"_._._._._._._.  c.a I v.v.v.v.v.c.b.6.@ / H / ).).).).).).).).).).(.U.K.K.K.K.P W ).).).).).).).).).).)./ I ).)./.K.z.  _._._._.",
"_._._._._._._.  , F t / z.x.c.c.x.] J 2 Q F m.).).).).).).).)./.U.I.K.K.K.K./ d /.).).Q.K.m.m.m.m.M.J.W.z.d ).).(.I.I _._._._._.",
"_._._._._._._._.  . o T W W W W E W ; H I - B.).).).).).(.Q.I.K.K.K.K.K.K.( , U.).).K.W H d r .   O O     . ( U.Q.K.t _._._._._.",
"_._._._._._._._._.    ; a H J P I a O P , S g.(.)./.W.I.I.K.K.K.K.K.K.K./ : K.).).).).(.I.K.K.W   N.U.I.I.M.W ; i d   _._._._._.",
"_._._._._._._._._._.  . 9 8 *       = q A ,.<.V.K.K.K.K.K.K.K.K.K.K.J.Q , J.).).).).).).W.K.K.M., Q (.).)./.K.; _._._._._._._._.",
"_._._._._._._._._._._.  o C =.=.=.=.=.=.=.=.=.i.K.K.K.K.K.K.K.K.K.n.t e W.).).).).).).).(.I.K.K.( . J.).).Q.K.. _._._._._._._._.",
"_._._._._._._._._._._._.    q S =.=.=.=.=.=.=.;.V.K.K.K.K.K.L.v.I , / Q.).).).).).).).).).Q.K.K.L., P ).).Q.J.  _._._._._._._._.",
"_._._._._._._._._._._._._._.    w A &.=.=.=.=.=.7.K.K.K.J.x.d O H K.).).).).).).).).).).).(.K.K.K.( ; U.).W.M.  _._._._._._._._.",
"_._._._._._._._._._._._._._._._.      = N C A A A E W u * 8 S B.).).).).).).).).).).).).).).W.K.K.K.d F ).U.n.  _._._._._._._._.",
"_._._._._._._._._._._._._._._._._._._.      a f N B C %.2.0.0.q.s.G.).).).).).).).).).).).).).I.K.K.c.. K.I.v.  _._._._._._._._.",
"_._._._._._._._._._._._._._._._._._._._._.  v.E.w.0.0.0.0.0.0.0.0.w.D.).).).).).).).).).).).).W.K.K.J.t I K.z.  _._._._._._._._.",
"_._._._._._._._._._._._._._._._._._._._._.  t Q.C.0.0.0.u.H.R.G.f.0.q.F.).).).).).).n.P P W x.m.M.K.K.n.. n.P   _._._._._._._._.",
"_._._._._._._._._._._._._._._._._._._._._._.  z.(.d.q.q.G.).).).).C.w.t.~.).).)./.P t x.v./ d , O d n.K.a H t _._._._._._._._._.",
"_._._._._._._._._._._._._._._._._._._._._._.  O /.l.0.t.^.).G.A.^.).k.0.l.).).).z.d Q.).).).).Q.K.( H v.v.O   _._._._._._._._._.",
"_._._._._._._._._._._._._._._._._._._._._._._.  W Z.0.t.^.).q.0.a.).R.q.t.).).M., Q.).).).).Q.U.K.K.K.K.K.F   _._._._._._._._._.",
"_._._._._._._._._._._._._._._._._._._._._._._.  O b.q.q.T.).d.0.0.~.(.u.0.Y.).H Q ).).).)./.I.M./ M.K.K.K./   _._._._._._._._._.",
"_._._._._._._._._._._._._._._._._._._._._._._._.  U h.0.k.).T.s.s.).).u.0.D.)., x.).).).).).K.K.n.; x.K.K.z.  _._._._._._._._._.",
"_._._._._._._._._._._._._._._._._._._._._._._._._.. 6.0.q.D.).).).).(.y.0.h.(.H ; I.).).).).Q.K.K.( @ v.L.F _._._._._._._._._._.",
"_._._._._._._._._._._._._._._._._._._._._._._._._.  t j.0.w.D.~.).(.C.0.0.q.C.c.  a Q.).).).).U.K.L.H e P O _._._._._._._._._._.",
"_._._._._._._._._._._._._._._._._._._._._._._._._._.  x.k.0.0.t.u.y.0.0.0.1.>.i.F   F ).).).)./.I.K.N.; _._._._._._._._._._._._.",
"_._._._._._._._._._._._._._._._._._._._._._._._._._.  O P.C.e.0.0.0.0.9.>.=.=.-.i.u   ( ).).).)./.K.K./   _._._._._._._._._._._.",
"_._._._._._._._._._._._._._._._._._._._._._._._._._._.  P ).^.D.s.9.2.-.=.=.=.=.=.p.t   c.(.).).).W.K.N.O _._._._._._._._._._._.",
"_._._._._._._._._._._._._._._._._._._._._._._._._._._.  . m.).).!.4.=.=.=.=.=.=.=.=.5.t   / ).).)./.K.K.a _._._._._._._._._._._.",
"_._._._._._._._._._._._._._._._._._._._._._._._._._._._.  , /.).I.V.8.=.=.=.=.=.=.=.=.:.-   H U.).W.K.N.e   _._._._._._._._._._.",
"_._._._._._._._._._._._._._._._._._._._._._._._._._._._._.  ( (.I.K.L.7.=.=.=.=.=.%.C *       ; x.J.z.O   _._._._._._._._._._._.",
"_._._._._._._._._._._._._._._._._._._._._._._._._._._._._.  . c.U.K.K.K.b.*.A N 8 o . t H e       e . _._._._._._._._._._._._._.",
"_._._._._._._._._._._._._._._._._._._._._._._._._._._._._._.  . I n.L.J.n.v.v.v.n.N.K.K.K.z.  _._.  _._._._._._._._._._._._._._.",
"_._._._._._._._._._._._._._._._._._._._._._._._._._._._._._._._.    @ H n.L.K.K.K.K.K.K.K.x.  _._._._._._._._._._._._._._._._._.",
"_._._._._._._._._._._._._._._._._._._._._._._._._._._._._._._._._._.      2 F W x.N.N.n.I ; _._._._._._._._._._._._._._._._._._.",
"_._._._._._._._._._._._._._._._._._._._._._._._._._._._._._._._._._._._._._.      , e .   _._._._._._._._._._._._._._._._._._._.",
"_._._._._._._._._._._._._._._._._._._._._._._._._._._._._._._._._._._._._._._._._._._._._._._._._._._._._._._._._._._._._._._._.",
"_._._._._._._._._._._._._._._._._._._._._._._._._._._._._._._._._._._._._._._._._._._._._._._._._._._._._._._._._._._._._._._._."
};
