/* XPM */
static char *result[] = {
/* columns rows colors chars-per-pixel */
"64 64 178 2 ",
"   c #010101",
".  c #080604",
"X  c #0B0906",
"o  c #00050A",
"O  c #0C0B0B",
"+  c #110F0E",
"@  c #141109",
"#  c #1D180C",
"$  c #000D1A",
"%  c #040A11",
"&  c #131212",
"*  c #191615",
"=  c #1C1C1C",
"-  c #151719",
";  c #231C0E",
":  c #241F1D",
">  c #2B2311",
",  c #25211E",
"<  c #312713",
"1  c #392E17",
"2  c #322915",
"3  c #3D3118",
"4  c #001224",
"5  c #00162C",
"6  c #181D23",
"7  c #011A34",
"8  c #001D3A",
"9  c #081D33",
"0  c gray14",
"q  c #2A2523",
"w  c #2F2926",
"e  c #2B2B2B",
"r  c #352E2B",
"t  c #302A27",
"y  c #37302D",
"u  c #39322F",
"i  c #323232",
"p  c #3D3632",
"a  c #3A3A3A",
"s  c #343638",
"d  c #282E34",
"f  c #43351B",
"g  c #4B3C1E",
"h  c #47391C",
"j  c #423A36",
"k  c #463D39",
"l  c #483F3B",
"z  c #544322",
"x  c #5E4B26",
"c  c #594724",
"v  c #4A413D",
"b  c #634F27",
"n  c #6B562A",
"m  c #6E582C",
"M  c #755E2F",
"N  c #7C6331",
"B  c #002245",
"V  c #00264B",
"C  c #0B2742",
"Z  c #002A55",
"A  c #002D5A",
"S  c #0E3256",
"D  c #003365",
"F  c #00366C",
"G  c #003972",
"H  c #003E7B",
"J  c #27405A",
"K  c #1A4067",
"L  c #444444",
"P  c #4E4541",
"I  c #4B4B4B",
"U  c #534A45",
"Y  c #564D48",
"T  c #584E4A",
"R  c #514743",
"E  c #5C524D",
"W  c #535353",
"Q  c #5C5C5C",
"!  c #615650",
"~  c #665A55",
"^  c #6A5E58",
"/  c #6F615B",
"(  c #71635D",
")  c #656565",
"_  c #6B6B6B",
"`  c #7A6B65",
"'  c #7A6C65",
"]  c #6F767D",
"[  c #747474",
"{  c #7D7D7D",
"}  c #816734",
"|  c #8A6F37",
" . c #8E7239",
".. c #93753B",
"X. c #9B7C3E",
"o. c #95783C",
"O. c #9F7F40",
"+. c #84746D",
"@. c #AC8945",
"#. c #A58442",
"$. c #B28F47",
"%. c #BF994C",
"&. c #B69249",
"*. c #C49C4E",
"=. c #CEA553",
"-. c #D5AA55",
";. c #D9AE57",
":. c #DEB259",
">. c #E7B95C",
",. c #EABC5E",
"<. c #E1B55A",
"1. c #EFC060",
"2. c #F5C462",
"3. c #FFCC66",
"4. c #004387",
"5. c #004489",
"6. c #004A94",
"7. c #004F9D",
"8. c #00509F",
"9. c #2C659E",
"0. c #336596",
"q. c #0056AC",
"w. c #0053A7",
"e. c #005AB5",
"r. c #005FBE",
"t. c #1B66B1",
"y. c #516C87",
"u. c #4676A7",
"i. c #0062C4",
"p. c #0066CC",
"a. c #076ACE",
"s. c #1975D1",
"d. c #2078CF",
"f. c #247BD3",
"g. c #2A7FD4",
"h. c #7B8691",
"j. c #5882AC",
"k. c #6B8EB1",
"l. c #6D96BF",
"z. c #2C80D5",
"x. c #3586D7",
"c. c #5F9EDD",
"v. c #4690DA",
"b. c #7AAFE5",
"n. c #838383",
"m. c gray55",
"M. c #8E9092",
"N. c #949494",
"B. c #999999",
"V. c #959798",
"C. c #A3A3A3",
"Z. c #ABABAB",
"A. c #B3B3B3",
"S. c #BCBCBC",
"D. c #A7B4C2",
"F. c #95BFEA",
"G. c #BDC3C8",
"H. c #A6C9EC",
"J. c #BBD6F1",
"K. c #C4C4C4",
"L. c #CCCCCC",
"P. c #C5C7CA",
"I. c #D4D4D4",
"U. c #DCDCDC",
"Y. c #CBDDEF",
"T. c #C2DAF3",
"R. c #CDE2F5",
"E. c #D3E4F6",
"W. c #DDEBF8",
"Q. c #E3E3E3",
"!. c #EBEBEB",
"~. c #E2EDF9",
"^. c #EAF3FB",
"/. c #F4F4F4",
"(. c #F2F7FC",
"). c #FFFFFF",
"_. c #F3F8FC",
"`. c None",
/* pixels */
"`.`.`.`.`.`.`.`.`.`.`.`.`.`.`.`.`.`.`.`.`.`.`.`.`.`.`.`.`.`.`.`.`.`.`.`.`.`.`.`.`.`.`.`.`.`.`.`.`.`.`.`.`.`.`.`.`.`.`.`.`.`.`.`.",
"`.`.`.`.`.`.`.`.`.`.`.`.`.`.`.`.`.`.`.`.`.`.`.`.`.`.`.`.`.`.`.`.`.`.`.`.`.`.`.`.`.    `.`.`.`.`.`.`.`.`.`.`.`.`.`.`.`.`.`.`.`.`.",
"`.`.`.`.`.`.`.`.`.`.`.`.`.`.`.`.`.`.`.`.`.`.`.`.`.`.`.`.                  `.`.`.`.e n.`.`.`.`.`.`.`.`.`.`.`.`.`.`.`.`.`.`.`.`.`.",
"`.`.`.`.`.`.`.`.`.`.`.`.`.`.`.`.`.`.`.`.`.`.`.    X = s C B Z Z Z Z B 5 $ o       e C.  `.`.`.`.`.`.`.`.`.`.`.`.`.`.`.`.`.`.`.`.",
"`.`.`.`.`.`.`.`.`.`.`.`.`.`.`.`.`.`.`.`.`.    e n.I./.R.a.p.p.p.p.p.p.p.i.q.H V 5 o       `.`.`.`.`.`.`.`.`.`.`.`.`.`.`.`.`.`.`.",
"`.`.`.`.`.`.`.`.`.`.`.`.`.`.`.`.`.`.`.  O [ L.).).).).b.p.p.p.p.p.p.p.p.p.p.p.p.p.p.t.M.L     `.`.`.`.`.`.`.`.`.`.`.`.`.`.`.`.`.",
"`.`.`.`.`.`.`.`.`.`.`.`.`.`.`.`.`.`.  I I.).).).).).Q.9.H A Z Z Z A D H 5.7.e.p.p.p.s.^./.B.e   `.`.`.`.`.`.`.`.`.`.`.`.`.`.`.`.",
"`.`.`.`.`.`.`.`.`.`.`.`.`.`.`.`.`.  & Q.).).).).Z.a O   O * * : = * & O . o o 4 F w.p.E.).)./.m..   `.`.`.`.`.`.`.`.`.`.`.`.`.`.",
"`.`.`.`.`.`.`.`.`.`.`.`.`.`.`.`.`.  A.).).).B.& @ : r j j j j j j j j j j j r 0 * . $ ] !.).).).I.a   `.`.`.`.`.`.`.`.`.`.`.`.`.",
"`.`.`.`.`.`.`.`.`.`.`.`.`.`.`.`.  a /.)./.) & t j j j k k v v v l l l l j j j j j y : O e Z.).).).Q.W `.`.`.`.`.`.`.`.`.`.`.`.`.",
"`.`.`.`.`.`.`.`.`.`.`.`.`.`.`.    K.).).Q * p j l P U U Y Y Y Y Y Y T Y Y U R P l j j j w . W Q.).).!.. `.`.`.`.`.`.`.`.`.`.`.`.",
"`.`.`.`.`.`.`.`.`.`.`.`.`.`.`.  L ).).[ O p k R Y Y Y Y Y E ! ~ ! E T Y Y Y Y Y Y U P j j p * i /.).).W   `.`.`.`.`.`.`.`.`.`.`.",
"`.`.`.`.`.`.`.`.`.`.`.`.`.`.`.  C.).U.o e k U Y Y Y T ~ ' +.+.+.+.+.+.+.' / ^ ! T Y Y U P j j * I /.).B.. `.`.`.`.`.`.`.`.`.`.`.",
"`.`.`.`.`.`.`.`.`.`.`.`.`.`.  . /.).Q @ j U Y Y Y E ` +.+.+.+.+.+.+.+.+.+.+.+.+.' ! Y Y Y U k p . B.).!.6   `.`.`.`.`.`.`.`.`.`.",
"`.`.`.`.`.`.`.`.`.`.`.`.`.`.  ) ).).q 0 v Y Y Y E +.+.+.+.+.+.+.+.+.+.+.+.+.+.+.+.+.~ U Y Y U k q e /.).I   `.`.`.`.`.`.`.`.`.`.",
"`.`.`.`.`.`.`.`.`.`.`.`.`.    Z.).!.& w U Y Y Y ' +.+.+.+.+.+.+.+.+.+.+.+.+.+.+.+.+.+.~ Y Y Y v j X P.).n.  `.`.`.`.`.`.`.`.`.`.",
"`.`.`.`.`.`.`.`.`.`.`.`.    X U.).U.  p Y P k r p y y y y p j v R T ! ) ' +.+.+.+.+.+.' E Y Y Y j & [ ).A.  `.`.`.`.`.`.`.`.`.`.",
"`.`.`.`.`.`.`.`.`.`.`.  i & 0 /.).P.  k q X . 1 g z z z z z f 1 ; > # . @ , y v T / +.+.~ Y Y Y l * W ).L.    `.`.`.`.`.`.`.`.`.",
"`.`.`.`.`.`.`.`.`.`.`.& Q.  L ).).K.  * O -.3.3.3.3.X.>.3.3.3.3.3.3.3.2.=.$.N g ; . . q v U Y Y v * W ).U.X   `.`.`.`.`.`.`.`.`.",
"`.`.`.`.`.`.`.`.`.`.  [ Q.  ) ).).S.    < 3.3.3.3.,.. ..3.3.3.3.3.3.3.3.3.3.3.3.<.;.&.M 2 O , v R & _ ).!.&     `.`.`.`.`.`.`.`.",
"`.`.`.`.`.`.`.`.`.`.  A.I.  [ ).).L.    b 3.3.3.3.@.  | 3.3.3.3.3.3.3.3.3.3.3.2.f &.3.3.2.#.h O v + m.).!.* e & `.`.`.`.`.`.`.`.",
"`.`.`.`.`.`.`.`.`.`.  I.I.  n.).).!.a   @.3.3.3.3.N   o.3.3.3.3.3.3.3.3.3.3.3.=.  } 3.3.3.3.*.  * X D.).!.& W [   `.`.`.`.`.`.`.",
"`.`.`.`.`.`.`.`.`.`.  C.S.  n.).).).Q X 2.3.3.3.3.z   #.3.3.3.3.3.3.3.3.3.3.3.#.  n 3.3.3.3.-.    & Q.).Q.& W L.. `.`.`.`.`.`.`.",
"`.`.`.`.`.`.`.`.`.`.  [ Z.  { ).).).a > 3.3.3.3.2.h   $.3.3.3.3.3.3.3.3.3.3.3. .  n 3.3.3.3.-.    e ).).U.X ) /.= `.`.`.`.`.`.`.",
"`.`.`.`.`.`.`.`.`.`.`.0 Z.  _ ).)./.= c 3.3.3.3.2.g   =.3.3.3.3.3.3.3.3.3.3.3.N   M 3.3.3.3.:.@ e C.).).P.  m.).e `.`.`.`.`.`.`.",
"`.`.`.`.`.`.`.`.`.`.`.  )   W ).).Q.O m 3.3.3.3.3.b X :.3.3.3.3.3.3.3.3.3.3.3.z   X.3.3.3.3.:.@ _ ).).).C.  Z.!.= `.`.`.`.`.`.`.",
"`.`.`.`.`.`.`.`.`.`.`.`.    e ).).U.O m 3.3.3.3.3.*.o.3.3.3.3.3.3.3.3.3.3.3.3.1   ;.3.3.3.3.:.@ _ ).).).[   A.Z.. `.`.`.`.`.`.`.",
"`.`.`.`.`.`.`.`.  & 0 O     & !.).!.& x 3.3.3.3.3.3.3.3.3.3.3.3.3.3.3.3.3.3.3.g n 3.3.3.3.3.-.. { ).).).a & L.L `.`.`.`.`.`.`.`.",
"`.`.`.`.`.`.`.`.Q A.A.A.B.L   K.)._.0 3 3.3.3.3.3.3.3.>.;.*.%.%.*.;.2.3.3.3.3.1.2.3.3.3.3.3.%.  m.).).L.& L _ = R q `.`.`.`.`.`.",
"`.`.`.`.`.`.`.& Z.L.I.U.I.{   { ).).Q . N ,.3.3.3.2.c @ .         X ; z X.>.3.3.3.3.3.3.3.3.|   A.).).n.  a X n.L.P.1 `.`.`.`.`.",
"`.`.`.`.`.`.`.Q L./.).).).i   & /.).Q.[ = . h #.:.x Q [ { { { n.{ ) I y *   h ;.3.3.3.3.3.2.1 . /.).).q   O Z.Q.U.L.y.`.`.`.`.`.",
"`.`.`.`.`.`.`.n.U.).).).N.e )   N.).).).).m.y .   & m.B.V.B.B.B.B.B.B.B.B.h.L 2 2.3.3.3.<.o.  Q ).).S.    Z.).).).Q.A.O `.`.`.`.",
"`.`.`.`.`.`.`.0 _ A./.K.O S.I.X e !.).).).).).I.Q 0 m.B.N.B.B.B.B.B.B.B.B.B.N.* N | x > X   & L.)./.e & [ @ !.).).!.Z.O `.`.`.`.",
"`.`.`.`.`.`.`.`.        i !.).W   N.!.).).).).).B.e ] B.B.B.B.B.B.B.B.B.B.B.N.0   . e I _ B.I.).).B.  [ /._ k C.M.W O `.`.`.`.`.",
"`.`.`.`.`.`.`.`.`.`.`.`.  + n.L.O 0 K.U.).).).).V.= _ V.B.B.B.B.B.B.B.B.B.B.n.= Z.).).).).).).).Q.0 O !._.A.O     `.`.`.`.`.`.`.",
"`.`.`.`.`.`.`.`.`.`.`.`.`.`.  = 0   ) L.I./.).).S.. _ +.N.B.B.B.B.B.B.B.B.B._ + Q.).).).).).).!.a o B.I.I o `.`.`.`.`.`.`.`.`.`.",
"`.`.`.`.`.`.`.`.`.`.`.`.`.`.`.`.      N.L.L.U.!.L.- L ) ) _ [ [ { { { n.n.{ a i ).).).).)./.U.[   a _ X   `.`.`.`.`.`.`.`.`.`.`.",
"`.`.`.`.`.`.`.`.`.`.`.`.`.`.`.`.`.`.  & A.L.L.L.G.J O W ) ) ) ) ) ) ) ) ) W o B.).).).!.I.L.[ o . O   `.`.`.`.`.`.`.`.`.`.`.`.`.",
"`.`.`.`.`.`.`.`.`.`.`.`.`.`.`.`.`.`.    6 Z.L.L.P.0.4 & I ) ) _ ) ) ) ) W + 9 P.U.Q.I.L.L.[ X     `.`.`.`.`.`.`.`.`.`.`.`.`.`.`.",
"`.`.`.`.`.`.`.`.`.`.`.`.`.`.`.`.`.`.  s = e Z.L.L.u.5.8 % 0 s a L W I i . 4 0.L.L.L.L.P.[   .   `.`.`.`.`.`.`.`.`.`.`.`.`.`.`.`.",
"`.`.`.`.`.`.`.`.`.`.`.`.`.`.`.`.`.`.  _ !.a . m.L.u.6.6.6.G Z 5 5 5 5 V F 6.k.L.L.L.A.i   Q m.  `.`.`.`.`.`.`.`.`.`.`.`.`.`.`.`.",
"`.`.`.`.`.`.`.`.`.`.`.`.`.`.`.`.`.`.  n.).!.y.O L y.6.6.6.6.6.6.6.6.6.6.6.6.D.L.A._ & 0 N.).Z.  `.`.`.`.`.`.`.`.`.`.`.`.`.`.`.`.",
"`.`.`.`.`.`.`.`.`.`.`.`.`.`.`.`.`.`.  m.).).).S.d o 8 G 6.6.6.6.6.6.6.6.6.9.Z._ = X _ U.).).S.  `.`.`.`.`.`.`.`.`.`.`.`.`.`.`.`.",
"`.`.`.`.`.`.`.`.`.`.`.`.`.`.`.`.`.`.  { ).).)._.f.7.9 O X 8 V F H 4.K A 7 %   0 n.!.).).).).Z.  `.`.`.`.`.`.`.`.`.`.`.`.`.`.`.`.",
"`.`.`.`.`.`.`.`.`.`.`.`.`.`.`.`.`.`.  { ).).).J.p.p.c.I.C.S 5 $ 6 0 6 7 Z h.L./.).).).).).).C.  `.`.`.`.`.`.`.`.`.`.`.`.`.`.`.`.",
"`.`.`.`.`.`.`.`.`.`.`.`.`.`.`.`.`.`.  _ ).).).F.p.p.H.).W.p.a.i.H./.Y.p.p.T.).).).).).).).).B.  `.`.`.`.`.`.`.`.`.`.`.`.`.`.`.`.",
"`.`.`.`.`.`.`.`.`.`.`.`.`.`.`.`.`.`.  L Q i , 6 D e.b.).(.g.p.s.W.).H.p.a.E.).).).).).).).).A.. `.`.`.`.`.`.`.`.`.`.`.`.`.`.`.`.",
"`.`.`.`.`.`.`.`.`.`.`.`.`.`.`.`.`.`.  0 m.I.U.S.) 4 d.~.).~.J.~.).^.x.a.f._.).).).).).).)./.A.& `.`.`.`.`.`.`.`.`.`.`.`.`.`.`.`.",
"`.`.`.`.`.`.`.`.`.`.`.`.`.`.`.`.`.  _ /.).).).U.A.= w.x.T.).).).E.v.p.p.H.).).).).).).).).I.A.+ `.`.`.`.`.`.`.`.`.`.`.`.`.`.`.`.",
"`.`.`.`.`.`.`.`.`.`.`.`.`.`.`.`.  { ).).).).).Q.L.Q Z p.p.f.g.f.p.p.p.p.).).).).).).).).!.L.A.& `.`.`.`.`.`.`.`.`.`.`.`.`.`.`.`.",
"`.`.`.`.`.`.`.`.`.`.`.`.`.`.`.`.  K.).).).).).Q.L.N.$ i.p.p.p.p.p.p.p.p.).).).).).).)./.I.L.A.& `.`.`.`.`.`.`.`.`.`.`.`.`.`.`.`.",
"`.`.`.`.`.`.`.`.`.`.`.`.`.`.`.`.  B.).).).).)./.L.A.o 6.i.p.p.p.p.p.p.p.W.).).).).).).I.L.L.Z.. `.`.`.`.`.`.`.`.`.`.`.`.`.`.`.`.",
"`.`.`.`.`.`.`.`.`.`.`.`.`.`.`.`.  I ).).).).).).I.L.X G 6.q.i.p.p.p.p.p.R.).).).).).I.L.L.L.m.  `.`.`.`.`.`.`.`.`.`.`.`.`.`.`.`.",
"`.`.`.`.`.`.`.`.`.`.`.`.`.`.`.`.`.O L.).).).).).U.L.e A 6.6.6.q.r.i.p.p.H.).).)./.I.L.L.L.L.I   `.`.`.`.`.`.`.`.`.`.`.`.`.`.`.`.",
"`.`.`.`.`.`.`.`.`.`.`.`.`.`.`.`.`.`.= Q.).).).).U.L.I B 6.6.6.6.6.6.7.7.l.U.U.I.L.L.L.L.L.S.& `.`.`.`.`.`.`.`.`.`.`.`.`.`.`.`.`.",
"`.`.`.`.`.`.`.`.`.`.`.`.`.`.`.`.`.`.`.e K.!.Q.I.L.L.) o 5 B A G 4.6.6.6.u.L.L.L.L.L.L.L.L.Q   `.`.`.`.`.`.`.`.`.`.`.`.`.`.`.`.`.",
"`.`.`.`.`.`.`.`.`.`.`.`.`.`.`.`.`.`.`.`.. _ A.K.A.n.O `.`.        o 4 V K C.A.P.L.L.L.L.A.    `.`.`.`.`.`.`.`.`.`.`.`.`.`.`.`.`.",
"`.`.`.`.`.`.`.`.`.`.`.`.`.`.`.`.`.`.`.`.`.o X = +   `.`.`.`.`.`.`.`.`.`.    X e S.L.L.S.s   `.`.`.`.`.`.`.`.`.`.`.`.`.`.`.`.`.`.",
"`.`.`.`.`.`.`.`.`.`.`.`.`.`.`.`.`.`.`.`.`.`.`.`.`.`.`.`.`.`.`.`.`.`.`.`.`.`.. m.L.L.L.W   `.`.`.`.`.`.`.`.`.`.`.`.`.`.`.`.`.`.`.",
"`.`.`.`.`.`.`.`.`.`.`.`.`.`.`.`.`.`.`.`.`.`.`.`.`.`.`.`.`.`.`.`.`.`.`.`.`.  Q L.L.K.I   `.`.`.`.`.`.`.`.`.`.`.`.`.`.`.`.`.`.`.`.",
"`.`.`.`.`.`.`.`.`.`.`.`.`.`.`.`.`.`.`.`.`.`.`.`.`.`.`.`.`.`.`.`.`.`.`.`.`.`.X a I e `.`.`.`.`.`.`.`.`.`.`.`.`.`.`.`.`.`.`.`.`.`.",
"`.`.`.`.`.`.`.`.`.`.`.`.`.`.`.`.`.`.`.`.`.`.`.`.`.`.`.`.`.`.`.`.`.`.`.`.`.`.`.`.`.`.`.`.`.`.`.`.`.`.`.`.`.`.`.`.`.`.`.`.`.`.`.`.",
"`.`.`.`.`.`.`.`.`.`.`.`.`.`.`.`.`.`.`.`.`.`.`.`.`.`.`.`.`.`.`.`.`.`.`.`.`.`.`.`.`.`.`.`.`.`.`.`.`.`.`.`.`.`.`.`.`.`.`.`.`.`.`.`.",
"`.`.`.`.`.`.`.`.`.`.`.`.`.`.`.`.`.`.`.`.`.`.`.`.`.`.`.`.`.`.`.`.`.`.`.`.`.`.`.`.`.`.`.`.`.`.`.`.`.`.`.`.`.`.`.`.`.`.`.`.`.`.`.`."
};
