/* XPM */
static char *result[] = {
/* columns rows colors chars-per-pixel */
"64 64 180 2 ",
"   c #010101",
".  c #080707",
"X  c #0A0906",
"o  c #01060B",
"O  c #0B0B0B",
"+  c #100E0E",
"@  c #130F07",
"#  c #12100D",
"$  c #1C170D",
"%  c #000A13",
"&  c #0C0F12",
"*  c #010D1A",
"=  c #141413",
"-  c #1A1715",
";  c #1C1817",
":  c #1C1C1B",
">  c #0E1317",
",  c #241D0F",
"<  c #231E1C",
"1  c #2B2212",
"2  c #27221F",
"3  c #29251C",
"4  c #322814",
"5  c #011223",
"6  c #00152B",
"7  c #001A35",
"8  c #001C38",
"9  c #222222",
"0  c #2A2523",
"q  c #2F2927",
"w  c #2B2B2B",
"e  c #252729",
"r  c #322C2A",
"t  c #38322F",
"y  c #36302C",
"u  c #25323F",
"i  c #343434",
"p  c #3C3632",
"a  c #3D3836",
"s  c #3C3C3C",
"d  c #31363B",
"f  c #4A3B1D",
"g  c #41341A",
"h  c #423A36",
"j  c #433D3A",
"k  c #594723",
"l  c #4A423E",
"z  c #47403B",
"x  c #665229",
"c  c #6B562B",
"v  c #725B2E",
"b  c #7D6432",
"n  c #012244",
"m  c #00254A",
"M  c #002B56",
"N  c #002E5C",
"B  c #2B3B4A",
"V  c #003265",
"C  c #00376E",
"Z  c #103D6A",
"A  c #003A73",
"S  c #013E7B",
"D  c #2C4762",
"F  c #434343",
"G  c #4C4643",
"H  c #4B4B4B",
"J  c #534A45",
"K  c #564D48",
"L  c #594F4A",
"P  c #5B514C",
"I  c #545454",
"U  c #5C5C5C",
"Y  c #585857",
"T  c #615651",
"R  c #655A54",
"E  c #685C56",
"W  c #6E615B",
"Q  c #71645E",
"!  c #5D636A",
"~  c #646464",
"^  c #6B6B6B",
"/  c #7A6B65",
"(  c #7E6F68",
")  c #746660",
"_  c #757474",
"`  c #7C7C7C",
"'  c #737578",
"]  c #856A35",
"[  c #8D7138",
"{  c #94763B",
"}  c #9A7C3E",
"|  c #96783C",
" . c #84746D",
".. c #A38341",
"X. c #AD8A45",
"o. c #B28F47",
"O. c #B49048",
"+. c #BC964B",
"@. c #BF994C",
"#. c #C59E4E",
"$. c #CCA352",
"%. c #D4AA55",
"&. c #D6AB55",
"*. c #DFB359",
"=. c #E7B95C",
"-. c #EBBC5D",
";. c #E2B55B",
":. c #F5C462",
">. c #FFCC66",
",. c #F9C764",
"<. c #004181",
"1. c #00468B",
"2. c #004A94",
"3. c #004F9D",
"4. c #084F97",
"5. c #1A5A9B",
"6. c #0051A2",
"7. c #0C5BAA",
"8. c #005AB4",
"9. c #005FBE",
"0. c #2262A3",
"q. c #3169A1",
"w. c #597999",
"e. c #4175A9",
"r. c #0163C5",
"t. c #0066CC",
"y. c #0B6CCE",
"u. c #0468CD",
"i. c #1271CF",
"p. c #1E75CC",
"a. c #1573D0",
"s. c #1A76D1",
"d. c #1E78D2",
"f. c #2079D2",
"g. c #7392B2",
"h. c #3485D7",
"j. c #3D8BD8",
"k. c #428ED9",
"l. c #4C94DB",
"z. c #5C9EDE",
"x. c #5398DD",
"c. c #61A0DF",
"v. c #75ACE3",
"b. c #7CB0E5",
"n. c #838383",
"m. c #8C8C8C",
"M. c #939393",
"N. c #9A9A9A",
"B. c #8A9BAD",
"V. c #A5A5A5",
"C. c #ACACAC",
"Z. c #B4B4B4",
"A. c #BBBBBB",
"S. c #97B3CF",
"D. c #8BB9E8",
"F. c #93BEE9",
"G. c #95BBE1",
"H. c #BDC4CB",
"J. c #A4C9ED",
"K. c #ADCEEF",
"L. c #B1D1EF",
"P. c #B9D5F1",
"I. c #C4C4C4",
"U. c #CCCCCC",
"Y. c #C7C9CB",
"T. c #D3D3D3",
"R. c #DBDBDB",
"E. c #C8CED5",
"W. c #C9DFF4",
"Q. c #D5E6F7",
"!. c #DAE9F7",
"~. c #DBE9F8",
"^. c #E4E4E4",
"/. c #EBEBEB",
"(. c #EBF3FB",
"). c #F4F4F4",
"_. c #FFFFFF",
"`. c #F2F7FD",
"'. c #E4EFFA",
"]. c None",
/* pixels */
"].].].].].].].].].].].].].].].].].].].].].].].].].].].].].].].].].].].].].].].].].].].].].].].].].].].].].].].].].].].].].].].].",
"].].].].].].].].].].].].].].].].].              ].].].].].].].].].].].].].].].].].].].].].].].].].].].].].].].].].].].].].].].].",
"].].].].].].].].].].].].    % n V V V V V V M 7 %           ].].].].].].].].].].].].].].].].].].].].].].].].].].].].].].].].].].",
"].].].].].].].].].].  = I N.8.t.t.t.t.t.t.t.t.r.8.2.S ! i ;       ].].].].].].].].].].].].].].].].].].].].].].].].].].].].].].].",
"].].].].].].].].].X ~ ^._.L.t.t.t.t.t.t.t.t.t.t.t.t.l._._./.I.^ 9       ].].].].].].].].].].].].].].].].].].].].].].].].].].].].",
"].].].].].].].].F R.^.N.^ B * o * 5 6 7 n N S 3.r.s.Q._._._._._._.T._ O   ].].].].].].].].].].].].].].].].].].].].].].].].].].].",
"].].].].].].].  ' U w 9 q p a h l j a p r 0 - & 5 D I._._._._._._._._.T.U .   ].].].].].].].].= + ].].].].].].].].].].].].].].].",
"].].].].].].    + h J K K K K K K K K K K K K J j < . s T._._._._._._._._.Z.O   ].].].].].].  m.~ ].].].].].].].].].].].].].].].",
"].].].].].].  ; l K K K K K K K K K K J K K J K K K l ; O ^ )._._._._._._._.T.9   ].].].].].  Z.^ ].].].].].].].].].].].].].].].",
"].].].].].  = h J K K K E ) / ( (  ./ Q R P L L K K K j 0 . ` _._._._._._._._.A..   ].].].].  Y.` ].].].].].].].].].].].].].].].",
"].].].].].. r j K K P /  . . . . . . . . . ./ R L L K J h p . M._._._._._._._._.N.  ].].].].. R.`   ].].].].].].].].].].].].].].",
"].].].].  ; p J K T  . . . . . . . . . . . . . .E K K J j h < = ^._._._._._._._./.s   ].].].= /.`   ].].].].].].].].].].].].].].",
"].].].].  0 h J J E Q Q ) Q / / /  . . . . . . . .T J J h h q . n._._._._._._._.).Z.X ].].].= /.n.  ].].].].].].].].].].].].].].",
"].].].].  0 h p O .     . . X X O O + ; q t G T  .Q L J h h q + F _._._._._._._./.U.H   ].].: /.m.  ].].].].].].].].].].].].].].",
"].].].].  < t q   b =.-.,.,.-.-.&.$.+.X.} [ v k 1 # 2 l h h 0 = F _._._._._._._.R.Y.M.  ].].9 ).M.  ].].].].].].].].].].].].].].",
"].].].    + 0 <   #.>.>.>.>.>.>.>.>.>.>.>.>.>.>.>.$.f ; h h 2 O I _._._._._.R.e X m.A.  ].].9 ).M.  ].].].].].].].].].].].].].].",
"].].].  < w - = , =.>.>.>.>.>.>.>.>.>.>.>.>.>.>.>.>.,.[ - y 2 X m._._._._./.w _ N.; I.9 ].].9 ^.m.  ].].].].].].].].].].].].].].",
"].].].  F R.w X f ,.>.@.:.>.>.>.>.>.>.>.+.&.>.>.>.>.>.>.1 X < . I._._._._.n.U U.U.s N.s     . e ;     ].].].].].].].].].].].].].",
"].].].  H _./.i c >.>.$ } >.>.>.>.>.>.>.1 k >.>.>.>.>.>.1 i + = ^._._._./.: A.U.^.` ^ I ^ ^./.R.T.V.U :     ].].].].].].].].].].",
"].].].  l _.).B { >.%.  { >.>.>.>.>.>.%.. k >.>.>.>.>.,., U.s i _._._._.C.s U./._.N.U U n._._._._._._.).Y.H   ].].].].].].].].].",
"].].].  s _.^.9 O.>.O.  ..>.>.>.>.>.>.[   k >.>.>.>.>.:.1 R.T.Z._._._._.` W Y._._.V.I U I ..w.! ^ n.Z.^.T.A.O ].].].].].].].].].",
"].].].  9 _.T.  &.>.|   O.>.>.>.>.>.>.x   x >.>.>.>.>.:.3 ^._._._._._._.U n.E._._.` E B i I ! ^ ^ I e   H A.9 ].].].].].].].].].",
"].].].    _.A.  :.>.@.  @.>.>.>.>.>.>.x   v >.>.>.>.>.=.3 /._._._._._._.U ` U._._.H ` q V.T._._._._.).A.i e + ].].].].].].].].].",
"].].].].  T.C.  >.>.;.4 *.>.>.>.>.>.>.b   b >.>.>.>.>.*.0 )._._._._._._.^ ~ Y././.; N.O i I ` M.Z./._._.T.9   ].].].].].].].].].",
"].].].].  V.I.  :.>.>.>.>.>.>.>.>.>.>.#.  ..>.>.>.>.>.$.w _._._._._._._.V.w Y.U.` i m.^ m.n.^ H 9 . 9 U Y.V.X ].].].].].].].].].",
"].].].].  H U.  $.;.+...| | ..o.@.%.=.,.$.:.>.>.>.>.>.X.i _._._._._._._./.w ` N.= M.I /.`./.R.Y.A.C.^ : = I s   ].].].].].].].].",
"].].].].  = Y.= $ $ ; i F F F a w X @ 4 O.>.>.>.>.>.>.[ H _._._._._._._._.^.s - ~ Z.H _._._._._.^.E.U.I.X X .   ].].].].].].].].",
"].].].].].  V.M.  9 M.N.N.N.N.N.N.m.= ^ s v >.,.@.] f # ~ _._._._._._._._./.U.U.U.F Z._._._._._._._.^.A.= Z.m.a . ].].].].].].].",
"].].].].].  H /.` i N.N.N.M.N.N.N.N.i ^ M.$ g 1 X   O H A._._._._._._._.).U.U.U.N.H _._._._._._._._._.Z.i T.U.I.n.= ].].].].].].",
"].].].].].].. N.N.a N.N.N.N.N.N.M.N.I I N.:   = H N.R._._._._._._._._.).T.Y.U.I.e T._._._._._._._._._.A.F ).`.T.Y.M.  ].].].].].",
"].].].].].].  : M.: m.N.N.N.N.N.N.N.H H _ 9 R._._._._._._._._._._._./.U.U.U.U.j m._._._._._._._._._._.A.j )._.).T.Z.  ].].].].].",
"].].].].].].].  I 9 ~ n.M.M.M.M.M.n.9 H ~ w /._._._._._._._._._./.T.U.U.U.Y.H I _.).Z.n.^ ~ W ` M.C.Y.C.9 ^._._.R._ ].].].].].].",
"].].].].].].].  X O i ^ ^ ^ ^ ^ ^ I O ~ H B _._._._._._._.).R.T.U.U.U.U.U.~ w /._.).C.V.n.r @ j r -       H Y.).U.s ].].].].].].",
"].].].].].].].].      s I U U ~ ~ : i Y > 7.~._._._./.R.T.U.U.U.U.U.U.U.^ : R._._._.R.Y.U._ , ^._._././.U.` < e s X ].].].].].].",
"].].].].].].].].].    & *             % <.9.D.R.T.U.U.U.U.U.U.U.U.Y.I.^ 9 T._._._._.^.U.U.N.  A._._._._._./.Y.  ].].].].].].].].",
"].].].].].].].].].].  . n <.A C C C <.2.2.2.q.Y.U.U.U.U.U.U.U.U.U.Z.s * E._._._._._.).U.U.Y.X g._._._._._./.A.  ].].].].].].].].",
"].].].].].].].].].].].    5 A 2.2.2.2.2.2.2.4.B.U.U.U.U.U.U.U.A.^ + m 9.P._._._._._._.U.U.U.s s _._._._._.^.C.  ].].].].].].].].",
"].].].].].].].].].].].].].    5 C 1.2.2.2.2.2.5.Y.U.U.U.Y.V.H X 6 6.t.t.D._._._._._._.T.U.U.M.= Y._._._._.R.N.  ].].].].].].].].",
"].].].].].].].].].].].].].].].    % 8 N A <.<.<.w.V.n.U e 5 M 4.p.i.u.t.h.`._._._._._./.U.U.A.=  ._._._._.R.M.  ].].].].].].].].",
"].].].].].].].].].].].].].].].].].].      o % o o : s D 1.9.j.L.'.Q.v.u.t.v._._._._._.).U.U.U.s F _._._.`.T.n.  ].].].].].].].].",
"].].].].].].].].].].].].].].].].].].].  9 /././._._._.j.t.y.(._._._._.J.t.y.~._._._._._.T.U.U._ X )._._./.U.^   ].].].].].].].].",
"].].].].].].].].].].].].].].].].].].      T._._._._._.s.t.l._.`.D.K.`._.k.t.F._._._._._.^.U.U.V.O N._._.^.U.H ].].].].].].].].].",
"].].].].].].].].].].].].].].].].].O I ~ + ~ _._._._._.i.t.v._.L.t.u.F._.F.u.k._._._._._./.U.U.Y.i i /._.T.Y.w ].].].].].].].].].",
"].].].].].].].].].].].].].].].].w ^._._.^.F I /._._._.h.t.z._.L.t.t.x._.P.t.y._._._._._.).U.U.U.n.  M.).U.A.= ].].].].].].].].].",
"].].].].].].].].].].].].].].].X Y._._._._.).M.F Y._._.v.t.s._.`.x.s.F._.L.t.t._._._._._._.R.U.U.Y.= w U.U.V.  ].].].].].].].].].",
"].].].].].].].].].].].].].].].e _._._._._._._./.I M._.!.y.t.K._._.(._._.b.t.d._._._._._._.^.U.U.Y.^   E U._   ].].].].].].].].].",
"].].].].].].].].].].].].].].].. T._._._._._.Z._._.I.C._.z.t.a.J._._._.!.a.t.t.'._._._._._.^.U.U.U.I.F   M.i   ].].].].].].].].].",
"].].].].].].].].].].].].].].].  m._._._._.).m.V._._._._.Q.s.t.y.c.F.v.f.t.t.t.J._._._._._.R.U.U.U.U.C.= O .         ].].].].].].",
"].].].].].].].].].].].].].].].  e _._._._./.Z.2 /._._._._.W.a.t.t.t.t.t.t.t.t.z._._._._.^.U.U.U.U.U.U.V.+   = n.N.+ ].].].].].].",
"].].].].].].].].].].].].].].].].  V._._._._.U.H n.U.T.R././.G.r.t.t.t.t.t.t.t.s._._.).R.U.U.U.U.U.U.U.U.A.N.I.U.C.O ].].].].].].",
"].].].].].].].].].].].].].].].].  H _._._._.R.m.s Z.Y.U.U.U.H.0.3.3.3.6.6.6.6.6.S.R.T.Y.U.U.U.U.U.U.U.U.U.U.U.Y.U ].].].].].].].",
"].].].].].].].].].].].].].].].].].  Y._._._./.A.  O 2 H M.U.U.g.2.2.2.2.2.2.2.2.e.U.U.U.U.U.U.U.U.U.U.U.U.U.U._ X ].].].].].].].",
"].].].].].].].].].].].].].].].].].  s )._._._.U.O ].].].  X w d n N V C S S S A Z _ _ ` m.A.Y.U.U.U.E.U.U.A.~ . ].].].].].].].].",
"].].].].].].].].].].].].].].].].].].  N._._.).U.9 ].].].].].].                            . I m.Z.Z.C.M.I O   ].].].].].].].].].",
"].].].].].].].].].].].].].].].].].].  O R._.R.U.i ].].].].].].].].].].].].].].].].].].].].].].  o X .   ].].].].].].].].].].].].",
"].].].].].].].].].].].].].].].].].].].  a Y.Y.C.: ].].].].].].].].].].].].].].].].].].].].].].].].].].].].].].].].].].].].].].].",
"].].].].].].].].].].].].].].].].].].].].  I 9     ].].].].].].].].].].].].].].].].].].].].].].].].].].].].].].].].].].].].].].].",
"].].].].].].].].].].].].].].].].].].].].].  ].].].].].].].].].].].].].].].].].].].].].].].].].].].].].].].].].].].].].].].].].].",
"].].].].].].].].].].].].].].].].].].].].].].].].].].].].].].].].].].].].].].].].].].].].].].].].].].].].].].].].].].].].].].].].",
"].].].].].].].].].].].].].].].].].].].].].].].].].].].].].].].].].].].].].].].].].].].].].].].].].].].].].].].].].].].].].].].].",
"].].].].].].].].].].].].].].].].].].].].].].].].].].].].].].].].].].].].].].].].].].].].].].].].].].].].].].].].].].].].].].].].",
"].].].].].].].].].].].].].].].].].].].].].].].].].].].].].].].].].].].].].].].].].].].].].].].].].].].].].].].].].].].].].].].].",
"].].].].].].].].].].].].].].].].].].].].].].].].].].].].].].].].].].].].].].].].].].].].].].].].].].].].].].].].].].].].].].].].",
"].].].].].].].].].].].].].].].].].].].].].].].].].].].].].].].].].].].].].].].].].].].].].].].].].].].].].].].].].].].].].].].]."
};
