/* XPM */
static char *result[] = {
/* columns rows colors chars-per-pixel */
"64 64 103 2 ",
"   c #010101",
".  c #090807",
"X  c #000408",
"o  c #02080D",
"O  c #0B0B0B",
"+  c #100E0D",
"@  c #13110F",
"#  c #080D12",
"$  c #000F1D",
"%  c #141414",
"&  c #1A1715",
"*  c #1C1917",
"=  c #1C1C1C",
"-  c #211D1B",
";  c #25211E",
":  c #1B1F22",
">  c #001933",
",  c #04203C",
"<  c #152432",
"1  c #242424",
"2  c #2A2522",
"3  c #2B2B2B",
"4  c #322C29",
"5  c #37302D",
"6  c #3A332F",
"7  c #343434",
"8  c #3B3B3B",
"9  c #002143",
"0  c #002A54",
"q  c #002C58",
"w  c #1D3853",
"e  c #003366",
"r  c #00366B",
"t  c #003A75",
"y  c #003F7D",
"u  c #1F466E",
"i  c #06407A",
"p  c #164371",
"a  c #2D4A66",
"s  c #454545",
"d  c #4B4B4B",
"f  c #535353",
"g  c #575859",
"h  c #5C5C5C",
"j  c #465361",
"k  c #646464",
"l  c #6D6D6D",
"z  c #737373",
"x  c #7C7C7C",
"c  c #004283",
"v  c #00468C",
"b  c #004A94",
"n  c #004D9A",
"m  c #0F5398",
"M  c #16589A",
"N  c #22609D",
"B  c #0052A3",
"V  c #0057AF",
"C  c #0A5EB2",
"Z  c #0062C5",
"A  c #0066CC",
"S  c #0468CD",
"D  c #0F6FCF",
"F  c #1371D0",
"G  c #1B76D1",
"H  c #227BD3",
"J  c #2F82D5",
"K  c #3D8BD8",
"L  c #4992DA",
"P  c #5A9CDE",
"I  c #7DB1E5",
"U  c #858585",
"Y  c #8C8C8C",
"T  c #939393",
"R  c #9B9B9B",
"E  c #92A7BC",
"W  c #9AACBE",
"Q  c #A3A3A3",
"!  c #ADADAD",
"~  c #B3B3B3",
"^  c #BCBCBC",
"/  c #8FA9C3",
"(  c #9EB0C2",
")  c #A0B0C0",
"_  c #AFB9C4",
"`  c #86B6E7",
"'  c #BEC3C8",
"]  c #ACCDEE",
"[  c #C4C4C4",
"{  c #CCCCCC",
"}  c #CBD0D6",
"|  c #D3D3D3",
" . c #DCDCDC",
".. c #C8DAED",
"X. c #DCE5EF",
"o. c #DCEAF8",
"O. c #E4E4E4",
"+. c #ECECEC",
"@. c #ECF3FB",
"#. c #F3F3F3",
"$. c #F7FAFD",
"%. c #FFFFFF",
"&. c None",
/* pixels */
"&.&.&.&.&.&.&.&.&.&.&.&.&.&.&.&.&.&.&.&.&.&.&.&.&.&.&.&.                    &.&.&.&.&.&.&.&.&.&.&.&.&.&.&.&.&.&.&.&.&.&.&.&.&.&.",
"&.&.&.&.&.&.&.&.&.&.&.&.&.&.&.&.&.&.&.&.&.&.&.      + * 2 2 4 4 5 4 4 2 2 - % .     &.&.&.&.&.&.&.&.&.&.&.&.&.&.&.&.&.&.&.&.&.&.",
"&.&.&.&.&.&.&.&.&.&.&.&.&.&.&.&.&.&.&.&.&.  O - 4 6 4 2 - * & % % @ @ % & - ; 4 4 ; +   &.&.&.&.&.&.&.&.&.&.&.&.&.&.&.&.&.&.&.&.",
"&.&.&.&.&.&.&.&.&.&.&.&.&.&.&.&.&.&.&.&.. - 5 2 & % $ 9 q r t t t t e e q 0 , 1 O & 2 *   &.&.&.&.&.&.&.&.&.&.&.&.&.&.&.&.&.&.&.",
"&.&.&.&.&.&.&.&.&.&.&.&.&.&.&.&.&.&.&.  - * % s T / Z A A A A A A A A A A A S X.^ x 3 O .   &.&.&.&.&.&.&.&.&.&.&.&.&.&.&.&.&.&.",
"&.&.&.&.&.&.&.&.&.&.&.&.&.&.&.&.&.&.&.  & k { %.%.` A A A A A A A A A A A A A ] %.%.#.Q 7   &.&.&.&.&.&.&.&.&.&.&.&.&.&.&.&.&.&.",
"&.&.&.&.&.&.&.&.&.&.&.&.&.&.&.&.&.&.  8 [ %.%.%.%.P A A A A A A A A A A A A A I %.%.%.%.#.x O &.&.&.&.&.&.&.&.&.&.&.&.&.&.&.&.&.",
"&.&.&.&.&.&.&.&.&.&.&.&.&.&.&.&.&.&.g #.%.%.%.%.%.J A A A A A A A A A A A A A P %.%.%.%.%.%.T   &.&.&.&.&.&.&.&.&.&.&.&.&.&.&.&.",
"&.&.&.&.&.&.&.&.&.&.&.&.&.&.&.&.&.1 +.%.%.%.%.%.%.G A A A A A A A A A A A A A L %.%.%.%.%.%.%.g   &.&.&.&.&.&.&.&.&.&.&.&.&.&.&.",
"&.&.&.&.&.&.&.&.&.&.&.&.&.&.&.&.  ! %.%.%.%.%.%.%.G A A A A A A A A A A A A A K %.%.%.%.%.%.%.{   &.&.&.&.&.&.&.&.&.&.&.&.&.&.&.",
"&.&.&.&.&.&.&.&.&.&.&.&.&.&.&.&.= +.%.%.%.%.%.%.%.D A A A A A A A A A A A A A J %.%.%.%.%.%.%.$.7   &.&.&.&.&.&.&.&.&.&.&.&.&.&.",
"&.&.&.&.&.&.&.&.&.&.&.&.&.&.&.  k %.%.%.%.%.%.%.%.A A A A A A A A A A A A A A H %.%.%.%.%.%.%.%.T   &.&.&.&.&.&.&.&.&.&.&.&.&.&.",
"&.&.&.&.&.&.&.&.&.&.&.&.&.&.&.  ~ %.%.%.%.%.%.%.%.A A A A A A A A A A A A A A G @.%.%.%.%.%.%.%.|   &.&.&.&.&.&.&.&.&.&.&.&.&.&.",
"&.&.&.&.&.&.&.&.&.&.&.&.&.&.  .  .%.%.%.%.%.%.%.$.A A A A A Z Z Z Z Z A Z A S F o.%.%.%.%.%.%.%.#.=   &.&.&.&.&.&.&.&.&.&.&.&.&.",
"&.&.&.&.&.&.&.&.&.&.&.&.&.    & #.%.%.%.%.%.%.%.@.Z V B n n b b b b b b n n B C ..%.%.%.%.%.%.%.%.7     &.&.&.&.&.&.&.&.&.&.&.&.",
"&.&.&.&.&.&.&.&.&.&.&.&.&.% 3 1 %.%.%.%.%.%.%.#.} b b b b b b b b b b b b b b b ( O.$.%.%.%.%.%.%.g O 3   &.&.&.&.&.&.&.&.&.&.&.",
"&.&.&.&.&.&.&.&.&.&.&.&.  R 1 8 %.%.%.%.%.%.O.{ ' b b v b b b b b b b b b b b b E { | #.%.%.%.%.%.l O ~ O &.&.&.&.&.&.&.&.&.&.&.",
"&.&.&.&.&.&.&.&.&.&.&.&.8 $.1 g %.%.%.%.%.O.{ { ' b r o 9 b b b b b b b b b b b E { { | +.%.%.%.%.U O O.8 &.&.&.&.&.&.&.&.&.&.&.",
"&.&.&.&.&.&.&.&.&.&.&.  Y %.3 f %.%.%.%.O.{ { { ' b > ! < b b b b b b b b b b b E { { { { #.%.%.%.U O O.f &.&.&.&.&.&.&.&.&.&.&.",
"&.&.&.&.&.&.&.&.&.&.&.  ^ %.d 8 %.%.%.+.{ { { { { v X +.: b b b b b b b b b b b E { { { { | $.%.%.l & { 3 &.&.&.&.&.&.&.&.&.&.&.",
"&.&.&.&.&.&.&.&.&.&.&.&.x O.k = $.%.%.| { { { { { i & %.. v b b b b b b b b b b W { { { { { O.%.%.g 1 T O &.&.&.&.&.&.&.&.&.&.&.",
"&.&.&.&.&.&.&.&.&.&.&.&.3 { x O O.%.O.{ { { { { { p 7 %.  c b b b b b b b b b b W { { { { { { $.%.3 7 1 &.&.&.&.&.&.&.&.&.&.&.&.",
"&.&.&.&.&.&.&.&.&.&.&.&.  k Q   ^ %.| { { { { { { u d %.  c b b b b b b b b b m W { { { { { { O.O.O     &.&.&.&.&.&.&.&.&.&.&.&.",
"&.&.&.&.&.&.&.&.&.&.&.&.&.  g O h +.{ { { { { { { a h %.  c b b b b b b b b b m W { { { { { { | !     &.&.&.&.&.&.&.&.&.&.&.&.&.",
"&.&.&.&.&.&.&.&.&.&.&.&.&.&.    % { { { { { { { { j l %.  v b b b b b b v b b m _ { { { { { { { d   &.&.&.&.&.&.&.&.&.&.&.&.&.&.",
"&.&.&.&.&.&.&.&.&.&.&.&.&.&.&.&.  U { { { { { { { g x %.  b b b b b b b b b b M ' { { { { { { ! . &.&.&.&.&.&.&.&.&.&.&.&.&.&.&.",
"&.&.&.&.&.&.&.&.&.&.&.&.&.&.&.&.  = [ { { { { { { f Y %.  b b b b b b b b b b N { { { { { { { g   &.&.&.&.&.&.&.&.&.&.&.&.&.&.&.",
"&.&.&.&.&.&.&.&.&.&.&.&.&.&.&.&.&.  l { { { ~ z l 1 Q #.X t c b b b b b y 0 9 w Y ^ { { { { R . &.&.&.&.&.&.&.&.&.&.&.&.&.&.&.&.",
"&.&.&.&.&.&.&.&.&.&.&.&.&.&.&.&.&.  . Q { { f f l = ~ +.  7 3 $ b b b 9   8 Y R l = T { { [ 1   &.&.&.&.&.&.&.&.&.&.&.&.&.&.&.&.",
"&.&.&.&.&.&.&.&.&.&.&.&.&.&.&.&.&.&.  1 ^ [ 3 { %.7 ! [ = %. .  1 = # = | %.%.%.%.~ O R [ s   &.&.&.&.&.&.&.&.&.&.&.&.&.&.&.&.&.",
"&.&.&.&.&.&.&.&.&.&.&.&.&.&.&.&.&.&.&.  = . % O.%.d ~ ! 7 %.#.. %.%.s Q Y 8 1 1 d ^ 8 k k   &.&.&.&.&.&.&.&.&.&.&.&.&.&.&.&.&.&.",
"&.&.&.&.&.&.&.&.&.&.&.&.&.&.&.&.&.&.&.&.O U 3 O.%.h @   d %.%.O %.%.3 O 7 Q |  .~ 1 O     &.&.&.&.&.&.&.&.&.&.&.&.&.&.&.&.&.&.&.",
"&.&.&.&.&.&.&.&.&.&.&.&.&.&.&.&.&.&.    z | 4 [ O.| R ^ %.%.+.% %.%.h k %.%.%.%.%.^ . T 1   &.&.&.&.&.&.&.&.&.&.&.&.&.&.&.&.&.&.",
"&.&.&.&.&.&.&.&.&.&.&.&.&.&.&.&.&.  =   ! $.f h [ ~ k l  .| T 8 %.%.&  .%.| k U $.#.7 Q l     &.&.&.&.&.&.&.&.&.&.&.&.&.&.&.&.&.",
"&.&.&.&.&.&.&.&.&.&.&.&.&.&.&.&.  1 ^   x %.+.g 3 R { { ^ k = | %.%.3 O.%.7 ~ 3 ~ %.f | R O . &.&.&.&.&.&.&.&.&.&.&.&.&.&.&.&.&.",
"&.&.&.&.&.&.&.&.&.&.&.&.&.&.&.&.O [ ~ 3 3 ! %.$.[ x 7 1 8 Y O.%.%.%.| d 7 T %.l 3 8 k %.k O Y   &.&.&.&.&.&.&.&.&.&.&.&.&.&.&.&.",
"&.&.&.&.&.&.&.&.&.&.&.&.&.&.&.  l +.Q g | d d ~ #.%.%.%.%.%.%.%.%.%.%.#. .%.%.#.~ ! +.R 8 % | s   &.&.&.&.&.&.&.&.&.&.&.&.&.&.&.",
"&.&.&.&.&.&.&.&.&.&.&.&.&.&.&.& ^ $.Q h %.#.~ l Y ^ +.%.%.%.%.%.%.%.%.%.%.%.%.+.{ T l U  .*  .Q . &.&.&.&.&.&.&.&.&.&.&.&.&.&.&.",
"&.&.&.&.&.&.&.&.&.&.&.&.&.&.  z | %.! h %.%.%.%.%.%.#.%.%.%.O.$.+.%.$.%.%.%.O.~ T ~ #.%.+.= +.| s &.&.&.&.&.&.&.&.&.&.&.&.&.&.&.",
"&.&.&.&.&.&.&.&.&.&.&.&.&.&.O ~ O.%.^ s %.%.%.%.%.%.%.%.%.%.7  .3  .k %.%.%.%.%.%.%.%.%. .= #. .R   &.&.&.&.&.&.&.&.&.&.&.&.&.&.",
"&.&.&.&.&.&.&.&.&.&.&.&.&.&.3 { #.%.| 8 $.%.%.%.%.%.%.%.%.%.%  .% [ f %.%.%.%.%.%.%.%.%.~ 7 %.+.[ % &.&.&.&.&.&.&.&.&.&.&.&.&.&.",
"&.&.&.&.&.&.&.&.&.&.&.&.&.  d { #.%. .3 #.%.%.%.%.%.%.%.%.%.O | & [ g %.%.%.%.%.%.%.%.%.T f %.+.{ 7 &.&.&.&.&.&.&.&.&.&.&.&.&.&.",
"&.&.&.&.&.&.&.&.&.&.&.&.&.  % s { %.O.3 +.%.%.%.%.%.%.%.%.%.   .1 ~ l %.%.%.%.%.%.%.%.%.z x $.+.~ 7   &.&.&.&.&.&.&.&.&.&.&.&.&.",
"&.&.&.&.&.&.&.&.&.&.&.&.&.  R x = U +.1 O.%.%.%.%.%.%.%.%.$.3  .8 ~ x %.%.%.%.%.%.%.%.%.d ~ O.l = 1   &.&.&.&.&.&.&.&.&.&.&.&.&.",
"&.&.&.&.&.&.&.&.&.&.&.&.&.% ^ +.X.8 g . | %.%.%.%.%.%.%.%.%.%.%.$.$.#.%.%.%.%.%.%.%.%.+.3 R = k { T   &.&.&.&.&.&.&.&.&.&.&.&.&.",
"&.&.&.&.&.&.&.&.&.&.&.&.&.2 { #.%.+.=   [ %.%.%.%.%.%.%.%.#.#.#.%.%.%.%.%.%.%.%.%.%.%. .. & ^ %.O.~ . &.&.&.&.&.&.&.&.&.&.&.&.&.",
"&.&.&.&.&.&.&.&.&.&.&.&.&.8 { +.%.#.1 & ! %.#. . .+.%.%.$.{ { { O.%.%.%.%.%.%.%.%.%.%.^   g %.%.O.^ @ &.&.&.&.&.&.&.&.&.&.&.&.&.",
"&.&.&.&.&.&.&.&.&.&.&.&.&.= ^ | +.{ 7 f R %.+.{ { { #.%.$.{ { { O.%.%.%.%.%.%.%.%.%.%.Y   s %.%.| ^ & &.&.&.&.&.&.&.&.&.&.&.&.&.",
"&.&.&.&.&.&.&.&.&.&.&.&.&.&.= z ~ g R z U %.+.{ { { +.%.%.{ { { +.%.%.%.%.%.%.%.%.%.%.k   & | | { z &.&.&.&.&.&.&.&.&.&.&.&.&.&.",
"&.&.&.&.&.&.&.&.&.&.&.&.&.&.&.&.O + O.Y k %.+.{ { { +.%.#.{ { { +.%.#.O. .O.O.+.#.%.$.8 O . d h 1 &.&.&.&.&.&.&.&.&.&.&.&.&.&.&.",
"&.&.&.&.&.&.&.&.&.&.&.&.&.&.&.&.&.  [ ! s %.+.{ { { +.%.#.{ { { #.%.O.{ { { { {  .%. .= = &.&.&.&.&.&.&.&.&.&.&.&.&.&.&.&.&.&.&.",
"&.&.&.&.&.&.&.&.&.&.&.&.&.&.&.&.&.&.k [ 7 #.#.{ { { O.%.%. .| { %.%. .{ { { { { O.%.~ % . &.&.&.&.&.&.&.&.&.&.&.&.&.&.&.&.&.&.&.",
"&.&.&.&.&.&.&.&.&.&.&.&.&.&.&.&.&.&.O ^ 3  .#.{ { {  .%.%.%.$.$.%.%. .{ { { { { +.%.U O   &.&.&.&.&.&.&.&.&.&.&.&.&.&.&.&.&.&.&.",
"&.&.&.&.&.&.&.&.&.&.&.&.&.&.&.&.&.&.&.8 3 ^ %.| { {  .%.%.%.%.%.%.%.| { { { { { #.%.d     &.&.&.&.&.&.&.&.&.&.&.&.&.&.&.&.&.&.&.",
"&.&.&.&.&.&.&.&.&.&.&.&.&.&.&.&.&.&.&.&.  x %. .{ { { O.#.%.$.$.#.O.| { { { { | %. .O   &.&.&.&.&.&.&.&.&.&.&.&.&.&.&.&.&.&.&.&.",
"&.&.&.&.&.&.&.&.&.&.&.&.&.&.&.&.&.&.&.&.&.s $.O.{ { { { { | | | | { { { { { {  .%.T     &.&.&.&.&.&.&.&.&.&.&.&.&.&.&.&.&.&.&.&.",
"&.&.&.&.&.&.&.&.&.&.&.&.&.&.&.&.&.&.&.&.&.O T  .{ { { { { { { { { { { { { { { O.$.s   &.&.&.&.&.&.&.&.&.&.&.&.&.&.&.&.&.&.&.&.&.",
"&.&.&.&.&.&.&.&.&.&.&.&.&.&.&.&.&.&.&.&.&.&.  . 7 k Y Q ^ { { { { { { { { ^ ! R g   &.&.&.&.&.&.&.&.&.&.&.&.&.&.&.&.&.&.&.&.&.&.",
"&.&.&.&.&.&.&.&.&.&.&.&.&.&.&.&.&.&.&.&.&.&.&.&.          . 1 8 s s 3 O           &.&.&.&.&.&.&.&.&.&.&.&.&.&.&.&.&.&.&.&.&.&.&.",
"&.&.&.&.&.&.&.&.&.&.&.&.&.&.&.&.&.&.&.&.&.&.&.&.&.&.&.&.&.&.&.&.&.&.&.&.    .   &.&.&.&.&.&.&.&.&.&.&.&.&.&.&.&.&.&.&.&.&.&.&.&.",
"&.&.&.&.&.&.&.&.&.&.&.&.&.&.&.&.&.&.&.&.&.&.&.&.&.&.&.&.&.&.&.&.&.&.&.&.&.&.&.&.&.&.&.&.&.&.&.&.&.&.&.&.&.&.&.&.&.&.&.&.&.&.&.&.",
"&.&.&.&.&.&.&.&.&.&.&.&.&.&.&.&.&.&.&.&.&.&.&.&.&.&.&.&.&.&.&.&.&.&.&.&.&.&.&.&.&.&.&.&.&.&.&.&.&.&.&.&.&.&.&.&.&.&.&.&.&.&.&.&.",
"&.&.&.&.&.&.&.&.&.&.&.&.&.&.&.&.&.&.&.&.&.&.&.&.&.&.&.&.&.&.&.&.&.&.&.&.&.&.&.&.&.&.&.&.&.&.&.&.&.&.&.&.&.&.&.&.&.&.&.&.&.&.&.&.",
"&.&.&.&.&.&.&.&.&.&.&.&.&.&.&.&.&.&.&.&.&.&.&.&.&.&.&.&.&.&.&.&.&.&.&.&.&.&.&.&.&.&.&.&.&.&.&.&.&.&.&.&.&.&.&.&.&.&.&.&.&.&.&.&."
};
