/* XPM */
static char *result[] = {
/* columns rows colors chars-per-pixel */
"64 64 171 2 ",
"   c #010101",
".  c #090704",
"X  c #0B0905",
"o  c #00060B",
"O  c #0B0B0B",
"+  c #05080A",
"@  c #100E0E",
"#  c #120E07",
"$  c #15110A",
"%  c #1C170B",
"&  c #020E1B",
"*  c #141413",
"=  c #1B1B1B",
"-  c #1B1816",
";  c #0E1318",
":  c #231C0E",
">  c #221E1C",
",  c #28231A",
"<  c #372C17",
"1  c #001529",
"2  c #091B2E",
"3  c #051423",
"4  c #001933",
"5  c #001E3D",
"6  c #06223F",
"7  c #1A2734",
"8  c #242323",
"9  c #2B2623",
"0  c #2E2926",
"q  c #2C2C2C",
"w  c #332D2A",
"e  c #36302D",
"r  c #3A332F",
"t  c #2B343E",
"y  c #333333",
"u  c #3E3632",
"i  c #3B3B3B",
"p  c #3D3B37",
"a  c #4B3C1E",
"s  c #46381C",
"d  c #423A36",
"f  c #453D39",
"g  c #594724",
"h  c #4A423D",
"j  c #6B562A",
"k  c #645028",
"l  c #745D2E",
"z  c #7C6332",
"x  c #002245",
"c  c #00264D",
"v  c #002B55",
"b  c #002F5E",
"n  c #003366",
"m  c #00366D",
"M  c #003C77",
"N  c #375472",
"B  c #444444",
"V  c #4E4540",
"C  c #4B4B4B",
"Z  c #544B46",
"A  c #564D48",
"S  c #584E49",
"D  c #5A514B",
"F  c #535353",
"G  c #5C5C5C",
"H  c #5F5550",
"J  c #655A54",
"K  c #6E615B",
"L  c #71645D",
"P  c #656565",
"I  c #6B6B6B",
"U  c #756761",
"Y  c #7B6C66",
"T  c #7B6C66",
"R  c #7F7069",
"E  c #747474",
"W  c #7B7B7B",
"Q  c #806633",
"!  c #876C36",
"~  c #95773B",
"^  c #9A7B3E",
"/  c #96783C",
"(  c #84746D",
")  c #9F8040",
"_  c #A88743",
"`  c #B28F47",
"'  c #B59148",
"]  c #C19B4D",
"[  c #C79F50",
"{  c #CDA452",
"}  c #D5AA55",
"|  c #DAAF57",
" . c #D6AB56",
".. c #DEB259",
"X. c #E3B65B",
"o. c #EEBF5F",
"O. c #E6B85C",
"+. c #F4C462",
"@. c #FFCC66",
"#. c #004284",
"$. c #00468D",
"%. c #004A94",
"&. c #004C99",
"*. c #19548E",
"=. c #27639F",
"-. c #0052A3",
";. c #005AB3",
":. c #005CB9",
">. c #2D66A0",
",. c #49698A",
"<. c #0063C5",
"1. c #0066CC",
"2. c #0468CD",
"3. c #0D6ECF",
"4. c #1271CF",
"5. c #1674D1",
"6. c #1B76D2",
"7. c #1F78D2",
"8. c #2176CC",
"9. c #237BD3",
"0. c #2A7FD4",
"q. c #377DC2",
"w. c #7D8389",
"e. c #7796B5",
"r. c #3787D7",
"t. c #428ED9",
"y. c #5C9DDE",
"u. c #5899D9",
"i. c #6DA7E2",
"p. c #65A2E0",
"a. c #79AFE4",
"s. c #72AAE3",
"d. c #7FB2E5",
"f. c #838383",
"g. c #8B8B8B",
"h. c #939393",
"j. c #9A9A9A",
"k. c #939EA9",
"l. c #87A1BC",
"z. c #A5A5A5",
"x. c #ACACAC",
"c. c #B4B4B4",
"v. c #BCBCBC",
"b. c #B5B8BC",
"n. c #B0BAC4",
"m. c #A8B5C2",
"M. c #85B6E7",
"N. c #9CC3EB",
"B. c #A6CAED",
"V. c #BFD9F2",
"C. c #B7D4F1",
"Z. c #C4C4C4",
"A. c #CCCCCC",
"S. c #C6C8CA",
"D. c #D3D3D3",
"F. c #DCDCDC",
"G. c #C2DAF3",
"H. c #C9DEF4",
"J. c #DAE4EF",
"K. c #CEE2F5",
"L. c #DAE9F8",
"P. c #E4E4E4",
"I. c #ECECEC",
"U. c #E3EEF9",
"Y. c #E7EEF4",
"T. c #EBF3FB",
"R. c #F4F4F4",
"E. c #F1F6FC",
"W. c #F5F9FD",
"Q. c #FFFFFF",
"!. c None",
/* pixels */
"!.!.!.!.!.!.!.!.!.!.!.!.!.!.!.!.!.!.!.!.!.!.!.!.!.!.!.!.!.!.!.!.!.!.!.!.!.!.!.!.!.!.!.!.!.!.!.!.!.!.!.!.!.!.!.!.!.!.!.!.!.!.!.!.",
"!.!.!.!.!.!.!.!.!.!.!.!.!.!.!.!.!.!.!.!.!.!.!.!.!.!.!.!.!.!.!.!.!.!.!.!.!.!.!.!.!.!.!.!.!.!.!.!.!.!.!.!.!.!.!.!.!.!.!.!.!.!.!.!.",
"!.!.!.!.!.!.!.!.!.!.!.!.!.!.!.!.!.                !.!.!.!.!.!.!.!.!.!.!.!.!.!.!.!.!.!.!.!.!.!.!.!.!.!.!.!.!.!.!.!.!.!.!.!.!.!.!.",
"!.!.!.!.!.!.!.!.!.!.!.!.!.    o 1 4 4 4 4 4 4 4 & o           !.!.!.!.!.!.!.!.!.!.!.!.!.!.!.!.!.!.!.!.!.!.!.!.!.!.!.!.!.!.!.!.!.",
"!.!.!.!.!.!.!.!.!.!.!.    y *.;.<.1.1.1.1.1.1.1.<.;.&.,.G i         !.!.!.!.!.!.!.!.!.!.!.!.!.!.!.!.!.!.!.!.!.!.!.!.!.!.!.!.!.!.",
"!.!.!.!.!.!.!.!.!.!.. I A.Q.4.<.1.1.1.1.1.1.1.<.1.<.6.E.Q.Q.R.S.h.C *     !.!.!.!.!.!.!.!.!.!.!.!.!.!.!.!.!.!.!.!.!.!.!.!.!.!.!.",
"!.!.!.!.!.!.!.!.!.B b.R.P.b.M n n v v v b m #.-.:.1.M.Q.Q.Q.Q.Q.Q.R.D.f.=   !.!.!.!.!.!.!.!.!.!.!.!.!.!.!.!.!.!.!.!.!.!.!.!.!.!.",
"!.!.!.!.!.!.!.!.q F.z.q * @ - 8 w w w w 0 > * . o 2 w.R.Q.Q.Q.Q.Q.Q.Q.Q.I.I     !.!.!.!.!.!.!.!.!.  !.!.!.!.!.!.!.!.!.!.!.!.!.!.",
"!.!.!.!.!.!.!.  q * 9 f A A A A A A A A A A A A V w - O E P.Q.Q.Q.Q.Q.Q.Q.Q.c.=   !.!.!.!.!.!.!.!.C 8 !.!.!.!.!.!.!.!.!.!.!.!.!.",
"!.!.!.!.!.!.    * f A A A A A A A Z A A A A A A A S Z w @ 8 v.Q.Q.Q.Q.Q.Q.Q.Q.Z.O   !.!.!.!.!.!.  S.G !.!.!.!.!.!.!.!.!.!.!.!.!.",
"!.!.!.!.!.!.  @ f Z A A A H L U T T U L J S A A A A Z Z d 8 O h.Q.Q.Q.Q.Q.Q.Q.Q.Z.O   !.!.!.!.!.  I.i !.!.!.!.!.!.!.!.!.!.!.!.!.",
"!.!.!.!.!.!.X w V A A D L ( ( ( ( ( ( ( ( ( Y L D A S S h d 9 O Z.Q.Q.Q.Q.Q.Q.Q.Q.h.  !.!.!.!.!.* Q.B !.!.!.!.!.!.!.!.!.!.!.!.!.",
"!.!.!.!.!.  = d A A D R ( ( ( ( ( ( ( ( ( ( ( ( ( H A A V d u @ 8 Q.Q.Q.Q.Q.Q.Q.Q.F.C   !.!.!.  i Q.q !.!.!.!.!.!.!.!.!.!.!.!.!.",
"!.!.!.!.!.. 9 f A S Y ( ( ( ( ( ( ( ( ( ( ( ( ( ( T D A V f d >   A.Q.Q.Q.Q.Q.Q.Q.D.z.  !.!.!.  G Q.q !.!.!.!.!.!.!.!.!.!.!.!.!.",
"!.!.!.!.!.O w f h w e 0 0 9 9 9 9 9 0 r d f h D J Y J A f d d 9 . c.Q.Q.Q.Q.Q.Q.Q.D.A.9 !.!.!.  E Q.q !.!.!.!.!.!.!.!.!.!.!.!.!.",
"!.!.!.!.  O 9 d * . a j z ^ ^ _ ^ Q Q l j j g a < : * w f d u , . j.Q.Q.Q.Q.Q.I.g.W S.E   !.!.  f.Q.q !.!.!.!.!.!.!.!.!.!.!.!.!.",
"!.!.!.!.  . > w O % o.@.@.@.@.@.@.@.@.@.@.@.@.@.@.+.[ a = u r > . c.Q.Q.Q.Q.I.q i p P x.+ !.!.  j.I.8 !.!.!.!.!.!.!.!.!.!.!.!.!.",
"!.!.!.!.    O 9 . < @.@.@.@.@.@.@.@.@.@.@.@.@.@.@.@.@.+.k * 0 >   A.Q.Q.Q.Q.E h S.b.y Z.= !.!.  x.I.8 !.!.!.!.!.!.!.!.!.!.!.!.!.",
"!.!.!.!.  P B * X g @.@.+.@.@.@.@.@.@.@.@.' +.@.@.@.@.@.}   X =   I.Q.Q.Q.P.* b.A.D.C v.0     + E z.= !.!.!.!.!.!.!.!.!.!.!.!.!.",
"!.!.!.!.  f.I.I . l @.X.s o.@.@.@.@.@.@.| . _ @.@.@.@.@.... C O * Q.Q.Q.Q.x.F A.P.W.W j.i i P F C q * .     !.!.!.!.!.!.!.!.!.!.",
"!.!.!.!.  W Q.Q.+ / @._ X | @.@.@.@.@.@._   ~ @.@.@.@.@...X P.C C Q.Q.Q.Q.E w.D.Q.Q.g.g.B z.Q.Q.Q.W.F.x.P =   !.!.!.!.!.!.!.!.!.",
"!.!.!.!.  I Q.R.  ` @.l    .@.@.@.@.@.@.!   ~ @.@.@.@.@.X.X Q.I.I.Q.Q.Q.Q.B j.D.Q.Q.f.f.B z.I.I.I.R.Q.Q.Q.W.g.  !.!.!.!.!.!.!.!.",
"!.!.!.!.  B Q.F.  { @.j . | @.@.@.@.@.@.j   ~ @.@.@.@.@.|   Q.Q.Q.Q.Q.Q.Q.h j.D.Q.Q.P j.y 8 , = = 8 y I x.S.A.y !.!.!.!.!.!.!.!.",
"!.!.!.!.  9 W.S.X ..@.l X ..@.@.@.@.@.@.j   ~ @.@.@.@.@. .$ Q.Q.Q.Q.Q.Q.Q.G g.D.R.Q.y x.i j.j.c.v.x.z.P @ q z.C !.!.!.!.!.!.!.!.",
"!.!.!.!.!.@ P.v.: O.@._ $ O.@.@.@.@.@.@.z   ^ @.@.@.@.@.{ * Q.Q.Q.Q.Q.Q.Q.h.F A.D.x.8 x.q I W z.c.D.R.Q.I.I + = !.!.!.!.!.!.!.!.",
"!.!.!.!.!.  v.A.% X.@.+.' @.@.@.@.@.@.@.'   ' @.@.@.@.@.] * Q.Q.Q.Q.Q.Q.Q.D.* c.Z.i P I q y 8 = * - y G z.F.i   !.!.!.!.!.!.!.!.",
"!.!.!.!.!.  ( P..  .@.@.@.@.@.@.@.@.@.@.@.' +.@.@.@.@.@.` 8 Q.Q.Q.Q.Q.Q.Q.Q.W = h @ b.y I.P.D.Z.b.x.h.i   = J o !.!.!.!.!.!.!.!.",
"!.!.!.!.!.  t R.+ l ! < , = = = = - # , g ' @.@.@.@.@.@./ q Q.Q.Q.Q.Q.Q.Q.Q.Q.x.W c.f.h.Q.Q.Q.W.I.F.A.A.E O =     !.!.!.!.!.!.!.",
"!.!.!.!.!.!.+ c.y   X E g.g.g.g.g.g.I $ F i ~ @.+. .~ s $ p Q.Q.Q.Q.Q.Q.Q.Q.P.A.A.S.i I.Q.Q.Q.Q.Q.Q.I.D.I i b.W i . !.!.!.!.!.!.",
"!.!.!.!.!.!.  F A.B * j.j.j.j.j.j.j.j.i G h., a : .   + B S.Q.Q.Q.Q.Q.Q.Q.I.A.A.A.E W Q.Q.Q.Q.Q.Q.Q.Q.Q.P F P.A.S.h.O !.!.!.!.!.",
"!.!.!.!.!.!.    S.D., j.j.j.j.h.j.j.h.G i h.q O 8 G j.P.Q.Q.Q.Q.Q.Q.Q.Q.P.A.A.A.z.y R.Q.Q.Q.Q.Q.Q.Q.Q.Q.I I Q.R.F.A.W   !.!.!.!.",
"!.!.!.!.!.!.!.  B b.O h.j.j.j.j.j.j.j.P y f.q j.Q.Q.Q.Q.Q.Q.Q.Q.Q.Q.W.F.A.A.A.v.q Z.Q.Q.Q.Q.Q.Q.Q.Q.Q.Q.W F Q.Q.W.A.W   !.!.!.!.",
"!.!.!.!.!.!.!.!.  I * P g.j.j.j.j.j.h.i q P u Z.Q.Q.Q.Q.Q.Q.Q.Q.W.P.D.A.A.A.A.h E W.Q.Q.I.A.Z.v.n.v.v.D.g.q W.Q.R.D.G !.!.!.!.!.",
"!.!.!.!.!.!.!.!.  @ 9 i I E E W E I P - B P t J.Q.Q.Q.Q.Q.Q.I.F.A.A.A.A.A.Z.C C Q.Q.P.P i y O O - - * .   . C x.F.A.q !.!.!.!.!.",
"!.!.!.!.!.!.!.!.!.    + C P P P P I C O G q M N.Q.Q.W.R.P.A.A.A.A.A.A.A.A.G q I.Q.Q.Q.A.A.A.C 8 I.Q.Q.Q.Q.P.W 8 . * !.!.!.!.!.!.",
"!.!.!.!.!.!.!.!.!.!.    . O = - - = + X + c :.q.P.D.D.A.A.A.A.A.A.A.A.S.C = F.Q.Q.Q.Q.F.A.A.j.. j.Q.Q.Q.Q.W.D.G   !.!.!.!.!.!.!.",
"!.!.!.!.!.!.!.!.!.!.!.  + 6 b v c x c n #.%.%.%.m.A.A.A.A.A.A.A.A.A.z.y 2 F.Q.Q.Q.Q.Q.R.A.A.Z.> F Q.Q.Q.Q.W.A.C   !.!.!.!.!.!.!.",
"!.!.!.!.!.!.!.!.!.!.!.!.    1 #.%.%.%.%.%.%.%.%.=.A.A.A.A.A.A.A.b.C + v <.K.Q.Q.Q.Q.Q.Q.D.A.A.J + R.Q.Q.Q.R.A.p !.!.!.!.!.!.!.!.",
"!.!.!.!.!.!.!.!.!.!.!.!.!.!.  o 5 m $.%.%.%.%.%.%.e.A.A.A.Z.h.C ; x &.<.1.s.Q.Q.Q.Q.Q.Q.J.A.A.j.X c.Q.Q.Q.R.A.8 !.!.!.!.!.!.!.!.",
"!.!.!.!.!.!.!.!.!.!.!.!.!.!.!.!.  o 1 c m #.%.%.%.*.k.g.P q 3 v &.3.4.1.1.4.H.Q.Q.Q.Q.Q.I.A.A.Z.y I Q.Q.Q.I.A.+ !.!.!.!.!.!.!.!.",
"!.!.!.!.!.!.!.!.!.!.!.!.!.!.!.!.!.!.!.          + + - B N -.<.0.K.Q.Q.G.5.1.5.U.Q.Q.Q.Q.W.D.A.A.E = P.Q.Q.P.v.  !.!.!.!.!.!.!.!.",
"!.!.!.!.!.!.!.!.!.!.!.!.!.!.!.!.!.!.!.!.  = A.D.D.F.I.Q.a.2.2.C.Q.Q.Q.Q.L.6.1.M.Q.Q.Q.Q.Q.P.A.A.c.  E Q.Q.D.x.  !.!.!.!.!.!.!.!.",
"!.!.!.!.!.!.!.!.!.!.!.!.!.!.!.!.!.!.!.!.!.+ D.Q.Q.Q.Q.Q.y.1.0.T.Q.N.M.U.Q.B.1.r.Q.Q.Q.Q.Q.I.A.A.A.q * P.I.A.g.  !.!.!.!.!.!.!.!.",
"!.!.!.!.!.!.!.!.!.!.!.!.!.!.!.!.!.!.!.      W Q.Q.Q.Q.Q.y.1.r.W.E.1.1.9.Q.U.3.2.T.Q.Q.Q.Q.Q.D.A.A.W   G P.A.P   !.!.!.!.!.!.!.!.",
"!.!.!.!.!.!.!.!.!.!.!.!.!.!.!.!.!.!.y c.D.j.i g.R.Q.Q.Q.M.1.9.L.Q.5.1.1.Q.E.7.1.G.Q.Q.Q.Q.Q.F.A.A.S.i . z.A.q !.!.!.!.!.!.!.!.!.",
"!.!.!.!.!.!.!.!.!.!.!.!.!.!.!.!.!.y R.Q.Q.Q.P.G y F.Q.Q.V.1.1.C.Q.N.6.u.Q.E.7.1.G.Q.Q.Q.Q.Q.I.A.A.A.j.+ i c.* !.!.!.!.!.!.!.!.!.",
"!.!.!.!.!.!.!.!.!.!.!.!.!.!.!.!.  x.Q.Q.Q.Q.Q.Q.A.K ( Q.W.r.1.t.Q.Q.Q.Q.Q.H.2.1.V.Q.Q.Q.Q.Q.W.D.A.A.A.(   q   !.!.    !.!.!.!.!.",
"!.!.!.!.!.!.!.!.!.!.!.!.!.!.!.!.  x.Q.Q.Q.Q.Q.P.Q.R.c.,.R.C.2.2.i.T.Q.Q.U.r.1.1.i.Q.Q.Q.Q.Q.R.A.A.A.A.A.C       . * +   !.!.!.!.",
"!.!.!.!.!.!.!.!.!.!.!.!.!.!.!.!.  F Q.Q.Q.Q.Q.S.z.Q.Q.W.Q.Q.y.<.1.7.y.p.5.1.1.1.7.T.Q.Q.Q.Q.D.A.A.A.A.A.Z.F   O ) B.G o !.!.!.!.",
"!.!.!.!.!.!.!.!.!.!.!.!.!.!.!.!.  + P.Q.Q.Q.R.F.p c.Q.Q.Q.Q.Q.a.1.1.1.1.1.1.1.1.1.V.Q.Q.R.F.A.A.A.A.A.A.A.A.x.b.A.A.f !.!.!.!.!.",
"!.!.!.!.!.!.!.!.!.!.!.!.!.!.!.!.!.  I Q.Q.Q.Q.F.h.B D.F.P.I.R.Y.8.<.<.<.<.<.<.<.<.u.R.I.D.A.A.A.A.A.A.A.A.A.A.A.A.k.. !.!.!.!.!.",
"!.!.!.!.!.!.!.!.!.!.!.!.!.!.!.!.!.  * P.Q.Q.Q.R.A.y j.A.A.A.A.A.l.%.&.%.%.&.%.%.%.%.n.A.A.A.A.A.A.A.A.A.A.A.A.A.b.= !.!.!.!.!.!.",
"!.!.!.!.!.!.!.!.!.!.!.!.!.!.!.!.!.!.  E Q.Q.Q.Q.D.K * i G f.c.A.A.=.%.%.%.%.%.%.%.%.e.A.A.A.A.A.A.A.A.A.A.A.A.g.8 !.!.!.!.!.!.!.",
"!.!.!.!.!.!.!.!.!.!.!.!.!.!.!.!.!.!.!.  D.Q.Q.Q.P.f.  !.      O y 7 5 v v v v v c 5 3 = .   * G g.b.v.v.c.h.y   !.!.!.!.!.!.!.!.",
"!.!.!.!.!.!.!.!.!.!.!.!.!.!.!.!.!.!.!.  C Q.Q.Q.T.x.. !.!.!.!.!.!.                                O * * +   !.!.!.!.!.!.!.!.!.!.",
"!.!.!.!.!.!.!.!.!.!.!.!.!.!.!.!.!.!.!.!.  f.Q.Q.P.b.= !.!.!.!.!.!.!.!.!.!.!.!.!.!.!.!.!.!.!.!.!.!.!.!.!.!.!.!.!.!.!.!.!.!.!.!.!.",
"!.!.!.!.!.!.!.!.!.!.!.!.!.!.!.!.!.!.!.!.  + c.F.A.c.= !.!.!.!.!.!.!.!.!.!.!.!.!.!.!.!.!.!.!.!.!.!.!.!.!.!.!.!.!.!.!.!.!.!.!.!.!.",
"!.!.!.!.!.!.!.!.!.!.!.!.!.!.!.!.!.!.!.!.!.  8 z.F - + !.!.!.!.!.!.!.!.!.!.!.!.!.!.!.!.!.!.!.!.!.!.!.!.!.!.!.!.!.!.!.!.!.!.!.!.!.",
"!.!.!.!.!.!.!.!.!.!.!.!.!.!.!.!.!.!.!.!.!.!.      !.!.!.!.!.!.!.!.!.!.!.!.!.!.!.!.!.!.!.!.!.!.!.!.!.!.!.!.!.!.!.!.!.!.!.!.!.!.!.",
"!.!.!.!.!.!.!.!.!.!.!.!.!.!.!.!.!.!.!.!.!.!.!.!.!.!.!.!.!.!.!.!.!.!.!.!.!.!.!.!.!.!.!.!.!.!.!.!.!.!.!.!.!.!.!.!.!.!.!.!.!.!.!.!.",
"!.!.!.!.!.!.!.!.!.!.!.!.!.!.!.!.!.!.!.!.!.!.!.!.!.!.!.!.!.!.!.!.!.!.!.!.!.!.!.!.!.!.!.!.!.!.!.!.!.!.!.!.!.!.!.!.!.!.!.!.!.!.!.!.",
"!.!.!.!.!.!.!.!.!.!.!.!.!.!.!.!.!.!.!.!.!.!.!.!.!.!.!.!.!.!.!.!.!.!.!.!.!.!.!.!.!.!.!.!.!.!.!.!.!.!.!.!.!.!.!.!.!.!.!.!.!.!.!.!.",
"!.!.!.!.!.!.!.!.!.!.!.!.!.!.!.!.!.!.!.!.!.!.!.!.!.!.!.!.!.!.!.!.!.!.!.!.!.!.!.!.!.!.!.!.!.!.!.!.!.!.!.!.!.!.!.!.!.!.!.!.!.!.!.!.",
"!.!.!.!.!.!.!.!.!.!.!.!.!.!.!.!.!.!.!.!.!.!.!.!.!.!.!.!.!.!.!.!.!.!.!.!.!.!.!.!.!.!.!.!.!.!.!.!.!.!.!.!.!.!.!.!.!.!.!.!.!.!.!.!."
};
