/* XPM */
static char *result[] = {
/* columns rows colors chars-per-pixel */
"64 64 109 2 ",
"   c #010101",
".  c #090807",
"X  c #00050A",
"o  c #05090D",
"O  c #0B0B0B",
"+  c #110F0E",
"@  c #000A15",
"#  c #0A0E13",
"$  c #010E1B",
"%  c #00101F",
"&  c #131313",
"*  c #191614",
"=  c #1C1917",
"-  c #1C1B1B",
";  c #201C1A",
":  c #001122",
">  c #00162C",
",  c #001A35",
"<  c #001E3D",
"1  c #00203F",
"2  c #232323",
"3  c #2B2623",
"4  c #2F2927",
"5  c #2C2C2C",
"6  c #322C29",
"7  c #37312D",
"8  c #39322F",
"9  c #323232",
"0  c #3B3330",
"q  c #3B3B3B",
"w  c #002245",
"e  c #00254B",
"r  c #002A54",
"t  c #002D59",
"y  c #003B75",
"u  c #003F7F",
"i  c #454545",
"p  c #4C4C4C",
"a  c #535353",
"s  c #5B5B5B",
"d  c #54616E",
"f  c #636363",
"g  c #6C6C6C",
"h  c #737373",
"j  c #7C7C7C",
"k  c #004284",
"l  c #00488F",
"z  c #004A94",
"x  c #0B5197",
"c  c #075099",
"v  c #125599",
"b  c #17599A",
"n  c #1A5B9B",
"m  c #38638E",
"M  c #2C6196",
"N  c #0152A3",
"B  c #0055AA",
"V  c #0058AF",
"C  c #0058B0",
"Z  c #005EBC",
"A  c #3169A2",
"S  c #557290",
"D  c #6D7D8E",
"F  c #0063C7",
"G  c #0066CC",
"H  c #0E6CCA",
"J  c #1573D0",
"K  c #1B76D1",
"L  c #1E78D2",
"P  c #257CD3",
"I  c #3486D6",
"U  c #3C8AD8",
"Y  c #458FDA",
"T  c #4D94DB",
"R  c #6AA5E1",
"E  c #848484",
"W  c #838688",
"Q  c #8B8B8B",
"!  c #939393",
"~  c #96999C",
"^  c #9D9D9D",
"/  c #92A7BC",
"(  c #94A9BD",
")  c #A3A3A3",
"_  c #ACACAC",
"`  c #B3B3B3",
"'  c #BCBCBC",
"]  c #A0B0C0",
"[  c #A8B5C2",
"{  c #B5BDC6",
"}  c #AEBFD0",
"|  c #8EBBE8",
" . c #BDC3C8",
".. c #9BC3EB",
"X. c #C4C4C4",
"o. c #C7C9CB",
"O. c #CCCCCC",
"+. c #D3D3D3",
"@. c #DBDBDB",
"#. c #C6DDF3",
"$. c #DEE4EA",
"%. c #D2E4F5",
"&. c #E4E4E4",
"*. c #ECECEC",
"=. c #E1EDF9",
"-. c #EFF5FC",
";. c #F4F4F4",
":. c #FFFFFF",
">. c None",
/* pixels */
">.>.>.>.>.>.>.>.>.>.>.>.>.>.>.>.>.>.>.>.>.>.>.>.>.>.>.>.>.>.>.>.  >.>.>.>.>.>.>.>.>.>.>.>.>.>.>.>.>.>.>.>.>.>.>.>.>.>.>.>.>.>.>.",
">.>.>.>.>.>.>.>.>.>.>.>.>.>.>.>.>.>.>.>.>.>.>.>.>.      . + * ; ; = * + O         >.>.>.>.>.>.>.>.>.>.>.>.>.>.>.>.>.>.>.>.>.>.>.",
">.>.>.>.>.>.>.>.>.>.>.>.>.>.>.>.>.>.>.>.>.>.  . * 3 6 0 0 6 6 4 3 3 3 3 6 8 6 3 ; O   >.>.>.>.>.>.>.>.>.>.>.>.>.>.>.>.>.>.>.>.>.",
">.>.>.>.>.>.>.>.>.>.>.>.>.>.>.>.>.>.>.>.  O 3 8 4 ; & # $ : > > > > : % @ @ O & ; 6 3 +   >.>.>.>.>.>.>.>.>.>.>.>.>.>.>.>.>.>.>.",
">.>.>.>.>.>.>.>.>.>.>.>.>.>.>.>.>.>.>.  * 6 = & 0 d u B Z G G G G G G G Z Z N ^ f 2 O = . >.>.>.>.>.>.>.>.>.>.>.>.>.>.>.>.>.>.>.",
">.>.>.>.>.>.>.>.>.>.>.>.>.>.>.>.>.>.>.. & - g X.:...G G G G G G G G G G G G G #.:.*._ i O   >.>.>.>.>.>.>.>.>.>.>.>.>.>.>.>.>.>.",
">.>.>.>.>.>.>.>.>.>.>.>.>.>.>.>.>.>.>.O g &.:.:.:.R G G G G G G G G G G G G G | :.:.:.:._ 5 >.>.>.>.>.>.>.>.>.>.>.>.>.>.>.>.>.>.",
">.>.>.>.>.>.>.>.>.>.>.>.>.>.>.>.>.>.= ' :.:.:.:.:.U G G G G G G G G G G G G G R :.:.:.:.:.*.i >.>.>.>.>.>.>.>.>.>.>.>.>.>.>.>.>.",
">.>.>.>.>.>.>.>.>.>.>.>.>.>.>.>.>.O X.:.:.:.:.:.:.L G G G G G G G G G G G G G T :.:.:.:.:.:.*.2 >.>.>.>.>.>.>.>.>.>.>.>.>.>.>.>.",
">.>.>.>.>.>.>.>.>.>.>.>.>.>.>.>.  h :.:.:.:.:.:.:.K G G G G G G G G G G G G G Y :.:.:.:.:.:.:.)   >.>.>.>.>.>.>.>.>.>.>.>.>.>.>.",
">.>.>.>.>.>.>.>.>.>.>.>.>.>.>.>.. @.:.:.:.:.:.:.:.K G G G G G G G G G G G G G I :.:.:.:.:.:.:.*.* >.>.>.>.>.>.>.>.>.>.>.>.>.>.>.",
">.>.>.>.>.>.>.>.>.>.>.>.>.>.>.  q :.:.:.:.:.:.:.:.G G G G G G G G G G G G G G P :.:.:.:.:.:.:.:.g   >.>.>.>.>.>.>.>.>.>.>.>.>.>.",
">.>.>.>.>.>.>.>.>.>.>.>.>.>.>.  ^ :.:.:.:.:.:.:.:.G G G G G G G G G G G G G G K -.:.:.:.:.:.:.:.'   >.>.>.>.>.>.>.>.>.>.>.>.>.>.",
">.>.>.>.>.>.>.>.>.>.>.>.>.>.>.  +.:.:.:.:.:.:.:.:.G G G G G G G G G G G G G G J =.:.:.:.:.:.:.:.*.O   >.>.>.>.>.>.>.>.>.>.>.>.>.",
">.>.>.>.>.>.>.>.>.>.>.>.>.>.  & *.:.:.:.:.:.:.:.-.G F Z C B N N c N N N B V Z H %.:.:.:.:.:.:.:.:.5     >.>.>.>.>.>.>.>.>.>.>.>.",
">.>.>.>.>.>.>.>.>.>.>.>.>.  & - :.:.:.:.:.:.:.:.$.N z z z z z z z z z z z z z c } ;.:.:.:.:.:.:.:.i . O >.>.>.>.>.>.>.>.>.>.>.>.",
">.>.>.>.>.>.>.>.>.>.>.>.  a 5 q :.:.:.:.:.:.;.@. .z z z z z z z z z z z z z z z / O.&.:.:.:.:.:.:.s O W   >.>.>.>.>.>.>.>.>.>.>.",
">.>.>.>.>.>.>.>.>.>.>.>.- &.2 p :.:.:.:.:.;.+.O. .z z t w l z z z z z z z z z z / O.O.@.:.:.:.:.:.j O @.2 >.>.>.>.>.>.>.>.>.>.>.",
">.>.>.>.>.>.>.>.>.>.>.>.g :.2 s :.:.:.:.*.+.O.O. .z k 2 a y z z z z z z z z z z / O.O.O.+.:.:.:.:.Q O &.p >.>.>.>.>.>.>.>.>.>.>.",
">.>.>.>.>.>.>.>.>.>.>.  ` :.q i :.:.:.;.+.O.O.O.O.z t a ^ r z z z z z z z z z z / O.O.O.O.@.:.:.:.h & @.i >.>.>.>.>.>.>.>.>.>.>.",
">.>.>.>.>.>.>.>.>.>.>.>.) :.s 5 :.:.:.@.O.O.O.O.O.z , j ! w z z z z z z z z z z ( O.O.O.O.O.*.:.:.f * ` & >.>.>.>.>.>.>.>.>.>.>.",
">.>.>.>.>.>.>.>.>.>.>.>.i +.g & *.:.;.O.O.O.O.O.O.v @ ) Q < z z z z z z z z z x ( O.O.O.O.O.+.:.:.q 9 a   >.>.>.>.>.>.>.>.>.>.>.",
">.>.>.>.>.>.>.>.>.>.>.>.. ^ !   +.:.@.O.O.O.O.O.O.b . @.D 1 z z z z z z z z z x [ O.O.O.O.O.O.*.;.* =   >.>.>.>.>.>.>.>.>.>.>.>.",
">.>.>.>.>.>.>.>.>.>.>.>.>.+ ! . Q ;.O.O.O.O.O.O.O.M   :.E w z z z z z z z z z x ( O.O.O.O.O.O.@.O.    >.>.>.>.>.>.>.>.>.>.>.>.>.",
">.>.>.>.>.>.>.>.>.>.>.>.>.>.O O 5 @.O.O.O.O.O.O.O.m * :.E e z z z z z z z z z x [ O.O.O.O.O.O.O.h   >.>.>.>.>.>.>.>.>.>.>.>.>.>.",
">.>.>.>.>.>.>.>.>.>.>.>.>.>.>.    ) O.O.O.O.O.O.O.S 5 :.g e z z z z z z z z z v { O.O.O.O.O.O.X.-   >.>.>.>.>.>.>.>.>.>.>.>.>.>.",
">.>.>.>.>.>.>.>.>.>.>.>.>.>.>.>.  i O.O.O.O.O.O.O.D q :.g e z z z z z z z z z b o.O.O.O.O.O.O.W   >.>.>.>.>.>.>.>.>.>.>.>.>.>.>.",
">.>.>.>.>.>.>.>.>.>.>.>.>.>.>.>.>.. ^ O.O.O.O.o.' W a :.a t z z z z z z z z z A O.O.O.O.O.O.' &   >.>.>.>.>.>.>.>.>.>.>.>.>.>.>.",
">.>.>.>.>.>.>.>.>.>.>.>.>.>.>.>.>.  2 X.O.O.^ # =   g :.i @ % < z z z z e @   # 2 g o.O.O.O.s   >.>.>.>.>.>.>.>.>.>.>.>.>.>.>.>.",
">.>.>.>.>.>.>.>.>.>.>.>.>.>.>.>.>.>.  s O.O.h g :.Q h *.7 ^ O.  , w t > - ^ @.*.@.s 5 ' O.Q   >.>.>.>.>.>.>.>.>.>.>.>.>.>.>.>.>.",
">.>.>.>.>.>.>.>.>.>.>.>.>.>.>.>.>.>.>.  g p O ! :.j g O.2 *.:.2 ! _ a 9 *.&.+.@.;.*.9 s ^ .   >.>.>.>.>.>.>.>.>.>.>.>.>.>.>.>.>.",
">.>.>.>.>.>.>.>.>.>.>.>.>.>.>.>.>.>.>.    q * ' :.E 2 a O :.:.9 o.:.s a -   2 2 & p s = O   >.>.>.>.>.>.>.>.>.>.>.>.>.>.>.>.>.>.",
">.>.>.>.>.>.>.>.>.>.>.>.>.>.>.>.>.>.>.  5 *.2 ` *.$.Q Q _ :.:.9 @.:.j   Q ;.:.:.:.E   2   >.>.>.>.>.>.>.>.>.>.>.>.>.>.>.>.>.>.>.",
">.>.>.>.>.>.>.>.>.>.>.>.>.>.>.>.>.  = + j :.p j O.O.g E *.*.+.O ;.:.s j :.:.:.:.:.*.2 W s   >.>.>.>.>.>.>.>.>.>.>.>.>.>.>.>.>.>.",
">.>.>.>.>.>.>.>.>.>.>.>.>.>.>.>.  i @.* h :.@.5 a X.) ) O.O.a a :.:.9 +.:._ 2 q X.:.f Q )     >.>.>.>.>.>.>.>.>.>.>.>.>.>.>.>.>.",
">.>.>.>.>.>.>.>.>.>.>.>.>.>.>.  i *.$.& = X.:.*.j 2 p a i - j ;.:.:.E Q @.5 *.f Q :.a +.' . a   >.>.>.>.>.>.>.>.>.>.>.>.>.>.>.>.",
">.>.>.>.>.>.>.>.>.>.>.>.>.>.>.2 O.:.O.q _ q h @.:.;.X.` X.;.:.:.:.:.:.) s X.:.X.0 2 ! ;.s   X.s   >.>.>.>.>.>.>.>.>.>.>.>.>.>.>.",
">.>.>.>.>.>.>.>.>.>.>.>.>.>.O ^ *.:.' p :.&.E a Q O.;.:.:.:.:.:.:.:.:.:.:.:.:.:.;.*.+.h s * +.X.9   >.>.>.>.>.>.>.>.>.>.>.>.>.>.",
">.>.>.>.>.>.>.>.>.>.>.>.>.  a +.:.:.' s :.:.:.:.@.X.&.:.:.:.:.:.:.:.:.:.:.:.;.O.^ g d _ ;.2 &.*.` & >.>.>.>.>.>.>.>.>.>.>.>.>.>.",
">.>.>.>.>.>.>.>.>.>.>.>.>.# ` &.:.:.X.p :.:.:.:.:.:.:.:.:.:.E *.! ;.` :.:.:.*.*.*.;.:.:.*.; *.;.+.h   >.>.>.>.>.>.>.>.>.>.>.>.>.",
">.>.>.>.>.>.>.>.>.>.>.>.  a O.;.:.:.O.i :.:.:.:.:.:.:.:.:.:.- @.  @.q :.:.:.:.:.:.:.:.:.@.; :.:.@.{ * >.>.>.>.>.>.>.>.>.>.>.>.>.",
">.>.>.>.>.>.>.>.>.>.>.>.  j +.:.:.:.@.q ;.:.:.:.:.:.:.:.:.:.& @.& X.a :.:.:.:.:.:.:.:.:.' q :.:.*.X.5   >.>.>.>.>.>.>.>.>.>.>.>.",
">.>.>.>.>.>.>.>.>.>.>.>.. * g ;.:.:.+.9 ;.:.:.:.:.:.:.:.:.:.  @.2 ' f :.:.:.:.:.:.:.:.:.~ s :.:.+.6 q . >.>.>.>.>.>.>.>.>.>.>.>.",
">.>.>.>.>.>.>.>.>.>.>.>.q ` q s *.;.9 2 *.:.:.:.:.:.:.:.:.;.O +.5 _ h :.:.:.:.:.:.:.:.:.g s :.+.- Q o.5 >.>.>.>.>.>.>.>.>.>.>.>.",
">.>.>.>.>.>.>.>.>.>.>.  W +.;.s p f   & &.:.:.:.:.:.:.:.:.;._ *.) X.` :.:.:.:.:.:.:.:.:.i   Q 9 Q :.+.g >.>.>.>.>.>.>.>.>.>.>.>.",
">.>.>.>.>.>.>.>.>.>.>.& ' &.:.;.5       @.:.:.:.:.:.:.:.:.:.:.:.:.:.:.:.:.:.:.:.:.:.:.&.= >.  i :.:.@.' O >.>.>.>.>.>.>.>.>.>.>.",
">.>.>.>.>.>.>.>.>.>.>.2 O.@.:.:.q >.>.  X.:.;.*.;.:.:.:.;.+.+.@.:.:.:.:.:.:.:.:.:.:.:.X.    >.a :.:.@.O.- >.>.>.>.>.>.>.>.>.>.>.",
">.>.>.>.>.>.>.>.>.>.>.+ ` +.*.&.& >.>.  ` :.*.O.O.O.:.:.:.O.O.O.&.:.:.:.:.:.:.:.:.:.:.~ a j   # @.&.O.E O >.>.>.>.>.>.>.>.>.>.>.",
">.>.>.>.>.>.>.>.>.>.>.>.= g ' s >.>.>.  ^ :.&.O.O.O.;.:.;.O.O.O.*.:.:.:.:.:.:.:.:.:.:.f j &.& >.i _ p . >.>.>.>.>.>.>.>.>.>.>.>.",
">.>.>.>.>.>.>.>.>.>.>.>.>.>.O >.>.>.>.  Q :.&.O.O.O.:.:.;.O.O.O.;.:.:.:.:.:.:.:.:.:.;.q ` *.& >.>.. >.>.>.>.>.>.>.>.>.>.>.>.>.>.",
">.>.>.>.>.>.>.>.>.>.>.>.>.>.>.>.>.>.>.  h :.&.O.O.O.;.:.*.O.O.O.:.:.&.O.O.O.+.@.*.:.@.; &.@.. >.>.>.>.>.>.>.>.>.>.>.>.>.>.>.>.>.",
">.>.>.>.>.>.>.>.>.>.>.>.>.>.>.>.>.>.>.  a :.*.O.O.O.;.:.;.O.O.+.:.:.@.O.O.O.O.O.*.:._ i :.~   >.>.>.>.>.>.>.>.>.>.>.>.>.>.>.>.>.",
">.>.>.>.>.>.>.>.>.>.>.>.>.>.>.>.>.>.>.  q ;.*.O.O.O.*.:.:.*.&.*.:.:.+.O.O.O.O.O.*.:.h j *.2 >.>.>.>.>.>.>.>.>.>.>.>.>.>.>.>.>.>.",
">.>.>.>.>.>.>.>.>.>.>.>.>.>.>.>.>.>.>.  & &.;.O.O.O.&.:.:.:.:.:.:.:.O.O.O.O.O.+.:.;.i _ j   >.>.>.>.>.>.>.>.>.>.>.>.>.>.>.>.>.>.",
">.>.>.>.>.>.>.>.>.>.>.>.>.>.>.>.>.>.>.>.  ' :.O.O.O.@.:.:.:.:.:.:.;.O.O.O.O.O.+.:.+.- h O >.>.>.>.>.>.>.>.>.>.>.>.>.>.>.>.>.>.>.",
">.>.>.>.>.>.>.>.>.>.>.>.>.>.>.>.>.>.>.>.  ! :.+.O.O.O.+.@.&.&.&.@.+.O.O.O.O.O.&.:.~   O >.>.>.>.>.>.>.>.>.>.>.>.>.>.>.>.>.>.>.>.",
">.>.>.>.>.>.>.>.>.>.>.>.>.>.>.>.>.>.>.>.  p ;.@.O.O.O.O.O.O.O.O.O.O.O.O.O.O.O.*.:.i   >.>.>.>.>.>.>.>.>.>.>.>.>.>.>.>.>.>.>.>.>.",
">.>.>.>.>.>.>.>.>.>.>.>.>.>.>.>.>.>.>.>.>.  & s E _ O.O.O.O.O.O.O.O.O.O.O.O.O.:.'   >.>.>.>.>.>.>.>.>.>.>.>.>.>.>.>.>.>.>.>.>.>.",
">.>.>.>.>.>.>.>.>.>.>.>.>.>.>.>.>.>.>.>.>.>.        O 5 s j ! ^ ) ~ E E E g s 5 . >.>.>.>.>.>.>.>.>.>.>.>.>.>.>.>.>.>.>.>.>.>.>.",
">.>.>.>.>.>.>.>.>.>.>.>.>.>.>.>.>.>.>.>.>.>.>.  q a -                           >.>.>.>.>.>.>.>.>.>.>.>.>.>.>.>.>.>.>.>.>.>.>.>.",
">.>.>.>.>.>.>.>.>.>.>.>.>.>.>.>.>.>.>.>.>.>.>.>.>.    >.>.>.>.>.>.>.>.>.>.>.>.>.>.>.>.>.>.>.>.>.>.>.>.>.>.>.>.>.>.>.>.>.>.>.>.>.",
">.>.>.>.>.>.>.>.>.>.>.>.>.>.>.>.>.>.>.>.>.>.>.>.>.>.>.>.>.>.>.>.>.>.>.>.>.>.>.>.>.>.>.>.>.>.>.>.>.>.>.>.>.>.>.>.>.>.>.>.>.>.>.>.",
">.>.>.>.>.>.>.>.>.>.>.>.>.>.>.>.>.>.>.>.>.>.>.>.>.>.>.>.>.>.>.>.>.>.>.>.>.>.>.>.>.>.>.>.>.>.>.>.>.>.>.>.>.>.>.>.>.>.>.>.>.>.>.>.",
">.>.>.>.>.>.>.>.>.>.>.>.>.>.>.>.>.>.>.>.>.>.>.>.>.>.>.>.>.>.>.>.>.>.>.>.>.>.>.>.>.>.>.>.>.>.>.>.>.>.>.>.>.>.>.>.>.>.>.>.>.>.>.>."
};
