/* XPM */
static char *result[] = {
/* columns rows colors chars-per-pixel */
"64 64 178 2 ",
"   c #010101",
".  c #080705",
"X  c #0B0905",
"o  c #00060B",
"O  c #0B0B0B",
"+  c #06090C",
"@  c #100D06",
"#  c #110F0D",
"$  c #13100C",
"%  c #19140B",
"&  c #1E180C",
"*  c #000912",
"=  c #05121E",
"-  c #131313",
";  c #1C1817",
":  c #1C1C1C",
">  c #1A1712",
",  c #221B0E",
"<  c #221E1C",
"1  c #221C10",
"2  c #2A2111",
"3  c #25201E",
"4  c #392E17",
"5  c #342915",
"6  c #3E3119",
"7  c #001123",
"8  c #01152A",
"9  c #00182F",
"0  c #001A34",
"q  c #001F3D",
"w  c #17232E",
"e  c #232323",
"r  c #2A2522",
"t  c #2B2B2B",
"y  c #342D2B",
"u  c #302A27",
"i  c #39322E",
"p  c #343434",
"a  c #3C3532",
"s  c #3F3834",
"d  c gray23",
"f  c #25303B",
"g  c #4B3C1E",
"h  c #44371B",
"j  c #423A36",
"k  c #453C38",
"l  c #554422",
"z  c #584723",
"x  c #5D4A25",
"c  c #4A413D",
"v  c #604D26",
"b  c #6F592C",
"n  c #725C2E",
"m  c #7D6532",
"M  c #00254B",
"N  c #00284F",
"B  c #022A53",
"V  c #002D59",
"C  c #003365",
"Z  c #00366D",
"A  c #003973",
"S  c #003E7C",
"D  c #334352",
"F  c #174573",
"G  c #434343",
"H  c #4E4541",
"J  c #4B4B4B",
"K  c #534A46",
"L  c #564D48",
"P  c #584F4A",
"I  c #504743",
"U  c #5C524D",
"Y  c #545454",
"T  c #5B5B5B",
"R  c #665A54",
"E  c #6E615B",
"W  c #71645E",
"Q  c #656565",
"!  c #6B6B6B",
"~  c #746660",
"^  c #7B6C65",
"/  c #7F6F68",
"(  c #7F7069",
")  c #6E6F71",
"_  c #61707E",
"`  c #757575",
"'  c #7C7C7C",
"]  c #846935",
"[  c #896E36",
"{  c #816733",
"}  c #92753B",
"|  c #84746D",
" . c #A38341",
".. c #A88643",
"X. c #B18E47",
"o. c #BA954B",
"O. c #BF994C",
"+. c #B49048",
"@. c #C49D4E",
"#. c #CCA352",
"$. c #D5AA55",
"%. c #DAAE57",
"&. c #DEB259",
"*. c #E2B55A",
"=. c #EABB5D",
"-. c #F3C261",
";. c #F9C764",
":. c #FFCC66",
">. c #004182",
",. c #00458A",
"<. c #004A94",
"1. c #004E9C",
"2. c #1C5C9C",
"3. c #2F669C",
"4. c #0056AC",
"5. c #0052A4",
"6. c #005AB5",
"7. c #005EBC",
"8. c #0762BD",
"9. c #2F77BF",
"0. c #3A74AE",
"q. c #587999",
"w. c #4C7BA9",
"e. c #0061C3",
"r. c #0066CC",
"t. c #0B6DCE",
"y. c #0468CD",
"u. c #1170CF",
"i. c #1C77D2",
"p. c #237BD3",
"a. c #6A839C",
"s. c #4481BD",
"d. c #5681AB",
"f. c #7191B0",
"g. c #3385D6",
"h. c #5599DD",
"j. c #4891DA",
"k. c #7BB0E4",
"l. c #69A5E1",
"z. c #838383",
"x. c #8B8B8B",
"c. c #949494",
"v. c #9A9A9A",
"b. c #849AB0",
"n. c #89A1BA",
"m. c #A3A3A3",
"M. c #ABABAB",
"N. c #A1A5A9",
"B. c #B3B3B3",
"V. c #BCBCBC",
"C. c #8BB4DD",
"Z. c #AAB6C3",
"A. c #8BB9E8",
"S. c #91BDE9",
"D. c #B7C5D3",
"F. c #9BC4EB",
"G. c #A2C7EC",
"H. c #AFCFEF",
"J. c #BCD6EF",
"K. c #B6D3F0",
"L. c #C4C4C4",
"P. c #CCCCCC",
"I. c #D4D4D4",
"U. c #DBDBDB",
"Y. c #C9D2DC",
"T. c #C6DDF4",
"R. c #CFE2F5",
"E. c #DCEAF8",
"W. c #D8E7F7",
"Q. c #E4E4E4",
"!. c #EBEBEB",
"~. c #E2EDF9",
"^. c #EAF3FB",
"/. c #E5F0FA",
"(. c #F4F4F4",
"). c #FFFFFF",
"_. c #F4F9FD",
"`. c None",
/* pixels */
"`.`.`.`.`.`.`.`.`.`.`.`.`.`.`.`.`.`.`.`.`.`.`.`.`.`.`.`.`.`.`.`.`.`.`.`.`.`.`.`.`.`.`.`.`.`.`.`.`.`.`.`.`.`.`.`.`.`.`.`.`.`.`.`.",
"`.`.`.`.`.`.`.`.`.`.`.`.`.`.`.`.`.`.`.`.`.`.`.`.`.`.`.`.`.`.`.`.`.`.`.`.`.`.`.`.  `.`.`.`.`.`.`.`.`.`.`.`.`.`.`.`.`.`.`.`.`.`.`.",
"`.`.`.`.`.`.`.`.`.`.`.`.`.`.`.`.`.`.`.`.`.`.`.`.`.`.`.`.`.`.`.`.`.`.`.`.`.`.`.  ` e `.`.`.`.`.`.`.`.`.`.`.`.`.`.`.`.`.`.`.`.`.`.",
"`.`.`.`.`.`.`.`.`.`.`.`.`.`.`.`.`.`.`.`.`.`.`.`.`.`.`.`.`.`.        `.`.`.`.`.  P.J `.`.`.`.`.`.`.`.`.`.`.`.`.`.`.`.`.`.`.`.`.`.",
"`.`.`.`.`.`.`.`.`.`.`.`.`.`.`.`.`.`.`.`.`.`.`.`.            o * * *             d e `.`.`.`.`.`.`.`.`.`.`.`.`.`.`.`.`.`.`.`.`.`.",
"`.`.`.`.`.`.`.`.`.`.`.`.`.`.`.`.`.`.`.`.`.    $ Y c.L.9.7.r.r.r.r.r.r.e.4.>.C M 8 *       `.`.`.`.`.`.`.`.`.`.`.`.`.`.`.`.`.`.`.",
"`.`.`.`.`.`.`.`.`.`.`.`.`.`.`.`.`.`.`.`.  p z.U._.).~.u.r.r.r.r.r.r.r.r.r.r.r.r.7.6.N.Q :     `.`.`.`.`.`.`.`.`.`.`.`.`.`.`.`.`.",
"`.`.`.`.`.`.`.`.`.`.`.`.`.`.`.`.`.`.  : m.(.).).).).S.r.4.1.<.,.,.,.<.5.6.r.r.r.r.r.T.).!.' O   `.`.`.`.`.`.`.`.`.`.`.`.`.`.`.`.",
"`.`.`.`.`.`.`.`.`.`.`.`.`.`.`.`.`.  Y (.).).).).V.' w     O $ $ - # # .   o 7 M A 4.S.).).).Q.)     `.`.`.`.`.`.`.`.`.`.`.`.`.`.",
"`.`.`.`.`.`.`.`.`.`.`.`.`.`.`.`.`.- U.).)._.L.J - $ e u i s s j j j j a i u 3 ; O * D L._.).)._.v.e `.`.`.`.`.`.`.`.`.`.`.`.`.`.",
"`.`.`.`.`.`.`.`.`.`.`.`.`.`.`.`.  ' ).).(.T O r a j j j j j k k k k k j j j j k j a < . p I.).).).U.- `.`.`.`.`.`.`.`.`.`.`.`.`.",
"`.`.`.`.`.`.`.`.`.`.`.`.`.`.`.  ; (.).(.Y # i k j c H K L L L L L L L L L H H c k j j a e # | ).).).`   `.`.`.`.`.`.`.`.`.`.`.`.",
"`.`.`.`.`.`.`.`.`.`.`.`.`.`.`.  ' ).).! O a k c L L L L P U L P L L L L L L P P L K k k j i O ! ).).Q.. `.`.`.`.`.`.`.`.`.`.`.`.",
"`.`.`.`.`.`.`.`.`.`.`.`.`.`.    I.).V.O a k K L L L K R W ^ ^ | / ^ / ~ ~ W R P L L L K c j i O M.).).G   `.`.`.`.`.`.`.`.`.`.`.",
"`.`.`.`.`.`.`.`.`.`.`.`.`.`.  d )._.p < j K L L L U ~ | | | | | | | | | | | | | W U L L P H k y - I.).x.  `.`.`.`.`.`.`.`.`.`.`.",
"`.`.`.`.`.`.`.`.`.`.`.`.`.`.  v.).U.. y c L L L U ( | | | | | | | | | | | | | | | / U L L L H j - T ).I.-   `.`.`.`.`.`.`.`.`.`.",
"`.`.`.`.`.`.`.`.`.`.`.`.`.  . U.).B.. j L L L P ^ | | | | | | | | | | | | | | | | | / U L L L k u : !.).d   `.`.`.`.`.`.`.`.`.`.",
"`.`.`.`.`.`.`.`.`.`.`.`.    e (.).c.@ c L L L R ^ E E E E E E E E E / | | | | | | | | E L L L K a . U.).Q   `.`.`.`.`.`.`.`.`.`.",
"`.`.`.`.`.`.`.`.`.`.`.      G ).).a.% c k r #     X X X X X X X X .   . - < y c R W / | U L L L s . B.).x.    `.`.`.`.`.`.`.`.`.",
"`.`.`.`.`.`.`.`.`.`.`.. `   ! ).).Q , 3 $ z { X.#.&.o.&.&.&.&.&.&.&.$.o. .[ b g 5 1 > e y c K L j . V.).m.    `.`.`.`.`.`.`.`.`.",
"`.`.`.`.`.`.`.`.`.`.  J B.  x.).).Q -   g :.:.:.:.%.% *.:.:.:.:.:.:.:.:.:.:.:.:.=.*.o.m 6   < c j . I.).V.      `.`.`.`.`.`.`.`.",
"`.`.`.`.`.`.`.`.`.`.  B.M.  m.).).z.    { :.:.:.:.]   O.:.:.:.:.:.:.:.:.:.:.:.&.@ %.:.:.:.*.l . s # U.).V.  G ; `.`.`.`.`.`.`.`.",
"`.`.`.`.`.`.`.`.`.`.: Q.x.  M.).).m.    o.:.:.:.;.l   O.:.:.:.:.:.:.:.:.:.:.:. .  ..:.:.:.:.}   # : (.).L.  ! `   `.`.`.`.`.`.`.",
"`.`.`.`.`.`.`.`.`.`.t Q.x.  M.).).Q.p   -.:.:.:.-.4   #.:.:.:.:.:.:.:.:.:.:.:.]   } :.:.:.:...    t _.).V.  ` L.  `.`.`.`.`.`.`.",
"`.`.`.`.`.`.`.`.`.`.- V.x.  M.).).).t 2 :.:.:.:.*.,   $.:.:.:.:.:.:.:.:.:.:.:.b   m :.:.:.:.o.    ! ).).B.  x.Q.- `.`.`.`.`.`.`.",
"`.`.`.`.`.`.`.`.`.`.  x.x.  v.).).(.: l :.:.:.:.*.% . %.:.:.:.:.:.:.:.:.:.:.:.l   } :.:.:.:.#.  Y I.).).v.  m.!.- `.`.`.`.`.`.`.",
"`.`.`.`.`.`.`.`.`.`.  d v.  a.).).Q.O m :.:.:.:.-.4 X *.:.:.:.:.:.:.:.:.:.:.:.4   X.:.:.:.:.$.  x.).).).'   V.L.. `.`.`.`.`.`.`.",
"`.`.`.`.`.`.`.`.`.`.`.  T   R ).).I.  m :.:.:.:.:.m h ;.:.:.:.:.:.:.:.:.:.:.:., . -.:.:.:.:.%.  x.).).).J   L.!   `.`.`.`.`.`.`.",
"`.`.`.`.`.`.`.`.- J Y G .   p ).).U.+ m :.:.:.:.:.-.=.:.:.:.:.:.:.:.:.:.:.:.:.g b :.:.:.:.:.$.  x.).).!.e e M.e t . `.`.`.`.`.`.",
"`.`.`.`.`.`.`.`.! P.P.P.Q   - Q.).!.; l :.:.:.:.:.:.:.:.:.:.:.:.:.:.:.;.:.:.:.;.:.:.:.:.:.:.o.  x.).).B.. J t J P.!   `.`.`.`.`.",
"`.`.`.`.`.`.`.3 B.U.Q.!.!.!   M.).).p & -.:.:.:.:.:.O.z 2 % % @ X X 1 g ] @.;.:.:.:.:.:.:.:.[   V.).).!   . G P.I.L.e `.`.`.`.`.",
"`.`.`.`.`.`.`.T P.(.).)._.J   L ).).v.. @ ] #.;.:.+.: d J J Y Q Q Y d t ; . % o.:.:.:.:.:.:.6 X (.)._.:   J _.).).P.x.`.`.`.`.`.",
"`.`.`.`.`.`.`.d L.).).).z.t d   U.).).P.) O   2 v 1 z.v.c.v.v.v.v.v.v.v.c.z.Q % *.:.:.:.#.z . Y ).).M.    x.).).).Q.x.`.`.`.`.`.",
"`.`.`.`.`.`.`.`.O G z.` O P.m.  Q ).).).).!.B.E < O z.v.v.v.v.v.v.v.v.v.v.v.v.p b [ z &     e L.).!.e O x.- x.I.v.J   `.`.`.`.`.",
"`.`.`.`.`.`.`.`.`.`.    t P.!.e O L._.).).).).).V.: ` v.v.v.v.v.v.v.v.v.v.v.v.p X % y T x.U.).).).c.  Q _.B.      `.`.`.`.`.`.`.",
"`.`.`.`.`.`.`.`.`.`.`.`.  . T x.  J U.(.).).).).Z.# Q c.v.v.v.c.v.v.v.c.v.v.x.p a.Q.).).).).).).U.: . Q.m.;   `.`.`.`.`.`.`.`.`.",
"`.`.`.`.`.`.`.`.`.`.`.`.`.`.  - . . c.I.!.).).).Q.O Q z.v.v.v.v.v.v.v.v.v.v.' ; B.).).).).).).Q.J   ! Y . `.`.`.`.`.`.`.`.`.`.`.",
"`.`.`.`.`.`.`.`.`.`.`.`.`.`.`.`.    O B.P.U.(.).(.c d Q ! ) ` '  .| a.' ' ' J - Q.).).).).(.I.|   . .   `.`.`.`.`.`.`.`.`.`.`.`.",
"`.`.`.`.`.`.`.`.`.`.`.`.`.`.`.`.`.    p L.P.P.I.P.q.. Y Q Q Q Q _ Q Q Q Q Q - J _.).).!.U.P.a.@     `.`.`.`.`.`.`.`.`.`.`.`.`.`.",
"`.`.`.`.`.`.`.`.`.`.`.`.`.`.`.`.`.`.    c L.P.P.P.f.7 - Y Q Q Q _ Q Q Q T : * a.U.U.I.P.P.x.O     `.`.`.`.`.`.`.`.`.`.`.`.`.`.`.",
"`.`.`.`.`.`.`.`.`.`.`.`.`.`.`.`.`.`.  . . d V.P.P.n.,.8   t G Y Y Y Y p . o A Z.P.P.P.P.'       `.`.`.`.`.`.`.`.`.`.`.`.`.`.`.`.",
"`.`.`.`.`.`.`.`.`.`.`.`.`.`.`.`.`.`.  J M.; e v.P.Z.<.<.S B q 8 7 8 8 0 N >.2.P.P.P.V.J   c T   `.`.`.`.`.`.`.`.`.`.`.`.`.`.`.`.",
"`.`.`.`.`.`.`.`.`.`.`.`.`.`.`.`.`.`.  ! ).Z.p O ) V.<.<.<.<.<.<.<.<.<.1.<.<.w.P.P.v.e O ! (.c.  `.`.`.`.`.`.`.`.`.`.`.`.`.`.`.`.",
"`.`.`.`.`.`.`.`.`.`.`.`.`.`.`.`.`.`.  ` ).)._.c.- - B ,.<.<.<.<.<.<.<.<.<.<.b.x.t   d U.).).m.  `.`.`.`.`.`.`.`.`.`.`.`.`.`.`.`.",
"`.`.`.`.`.`.`.`.`.`.`.`.`.`.`.`.`.`.  z.).).).).Y.F 7 * 9 V A >.>.>.>.A V 0 - : T V._.).).).M.  `.`.`.`.`.`.`.`.`.`.`.`.`.`.`.`.",
"`.`.`.`.`.`.`.`.`.`.`.`.`.`.`.`.`.`.  x.).).).).l.r.e.0.) :     o   o o = J m.!.).).).).).).B.  `.`.`.`.`.`.`.`.`.`.`.`.`.`.`.`.",
"`.`.`.`.`.`.`.`.`.`.`.`.`.`.`.`.`.`.  ' ).).).E.t.r.p./.).~.J.D.I.I.w.r.u./.).).).).).).).).M.  `.`.`.`.`.`.`.`.`.`.`.`.`.`.`.`.",
"`.`.`.`.`.`.`.`.`.`.`.`.`.`.`.`.`.`.  ` ).).).G.r.r.A.)._.g.t.i.~.).K.y.r.T.).).).).).).).).v.  `.`.`.`.`.`.`.`.`.`.`.`.`.`.`.`.",
"`.`.`.`.`.`.`.`.`.`.`.`.`.`.`.`.`.`.  ! (.V.v.q.r.r.G.).E.r.r.r.H.).R.r.r.T.).).).).).).).).M.  `.`.`.`.`.`.`.`.`.`.`.`.`.`.`.`.",
"`.`.`.`.`.`.`.`.`.`.`.`.`.`.`.`.`.`.  - t ! z.! f C h.).).S.h.k.).).k.r.t.~.).).).).).).)._.B.O `.`.`.`.`.`.`.`.`.`.`.`.`.`.`.`.",
"`.`.`.`.`.`.`.`.`.`.`.`.`.`.`.`.`.`.e c.Q.).).U.v.o 8.G._.).).).).H.u.r.j.).).).).).).).).Q.B.- `.`.`.`.`.`.`.`.`.`.`.`.`.`.`.`.",
"`.`.`.`.`.`.`.`.`.`.`.`.`.`.`.`.`.p !.).).).).U.P.c S r.g.S.G.S.j.y.r.r.^.).).).).).).)._.P.B.- `.`.`.`.`.`.`.`.`.`.`.`.`.`.`.`.",
"`.`.`.`.`.`.`.`.`.`.`.`.`.`.`.`.  B.).).).).).Q.P.` 0 r.r.r.r.r.r.r.r.r.).).).).).).).).U.P.B.- `.`.`.`.`.`.`.`.`.`.`.`.`.`.`.`.",
"`.`.`.`.`.`.`.`.`.`.`.`.`.`.`.`.  V.).).).).).!.P.m.* 7.r.r.r.r.r.r.r.r.^.).).).).).).Q.P.P.B.O `.`.`.`.`.`.`.`.`.`.`.`.`.`.`.`.",
"`.`.`.`.`.`.`.`.`.`.`.`.`.`.`.`.  ` ).).).).)._.I.L.  F 5.e.r.r.r.r.r.r.E.).).).).).Q.P.P.P.v.  `.`.`.`.`.`.`.`.`.`.`.`.`.`.`.`.",
"`.`.`.`.`.`.`.`.`.`.`.`.`.`.`.`.`.e !.).).).).).U.P.: C <.1.5.e.r.r.r.r.K.).).).).!.P.P.P.P.!   `.`.`.`.`.`.`.`.`.`.`.`.`.`.`.`.",
"`.`.`.`.`.`.`.`.`.`.`.`.`.`.`.`.`.  ) ).).).).).U.P.d N <.<.<.<.5.4.6.7.C.(.(.!.U.P.P.P.P.P.t   `.`.`.`.`.`.`.`.`.`.`.`.`.`.`.`.",
"`.`.`.`.`.`.`.`.`.`.`.`.`.`.`.`.`.`.  ` ).).(.Q.I.P.! = C ,.<.<.<.<.<.<.d.P.P.P.P.P.P.P.P.x.  `.`.`.`.`.`.`.`.`.`.`.`.`.`.`.`.`.",
"`.`.`.`.`.`.`.`.`.`.`.`.`.`.`.`.`.`.`.  J B.P.P.P.V.d       + 8 q B C S 3.P.P.P.P.P.P.P.L.:   `.`.`.`.`.`.`.`.`.`.`.`.`.`.`.`.`.",
"`.`.`.`.`.`.`.`.`.`.`.`.`.`.`.`.`.`.`.`.`.. d T d . `.`.`.`.`.`.`.`.      ; s Q V.P.P.P.!   `.`.`.`.`.`.`.`.`.`.`.`.`.`.`.`.`.`.",
"`.`.`.`.`.`.`.`.`.`.`.`.`.`.`.`.`.`.`.`.`.`.`.`.`.`.`.`.`.`.`.`.`.`.`.`.`.`.  T P.P.P.z.. `.`.`.`.`.`.`.`.`.`.`.`.`.`.`.`.`.`.`.",
"`.`.`.`.`.`.`.`.`.`.`.`.`.`.`.`.`.`.`.`.`.`.`.`.`.`.`.`.`.`.`.`.`.`.`.`.`.  p L.P.P.c.- `.`.`.`.`.`.`.`.`.`.`.`.`.`.`.`.`.`.`.`.",
"`.`.`.`.`.`.`.`.`.`.`.`.`.`.`.`.`.`.`.`.`.`.`.`.`.`.`.`.`.`.`.`.`.`.`.`.`.. e q.c.Y   `.`.`.`.`.`.`.`.`.`.`.`.`.`.`.`.`.`.`.`.`.",
"`.`.`.`.`.`.`.`.`.`.`.`.`.`.`.`.`.`.`.`.`.`.`.`.`.`.`.`.`.`.`.`.`.`.`.`.`.`.`.X `.`.`.`.`.`.`.`.`.`.`.`.`.`.`.`.`.`.`.`.`.`.`.`."
};
