/* XPM */
static char *result[] = {
/* columns rows colors chars-per-pixel */
"64 64 166 2 ",
"   c #010101",
".  c #0B0905",
"X  c #00060C",
"o  c #04090E",
"O  c #0B0B0B",
"+  c #120F07",
"@  c #110F0E",
"#  c #16120A",
"$  c #1B160B",
"%  c #000A14",
"&  c #000E1B",
"*  c #00101F",
"=  c #141413",
"-  c #1B1B1B",
";  c #1A1919",
":  c #221C0E",
">  c #221E1C",
",  c #2C2412",
"<  c #25211F",
"1  c #312713",
"2  c #3A2E17",
"3  c #372C16",
"4  c #3E3219",
"5  c #001224",
"6  c #00162C",
"7  c #021A32",
"8  c #001D3A",
"9  c #11202E",
"0  c #232323",
"q  c #2B2624",
"w  c #2F2926",
"e  c #2A2B2B",
"r  c #332D2A",
"t  c #302A27",
"y  c #37302D",
"u  c #3A332F",
"i  c #2F3439",
"p  c #343434",
"a  c #3C3531",
"s  c #3F3834",
"d  c #3C3C3C",
"f  c #30373E",
"g  c #42341A",
"h  c #4A3B1E",
"j  c #423A36",
"k  c #453D39",
"l  c #5D4A25",
"z  c #564522",
"x  c #4A413D",
"c  c #604D26",
"v  c #6A552B",
"b  c #655128",
"n  c #735C2E",
"m  c #7D6432",
"M  c #002143",
"N  c #00254A",
"B  c #002B56",
"V  c #002E5C",
"C  c #18334E",
"Z  c #003263",
"A  c #003569",
"S  c #023B74",
"D  c #003D79",
"F  c #03417F",
"G  c #434343",
"H  c #4E4641",
"J  c #4B4C4C",
"K  c #544B46",
"L  c #564D48",
"P  c #594F4A",
"I  c #504742",
"U  c #5C524D",
"Y  c #525252",
"T  c #5C5C5C",
"R  c #625751",
"E  c #665A54",
"W  c #685C56",
"Q  c #6B5F59",
"!  c #71635D",
"~  c #656565",
"^  c #6B6B6B",
"/  c #766862",
"(  c #796A64",
")  c #7F7069",
"_  c #747474",
"`  c #7C7C7C",
"'  c #856A35",
"]  c #8A6F37",
"[  c #816733",
"{  c #8F7339",
"}  c #997A3D",
"|  c #9F7F40",
" . c #84746D",
".. c #AB8844",
"X. c #A48341",
"o. c #B69249",
"O. c #BC964B",
"+. c #C59E4F",
"@. c #CCA452",
"#. c #D1A754",
"$. c #D4A955",
"%. c #DAAE57",
"&. c #E2B55A",
"*. c #E7B95C",
"=. c #ECBC5E",
"-. c #EFBF60",
";. c #F3C261",
":. c #FFCC66",
">. c #F8C663",
",. c #004285",
"<. c #00458B",
"1. c #004A94",
"2. c #004E9C",
"3. c #135495",
"4. c #225F9D",
"5. c #0054A8",
"6. c #0051A1",
"7. c #015EBB",
"8. c #0059B2",
"9. c #607183",
"0. c #527DA9",
"q. c #0061C3",
"w. c #0066CC",
"e. c #0767C7",
"r. c #1271CF",
"t. c #1875D1",
"y. c #257CD4",
"u. c #6A849F",
"i. c #7C848D",
"p. c #7594B4",
"a. c #2B80D5",
"s. c #3887D5",
"d. c #4690DA",
"f. c #6EA8E2",
"g. c #72ABE3",
"h. c #848484",
"j. c #8A8A8A",
"k. c #949494",
"l. c #999999",
"z. c #8497AB",
"x. c #92A7BC",
"c. c #A4A4A4",
"v. c #ABABAB",
"b. c #B4B4B4",
"n. c #BBBBBB",
"m. c #ACB7C4",
"M. c #87B7E7",
"N. c #95BFEA",
"B. c #BAC1C7",
"V. c #9BC3EB",
"C. c #A6C6E7",
"Z. c #B9D2EB",
"A. c #C4C4C5",
"S. c #CCCCCC",
"D. c #C6C8CA",
"F. c #D3D3D3",
"G. c #DADADA",
"H. c #CDE1F5",
"J. c #D4E5F6",
"K. c #E3E3E3",
"L. c #EBEBEB",
"P. c #EAF2FB",
"I. c #F3F3F3",
"U. c #FEFFFF",
"Y. c #E2EDF9",
"T. c None",
/* pixels */
"T.T.T.T.T.T.T.T.T.T.T.T.T.T.T.T.T.T.T.T.T.T.T.T.T.T.T.T.T.T.T.T.T.T.T.T.T.T.T.T.T.T.T.T.T.T.T.T.T.T.T.T.T.T.T.T.T.T.T.T.T.T.T.T.",
"T.T.T.T.T.T.T.T.T.T.T.T.T.T.T.T.T.T.T.T.T.T.T.T.T.T.T.T.T.T.T.T.T.T.T.T.T.T.T.T.T.    T.T.T.T.T.T.T.T.T.T.T.T.T.T.T.T.T.T.T.T.T.",
"T.T.T.T.T.T.T.T.T.T.T.T.T.T.T.T.T.T.T.T.T.T.T.T.T.T.T.T.T.T.T.T.T.T.T.T.T.T.T.T.T.0 j.T.T.T.T.T.T.T.T.T.T.T.T.T.T.T.T.T.T.T.T.T.",
"T.T.T.T.T.T.T.T.T.T.T.T.T.T.T.T.T.T.T.T.T.T.T.T.T.T.T.                        T.  d F.  T.T.T.T.T.T.T.T.T.T.T.T.T.T.T.T.T.T.T.T.",
"T.T.T.T.T.T.T.T.T.T.T.T.T.T.T.T.T.T.T.T.T.T.T.        X & 7 M M N V V V V N f -   o q   T.T.T.T.T.T.T.T.T.T.T.T.T.T.T.T.T.T.T.T.",
"T.T.T.T.T.T.T.T.T.T.T.T.T.T.T.T.T.T.T.T.    O C S 1.7.w.w.w.w.w.w.w.w.w.w.w.V.U.L.c.J O   T.T.T.T.T.T.T.T.T.T.T.T.T.T.T.T.T.T.T.",
"T.T.T.T.T.T.T.T.T.T.T.T.T.T.T.T.T.T.    q h.F.s.w.w.w.w.w.w.w.w.w.q.e.w.w.w.d.U.U.U.U.A.^ =   T.T.T.T.T.T.T.T.T.T.T.T.T.T.T.T.T.",
"T.T.T.T.T.T.T.T.T.T.T.T.T.T.T.T.T.  @ j.I.U.U.r.w.w.q.2.S M 7 * & & & 5 5 8 S F.U.U.U.U.U.K.Y   T.T.T.T.T.T.T.T.T.T.T.T.T.T.T.T.",
"T.T.T.T.T.T.T.T.T.T.T.T.T.T.T.T.o ~ K.U.U.U.P.1.B 5   . = - > q q t t q < ; = . ; ~ F.U.U.U.L.d   T.T.T.T.T.T.T.T.T.T.T.T.T.T.T.",
"T.T.T.T.T.T.T.T.T.T.T.T.T.T.T.; k.U.U.U.U.v.J o = 0 r a j j j j j j j j j j j u w ; ; ` L.U.U.n.  T.T.T.T.T.T.T.T.T.T.T.T.T.T.T.",
"T.T.T.T.T.T.T.T.T.T.T.T.T.T.  n.U.U.U.K.J . q a j j j j k k H H I H H I H H x k j j u = 0 K.U.U.J   T.T.T.T.T.T.T.T.T.T.T.T.T.T.",
"T.T.T.T.T.T.T.T.T.T.T.T.T.  e I.U.U.S.q ; u j j k H K K P P L P L L L L L L L L K x j j > 0 G.U.F.O   T.T.T.T.T.T.T.T.T.T.T.T.T.",
"T.T.T.T.T.T.T.T.T.T.T.T.T.  ` U.U.G.= 0 j j x K P P L L L U U U R E W E R U L L L L K k j = H I.U.J   T.T.T.T.T.T.T.T.T.T.T.T.T.",
"T.T.T.T.T.T.T.T.T.T.T.T.T.  A.U.I.p < j k K L L L P ! ( )  . . . . . . . .) ( U L L L L k j O j.U.v.  T.T.T.T.T.T.T.T.T.T.T.T.T.",
"T.T.T.T.T.T.T.T.T.T.T.T.  p I.U.h.O j x L L L L Q  . . . . . . . . . . . . . . .Q L L L L k > p U.K.=   T.T.T.T.T.T.T.T.T.T.T.T.",
"T.T.T.T.T.T.T.T.T.T.T.T.  ^ U.U.< q j K L L P /  . . . . . . . . . . . . . . . . .E L L L x t   L.U.Y     T.T.T.T.T.T.T.T.T.T.T.",
"T.T.T.T.T.T.T.T.T.T.T.T.  c.U.n.  s H L L L Q  . . . . . . . . . . . . . . . . . .) L L L K a   A.U.v.      T.T.T.T.T.T.T.T.T.T.",
"T.T.T.T.T.T.T.T.T.T.T.T.  S.U. .O k K L L U )  . . . . .( W P x y y y y r w w < q a y s H K j . b.U.K.  - O T.T.T.T.T.T.T.T.T.T.",
"T.T.T.T.T.T.T.T.T.T.T.    I.U.~ @ x L L L W / P a < #   . $ : h v v v v [ ] ] ] ' v h $ O > k O c.U.U.O p l.  T.T.T.T.T.T.T.T.T.",
"T.T.T.T.T.T.T.T.T.T.T.  o U.U._ O x L x t = # 2 l ' ..+.&.;.>.:.:.:.:.:.:.:.o.@.:.:.:.=.#.  = # j.U.U.p - I.p T.T.T.T.T.T.T.T.T.",
"T.T.T.T.T.T.T.T.T.T.    = U.U.j.. H r . 1 ' @.:.+.*.:.:.:.:.:.:.:.:.:.:.:.:.2 c :.:.:.:.:.$     c.U.U.J = L.h.  T.T.T.T.T.T.T.T.",
"T.T.T.T.T.T.T.T.T.T.O O = U.U.n.  r   O.:.:.:.:.3 c :.:.:.:.:.:.:.:.:.:.:.:., $ ;.:.:.:.:.h     n.U.U.Y O K.n.O T.T.T.T.T.T.T.T.",
"T.T.T.T.T.T.T.T.T.  ` e = U.U.L.o .   *.:.:.:.=.# , :.:.:.:.:.:.:.:.:.:.:.:., o %.:.:.:.:.{   G K.U.U.~ O G.b.O T.T.T.T.T.T.T.T.",
"T.T.T.T.T.T.T.T.T.  G.p O U.U.U.0     >.:.:.:.&.# $ :.:.:.:.:.:.:.:.:.:.:.:.g   O.:.:.:.:.@.  h.U.U.U.T O n.h.  T.T.T.T.T.T.T.T.",
"T.T.T.T.T.T.T.T.T.; U.Y   I.U.U.^     :.:.:.:.&..   ;.:.:.:.:.:.:.:.:.:.:.:.g   ..:.:.:.:.-.# T U.U.U.Y @ n.G T.T.T.T.T.T.T.T.T.",
"T.T.T.T.T.T.T.T.T.e U.^   F.U.U.L.p $ :.:.:.:.=.#   &.:.:.:.:.:.:.:.:.:.:.:.z   O.:.:.:.:.:., d U.U.U.G = l.o T.T.T.T.T.T.T.T.T.",
"T.T.T.T.T.T.T.T.T.0 U.k.  b.U.U.U.d : :.:.:.:.:.3   $.:.:.:.:.:.:.:.:.:.:.:.n . %.:.:.:.:.:.4 - U.U.U.0 = -   T.T.T.T.T.T.T.T.T.",
"T.T.T.T.T.T.T.T.    v.l.  ` U.U.U.G : :.:.:.:.:.m   $.:.:.:.:.:.:.:.:.:.:.:.%.{ >.:.:.:.:.:.4 = U.U.I.      T.T.T.T.T.T.T.T.T.T.",
"T.T.T.T.T.T.T.T.Y Y Y b.@ G I.U.U.G + :.:.:.:.:.#.b ;.:.:.:.:.:.:.:.:.:.:.:.:.:.:.:.:.:.:.:., e U.U.S.    O ; e G 0 T.T.T.T.T.T.",
"T.T.T.T.T.T.T.= v.n.O _ p O F.U.U.Y   =.:.:.:.:.:.:.:.:.:.:.>.@.} X.....o.#.>.:.:.:.:.:.:.*.+ T U.U.`   ~ b.A.S.S.n.O T.T.T.T.T.",
"T.T.T.T.T.T.T.Y S.I.k.= p   X.U.U.l.  ..:.:.:.:.:.:.;.} l $     @ ; ; @ O . . m >.:.:.;.} ,   l.U.I.0   G K.K.K.G.F.^ T.T.T.T.T.",
"T.T.T.T.T.T.T.h.F.U.U.k.o   C P.U.F.o l :.:.:.:.:.;.1 = p T ^ j.l.l.l.l.l.l.h.0 X.$.[ +   0 _ L.U.S.  G e b.U.U.U.G.b.O T.T.T.T.",
"T.T.T.T.T.T.T.e h.F.U.F.O 0   A.U.U.G . n ..*.:.:.' J k.l.l.l.l.l.l.l.l.l.l.k.T .   . T n.I.U.U.U.~   n.l.= L.U.U.L.b.O T.T.T.T.",
"T.T.T.T.T.T.T.T.    O O p A.= p U.U.S.Y -     : 2 $ ~ l.l.l.l.l.l.l.l.l.l.l.l.^   v.L.U.U.U.U.U.A.= 0 U.I.~ p c.j.Y O T.T.T.T.T.",
"T.T.T.T.T.T.T.T.T.T.T.T.  0 -   l.U.U.U.U.G.l.^ G = T k.l.k.l.l.l.l.l.l.l.l.l.T   U.U.U.U.U.U.K.J   v.U.I.n.o     T.T.T.T.T.T.T.",
"T.T.T.T.T.T.T.T.T.T.T.T.T.T.    = G.U.U.U.U.U.U.U.Y J j.l.l.l.l.l.l.l.l.l.l.k.Y = U.U.U.U.U.F.c.  G U.A.x   T.T.T.T.T.T.T.T.T.T.",
"T.T.T.T.T.T.T.T.T.T.T.T.T.T.T.    d G.U.U.U.U.U.U.h.0 _ k.l.l.l.l.l.l.k.j.i._ e T U.U.U.L.S.b.e O b.^ o   T.T.T.T.T.T.T.T.T.T.T.",
"T.T.T.T.T.T.T.T.T.T.T.T.T.T.T.T.    ~ S.K.U.U.U.U.F.o J ^ ^ ^ ~ ^ ~ ~ ~ ~ ~ T   i.K.L.F.S.S.G   ~ -   T.T.T.T.T.T.T.T.T.T.T.T.T.",
"T.T.T.T.T.T.T.T.T.T.T.T.T.T.T.T.T.    ^ S.F.K.I.U.L.p ; T ~ ~ ~ ~ ~ ~ ~ ~ T - & z.S.S.S.S.~     o T.T.T.T.T.T.T.T.T.T.T.T.T.T.T.",
"T.T.T.T.T.T.T.T.T.T.T.T.T.T.T.T.T.T.    _ S.S.S.S.S.u.% = T ~ ~ ~ ~ ~ ~ Y ; X S x.S.S.S.`   =   T.T.T.T.T.T.T.T.T.T.T.T.T.T.T.T.",
"T.T.T.T.T.T.T.T.T.T.T.T.T.T.T.T.T.T.  o   T A.S.S.S.m.,.5   ; 0 0 - ; O X N ,.1.m.S.D.Y   ^ c.  T.T.T.T.T.T.T.T.T.T.T.T.T.T.T.T.",
"T.T.T.T.T.T.T.T.T.T.T.T.T.T.T.T.T.T.  ` _ O e l.S.S.S.4.<.S Z B B V Z S <.1.1.3.B.c.p ; h.U.b.  T.T.T.T.T.T.T.T.T.T.T.T.T.T.T.T.",
"T.T.T.T.T.T.T.T.T.T.T.T.T.T.T.T.T.T.  h.U.l.> O T b.S.0.1.1.1.1.1.1.1.1.1.1.1.3.^ = p n.U.U.v.  T.T.T.T.T.T.T.T.T.T.T.T.T.T.T.T.",
"T.T.T.T.T.T.T.T.T.T.T.T.T.T.T.T.T.T.  ` U.U.I.k.-   G 9.<.1.1.1.1.1.1.1.1.S 7   & ,.C.U.U.U.v.  T.T.T.T.T.T.T.T.T.T.T.T.T.T.T.T.",
"T.T.T.T.T.T.T.T.T.T.T.T.T.T.T.T.T.T.  _ U.U.U.U.L.c.J ; X 6 M N N N 8 5 % - Y z.q.w.g.U.U.U.l.  T.T.T.T.T.T.T.T.T.T.T.T.T.T.T.T.",
"T.T.T.T.T.T.T.T.T.T.T.T.T.T.T.T.T.T.  j.U.U.U.U.U.U.U.L.D.A N 9 e e 7 V 1.Z.U.H.w.7.C d T v.j.  T.T.T.T.T.T.T.T.T.T.T.T.T.T.T.T.",
"T.T.T.T.T.T.T.T.T.T.T.T.T.T.T.T.T.T.  j.L.U.U.U.U.U.U.U.U.y.w.y.U.U.J.V.Z.U.U.f.V i k.n.b.^ =   T.T.T.T.T.T.T.T.T.T.T.T.T.T.T.T.",
"T.T.T.T.T.T.T.T.T.T.T.T.T.T.T.T.T.T.  j.F.U.U.U.U.U.U.U.U.M.w.w.f.Y.U.U.U.U.V.q.% k.F.U.U.U.S.~   T.T.T.T.T.T.T.T.T.T.T.T.T.T.T.",
"T.T.T.T.T.T.T.T.T.T.T.T.T.T.T.T.T.T.  l.S.L.U.U.U.U.U.U.U.U.y.w.w.t.g.M.M.a.w.2.= S.F.U.U.U.U.U.`   T.T.T.T.T.T.T.T.T.T.T.T.T.T.",
"T.T.T.T.T.T.T.T.T.T.T.T.T.T.T.T.T.T.  l.S.F.I.U.U.U.U.U.U.U.a.w.w.w.w.w.w.w.w.A T S.G.U.U.U.U.U.L.= T.T.T.T.T.T.T.T.T.T.T.T.T.T.",
"T.T.T.T.T.T.T.T.T.T.T.T.T.T.T.T.T.T.  l.S.S.F.U.U.U.U.U.U.P.y.w.w.w.w.w.w.w.7.6 h.S.K.U.U.U.U.U.K.= T.T.T.T.T.T.T.T.T.T.T.T.T.T.",
"T.T.T.T.T.T.T.T.T.T.T.T.T.T.T.T.T.T.  _ S.S.S.G.U.U.U.U.U.Y.t.w.w.w.w.w.q.6.1.X v.S.I.U.U.U.U.U.n.  T.T.T.T.T.T.T.T.T.T.T.T.T.T.",
"T.T.T.T.T.T.T.T.T.T.T.T.T.T.T.T.T.T.  G S.S.S.S.G.U.U.U.U.H.r.w.w.w.q.5.1.1.D @ n.F.U.U.U.U.U.U.d T.T.T.T.T.T.T.T.T.T.T.T.T.T.T.",
"T.T.T.T.T.T.T.T.T.T.T.T.T.T.T.T.T.T.T.O n.S.S.S.S.S.K.L.I.C.7.8.5.2.1.1.1.1.Z > A.F.U.U.U.U.U.l.  T.T.T.T.T.T.T.T.T.T.T.T.T.T.T.",
"T.T.T.T.T.T.T.T.T.T.T.T.T.T.T.T.T.T.T.  Q S.S.S.S.S.S.S.S.p.1.1.1.1.1.1.,.V 5 d S.S.K.I.U.U.k.O T.T.T.T.T.T.T.T.T.T.T.T.T.T.T.T.",
"T.T.T.T.T.T.T.T.T.T.T.T.T.T.T.T.T.T.T.  @ b.S.S.S.S.S.S.S.0.D Z N 8 5 X       - v.S.S.S.A.~ O T.T.T.T.T.T.T.T.T.T.T.T.T.T.T.T.T.",
"T.T.T.T.T.T.T.T.T.T.T.T.T.T.T.T.T.T.T.T.  Y S.S.S.S.h.T p .       T.T.T.T.T.T.T.  J _ T O   T.T.T.T.T.T.T.T.T.T.T.T.T.T.T.T.T.T.",
"T.T.T.T.T.T.T.T.T.T.T.T.T.T.T.T.T.T.T.T.T.o ^ S.S.S._   T.T.T.T.T.T.T.T.T.T.T.T.T.T.T.T.T.T.T.T.T.T.T.T.T.T.T.T.T.T.T.T.T.T.T.T.",
"T.T.T.T.T.T.T.T.T.T.T.T.T.T.T.T.T.T.T.T.T.T.O k.S.S.S.J   T.T.T.T.T.T.T.T.T.T.T.T.T.T.T.T.T.T.T.T.T.T.T.T.T.T.T.T.T.T.T.T.T.T.T.",
"T.T.T.T.T.T.T.T.T.T.T.T.T.T.T.T.T.T.T.T.T.T.T.  Y c.c.G   T.T.T.T.T.T.T.T.T.T.T.T.T.T.T.T.T.T.T.T.T.T.T.T.T.T.T.T.T.T.T.T.T.T.T.",
"T.T.T.T.T.T.T.T.T.T.T.T.T.T.T.T.T.T.T.T.T.T.T.T.T.      T.T.T.T.T.T.T.T.T.T.T.T.T.T.T.T.T.T.T.T.T.T.T.T.T.T.T.T.T.T.T.T.T.T.T.T.",
"T.T.T.T.T.T.T.T.T.T.T.T.T.T.T.T.T.T.T.T.T.T.T.T.T.T.T.T.T.T.T.T.T.T.T.T.T.T.T.T.T.T.T.T.T.T.T.T.T.T.T.T.T.T.T.T.T.T.T.T.T.T.T.T.",
"T.T.T.T.T.T.T.T.T.T.T.T.T.T.T.T.T.T.T.T.T.T.T.T.T.T.T.T.T.T.T.T.T.T.T.T.T.T.T.T.T.T.T.T.T.T.T.T.T.T.T.T.T.T.T.T.T.T.T.T.T.T.T.T.",
"T.T.T.T.T.T.T.T.T.T.T.T.T.T.T.T.T.T.T.T.T.T.T.T.T.T.T.T.T.T.T.T.T.T.T.T.T.T.T.T.T.T.T.T.T.T.T.T.T.T.T.T.T.T.T.T.T.T.T.T.T.T.T.T."
};
