/* XPM */
static char *result[] = {
/* columns rows colors chars-per-pixel */
"64 64 116 2 ",
"   c #020202",
".  c #080707",
"X  c #090807",
"o  c #01060C",
"O  c #0B0B0B",
"+  c #100F0E",
"@  c #12100F",
"#  c #010A15",
"$  c #0A0E12",
"%  c #010D1A",
"&  c #141413",
"*  c #1A1715",
"=  c #1C1917",
"-  c #1C1C1C",
";  c #221E1C",
":  c #25211F",
">  c #001326",
",  c #00162C",
"<  c #001A35",
"1  c #001D3B",
"2  c #242424",
"3  c #2A2523",
"4  c #2F2926",
"5  c #2B2B2B",
"6  c #342E2B",
"7  c #37312D",
"8  c #39322F",
"9  c #343434",
"0  c #3B3430",
"q  c #3B3B3B",
"w  c #002244",
"e  c #002448",
"r  c #002851",
"t  c #002E5C",
"y  c #003162",
"u  c #00376E",
"i  c #003B76",
"p  c #003F7F",
"a  c #3A434C",
"s  c #444444",
"d  c #4A4A4A",
"f  c #535353",
"g  c #5C5C5C",
"h  c #646464",
"j  c #6B6B6B",
"k  c #747474",
"l  c #767778",
"z  c #7C7C7C",
"x  c #034383",
"c  c #00468C",
"v  c #004A94",
"b  c #004E9C",
"n  c #0A5097",
"m  c #0C539B",
"M  c #115599",
"N  c #16589A",
"B  c #195A9B",
"V  c #355A80",
"C  c #29649F",
"Z  c #0051A3",
"A  c #0056AB",
"S  c #0059B3",
"D  c #005FBC",
"F  c #0060BF",
"G  c #2D66A0",
"H  c #356CA3",
"J  c #3B70A4",
"K  c #517EAA",
"L  c #0063C6",
"P  c #0066CC",
"I  c #0368CD",
"U  c #106FCE",
"Y  c #1774D1",
"T  c #1B76D1",
"R  c #1E78D2",
"E  c #247CD3",
"W  c #7B93AC",
"Q  c #6C8FB2",
"!  c #3687D7",
"~  c #438ED9",
"^  c #4790DA",
"/  c #5197DC",
"(  c #6CA7E1",
")  c #70A9E2",
"_  c #848484",
"`  c #8C8C8C",
"'  c #949494",
"]  c #9C9C9C",
"[  c #92A7BC",
"{  c #94A9BD",
"}  c #A4A4A4",
"|  c #ACACAC",
" . c #B4B4B4",
".. c #BCBCBC",
"X. c #A1B1C0",
"o. c #B3BCC5",
"O. c #94BFE9",
"+. c #BDC3C8",
"@. c #B4C5D6",
"#. c #A1C6EC",
"$. c #C4C4C4",
"%. c #C3C6CA",
"&. c #CCCCCC",
"*. c #D4D4D4",
"=. c #DBDBDB",
"-. c #CCE0F5",
";. c #D6E6F7",
":. c #E4E4E4",
">. c #E2E8EE",
",. c #EBEBEB",
"<. c #E4EFFA",
"1. c #EFF5FC",
"2. c #F4F4F4",
"3. c #F2F7FC",
"4. c #FFFFFF",
"5. c None",
/* pixels */
"5.5.5.5.5.5.5.5.5.5.5.5.5.5.5.5.5.5.5.5.5.5.5.5.5.5.5.5.5.5.5.5.5.5.5.5.5.5.5.5.5.5.5.5.5.5.5.5.5.5.5.5.5.5.5.5.5.5.5.5.5.5.5.5.",
"5.5.5.5.5.5.5.5.5.5.5.5.5.5.5.5.5.5.5.5.5.5.5.5.5.5.5.5.5.5.5.5.5.5.5.5.5.5.5.5.5.5.5.5.5.5.5.5.5.5.5.5.5.5.5.5.5.5.5.5.5.5.5.5.",
"5.5.5.5.5.5.5.5.5.5.5.5.5.5.5.5.5.5.5.5.5.5.5.5.5.5.5.5.5.5.5.5.5.5.5.5.5.5.5.5.5.5.5.5.5.5.5.5.5.5.5.5.5.5.5.5.5.5.5.5.5.5.5.5.",
"5.5.5.5.5.5.5.5.5.5.5.5.5.5.5.5.5.5.5.5.5.5.5.5.5.5.    X O + & & & + X X .     5.5.5.5.5.5.5.5.5.5.5.5.5.5.5.5.5.5.5.5.5.5.5.5.",
"5.5.5.5.5.5.5.5.5.5.5.5.5.5.5.5.5.5.5.5.5.5.    + ; 3 7 8 8 0 8 6 6 6 6 7 6 4 ; & X   5.5.5.5.5.5.5.5.5.5.5.5.5.5.5.5.5.5.5.5.5.",
"5.5.5.5.5.5.5.5.5.5.5.5.5.5.5.5.5.5.5.5.5.X ; 6 6 3 * & $ $ % # # # o # o O @ = 3 4 ; X 5.5.5.5.5.5.5.5.5.5.5.5.5.5.5.5.5.5.5.5.",
"5.5.5.5.5.5.5.5.5.5.5.5.5.5.5.5.5.5.5.  @ 6 3 & - a y c Z S D D L D S A Z b x l s & & ; O 5.5.5.5.5.5.5.5.5.5.5.5.5.5.5.5.5.5.5.",
"5.5.5.5.5.5.5.5.5.5.5.5.5.5.5.5.5.5.5.  = O d  .2.#.P P P P P P P P P P P P P -.4.:.` 5     5.5.5.5.5.5.5.5.5.5.5.5.5.5.5.5.5.5.",
"5.5.5.5.5.5.5.5.5.5.5.5.5.5.5.5.5.5.5.. f *.4.4.4.) P P P P P P P P P P P P P O.4.4.4.2.] & 5.5.5.5.5.5.5.5.5.5.5.5.5.5.5.5.5.5.",
"5.5.5.5.5.5.5.5.5.5.5.5.5.5.5.5.5.5.O ] 3.4.4.4.4.~ P P P P P P P P P P P P P ( 4.4.4.4.4.=.5 5.5.5.5.5.5.5.5.5.5.5.5.5.5.5.5.5.",
"5.5.5.5.5.5.5.5.5.5.5.5.5.5.5.5.5.. } 4.4.4.4.4.4.E P P P P P P P P P P P P P / 4.4.4.4.4.4.*.& 5.5.5.5.5.5.5.5.5.5.5.5.5.5.5.5.",
"5.5.5.5.5.5.5.5.5.5.5.5.5.5.5.5.  g 4.4.4.4.4.4.4.T P P P P P P P P P P P P P ^ 4.4.4.4.4.4.4.'   5.5.5.5.5.5.5.5.5.5.5.5.5.5.5.",
"5.5.5.5.5.5.5.5.5.5.5.5.5.5.5.5.X *.4.4.4.4.4.4.4.T P P P P P P P P P P P P P ! 4.4.4.4.4.4.4.,.& 5.5.5.5.5.5.5.5.5.5.5.5.5.5.5.",
"5.5.5.5.5.5.5.5.5.5.5.5.5.5.5.  9 3.4.4.4.4.4.4.4.P P P P P P P P P P P P P P E 4.4.4.4.4.4.4.4.g   5.5.5.5.5.5.5.5.5.5.5.5.5.5.",
"5.5.5.5.5.5.5.5.5.5.5.5.5.5.5.  ` 4.4.4.4.4.4.4.4.P P P P P P P P P P P P P P T 3.4.4.4.4.4.4.4. .  5.5.5.5.5.5.5.5.5.5.5.5.5.5.",
"5.5.5.5.5.5.5.5.5.5.5.5.5.5.5.  &.4.4.4.4.4.4.4.4.P P P P P P P P P P P P P P T <.4.4.4.4.4.4.4.:.O   5.5.5.5.5.5.5.5.5.5.5.5.5.",
"5.5.5.5.5.5.5.5.5.5.5.5.5.5.  O ,.4.4.4.4.4.4.4.1.P P L D S A A Z A A A S F L U ;.4.4.4.4.4.4.4.3.2   5.5.5.5.5.5.5.5.5.5.5.5.5.",
"5.5.5.5.5.5.5.5.5.5.5.5.5.  O 2 3.4.4.4.4.4.4.4.>.A b v v v v v v v v v v v v m @.2.4.4.4.4.4.4.4.s . X 5.5.5.5.5.5.5.5.5.5.5.5.",
"5.5.5.5.5.5.5.5.5.5.5.5.  s 5 9 4.4.4.4.4.4.3.:.$.v v v v v v v v v v v v v v v { *.,.4.4.4.4.4.4.g O k   5.5.5.5.5.5.5.5.5.5.5.",
"5.5.5.5.5.5.5.5.5.5.5.5.& *.2 d 4.4.4.4.4.2.*.&.+.v v v v v p v v v v v v v v v [ &.&.:.3.4.4.4.4.l O *.- 5.5.5.5.5.5.5.5.5.5.5.",
"5.5.5.5.5.5.5.5.5.5.5.5.g 4.2 g 4.4.4.4.2.*.&.&.$.v v v v t $ r v v v v v v v v [ &.&.&.=.4.4.4.4.` . :.d 5.5.5.5.5.5.5.5.5.5.5.",
"5.5.5.5.5.5.5.5.5.5.5.  | 4.9 d 4.4.4.3.*.&.&.&.%.v v v c # &., v v v v v v v v [ &.&.&.&.:.4.4.4.z & :.s 5.5.5.5.5.5.5.5.5.5.5.",
"5.5.5.5.5.5.5.5.5.5.5.5.| 4.f 9 4.4.4.:.&.&.&.&.&.v v v y 5 =.> v v v v v v v v [ &.&.&.&.&.2.4.4.h & ..- 5.5.5.5.5.5.5.5.5.5.5.",
"5.5.5.5.5.5.5.5.5.5.5.5.f *.j * 2.4.2.&.&.&.&.&.&.n v v 1 j o., v v v v v v v n { &.&.&.&.&.*.4.4.s 5 h   5.5.5.5.5.5.5.5.5.5.5.",
"5.5.5.5.5.5.5.5.5.5.5.5.O  .`   *.4.=.&.&.&.&.&.&.N v v #  .] < v v v v v v v v X.&.&.&.&.&.&.2.2.- 2 . 5.5.5.5.5.5.5.5.5.5.5.5.",
"5.5.5.5.5.5.5.5.5.5.5.5.5.2 ] . ] 2.&.&.&.&.&.&.&.G v c . 4.k r v v v v v v v n X.&.&.&.&.&.&.=.*.    5.5.5.5.5.5.5.5.5.5.5.5.5.",
"5.5.5.5.5.5.5.5.5.5.5.5.5.  - O 9 :.&.&.&.&.&.&.&.H v i 5 4.s u v v v v v v v n X.&.&.&.&.&.&.&._   5.5.5.5.5.5.5.5.5.5.5.5.5.5.",
"5.5.5.5.5.5.5.5.5.5.5.5.5.5.5.  . | &.&.&.&.&.&.&.K v t g 4.2 p v v v v v v v M o.&.&.&.&.&.&.$.-   5.5.5.5.5.5.5.5.5.5.5.5.5.5.",
"5.5.5.5.5.5.5.5.5.5.5.5.5.5.5.5.  f &.&.&.&.&.&.&.Q v w _ 4.. c v v v v v v v B %.&.&.&.&.&.&.`   5.5.5.5.5.5.5.5.5.5.5.5.5.5.5.",
"5.5.5.5.5.5.5.5.5.5.5.5.5.5.5.5.  . | &.&.&.&.&.$.W v > ..:.o v v v v v v v v C &.&.&.&.&.&.$.2   5.5.5.5.5.5.5.5.5.5.5.5.5.5.5.",
"5.5.5.5.5.5.5.5.5.5.5.5.5.5.5.5.5.  q $.&.&.&.&.q & o   2...% c v v v v v v v J &.&.&.&.&.&.j   5.5.5.5.5.5.5.5.5.5.5.5.5.5.5.5.",
"5.5.5.5.5.5.5.5.5.5.5.5.5.5.5.5.5.5.  k &.&.&.} 5 4.$.2 4.] O O # i v v v b c g ] ..&.&.&.} .   5.5.5.5.5.5.5.5.5.5.5.5.5.5.5.5.",
"5.5.5.5.5.5.5.5.5.5.5.5.5.5.5.5.5.5.5.. ` ' 9 . h 4.| a &.h } 4.d % e u u # O s f 2 5 } | &   5.5.5.5.5.5.5.5.5.5.5.5.5.5.5.5.5.",
"5.5.5.5.5.5.5.5.5.5.5.5.5.5.5.5.5.5.5.  O . h 2 | 4.' 9 ' 5 *.4.s ` ] d   ` 2.4.4.3.] = -   5.5.5.5.5.5.5.5.5.5.5.5.5.5.5.5.5.5.",
"5.5.5.5.5.5.5.5.5.5.5.5.5.5.5.5.5.5.5.    9 2.2 | 2.*.k q = 3.4.9 &.4.l h ` g f h | 2.f   5.5.5.5.5.5.5.5.5.5.5.5.5.5.5.5.5.5.5.",
"5.5.5.5.5.5.5.5.5.5.5.5.5.5.5.5.    7 l O ] 4.d _ *.$._ } 4.4.4.; >.4.j   5 l ] ' g 9 h       5.5.5.5.5.5.5.5.5.5.5.5.5.5.5.5.5.",
"5.5.5.5.5.5.5.5.5.5.5.5.5.5.5.. q | 2.]   l 4.*.7 _ &._ _ *.*.] 2 4.4.f j 4.4.4.4.4._   &   9 . 5.5.5.5.5.5.5.5.5.5.5.5.5.5.5.5.",
"5.5.5.5.5.5.5.5.5.5.5.5.5.  & l &.3.4.j d 9 &.4.=.d g ` ' ` h 5  .4.2.O :.4.*.' &.4.*.O ] - h ` 5   5.5.5.5.5.5.5.5.5.5.5.5.5.5.",
"5.5.5.5.5.5.5.5.5.5.5.5.  5 | *.3.4.4.d } | 9 ' 2.4.$.z g g ` =.4.4.3.0 ,.&.q z 5 ,.,.4 ..a d :.$.h O 5.5.5.5.5.5.5.5.5.5.5.5.5.",
"5.5.5.5.5.5.5.5.5.5.5.  ; ..*.3.4.4.4.9 $.4.*.g k &.4.4.4.4.4.4.4.4.4.*.h q ..,.3 .. .f 2.f d 4.,.&.` O 5.5.5.5.5.5.5.5.5.5.5.5.",
"5.5.5.5.5.5.5.5.5.5.5.  g &.,.4.4.4.4.2 *.4.4.4.:.| &.4.4.4.4.4.4.4.4.4.2.2.4.4.} 9 s *.*.- s 4.4.:.&.l   5.5.5.5.5.5.5.5.5.5.5.",
"5.5.5.5.5.5.5.5.5.5.O k - ..4.4.4.4.2.5 :.4.4.4.4.4.4.4.4.4.3.4.4.4.4.4.4.4.4.4.4.3.:. .d q f 4.4.4.*.s q . 5.5.5.5.5.5.5.5.5.5.",
"5.5.5.5.5.5.5.5.5.. l *.` d 4.4.4.,._ - :.4.4.4.4.4.4.4.4.4.j | ' ,.$.4.4.4.:.| k g g ' ,.j k 4.4.4. .5 $.h   5.5.5.5.5.5.5.5.5.",
"5.5.5.5.5.5.5.5.5.g &.,.2.2 *.4.| 2   2 ,.4.4.4.4.4.4.4.4.4.9 &.* =.+ 3.4.4.4.4.4.4.4.4.4.9 h ,.4.4.q | ,.&.f 5.5.5.5.5.5.5.5.5.",
"5.5.5.5.5.5.5.5.= ..*.4.2.W h s . 5.5.2 ,.4.4.4.4.4.4.4.4.4.O =.O *.s 4.4.4.4.4.4.4.4.4.:.&   - ] =.- ,.4.=.$.5 5.5.5.5.5.5.5.5.",
"5.5.5.5.5.5.5.5.*  .=.4.2.z   5.5.5.5.9 3.4.4.4.4.4.4.4.4.,.& &.9 } l 4.4.4.4.4.4.4.4.4. .  5.5.  - s 4.4.,.&.s 5.5.5.5.5.5.5.5.",
"5.5.5.5.5.5.5.5.5.q &.,.} X 5.5.5.5.5.9 2.4.4.4.4.4.4.4.4.&.s ] g j ] 4.4.4.4.4.4.4.4.4.l   5.5.5.5.O ..4.=.] & 5.5.5.5.5.5.5.5.",
"5.5.5.5.5.5.5.5.5.5.d h X 5.5.5.5.5.5.d 4.4.4.4.4.4.4.4.4.3.2.:.=.' *.4.4.4.4.4.4.4.4.2.q 5.5.5.5.5.5.O `  .5 5.5.5.5.5.5.5.5.5.",
"5.5.5.5.5.5.5.5.5.5.5.5.5.5.5.5.5.5.5.d 4.4.:.,.3.4.4.4.2.2.4.4.4.4.4.4.4.4.4.4.4.4.4.*..   5.5.5.5.5.5.. & 5.5.5.5.5.5.5.5.5.5.",
"5.5.5.5.5.5.5.5.5.5.5.5.5.5.5.5.5.5.5.g 4.4.*.&.&.,.4.4.=.&.&.:.4.4.4.4.4.4.4.4.4.4.4.' d g   5.5.5.5.5.5.5.5.5.5.5.5.5.5.5.5.5.",
"5.5.5.5.5.5.5.5.5.5.5.5.5.5.5.5.5.5.5.g 4.2.&.&.&.:.4.4.*.&.&.*.4.4.4.4.4.4.4.4.4.4.4.d ] =.O 5.5.5.5.5.5.5.5.5.5.5.5.5.5.5.5.5.",
"5.5.5.5.5.5.5.5.5.5.5.5.5.5.5.5.5.5.5.f 4.,.&.&.&.,.4.4.&.&.&.=.4.4.4.4.4.4.4.4.4.4.=.2 :.,.& 5.5.5.5.5.5.5.5.5.5.5.5.5.5.5.5.5.",
"5.5.5.5.5.5.5.5.5.5.5.5.5.5.5.5.5.5.5.d 4.,.&.&.&.2.4.2.&.&.&.,.4.4.4.4.4.4.4.4.4.4.} s 4.=.X 5.5.5.5.5.5.5.5.5.5.5.5.5.5.5.5.5.",
"5.5.5.5.5.5.5.5.5.5.5.5.5.5.5.5.5.5.5.d 4.:.&.&.&.2.4.2.&.&.&.2.4.,.*.=.:.,.2.3.4.4.f ' 4.}   5.5.5.5.5.5.5.5.5.5.5.5.5.5.5.5.5.",
"5.5.5.5.5.5.5.5.5.5.5.5.5.5.5.5.5.5.5.d 4.,.&.&.&.,.4.3.*.&.*.4.4.=.&.&.&.&.&.:.4.:.5 =.3.q 5.5.5.5.5.5.5.5.5.5.5.5.5.5.5.5.5.5.",
"5.5.5.5.5.5.5.5.5.5.5.5.5.5.5.5.5.5.5.q 2.,.&.&.&.2.4.4.4.2.2.4.4.&.&.&.&.&.&.,.4.' f 4.'   5.5.5.5.5.5.5.5.5.5.5.5.5.5.5.5.5.5.",
"5.5.5.5.5.5.5.5.5.5.5.5.5.5.5.5.5.5.5.2 ,.,.&.&.&.,.4.4.4.4.4.4.2.&.&.&.&.&.&.4.2.s ] } & 5.5.5.5.5.5.5.5.5.5.5.5.5.5.5.5.5.5.5.",
"5.5.5.5.5.5.5.5.5.5.5.5.5.5.5.5.5.5.5.O :.2.&.&.&.&.:.2.4.4.4.3.:.&.&.&.&.&.=.4.&.- g . 5.5.5.5.5.5.5.5.5.5.5.5.5.5.5.5.5.5.5.5.",
"5.5.5.5.5.5.5.5.5.5.5.5.5.5.5.5.5.5.5.  _ ,.&.&.&.&.&.&.&.&.&.&.&.&.&.&.&.&.,.4.j     5.5.5.5.5.5.5.5.5.5.5.5.5.5.5.5.5.5.5.5.5.",
"5.5.5.5.5.5.5.5.5.5.5.5.5.5.5.5.5.5.5.5.  - j | &.&.&.&.&.&.&.&.&.&.&.&.&.&.4.=.& 5.5.5.5.5.5.5.5.5.5.5.5.5.5.5.5.5.5.5.5.5.5.5.",
"5.5.5.5.5.5.5.5.5.5.5.5.5.5.5.5.5.5.5.5.5.      - h ] $.&.&.&.&.&.&.&.&.&.=.4._   5.5.5.5.5.5.5.5.5.5.5.5.5.5.5.5.5.5.5.5.5.5.5.",
"5.5.5.5.5.5.5.5.5.5.5.5.5.5.5.5.5.5.5.5.5.5.5.  . .     9 h _ ' ' ] } ] } ..| & 5.5.5.5.5.5.5.5.5.5.5.5.5.5.5.5.5.5.5.5.5.5.5.5.",
"5.5.5.5.5.5.5.5.5.5.5.5.5.5.5.5.5.5.5.5.5.5.5.5.5.    5.5.                    5.5.5.5.5.5.5.5.5.5.5.5.5.5.5.5.5.5.5.5.5.5.5.5.5.",
"5.5.5.5.5.5.5.5.5.5.5.5.5.5.5.5.5.5.5.5.5.5.5.5.5.5.5.5.5.5.5.5.5.5.5.5.5.5.5.5.5.5.5.5.5.5.5.5.5.5.5.5.5.5.5.5.5.5.5.5.5.5.5.5."
};
