/* XPM */
static char *result[] = {
/* columns rows colors chars-per-pixel */
"64 64 177 2 ",
"   c #010101",
".  c #080707",
"X  c #0C0A05",
"o  c #00050B",
"O  c #0C0C0C",
"+  c #060A0F",
"@  c #100F0E",
"#  c #120E07",
"$  c #15120A",
"%  c #19140A",
"&  c #1D180D",
"*  c #000A13",
"=  c #000D1B",
"-  c #0C131B",
";  c #141313",
":  c #191615",
">  c #1D1915",
",  c #1B1B1B",
"<  c #201A0D",
"1  c #241E13",
"2  c #211D1C",
"3  c #2C2312",
"4  c #26211B",
"5  c #272012",
"6  c #322814",
"7  c #3F331A",
"8  c #001224",
"9  c #07192C",
"0  c #111820",
"q  c #001A33",
"w  c #001E3C",
"e  c #232323",
"r  c #2E2826",
"t  c #2C2C2C",
"y  c #292522",
"u  c #322C2A",
"i  c #37302D",
"p  c #38322F",
"a  c #333333",
"s  c #3B3532",
"d  c #3C3C3C",
"f  c #2A323A",
"g  c #41341B",
"h  c #483A1D",
"j  c #423A36",
"k  c #443D3A",
"l  c #544322",
"z  c #5B4924",
"x  c #584723",
"c  c #4A423D",
"v  c #655128",
"b  c #6A552A",
"n  c #6E582C",
"m  c #745D2E",
"M  c #7E6533",
"N  c #012143",
"B  c #00254A",
"V  c #002C59",
"C  c #00305F",
"Z  c #003162",
"A  c #003569",
"S  c #003D79",
"D  c #003A75",
"F  c #444444",
"G  c #4E4641",
"H  c #4B4B4B",
"J  c #534B46",
"K  c #564D48",
"L  c #5B514C",
"P  c #545454",
"I  c #5B5B5B",
"U  c #494D51",
"Y  c #635751",
"T  c #685C57",
"R  c #71635D",
"E  c #596878",
"W  c #646464",
"Q  c #6C6C6C",
"!  c #796B64",
"~  c #7E6F68",
"^  c #766862",
"/  c #747474",
"(  c #7C7C7C",
")  c #886C36",
"_  c #987A3D",
"`  c #9F7F40",
"'  c #84746D",
"]  c #A98743",
"[  c #B69249",
"{  c #BA944A",
"}  c #B38F47",
"|  c #C59E4F",
" . c #D4AA55",
".. c #D1A754",
"X. c #DFB359",
"o. c #E3B65B",
"O. c #E7B95C",
"+. c #EBBC5E",
"@. c #F4C462",
"#. c #FFCC66",
"$. c #F8C663",
"%. c #004283",
"&. c #00468C",
"*. c #13518F",
"=. c #004A94",
"-. c #004C98",
";. c #0B5197",
":. c #2B6095",
">. c #0151A2",
",. c #0057AF",
"<. c #125FAC",
"1. c #005EBC",
"2. c #0058B1",
"3. c #0260BF",
"4. c #306AA4",
"5. c #49729B",
"6. c #657B92",
"7. c #527EAA",
"8. c #4475A7",
"9. c #0162C4",
"0. c #0066CC",
"q. c #0569CD",
"w. c #0C6DCE",
"e. c #106FCF",
"r. c #1572CF",
"t. c #1572D0",
"y. c #1D77D2",
"u. c #257CD3",
"i. c #6B8CAD",
"p. c #728FAC",
"a. c #2C80D5",
"s. c #3385D6",
"d. c #3C8AD8",
"f. c #5197DC",
"g. c #5498DD",
"h. c #4790D9",
"j. c #649FDB",
"k. c #68A4E1",
"l. c #7BB0E5",
"z. c #848484",
"x. c #8B8B8B",
"c. c #939393",
"v. c #9A9A9A",
"b. c #8CA4BC",
"n. c #A4A4A4",
"m. c #ABABAB",
"M. c #B4B4B4",
"N. c #BBBBBB",
"B. c #97B6D5",
"V. c #AEBAC6",
"C. c #85B6E7",
"Z. c #8DBAE8",
"A. c #95BFEA",
"S. c #B6C0CB",
"D. c #9AC3EB",
"F. c #B0D0EF",
"G. c #B6D3F0",
"H. c #A7CAED",
"J. c #C3C3C3",
"K. c #CCCCCC",
"L. c #C6C8CA",
"P. c #CCCFD2",
"I. c #D3D3D3",
"U. c #DCDCDC",
"Y. c #C2DBF3",
"T. c #CDE1F5",
"R. c #D3E4F5",
"E. c #DAE9F7",
"W. c #E3E3E3",
"Q. c #ECECEC",
"!. c #E1E7ED",
"~. c #E7F1FA",
"^. c #EBF3FB",
"/. c #F3F3F3",
"(. c #F5F9FD",
"). c #FFFFFF",
"_. c None",
/* pixels */
"_._._._._._._._._._._._._._._._._._._._._._._._._._._._._._._._._._._._._._._._._._._._._._._._._._._._._._._._._._._._._._._._.",
"_._._._._._._._._._._._._._._._._._._._._._._._._._._._._._._._._._._._._._._._._._._._._._._._._._._._._._._._._._._._._._._._.",
"_._._._._._._._._._._._._._._._._._._._._._._._._._._._._._._._._._._._._._._._._._._._._._._._._._._._._._._._._._._._._._._._.",
"_._._._._._._._._._._._._._._._._._._._._._._._._._._._._._._._._._._._._._.                      _._._._._._._._._._._._._._._.",
"_._._._._._._._._._._._._._._._._._._._._._._._._._._._._._._._._.          o q A %.=.&.&.=.&.%.N =     _._._._._._._._._._._._.",
"_._._._._._._._._._._._._._._._._._._._._._._._._._._._._._.    . a / v.V.1.0.0.0.0.0.0.0.0.0.0.0.w.J.Q ,   _._._._._._._._._._.",
"_._._._._._._._._._._._._._._._._._._._._._._._._._._.    ; H v.K.Q.).).).f.0.0.0.0.0.0.9.3.1.1.1.9.R.).U./ , _._._._._._._._._.",
"_._._._._._._._._._._._._._._._._._._._._._._._._._.  . ( W.).).).).).).).R.r.,.%.V q = = * * * o = e W n./.U.t _._._._._._._._.",
"_._._._._._._._._._._._._._.  ;   _._._._._._._.    P W.).).).).).).).).I.Q 0 . 2 r i k c G G c c k s a y @ K Q   _._._._._._._.",
"_._._._._._._._._._._._._._.; m.O _._._._._._.  . ( /.).).).).).).).Q.( : 2 s c K K K K K K K K K K K K K G u :     _._._._._._.",
"_._._._._._._._._._._._._._.; U., _._._._._._.  c.).).).).).).).).J., O i K K K K K K K K K L L K K K K K K K k $   _._._._._._.",
"_._._._._._._._._._._._._._.e (.t _._._._._.  / ).).).).).).).).N.: > j J K K K K L T R ! ' ' ' ' ' ^ Y K K K c u O   _._._._._.",
"_._._._._._._._._._._._._._.t ).H   _._._.  s /.).).).).).).).Q.y , j k K K J K R ' ' ' ' ' ' ' ' ' ' ' ^ L K K k y   _._._._._.",
"_._._._._._._._._._._._._._.t ).W   _._._.@ N.(.).).).).).).).( . r j k K K L ' ' ' ' ' ' ' ' ' ' ' ' ' ' ' L K c u @ _._._._._.",
"_._._._._._._._._._._._._._.t )./   _._.  I I.(.).).).).).).).e ; i j k K K R ' ' ' ' ' ' ~ ! ! R T Y Y Y T L K G j ,   _._._._.",
"_._._._._._._._._._._._._._.t ).z.  _._.  n.K./.).).).).).).).  : i j k K K T L c i r : . X X X $ $ < $ $ #   : j p ,   _._._._.",
"_._._._._._._._._._._._._._.t ).x.  _._., K.x.W M.).).).).).).  : u j j i $ 7 M ` [ .. . .X.X.o.+.+.@.+.+.O.l   i u :   _._._._.",
"_._._._._._._._._._._._._._.t ).c.  _.  F M.; H ; N.).).).).).; : r j y & } #.#.#.#.#.#.#.#.#.#.#.#.#.#.#.#.)   r 2 .   _._._._.",
"_._._._._._._._._._._._._._.t ).v.  _.  ( / P K.v.2 Q.).).).).a ; 4 2 3 O.#.#.#.#.#.#.#.#.#.#.#.#.#.#.#.#.#.[   > @ d   _._._._.",
"_._._._._._._._._._._._.    . a t ; : . c.H N.K.K.I c.).).).).W @ :   b #.#.#.#.#.#.m [ #.#.#.#.#.#.#.[ { #. .  ; W Q.    _._._.",
"_._._._._._._._._._.  . F ( n.N.I.I.I.a m.a )./.I.n.a ).).).).n.. , a n #.#.#.#.#.+.% z #.#.#.#.#.#.#.x z #.o.< W /.).    _._._.",
"_._._._._._._._._.  z.Q.).).).).).).).F m.y ).).W.J., U.).).).W., M.I b #.#.#.#.#.+.$ % #.#.#.#.#.#.#.l $ #.@.7 x.)./.    _._._.",
"_._._._._._._._.  W P.W.I.v.Q I P I Q e m.2 ).).Q.K.t J.).).).).U.)./ b #.#.#.#.#.+.%   @.#.#.#.#.#.#.x   $.#.v Q ).W.  _._._._.",
"_._._._._._._._.  v.n.F @ F Q Q Q I P t v.e W.).Q.K.a m.).).).).).).x.x #.#.#.#.#.@.<    .#.#.#.#.#.#.b   @.#.) K (.K.  _._._._.",
"_._._._._._._._.  H ; Q Q.).).).)./.K.x.6.F 6.).W.K.t J.).).).).).).v.l #.#.#.#.#.$.1   +.#.#.#.#.#.#.m % #.#._ a /.n.  _._._._.",
"_._._._._._._._._.  / ).)./.U.M.v.x.I d f ] s W.I.N.; W.).).).).).).M.g #.#.#.#.#.#.6 # #.#.#.#.#.#.#.} M #.#.] a Q.Q   _._._._.",
"_._._._._._._._.  e I.M.P , .   ; y a a > N.@ c.K.x.F ).).).).).).).N.3 #.#.#.#.#.#.z h #.#.#.#.#.#.#.#.$.#.#._ F /.a   _._._._.",
"_._._._._._._._.  F ,   c z.M.L.P.U.Q.(.S.Q c.; H 2 I.).).).).).).).U.1 $.#.#.#.#.#.#.$...] m v v l l b M _ O.m W I.. _._._._._.",
"_._._._._._._._.  O . Q L.K.I.Q.(.).).).(.F N.( Q N.).).).).).).).).W.1 | @.#.#.#.#.| g > . a d H P P I P t 6 X z.x.  _._._._._.",
"_._._._._._._.O I M.a / I./.).).).).).).).x.W K.K.K./.).).).).).).).Q.,   3 m { +.X.2 ( P I v.v.v.v.v.v.v.(   ; U.d   _._._._._.",
"_._._._._.O Q J.K.U.P W (.).).).).).).).)./.u m.K.K.P./.).).).).).).).K./ >     o . P v.4 p.v.v.v.v.c.v.v.x.d /.n.. _._._._._._.",
"_._._._.  Q K.I./.).Q Q ).).).).).).).).).).N.t J.K.K.K./.).).).).).).).).(.K.z.I 0 I v.= ] v.v.c.v.v.v.v.x.a Q.t   _._._._._._.",
"_._._._.  z.K./.).).W Q ).).).).).).).).).).).W P K.K.K.K.U.(.).).).).).).).).).).( H / @ ( v.v.v.v.v.c.v.I a c.  _._._._._._._.",
"_._._._._.I K.).).).d z.W.J.N.m.m.m.M.K.Q.).)./.d / K.K.K.K.I.U./.).).).).).).).).m.F W 0 H ' x.c.c.x.x./ t F ,   _._._._._._._.",
"_._._._._.t K.Q.U.( .     . +   . y a H W K.).).U., ( K.K.K.K.K.K.I.Q.(.).).).).).B.- I H ; W W W Q W W I . .   _._._._._._._._.",
"_._._._._.  d t ; I N.I.I.U.N.  W K.K.I.).).).).).K.: / K.K.K.K.K.K.K.I.I.W./.).).g.S , P $ d I P U F d ;     _._._._._._._._._.",
"_._._._._._._._., K./.).).(.Q e M.K.K.W.).).).).).).J., Q J.K.K.K.K.K.K.K.K.K.I.S.<.2.A q =       * 8 9 .   _._._._._._._._._._.",
"_._._._._._._._.. K./.).).J.. ' K.K.I.(.).).).).).).).U.e t m.K.K.K.K.K.K.K.K.K.7.=.=.=.=.=.=.=.=.=.C o   _._._._._._._._._._._.",
"_._._._._._._._.  N.Q.).).P e J.K.K.W.).).).).).).).).).Q./ , I n.J.K.K.K.K.K.V.;.=.=.=.=.=.=.=.D q     _._._._._._._._._._._._.",
"_._._._._._._._.  M.W.).I.; ( K.K.K.).).).).).).).).).).).).K.H X d x.J.K.K.K.7.=.=.=.=.=.&.A w     _._._._._._._._._._._._._._.",
"_._._._._._._._.  m.U.).H d K.K.K.W.).).).).).).).).).).).).).(.B.D 8 * a W E A A A C w =       _._._._._._._._._._._._._._._._.",
"_._._._._._._._.  c.I.K.  c.K.K.I.).).).).).).).).).).).).).G.s.0.0.0.2.%.Z B w f a       _._._._._._._._._._._._._._._._._._._.",
"_._._._._._._._.  z.K.I t J.K.K.W.).).).).).).).).).).).).D.w.0.0.0.0.0.0.0.q.q.E.v.  _._._._._._._._._._._._._._._._._._._._._.",
"_._._._._._._._.  P n.. v.K.K.N.m.x.W P P n.(.).).).).).F.q.q.f.G.R.H.u.0.0.0.C./.t   _._._._._._._._._._._._._._._._._._._._._.",
"_._._._._._._._._.t H d K.v.d ; , d / v.x.t P /.).).).~.t.w.C.).).).).Y.q.0.d.).(   _._._._._._._._._._._._._._._._._._._._._._.",
"_._._._._._._._._.  . c.v.H ( K.Q.).).).).Q.d z.).).).l.0.k.).^.A.G.).~.t.0.l./.;   _._._._._._._._._._._._._._._._._._._._._._.",
"_._._._._._._._._.  F K.K.K.K.K.U.Q.).).).).Q., M.).(.t.q.R.).a.0.q.).~.t.0.Z.W   _._._._._._._._._._._._._._._._._._._._._._._.",
"_._._._._._._._._.  ( K.K.K.M.Q N.K./.).).).).Q H ).Y.0.u.(.~.0.0.s.).T.q.q.b..   _._._._._._._._._._._._._._._._._._._._._._._.",
"_._._._._._._._._.  z.K.K.x., n.K.I.).).).).).c.: ).D.0.a.).).s.s.T.).k.0.h.U   _._._._._._._._._._._._._._._._._._._._._._._._.",
"_._._._._._._._._._.F K.v.O ( K.K.W.).).).).I.$ F (.h.0.y.^.).).).).D.q.0.6.. _._._._._._._._._._._._._._._._._._._._._._._._._.",
"_._._._._._._._._._.. P y H J.K.U.).).).).W.a   c.C.0.0.0.C.(.).~.A.w.0.j.t   _._._._._._._._._._._._._._._._._._._._._._._._._.",
"_._._._._._._._._._._._.; N.K.I./.).).).).H   F i.>.1.0.0.q.y.u.t.0.0.k.x.  _._._._._._._._._._._._._._._._._._._._._._._._._._.",
"_._._._._._._._._._._.  / K.K./.).).).).(   a i.-.=.=.>.0.0.0.0.0.t.Z.P.O   _._._._._._._._._._._._._._._._._._._._._._._._._._.",
"_._._._._._._._._._._.. S.K.W.).).).(.c.  r p.=.=.=.=.=.-.,.1.s.D.^.).P   _._._._._._._._._._._._._._._._._._._._._._._._._._._.",
"_._._._._._._._._._._.a K.I./.).).).Q . t 5.=.=.=.=.=.=.=.=.4.!.).).m..   _._._._._._._._._._._._._._._._._._._._._._._._._._._.",
"_._._._._._._._._._.  e N.K.U.).U.H   - :.=.=.=.-.=.=.=.=.8.S.I.(./.,   _._._._._._._._._._._._._._._._._._._._._._._._._._._._.",
"_._._._._._._._._._._.  X x.J.x.;       * C %.=.=.=.=.-.7.L.K.I.(.'   _._._._._._._._._._._._._._._._._._._._._._._._._._._._._.",
"_._._._._._._._._._._._._.  e       y H t . o 8 B A *.b.K.K.K.U.c.+   _._._._._._._._._._._._._._._._._._._._._._._._._._._._._.",
"_._._._._._._._._._._._._._.  _._.  z.K.K.K.N.n.v.v.v.n.J.K.n.P .   _._._._._._._._._._._._._._._._._._._._._._._._._._._._._._.",
"_._._._._._._._._._._._._._._._._.  x.K.K.K.K.K.K.K.L.v.H $     _._._._._._._._._._._._._._._._._._._._._._._._._._._._._._._._.",
"_._._._._._._._._._._._._._._._._._.; I n.N.M.c.W d , .     _._._._._._._._._._._._._._._._._._._._._._._._._._._._._._._._._._.",
"_._._._._._._._._._._._._._._._._._._.  . e ,       _._._._._._._._._._._._._._._._._._._._._._._._._._._._._._._._._._._._._._.",
"_._._._._._._._._._._._._._._._._._._._._._._._._._._._._._._._._._._._._._._._._._._._._._._._._._._._._._._._._._._._._._._._.",
"_._._._._._._._._._._._._._._._._._._._._._._._._._._._._._._._._._._._._._._._._._._._._._._._._._._._._._._._._._._._._._._._."
};
