/* XPM */
static char *result[] = {
/* columns rows colors chars-per-pixel */
"64 64 181 2 ",
"   c #010101",
".  c #080707",
"X  c #00050A",
"o  c #0C0C0C",
"O  c #0B0905",
"+  c #120F0D",
"@  c #14110C",
"#  c #19140A",
"$  c #040C13",
"%  c #000C18",
"&  c #0E1217",
"*  c #141413",
"=  c #1C1917",
"-  c #1B1B1A",
";  c #191716",
":  c #241D0F",
">  c #231F1D",
",  c #231D10",
"<  c #2C2412",
"1  c #25211F",
"2  c #2A251C",
"3  c #392E17",
"4  c #372D19",
"5  c #3D321B",
"6  c #001225",
"7  c #00152B",
"8  c #001D3A",
"9  c #001831",
"0  c #101B26",
"q  c #1A2026",
"w  c #242323",
"e  c #2A2522",
"r  c #2B2B2B",
"t  c #2D2825",
"y  c #322D2A",
"u  c #38322E",
"i  c #343434",
"p  c #3F3834",
"a  c #3C3C3C",
"s  c #3B3430",
"d  c #4B3C1E",
"f  c #43361B",
"g  c #423A36",
"h  c #453D39",
"j  c #483F3C",
"k  c #4F4020",
"l  c #594724",
"z  c #5A4824",
"x  c #4B423E",
"c  c #614D27",
"v  c #665129",
"b  c #755D2F",
"n  c #7E6532",
"m  c #002244",
"M  c #00264A",
"N  c #002A54",
"B  c #002E5D",
"V  c #152C44",
"C  c #003163",
"Z  c #003A74",
"A  c #334558",
"S  c #434343",
"D  c #4B4B4B",
"F  c #4F4642",
"G  c #544B46",
"H  c #564D48",
"J  c #584E49",
"K  c #514743",
"L  c #5D524D",
"P  c #545454",
"I  c #5B5B5B",
"U  c #655954",
"Y  c #6B5F59",
"T  c #695D57",
"R  c #6D605A",
"E  c #72655E",
"W  c #535A61",
"Q  c #646464",
"!  c #6C6C6C",
"~  c #756761",
"^  c #796B64",
"/  c #7E6E68",
"(  c #747474",
")  c #7C7C7C",
"_  c #6D7176",
"`  c #806633",
"'  c #8A6F37",
"]  c #866B36",
"[  c #8E7139",
"{  c #94763B",
"}  c #96783C",
"|  c #84746D",
" . c #AC8A45",
".. c #A78643",
"X. c #B08D46",
"o. c #B69149",
"O. c #C29C4E",
"+. c #CCA352",
"@. c #D5AB55",
"#. c #DAAE57",
"$. c #DDB159",
"%. c #E2B55A",
"&. c #ECBD5E",
"*. c #E7B95C",
"=. c #F3C261",
"-. c #FFCC66",
";. c #F8C663",
":. c #004284",
">. c #00458B",
",. c #004A94",
"<. c #004D9B",
"1. c #0E4F90",
"2. c #04519F",
"3. c #135699",
"4. c #0052A4",
"5. c #0055AA",
"6. c #005DBB",
"7. c #065CB3",
"8. c #1467BA",
"9. c #2163A4",
"0. c #376DA3",
"q. c #0063C5",
"w. c #0066CC",
"e. c #0569CD",
"r. c #0B6CCE",
"t. c #1271CF",
"y. c #2070C0",
"u. c #237BD3",
"i. c #287ED4",
"p. c #5B84AD",
"a. c #6389AF",
"s. c #2D81D5",
"d. c #3686D7",
"f. c #4686C7",
"g. c #418CD8",
"h. c #4B93DB",
"j. c #5F9FDE",
"k. c #5796D6",
"l. c #609FDF",
"z. c #60A0DF",
"x. c #65A2E0",
"c. c #69A5E1",
"v. c #6EA8E2",
"b. c #75ACE3",
"n. c #7FB2E5",
"m. c #838383",
"M. c #8B8B8B",
"N. c #878788",
"B. c #949494",
"V. c #9A9A9A",
"C. c #9FAFBF",
"Z. c #8AA2BA",
"A. c #A3A3A3",
"S. c #ACACAC",
"D. c #A8A7A7",
"F. c #B4B4B4",
"G. c #BCBCBC",
"H. c #B4B8BC",
"J. c #A4B3C2",
"K. c #87B7E7",
"L. c #8CBAE8",
"P. c #93BEE9",
"I. c #9BC3EB",
"U. c #ABCDEE",
"Y. c #A5C9ED",
"T. c #BED5ED",
"R. c #BCD6F1",
"E. c #C4C4C4",
"W. c #CCCCCC",
"Q. c #D3D3D3",
"!. c #DCDCDC",
"~. c #DFECF8",
"^. c #D5E6F7",
"/. c #E3E3E3",
"(. c #ECECEC",
"). c #E3EEF9",
"_. c #ECF3FB",
"`. c #F4F4F4",
"'. c #FFFFFF",
"]. c #F3F8FC",
"[. c None",
/* pixels */
"[.[.[.[.[.[.[.[.[.[.[.[.[.[.[.[.[.[.[.[.[.[.[.[.[.[.[.[.[.[.[.[.[.[.[.[.[.[.[.[.[.[.[.[.[.[.[.[.[.[.[.[.[.[.[.[.[.[.[.[.[.[.[.[.",
"[.[.[.[.[.[.[.[.[.[.[.[.[.[.                          [.[.[.[.[.[.[.[.[.[.[.[.[.[.[.[.[.[.[.[.[.[.[.[.[.[.[.[.[.[.[.[.[.[.[.[.[.",
"[.[.[.[.[.[.[.[.[.[.[.  & D Z <.q.w.w.q.6.7.<.:.B 8 %         [.[.[.[.[.[.[.[.[.[.[.[.[.[.[.[.[.[.[.[.[.[.[.[.[.[.[.[.[.[.[.[.[.",
"[.[.[.[.[.[.[.[.[.  > ) Q.T.w.w.w.w.w.w.w.w.w.w.w.q.8.H.M.P t O     [.[.[.[.[.[.[.[.[.[.[.[.[.[.[.[.[.[.[.[.[.[.[.[.[.[.[.[.[.[.",
"[.[.[.[.[.[.[.[.+ m.(.'.(.a.>.>.,.<.4.5.6.w.w.w.w.w.L.'.'.'.].!.m.-     [.[.[.[.[.[.[.[.[.[.[.[.[.[.[.[.[.[.[.[.[.[.[.[.[.[.[.[.",
"[.[.[.[.[.[.[.  A.S.Q w * * = - 1 1 = * o X 9 N >.f.].'.'.'.'.'.'.].G.D     [.[.[.[.[.[.[.[.    [.[.[.[.[.[.[.[.[.[.[.[.[.[.[.[.",
"[.[.[.[.[.[.  . i > s x K K H H H H H G K h u 1 * q _ Q.'.'.'.'.'.'.'.`.V.;   [.[.[.[.[.[.[.i I [.[.[.[.[.[.[.[.[.[.[.[.[.[.[.[.",
"[.[.[.[.[.[.  O p H H H H H H H H H H H H H H H G h = . ( ].'.'.'.'.'.'.'.!.w   [.[.[.[.[.[.I V.  [.[.[.[.[.[.[.[.[.[.[.[.[.[.[.",
"[.[.[.[.[.  o u K H H H H U Y R R R U H H H H H H H H y o i !.'.'.'.'.'.'.'.(.i   [.[.[.[.  m.S.  [.[.[.[.[.[.[.[.[.[.[.[.[.[.[.",
"[.[.[.[.[.  e h H H H T ^ | | | | | | / ~ R L H H H H x u + S /.'.'.'.'.'.'.'.W.*   [.[.[.  V.S.  [.[.[.[.[.[.[.[.[.[.[.[.[.[.[.",
"[.[.[.[.  ; s K H J ^ | | | | | | | | | | | | ~ H H H K g g . Q '.'.'.'.'.'.'.'.S.. [.[.[.  F.E.  [.[.[.[.[.[.[.[.[.[.[.[.[.[.[.",
"[.[.[.[.  1 g H H ~ | | | | | | | | | | | | | | ^ H H H g g - * !.'.'.'.'.'.'.'.(.D   [.[.  G.E.  [.[.[.[.[.[.[.[.[.[.[.[.[.[.[.",
"[.[.[.[.. e g x y r > t y y g x K J U E E ^ | | | U H K g g e O M.'.'.'.'.'.'.'.(.G.o [.[.  E.Q.  [.[.[.[.[.[.[.[.[.[.[.[.[.[.[.",
"[.[.[.  . 1 g 1   l { { { [ n n c k 3 : o o ; t j H H x g g t o ( '.'.'.'.'.'.'./.W.D [.[.  Q.Q.  [.[.[.[.[.[.[.[.[.[.[.[.[.[.[.",
"[.[.[.    = y - O #.-.-.-.-.-.-.-.-.-.-.-.=.+. .b < * g g g e o ) '.'.'.'.'.'.Q.S.W.m.  [.  Q.!.; [.[.[.[.[.[.[.[.[.[.[.[.[.[.[.",
"[.[.[.  * . > @ 3 =.-.-.-.-.-.-.-.-.-.-.-.-.-.-.-.;.{ o u p 1 O V.'.'.'.'.'.) * * m.F.  [.  Q./.; [.[.[.[.[.[.[.[.[.[.[.[.[.[.[.",
"[.[.[.  Q B.; o v -.-.=.-.-.-.-.-.-.-.-.&.-.-.-.-.-.-. .@ e > X Q.'.'.'.'.S.i S.V.w W.o     ! ( * [.[.[.[.[.[.[.[.[.[.[.[.[.[.[.",
"[.[.[.  ( '.m.. [ -.;.f $.-.-.-.-.-.-.-.4 +.-.-.-.-.-.&.@ . ; + /.'.'.'.`.r A.W.W.r S.- S ! Q P D r o     [.[.[.[.[.[.[.[.[.[.[.",
"[.[.[.  ) './.; o.-. .  +.-.-.-.-.-.-. .  ` -.-.-.-.-.$.= ( O r ].'.'.'.A.a W.!.`.P M.r E.'.'.'.'.'.].W.D . [.[.[.[.[.[.[.[.[.[.",
"[.[.[.  ) '.E.  #.-.l   @.-.-.-.-.-.-.z   ` -.-.-.-.-.$.1 (.S ) '.'.'.'.I ( W.].'.! ) r A.Q.G.G.E.!.`.`.W.I   [.[.[.[.[.[.[.[.[.",
"[.[.[.  ! '.A.. -.-.d O #.-.-.-.-.-.-.4   [ -.-.-.-.-.#.t ]./.(.'.'.'.'.i A.!.'.'.R ( 1 o   ; ; ; ; S Q F.V.  [.[.[.[.[.[.[.[.[.",
"[.[.[.  D '.m.< -.-.k # $.-.-.-.-.-.-.<   ..-.-.-.-.-.O.i '.'.'.'.'.'.'.; W.!.'.'.A M.= F.!.'.'.'.`.F.p * P   [.[.[.[.[.[.[.[.[.",
"[.[.[.  e '.! 5 -.-.' 3 =.-.-.-.-.-.-.<   +.-.-.-.-.-...S '.'.'.'.'.'.'.- E.Q.'.(.; V.@ ) F.!.(.'.'.'.`.Q .   [.[.[.[.[.[.[.[.[.",
"[.[.[.  . ].( f -.-.&.O.-.-.-.-.-.-.-.d   %.-.-.-.-.-.[ P '.'.'.'.'.'.'.i V.W.`.S.w M.o *   o i P N.E.].!.i   [.[.[.[.[.[.[.[.[.",
"[.[.[.[.  G.M.< -.-.-.=.#.@.@.*.;.-.-.o.v -.-.-.-.-.-.c ( '.'.'.'.'.'.'.( A E.E.w N.P !./.Q.S.M._ S o * a.B.O [.[.[.[.[.[.[.[.[.",
"[.[.[.[.  Q A.  { l y 4 2 2 1 < < c ' O.;.-.-.-.-.-.-.f m.'.'.'.'.'.'.'.!.w ! L r S.P '.'.].(.!.W.W.A.F O r >   [.[.[.[.[.[.[.[.",
"[.[.[.[.  - G.o   r N.B.B.B.B.N.a.r o ; l -.-.-.-.-.%.: V.'.'.'.'.'.'.'.'.!.K x F.P S.'.'.'.'.'.].!.W.V., g     [.[.[.[.[.[.[.[.",
"[.[.[.[.[.  D.W.t I V.V.V.V.V.V.B.N.; B.D v  .] l #     G.'.'.'.'.'.'.'.'.Q.W.W.A.D '.'.'.'.'.'.'.'.(.( P W.S.P o [.[.[.[.[.[.[.",
"[.[.[.[.[.  S `.D Q V.V.V.B.V.V.V.B.* m.(   .   O w I H.`.'.'.'.'.'.'.].!.W.W.E.a G.'.'.'.'.'.'.'.'.'.Q ) (.Q.W.V.- [.[.[.[.[.[.",
"[.[.[.[.[.[.. M.D P V.V.V.V.V.V.V.V.q m.! + ( A.!.`.'.'.'.'.'.'.'.'.'.!.W.W.W.! P '.'.'.'.'.'.'.'.'.'.D B.'.'.Q.W.Q [.[.[.[.[.[.",
"[.[.[.[.[.[.  - I r ( V.V.V.V.V.V...6 Q P i '.'.'.'.'.'.'.'.'.'.'./.Q.W.W.W.N.r (.'.`.(.Q.Q.Q.`.'.'.'.P ) '.'.`.W.D [.[.[.[.[.[.",
"[.[.[.[.[.[.[.  r * Q ! ( m.) ) | x & Q S _ '.'.'.'.'.'.'.'.`./.Q.W.W.W.W.A.; W.'.A.S r - .     - S I a P `.'.(.E.w [.[.[.[.[.[.",
"[.[.[.[.[.[.[.[.    r Q Q Q Q Q Q ; h I o l.'.'.'.'.'.'./.!.W.W.W.W.W.W.A.; F.'.'.`.W.W.G.i a H.A.N.! Q w r M.W.A.. [.[.[.[.[.[.",
"[.[.[.[.[.[.[.[.      * > w i i w . i & :.u.].`.(./.!.W.W.W.W.W.W.W.W.A.; B.'.'.'.'.Q.W.W.P t ].'.'.'.'.].S.h     [.[.[.[.[.[.[.",
"[.[.[.[.[.[.[.[.[.    V N 8 7 6 6 7 M :.4.2.J.W.W.W.W.W.W.W.W.W.W.W.m.o V.'.'.'.'.'.!.W.W.) O !.'.'.'.'.'./.V.  [.[.[.[.[.[.[.[.",
"[.[.[.[.[.[.[.[.[.[.    6 >.,.,.,.,.,.,.,.,.p.W.W.W.W.W.W.W.W.W.E.a $ 1.'.'.'.'.'.'.(.W.W.F.  S.'.'.'.'.'.!.V.  [.[.[.[.[.[.[.[.",
"[.[.[.[.[.[.[.[.[.[.[.[.  X M >.,.,.,.,.,.,.3.J.W.W.W.W.W.W.S.Q o m 5.w.).'.'.'.'.'.`.W.W.W.- ! '.'.'.'.'.!.N.  [.[.[.[.[.[.[.[.",
"[.[.[.[.[.[.[.[.[.[.[.[.[.[.    9 Z >.,.,.,.,.0.W.W.W.F.m.t X 8 2.w.w.w.U.'.'.'.'.'.'.Q.W.W.W r `.'.'.'.'.Q.m.  [.[.[.[.[.[.[.[.",
"[.[.[.[.[.[.[.[.[.[.[.[.[.[.[.[.    $ 7 m M M M W H i 0 8 Z 7.d.c.h.r.w.s._.'.'.'.'.'.!.W.W.A.$ G.'.'.'.`.W.(   [.[.[.[.[.[.[.[.",
"[.[.[.[.[.[.[.[.[.[.[.[.[.[.[.[.[.[.[.  r P P Q ( B.G.8.e.e.U.'.'.'.I.r.w.c.'.'.'.'.'.(.W.W.W.q ) '.'.'.(.W.I   [.[.[.[.[.[.[.[.",
"[.[.[.[.[.[.[.[.[.[.[.[.[.[.[.[.[.[.[.  P '.'.'.'.'.].w.w.x.'.'.'.'.'.U.w.r.).'.'.'.'.].W.W.W.A i '.'.'.!.W.a [.[.[.[.[.[.[.[.[.",
"[.[.[.[.[.[.[.[.[.[.[.[.[.[.[.[.[.  ; O o `.'.'.'.'.^.w.w.T.'.R.s.x._.'.d.w.U.'.'.'.'.'.Q.W.W.... Q.'.'.Q.W.w [.[.[.[.[.[.[.[.[.",
"[.[.[.[.[.[.[.[.[.[.[.[.[.[.[.[.- B.Q.G.i Q `.'.'.'.).w.w.^.'.v.w.w.I.'.v.w.b.'.'.'.'.'./.W.W.S.o ( '.].W.G.* [.[.[.[.[.[.[.[.[.",
"[.[.[.[.[.[.[.[.[.[.[.[.[.[.[.; !.'.'.'.'.B.i Q.'.'.'.r.w.I.'.P.w.w.K.'.L.w.x.'.'.'.'.'.(.W.W.W.P O W./.W.S.. [.[.[.[.[.[.[.[.[.",
"[.[.[.[.[.[.[.[.[.[.[.[.[.[.  Q '.'.'.'.'.'.G.I S.'.'.h.w.d.'._.n.x.~.'.v.w.x.'.'.'.'.'.].Q.W.W.A.  P W.W.N.  [.[.[.[.[.[.[.[.[.",
"[.[.[.[.[.[.[.[.[.[.[.[.[.[.  P '.'.'.'.'.`.'.].V.N.`.R.e.w.T.'.'.'.'.'.u.w.K.'.'.'.'.'.'.!.W.W.W.i o D.W.P   [.[.[.[.[.[.[.[.[.",
"[.[.[.[.[.[.[.[.[.[.[.[.[.[.  ; (.'.'.'.'./.B.'.'././.'.h.e.t.L.].'._.x.w.w.h.'.'.'.'.'.].!.W.W.W.D.; - M.o [.[.[.[.[.[.[.[.[.[.",
"[.[.[.[.[.[.[.[.[.[.[.[.[.[.[.  G.'.'.'.].!.R G.'.'.'.'.^.u.w.e.s.d.i.w.w.w.e._.'.'.'.'.`.W.W.W.W.W.(   O           [.[.[.[.[.[.",
"[.[.[.[.[.[.[.[.[.[.[.[.[.[.[.  D '.'.'.'.!.M.a /.`.].'.'.).r.w.w.w.w.w.w.w.w.Y.'.'.'.`.Q.W.W.W.W.W.W.!     a B._   [.[.[.[.[.[.",
"[.[.[.[.[.[.[.[.[.[.[.[.[.[.[.[.  W.'.'.'.`.G.w F.W.W.Q.!./.f.6.6.6.q.q.q.q.q.j.'.`./.W.W.W.W.W.W.W.W.W.A.A.W.W.( [.[.[.[.[.[.[.",
"[.[.[.[.[.[.[.[.[.[.[.[.[.[.[.[.  ! '.'.'.'.Q.P S m.S.E.W.W.Z.1.,.<.<.<.<.2.<.9.Q.Q.W.W.W.W.W.W.W.W.W.W.W.W.W.F.r [.[.[.[.[.[.[.",
"[.[.[.[.[.[.[.[.[.[.[.[.[.[.[.[.  O /.'.'.'.!.(     . 1 U M.J.0.,.,.,.,.,.,.,.,.C.W.W.W.W.W.W.W.W.W.W.W.W.W.W.i [.[.[.[.[.[.[.[.",
"[.[.[.[.[.[.[.[.[.[.[.[.[.[.[.[.[.  I '.'.'./.M.  [.[.[.      $ 7 8 m N C C C N A Q Q ! B.E.W.W.W.W.W.W.W.B.i [.[.[.[.[.[.[.[.[.",
"[.[.[.[.[.[.[.[.[.[.[.[.[.[.[.[.[.[.. E.'.'.!.V.  [.[.[.[.[.[.[.                          * Q B.D.D.A.) w   [.[.[.[.[.[.[.[.[.[.",
"[.[.[.[.[.[.[.[.[.[.[.[.[.[.[.[.[.[.  w !.Q.W.V.  [.[.[.[.[.[.[.[.[.[.[.[.[.[.[.[.[.[.[.[.[.[.        [.[.[.[.[.[.[.[.[.[.[.[.[.",
"[.[.[.[.[.[.[.[.[.[.[.[.[.[.[.[.[.[.[.  P A.Q i   [.[.[.[.[.[.[.[.[.[.[.[.[.[.[.[.[.[.[.[.[.[.[.[.[.[.[.[.[.[.[.[.[.[.[.[.[.[.[.",
"[.[.[.[.[.[.[.[.[.[.[.[.[.[.[.[.[.[.[.[.        [.[.[.[.[.[.[.[.[.[.[.[.[.[.[.[.[.[.[.[.[.[.[.[.[.[.[.[.[.[.[.[.[.[.[.[.[.[.[.[.",
"[.[.[.[.[.[.[.[.[.[.[.[.[.[.[.[.[.[.[.[.[.[.[.[.[.[.[.[.[.[.[.[.[.[.[.[.[.[.[.[.[.[.[.[.[.[.[.[.[.[.[.[.[.[.[.[.[.[.[.[.[.[.[.[.",
"[.[.[.[.[.[.[.[.[.[.[.[.[.[.[.[.[.[.[.[.[.[.[.[.[.[.[.[.[.[.[.[.[.[.[.[.[.[.[.[.[.[.[.[.[.[.[.[.[.[.[.[.[.[.[.[.[.[.[.[.[.[.[.[.",
"[.[.[.[.[.[.[.[.[.[.[.[.[.[.[.[.[.[.[.[.[.[.[.[.[.[.[.[.[.[.[.[.[.[.[.[.[.[.[.[.[.[.[.[.[.[.[.[.[.[.[.[.[.[.[.[.[.[.[.[.[.[.[.[.",
"[.[.[.[.[.[.[.[.[.[.[.[.[.[.[.[.[.[.[.[.[.[.[.[.[.[.[.[.[.[.[.[.[.[.[.[.[.[.[.[.[.[.[.[.[.[.[.[.[.[.[.[.[.[.[.[.[.[.[.[.[.[.[.[.",
"[.[.[.[.[.[.[.[.[.[.[.[.[.[.[.[.[.[.[.[.[.[.[.[.[.[.[.[.[.[.[.[.[.[.[.[.[.[.[.[.[.[.[.[.[.[.[.[.[.[.[.[.[.[.[.[.[.[.[.[.[.[.[.[.",
"[.[.[.[.[.[.[.[.[.[.[.[.[.[.[.[.[.[.[.[.[.[.[.[.[.[.[.[.[.[.[.[.[.[.[.[.[.[.[.[.[.[.[.[.[.[.[.[.[.[.[.[.[.[.[.[.[.[.[.[.[.[.[.[.",
"[.[.[.[.[.[.[.[.[.[.[.[.[.[.[.[.[.[.[.[.[.[.[.[.[.[.[.[.[.[.[.[.[.[.[.[.[.[.[.[.[.[.[.[.[.[.[.[.[.[.[.[.[.[.[.[.[.[.[.[.[.[.[.[."
};
