/* XPM */
static char *result[] = {
/* columns rows colors chars-per-pixel */
"64 64 107 2 ",
"   c #010101",
".  c #090807",
"X  c #01060C",
"o  c #0B0B0B",
"O  c #13110F",
"+  c #000913",
"@  c #000E1D",
"#  c #141313",
"$  c #1A1715",
"%  c #1C1917",
"&  c #1C1C1C",
"*  c #211D1B",
"=  c #25211E",
"-  c #001225",
";  c #00152B",
":  c #001932",
">  c #001D3B",
",  c #04203C",
"<  c #242424",
"1  c #2A2522",
"2  c #27282A",
"3  c #2C2C2C",
"4  c #322C29",
"5  c #37302D",
"6  c #3A332F",
"7  c #273038",
"8  c #353535",
"9  c #3B3B3B",
"0  c #002143",
"q  c #00264C",
"w  c #002B56",
"e  c #002D5A",
"r  c #003264",
"t  c #00356A",
"y  c #003A75",
"u  c #003E7B",
"i  c #434343",
"p  c #4B4B4B",
"a  c #535353",
"s  c #5C5C5C",
"d  c #4E5B67",
"f  c #636363",
"g  c #6C6C6C",
"h  c #737373",
"j  c #7D7D7D",
"k  c #004080",
"l  c #00468C",
"z  c #00488F",
"x  c #004A94",
"c  c #004D9A",
"v  c #0F5398",
"b  c #16589A",
"n  c #1F5E9D",
"m  c #23609E",
"M  c #0052A3",
"N  c #0057AF",
"B  c #0A5EB2",
"V  c #2D67A0",
"C  c #386EA3",
"Z  c #4677A7",
"A  c #0062C5",
"S  c #0066CC",
"D  c #0468CD",
"F  c #0F6FCF",
"G  c #1371D0",
"H  c #1B76D1",
"J  c #227AD3",
"K  c #5F86AE",
"L  c #7A98B6",
"P  c #2F82D5",
"I  c #3D8BD8",
"U  c #4992DA",
"Y  c #5599DD",
"T  c #5B9CDE",
"R  c #7BB0E4",
"E  c #848484",
"W  c gray55",
"Q  c #959595",
"!  c #9C9C9C",
"~  c #92A7BC",
"^  c #9AACBE",
"/  c #A3A3A3",
"(  c #ABABAB",
")  c #B3B3B3",
"_  c #BDBDBD",
"`  c #8FA9C3",
"'  c #9EB0C2",
"]  c #A0B0C0",
"[  c #AFB9C4",
"{  c #86B6E7",
"}  c #BEC3C8",
"|  c #ACCDEE",
" . c #C3C3C3",
".. c #CCCCCC",
"X. c #CBD0D6",
"o. c #D3D3D3",
"O. c #DCDCDC",
"+. c #C8DAED",
"@. c #DCE5EF",
"#. c #DCEAF8",
"$. c #E4E4E4",
"%. c #ECECEC",
"&. c #ECF3FB",
"*. c #F3F3F3",
"=. c #F7FAFD",
"-. c #FFFFFF",
";. c None",
/* pixels */
";.;.;.;.;.;.;.;.;.;.;.;.;.;.;.;.;.;.;.;.;.;.;.;.;.;.;.;.;.;.;.;.;.;.;.;.;.;.;.;.;.;.;.;.;.;.;.;.;.;.;.;.;.;.;.;.;.;.;.;.;.;.;.;.",
";.;.;.;.;.;.;.;.;.;.;.;.;.;.;.;.;.;.;.;.;.;.;.;.;.;.;.;.                    ;.;.;.;.;.;.;.;.;.;.;.;.;.;.;.;.;.;.;.;.;.;.;.;.;.;.",
";.;.;.;.;.;.;.;.;.;.;.;.;.;.;.;.;.;.;.;.;.;.;.    o # % * 1 4 4 5 4 4 1 1 * $ o .   ;.;.;.;.;.;.;.;.;.;.;.;.;.;.;.;.;.;.;.;.;.;.",
";.;.;.;.;.;.;.;.;.;.;.;.;.;.;.;.;.;.;.;.;.  o * 4 6 4 1 * & % $ # O O # $ * 1 4 4 = o   ;.;.;.;.;.;.;.;.;.;.;.;.;.;.;.;.;.;.;.;.",
";.;.;.;.;.;.;.;.;.;.;.;.;.;.;.;.;.;.;.;.. = 4 1 # # @ 0 e t y y y y t r w w > < # $ 1 %   ;.;.;.;.;.;.;.;.;.;.;.;.;.;.;.;.;.;.;.",
";.;.;.;.;.;.;.;.;.;.;.;.;.;.;.;.;.;.;.  * % # i Q ` A S S S S S S S S S S S D @._ h 3 O .   ;.;.;.;.;.;.;.;.;.;.;.;.;.;.;.;.;.;.",
";.;.;.;.;.;.;.;.;.;.;.;.;.;.;.;.;.;.;.  $ f ..-.-.{ A S S S S S S S S S S S S | -.-.*./ 8   ;.;.;.;.;.;.;.;.;.;.;.;.;.;.;.;.;.;.",
";.;.;.;.;.;.;.;.;.;.;.;.;.;.;.;.;.;.  i O.-.-.-.-.Y S S S S S S S S S S S S S R -.-.-.-.=.E o ;.;.;.;.;.;.;.;.;.;.;.;.;.;.;.;.;.",
";.;.;.;.;.;.;.;.;.;.;.;.;.;.;.;.;.;.a *.-.-.-.-.-.P S S S S S S S S S S S S S T -.-.-.-.-.-.Q   ;.;.;.;.;.;.;.;.;.;.;.;.;.;.;.;.",
";.;.;.;.;.;.;.;.;.;.;.;.;.;.;.;.;.2 %.-.-.-.-.-.-.H S S S S S S S S S S S S S U -.-.-.-.-.-.-.a   ;.;.;.;.;.;.;.;.;.;.;.;.;.;.;.",
";.;.;.;.;.;.;.;.;.;.;.;.;.;.;.;.  ( -.-.-.-.-.-.-.H S S S S S S S S S S S S S I -.-.-.-.-.-.-...  ;.;.;.;.;.;.;.;.;.;.;.;.;.;.;.",
";.;.;.;.;.;.;.;.;.;.;.;.;.;.;.;.$ *.-.-.-.-.-.-.-.F S S S S S S S S S S S S S P -.-.-.-.-.-.-.=.3   ;.;.;.;.;.;.;.;.;.;.;.;.;.;.",
";.;.;.;.;.;.;.;.;.;.;.;.;.;.;.  g -.-.-.-.-.-.-.-.S S S S S S S S S S S S S S J =.-.-.-.-.-.-.-.Q   ;.;.;.;.;.;.;.;.;.;.;.;.;.;.",
";.;.;.;.;.;.;.;.;.;.;.;.;.;.;.  ) -.-.-.-.-.-.-.-.S S S S S S S S S S S S S S H &.-.-.-.-.-.-.-.o.. ;.;.;.;.;.;.;.;.;.;.;.;.;.;.",
";.;.;.;.;.;.;.;.;.;.;.;.;.;.  . O.-.-.-.-.-.-.-.=.S S S S S A A A A A A S S S G #.-.-.-.-.-.-.-.*.$   ;.;.;.;.;.;.;.;.;.;.;.;.;.",
";.;.;.;.;.;.;.;.;.;.;.;.;.    $ *.-.-.-.-.-.-.-.&.A N M c c c x x x x c x c M B +.-.-.-.-.-.-.-.-.8     ;.;.;.;.;.;.;.;.;.;.;.;.",
";.;.;.;.;.;.;.;.;.;.;.;.;.$ < 1 -.-.-.-.-.-.-.*.X.x x x x x x x x x z x x x x x ^ $.=.-.-.-.-.-.-.a o 3   ;.;.;.;.;.;.;.;.;.;.;.",
";.;.;.;.;.;.;.;.;.;.;.;.  ! 2 i -.-.-.-.-.-.$.o.} x x x x x x x x x x x x x x x ~ ..o.%.-.-.-.-.-.g o _ o ;.;.;.;.;.;.;.;.;.;.;.",
";.;.;.;.;.;.;.;.;.;.;.;.9 =.< a -.-.-.-.-.$.....} x x k @ > x x x x x x x x x x ~ ....o.%.-.-.-.-.E o $.8 ;.;.;.;.;.;.;.;.;.;.;.",
";.;.;.;.;.;.;.;.;.;.;.  Q -.3 a -.-.-.-.$.......} x x q h 7 x x x x x x x x x x ~ ........*.-.-.-.E o $.a ;.;.;.;.;.;.;.;.;.;.;.",
";.;.;.;.;.;.;.;.;.;.;.  _ -.p 9 -.-.-.%...........x x X ..2 x x x x x x x x x x ~ ........o.-.-.-.h # ..2 ;.;.;.;.;.;.;.;.;.;.;.",
";.;.;.;.;.;.;.;.;.;.;.;.j $.f & =.-.=.o...........c u O =.& l x x x x x x x x c ^ ..........$.-.-.a & ! o ;.;.;.;.;.;.;.;.;.;.;.",
";.;.;.;.;.;.;.;.;.;.;.;.2  .E o $.-.$.............b r 9 -.o l x x x x x x x x x ^ ............*.-.3 9 & ;.;.;.;.;.;.;.;.;.;.;.;.",
";.;.;.;.;.;.;.;.;.;.;.;.  f /   _ =...............n e f -.  x x x x x x x x x v ] ............$.$.o     ;.;.;.;.;.;.;.;.;.;.;.;.",
";.;.;.;.;.;.;.;.;.;.;.;.;.  a o s %...............m q j %.  x x x x x x x x x x ] ............o.(     ;.;.;.;.;.;.;.;.;.;.;.;.;.",
";.;.;.;.;.;.;.;.;.;.;.;.;.;.    # ................Z , ! O.X x x x x x x x x x v [ ..............p   ;.;.;.;.;.;.;.;.;.;.;.;.;.;.",
";.;.;.;.;.;.;.;.;.;.;.;.;.;.;.;.  E ..............K - _ ..+ x x x x x x x x x b } ............( . ;.;.;.;.;.;.;.;.;.;.;.;.;.;.;.",
";.;.;.;.;.;.;.;.;.;.;.;.;.;.;.;.  %  .............L + %. .@ x x x x x x x x x m ..............a   ;.;.;.;.;.;.;.;.;.;.;.;.;.;.;.",
";.;.;.;.;.;.;.;.;.;.;.;.;.;.;.;.;.  g ........E f d o -.) ; x x x x x x x x x C ............/   ;.;.;.;.;.;.;.;.;.;.;.;.;.;.;.;.",
";.;.;.;.;.;.;.;.;.;.;.;.;.;.;.;.;.  . / .... .2 E s = =.(     + y x x x e @ X . & a ) ...._ <   ;.;.;.;.;.;.;.;.;.;.;.;.;.;.;.;.",
";.;.;.;.;.;.;.;.;.;.;.;.;.;.;.;.;.;.  2 _  .h p =.O.8 O.E j -.f X - > : o E ..%.$.E < ( ..i   ;.;.;.;.;.;.;.;.;.;.;.;.;.;.;.;.;.",
";.;.;.;.;.;.;.;.;.;.;.;.;.;.;.;.;.;.;.  < o . j -...i ..g Q -.j h o.Q o O.$.o.O.*.-.s 8 s   ;.;.;.;.;.;.;.;.;.;.;.;.;.;.;.;.;.;.",
";.;.;.;.;.;.;.;.;.;.;.;.;.;.;.;.;.;.;.    W s E =...# O . _ -.j E -.W 8 8   2 8 3 6 g     ;.;.;.;.;.;.;.;.;.;.;.;.;.;.;.;.;.;.;.",
";.;.;.;.;.;.;.;.;.;.;.;.;.;.;.;.;.;.    3 %.f j o.*.( _ O.=.-.h ! -. .  j %.-.-.=.! o .   ;.;.;.;.;.;.;.;.;.;.;.;.;.;.;.;.;.;.;.",
";.;.;.;.;.;.;.;.;.;.;.;.;.;.;.;.;.  g 8 f -. .2 ! ..g g _ O.o.2 ..-.W a -.-.-.-.-.=.p s j     ;.;.;.;.;.;.;.;.;.;.;.;.;.;.;.;.;.",
";.;.;.;.;.;.;.;.;.;.;.;.;.;.;.;.. j *.= * $.-.( % g  .....( i p -.-.s ( -. .2 2 ( -.W a _   2   ;.;.;.;.;.;.;.;.;.;.;.;.;.;.;.;.",
";.;.;.;.;.;.;.;.;.;.;.;.;.;.;.. h %.$.< h s O.=.$.E i 8 9 a / =.-.-. .g _ 8 O.E s $.h ( O.  / 9   ;.;.;.;.;.;.;.;.;.;.;.;.;.;.;.",
";.;.;.;.;.;.;.;.;.;.;.;.;.;.  a o.=.O.9 *.Q 5 j $.-.-.-.-.-.-.-.-.-.-. .g _ -.o.9 1 g *.W   ) ) $ ;.;.;.;.;.;.;.;.;.;.;.;.;.;.;.",
";.;.;.;.;.;.;.;.;.;.;.;.;.;.& _ %.-.O.p -.-.$.Q h ( $.-.-.-.-.-.-.-.-.-.-.-.-.-.=.$.$.! p # ) O.Q . ;.;.;.;.;.;.;.;.;.;.;.;.;.;.",
";.;.;.;.;.;.;.;.;.;.;.;.;.  W o.=.-.O.i =.-.-.-.-.-.*.-.-.-.-.-.-.-.-.-.-.-.*._ Q h s W %.= ..=...a   ;.;.;.;.;.;.;.;.;.;.;.;.;.",
";.;.;.;.;.;.;.;.;.;.;.;.;.<  .$.-.-.O.8 =.-.-.-.-.-.-.-.-.-.g O.h %./ -.-.-.%.O.O.*.-.-.%.& $.=.O.) O ;.;.;.;.;.;.;.;.;.;.;.;.;.",
";.;.;.;.;.;.;.;.;.;.;.;.  2 ) %.-.-.O.8 *.-.-.-.-.-.-.-.-.-.& O.. o.9 -.-.-.-.-.-.-.-.-.O.= *.=.%...9   ;.;.;.;.;.;.;.;.;.;.;.;.",
";.;.;.;.;.;.;.;.;.;.;.;.o f & _ -.-.o.8 *.-.-.-.-.-.-.-.-.-.o O.&  .s -.-.-.-.-.-.-.-.-._ 9 =.=.%.h #   ;.;.;.;.;.;.;.;.;.;.;.;.",
";.;.;.;.;.;.;.;.;.;.;.;.9 ..) < ..*.a < %.-.-.-.-.-.-.-.-.*.o o.2 ( h -.-.-.-.-.-.-.-.-.W s =.=.h 9 ( & ;.;.;.;.;.;.;.;.;.;.;.;.",
";.;.;.;.;.;.;.;.;.;.;.. Q O.=.( 2 s   < %.-.-.-.-.-.-.-.=.$.1 _ i W E -.-.-.-.-.-.-.-.-.s $ X.E 9 %.o.s ;.;.;.;.;.;.;.;.;.;.;.;.",
";.;.;.;.;.;.;.;.;.;.;.&  .$.-.=.i   ;.< %.-.-.-.-.-.-.-.=.=.%.%.o. ...-.-.-.-.-.-.-.-.*.3   # 2 $.-.O.) o ;.;.;.;.;.;.;.;.;.;.;.",
";.;.;.;.;.;.;.;.;.;.;.1 ..O.-.=.2 ;.;.# $.-.-.-.-.-.-.-.=.-.=.=.-.-.-.-.-.-.-.-.-.-.-.o.. ;.  a -.-.O...< ;.;.;.;.;.;.;.;.;.;.;.",
";.;.;.;.;.;.;.;.;.;.;.. g ..O.!   ;.# $ $.-.%.o.O.%.-.=.%.....o.=.-.-.-.-.-.-.-.-.-.-./   ;.;.$ %.=.o. .& ;.;.;.;.;.;.;.;.;.;.;.",
";.;.;.;.;.;.;.;.;.;.;.;.;.9 W & ;.. _ = O.=.O.....o.-.-.%.......%.-.-.-.-.-.-.-.-.-.-.g   ;.;.  f o./ 3 ;.;.;.;.;.;.;.;.;.;.;.;.",
";.;.;.;.;.;.;.;.;.;.;.;.;.;.;.;.;.# %.3 ..-.O.....o.-.-.%.......=.-.-.=.-.-.-.-.-.-.=.9 . ;.;.;.o 8 o ;.;.;.;.;.;.;.;.;.;.;.;.;.",
";.;.;.;.;.;.;.;.;.;.;.;.;.;.;.;.;.# $.9 ) -.O.....o.-.-.%.......-.-.=.=.=.=.-.-.-.-.O.& 3 ;.;.;.;.;.;.;.;.;.;.;.;.;.;.;.;.;.;.;.",
";.;.;.;.;.;.;.;.;.;.;.;.;.;.;.;.;.   .p ! -.O.....o.-.-.$.....o.-.-.o.....o.o.O.*.-.( 3 3 ;.;.;.;.;.;.;.;.;.;.;.;.;.;.;.;.;.;.;.",
";.;.;.;.;.;.;.;.;.;.;.;.;.;.;.;.;.;.f f W -.O.....o.-.-.%.....$.-.=...........o.*.-.h i . ;.;.;.;.;.;.;.;.;.;.;.;.;.;.;.;.;.;.;.",
";.;.;.;.;.;.;.;.;.;.;.;.;.;.;.;.;.;.o a h -.$.......-.-.-.*.%.=.-.=...........o.-.*.9 9   ;.;.;.;.;.;.;.;.;.;.;.;.;.;.;.;.;.;.;.",
";.;.;.;.;.;.;.;.;.;.;.;.;.;.;.;.;.;.;.. a -.$.......=.-.-.-.-.-.-.%...........O.-.o.& <   ;.;.;.;.;.;.;.;.;.;.;.;.;.;.;.;.;.;.;.",
";.;.;.;.;.;.;.;.;.;.;.;.;.;.;.;.;.;.;.;.2 %.%.......O.*.-.-.-.-.=.$...........$.-.W o   ;.;.;.;.;.;.;.;.;.;.;.;.;.;.;.;.;.;.;.;.",
";.;.;.;.;.;.;.;.;.;.;.;.;.;.;.;.;.;.;.;.. ..*...........o.O.o.o.o.............%.*.9     ;.;.;.;.;.;.;.;.;.;.;.;.;.;.;.;.;.;.;.;.",
";.;.;.;.;.;.;.;.;.;.;.;.;.;.;.;.;.;.;.;.  p _ ..............................o.=._     ;.;.;.;.;.;.;.;.;.;.;.;.;.;.;.;.;.;.;.;.;.",
";.;.;.;.;.;.;.;.;.;.;.;.;.;.;.;.;.;.;.;.;.    # a E / _ ....................O.-.f   ;.;.;.;.;.;.;.;.;.;.;.;.;.;.;.;.;.;.;.;.;.;.",
";.;.;.;.;.;.;.;.;.;.;.;.;.;.;.;.;.;.;.;.;.;.;.;.        & p h E E E h h g s p $   ;.;.;.;.;.;.;.;.;.;.;.;.;.;.;.;.;.;.;.;.;.;.;.",
";.;.;.;.;.;.;.;.;.;.;.;.;.;.;.;.;.;.;.;.;.;.;.;.;.;.;.;.;.                      ;.;.;.;.;.;.;.;.;.;.;.;.;.;.;.;.;.;.;.;.;.;.;.;.",
";.;.;.;.;.;.;.;.;.;.;.;.;.;.;.;.;.;.;.;.;.;.;.;.;.;.;.;.;.;.;.;.;.;.;.;.;.;.;.;.;.;.;.;.;.;.;.;.;.;.;.;.;.;.;.;.;.;.;.;.;.;.;.;.",
";.;.;.;.;.;.;.;.;.;.;.;.;.;.;.;.;.;.;.;.;.;.;.;.;.;.;.;.;.;.;.;.;.;.;.;.;.;.;.;.;.;.;.;.;.;.;.;.;.;.;.;.;.;.;.;.;.;.;.;.;.;.;.;.",
";.;.;.;.;.;.;.;.;.;.;.;.;.;.;.;.;.;.;.;.;.;.;.;.;.;.;.;.;.;.;.;.;.;.;.;.;.;.;.;.;.;.;.;.;.;.;.;.;.;.;.;.;.;.;.;.;.;.;.;.;.;.;.;."
};
