/* XPM */
static char *result[] = {
/* columns rows colors chars-per-pixel */
"64 64 172 2 ",
"   c #010101",
".  c #0E0B06",
"X  c #000409",
"o  c #0C0C0B",
"O  c #110E07",
"+  c #100F0E",
"@  c #161109",
"#  c #1D170C",
"$  c #000811",
"%  c #070E17",
"&  c #0C121A",
"*  c #0B1118",
"=  c #141313",
"-  c #1A1614",
";  c #1B1916",
":  c #1C1C1B",
">  c #171819",
",  c #211A0D",
"<  c #221D1C",
"1  c #2C2312",
"2  c #24201F",
"3  c #262013",
"4  c #372C16",
"5  c #3E3119",
"6  c #001326",
"7  c #01152A",
"8  c #001A34",
"9  c #001D3A",
"0  c #161E27",
"q  c #0C233B",
"w  c #232323",
"e  c #2B2725",
"r  c #2F2926",
"t  c #2B2B2B",
"y  c #322E2B",
"u  c #37302D",
"i  c #39322E",
"p  c #333333",
"a  c #3D3532",
"s  c #3B3A3A",
"d  c #3F3834",
"f  c #41341A",
"g  c #4B3C1E",
"h  c #423A36",
"j  c #463E39",
"k  c #554422",
"l  c #5D4B25",
"z  c #49413D",
"x  c #665129",
"c  c #69542A",
"v  c #6E582C",
"b  c #775F2F",
"n  c #776030",
"m  c #002141",
"M  c #00254A",
"N  c #002953",
"B  c #002F5F",
"V  c #08315B",
"C  c #303A45",
"Z  c #003366",
"A  c #00356A",
"S  c #003E7B",
"D  c #003971",
"F  c #3D4248",
"G  c #18416A",
"H  c #444444",
"J  c #4D4540",
"K  c #4C4C4C",
"L  c #534A45",
"P  c #564D48",
"I  c #584E49",
"U  c #5B524C",
"Y  c #545454",
"T  c #5C5C5C",
"R  c #625752",
"E  c #645953",
"W  c #695D57",
"Q  c #656565",
"!  c #6C6B6B",
"~  c #666768",
"^  c #766862",
"/  c #7A6B65",
"(  c #7F7069",
")  c #737373",
"_  c #7C7C7C",
"`  c #846A35",
"'  c #8E7239",
"]  c #96783C",
"[  c #9F7F40",
"{  c #84746D",
"}  c #A48342",
"|  c #BC974C",
" . c #C8A050",
".. c #D7AC56",
"X. c #DDB158",
"o. c #EABB5E",
"O. c #E7B95C",
"+. c #EFBF60",
"@. c #F4C362",
"#. c #F9C763",
"$. c #FFCC66",
"%. c #004284",
"&. c #004589",
"*. c #00488F",
"=. c #004A94",
"-. c #004D9B",
";. c #084F97",
":. c #04519D",
">. c #0B5197",
",. c #26639F",
"<. c #0053A5",
"1. c #0057AD",
"2. c #0059B3",
"3. c #005EBC",
"4. c #2566A8",
"5. c #3C70A5",
"6. c #3C73AC",
"7. c #0062C3",
"8. c #0066CC",
"9. c #0569CD",
"0. c #0A6CCE",
"q. c #0D6AC7",
"w. c #1975D1",
"e. c #297FD4",
"r. c #227BD3",
"t. c #3787D6",
"y. c #448FDA",
"u. c #579ADD",
"i. c #5499DD",
"p. c #4B93DB",
"a. c #67A3E1",
"s. c #7FB0E2",
"d. c #73ABE3",
"f. c #838383",
"g. c #8B8B8B",
"h. c #939393",
"j. c #9A9A9A",
"k. c #92A7BD",
"l. c #A4A4A4",
"z. c #ABABAB",
"x. c #B3B3B3",
"c. c #BCBCBC",
"v. c #B4B8BD",
"b. c #89B4DF",
"n. c #A4B4C3",
"m. c #83B5E6",
"M. c #8CBAE8",
"N. c #93BEE9",
"B. c #BBC1C7",
"V. c #9CC4EB",
"C. c #BFD9F2",
"Z. c #B9D5F1",
"A. c #A2C7EC",
"S. c #C4C4C4",
"D. c #CCCCCC",
"F. c #C4C7CB",
"G. c #D3D3D3",
"H. c #DCDCDC",
"J. c #C7DDF4",
"K. c #DDE6EF",
"L. c #CEE2F5",
"P. c #D4E5F6",
"I. c #DFECF8",
"U. c #DBE8F5",
"Y. c #E4E4E4",
"T. c #ECECEC",
"R. c #E2EEF9",
"E. c #EBF1F8",
"W. c #F4F4F4",
"Q. c #F4F8FD",
"!. c #FFFFFF",
"~. c None",
/* pixels */
"~.~.~.~.~.~.~.~.~.~.~.~.~.~.~.~.~.~.~.~.~.~.~.~.~.~.~.~.~.~.~.~.~.~.~.~.~.~.~.~.~.~.~.~.~.~.~.~.~.~.~.~.~.~.~.~.~.~.~.~.~.~.~.~.",
"~.~.~.~.~.~.~.~.~.~.~.~.~.~.~.~.~.~.~.~.~.~.~.~.~.~.~.~.~.~.~.~.~.~.~.~.~.~.~.~.~.~.~.~.~.~.~.~.~.~.~.~.~.~.~.~.~.~.~.~.~.~.~.~.",
"~.~.~.~.~.~.~.~.~.~.~.~.~.~.~.~.~.~.~.~.~.~.~.~.~.~.~.~.~.~.~.~.~.~.~.~.          X $ $ $ $ $ X     ~.~.~.~.~.~.~.~.~.~.~.~.~.~.",
"~.~.~.~.~.~.~.~.~.~.~.~.~.~.~.~.~.~.~.~.~.~.~.~.~.~.~.~.~.~.~.~.      = 0 8 N D -.1.2.2.2.2.2.1.&.V w X   ~.~.~.~.~.~.~.~.~.~.~.",
"~.~.~.~.~.~.~.~.~.~.~.~.~.~.~.~.~.~.~.~.~.~.~.~.~.~.~.~.~.    X t T S.Y.U.0.8.8.8.8.8.8.8.8.8.8.8.9.W.v.H   ~.~.~.~.~.~.~.~.~.~.",
"~.~.~.~.~.~.~.~.~.~.~.~.~.~.~.~.~.~.~.~.~.~.~.~.~.~.~.  X K l.T.!.!.!.!.!.m.8.8.8.8.2.<.=.*.&.&.&.=.n.W.!.D.Y   ~.~.~.~.~.~.~.~.",
"~.~.~.~.~.~.~.~.~.~.~.~.~.~.~.  ~.~.~.~.~.~.~.~.~.    H S.W.!.!.!.!.!.!.!.K.4.Z m 6 & * = = = = . + > t Y l.G.Y ~.~.~.~.~.~.~.~.",
"~.~.~.~.~.~.~.~.~.~.~.~.~.~.X p X ~.~.~.~.~.~.~.  . h.!.!.!.!.!.!.!.!.W.l.r X = u H J P P P P P P P L J h - = K   ~.~.~.~.~.~.~.",
"~.~.~.~.~.~.~.~.~.~.~.~.~.~.; S.= ~.~.~.~.~.~.  w S.!.!.!.!.!.!.!.!.x.t . a L P P P P P P P P P P P P L P P z <     ~.~.~.~.~.~.",
"~.~.~.~.~.~.~.~.~.~.~.~.~.~.; Y.: ~.~.~.~.~.  O v.!.!.!.!.!.!.!.!.h.o ; h P P P P P P I U R W W E R U L P I I z :   ~.~.~.~.~.~.",
"~.~.~.~.~.~.~.~.~.~.~.~.~.~.t !.p ~.~.~.~.~.X x.!.!.!.!.!.!.!.!.f.. y j L P P P I W ^ ( { { { { { { { ^ U P P L a @   ~.~.~.~.~.",
"~.~.~.~.~.~.~.~.~.~.~.~.~.~.t !.Y   ~.~.~.  Q Q.!.!.!.!.!.!.!.G.= < h j P P P R { { { { { { { { { { { { { E P P j r X ~.~.~.~.~.",
"~.~.~.~.~.~.~.~.~.~.~.~.~.~.t !.~   ~.~.~.2 G.W.!.!.!.!.!.!.!.T o y h j I P R { { { { { { { { { { { { { { { R I J i =   ~.~.~.~.",
"~.~.~.~.~.~.~.~.~.~.~.~.~.~.t !._   ~.~.  ) D.Q.!.!.!.!.!.!.!.= = a h j P P ^ { { { { / W U L L j d u i y h a J J a ;   ~.~.~.~.",
"~.~.~.~.~.~.~.~.~.~.~.~.~.~.t !.f.  ~.~.  c.D.W.!.!.!.!.!.!.!.  - y h h L h h r ; - 1 1 1 5 f g k k c l k g O   h i <   ~.~.~.~.",
"~.~.~.~.~.~.~.~.~.~.~.~.~.~.t !.g.  ~.~.e D.~ : g.!.!.!.!.!.!.X - y h h w , x | +.$.$.$.$.$.$.$.$.$.$.$.$.$.c   i r -   ~.~.~.~.",
"~.~.~.~.~.~.~.~.~.~.~.~.~.~.t !.h.  ~.  Y l.; h.t _ !.!.!.!.!.: - e a # l o.$.$.$.$.$.$.$.$.$.$.$.$.$.$.$.$.]   2 : X   ~.~.~.~.",
"~.~.~.~.~.~.~.~.~.~.~.~.~.~.w G._   ~.  f.~ ) D.x.: H.!.!.!.!.s + < = g #.$.$.$.$.$.@.$.$.$.$.$.$.$.$.$.$.$.|   ; @ )   ~.~.~.~.",
"~.~.~.~.~.~.~.~.~.~.~.      = : t t t . j.s G.G.D.f.) !.!.!.!.) . = X v $.$.$.$.$.#.4 ' $.$.$.$.$.$.$.` ' $.X.. + l.!.    ~.~.~.",
"~.~.~.~.~.~.~.~.~.  = H j.D.Y.W.!.!.!.F z.t !.!.G.x.2 W.!.!.!.c.  H K c $.$.$.$.$.o.@ 5 $.$.$.$.$.$.$.k 5 $.o.1 g.!.!.    ~.~.~.",
"~.~.~.~.~.~.~.~.~.= x.!.!.!.!.!.!.!.!.H z.e !.!.T.S.; G.!.!.!.T.K G.Q c $.$.$.$.$.o.@ O $.$.$.$.$.$.$.k . $.#.g f.!.W.    ~.~.~.",
"~.~.~.~.~.~.~.~.  f.D.S.j.H ; O   X ; o z.: !.!.W.D.p v.!.!.!.!.!.!.) c $.$.$.$.$.@.#   O.$.$.$.$.$.$.l   @.$.v Q !.H.  ~.~.~.~.",
"~.~.~.~.~.~.~.~.  j.~ = K j.n.S.c.z.j.Y g.p S.!.T.D.p x.!.!.!.!.!.!.h.k $.$.$.$.$.@.,   ..$.$.$.$.$.$.c   #.$.' H !.S.  ~.~.~.~.",
"~.~.~.~.~.~.~.~.  p ; j.!.!.!.!.!.H.l.~ T Y ) !.H.D.t S.!.!.!.!.!.!.l.g $.$.$.$.$.$.3   @.$.$.$.$.$.$.n , $.$.} p T.h.  ~.~.~.~.",
"~.~.~.~.~.~.~.~.~.X z.!.G.h.T e X   ; w e j.; D.D.x.= W.!.!.!.!.!.!.x.5 $.$.$.$.$.$.4 # $.$.$.$.$.$.$.X.| $.$.} p W.Y   ~.~.~.~.",
"~.~.~.~.~.~.~.~.  H x.! = : K ) g.l.c.G.Q z.p Q n.W ! !.!.!.!.!.!.!.S.1 $.$.$.$.$.$.] ' $.$.$.#.@.O.+.@.$.$.$.' K T.w   ~.~.~.~.",
"~.~.~.~.~.~.~.~.  K .   g.S.D.D.Y.W.!.!.H.T z.o = s T.!.!.!.!.!.!.!.H.3 @.$.$.$.$.$.$.X.} l , , # @ @ , 1 k  .k ~ S.  ~.~.~.~.~.",
"~.~.~.~.~.~.~.    p ! = x.G.Y.!.!.!.!.!.!.K z.x.z.H.!.!.!.!.!.!.!.!.Y.; n  .$.$.$.$.` w t : ~ ) _ f.g.g.f.Y     l.!   ~.~.~.~.~.",
"~.~.~.~.~.~.  p f.S.D.p j.W.!.!.!.!.!.!.!.x.H D.D.D.Y.!.!.!.!.!.!.!.W.s   . 4 x ] ] y g.K ! h.j.j.j.j.j.j.f.= T H.t   ~.~.~.~.~.",
"~.~.~.~.~.~.H D.D.Y.W.Y z.!.!.!.!.!.!.!.!.!.H h.D.D.D.T.!.!.!.!.!.!.!.W.B.H o       T j.= f.j.j.j.j.j.j.j.g.s !.f.  ~.~.~.~.~.~.",
"~.~.~.~.~.  l.D.Y.!.!.Y z.!.!.!.!.!.!.!.!.!.G.: z.D.D.D.Y.!.!.!.!.!.!.!.!.!.!.G.x.H Y h.o g.j.j.j.j.h.j.j._ t H.=   ~.~.~.~.~.~.",
"~.~.~.~.~.~._ G.!.!.!.K x.!.W.T.T.H.H.Y.T.!.!.j.p S.D.D.D.G.T.!.!.!.!.!.!.!.!.!.!.f.K ! = ! j.j.h.j.j.j.h.K s ~   ~.~.~.~.~.~.~.",
"~.~.~.~.~.~.Y D.Q.!.x.= p p w ; = o o ; t ~ H.!.! s S.D.D.D.D.G.Y.!.!.!.!.!.!.!.!.v.p ~ r s ) _ _ _ { _ ! w p . ~.~.~.~.~.~.~.~.",
"~.~.~.~.~.~.= h.g.s e ~ _ f.j.x.c.w Y D.D.G.!.!.W.K H S.D.D.D.D.D.D.H.T.!.!.!.!.!.M.7 K Y . T ~ ~ Q ~ ~ K       ~.~.~.~.~.~.~.~.",
"~.~.~.~.~.~.~.  . _ T.!.!.!.!.!.Y.= ) D.D.H.!.!.!.W.s H S.D.D.D.D.D.D.D.D.G.Y.T.W.t.:.& s o : s s p p >       ~.~.~.~.~.~.~.~.~.",
"~.~.~.~.~.~.~.~.= D.W.!.!.!.!.!.c.  g.D.D.Y.!.!.!.!.W.H t x.D.D.D.D.D.D.D.D.D.D.k.:.-.&.Z M 7 6 7 m N m X   ~.~.~.~.~.~.~.~.~.~.",
"~.~.~.~.~.~.~.~.  D.T.!.!.!.!.!._   c.D.D.T.!.!.!.!.!.K.M > ) D.D.D.D.D.D.D.D.D.5.=.=.=.=.=.=.=.=.&.9     ~.~.~.~.~.~.~.~.~.~.~.",
"~.~.~.~.~.~.~.~.  v.T.!.!.!.!.!.H t D.D.D.!.!.!.!.!.!.C.8.-.7 = ) v.D.D.D.D.D.n.=.=.=.=.=.=.=.*.N X   ~.~.~.~.~.~.~.~.~.~.~.~.~.",
"~.~.~.~.~.~.~.~.  z.Y.!.!.!.!.H.; Q D.D.G.!.!.!.!.!.!.m.8.8.7.%.7 & H f.x.S.B.4.=.=.=.*.S B 8 $   ~.~.~.~.~.~.~.~.~.~.~.~.~.~.~.",
"~.~.~.~.~.~.~.~.  l.H.!.!.!.!.z.X l.D.D.H.!.!.!.!.!.R.w.8.w.d.N.m.4.Z 8 + a C 9 m 9 8 6 X     ~.~.~.~.~.~.~.~.~.~.~.~.~.~.~.~.~.",
"~.~.~.~.~.~.~.~.  h.G.W.!.!.!.! ; S.D.D.T.!.!.!.!.!.p.8.r.I.!.!.!.Q.w.8.q.D.x.l.g.g.f.t   ~.~.~.~.~.~.~.~.~.~.~.~.~.~.~.~.~.~.~.",
"~.~.~.~.~.~.~.~.  ) D.T.!.!.!.p H D.D.D.Q.!.!.!.!.R.0.9.J.!.Q.U.Q.!.N.8.8.I.!.!.!.!.!.:       ~.~.~.~.~.~.~.~.~.~.~.~.~.~.~.~.~.",
"~.~.~.~.~.~.~.~.  K D.H.!.!.H.X ) D.D.G.!.!.!.!.!.Z.8.t.!.E.i.9.m.!.L.8.8.U.!.!.!.!.x.o _ h.T   ~.~.~.~.~.~.~.~.~.~.~.~.~.~.~.~.",
"~.~.~.~.~.~.~.~.~.w D.G.!.!._   l.D.D.H.!.!.!.!.!.M.8.a.!.V.8.8.u.!.P.8.8.U.!.!.!.f.t H.!.!.!.v.o ~.~.~.~.~.~.~.~.~.~.~.~.~.~.~.",
"~.~.~.~.~.~.~.~.~.@ v.D.T.G.< C S.D.D.Y.!.!.!.!.!.m.8.a.!.Z.9.8.A.!.N.8.0.Q.!.W.T ~ T.!.!.!.!.!.T   ~.~.~.~.~.~.~.~.~.~.~.~.~.~.",
"~.~.~.~.~.~.~.~.~.  j.D.G._   g.D.D.D.W.!.!.!.!.!.M.8.t.!.!.J.P.!.!.r.8.y.!.Y.K S.!.!.!.!.!.!.!._   ~.~.~.~.~.~.~.~.~.~.~.~.~.~.",
"~.~.~.~.~.~.~.~.~.  ~ D.c.= e D.D.D.G.!.!.!.!.!.!.V.8.8.P.!.!.!.Q.m.8.0.J.Y.l.!.!.H.H.!.!.!.!.!.p   ~.~.~.~.~.~.~.~.~.~.~.~.~.~.",
"~.~.~.~.~.~.~.~.~.~.w x.K . f.D.D.D.D.!.!.!.!.!.!.u.8.8.e.Z.I.U.d.0.8.u.!.!.Q.!.W.) H.!.!.!.!.Y.=   ~.~.~.~.~.~.~.~.~.~.~.~.~.~.",
"~.~.~.~.~.~.~.        :   Y D.D.D.D.D.Y.!.!.!.!.Q.9.8.8.8.8.0.9.8.8.t.E.!.!.!.!.f.Y D.!.!.!.!.z.  ~.~.~.~.~.~.~.~.~.~.~.~.~.~.~.",
"~.~.~.~.~.~.~.s ) H X   H S.D.D.D.D.D.D.Y.!.!.!.J.8.8.8.8.8.8.8.8.9.E.Q.T.H.G.D.t h.Y.!.!.!.!.t   ~.~.~.~.~.~.~.~.~.~.~.~.~.~.~.",
"~.~.~.~.~.~.~.T D.S.g._ S.D.D.D.D.D.D.D.D.Y.W.W.m.7.3.3.3.2.1.1.<.6.G.D.D.D.S.z.e v.W.!.!.!.S.  ~.~.~.~.~.~.~.~.~.~.~.~.~.~.~.~.",
"~.~.~.~.~.~.~.; l.D.D.D.D.D.D.D.D.D.D.D.D.D.D.D.5.=.=.=.=.=.=.=.>.k.D.F.g.H w X H D.!.!.!.!.Y   ~.~.~.~.~.~.~.~.~.~.~.~.~.~.~.~.",
"~.~.~.~.~.~.~.~.t c.D.D.D.D.D.D.D.D.D.D.D.D.D.F.>.=.=.=.=.=.=.S G ~ H >   ~.~.~.Y G.!.!.!.D.  ~.~.~.~.~.~.~.~.~.~.~.~.~.~.~.~.~.",
"~.~.~.~.~.~.~.~.~.: j.S.D.D.D.D.D.D.S.j.T K K F 9 8 9 8 9 %           ~.~.~.~.~.~ G.!.!.!.H   ~.~.~.~.~.~.~.~.~.~.~.~.~.~.~.~.~.",
"~.~.~.~.~.~.~.~.~.~.X e ) z.D.D.z.T w                   ~.~.~.~.~.~.~.~.~.~.~.  ~ D.H.W.x.  ~.~.~.~.~.~.~.~.~.~.~.~.~.~.~.~.~.~.",
"~.~.~.~.~.~.~.~.~.~.~.~.~.        ~.~.~.~.~.~.~.~.~.~.~.~.~.~.~.~.~.~.~.~.~.~.~.s j.D.x.o   ~.~.~.~.~.~.~.~.~.~.~.~.~.~.~.~.~.~.",
"~.~.~.~.~.~.~.~.~.~.~.~.~.~.~.~.~.~.~.~.~.~.~.~.~.~.~.~.~.~.~.~.~.~.~.~.~.~.~.~.    o e   ~.~.~.~.~.~.~.~.~.~.~.~.~.~.~.~.~.~.~.",
"~.~.~.~.~.~.~.~.~.~.~.~.~.~.~.~.~.~.~.~.~.~.~.~.~.~.~.~.~.~.~.~.~.~.~.~.~.~.~.~.~.~.~.~.~.~.~.~.~.~.~.~.~.~.~.~.~.~.~.~.~.~.~.~.",
"~.~.~.~.~.~.~.~.~.~.~.~.~.~.~.~.~.~.~.~.~.~.~.~.~.~.~.~.~.~.~.~.~.~.~.~.~.~.~.~.~.~.~.~.~.~.~.~.~.~.~.~.~.~.~.~.~.~.~.~.~.~.~.~.",
"~.~.~.~.~.~.~.~.~.~.~.~.~.~.~.~.~.~.~.~.~.~.~.~.~.~.~.~.~.~.~.~.~.~.~.~.~.~.~.~.~.~.~.~.~.~.~.~.~.~.~.~.~.~.~.~.~.~.~.~.~.~.~.~.",
"~.~.~.~.~.~.~.~.~.~.~.~.~.~.~.~.~.~.~.~.~.~.~.~.~.~.~.~.~.~.~.~.~.~.~.~.~.~.~.~.~.~.~.~.~.~.~.~.~.~.~.~.~.~.~.~.~.~.~.~.~.~.~.~.",
"~.~.~.~.~.~.~.~.~.~.~.~.~.~.~.~.~.~.~.~.~.~.~.~.~.~.~.~.~.~.~.~.~.~.~.~.~.~.~.~.~.~.~.~.~.~.~.~.~.~.~.~.~.~.~.~.~.~.~.~.~.~.~.~.",
"~.~.~.~.~.~.~.~.~.~.~.~.~.~.~.~.~.~.~.~.~.~.~.~.~.~.~.~.~.~.~.~.~.~.~.~.~.~.~.~.~.~.~.~.~.~.~.~.~.~.~.~.~.~.~.~.~.~.~.~.~.~.~.~.",
"~.~.~.~.~.~.~.~.~.~.~.~.~.~.~.~.~.~.~.~.~.~.~.~.~.~.~.~.~.~.~.~.~.~.~.~.~.~.~.~.~.~.~.~.~.~.~.~.~.~.~.~.~.~.~.~.~.~.~.~.~.~.~.~."
};
