/* XPM */
static char *result[] = {
/* columns rows colors chars-per-pixel */
"64 64 180 2 ",
"   c #010101",
".  c #0C0A06",
"X  c #010509",
"o  c #0C0B0B",
"O  c #080707",
"+  c #110E0B",
"@  c #120E07",
"#  c #14110A",
"$  c #1B160B",
"%  c #000911",
"&  c #000F1D",
"*  c #0D1014",
"=  c #04111E",
"-  c #0A131B",
";  c #141313",
":  c #191615",
">  c #1B1816",
",  c #1C1B1B",
"<  c #241D0E",
"1  c #221E1C",
"2  c #231D12",
"3  c #2C2311",
"4  c #26221F",
"5  c #392E17",
"6  c #332915",
"7  c #3E3219",
"8  c #011223",
"9  c #00152A",
"0  c #001933",
"q  c #001D3A",
"w  c #15202D",
"e  c #132639",
"r  c #242423",
"t  c #2B2623",
"y  c #2D2D2C",
"u  c #2E2926",
"i  c #332E2C",
"p  c #39322F",
"a  c #202831",
"s  c #353535",
"d  c #3D3632",
"f  c #3F3834",
"g  c #3C3C3C",
"h  c #29333E",
"j  c #403319",
"k  c #4C3D1E",
"l  c #46381C",
"z  c #423A36",
"x  c #453D39",
"c  c #554422",
"v  c #5D4B25",
"b  c #4B423E",
"n  c #6A552A",
"m  c #645028",
"M  c #796130",
"N  c #002243",
"B  c #00254A",
"V  c #012D5A",
"C  c #0E355C",
"Z  c #003569",
"A  c #003A74",
"S  c #003E7B",
"D  c #374B5E",
"F  c #434343",
"G  c #4E4641",
"H  c #4C4C4C",
"J  c #534A46",
"K  c #564D48",
"L  c #584E49",
"P  c #5C524D",
"I  c #545454",
"U  c #5B5B5B",
"Y  c #655A54",
"T  c #665B55",
"R  c #6F615C",
"E  c #72645E",
"W  c #435C76",
"Q  c #646464",
"!  c #6B6B6B",
"~  c #7E6F68",
"^  c #7A6B65",
"/  c #7F7069",
"(  c #737373",
")  c #7C7C7C",
"_  c #787877",
"`  c #8D7138",
"'  c #94763B",
"]  c #866B35",
"[  c #9F7F40",
"{  c #84746D",
"}  c #A88643",
"|  c #B28E47",
" . c #BA944A",
".. c #CCA352",
"X. c #DAAE57",
"o. c #D4A955",
"O. c #E3B55B",
"+. c #EBBC5E",
"@. c #E6B85C",
"#. c #F4C362",
"$. c #FFCC66",
"%. c #F8C663",
"&. c #004080",
"*. c #00458A",
"=. c #004A94",
"-. c #084F96",
";. c #105498",
":. c #23609E",
">. c #0052A3",
",. c #0057AD",
"<. c #005AB4",
"1. c #005DBA",
"2. c #1964AF",
"3. c #0060BF",
"4. c #1B69B8",
"5. c #517EAA",
"6. c #4576A6",
"7. c #0061C3",
"8. c #0066CC",
"9. c #0368CD",
"0. c #0A6CCE",
"q. c #1171CF",
"w. c #1573D0",
"e. c #1874D1",
"r. c #257CD3",
"t. c #7B98B6",
"y. c #2D81D5",
"u. c #3485D7",
"i. c #3A89D8",
"p. c #5599DD",
"a. c #4C94DB",
"s. c #6FA4DA",
"d. c #65A3E1",
"f. c #6EA8E2",
"g. c #73ABE3",
"h. c #78AEE4",
"j. c #7EB1E5",
"k. c #828282",
"l. c #8B8B8B",
"z. c #939393",
"x. c #9A9A9A",
"c. c #989897",
"v. c #A2A2A2",
"b. c #ABABAB",
"n. c #B4B4B4",
"m. c #BCBCBC",
"M. c #B1B7BC",
"N. c #B4BCC4",
"B. c #A6B6C5",
"V. c #83B5E7",
"C. c #8FBCE9",
"Z. c #89B8E7",
"A. c #BFC4C8",
"S. c #A5C1DC",
"D. c #B7CBDF",
"F. c #9BC3EB",
"G. c #AACCEE",
"H. c #B1D0EF",
"J. c #B6D3F0",
"K. c #C3C3C3",
"L. c #CCCCCC",
"P. c #CFD0D0",
"I. c LightGray",
"U. c #DCDCDC",
"Y. c #C3CCD4",
"T. c #C9DFF4",
"R. c #C5DCF3",
"E. c #C8D6E4",
"W. c #CCE0F5",
"Q. c #DDEBF9",
"!. c #D1E3F6",
"~. c #E3E3E3",
"^. c #EBEBEB",
"/. c #ECEFF1",
"(. c #ECF4FC",
"). c #F4F4F4",
"_. c #F2F7FC",
"`. c #F6FAFD",
"'. c #FFFFFF",
"]. c None",
/* pixels */
"].].].].].].].].].].].].].].].].].].].].].].].].].].].].].].].].].].].].].].].].].].].].].].].].].].].].].].].].].].].].].].].].",
"].].].].].].].].].].].].].].].].].].].].].].].].].].].].].].].].].].].].].].].].].].].].].].].].].].].].].].].].].].].].].].].].",
"].].].].].].].].].].].].].].].].].].].].].].].].].].].].].].].].].].].].].].].].].].].].].].].].].].].].].].].].].].].].].].].].",
"].].].].].].].].].].].].].].].].].].].].].].].].].].].].].].].].].].].].].].].].].].].].].].].].].].].].].].].].].].].].].].].].",
"].].].].].].].].].].].].].].].].].].].                ].].].].].].].].].].].].].].].].].].].].].].].].].].].].].].].].].].].].].",
"].].].].].].].].].].].].].].].    X & 8 9 0 0 0 9 & %               ].].].].].].].].].].].].].].].].].].].].].].].].].].].].].].",
"].].].].].].].].].].].].].  * N &.,.1.1.1.7.7.7.7.1.<.2.M.v.) I r o       ].].].].].].].].].].].].].].].].].].].].].].].].].].].",
"].].].].].].].].].].].  o ( S.8.8.8.8.8.8.8.8.8.8.8.8.C.'.'.'.'.`.~.n.U O     ].].].].].].].].].].].].].].].].].].].].].].].].].",
"].].].].].].].].].].O ! ~.'.C.1.>.=.*.S A A A *.>.3.w._.'.'.'.'.'.'.'.'.^.z.,   ].].].].].].].].].].].].].].].].].].].].].].].].",
"].].].].].].].].].> v.^.n.( a - * * : > , , : ; * 8 e l.I.'.'.'.'.'.'.'.'.'.U.U O   ].].].].].].].].].].].].].].].].].].].].].].",
"].].].].].].].].  ! k., : i b G J K K K K K K K J b d 1 + H L.'.'.'.'.'.'.'.'.'.x.    ].].].].].].].].].    ].].].].].].].].].].",
"].].].].].].].].  ; , b K K K K K K K L K K K K K K K K d : . ) `.'.'.'.'.'.'.'.'.v.O ].].].].].].].].].F I ].].].].].].].].].].",
"].].].].].].].    t K K K K K P P T T T Y P P K K K K K J z u o Q '.'.'.'.'.'.'.'.'.)   ].].].].].].].  x.k.].].].].].].].].].].",
"].].].].].].].  r b K K K P ^ / { { { { { { / / R P K K K b z i   v.'.'.'.'.'.'.'.'.U.y   ].].].].].].  I.! ].].].].].].].].].].",
"].].].].].].  o p G K K T { { { { { { { { { { { { / Y J K G z d : t ~.'.'.'.'.'.'.'.U.b.o ].].].].].].o '.H ].].].].].].].].].].",
"].].].].].].  > x K P T { { { { { { { { { { { { { { / K K G z z 4   x.'.'.'.'.'.'.'.U.L.F   ].].].].  F '.g ].].].].].].].].].].",
"].].].].].].. t b K J E R T P L L G G b z z x G J P Y L b b z z 4 o k.'.'.'.'.'.).z.U n.z.  ].].].].  k.).r ].].].].].].].].].].",
"].].].].].].o u x z 1 +   . < 6 j j c c v n n n n m 5 . > z z f 4 o ) '.'.'.'.'._ r g F n., ].].].].  m.U.> ].].].].].].].].].].",
"].].].].].  O 1 z 1   } +.$.$.$.$.$.$.$.$.$.$.$.$.$.$.#.] . i d 4 O z.'.'.'.'.K.> m.K.r b.I ].].].].; ~.m.o ].].].].].].].].].].",
"].].].].].    > u ,   O.$.$.$.$.$.$.$.$.$.$.$.$.$.$.$.$.$. .# 2 1 O c.'.'.'.'.Q ) L.I.) ( (   ].].].t `.v.  ].].].].].].].].].].",
"].].].].].    O 4 :   $.$.$.$.$.$.$.$.$.$.$...X.$.$.$.$.$.$.j   >   b.'.'.'.'.4 K.I.`.L.I l.  ].].].H '.l.  ].].].].].].].].].].",
"].].].].].  , l.o ; @ $.$.} @.$.$.$.$.$.$.$.k c $.$.$.$.$.$.k E t   L.'.'.'.U.i L./.'.~.F c.O o O   > U g   ].].].].].].].].].].",
"].].].].].  r ^.b.r < $.$.5 M $.$.$.$.$.$.#.< < $.$.$.$.$.$.b t.I.( ).'.'.'.m.D L.).'.~.F c.H ~.I.n.c.! g ;   ].].].].].].].].].",
"].].].].].  > ~.'._ 3 $.+.$ v $.$.$.$.$.$.+.# @ $.$.$.$.$.$.F } '.'.'.'.'.'.m.x L./.'.U.g z.) '.'.'.'.'.'.K.( :   ].].].].].].].",
"].].].].].].; L.'.! 7 $.O.. c $.$.$.$.$.$.O.O   $.$.$.$.$.$.n _ '.'.'.'.'.'.~.r L.U.'.z.I ) g Q ! k.l.n.~.'.'.).k.O ].].].].].].",
"].].].].].].  b.'.U k $.O.. c $.$.$.$.$.$.+.#   $.$.$.$.$.$.n ! '.'.'.'.'.'.'., n.L.~.g _ Q ( ( ( U H s s I n.U.L.y ].].].].].].",
"].].].].].].  ) '.I c $.#.< c $.$.$.$.$.$.%.$   $.$.$.$.$.$.n ! '.'.'.'.'.'.'.Q H L.b.o v.s Q ( ) m.~.'.~.) o g m.D ].].].].].].",
"].].].].].].  F '.I c $.$.} } $.$.$.$.$.$.$.v o $.$.$.$.$.$.c ! '.'.'.'.'.'.'.^.s H y U z.y I F g y + o I b.~.F y > ].].].].].].",
"].].].].].].  o '.! 7 $.$.$.$.$.$.$.$.$.$.$...} $.$.$.$.$.$.c ! '.'.'.'.'.'.'.'.~.( ( K.I b.U.I.L.m.b.) r O F l.;   ].].].].].].",
"].].].].].].].  m.c.@ $.#...` c k 7 3 3 6 c [ @.$.$.$.$.$.#.7 ( '.'.'.'.'.'.'.'.U.L.L.n.I '.'.'.).U.P.L.! s H o     ].].].].].].",
"].].].].].].].  I m.  k 2 s I ( ( ( ( ( H * F r | $.X.' l   O z.'.'.'.'.'.'.'.^.L.L.L.F n.'.'.'.'.'.`.~.I U L.m.k.s   ].].].].].",
"].].].].].].].  o m.F   y c.c.x.c.c.c.c.x.r { l.@ $     o H I.'.'.'.'.'.'.'.^.L.L.L.z.g ).'.'.'.'.'.'.'.! ! `.U.L.L.G ].].].].].",
"].].].].].].].].  H /.l.s x.x.c.c.v.c.c.c.H U c.: r U c.U.'.'.'.'.'.'.'.'.~.L.L.L.K., U.'.'.'.'.'.'.'.'.! ! '.'.^.L.k.  ].].].].",
"].].].].].].].].  O v.b.y c.x.c.c.c.c.c.x.Q H ) , n.'.'.'.'.'.'.'.'.'.).U.L.L.L.K.F ( '.'.'.'.'.'.'.'.'.) H '.'.`.L.( ].].].].].",
"].].].].].].].].].  : x., 5.c.c.c.c.c.c.c.H s ! r L.'.'.'.'.'.'.'.).U.L.L.L.L.L.) y ).^.L.v.z.z.k.) k.l.Q > L.'.`.L.U ].].].].].",
"].].].].].].].].].].  J p m ( l.l.| 5.) ! , F Q - E.'.'.'.'.'./.U.L.L.L.L.L.L.z.; I.~.k.! I o y Q Q I U U H o x ( _ : ].].].].].",
"].].].].].].].].].].].  * : Q Q ! Q Q Q I o U y Z j.'.'.).~.I.L.L.L.L.L.L.L.z.: v.'.).L.L.L.> Q '.'.'.'.'.'.`.x.H   ].].].].].].",
"].].].].].].].].].].].].    ; s g g s h ; O * q 1.4.Y.L.L.L.L.L.L.L.L.L.L.( o b.'.'.'.L.L.L.r P '.'.'.'.'.'.'.I.)   ].].].].].].",
"].].].].].].].].].].].].].    w 0 9 9 8 q V S =.=.=.5.L.L.L.L.L.L.L.L.b.H r n.'.'.'.'.I.L.L.D u '.'.'.'.'.'.'.L.I ].].].].].].].",
"].].].].].].].].].].].].].].  X B *.=.=.=.=.=.=.=.=.-.N.L.L.L.L.L.A.) > h I.'.'.'.'.'.U.L.L.! > ~.'.'.'.'.'.`.L.g ].].].].].].].",
"].].].].].].].].].].].].].].].    X N &.=.=.=.=.=.=.=.:.A.L.L.n.R % 8 *.u.'.'.'.'.'.'.~.L.L.v.o n.'.'.'.'.'.^.n.> ].].].].].].].",
"].].].].].].].].].].].].].].].].].    X & q V A S S S Z W Q s s Q N.s.9.9.F.'.'.'.'.'.).L.L.n.; l.'.'.'.'.'.~.z.O ].].].].].].].",
"].].].].].].].].].].].].].].].].].        , O         % q C b.^.'.'.`.p.8.y.`.'.'.'.'.).L.L.L., ! '.'.'.'.'.P.!   ].].].].].].].",
"].].].].].].].].].].].].].].].].: l.I.N.r _ `.^.^.^./.8.8.g.'.(.F.W.'.`.0.9.T.'.'.'.'.'.I.L.L.F F '.'.'.'.).L.F ].].].].].].].].",
"].].].].].].].].].].].].].].].r ~.'.'.'.U.H k.).'.'.(.8.8.H.'.V.8.w.R.'.a.8.F.'.'.'.'.'.I.L.L.! : `.'.'.'.~.L.> ].].].].].].].].",
"].].].].].].].].].].].].].].  z.'.'.'.'.'.).! ! '.'.`.8.8.H.'.h.8.8.V.'.j.8.V.'.'.'.'.'.U.L.L.l.  L.'.'.`.P.n.  ].].].].].].].].",
"].].].].].].].].].].].].].].  Q '.'.'.'.'.'.'.n.! ^.'.r.8.d.'.W.e.w.R.'.f.8.h.'.'.'.'.'.^.L.L.b.o ! '.'.~.L.)   ].].].].].].].].",
"].].].].].].].].].].].].].].  s '.'.'.'.'.P.^.'.L.c.).g.8.w._.'.Q.W.'.'.i.8.C.'.'.'.'.'.^.L.L.K.g 4 ~.'.I.L.g ].].].].].].].].].",
"].].].].].].].].].].].].].].  : ^.'.'.'.).L.l.'.'.).`./.q.8.d.`.'.'.'.J.8.8.R.'.'.'.'.'.).L.L.L.t.  v.~.L.n.o ].].].].].].].].].",
"].].].].].].].].].].].].].].].  n.'.'.'.).L.g L.'.'.'.'.Z.9.8.u.F.G.g.0.8.8.J.'.'.'.'.'.).L.L.L.n.@ d L.L.)   ].].].].].].].].].",
"].].].].].].].].].].].].].].].  ( '.'.'.`.L.H ( I.^.).'._.p.8.8.8.8.8.8.8.8.V.'.'.'.'.'.^.L.L.L.L.Q . c.K.s   ].].].].].].].].].",
"].].].].].].].].].].].].].].].  ; ).'.'.'.~.( H L.L.L.I.U.D.7.8.8.8.8.8.8.8.i.'.'.'.'.^.P.L.L.L.L.m.t : I O       ].].].].].].].",
"].].].].].].].].].].].].].].].].  b.'.'.'.^.z.  s Q v.L.L.L.;.=.>.>.,.1.7.8.8.`.'.).~.L.L.L.L.L.L.L.c.O   O y y O ].].].].].].].",
"].].].].].].].].].].].].].].].].  F '.'.'.^.c.  ].    F z.m.6.=.=.=.=.=.=.=.=.B.I.L.L.L.L.L.L.L.L.L.L.v.H x.L.n.> ].].].].].].].",
"].].].].].].].].].].].].].].].].].  K.'.'.^.c.  ].].].].  ; w N Z =.=.=.=.=.=.t.P.L.L.L.L.L.L.L.L.L.L.L.L.L.L.(   ].].].].].].].",
"].].].].].].].].].].].].].].].].].  s ~.~.L.l.  ].].].].].].      X 8 0 N B B D k.z.v.L.L.L.L.L.L.L.L.L.L.L.x.; ].].].].].].].].",
"].].].].].].].].].].].].].].].].].].  l.K.n.U   ].].].].].].].].].].].                r l.m.L.L.L.L.L.L.m._ O ].].].].].].].].].",
"].].].].].].].].].].].].].].].].].].  o : O   ].].].].].].].].].].].].].].].].].].].].    : U x.n.b.l.H ;   ].].].].].].].].].].",
"].].].].].].].].].].].].].].].].].].].].].].].].].].].].].].].].].].].].].].].].].].].].].].].        ].].].].].].].].].].].].].",
"].].].].].].].].].].].].].].].].].].].].].].].].].].].].].].].].].].].].].].].].].].].].].].].].].].].].].].].].].].].].].].].].",
"].].].].].].].].].].].].].].].].].].].].].].].].].].].].].].].].].].].].].].].].].].].].].].].].].].].].].].].].].].].].].].].].",
"].].].].].].].].].].].].].].].].].].].].].].].].].].].].].].].].].].].].].].].].].].].].].].].].].].].].].].].].].].].].].].].].",
"].].].].].].].].].].].].].].].].].].].].].].].].].].].].].].].].].].].].].].].].].].].].].].].].].].].].].].].].].].].].].].].].",
"].].].].].].].].].].].].].].].].].].].].].].].].].].].].].].].].].].].].].].].].].].].].].].].].].].].].].].].].].].].].].].].]."
};
