/* XPM */
static char *result[] = {
/* columns rows colors chars-per-pixel */
"64 64 171 2 ",
"   c #010101",
".  c #080706",
"X  c #0C0A05",
"o  c #00060B",
"O  c #0C0B0B",
"+  c #06090D",
"@  c #100E0D",
"#  c #100D06",
"$  c #15110A",
"%  c #1B160B",
"&  c #1F180C",
"*  c #000A14",
"=  c #000E1C",
"-  c #141313",
";  c #191514",
":  c #1E1915",
">  c #1C1C1B",
",  c #211B0D",
"<  c #211D1B",
"1  c #2B2211",
"2  c #25211E",
"3  c #382D17",
"4  c #332915",
"5  c #3E3219",
"6  c #001223",
"7  c #071626",
"8  c #011A32",
"9  c #00203F",
"0  c #242424",
"q  c #292422",
"w  c #2F2926",
"e  c #2B2B2B",
"r  c #302A27",
"t  c #342D2A",
"y  c #37302D",
"u  c #39322F",
"i  c #343434",
"p  c #3C3531",
"a  c #3C3C3C",
"s  c #33383D",
"d  c #47391C",
"f  c #423A36",
"g  c #453D39",
"h  c #544322",
"j  c #5E4B26",
"k  c #4A423E",
"l  c #614E27",
"z  c #6F592D",
"x  c #69542A",
"c  c #745D2F",
"v  c #7D6432",
"b  c #002142",
"n  c #00264C",
"m  c #002D5A",
"M  c #06335F",
"N  c #383F46",
"B  c #043566",
"V  c #003A74",
"C  c #003E7B",
"Z  c #3B5D7F",
"A  c #434343",
"S  c #4E4541",
"D  c #4D4D4D",
"F  c #534A46",
"G  c #564D48",
"H  c #584F4A",
"J  c #504743",
"K  c #5C524D",
"L  c #535353",
"P  c #5B5B5B",
"I  c #655953",
"U  c #695D57",
"Y  c #6A5E58",
"T  c #625651",
"R  c #6E615B",
"E  c #72645E",
"W  c #5F6061",
"Q  c #656565",
"!  c #6B6B6B",
"~  c #746660",
"^  c #776962",
"/  c #7A6C65",
"(  c #7E6F68",
")  c #737373",
"_  c #7C7C7C",
"`  c #686D73",
"'  c #8E7138",
"]  c #92753A",
"[  c #96793C",
"{  c #866C36",
"}  c #9F7F40",
"|  c #84746D",
" . c #A48342",
".. c #AD8A45",
"X. c #B18E47",
"o. c #BE994C",
"O. c #B9934A",
"+. c #CDA352",
"@. c #D5AA55",
"#. c #DAAE57",
"$. c #DDB159",
"%. c #E2B55B",
"&. c #EABB5E",
"*. c #EFC060",
"=. c #F2C261",
"-. c #F9C764",
";. c #FFCC66",
":. c #004284",
">. c #00468D",
",. c #0C4782",
"<. c #1F558C",
"1. c #004A94",
"2. c #004E9C",
"3. c #1E5B99",
"4. c #3E6A96",
"5. c #0052A5",
"6. c #0055AB",
"7. c #015AB4",
"8. c #005DBB",
"9. c #6E7B89",
"0. c #527EAA",
"q. c #0066CC",
"w. c #0B6DCE",
"e. c #0466C8",
"r. c #106FCF",
"t. c #1A75D1",
"y. c #247CD3",
"u. c #2A7FD4",
"i. c #6D8FB2",
"p. c #7694B2",
"a. c #2B80D5",
"s. c #3E8BD8",
"d. c #5697D9",
"f. c #649FDA",
"g. c #60A0DF",
"h. c #838383",
"j. c #8B8B8B",
"k. c #939393",
"l. c #999999",
"z. c #849EB8",
"x. c #9EAFBF",
"c. c #8BA2BA",
"v. c #A4A4A4",
"b. c #ABABAB",
"n. c #A8B3BF",
"m. c #B4B4B4",
"M. c #BBBBBB",
"N. c #A2ABB5",
"B. c #96B3D1",
"V. c #A8BDD1",
"C. c #91BDE9",
"Z. c #B4C5D7",
"A. c #ADCEEF",
"S. c #BDD7F2",
"D. c gray77",
"F. c #C6C8CA",
"G. c #CCCCCC",
"H. c #D4D4D4",
"J. c #DADADA",
"K. c #C6DDF3",
"L. c #CCE0F5",
"P. c #D9E8F7",
"I. c #E4E4E4",
"U. c #ECECEC",
"Y. c #E5EEF7",
"T. c #F3F3F3",
"R. c #F7FAFD",
"E. c #FFFFFF",
"W. c #F4F7FB",
"Q. c #ECF4FB",
"!. c None",
/* pixels */
"!.!.!.!.!.!.!.!.!.!.!.!.!.!.!.!.!.!.!.!.!.!.!.!.!.!.!.!.!.!.!.!.!.!.!.!.!.!.!.!.!.!.!.!.!.!.!.!.!.!.!.!.!.!.!.!.!.!.!.!.!.!.!.!.",
"!.!.!.!.!.!.!.!.!.!.!.!.!.!.!.!.!.!.!.!.!.!.!.!.!.!.!.!.!.!.!.!.!.!.!.!.!.!.!.!.!.!.    !.!.!.!.!.!.!.!.!.!.!.!.!.!.!.!.!.!.!.!.",
"!.!.!.!.!.!.!.!.!.!.!.!.!.!.!.!.!.!.!.!.!.!.!.!.!.!.!.!.!.!.!.!.!.!.!.!.!.!.!.!.!.  ! i !.!.!.!.!.!.!.!.!.!.!.!.!.!.!.!.!.!.!.!.",
"!.!.!.!.!.!.!.!.!.!.!.!.!.!.!.!.!.!.!.!.!.!.!.!.!.!.              o o o o o         v.D !.!.!.!.!.!.!.!.!.!.!.!.!.!.!.!.!.!.!.!.",
"!.!.!.!.!.!.!.!.!.!.!.!.!.!.!.!.!.!.!.!.!.!.      o 8 m C 1.5.6.6.7.7.7.7.7.F.j.A O . . !.!.!.!.!.!.!.!.!.!.!.!.!.!.!.!.!.!.!.!.",
"!.!.!.!.!.!.!.!.!.!.!.!.!.!.!.!.!.!.!.!.  O A ,.7.q.q.q.q.q.q.q.q.q.q.q.q.q.A.E.E.T.m.P O   !.!.!.!.!.!.!.!.!.!.!.!.!.!.!.!.!.!.",
"!.!.!.!.!.!.!.!.!.!.!.!.!.!.!.!.!.!.  O Q D.Y.q.q.q.q.q.q.8.7.6.2.2.5.6.6.7.f.E.E.E.E.W.F.P @ !.!.!.!.!.!.!.!.!.!.!.!.!.!.!.!.!.",
"!.!.!.!.!.!.!.!.!.!.!.!.!.!.!.!.!.  A J.E.E.P.q.q.7.:.n 6 * o     .       o 7 ! F.E.E.E.E.E.l.  !.!.!.!.!.!.!.!.!.!.!.!.!.!.!.!.",
"!.!.!.!.!.!.!.!.!.!.!.!.!.!.!.  > v.E.E.E.E.V.m =   $ : q t u p f f f p p t q : O 0 h.I.E.E.W.R   !.!.!.!.!.!.!.!.!.!.!.!.!.!.!.",
"!.!.!.!.!.!.!.!.!.!.!.!.!.!.!.i G.E.E.E.I.! > @ 2 i p f f f f f f g g g g g f f p w - i M.E.E.J..   !.!.!.!.!.!.!.!.!.!.!.!.!.!.",
"!.!.!.!.!.!.!.!.!.!.!.!.!.!.- J.E.E.E.v.> ; y f f f g k k J J G F F F F F F J S g g f q O l.E.E.!   !.!.!.!.!.!.!.!.!.!.!.!.!.!.",
"!.!.!.!.!.!.!.!.!.!.!.!.!.  L E.E.E.j.O w f f g k F G G G G G G H G G G G H F H G F g f r . m.E.I.-   !.!.!.!.!.!.!.!.!.!.!.!.!.",
"!.!.!.!.!.!.!.!.!.!.!.!.!.  v.E.E.k.. u f g k G H G H K I I Y E ~ / ( ( / U H F G G G S g < e I.E.P   !.!.!.!.!.!.!.!.!.!.!.!.!.",
"!.!.!.!.!.!.!.!.!.!.!.!.  > J.E.G.. t f k G H G H Y | | | | | | | | | | | | | Y G G G G S f O h.E.M.    !.!.!.!.!.!.!.!.!.!.!.!.",
"!.!.!.!.!.!.!.!.!.!.!.!.  P E.E.L ; f S H G G K ^ | | | | | | | | | | | | | | | E H F H G g < i E.U.>   !.!.!.!.!.!.!.!.!.!.!.!.",
"!.!.!.!.!.!.!.!.!.!.!.!.  k.E.H.  u k G G G H | | | | | | | | | | | | | | | | | | Y H F G S r . R.E.P     !.!.!.!.!.!.!.!.!.!.!.",
"!.!.!.!.!.!.!.!.!.!.!.!.  D.E._ O f F G G G / | | | | | | | | ( ^ ^ ~ ~ R R R R R E S G G G u   J.E.m.  O   !.!.!.!.!.!.!.!.!.!.",
"!.!.!.!.!.!.!.!.!.!.!.    U.E.Q ; g G G G T | | | ( R I F p w > ; - O .           . @ > w S p . D.E.I.  A e   !.!.!.!.!.!.!.!.!.",
"!.!.!.!.!.!.!.!.!.!.!.  . E.E.L ; k G F G U K q O   X % 4 z [ X.@.@.@.&.;.;.=.;.-.$.o.] h   w . M.E.E.O i I.. !.!.!.!.!.!.!.!.!.",
"!.!.!.!.!.!.!.!.!.!.!.  > E.E.Q $ S F p > $ 3 v  .+.%.*.;.;.;.;.;.;.;.;.;.;.h ..;.;.;.;.=.  O . m.E.E.e 0 T.P   !.!.!.!.!.!.!.!.",
"!.!.!.!.!.!.!.!.!.!.    e E.E.) O k 2 % l o.-.;.[ $.;.;.;.;.;.;.;.;.;.;.;.;.# h ;.;.;.;.;.,     D.E.E.A > U.k.  !.!.!.!.!.!.!.!.",
"!.!.!.!.!.!.!.!.!.  0 - e E.E.l.O q   %.;.;.;.=.& l ;.;.;.;.;.;.;.;.;.;.;.;.$ % &.;.;.;.;.j     H.E.E.L - U.b.  !.!.!.!.!.!.!.!.",
"!.!.!.!.!.!.!.!.!.  l.e e E.E.H..     -.;.;.;.%.X 3 ;.;.;.;.;.;.;.;.;.;.;.;.,   +.;.;.;.;...  h.E.E.E.L - H._   !.!.!.!.!.!.!.!.",
"!.!.!.!.!.!.!.!.!.  T.i > E.E.E.-     ;.;.;.;.$.X & ;.;.;.;.;.;.;.;.;.;.;.;.1   o.;.;.;.;.$.. _ E.E.E.D - M.L   !.!.!.!.!.!.!.!.",
"!.!.!.!.!.!.!.!.!.e E.L . E.E.E.! . # ;.;.;.;.%.X   -.;.;.;.;.;.;.;.;.;.;.;.d   o.;.;.;.;.-.& D E.E.E.a ; b.. !.!.!.!.!.!.!.!.!.",
"!.!.!.!.!.!.!.!.!.a E.)   I.E.E.U.> , ;.;.;.;.=.&   %.;.;.;.;.;.;.;.;.;.;.;.j   +.;.;.;.;.;.1 e E.E.E.0 ; A   !.!.!.!.!.!.!.!.!.",
"!.!.!.!.!.!.!.!.!.< R.l.  M.E.E.E.0 , ;.;.;.;.;.5   @.;.;.;.;.;.;.;.;.;.;.;.{ $ &.;.;.;.;.;.5 - E.E.E.. o   !.!.!.!.!.!.!.!.!.!.",
"!.!.!.!.!.!.!.!.O O v.l.  h.E.E.E.e , ;.;.;.;.;.'   @.;.;.;.;.;.;.;.;.;.;.;.-.=.;.;.;.;.;.;.4 > E.E.J.      !.!.!.!.!.!.!.!.!.!.",
"!.!.!.!.!.!.!.. h.Q D m.$ D T.E.E.A X ;.;.;.;.;.&. .-.;.;.;.;.;.;.;.;.;.;.;.;.;.;.;.;.;.;.-.& a E.E.v.  . - 0 a D e   !.!.!.!.!.",
"!.!.!.!.!.!.!.i D.D.- ! a o H.E.E.Q   %.;.;.;.;.;.;.;.;.;.$.O.v 5 1 1 1 5 x  .-.;.;.;.;.;.]   ) E.E.D   Q M.G.G.G.D.i !.!.!.!.!.",
"!.!.!.!.!.!.!.! G.R.m.; 0   _ E.E.b.   .;.;.;.;.;.;.$.z ,   O > i A A a A a 0 4 &.;.&.] 1   0 G.E.I.- . 0 J.I.U.I.G.k.  !.!.!.!.",
"!.!.!.!.!.!.!.h.J.E.E.m..   0 T.E.I.- d ;.;.;.;.;.&.: e D h.l.l.l.l.l.l.l.l.l.A j x . . e j.T.E.E.l.  ! i j.E.E.E.I.M.- !.!.!.!.",
"!.!.!.!.!.!.!.- D _ v.) O D   v.E.E.)   d c  .$.;.c W l.l.l.l.l.l.l.l.l.l.l.l.Q   . ) G.R.E.E.E.U.i   J.M.O G.E.E.T.M.- !.!.!.!.",
"!.!.!.!.!.!.!.!.!.      e l.- 0 T.E.U.h.D >     . . W k.l.l.l.l.l.l.l.l.l.l.l.Q . T.E.E.E.E.E.T.l.. L E.R.j.q h._ L O !.!.!.!.!.",
"!.!.!.!.!.!.!.!.!.!.!.!.        j.E.E.E.E.E.U.b._ 0 Z j.k.l.l.l.l.l.k.l.l.l.l.W o E.E.E.E.E.U.G.> O H.E.T.v..     !.!.!.!.!.!.!.",
"!.!.!.!.!.!.!.!.!.!.!.!.!.!.    O M.E.E.E.E.E.E.E.` N  .l.l.l.l.l.l.l.l.l.l.k.D 0 E.E.E.E.I.G._   ) E.v.e   !.!.!.!.!.!.!.!.!.!.",
"!.!.!.!.!.!.!.!.!.!.!.!.!.!.!.!.  0 D.T.E.E.E.E.E.v.; ! j.l.k.k.k.j.j.h._ ) ! 0 W E.E.T.J.G.v.- 0 m.A     !.!.!.!.!.!.!.!.!.!.!.",
"!.!.!.!.!.!.!.!.!.!.!.!.!.!.!.!.!.  a D.J.T.E.E.E.T.@ A Q Q Q Q Q ! Q Q Q Q D   9.G.H.F.G.M.0   L .   !.!.!.!.!.!.!.!.!.!.!.!.!.",
"!.!.!.!.!.!.!.!.!.!.!.!.!.!.!.!.!.    A M.G.J.U.U.I.` @ D Q Q Q Q Q Q Q Q L @ 8 p.G.G.G.M.e       !.!.!.!.!.!.!.!.!.!.!.!.!.!.!.",
"!.!.!.!.!.!.!.!.!.!.!.!.!.!.!.!.!.!.    p M.G.G.G.F.V.8 + g Q Q Q Q Q P a . 6 :.z.G.G.m.A . a   !.!.!.!.!.!.!.!.!.!.!.!.!.!.!.!.",
"!.!.!.!.!.!.!.!.!.!.!.!.!.!.!.!.!.!.  0 . 0 v.G.G.G.G.3.m * o . O . o * b V 1.1.B.G.v.< - D.b.  !.!.!.!.!.!.!.!.!.!.!.!.!.!.!.!.",
"!.!.!.!.!.!.!.!.!.!.!.!.!.!.!.!.!.!.  j.m.e O Q M.G.G.0.1.>.:.C C C :.1.1.1.1.1.b.Q O D G.E.m.  !.!.!.!.!.!.!.!.!.!.!.!.!.!.!.!.",
"!.!.!.!.!.!.!.!.!.!.!.!.!.!.!.!.!.!.  h.E.J.! o e ) D.c.1.1.1.1.1.1.1.1.1.1.>.M 0 o _ T.E.E.b.  !.!.!.!.!.!.!.!.!.!.!.!.!.!.!.!.",
"!.!.!.!.!.!.!.!.!.!.!.!.!.!.!.!.!.!.  _ E.E.E.I.P -   N M :.>.1.1.1.1.:.C b o + m 8.C.E.E.E.b.  !.!.!.!.!.!.!.!.!.!.!.!.!.!.!.!.",
"!.!.!.!.!.!.!.!.!.!.!.!.!.!.!.!.!.!.  ) E.E.E.E.E.I.l.P e * * = 6 6 * * = N k.Z.q.q.f.U.E.E.l.  !.!.!.!.!.!.!.!.!.!.!.!.!.!.!.!.",
"!.!.!.!.!.!.!.!.!.!.!.!.!.!.!.!.!.!.  j.E.E.E.E.E.E.E.E.W.7.6.4.k.k.<.6.e.L.E.K.q.1.7 > 0 ! !   !.!.!.!.!.!.!.!.!.!.!.!.!.!.!.!.",
"!.!.!.!.!.!.!.!.!.!.!.!.!.!.!.!.!.!.  h.I.E.E.E.E.E.E.E.E.s.q.r.Y.E.R.S.Y.E.R.d.b A M.U.J.l.i   !.!.!.!.!.!.!.!.!.!.!.!.!.!.!.!.",
"!.!.!.!.!.!.!.!.!.!.!.!.!.!.!.!.!.!.  k.H.R.E.E.E.E.E.E.E.A.w.q.s.S.R.E.E.P.g.7.o v.H.R.E.E.I.h.. !.!.!.!.!.!.!.!.!.!.!.!.!.!.!.",
"!.!.!.!.!.!.!.!.!.!.!.!.!.!.!.!.!.!.  l.G.I.E.E.E.E.E.E.E.E.u.q.q.e.y.u.y.w.q.>.> G.H.E.E.E.E.E.v.o !.!.!.!.!.!.!.!.!.!.!.!.!.!.",
"!.!.!.!.!.!.!.!.!.!.!.!.!.!.!.!.!.!.  l.G.G.U.E.E.E.E.E.E.E.u.q.q.q.q.q.q.q.q.m ! G.J.E.E.E.E.E.U.; !.!.!.!.!.!.!.!.!.!.!.!.!.!.",
"!.!.!.!.!.!.!.!.!.!.!.!.!.!.!.!.!.!.  k.G.G.H.E.E.E.E.E.E.Q.y.q.q.q.q.q.q.q.8.6 j.G.U.E.E.E.E.E.I.O !.!.!.!.!.!.!.!.!.!.!.!.!.!.",
"!.!.!.!.!.!.!.!.!.!.!.!.!.!.!.!.!.!.  ! G.G.G.H.R.E.E.E.E.P.t.q.q.q.q.q.7.2.>.. b.G.R.E.E.E.E.E.l.  !.!.!.!.!.!.!.!.!.!.!.!.!.!.",
"!.!.!.!.!.!.!.!.!.!.!.!.!.!.!.!.!.!.  e G.G.G.G.H.T.E.E.E.K.r.q.q.8.7.2.1.1.V - D.H.E.E.E.E.E.T.> !.!.!.!.!.!.!.!.!.!.!.!.!.!.!.",
"!.!.!.!.!.!.!.!.!.!.!.!.!.!.!.!.!.!.!.  b.G.G.G.G.G.H.J.I.B.5.2.2.1.1.2.1.1.m 0 G.H.E.E.E.E.T.!   !.!.!.!.!.!.!.!.!.!.!.!.!.!.!.",
"!.!.!.!.!.!.!.!.!.!.!.!.!.!.!.!.!.!.!.  a G.G.G.G.G.G.G.G.i.1.1.1.>.>.B n 8 * A G.G.H.I.U.T.P   !.!.!.!.!.!.!.!.!.!.!.!.!.!.!.!.",
"!.!.!.!.!.!.!.!.!.!.!.!.!.!.!.!.!.!.!.!.. l.G.G.G.G.G.G.M.Z m b 8 * o     !.!.$ ) D.G.D.k.e !.!.!.!.!.!.!.!.!.!.!.!.!.!.!.!.!.!.",
"!.!.!.!.!.!.!.!.!.!.!.!.!.!.!.!.!.!.!.!.  e M.G.G.G.N .       !.!.!.!.!.!.!.!.!.  . i >   !.!.!.!.!.!.!.!.!.!.!.!.!.!.!.!.!.!.!.",
"!.!.!.!.!.!.!.!.!.!.!.!.!.!.!.!.!.!.!.!.!.  a G.G.G.v.O !.!.!.!.!.!.!.!.!.!.!.!.!.!.!.!.!.!.!.!.!.!.!.!.!.!.!.!.!.!.!.!.!.!.!.!.",
"!.!.!.!.!.!.!.!.!.!.!.!.!.!.!.!.!.!.!.!.!.!.  L D.G.G.!   !.!.!.!.!.!.!.!.!.!.!.!.!.!.!.!.!.!.!.!.!.!.!.!.!.!.!.!.!.!.!.!.!.!.!.",
"!.!.!.!.!.!.!.!.!.!.!.!.!.!.!.!.!.!.!.!.!.!.!.!.: L P -   !.!.!.!.!.!.!.!.!.!.!.!.!.!.!.!.!.!.!.!.!.!.!.!.!.!.!.!.!.!.!.!.!.!.!.",
"!.!.!.!.!.!.!.!.!.!.!.!.!.!.!.!.!.!.!.!.!.!.!.!.!.!.!.!.!.!.!.!.!.!.!.!.!.!.!.!.!.!.!.!.!.!.!.!.!.!.!.!.!.!.!.!.!.!.!.!.!.!.!.!.",
"!.!.!.!.!.!.!.!.!.!.!.!.!.!.!.!.!.!.!.!.!.!.!.!.!.!.!.!.!.!.!.!.!.!.!.!.!.!.!.!.!.!.!.!.!.!.!.!.!.!.!.!.!.!.!.!.!.!.!.!.!.!.!.!.",
"!.!.!.!.!.!.!.!.!.!.!.!.!.!.!.!.!.!.!.!.!.!.!.!.!.!.!.!.!.!.!.!.!.!.!.!.!.!.!.!.!.!.!.!.!.!.!.!.!.!.!.!.!.!.!.!.!.!.!.!.!.!.!.!.",
"!.!.!.!.!.!.!.!.!.!.!.!.!.!.!.!.!.!.!.!.!.!.!.!.!.!.!.!.!.!.!.!.!.!.!.!.!.!.!.!.!.!.!.!.!.!.!.!.!.!.!.!.!.!.!.!.!.!.!.!.!.!.!.!."
};
