/* XPM */
static char *result[] = {
/* columns rows colors chars-per-pixel */
"64 64 180 2 ",
"   c #010101",
".  c #080707",
"X  c #0A0906",
"o  c #01060B",
"O  c #0B0B0B",
"+  c #100E0E",
"@  c #130F07",
"#  c #12100D",
"$  c #1C170D",
"%  c #000A13",
"&  c #0C0F12",
"*  c #010D1A",
"=  c #141413",
"-  c #1A1715",
";  c #1C1817",
":  c #1C1C1B",
">  c #0E1317",
",  c #241D0F",
"<  c #231E1C",
"1  c #2B2212",
"2  c #27221F",
"3  c #29251C",
"4  c #322814",
"5  c #011223",
"6  c #00152B",
"7  c #001A35",
"8  c #001C38",
"9  c #222222",
"0  c #2A2523",
"q  c #2F2927",
"w  c #2B2B2B",
"e  c #252729",
"r  c #322C2A",
"t  c #38322F",
"y  c #36302C",
"u  c #25323F",
"i  c #343434",
"p  c #3C3632",
"a  c #3D3836",
"s  c #3C3C3C",
"d  c #31363B",
"f  c #4A3B1D",
"g  c #41341A",
"h  c #423A36",
"j  c #433D3A",
"k  c #594723",
"l  c #4A423E",
"z  c #47403B",
"x  c #665229",
"c  c #6B562B",
"v  c #725B2E",
"b  c #7D6432",
"n  c #012244",
"m  c #00254A",
"M  c #002B56",
"N  c #002E5C",
"B  c #2B3B4A",
"V  c #003265",
"C  c #00376E",
"Z  c #103D6A",
"A  c #003A73",
"S  c #013E7B",
"D  c #2C4762",
"F  c #434343",
"G  c #4C4643",
"H  c #4B4B4B",
"J  c #534A45",
"K  c #564D48",
"L  c #594F4A",
"P  c #5B514C",
"I  c #545454",
"U  c #5C5C5C",
"Y  c #585857",
"T  c #615651",
"R  c #655A54",
"E  c #685C56",
"W  c #6E615B",
"Q  c #71645E",
"!  c #5D636A",
"~  c #646464",
"^  c #6B6B6B",
"/  c #7A6B65",
"(  c #7E6F68",
")  c #746660",
"_  c #757474",
"`  c #7C7C7C",
"'  c #737578",
"]  c #856A35",
"[  c #8D7138",
"{  c #94763B",
"}  c #9A7C3E",
"|  c #96783C",
" . c #84746D",
".. c #A38341",
"X. c #AD8A45",
"o. c #B28F47",
"O. c #B49048",
"+. c #BC964B",
"@. c #BF994C",
"#. c #C59E4E",
"$. c #CCA352",
"%. c #D4AA55",
"&. c #D6AB55",
"*. c #DFB359",
"=. c #E7B95C",
"-. c #EBBC5D",
";. c #E2B55B",
":. c #F5C462",
">. c #FFCC66",
",. c #F9C764",
"<. c #004181",
"1. c #00468B",
"2. c #004A94",
"3. c #004F9D",
"4. c #084F97",
"5. c #1A5A9B",
"6. c #0051A2",
"7. c #0C5BAA",
"8. c #005AB4",
"9. c #005FBE",
"0. c #2262A3",
"q. c #3169A1",
"w. c #597999",
"e. c #4175A9",
"r. c #0163C5",
"t. c #0066CC",
"y. c #0B6CCE",
"u. c #0468CD",
"i. c #1271CF",
"p. c #1E75CC",
"a. c #1573D0",
"s. c #1A76D1",
"d. c #1E78D2",
"f. c #2079D2",
"g. c #7392B2",
"h. c #3485D7",
"j. c #3D8BD8",
"k. c #428ED9",
"l. c #4C94DB",
"z. c #5C9EDE",
"x. c #5398DD",
"c. c #61A0DF",
"v. c #75ACE3",
"b. c #7CB0E5",
"n. c #838383",
"m. c #8C8C8C",
"M. c #939393",
"N. c #9A9A9A",
"B. c #8A9BAD",
"V. c #A5A5A5",
"C. c #ACACAC",
"Z. c #B4B4B4",
"A. c #BBBBBB",
"S. c #97B3CF",
"D. c #8BB9E8",
"F. c #93BEE9",
"G. c #95BBE1",
"H. c #BDC4CB",
"J. c #A4C9ED",
"K. c #ADCEEF",
"L. c #B1D1EF",
"P. c #B9D5F1",
"I. c #C4C4C4",
"U. c #CCCCCC",
"Y. c #C7C9CB",
"T. c #D3D3D3",
"R. c #DBDBDB",
"E. c #C8CED5",
"W. c #C9DFF4",
"Q. c #D5E6F7",
"!. c #DAE9F7",
"~. c #DBE9F8",
"^. c #E4E4E4",
"/. c #EBEBEB",
"(. c #EBF3FB",
"). c #F4F4F4",
"_. c #FFFFFF",
"`. c #F2F7FD",
"'. c #E4EFFA",
"]. c None",
/* pixels */
"].].].].].].].].].].].].].].].].].].].].].].].].].].].].].].].].].].].].].].].].].].].].].].].].].].].].].].].].].].].].].].].].",
"].].].].].].].].].].].].].].].].].].].].].].].].].].].].].].].].].].].].].].].].              ].].].].].].].].].].].].].].].].].",
"].].].].].].].].].].].].].].].].].].].].].].].].].].].].].].].].].].          % 8 M V V V V V V n %     ].].].].].].].].].].].].",
"].].].].].].].].].].].].].].].].].].].].].].].].].].].].].].].      = s ! S 2.8.r.t.t.t.t.t.t.t.t.8.N.Y =   ].].].].].].].].].].",
"].].].].].].].].].].].].].].].].].].].].].].].].].].].].      9 ^ I./._._.l.t.t.t.t.t.t.t.t.t.t.t.t.L._.^.~ O ].].].].].].].].].",
"].].].].].].].].].].].].].].].].].].].].].].].].].].].  O ' T._._._._._._.!.d.r.3.<.N n 7 6 5 * % * B ^ N.R.R.F ].].].].].].].].",
"].].].].].].].].].].].].].].].O = ].].].].].].].].  . U T._._._._._._._.).I.D 5 & = 0 r t h z z h a t r 0 q Y _   ].].].].].].].",
"].].].].].].].].].].].].].].].^ M.  ].].].].].].  O Z._._._._._._._._.T.s . < j J K K K K K K K K K K K K K a +     ].].].].].].",
"].].].].].].].].].].].].].].].^ C.  ].].].].].  9 T._._._._._._._._.' o - l L K K K K K K K L P K K K K K K L l ;   ].].].].].].",
"].].].].].].].].].].].].].].].' Y.  ].].].].  O A._._._._._._._.). .. 0 j K K K K K P R Q / ( ( ( / ) E L K K J p -   ].].].].].",
"].].].].].].].].].].].].].].  ..R.O ].].].].  N._._._._._._._._.M.. t j J K K K R /  . . . . . . . . . ./ P K K j r . ].].].].].",
"].].].].].].].].].].].].].].o w./.= ].].].  z /._._._._._._._.^.= < h j K K K E  . . . . . . . . . . . . . .T K J p -   ].].].].",
"].].].].].].].].].].].].].].o n./.= ].].].O A./._._._._._._._.n.. q h h J K T  . . . . . . .( / / / Q Q Q Q E K J h 2   ].].].].",
"].].].].].].].].].].].].].].  m./.: ].].  H U./._._._._._._._.F # q h h J K Q  .R l t 0 ; = + O O O .       . O p h 2 . ].].].].",
"].].].].].].].].].].].].].].  M.).: ].].  m.U.R.)._._._._._._.z # 0 h h l 2 # 1 k v [ | X.+.$.&.-.-.,.,.-.=.b   0 t <   ].].].].",
"].].].].].].].].].].].].].].  M.).9 ].].  I.n.O w R._._._._._.I O 0 h h ; f $.>.>.>.>.>.>.>.>.>.>.>.>.>.>.>.#.  < 0 +     ].].].",
"].].].].].].].].].].].].].].  n.^.9 ].].9 I.: N.' w /._._._._.m.. 2 y - [ >.>.>.>.>.>.>.>.>.>.>.>.>.>.>.>.>.=., = - w 9   ].].].",
"].].].].].].].].].].].].].    : w O     s N.s U.U.U m._._._._.I.. 2 X 1 >.>.>.>.>.>.&.+.>.>.>.>.>.>.>.:.+.>.,.f O w R.F   ].].].",
"].].].].].].].].].].    : U V.T.R./.^.^ I _ ' ^.U.A.: /._._._.^.= O i 1 >.>.>.>.>.>.k 4 >.>.>.>.>.>.>.} $ >.>.c i ^._.H   ].].].",
"].].].].].].].].].  H Y.)._._._._._._.` U U N._./.U.s C._._._._.i s U., ,.>.>.>.>.>.k   %.>.>.>.>.>.>.{   &.>.{ s )._.F   ].].].",
"].].].].].].].].].= Z.T./.Z.g.^ ~ ^ n.H U I N._.).U.~ ` _._._._.Z.T.R.1 ,.>.>.>.>.>.k   [ >.>.>.>.>.>.}   O.>.O.9 ^._.s   ].].].",
"].].].].].].].].].9 A.H   1 l ^ ^ ~ Y i z U ` _._.T.n.U _._._._._._.^.3 -.>.>.>.>.>.x   x >.>.>.>.>.>.O.  | >.&.  T._.9   ].].].",
"].].].].].].].].].O 0 i A.)._._._._.T.V.w ` H _._.U.` U _._._._._._./.3 -.>.>.>.>.>.v   x >.>.>.>.>.>.#.  +.>.:.  A._..   ].].].",
"].].].].].].].].].  9 T._._./.Z.M.` I i O N.: /./.U.~ ^ _._._._._._.).0 *.>.>.>.>.>.b   b >.>.>.>.>.>.;.1 =.>.>.  C.T.  ].].].].",
"].].].].].].].].].O V.Y.~ 9 . 9 H ^ n.m.^ M.i ' U.Y.0 V._._._._._._._.w $.>.>.>.>.>...  #.>.>.>.>.>.>.>.>.,.>.:.  I.V.  ].].].].",
"].].].].].].].].  s I = : ^ V.A.U.R.).).^.I M.= N.` w /._._._._._._._.i X.>.>.>.>.>.:.#.,.=.%.@.o...| | ..+.*.$.  U.H   ].].].].",
"].].].].].].].].  . O . I.U.U.^.)._._._._.I Z.~ = F ^._._._._._._._._.H [ >.>.>.>.>.>.O.4 @ X w s F F F i : $ , = Y.=   ].].].].",
"].].].].].].].. i m.C.= A.^._._._._._._._.Z.F U.U.U./._._._._._._._._.~ # f b #.>.>.v s ^ = m.N.N.N.N.N.N.M.9   M.V.  ].].].].].",
"].].].].].].= n.Y.U.T.i Z._._._._._._._._.).H N.U.U.U.)._._._._._._._.A.G O   . 1 y $ m._ i N.N.N.N.N.M.N.N.i ` /.H   ].].].].].",
"].].].].].  M.U.T.).).F A._._._._._._._._._.U.w I.U.U.T.)._._._._._._._._.R.N.G ;   2 M.I I N.N.N.N.N.N.M.N.i N.N.. ].].].].].].",
"].].].].].  A.T._._.).j Z._._._._._._._._._._.m.j Y.U.U.U./._._._._._._._._._._._.T.2 ' H F N.N.N.N.N.N.N.m.: M.9   ].].].].].].",
"].].].].].]._ T._._.^.9 Z.I.C.M.` ~ ~ ^ m.Z.)._.Y H Y.U.U.U.T./.)._._._._._._._._./.w ~ H 9 n.M.M.M.M.M.n.~ 9 Y   ].].].].].].].",
"].].].].].].s T.).Y.F       : w F O B ..N.Z.)._./.w ~ U.U.U.U.U.T.R.)._._._._._._._.B H ~ O I ~ ^ ^ ^ ~ ~ s O O   ].].].].].].].",
"].].].].].].. s 0 9 ` T././._._./.= w.U.U.T._._._.R.: ^ U.U.U.U.U.U.U.T.^./.)._._.~.7.> I i 9 ~ ~ ~ U Y s       ].].].].].].].].",
"].].].].].].].].  U./._._._._._.I.  N.U.U.^._._._._.R.: ^ I.U.U.U.U.U.U.U.U.U.T.^.S.9.<.%           o % &     ].].].].].].].].].",
"].].].].].].].].  A.^._._._._._.` O Y.U.U.)._._._._._.E.* a Z.U.U.U.U.U.U.U.U.U.Y.q.2.2.2.<.A C C A <.n .   ].].].].].].].].].].",
"].].].].].].].].  C.^._._._._.).j s U.U.U.)._._._._._.P.9.m & ~ A.U.U.U.U.U.U.U.B.3.2.2.2.2.2.2.2.A 5     ].].].].].].].].].].].",
"].].].].].].].].  N.^._._._._.U.& M.U.U.R._._._._._._.D.t.t.6.6 . H V.Y.U.U.U.U.5.2.2.2.2.2.1.C 5     ].].].].].].].].].].].].].",
"].].].].].].].].  M.T._._._._.n.& I.U.U./._._._._._.`.h.t.t.a.p.4.M 5 e Y m.V.w.<.<.<.A M 8 %     ].].].].].].].].].].].].].].].",
"].].].].].].].].  m.T.)._._._.F a U.U.U.)._._._._._.v.t.u.v.!.'.K.j.9.1.D s 9 o o o o       ].].].].].].].].].].].].].].].].].].",
"].].].].].].].].  ^ U./._._.).. _ U.U.T._._._._._.~.y.t.J._._._._.(.y.t.j._._._./././.9   ].].].].].].].].].].].].].].].].].].].",
"].].].].].].].].].H U.^._._.N.O C.U.U.^._._._._._.D.t.k._.`.L.D.`._.l.t.s._._._._._.T.      ].].].].].].].].].].].].].].].].].].",
"].].].].].].].].].w U.T._./.i i I.U.U./._._._._._.k.t.D._.F.u.t.L._.v.t.a._._._._.).~ O ~ I O ].].].].].].].].].].].].].].].].].",
"].].].].].].].].].= A.U.).M.  n.U.U.U.)._._._._._.y.t.W._.x.t.t.L._.z.t.h._._._./.U F ^._._.^.w ].].].].].].].].].].].].].].].].",
"].].].].].].].].].  V.U.U.w = I.U.U.R._._._._._._.t.t.L._.F.a.x.`._.s.t.v._._.Y.F M.)._._._._.U.O ].].].].].].].].].].].].].].].",
"].].].].].].].].].  ' U.E   ^ U.U.U.^._._._._._._.f.t.b._._.(._._.K.t.y.!._.M.I ^._._._._._._._.9 ].].].].].].].].].].].].].].].",
"].].].].].].].].].  i M.  F Y.U.U.U.^._._._._._.'.t.t.i.!._._._.J.a.t.z._.C.I._._.Z._._._._._.T.. ].].].].].].].].].].].].].].].",
"].].].].].].        . & = V.U.U.U.U.R._._._._._.J.t.t.t.f.v.F.c.y.t.s.Q._._._._.C.n.)._._._._.m.  ].].].].].].].].].].].].].].].",
"].].].].].].O N.n.:   & V.U.U.U.U.U.U.^._._._._.z.t.t.t.t.t.t.t.t.a.W._._._.)./.: Z./._._._._.9   ].].].].].].].].].].].].].].].",
"].].].].].].O C.U.I.N.A.U.U.U.U.U.U.U.U.R.)._._.s.t.t.t.t.t.t.t.r.G././.^.T.T.n.K T.)._._._.V.  ].].].].].].].].].].].].].].].].",
"].].].].].].].U U.U.U.U.U.U.U.U.U.U.U.U.U.U.R.S.6.6.3.6.6.3.3.3.0.H.U.U.U.Y.A.s m.R._._._._.H   ].].].].].].].].].].].].].].].].",
"].].].].].].].O _ U.U.U.U.U.U.U.U.U.U.U.U.U.U.e.2.2.2.2.2.2.2.2.g.U.U.m.H : O   A./._._._.Y.. ].].].].].].].].].].].].].].].].].",
"].].].].].].].].. ~ Z.U.U.U.U.U.U.U.A.m._ ' ' Z A S S S A V N n d w O   ].].].O T.)._._.).s   ].].].].].].].].].].].].].].].].].",
"].].].].].].].].].  O I M.C.Z.Z.m.I .                             ].].].].].].9 U.`._._.N.  ].].].].].].].].].].].].].].].].].].",
"].].].].].].].].].].].].  . O .   ].].].].].].].].].].].].].].].].].].].].].].i U.R.).R.O   ].].].].].].].].].].].].].].].].].].",
"].].].].].].].].].].].].].].].].].].].].].].].].].].].].].].].].].].].].].].].9 C.U.U.s   ].].].].].].].].].].].].].].].].].].].",
"].].].].].].].].].].].].].].].].].].].].].].].].].].].].].].].].].].].].].].].    9 I   ].].].].].].].].].].].].].].].].].].].].",
"].].].].].].].].].].].].].].].].].].].].].].].].].].].].].].].].].].].].].].].].].].  ].].].].].].].].].].].].].].].].].].].].].",
"].].].].].].].].].].].].].].].].].].].].].].].].].].].].].].].].].].].].].].].].].].].].].].].].].].].].].].].].].].].].].].].].",
"].].].].].].].].].].].].].].].].].].].].].].].].].].].].].].].].].].].].].].].].].].].].].].].].].].].].].].].].].].].].].].].].",
"].].].].].].].].].].].].].].].].].].].].].].].].].].].].].].].].].].].].].].].].].].].].].].].].].].].].].].].].].].].].].].].].",
"].].].].].].].].].].].].].].].].].].].].].].].].].].].].].].].].].].].].].].].].].].].].].].].].].].].].].].].].].].].].].].].].",
"].].].].].].].].].].].].].].].].].].].].].].].].].].].].].].].].].].].].].].].].].].].].].].].].].].].].].].].].].].].].].].].].",
"].].].].].].].].].].].].].].].].].].].].].].].].].].].].].].].].].].].].].].].].].].].].].].].].].].].].].].].].].].].].].].].]."
};
