/* XPM */
static char *result[] = {
/* columns rows colors chars-per-pixel */
"64 64 172 2 ",
"   c #010101",
".  c #090706",
"X  c #0C0A06",
"o  c #00060C",
"O  c #05090C",
"+  c #0C0C0B",
"@  c #120F07",
"#  c #110F0C",
"$  c #15110A",
"%  c #1A150A",
"&  c #1E180C",
"*  c #000912",
"=  c #000D1A",
"-  c #151414",
";  c #1B1917",
":  c #1B1A1A",
">  c #191615",
",  c #0B1219",
"<  c #231C0E",
"1  c #211D1B",
"2  c #292010",
"3  c #3A2F17",
"4  c #342A15",
"5  c #001224",
"6  c #00162D",
"7  c #0A1927",
"8  c #1D1F22",
"9  c #001E3D",
"0  c #001B36",
"q  c #142536",
"w  c #232322",
"e  c #2B2624",
"r  c #2F2A27",
"t  c #2B2B2B",
"y  c #332D2A",
"u  c #302A27",
"i  c #37312D",
"p  c #39322F",
"a  c #2B353F",
"s  c #333333",
"d  c #3C3532",
"f  c #3B3B3B",
"g  c #42351A",
"h  c #47391C",
"j  c #423A36",
"k  c #453D39",
"l  c #584723",
"z  c #5D4A25",
"x  c #544322",
"c  c #4B423E",
"v  c #604C26",
"b  c #655128",
"n  c #6D572C",
"m  c #755E2F",
"M  c #7A6231",
"N  c #002142",
"B  c #00274D",
"V  c #002D5A",
"C  c #0E345C",
"Z  c #133454",
"A  c #003162",
"S  c #00356A",
"D  c #003973",
"F  c #003C79",
"G  c #00407F",
"H  c #2D4762",
"J  c #444444",
"K  c #4F4742",
"L  c #4C4C4C",
"P  c #504742",
"I  c #534A46",
"U  c #564D48",
"Y  c #584E49",
"T  c #5C524D",
"R  c #535353",
"E  c #5B5B5B",
"W  c #655954",
"Q  c #6C5F59",
"!  c #605650",
"~  c #6F625C",
"^  c #73655F",
"/  c #5F6060",
"(  c #656565",
")  c #6C6C6C",
"_  c #746660",
"`  c #776963",
"'  c #7A6B65",
"]  c #7E6F68",
"[  c #737373",
"{  c #7C7C7C",
"}  c #806733",
"|  c #876C36",
" . c #886D36",
".. c #8C7038",
"X. c #96783C",
"o. c #97793C",
"O. c #84746D",
"+. c #A68543",
"@. c #AC8A45",
"#. c #B79249",
"$. c #BA944A",
"%. c #BE984C",
"&. c #C39C4E",
"*. c #CDA452",
"=. c #D4AA55",
"-. c #D9AE57",
";. c #DDB159",
":. c #EABC5E",
">. c #E5B75C",
",. c #EFBF60",
"<. c #F5C462",
"1. c #FFCC66",
"2. c #004284",
"3. c #00458A",
"4. c #004A94",
"5. c #004E9B",
"6. c #0B4E91",
"7. c #26619D",
"8. c #0052A4",
"9. c #0056AC",
"0. c #005AB4",
"q. c #005EBC",
"w. c #40668C",
"e. c #767D83",
"r. c #4B7AA9",
"t. c #0163C4",
"y. c #0066CC",
"u. c #0B6DCF",
"i. c #1774D1",
"p. c #257CD3",
"a. c #6489AF",
"s. c #7594B4",
"d. c #2B80D5",
"f. c #3184D6",
"g. c #428DD8",
"h. c #5498DD",
"j. c #548EC8",
"k. c #60A0DF",
"l. c #6AA6E1",
"z. c #838383",
"x. c #8C8C8C",
"c. c #959595",
"v. c #9A9A9A",
"b. c #8D9298",
"n. c #819CB7",
"m. c #9BA5AF",
"M. c #8AA2BA",
"N. c #A4A4A4",
"B. c #ADADAD",
"V. c #B5B5B5",
"C. c #BEBEBE",
"Z. c #87A6C4",
"A. c #84B5E6",
"S. c #BDC2C8",
"D. c #B8D4EF",
"F. c #BED8F2",
"G. c #C4C4C4",
"H. c #CCCCCC",
"J. c #C7C8C8",
"K. c #D4D4D4",
"L. c #DDDDDD",
"P. c #C3DBF3",
"I. c #DFE1E2",
"U. c #D4E5F6",
"Y. c #E3E3E3",
"T. c #ECECEC",
"R. c #EBF2F8",
"E. c #F4F4F4",
"W. c #FFFFFF",
"Q. c #F1F6FC",
"!. c #E3EEF9",
"~. c None",
/* pixels */
"~.~.~.~.~.~.~.~.~.~.~.~.~.~.~.~.~.~.~.~.~.~.~.~.~.~.~.~.~.~.~.~.~.~.~.~.~.~.~.~.~.~.~.~.~.~.~.~.~.~.~.~.~.~.~.~.~.~.~.~.~.~.~.~.",
"~.~.~.~.~.~.~.~.~.~.~.~.~.~.~.~.~.~.~.~.~.~.~.~.~.~.~.~.~.~.~.~.~.~.~.~.~.  ~.~.~.~.~.~.~.~.~.~.~.~.~.~.~.~.~.~.~.~.~.~.~.~.~.~.",
"~.~.~.~.~.~.~.~.~.~.~.~.~.~.~.~.~.~.~.~.~.~.~.~.~.~.~.~.~.~.~.~.~.~.~.~.~.s t ~.~.~.~.~.~.~.~.~.~.~.~.~.~.~.~.~.~.~.~.~.~.~.~.~.",
"~.~.~.~.~.~.~.~.~.~.~.~.~.~.~.~.~.~.~.~.~.~.~.~.~.~.~.~.~.~.~.~.~.~.~.~.~.z.z.  ~.~.~.~.~.~.~.~.~.~.~.~.~.~.~.~.~.~.~.~.~.~.~.~.",
"~.~.~.~.~.~.~.~.~.~.~.~.~.~.~.~.~.~.~.~.~.~.~.~.~.~.~.~.~.~.~.~.~.~.~.~.  z.B.  ~.~.~.~.~.~.~.~.~.~.~.~.~.~.~.~.~.~.~.~.~.~.~.~.",
"~.~.~.~.~.~.~.~.~.~.~.~.~.~.~.~.~.~.~.~.~.~.~.~.~.~.~.~.~.~.~.~.~.~.~.~.  ( V.  ~.~.~.~.~.~.~.~.~.~.~.~.~.~.~.~.~.~.~.~.~.~.~.~.",
"~.~.~.~.~.~.~.~.~.~.~.~.~.~.~.~.~.~.~.~.~.~.~.~.~.        * * * * * o     . -     ~.~.~.~.~.~.~.~.~.~.~.~.~.~.~.~.~.~.~.~.~.~.~.",
"~.~.~.~.~.~.~.~.~.~.~.~.~.~.~.~.~.~.~.~.~.~.    - J F 5.0.q.q.q.q.q.0.9.8.3.D V q -     ~.~.~.~.~.~.~.~.~.~.~.~.~.~.~.~.~.~.~.~.",
"~.~.~.~.~.~.~.~.~.~.~.~.~.~.~.~.~.~.~.~.  ; ) H.W.P.y.y.y.y.y.y.y.y.y.y.y.y.y.y.u.Q.K.z.t     ~.~.~.~.~.~.~.~.~.~.~.~.~.~.~.~.~.",
"~.~.~.~.~.~.~.~.~.~.~.~.~.~.~.~.~.~.  - ) K.W.W.W.A.y.t.0.8.5.4.2.3.3.4.9.0.t.y.y.F.W.W.Y.x.w   ~.~.~.~.~.~.~.~.~.~.~.~.~.~.~.~.",
"~.~.~.~.~.~.~.~.~.~.~.~.~.~.~.~.~.  R L.W.W.W.W.E.7.9 = o     + . . .     o = 0 A Z.W.W.W.W.T.z.  ~.~.~.~.~.~.~.~.~.~.~.~.~.~.~.",
"~.~.~.~.~.~.~.~.~.~.~.~.~.~.~.~.  ( W.W.W.W.J.E % @ : r i d j j j j j j p i r 1 #   J N.W.W.W.W.G.; ~.~.~.~.~.~.~.~.~.~.~.~.~.~.",
"~.~.~.~.~.~.~.~.~.~.~.~.~.~.~.  > E.W.W.E.) . > i j j j j j k k k k k j k j f j j d : . t K.W.W.W.[   ~.~.~.~.~.~.~.~.~.~.~.~.~.",
"~.~.~.~.~.~.~.~.~.~.~.~.~.~.~.  z.W.W.Y.s - i j j k c c I P I I I U Y P P P K K k j k d e + v.W.W.L.- ~.~.~.~.~.~.~.~.~.~.~.~.~.",
"~.~.~.~.~.~.~.~.~.~.~.~.~.~.  . Y.W.E.J > j j c c Y Y Y U U U U Y Y I Y Y Y Y U Y P K k j r + x.W.W.(   ~.~.~.~.~.~.~.~.~.~.~.~.",
"~.~.~.~.~.~.~.~.~.~.~.~.~.~.  ( W.W.( # j j P Y Y Y Y ! Q ` ' O.] ' ' ` _ ~ W Y Y I Y P c j r . K.W.K.  ~.~.~.~.~.~.~.~.~.~.~.~.",
"~.~.~.~.~.~.~.~.~.~.~.~.~.~.  J.W.J.. i k U Y Y U ! ` O.O.O.O.O.O.O.O.O.O.O.O.O.Q Y U U U P f 2 s E.W.t   ~.~.~.~.~.~.~.~.~.~.~.",
"~.~.~.~.~.~.~.~.~.~.~.~.~.  ; T.W.[ - j P Y Y I ! O.O.O.O.O.O.O.O.O.O.O.O.O.O.O.O.` Y U U Y J d   C.W.)   ~.~.~.~.~.~.~.~.~.~.~.",
"~.~.~.~.~.~.~.~.~.~.~.~.~.  J W.W.. e c U U U T O.O.O.O.O.O.O.O.O.O.O.O.O.O.O.O.O.O._ U U U P k # { W.B.    ~.~.~.~.~.~.~.~.~.~.",
"~.~.~.~.~.~.~.~.~.~.~.~.~.  { W.L.  u P U Y Y ` O.O.] ] ] ` ` _ _ _ _ ` ' ] O.O.O.O.O.W U U Y c : R W.L.;   ~.~.~.~.~.~.~.~.~.~.",
"~.~.~.~.~.~.~.~.~.~.~.~.    N.W.K.  y Y U P k I d e 1 1 : - - . + + . - ; 1 e u d k ! W Y Y Y K : J W.W.t     ~.~.~.~.~.~.~.~.~.",
"~.~.~.~.~.~.~.~.~.~.~.      C.W.K.  d P w . @ 2 z | +.#.%.=.-.-.:.;.=.=.=.%.+.| n h < . . : c I 1 J W.W.L   .   ~.~.~.~.~.~.~.~.",
"~.~.~.~.~.~.~.~.~.~.  : w . K.W.K.  y + l %.>.1.1.$.&.1.1.1.1.1.1.1.1.1.1.1.1.-.$.1.,.;.@.b $ r ; U W.W.(   { . ~.~.~.~.~.~.~.~.",
"~.~.~.~.~.~.~.~.~.~.  { t - L.W.Y.  +   *.1.1.1.1.x g 1.1.1.1.1.1.1.1.1.1.1.1.v 3 1.1.1.1.1.3 . > E W.W.[   J.f ~.~.~.~.~.~.~.~.",
"~.~.~.~.~.~.~.~.~.~.w Y.t > I.W.W..   . 1.1.1.1.;.$ & <.1.1.1.1.1.1.1.1.1.1.1.<   :.1.1.1.1.z     [ W.W.e.  K.v.  ~.~.~.~.~.~.~.",
"~.~.~.~.~.~.~.~.~.~.E W.t - I.W.W.J   < 1.1.1.1.=.  & <.1.1.1.1.1.1.1.1.1.1.1.<   =.1.1.1.1.M     v.W.W.+.  K.J.  ~.~.~.~.~.~.~.",
"~.~.~.~.~.~.~.~.~.~.{ W.J - L.W.W.L.- h 1.1.1.1.%.  $ :.1.1.1.1.1.1.1.1.1.1.1..   %.1.1.1.1.X.  ( I.W.W.e.* I.K.  ~.~.~.~.~.~.~.",
"~.~.~.~.~.~.~.~.~.~.L Y.E   K.W.W.Y.+ b 1.1.1.1.&.  $ :.1.1.1.1.1.1.1.1.1.1.1.    %.1.1.1.1.@.  C.W.W.W.E o K.x.  ~.~.~.~.~.~.~.",
"~.~.~.~.~.~.~.~.~.~.: V.)   C.W.W.K.  } 1.1.1.1.-.X $ :.1.1.1.1.1.1.1.1.1.1.1.    -.1.1.1.1.%.  B.W.W.W.J + J.L   ~.~.~.~.~.~.~.",
"~.~.~.~.~.~.~.~.~.; : ) x.  c.W.W.H.  X.1.1.1.1.<.g & <.1.1.1.1.1.1.1.1.1.1.1.. % 1.1.1.1.1.=.  v.W.W.E.w t v.: J   ~.~.~.~.~.~.",
"~.~.~.~.~.~.~.~.; V.z.- {   ( W.W.J.  ..1.1.1.1.1.&.+.1.1.1.1.1.1.1.1.1.1.1.1.X.#.1.1.1.1.1.*.  x.W.W.C.. J - ( H.f ~.~.~.~.~.~.",
"~.~.~.~.~.~.~.  ) H.Y.[ .   t W.W.L.. b 1.1.1.1.1.1.1.1.1.1.1.1.<.,.<.1.1.1.1.1.1.1.1.1.1.1.@.  N.W.W.z.    E Y.K.N.. ~.~.~.~.~.",
"~.~.~.~.~.~.~.# B.L.W.E.(   . L.W.E.w 4 1.1.1.1.1.1.1.&.} h 3 < & % < 3 l ..-.1.1.1.1.1.1.1.m   H.W.W.J   / E.W.E.H.t ~.~.~.~.~.",
"~.~.~.~.~.~.~.~.E L.W.W.Y.-   b.W.W.R   $.<.1.1.1.<.x - w s J L L R L s s w . x <.1.1.1.1.*.< ; W.W.L.  + v.W.W.K.E   ~.~.~.~.~.",
"~.~.~.~.~.~.~.~.  . ( v.w R : ; E.W.K.;   % m %.>.X.f v.v.v.v.v.v.v.v.v.v.v.x.s o.<.;.o.3     [ W.W.(   R # E ( .   ~.~.~.~.~.~.",
"~.~.~.~.~.~.~.~.~.~.~.  + L.{   v.W.W.T.G.) -   $ X E c.v.v.v.c.v.v.v.v.v.v.v.[ @ < .   - [ C.E.W.I.- t T.[   ~.~.~.~.~.~.~.~.~.",
"~.~.~.~.~.~.~.~.~.~.~.~.  ; { + w T.W.W.W.W.E.C.z.; / c.v.v.v.v.v.v.v.v.v.v.c.) . R c.H.W.W.W.W.W.[   x.[   ~.~.~.~.~.~.~.~.~.~.",
"~.~.~.~.~.~.~.~.~.~.~.~.~.~.      E T.W.W.W.W.W.E.J R x.v.v.v.v.v.v.v.v.v.v.v.E + W.W.W.W.W.W.W.V.. # s   ~.~.~.~.~.~.~.~.~.~.~.",
"~.~.~.~.~.~.~.~.~.~.~.~.~.~.~.    . N.Y.W.W.W.W.W.( f [ c.v.v.v.c.v.v.v.v.v.x.J J W.W.W.W.W.E.H.w       ~.~.~.~.~.~.~.~.~.~.~.~.",
"~.~.~.~.~.~.~.~.~.~.~.~.~.~.~.~.    w G.K.T.W.W.W.v.- ( { { z.z.z.z.z.z.{ { [ ; x.W.W.W.Q.L.H.)       ~.~.~.~.~.~.~.~.~.~.~.~.~.",
"~.~.~.~.~.~.~.~.~.~.~.~.~.~.~.~.~.~.  J J.H.K.E.E.K.. f ( ( ( ( ( ( ( ( ( ( f O G.E.W.L.H.H.{       ~.~.~.~.~.~.~.~.~.~.~.~.~.~.",
"~.~.~.~.~.~.~.~.~.~.~.~.~.~.~.~.~.~.    R J.H.J.H.H.C + f ( ( ( ( ( ( ( ( J . Z S.H.H.H.J.z..     ~.~.~.~.~.~.~.~.~.~.~.~.~.~.~.",
"~.~.~.~.~.~.~.~.~.~.~.~.~.~.~.~.~.~.  :   ( J.H.H.H.7.N . t L R R R E L t   9 7.J.H.H.J.z.. +   ~.~.~.~.~.~.~.~.~.~.~.~.~.~.~.~.",
"~.~.~.~.~.~.~.~.~.~.~.~.~.~.~.~.~.~.  z.x.. s C.H.K.r.4.2.B 5 * o o * 5 B F 4.r.H.H.J.L   L v.  ~.~.~.~.~.~.~.~.~.~.~.~.~.~.~.~.",
"~.~.~.~.~.~.~.~.~.~.~.~.~.~.~.~.~.~.  z.W.B.t - e.C.M.4.4.4.4.3.3.3.3.4.4.4.4.s.J.x.w > z.E.B.  ~.~.~.~.~.~.~.~.~.~.~.~.~.~.~.~.",
"~.~.~.~.~.~.~.~.~.~.~.~.~.~.~.~.~.~.  ) W.W.E.) . ; e.6.4.4.4.4.4.4.4.4.4.4.4.b.s . a K.W.W.N.  ~.~.~.~.~.~.~.~.~.~.~.~.~.~.~.~.",
"~.~.~.~.~.~.~.~.~.~.~.~.~.~.~.~.~.~.  { W.W.W.W.L.z.: o 6 V D 2.4.4.3.F V 9 * O B 8.j.H.Y.W.c.  ~.~.~.~.~.~.~.~.~.~.~.~.~.~.~.~.",
"~.~.~.~.~.~.~.~.~.~.~.~.~.~.~.~.~.~.  x.W.W.W.W.W.W.Y.N.[ 7 * = = = = , 8 E c.Z.q.F q i s L R   ~.~.~.~.~.~.~.~.~.~.~.~.~.~.~.~.",
"~.~.~.~.~.~.~.~.~.~.~.~.~.~.~.~.~.~.  z.Y.W.W.W.W.W.W.W.W.g.0.8.m.V.J.Y.R.W.W.g.N L J.E.T.N.:   ~.~.~.~.~.~.~.~.~.~.~.~.~.~.~.~.",
"~.~.~.~.~.~.~.~.~.~.~.~.~.~.~.~.~.~.  c.K.W.W.W.W.W.W.W.W.F.u.y.f.P.W.W.W.!.h.0.o N.K.W.W.W.E.c.. ~.~.~.~.~.~.~.~.~.~.~.~.~.~.~.",
"~.~.~.~.~.~.~.~.~.~.~.~.~.~.~.~.~.~.  v.J.T.W.W.W.W.W.W.W.W.p.y.y.i.h.l.k.p.y.4.- J.K.W.W.W.W.W.x.. ~.~.~.~.~.~.~.~.~.~.~.~.~.~.",
"~.~.~.~.~.~.~.~.~.~.~.~.~.~.~.~.~.~.  v.H.K.E.W.W.W.W.W.W.W.d.y.y.y.y.y.y.y.y.A E H.L.W.W.W.W.W.T.- ~.~.~.~.~.~.~.~.~.~.~.~.~.~.",
"~.~.~.~.~.~.~.~.~.~.~.~.~.~.~.~.~.~.  c.H.H.L.W.W.W.W.W.W.R.p.y.y.y.y.y.y.y.t.6 x.H.T.W.W.W.W.W.Y.- ~.~.~.~.~.~.~.~.~.~.~.~.~.~.",
"~.~.~.~.~.~.~.~.~.~.~.~.~.~.~.~.~.~.  { H.H.J.Y.W.W.W.W.W.!.p.y.y.y.y.y.t.0.4.  N.J.E.W.W.W.W.W.G.  ~.~.~.~.~.~.~.~.~.~.~.~.~.~.",
"~.~.~.~.~.~.~.~.~.~.~.~.~.~.~.~.~.~.  R H.H.H.H.Y.W.W.W.W.U.i.y.y.y.y.0.5.4.G + V.K.W.W.W.W.W.W.L   ~.~.~.~.~.~.~.~.~.~.~.~.~.~.",
"~.~.~.~.~.~.~.~.~.~.~.~.~.~.~.~.~.~.~.- H.H.H.H.H.Y.E.W.W.D.t.q.0.9.5.4.4.4.S : J.K.W.W.W.W.W.G.  ~.~.~.~.~.~.~.~.~.~.~.~.~.~.~.",
"~.~.~.~.~.~.~.~.~.~.~.~.~.~.~.~.~.~.~.  z.H.H.H.H.H.H.H.H.n.4.4.4.4.4.4.4.3.B s H.K.E.W.W.W.L.e ~.~.~.~.~.~.~.~.~.~.~.~.~.~.~.~.",
"~.~.~.~.~.~.~.~.~.~.~.~.~.~.~.~.~.~.~.  t J.H.H.H.H.H.H.H.a.4.4.4.2.A 9 5 =   f H.J.H.K.Y.J.t ~.~.~.~.~.~.~.~.~.~.~.~.~.~.~.~.~.",
"~.~.~.~.~.~.~.~.~.~.~.~.~.~.~.~.~.~.~.~.  x.H.H.H.H.H.V.v.H 9 5 o       ~.~.~.. R B.H.C.[ . ~.~.~.~.~.~.~.~.~.~.~.~.~.~.~.~.~.~.",
"~.~.~.~.~.~.~.~.~.~.~.~.~.~.~.~.~.~.~.~.  w V.H.H.H.e       ~.~.~.~.~.~.~.~.~.~.    - .   ~.~.~.~.~.~.~.~.~.~.~.~.~.~.~.~.~.~.~.",
"~.~.~.~.~.~.~.~.~.~.~.~.~.~.~.~.~.~.~.~.~.  f H.H.H.N.- ~.~.~.~.~.~.~.~.~.~.~.~.~.~.~.~.~.~.~.~.~.~.~.~.~.~.~.~.~.~.~.~.~.~.~.~.",
"~.~.~.~.~.~.~.~.~.~.~.~.~.~.~.~.~.~.~.~.~.~.  ) H.H.H.(   ~.~.~.~.~.~.~.~.~.~.~.~.~.~.~.~.~.~.~.~.~.~.~.~.~.~.~.~.~.~.~.~.~.~.~.",
"~.~.~.~.~.~.~.~.~.~.~.~.~.~.~.~.~.~.~.~.~.~.~.  s x.x.e   ~.~.~.~.~.~.~.~.~.~.~.~.~.~.~.~.~.~.~.~.~.~.~.~.~.~.~.~.~.~.~.~.~.~.~.",
"~.~.~.~.~.~.~.~.~.~.~.~.~.~.~.~.~.~.~.~.~.~.~.~.~.      ~.~.~.~.~.~.~.~.~.~.~.~.~.~.~.~.~.~.~.~.~.~.~.~.~.~.~.~.~.~.~.~.~.~.~.~."
};
