/* XPM */
static char *result[] = {
/* columns rows colors chars-per-pixel */
"64 64 183 2 ",
"   c #010101",
".  c #0B0904",
"X  c #01060B",
"o  c #0B0B0B",
"O  c #05080A",
"+  c #110E0A",
"@  c #14110D",
"#  c #19140A",
"$  c #020E1B",
"%  c #131212",
"&  c #1C1917",
"*  c #1C1B1B",
"=  c #171819",
"-  c #0A131C",
";  c #211D1C",
":  c #231C0E",
">  c #26221F",
",  c #2B261C",
"<  c #282112",
"1  c #342B19",
"2  c #3D321D",
"3  c #001224",
"4  c #02162A",
"5  c #011932",
"6  c #001D3B",
"7  c #00203F",
"8  c #232323",
"9  c #2C2624",
"0  c #2F2B24",
"q  c #2B2B2B",
"w  c #25282C",
"e  c #322C29",
"r  c #302A27",
"t  c #38322F",
"y  c #333333",
"u  c #3C3531",
"i  c #3F3834",
"p  c #3C3C3C",
"a  c #242E38",
"s  c #44361B",
"d  c #423A36",
"f  c #453D39",
"g  c #534222",
"h  c #4A423D",
"j  c #614D27",
"k  c #6B562B",
"l  c #725B2D",
"z  c #7F6633",
"x  c #032548",
"c  c #002142",
"v  c #002B55",
"b  c #263340",
"n  c #003264",
"m  c #00366D",
"M  c #00386F",
"N  c #013B75",
"B  c #003E7C",
"V  c #3E4042",
"C  c #36485B",
"Z  c #24517F",
"A  c #434343",
"S  c #4E4541",
"D  c #4B4B4B",
"F  c #41454A",
"G  c #544C47",
"H  c #564D48",
"J  c #594F4A",
"K  c #504742",
"L  c #5C524C",
"P  c #545454",
"I  c #5C5C5C",
"U  c #615651",
"Y  c #655954",
"T  c #6B5F59",
"R  c #6E625C",
"E  c #72645E",
"W  c #5B666F",
"Q  c #646464",
"!  c #6C6C6C",
"~  c #63686D",
"^  c #7B6C65",
"/  c #786963",
"(  c #7F7069",
")  c #6F6F70",
"_  c #757575",
"`  c #7D7D7D",
"'  c #787777",
"]  c #806633",
"[  c #856A35",
"{  c #886D37",
"}  c #94763B",
"|  c #9A7C3E",
" . c #95783C",
".. c #84746D",
"X. c #A68543",
"o. c #AC8945",
"O. c #A88643",
"+. c #B38F47",
"@. c #B79349",
"#. c #C49D4E",
"$. c #D4AA55",
"%. c #D9AE57",
"&. c #DFB359",
"*. c #E1B45A",
"=. c #EABB5E",
"-. c #E6B85C",
";. c #F4C362",
":. c #FFCC66",
">. c #004182",
",. c #01478D",
"<. c #004A94",
"1. c #004E9B",
"2. c #125495",
"3. c #215D9A",
"4. c #30689F",
"5. c #0056AC",
"6. c #0050A0",
"7. c #0059B2",
"8. c #005DB9",
"9. c #3169A2",
"0. c #557494",
"q. c #4C7BA9",
"w. c #0061C3",
"e. c #0066CC",
"r. c #0569CD",
"t. c #0C6CCD",
"y. c #1070CF",
"u. c #1B76D1",
"i. c #1573D1",
"p. c #227AD3",
"a. c #287ED4",
"s. c #367DC5",
"d. c #7B8590",
"f. c #5580AB",
"g. c #7897B7",
"h. c #708FAE",
"j. c #3385D6",
"k. c #3887D6",
"l. c #3B89D7",
"z. c #3C8AD8",
"x. c #4E95DC",
"c. c #599BDE",
"v. c #5C95CE",
"b. c #61A0DF",
"n. c #75ACE3",
"m. c #78AEE4",
"M. c #65A3E0",
"N. c #848484",
"B. c #8C8C8C",
"V. c #939393",
"C. c #9A9A9A",
"Z. c #859FB8",
"A. c #9CADBF",
"S. c #99A3AE",
"D. c #A3A3A3",
"F. c #ABABAB",
"G. c #B0B0AF",
"H. c #B4B4B4",
"J. c #BDBDBD",
"K. c #87A5C3",
"L. c #94BEEA",
"P. c #87B7E7",
"I. c #9CC3EB",
"U. c #A6C9ED",
"Y. c #ACCDEE",
"T. c #BAD5F1",
"R. c #C4C4C4",
"E. c #CCCCCC",
"W. c #C4C7CA",
"Q. c #CFD7DF",
"!. c #D3D3D3",
"~. c #DBDBDB",
"^. c #C7DDF4",
"/. c #CDE2F5",
"(. c #DAE8F5",
"). c #E4E4E4",
"_. c #ECECEC",
"`. c #E6F0FA",
"'. c #EEF5FC",
"]. c #F4F4F4",
"[. c #FFFFFF",
"{. c #F3F8FC",
"}. c None",
/* pixels */
"}.}.}.}.}.}.}.}.}.}.}.}.}.}.}.}.}.}.}.}.}.}.}.}.}.}.}.}.}.}.}.}.}.}.}.}.}.}.}.}.}.}.}.}.}.}.}.}.}.}.}.}.}.}.}.}.}.}.}.}.}.}.}.}.",
"}.}.}.}.}.}.}.}.}.}.}.}.}.}.}.}.}.}.}.}.}.}.}.}.}.}.}.}.}.}.}.}.}.}.}.}.}.}.}.}.}.}.}.}.}.}.}.}.}.}.}.}.}.}.}.}.}.}.}.}.}.}.}.}.",
"}.}.}.}.}.}.}.}.}.}.}.}.}.}.}.}.}.}.}.}.}.}.}.}.}.}.}.}.}.}.}.}.}.}.}.}.}.}.}.}.}.}.}.}.}.}.}.}.}.}.}.}.}.}.}.}.}.}.}.}.}.}.}.}.",
"}.}.}.}.}.}.}.}.}.}.}.}.}.}.}.}.}.}.              }.}.}.}.}.}.}.}.}.}.}.}.}.}.}.}.}.}.}.}.}.}.}.}.}.}.}.}.}.}.}.}.}.}.}.}.}.}.}.",
"}.}.}.}.}.}.}.}.}.}.}.}.}.}.    X 3 5 5 5 5 5 3               }.}.}.}.}.}.}.}.}.}.}.}.}.}.}.}.}.}.}.}.}.}.}.}.}.}.}.}.}.}.}.}.}.",
"}.}.}.}.}.}.}.}.}.}.}.  O A Z 5.e.e.e.e.e.e.e.e.e.7.6.0.` P 8       }.}.}.}.}.}.}.}.}.}.}.}.}.}.}.}.}.}.}.}.}.}.}.}.}.}.}.}.}.}.",
"}.}.}.}.}.}.}.}.}.}.. P H.].a.e.e.e.e.e.e.e.e.e.e.e.t.`.[.{.).R.N.A =     }.}.}.}.}.}.}.}.}.}.}.}.}.}.}.}.}.}.}.}.}.}.}.}.}.}.}.",
"}.}.}.}.}.}.}.}.}.q J.[.].R.,.M M v v v n B <.7.e.e.n.[.[.[.[.[.[.[.).N.%   }.}.}.}.}.}.}.}.}.}.}.}.}.}.}.}.}.}.}.}.}.}.}.}.}.}.",
"}.}.}.}.}.}.}.}.q R.V.p % % ; 9 r e e e r 9 & o O 5 d._.[.[.[.[.[.[.[.[._.` o   }.}.}.}.}.}.}.}.}.    }.}.}.}.}.}.}.}.}.}.}.}.}.",
"}.}.}.}.}.}.}.  q q * u h G G G H H H H H H H K d 9 @ w B._.[.[.[.[.[.[.[.[.H.*   }.}.}.}.}.}.}.}.A q }.}.}.}.}.}.}.}.}.}.}.}.}.",
"}.}.}.}.}.}.    & h H H J G H H H H H J H H H H G H G t . 8 H.[.[.[.[.[.[.[.[.~.%   }.}.}.}.}.}.  H.Q }.}.}.}.}.}.}.}.}.}.}.}.}.",
"}.}.}.}.}.}.  % d G H H H U T E E / E T Y L H H H H G G d *   C.[.[.[.[.[.[.[.[.W.%   }.}.}.}.}.  ~.P }.}.}.}.}.}.}.}.}.}.}.}.}.",
"}.}.}.}.}.}.. e S H H L E ....................E J J G H h d 9 % E.[.[.[.[.[.[.[.[.C.O }.}.}.}.}.O {.P }.}.}.}.}.}.}.}.}.}.}.}.}.",
"}.}.}.}.}.  & i G H L ^ ..........................L H H K d u @ y [.[.[.[.[.[.[.[.~.P   }.}.}.}.9 [.A }.}.}.}.}.}.}.}.}.}.}.}.}.",
"}.}.}.}.}.O 9 f H J ^ ............................^ J H h d d ;   ~.[.[.[.[.[.[.[.~.F.  }.}.}.}.D [.h }.}.}.}.}.}.}.}.}.}.}.}.}.",
"}.}.}.}.}.+ e f S u d e > ; ; > r e e d h S J Y E ^ Y H h d d >   F.[.[.[.[.[.[.[.~.E.y }.}.}.  I [.V }.}.}.}.}.}.}.}.}.}.}.}.}.",
"}.}.}.}.  o 9 f %   l  . .O.o.o.X.}  .{ ] ] l g g , & 0 f d d > . F.[.[.[.[.[.).` T J.B.  }.}.  _ [.p }.}.}.}.}.}.}.}.}.}.}.}.}.",
"}.}.}.}.    ; t o # =.:.:.:.:.:.:.:.:.:.:.:.:.:.:.=.o.< ; d u ;   J.[.[.[.[.[.D w q I J.o }.}.  N.[.q }.}.}.}.}.}.}.}.}.}.}.}.}.",
"}.}.}.}.    @ 9 . 1 :.:.:.:.:.:.:.:.:.:.:.:.:.:.:.:.:.;.g + r ;   !.[.[.[.[.N.h E.R.8 W.8 }.}.  C.[.q }.}.}.}.}.}.}.}.}.}.}.}.}.",
"}.}.}.}.  p P % . g :.:.=.:.:.:.:.:.:.:.:.| ;.:.:.:.:.:.%.. + &   ].[.[.[._.8 G.E.!.D F.y       P C.& }.}.}.}.}.}.}.}.}.}.}.}.}.",
"}.}.}.}.  Q _.I   k :.;.s =.:.:.:.:.:.:.;.  O.:.:.:.:.:.*.. q o * [.[.[.[.R.V E.~.{.' B.A p ~ P P q o       }.}.}.}.}.}.}.}.}.}.",
"}.}.}.}.  ! [.[.% [ :.o.. $.:.:.:.:.:.:.X.  [ :.:.:.:.:.&.. !.p I [.[.[.[.N._ E.[.[.V.) P C.[.[.[.[.[.~.C.p X }.}.}.}.}.}.}.}.}.",
"}.}.}.}.  P [.].  X.:.[   $.:.:.:.:.:.:.[   z :.:.:.:.:.&.. _.).~.[.[.[.[.I B.!.[.[.B._ D B.!.!.!.~._.[.[.].C.. }.}.}.}.}.}.}.}.",
"}.}.}.}.  p [.).  #.:.l   $.:.:.:.:.:.:.k   z :.:.:.:.:.&.. _.[.[.[.[.[.[.V C.!.[.[._ B.p o       o q Q D.E.E.A }.}.}.}.}.}.}.}.",
"}.}.}.}.  8 ].R.+ &.:.z   $.:.:.:.:.:.:.k   z :.:.:.:.:.$.  {.[.[.[.[.[.[.Q N.E.].[.p G.A R.E._.{.).E.C.d # ` Q }.}.}.}.}.}.}.}.",
"}.}.}.}.}.o ).J.: -.:.+.# &.:.:.:.:.:.:.[   } :.:.:.:.:.$.  [.[.[.[.[.[.[.B.I E.!.R.> H.y ' ` F.!._.[.[._.0.. * }.}.}.}.}.}.}.}.",
"}.}.}.}.}.  J.W.# &.:.:.-.:.:.:.:.:.:.:.+.  X.:.:.:.:.:.#.% [.[.[.[.[.[.[.E.o J.W.p Q N.* 8 O   . = p C.).].I   }.}.}.}.}.}.}.}.",
"}.}.}.}.}.  _ ).  $.:.:.=.$.$.$.$.$.=.:.:.@.=.:.:.:.:.:.+.8 [.[.[.[.[.[.[.[.N.8 A & H.q ~.~.!.J.D.B.Q & . L C.@ }.}.}.}.}.}.}.}.",
"}.}.}.}.}.  y ].O l [ 2 1 0 0 , , > < 1 j o.:.:.:.:.:.:. .9 [.[.[.[.[.[.[.[.{.V.Q F.B.Q [.[.[._.~.E.E.H.p . % =   }.}.}.}.}.}.}.",
"}.}.}.}.}.}.  F.y   O N.V.C.V.C.C.V.` + P q [ :.:.&. .s . p [.[.[.[.[.[.[.[.).E.E.E.p ).[.[.[.[.[.[.).E.A I V.w   }.}.}.}.}.}.}.",
"}.}.}.}.}.}.  p ~.! & C.C.C.C.C.C.C.C.p Q V.> 2 #     O I J.[.[.[.[.[.[.[._.E.E.E.) ! [.[.[.[.[.[.[.[.].q N.!.E.D.p   }.}.}.}.}.",
"}.}.}.}.}.}.    J.R.8 C.C.C.C.C.C.C.C.P p C.q % q P V._.[.[.[.[.[.[.[.[._.E.E.E.F.* ).[.[.[.[.[.[.[.[.[.q F.[.).E.W.y }.}.}.}.}.",
"}.}.}.}.}.}.}.  b G.O V.C.C.C.C.C.C.C.Q p ..q B.{.[.[.[.[.[.[.[.[.[.[.~.E.E.E.R.q H.[.[.[.[.[.[.[.[.[.[.q D.[.[.).E.P }.}.}.}.}.",
"}.}.}.}.}.}.}.}.. I + Q B.C.C.C.C.C.B.p y Q y R.[.[.[.[.[.[.[.[.].).!.E.E.E.E.A ! [.[.].!.R.R.R.!.)._.[.P N.[.[.].E.q }.}.}.}.}.",
"}.}.}.}.}.}.}.}.  + 8 p Q ! ` ' _ ! Q + D I a (.[.[.[.[.[.[.].~.E.E.E.E.E.W.P A [.[.F.y 8 ; . X .         8 H.].).R.. }.}.}.}.}.",
"}.}.}.}.}.}.}.}.}.    . F Q Q Q Q Q D = Q w N L.[.[.[.].~.!.E.E.E.E.E.E.E.I q ).[.[.[.E.W.W.p & E.!.E.J.J.C.y 8 D q }.}.}.}.}.}.",
"}.}.}.}.}.}.}.}.}.}.    . o & = 8 8 O o = x 8.s.).~.!.E.E.E.E.E.E.E.E.W.P * !.[.[.[.[.).E.E.C.X C.[.[.[.[.[.!.I   }.}.}.}.}.}.}.",
"}.}.}.}.}.}.}.}.}.}.}.  O x B n n n m >.<.<.<.<.K.!.E.E.E.E.E.E.E.W.F.8 y _.[.[.[.[.[.].E.E.R.> b [.[.[.[.{.E.I   }.}.}.}.}.}.}.",
"}.}.}.}.}.}.}.}.}.}.}.}.    4 N <.<.<.<.<.<.<.<.4.E.E.E.E.E.E.W.F.P & ! _.[.[.[.[.[.[.[.~.E.E.Q . ).[.[.[.{.!.A }.}.}.}.}.}.}.}.",
"}.}.}.}.}.}.}.}.}.}.}.}.}.}.    6 N <.<.<.<.<.<.,.Z.E.E.E.E.D.I % A H.[.[.[.[.[.[.[.[.[.).E.E.D.o C.[.[.[.].E.t }.}.}.}.}.}.}.}.",
"}.}.}.}.}.}.}.}.}.}.}.}.}.}.}.}.    X 6 M >.,.,.,.2.S.C.I * $ ~ !.[.[.[.[.[.[.[.[.[.[.[.].E.E.E.D h ].[.[.].W.= }.}.}.}.}.}.}.}.",
"}.}.}.}.}.}.}.}.}.}.}.}.}.}.}.}.}.}.}.    X - $ $ 3 4 c n <.w.k./.[.[.[.[.[.[.[.[.[.[.[.[.).E.E.D.O R.[.[.).E.  }.}.}.}.}.}.}.}.",
"}.}.}.}.}.}.}.}.}.}.}.}.}.}.}.}.}.}.}.}.  8 J.q.1.5.w.e.p.a.e.e.u.(.[.[.[.[.[.[.[.[.[.[.[._.E.E.E.= _ [.[.~.J.  }.}.}.}.}.}.}.}.",
"}.}.}.}.}.}.}.}.}.}.}.}.}.}.}.}.}.}.}.}.}.  E.^.e.e.t./.[.[./.j.e.z.'.[.[.[.[.[.[.[.[.[.[.[.E.E.E.I 8 ].].E.D.  }.}.}.}.}.}.}.}.",
"}.}.}.}.}.}.}.}.}.}.}.}.}.}.}.}.}.}.}.}.}.  ! '.e.e.m.[.[.[.[.`.j.e.L.[.[.[.[.[.~.C.C.!.).{.~.E.E.C.% H.).W.'   }.}.}.}.}.}.}.}.",
"}.}.}.}.}.}.}.}.}.}.}.}.}.}.}.}.}.}.}.}.}.  * Q.e.e.U.[.Y.j.U.[./.e.z.[.[.[.[.F.% y P & % q _ G.E.E.y P !.E.h   }.}.}.}.}.}.}.}.",
"}.}.}.}.}.}.}.}.}.}.}.}.}.}.}.}.}.}.}.}.}.}.  ` t.e.I.[.b.e.r.^.[.p.r.(.[.[.C.q J.[.[.[.E._ 8 o I E.` = R.J.= }.}.}.}.}.}.}.}.}.",
"}.}.}.}.}.}.}.}.}.}.}.}.}.}.}.}.}.}.}.}.}.}.  q l.e.c.[.I.e.e.U.[.x.e.I.[.R.& J.[.[.[.[.[.{.~.C.! B.H.% C.D.  }.}.}.}.}.}.}.}.}.",
"}.}.}.}.}.}.}.}.}.}.}.}.}.}.}.}.}.}.}.}.}.}.}.  h.e.t.{.{.P.M.`.[.x.e.n.[.y Q [.[.[.[.[.~.E.W.E.E.E.E.D Q !   }.}.}.}.}.}.}.}.}.",
"}.}.}.}.}.}.}.}.}.}.}.}.}.}.}.}.}.}.}.}.}.}.}.  V k.e.x.{.[.[.[.[.u.e.n.[.% N.[.[.[.[.].E.E.P C.E.E.E.d.p * }.}.}.}.}.}.}.}.}.}.",
"}.}.}.}.}.}.}.}.}.}.}.}.}.}.}.}.}.}.}.}.}.}.}.  . K.y.e.c./.{.`.n.e.e.u.`.y % ~.[.[.[.[.~.E.F.8 B.E.E.B.O   }.}.}.}.}.}.}.}.}.}.",
"}.}.}.}.}.}.}.}.}.}.}.}.}.}.}.}.}.}.}.}.}.}.}.}.  ) T.e.e.r.p.y.e.e.e.e.v.`   Q [.[.[.[._.E.E.' @ J.W.f }.}.}.}.}.}.}.}.}.}.}.}.",
"}.}.}.}.}.}.}.}.}.}.}.}.}.}.}.}.}.}.}.}.}.}.}.}.  & ~.T.l.e.e.e.e.w.5.1.<.g.;   F.[.[.[.[.~.W.R.y R I   }.}.}.}.}.}.}.}.}.}.}.}.",
"}.}.}.}.}.}.}.}.}.}.}.}.}.}.}.}.}.}.}.}.}.}.}.}.}.  ) [.[.Y.t.8.7.<.<.<.<.2.d.o = ).[.[.[.].E.E.B.  }.}.}.}.}.}.}.}.}.}.}.}.}.}.",
"}.}.}.}.}.}.}.}.}.}.}.}.}.}.}.}.}.}.}.}.}.}.}.}.}.  % ].[.].g.<.<.<.<.<.<.<.3.Q   D [.[.[.[.).W.W.. }.}.}.}.}.}.}.}.}.}.}.}.}.}.",
"}.}.}.}.}.}.}.}.}.}.}.}.}.}.}.}.}.}.}.}.}.}.}.}.}.}.  N.[.~.!.h.<.<.<.<.<.<.<.4.F   ` [.[.[.].!.E.q }.}.}.}.}.}.}.}.}.}.}.}.}.}.",
"}.}.}.}.}.}.}.}.}.}.}.}.}.}.}.}.}.}.}.}.}.}.}.}.}.}.  % ).!.E.W.q.<.<.<.<.<.<.<.3.=   C.[.[.[.!.W.P   }.}.}.}.}.}.}.}.}.}.}.}.}.",
"}.}.}.}.}.}.}.}.}.}.}.}.}.}.}.}.}.}.}.}.}.}.}.}.}.}.}.  P ~.E.W.W.f.1.<.<.<.B v 4 X     N.{.~.E.E.I   }.}.}.}.}.}.}.}.}.}.}.}.}.",
"}.}.}.}.}.}.}.}.}.}.}.}.}.}.}.}.}.}.}.}.}.}.}.}.}.}.}.}.  A D.R.F.C.W C b w y 8 8 ;     . D J.` t   }.}.}.}.}.}.}.}.}.}.}.}.}.}.",
"}.}.}.}.}.}.}.}.}.}.}.}.}.}.}.}.}.}.}.}.}.}.}.}.}.}.}.}.}.    8 N.R.E.E.E.E.E.E.E.E.I   }.      }.}.}.}.}.}.}.}.}.}.}.}.}.}.}.}.",
"}.}.}.}.}.}.}.}.}.}.}.}.}.}.}.}.}.}.}.}.}.}.}.}.}.}.}.}.}.}.}.    8 Q F.W.E.E.E.W.E.Q   }.}.}.}.}.}.}.}.}.}.}.}.}.}.}.}.}.}.}.}.",
"}.}.}.}.}.}.}.}.}.}.}.}.}.}.}.}.}.}.}.}.}.}.}.}.}.}.}.}.}.}.}.}.}.    . A V.R.E.H.Q o }.}.}.}.}.}.}.}.}.}.}.}.}.}.}.}.}.}.}.}.}.",
"}.}.}.}.}.}.}.}.}.}.}.}.}.}.}.}.}.}.}.}.}.}.}.}.}.}.}.}.}.}.}.}.}.}.}.}.}.          }.}.}.}.}.}.}.}.}.}.}.}.}.}.}.}.}.}.}.}.}.}.",
"}.}.}.}.}.}.}.}.}.}.}.}.}.}.}.}.}.}.}.}.}.}.}.}.}.}.}.}.}.}.}.}.}.}.}.}.}.}.}.}.}.}.}.}.}.}.}.}.}.}.}.}.}.}.}.}.}.}.}.}.}.}.}.}."
};
