/* XPM */
static char *result[] = {
/* columns rows colors chars-per-pixel */
"64 64 94 2 ",
"   c #010101",
".  c #090807",
"X  c #00050A",
"o  c #0B0B0B",
"O  c #100E0D",
"+  c #13110F",
"@  c #000E1C",
"#  c #131313",
"$  c #1A1715",
"%  c #1C1917",
"&  c #1C1B1B",
"*  c #211D1B",
"=  c #25211E",
"-  c #0C1825",
";  c #00172E",
":  c #001931",
">  c #01203E",
",  c #232323",
"<  c #2A2522",
"1  c #2C2C2C",
"2  c #322C29",
"3  c #37302D",
"4  c #3A332F",
"5  c #343434",
"6  c #3C3C3C",
"7  c #002143",
"8  c #00254A",
"9  c #002B56",
"0  c #002C58",
"q  c #003263",
"w  c #00366B",
"e  c #003A75",
"r  c #444444",
"t  c #4B4B4B",
"y  c #545454",
"u  c #5C5C5C",
"i  c #646464",
"p  c #6C6C6C",
"a  c #747474",
"s  c #7D7D7D",
"d  c #004285",
"f  c #00468B",
"g  c #004A94",
"h  c #004D9A",
"j  c #0F5398",
"k  c #16589A",
"l  c #22609D",
"z  c #0052A3",
"x  c #0057AF",
"c  c #0A5EB2",
"v  c #0062C5",
"b  c #0066CC",
"n  c #0468CD",
"m  c #0F6FCF",
"M  c #1371D0",
"N  c #1B76D1",
"B  c #227BD3",
"V  c #2F82D5",
"C  c #3D8BD8",
"Z  c #4992DA",
"A  c #5A9CDE",
"S  c #7DB1E5",
"D  c #838383",
"F  c #8B8B8B",
"G  c #949494",
"H  c #9B9B9B",
"J  c #92A7BC",
"K  c #9AACBE",
"L  c #A4A4A4",
"P  c #ADADAD",
"I  c #B4B4B4",
"U  c #BCBCBC",
"Y  c #8FA9C3",
"T  c #9EB0C2",
"R  c #A0B0C0",
"E  c #AFB9C4",
"W  c #86B6E7",
"Q  c #BEC3C8",
"!  c #ACCDEE",
"~  c #C4C4C4",
"^  c #CCCCCC",
"/  c #CBD0D6",
"(  c #D3D3D3",
")  c #DBDBDB",
"_  c #C8DAED",
"`  c #DCE5EF",
"'  c #DCEAF8",
"]  c #E4E4E4",
"[  c #ECECEC",
"{  c #ECF3FB",
"}  c #F4F4F4",
"|  c #F7FAFD",
" . c #FFFFFF",
".. c None",
/* pixels */
"........................................................                    ....................................................",
"..............................................      O % , < 2 3 4 2 2 < < * # .     ............................................",
"..........................................  o * 2 4 2 < * % % # # + + # $ * = 2 2 = o   ........................................",
"......................................... = 2 < $ # @ 7 0 w e e e e q w 0 9 > < O % < %   ......................................",
"......................................  * % # r G Y v b b b b b b b b b b b n ` U s 1 o .   ....................................",
"......................................  $ i ^  . .W b b b b b b b b b b b b b !  . .} L 5   ....................................",
"....................................  6 ~  . . . .A b b b b b b b b b b b b b S  . . . .} s . ..................................",
"....................................y }  . . . . .V b b b b b b b b b b b b b A  . . . . .| G . ................................",
"..................................< [  . . . . . .N b b b b b b b b b b b b b Z  . . . . . . .y   ..............................",
"................................  P  . . . . . . .N b b b b b b b b b b b b b Z  . . . . . . .^ . ..............................",
"................................$ }  . . . . . . .m b b b b b b b b b b b b b V  . . . . . . .| 1   ............................",
"..............................  i  . . . . . . . .b b b b b b b b b b b b b b B  . . . . . . . .G   ............................",
"..............................  I  . . . . . . . .b b b b b b b b b b b b b b N {  . . . . . . .(   ............................",
"............................  . )  . . . . . . .| b b b b b v v v v v v b b b M '  . . . . . . .} $   ..........................",
"..........................    $ }  . . . . . . .{ v x z h h g g g g g g h h z c _  . . . . . . . .5     ........................",
"..........................$ , ,  . . . . . . .} / g g g g g g g g g g g g g g g T ` }  . . . . . .y o 1   ......................",
"........................  H < 6  . . . . . .] ^ Q g g g g g g g g g g g g g g g J ^ ( }  . . . . .p . U . ......................",
"........................6 | , y  . . . . .] ^ ^ Q d @ ; g g g g g g g g g g g g J ^ ^ ^ [  . . . .p . ] 6 ......................",
"......................  G  .1 y  . . . .] ^ ^ ^ Q 0 i y f g g g g g g g g g g g J ^ ^ ^ ^ }  . . .p o ] y ......................",
"......................  U  .r 6  . . .[ ^ ^ ^ ^ ^ : G p w g g g g g g g g g g g J ^ ^ ^ ^ ( |  . .i # ^ 1 ......................",
"........................s [ i , |  . .( ^ ^ ^ ^ ^ X U s 9 g g g g g g g g g g g K ^ ^ ^ ^ ^ ]  . .t , G . ......................",
"........................, ~ s o ]  .] ^ ^ ^ ^ ^ ^   ] s 8 g g g g g g g g g g g K ^ ^ ^ ^ ^ ^ |  .1 5 < ........................",
"........................  i L   U  .( ^ ^ ^ ^ ^ ^    .s 8 g g g g g g g g g g j K ^ ^ ^ ^ ^ ^ ] ] .     ........................",
"..........................  y O u [ ^ ^ ^ ^ ^ ^ U    .s 8 g g g g g g g g g g j R ^ ^ ^ ^ ^ ^ ( P     ..........................",
"............................    # ^ ^ ^ ^ ^ ^ ^ I #  .s 7 g g g g g g g g g g j E ^ ^ ^ ^ ^ ^ ^ t   ............................",
"................................  D ^ ^ ^ ^ ^ ^ P #  .s 7 g g g g g g g g g g k Q ^ ^ ^ ^ ^ ^ I . ..............................",
"................................  * ~ ^ ^ ^ ^ ^ P %  .D > g g g g g g g g g g l ^ ^ ^ ^ ^ ^ ^ y   ..............................",
"..................................  p ^ ^ ^ P H D ,  .F : e d h g g g d : @ @ - t P ^ ^ ^ ^ L   ................................",
"..................................  . L ^ ^ , 1 1 1  .G # 1 # 0 f g e X r L ) ) F $ F ^ ^ ~ ,   ................................",
"....................................  < U L 5 } / 1 ( s a  .p # % # X F  .} [ }  .D & Q ^ r   ..................................",
"......................................  , & t  .) 5 ^ a D  .H i  .[ $ H ,   # # , D . i y   ....................................",
"......................................  # 6 i  .[   + . G  .I i  .] . O G [  . .( , # %   ......................................",
"....................................    H G u ) } ~ Q (  . .L i  . .# ~  . . . . .L % ~ # ......................................",
"..................................  r . ) ( 1 L ^ F a s ) ( y H  .( 1  . .s , p  .) = ] t   ....................................",
"................................  F H . /  .I < p U ~ ^ I t 2 }  .[ 1 } U y [ % ] ~ y  .p     ..................................",
"..............................  a | a o t }  .[ G 6 o # t L |  . . .^ t , (  .p   & ( ( # & s   ................................",
"..............................6 )  .p s D 6 F )  . . . . . . . . . . . . . . . .[ [ I y G % ) i   ..............................",
"............................. P }  .p G  .^ a u F ^ |  . . . . . . . . . . .[ I F i s ] ) , } ^ 5 ..............................",
"..........................  r /  . .a s  . . . .[ ) }  . . .] | ] | [  . . .) ^ `  . . .^ 1  .] L . ............................",
"........................... P )  . .G p  . . . . . . . . . .& ) 1 ~ p  . . . . . . . . .I r  .} ^ r   ..........................",
"..........................3 ^ [  . .P u  . . . . . . . . . .  ) , I p  . . . . . . . . .H y  . ./ L . ..........................",
"........................  u ^ }  . .^ r  . . . . . . . . . .  ) < I p  . . . . . . . . .D a  . .) U # ..........................",
"........................  # p [  . .) 5 }  . . . . . . . . .  ) , I p  . . . . . . . . .i H  . .I = &   ........................",
"........................o L t 5 (  .u # ]  . . . . . . . . .< ) r ~ D  . . . . . . . . .t L  .L & H H   ........................",
"........................1 ^ } F , L .   ^  . . . . . . . . . . . . . . . . . . . . . .[ 1 , L & ( [ ~ & ........................",
"........................t ^ }  .H       I  . . . . . . . .| } }  . . . . . . . . . . .] .   . U  .| ^ t ........................",
"........................s ^ |  .)   ..  H  .| [ [ }  . . .^ ^ ^ )  . . . . . . . . . .~ $ # . )  .} ^ p ........................",
"........................i ^ ) | D ....  s  .} ^ ^ ^ [  . .( ^ ^ )  . . . . . . . . . .H y Q   a } ( ^ 6 ........................",
"........................o y I ^ 1 ....  i  .} ^ ^ ^ ]  . .( ^ ^ )  . . . . . . . . . .s a [ # $ I H 1 ..........................",
"............................o % ....... 6 | } ^ ^ ^ ]  . .^ ^ ^ ]  .| ) ( ( ) ) )  . .u H [ o ..o . ............................",
"......................................o , [ } ^ ^ ^ ]  . .^ ^ ^ [  .} ^ ^ ^ ^ ^ (  .| r ^ ~   ..................................",
".......................................   ^  .( ^ ^ )  . .[ ^ ^ }  .[ ^ ^ ^ ^ ^ )  .) 1 } i ....................................",
"......................................    P  .) ^ ^ (  . . .}  . . .] ^ ^ ^ ^ ^ ]  .I r ^ o ....................................",
"......................................    a  .) ^ ^ ^  . . . . . . .] ^ ^ ^ ^ ^ ]  .D u 6 ......................................",
"........................................  6 } [ ^ ^ ^ ) } |  .| } [ ( ^ ^ ^ ^ ^ [ | r . ........................................",
"........................................  . ( } ^ ^ ^ ^ ^ ( ^ ( ^ ^ ^ ^ ^ ^ ^ ( } ) O ..........................................",
"..........................................  s } ) ^ ^ ^ ^ ^ ^ ^ ^ ^ ^ ^ ^ ^ ^ )  .F   ..........................................",
"............................................  . 6 p G P U ~ ^ ^ ^ ^ ^ U I H D i 1   ............................................",
"..............................................  $ #         # , 1 1 #             ..............................................",
"................................................. 1 $   ........................................................................",
"................................................................................................................................",
"................................................................................................................................",
"................................................................................................................................",
"................................................................................................................................"
};
