/* XPM */
static char *result[] = {
/* columns rows colors chars-per-pixel */
"64 64 101 2 ",
"   c #B44B00",
".  c #B94F00",
"X  c #AF5000",
"o  c #B05300",
"O  c #BA5500",
"+  c #B95C00",
"@  c #BB6400",
"#  c #C15A00",
"$  c #C46402",
"%  c #CA6700",
"&  c #C36D00",
"*  c #C96B00",
"=  c #C96B0B",
"-  c #C67300",
";  c #CD7C02",
":  c #C7770E",
">  c #D67601",
",  c #D07C0F",
"<  c #C3731B",
"1  c #D58300",
"2  c #DC8500",
"3  c #D58B00",
"4  c #DD8C01",
"5  c #D4880E",
"6  c #DD9400",
"7  c #DC9900",
"8  c #C9811C",
"9  c #D28F1E",
"0  c #E48A00",
"q  c #E59400",
"w  c #EA9300",
"e  c #E39A00",
"r  c #EA9B00",
"t  c #F19F00",
"y  c #DCA800",
"u  c #E5A400",
"i  c #EBA300",
"p  c #E6A900",
"a  c #EBAC00",
"s  c #F1A300",
"d  c #F1AC00",
"f  c #ECB400",
"g  c #EEBA02",
"h  c #EFB90C",
"j  c #F1B300",
"k  c #F2BB00",
"l  c #EFBA14",
"z  c #EAB11E",
"x  c #EFBA1A",
"c  c #D29820",
"v  c #D4922A",
"b  c #CC8E36",
"n  c #D9AC2E",
"m  c #DEB62E",
"M  c #D5A235",
"N  c #DEB239",
"B  c #EEBB20",
"V  c #E5C100",
"C  c #EFC200",
"Z  c #E5C800",
"A  c #EDC900",
"S  c #F2C200",
"D  c #F9C600",
"F  c #F3CA00",
"G  c #FACA00",
"H  c #EFD700",
"J  c #F5D200",
"K  c #FAD400",
"L  c #F5DA00",
"P  c #FADD00",
"I  c #EFE200",
"U  c #F5E400",
"Y  c #FAE300",
"T  c #F7EA00",
"R  c #FAEB00",
"E  c #F4EB0E",
"W  c #F7F200",
"Q  c #FAF401",
"!  c #FAFA00",
"~  c #FAFA0F",
"^  c #EFE11F",
"/  c #FAFA11",
"(  c #E6CD3D",
")  c #EAD532",
"_  c #FAFA25",
"`  c #F9F93E",
"'  c #DCB450",
"]  c #DEB952",
"[  c #E0BF4A",
"{  c #E3C64C",
"}  c #EAD553",
"|  c #EDDE5B",
" . c #F1E649",
".. c #F9F940",
"X. c #F8F752",
"o. c #F9F952",
"O. c #EFE36E",
"+. c #F2EA60",
"@. c #F6F368",
"#. c #F8F86A",
"$. c None",
/* pixels */
"$.$.$.$.$.$.$.$.$.$.$.$.$.$.$.$.$.$.$.$.$.$.$.$.$.$.$.$.$.$.$.$.$.$.$.$.$.$.$.$.$.$.$.$.$.$.$.$.$.$.$.$.$.$.$.$.$.$.$.$.$.$.$.$.",
"$.$.$.$.$.$.$.$.$.$.$.$.$.$.$.$.$.$.$.$.$.$.$.$.$.$.$.$.$.$.$.$.$.$.$.$.$.$.$.$.$.$.$.$.$.$.$.$.$.$.$.$.$.$.$.$.$.$.$.$.$.$.$.$.",
"$.$.$.$.$.$.$.$.$.$.$.$.$.$.$.$.$.$.$.$.$.$.$.$.$.$.$.$.$.$.$.$.$.$.$.$.$.$.$.$.$.$.$.$.$.$.$.$.$.$.$.$.$.$.$.$.$.$.$.$.$.$.$.$.",
"$.$.$.$.$.$.$.$.$.$.$.$.$.$.$.$.$.$.$.$.$.$.$.$.$.$.$.$.$.$.$.$.$.$.$.$.$.$.$.$.$.$.$.$.$.$.$.$.$.$.$.$.$.$.$.$.$.$.$.$.$.$.$.$.",
"$.$.$.$.$.$.$.$.$.$.$.$.$.$.$.$.$.$.$.$.$.$.$.$.$.$.$.$.$.$.$.$.$.$.$.$.$.$.$.$.$.$.$.$.$.$.$.$.$.$.$.$.$.$.$.$.$.$.$.$.$.$.$.$.",
"$.$.$.$.$.$.$.$.$.$.$.$.$.$.$.$.$.$.$.$.$.$.$.$.$.$.$.$.$.$.$.$.$.$.$.$.$.$.$.$.$.$.$.$.$.$.$.$.$.$.$.$.$.$.$.$.$.$.$.$.$.$.$.$.",
"$.$.$.$.$.$.$.$.$.$.$.$.$.$.$.$.$.$.$.$.$.$.$.$.$.$.$.$.$.$.$.$.$.$.$.$.$.$.$.$.$.$.$.$.$.$.$.$.$.$.$.$.$.$.$.$.$.$.$.$.$.$.$.$.",
"$.$.$.$.$.$.$.$.$.$.$.$.$.$.$.$.$.$.$.$.$.$.$.$.$.$.$.$.$.$.$.$.$.$.$.$.$.$.$.$.$.$.$.$.$.$.$.$.$.$.$.$.$.$.$.$.$.$.$.$.$.$.$.$.",
"$.$.$.$.$.$.$.$.$.$.$.$.$.$.$.$.$.$.$.$.$.$.$.$.$.$.$.P P Y Y Y T T R $.$.$.$.$.$.$.$.$.$.$.$.$.$.$.$.$.$.$.$.$.$.$.$.$.$.$.$.$.",
"$.$.$.$.$.$.$.$.$.$.$.$.$.$.$.$.$.$.$.$.$.$.$.J K K P P P P P Y Y Y T R R Q Q $.$.$.$.$.$.$.$.$.$.$.$.$.$.$.$.$.$.$.$.$.$.$.$.$.",
"$.$.$.$.$.$.$.$.$.$.$.$.$.$.$.$.$.$.$.$.$.G K K K F S k g k k k k S D J L U R Q Q $.$.$.$.$.$.$.$.$.$.$.$.$.$.$.$.$.$.$.$.$.$.$.",
"$.$.$.$.$.$.$.$.$.$.$.$.$.$.$.$.$.$.$.G G G D k d d d d d d d j j j g j g C J U Q Q ! $.$.$.$.$.$.$.$.$.$.$.$.$.$.$.$.$.$.$.$.$.",
"$.$.$.$.$.$.$.$.$.$.$.$.$.$.$.$.$.$.G K D j s t s s d s d d d d d j j j k j k k F U Q ! $.$.$.$.$.$.$.$.$.$.$.$.$.$.$.$.$.$.$.$.",
"$.$.$.$.$.$.$.$.$.$.$.$.$.$.$.$.P K K k s s t s s s s d s d d d d j d j j k j k k k J T ! ! $.$.$.$.$.$.$.$.$.$.$.$.$.$.$.$.$.$.",
"$.$.$.$.$.$.$.$.$.$.$.$.$.$.$.$.P K k d s s t t t s s s d d d d d j j j j j g k k g S F U ! ! $.$.$.$.$.$.$.$.$.$.$.$.$.$.$.$.$.",
"$.$.$.$.$.$.$.$.$.$.$.$.$.$.$.Y K k d s d s s s t s s s s s i g j d d j j j j j k k k k S L Q ! $.$.$.$.$.$.$.$.$.$.$.$.$.$.$.$.",
"$.$.$.$.$.$.$.$.$.$.$.$.$.$.Y P k f d d d s s s t t s s s s y I J d j d j j j j g k k k k S U Q ! $.$.$.$.$.$.$.$.$.$.$.$.$.$.$.",
"$.$.$.$.$.$.$.$.$.$.$.$.$.R Y S j j d d d s d s s s t t s e I ! ! J d d d d j j j j k k k k A T ! ! $.$.$.$.$.$.$.$.$.$.$.$.$.$.",
"$.$.$.$.$.$.$.$.$.$.$.$.Q R J k j j d d d d s s s s t s r g ! ! ! ! D a d d j j j j k j k k S F T ! $.$.$.$.$.$.$.$.$.$.$.$.$.$.",
"$.$.$.$.$.$.$.$.$.$.$.Q Q L S j j j j j d d d d s s s q y W ! ! ! ! Q k d j d j j j j j g k g k F Q ! $.$.$.$.$.$.$.$.$.$.$.$.$.",
"$.$.$.$.$.$.$.$.$.$.$.! Q S g k k j j j j d d d d s s 7 ! ! ! ! ! ! ! Q j d j j d j j j k j k k S Y Q $.$.$.$.$.$.$.$.$.$.$.$.$.",
"$.$.$.$.$.$.$.$.$.$.Q Q U S S k k k j j j d d d d s 6 U ! ! ! ! ! ! ! ! T d d d j d j j j j k k k A R Q $.$.$.$.$.$.$.$.$.$.$.$.",
"$.$.$.$.$.$.$.$.$.$.R R A S S k k k g j j j j d d 7 A ! ! ! ! ! ! ! ! ! ! P d d d d j j j j k k g k J Q Q $.$.$.$.$.$.$.$.$.$.$.",
"$.$.$.$.$.$.$.$.$.$.T L k S A S g k k k j j j j k H Q Q Q Q Q Q Q Q Q Q Q Q R F j d j d j j j j k k S Q Q $.$.$.$.$.$.$.$.$.$.$.",
"$.$.$.$.$.$.$.$.$.P Y S k k S S S C k k k k G P T R R R R R R R R R R R R R R R Y P D k j j j j j k k U Q $.$.$.$.$.$.$.$.$.$.$.",
"$.$.$.$.$.$.$.$.$.P K j j k g S S S k F P Y Y Y Y Y Y Y Y Y Y Y Y Y Y Y Y Y Y Y Y Y Y P K G j f j j k F R $.$.$.$.$.$.$.$.$.$.$.",
"$.$.$.$.$.$.$.$.$.K F j j j k k S J P P P P P P P Y Y P Y P P P P K Y P P Y K P P P P P P P P g a i i g R Q $.$.$.$.$.$.$.$.$.$.",
"$.$.$.$.$.$.$.$.$.K k d d j a @ g K K K K K K K K K K K K K K K K K K K K K K K K K K K K K K 1 e i i a Y R $.$.$.$.$.$.$.$.$.$.",
"$.$.$.$.$.$.$.$.G G j d d d d - @ S K G G K G G G K G G G G G G G G G G G G K G G G G G G G u 4 r i i i L T $.$.$.$.$.$.$.$.$.$.",
"$.$.$.$.$.$.$.$.G G d s d d d a @ - D D G G G G G G G G G G G G G G G G G G G G G G G G G S 1 i i r i u F R $.$.$.$.$.$.$.$.$.$.",
"$.$.$.$.$.$.$.$.G D d s s d d j u o p G G G G G G G G G G G G G G G G G G G G G G G G G D 7 e r r r i i S T $.$.$.$.$.$.$.$.$.$.",
"$.$.$.$.$.$.$.$.G D s t s s s d f 7 o u G G G G G G G G G G G G G G G G G G G G G G G G e 2 r r r i r r A Y $.$.$.$.$.$.$.$.$.$.",
"$.$.$.$.$.$.$.$.G G s t t s s s d j - @ k G G G G G G G G G G G G G G G G G G G G G G j 2 r r r r r r r S Y $.$.$.$.$.$.$.$.$.$.",
"$.$.$.$.$.$.$.$.G G d t t s s s s d i & 1 G G G G G G G G G G G G G G G G G G D G G D q q w r r r r r r S P $.$.$.$.$.$.$.$.$.$.",
"$.$.$.$.$.$.$.$.D G d t t t t t s d d r + 6 G G G G G G G G G G G G G G G G G G G G u 0 w w r w r r r i F P $.$.$.$.$.$.$.$.$.$.",
"$.$.$.$.$.$.$.$.$.G j t t t t t s i i i * O K K K G K K K G K K K K K K K K G K K K a w w w w r w r r i J P $.$.$.$.$.$.$.$.$.$.",
"$.$.$.$.$.$.$.$.$.G k t t t w w w w w r 2   P P P P P P Y P P Y Y P P P Y P Y Y Y P f w w w w r w r r i P P $.$.$.$.$.$.$.$.$.$.",
"$.$.$.$.$.$.$.$.$.G k t w w w w w w w r 0   T T R R R R T T R R R R R R R R R R R R j w w w w w q r w f K $.$.$.$.$.$.$.$.$.$.$.",
"$.$.$.$.$.$.$.$.$.G G t w w w w w w w w 0   R Q Q ! Q Q Q ! Q Q Q Q Q ~ ! Q Q ! Q ! j r w w w w w w r k K $.$.$.$.$.$.$.$.$.$.$.",
"$.$.$.$.$.$.$.$.$.$.G d w w w w w w w w 0 O E ~ / ~ / / / / / ~ / / / / / / / / / / h r r r w w w w r G K $.$.$.$.$.$.$.$.$.$.$.",
"$.$.$.$.$.$.$.$.$.$.G D r w w w w w w w 0 # ^ _ _ _ _ _ _ _ _ _ _ _ _ _ _ _ _ _ _ _ l u r r r w w w a K $.$.$.$.$.$.$.$.$.$.$.$.",
"$.$.$.$.$.$.$.$.$.$.$.G d w w w w w w w 0 # ) ` ` ` ` ` ` ` ` ` ..` ................x r r r r w w t k G $.$.$.$.$.$.$.$.$.$.$.$.",
"$.$.$.$.$.$.$.$.$.$.$.G k t w w w w w w w # ( X.o.o.X.X.X. .( m c n (  .o.o.o.o.o.o.x r r r r w r j G $.$.$.$.$.$.$.$.$.$.$.$.$.",
"$.$.$.$.$.$.$.$.$.$.$.$.G j w w w 0 w w w # [ @.#.+.} N 9 5 4 6 e 3 ; , 8 M { | @.#.B i r r r r a G G $.$.$.$.$.$.$.$.$.$.$.$.$.",
"$.$.$.$.$.$.$.$.$.$.$.$.G D s w w 0 w w w % ' O.] v , 2 r r i i a a a f 7 ; @ < b ] B r r r r i k K $.$.$.$.$.$.$.$.$.$.$.$.$.$.",
"$.$.$.$.$.$.$.$.$.$.$.$.$.G G s w w w w w > = > 0 w w r r r i i i a a a a a a a u 1 q i i i p F P $.$.$.$.$.$.$.$.$.$.$.$.$.$.$.",
"$.$.$.$.$.$.$.$.$.$.$.$.$.$.G k t w w w w w w w w w w w r r r i i i a a a a a a a p p p i p S P P $.$.$.$.$.$.$.$.$.$.$.$.$.$.$.",
"$.$.$.$.$.$.$.$.$.$.$.$.$.$.$.D k t w w 0 w w w w w w w w w r r r i i p a a f a a a i i a A P P $.$.$.$.$.$.$.$.$.$.$.$.$.$.$.$.",
"$.$.$.$.$.$.$.$.$.$.$.$.$.$.$.$.G D a w w w w w w w w w w w w r r i i i a a a f a a a g L Y Y $.$.$.$.$.$.$.$.$.$.$.$.$.$.$.$.$.",
"$.$.$.$.$.$.$.$.$.$.$.$.$.$.$.$.$.G D j r w w w w w 0 w w w w w r r r p u a p a a f A U R R $.$.$.$.$.$.$.$.$.$.$.$.$.$.$.$.$.$.",
"$.$.$.$.$.$.$.$.$.$.$.$.$.$.$.$.$.$.G G D j t w w w w w w w w w w r r r i p a f A T ! Q $.$.$.$.$.$.$.$.$.$.$.$.$.$.$.$.$.$.$.$.",
"$.$.$.$.$.$.$.$.$.$.$.$.$.$.$.$.$.$.$.$.D D D d t w w w w w w w w r r r i a C L W ! ! $.$.$.$.$.$.$.$.$.$.$.$.$.$.$.$.$.$.$.$.$.",
"$.$.$.$.$.$.$.$.$.$.$.$.$.$.$.$.$.$.$.$.$.$.G G D k j d s s r i i s j k F P Y R T $.$.$.$.$.$.$.$.$.$.$.$.$.$.$.$.$.$.$.$.$.$.$.",
"$.$.$.$.$.$.$.$.$.$.$.$.$.$.$.$.$.$.$.$.$.$.$.$.D G G G G D D D D G G K K P $.$.$.$.$.$.$.$.$.$.$.$.$.$.$.$.$.$.$.$.$.$.$.$.$.$.",
"$.$.$.$.$.$.$.$.$.$.$.$.$.$.$.$.$.$.$.$.$.$.$.$.$.$.$.$.$.G D G G $.$.$.$.$.$.$.$.$.$.$.$.$.$.$.$.$.$.$.$.$.$.$.$.$.$.$.$.$.$.$.",
"$.$.$.$.$.$.$.$.$.$.$.$.$.$.$.$.$.$.$.$.$.$.$.$.$.$.$.$.$.$.$.$.$.$.$.$.$.$.$.$.$.$.$.$.$.$.$.$.$.$.$.$.$.$.$.$.$.$.$.$.$.$.$.$.",
"$.$.$.$.$.$.$.$.$.$.$.$.$.$.$.$.$.$.$.$.$.$.$.$.$.$.$.$.$.$.$.$.$.$.$.$.$.$.$.$.$.$.$.$.$.$.$.$.$.$.$.$.$.$.$.$.$.$.$.$.$.$.$.$.",
"$.$.$.$.$.$.$.$.$.$.$.$.$.$.$.$.$.$.$.$.$.$.$.$.$.$.$.$.$.$.$.$.$.$.$.$.$.$.$.$.$.$.$.$.$.$.$.$.$.$.$.$.$.$.$.$.$.$.$.$.$.$.$.$.",
"$.$.$.$.$.$.$.$.$.$.$.$.$.$.$.$.$.$.$.$.$.$.$.$.$.$.$.$.$.$.$.$.$.$.$.$.$.$.$.$.$.$.$.$.$.$.$.$.$.$.$.$.$.$.$.$.$.$.$.$.$.$.$.$.",
"$.$.$.$.$.$.$.$.$.$.$.$.$.$.$.$.$.$.$.$.$.$.$.$.$.$.$.$.$.$.$.$.$.$.$.$.$.$.$.$.$.$.$.$.$.$.$.$.$.$.$.$.$.$.$.$.$.$.$.$.$.$.$.$.",
"$.$.$.$.$.$.$.$.$.$.$.$.$.$.$.$.$.$.$.$.$.$.$.$.$.$.$.$.$.$.$.$.$.$.$.$.$.$.$.$.$.$.$.$.$.$.$.$.$.$.$.$.$.$.$.$.$.$.$.$.$.$.$.$.",
"$.$.$.$.$.$.$.$.$.$.$.$.$.$.$.$.$.$.$.$.$.$.$.$.$.$.$.$.$.$.$.$.$.$.$.$.$.$.$.$.$.$.$.$.$.$.$.$.$.$.$.$.$.$.$.$.$.$.$.$.$.$.$.$.",
"$.$.$.$.$.$.$.$.$.$.$.$.$.$.$.$.$.$.$.$.$.$.$.$.$.$.$.$.$.$.$.$.$.$.$.$.$.$.$.$.$.$.$.$.$.$.$.$.$.$.$.$.$.$.$.$.$.$.$.$.$.$.$.$.",
"$.$.$.$.$.$.$.$.$.$.$.$.$.$.$.$.$.$.$.$.$.$.$.$.$.$.$.$.$.$.$.$.$.$.$.$.$.$.$.$.$.$.$.$.$.$.$.$.$.$.$.$.$.$.$.$.$.$.$.$.$.$.$.$."
};
