/* XPM */
static char *result[] = {
/* columns rows colors chars-per-pixel */
"64 64 89 1 ",
"  c #BD6100",
". c #C45D00",
"X c #C46402",
"o c #C96300",
"O c #C46A00",
"+ c #CE6A00",
"@ c #C56F0E",
"# c #CB7201",
"$ c #CD7A00",
"% c #CC7C0A",
"& c #D57D05",
"* c #D87A05",
"= c #D48301",
"- c #D28800",
"; c #DB8B01",
": c #D68C0E",
"> c #DB9200",
", c #CE881C",
"< c #E48D00",
"1 c #E98E00",
"2 c #E59100",
"3 c #EE9500",
"4 c #E39900",
"5 c #ED9B00",
"6 c #F19C00",
"7 c #D5AB00",
"8 c #D9AE00",
"9 c #DDB100",
"0 c #E5A300",
"q c #EDA300",
"w c #E7A800",
"e c #EDAC00",
"r c #F5A400",
"t c #F6AB00",
"y c #E3B600",
"u c #EDB200",
"i c #E6B900",
"p c #ECBC00",
"a c #F5B400",
"s c #F9B400",
"d c #F4BB00",
"f c #F9BB00",
"g c #CC892C",
"h c #D28624",
"j c #D68F20",
"k c #D99B23",
"l c #DCAD37",
"z c #EFC400",
"x c #F5C300",
"c c #FAC500",
"v c #F4CC00",
"b c #FECC00",
"n c #EED100",
"m c #F4D400",
"M c #FED300",
"N c #F6DA00",
"B c #FDDB00",
"V c #F6E300",
"C c #FDE300",
"Z c #F7E900",
"A c #FDEB00",
"S c #FCF400",
"D c #FDFB00",
"F c #FDF70A",
"G c #FEFE0A",
"H c #FCF61F",
"J c #FEFE1F",
"K c #E8CB35",
"L c #EBD138",
"P c #FEFE21",
"I c #FCF636",
"U c #FDFD37",
"Y c #FDFD39",
"T c #E1BC4F",
"R c #E9CC45",
"E c #E4C04E",
"W c #ECD54E",
"Q c #F2E240",
"! c #F7ED43",
"~ c #FCF547",
"^ c #FDFD4B",
"/ c #F4E857",
"( c #F7F15D",
") c #FAF35E",
"_ c #F7EB67",
"` c #F4E869",
"' c #FCFC64",
"] c #F7F06E",
"[ c None",
/* pixels */
"[[[[[[[[[[[[[[[[[[[[[[[[[[[[[[[[[[[[[[[[[[[[[[[[[[[[[[[[[[[[[[[[",
"[[[[[[[[[[[[[[[[[[[[[[[[[[[[[[[[[[[[[[[[[[[[[[[[[[[[[[[[[[[[[[[[",
"[[[[[[[[[[[[[[[[[[[[[[[[[[[[[[[[[[[[[[[[[[[[[[[[[[[[[[[[[[[[[[[[",
"[[[[[[[[[[[[[[[[[[[[[[[[[[[[[[[[[[[[[[[[[[[[[[[[[[[[[[[[[[[[[[[[",
"[[[[[[[[[[[[[[[[[[[[[[[[[[[[[[[[[[[[[[[[[[[[[[[[[[[[[[[[[[[[[[[[",
"[[[[[[[[[[[[[[[[[[[[[[[[[[[[[[[[[[[[[[[[[[[[[[[[[[[[[[[[[[[[[[[[",
"[[[[[[[[[[[[[[[[[[[[[[[[[[[[[[[[[[[[[[[[[[[[[[[[[[[[[[[[[[[[[[[[",
"[[[[[[[[[[[[[[[[[[[[[[[[[[[[[[[[[[[[[[[[[[[[[[[[[[[[[[[[[[[[[[[[",
"[[[[[[[[[[[[[[[[[[[[[[[[[[bcvMBCAAAA[[[[[[[[[[[[[[[[[[[[[[[[[[[[",
"[[[[[[[[[[[[[[[[[[[[[[[bbbvMBCCCCCZAASS[[[[[[[[[[[[[[[[[[[[[[[[[",
"[[[[[[[[[[[[[[[[[[[[[bbbbbMBMMccvcvmNZASS[[[[[[[[[[[[[[[[[[[[[[[",
"[[[[[[[[[[[[[[[[[[[[bbbbbMbfaatsaasdxxnZSD[[[[[[[[[[[[[[[[[[[[[[",
"[[[[[[[[[[[[[[[[[[[bbbbMbctrtttsasadfddxNSDS[[[[[[[[[[[[[[[[[[[[",
"[[[[[[[[[[[[[[[[[bbbbMBbsrrrtttttaaasdddpzZDD[[[[[[[[[[[[[[[[[[[",
"[[[[[[[[[[[[[[[[[bMbMBMftrrrrtrstaasafdddxzZDD[[[[[[[[[[[[[[[[[[",
"[[[[[[[[[[[[[[[[bbbMCBftttrrrrtttaaaadadddxzZS[[[[[[[[[[[[[[[[[[",
"[[[[[[[[[[[[[[[bbbMCCcatttrrrrrtqNdaaaadddpdnSD[[[[[[[[[[[[[[[[[",
"[[[[[[[[[[[[[[[bbbBAMdaaattrrrrriDBaaaaddddddnSS[[[[[[[[[[[[[[[[",
"[[[[[[[[[[[[[[bbbBACfdaaartrrrr4DDDMaaaaddddpxZD[[[[[[[[[[[[[[[[",
"[[[[[[[[[[[[[[bbbASMddsaatsttr6NDDDDdtaaadddpdvZD[[[[[[[[[[[[[[[",
"[[[[[[[[[[[[[bbbMDAcddfaaatttrwDDDDDCaaaadadddpND[[[[[[[[[[[[[[[",
"[[[[[[[[[[[[[bbbCDVxcdddaastt0VDDDDDDvtaaaaddpdxSS[[[[[[[[[[[[[[",
"[[[[[[[[[[[[bbbbAAvccxfddsaaqnDDDDDDDDxtaaaduddpVS[[[[[[[[[[[[[[",
"[[[[[[[[[[[[bbbMABcxxxfddsaaiSDDDDDDDDAcaaaadaddvS[[[[[[[[[[[[[[",
"[[[[[[[[[[[[bbbMAvcxxxxddfcCASSSSSSSSSSACcdaadudxZS[[[[[[[[[[[[[",
"[[[[[[[[[[[[bbbBBffdcxxxvCAAAAACAACACAAAACCMdaaddZS[[[[[[[[[[[[[",
"[[[[[[[[[[[bbbbBMaddxcMBCCCCCCCCCCCCCCCBCCCCCMdwwmS[[[[[[[[[[[[[",
"[[[[[[[[[[[bbbbMbaaa$xBBMBBBBBBBBBMBBMBBBMBBBv;qqpA[[[[[[[[[[[[[",
"[[[[[[[[[[[bbbbbctaa#-MMMMMMMMMMMMMMMMMMMMMMMw40quA[[[[[[[[[[[[[",
"[[[[[[[[[[[bbbbbfttsa pbMbbbbMbbbbMbbbbbbbbbc;55qwC[[[[[[[[[[[[[",
"[[[[[[[[[[[bcccbsrtaa;$cbbbbbbbbbbbbbbbbbbbv43qqqqVA[[[[[[[[[[[[",
"[[[[[[[[[[[bbccMsrrtta >bbbbbbbbbbbbbbbbbbbd<554qqNZ[[[[[[[[[[[[",
"[[[[[[[[[[[bcccbsrrrta4Ocbbbbbbbbbbbbbbbbbb45655qqNZ[[[[[[[[[[[[",
"[[[[[[[[[[[ccvcbsrrrttt=>bbbbbbbbbbbbbbbbbd2555q4qN[[[[[[[[[[[[[",
"[[[[[[[[[[[vvccbfrrrrratOwbbMbbbMbbbMbbbbb2365345qN[[[[[[[[[[[[[",
"[[[[[[[[[[[xcxcbfrrrrrrr#$MbMMMMMMMMMMMMMM2335335qB[[[[[[[[[[[[[",
"[[[[[[[[[[[cxdzvcrrr6666<OBCCBCBBCBCBCCCBC3333355uB[[[[[[[[[[[[[",
"[[[[[[[[[[[[xxxccr633336<OAAAAAAAAAAAAAAAA6333235dN[[[[[[[[[[[[[",
"[[[[[[[[[[[[xzpcb6333333<OSSSSDSDSDSSDDSSS5553334vM[[[[[[[[[[[[[",
"[[[[[[[[[[[[pxpxbr3333331OGGGGGGGGGGGGGGGF665223qbm[[[[[[[[[[[[[",
"[[[[[[[[[[[[zpppbs6333331.JJJJJJPPPPPPPPPP555322eb[[[[[[[[[[[[[[",
"[[[[[[[[[[[[[ppiccr333331.YUUYUUYYYYYYYYYIq55535db[[[[[[[[[[[[[[",
"[[[[[[[[[[[[[piipbs333331.^^^^^^!LKQ^^^^^~qq453qcb[[[[[[[[[[[[[[",
"[[[[[[[[[[[[[ipiicb533333.(''/Rk:>=%,lW_''q5555db[[[[[[[[[[[[[[[",
"[[[[[[[[[[[[[[iiyxbt33333.`]Ej&5retu>&@gT_qqq5evm[[[[[[[[[[[[[[[",
"[[[[[[[[[[[[[[yyy9xcr3333+h*135qqeeepuuw;#qqqqvM[[[[[[[[[[[[[[[[",
"[[[[[[[[[[[[[[[y99ybc63333333355qreeuuuuteeq0zBB[[[[[[[[[[[[[[[[",
"[[[[[[[[[[[[[[[[999pbs33333333365qqeeuuaewqwpBN[[[[[[[[[[[[[[[[[",
"[[[[[[[[[[[[[[[[9988xba5333333335qqqeeapueezCZ[[[[[[[[[[[[[[[[[[",
"[[[[[[[[[[[[[[[[[8877xba53333333655reeeueizZA[[[[[[[[[[[[[[[[[[[",
"[[[[[[[[[[[[[[[[[[7777cbft333333335qqrewpVSS[[[[[[[[[[[[[[[[[[[[",
"[[[[[[[[[[[[[[[[[[[7777zbba633333355qqwzZDS[[[[[[[[[[[[[[[[[[[[[",
"[[[[[[[[[[[[[[[[[[[[[777icbcftr5665ruxNCZS[[[[[[[[[[[[[[[[[[[[[[",
"[[[[[[[[[[[[[[[[[[[[[[7777ibbbbcccccMBBV[[[[[[[[[[[[[[[[[[[[[[[[",
"[[[[[[[[[[[[[[[[[[[[[[[[[778yxcbbbcvM[[[[[[[[[[[[[[[[[[[[[[[[[[[",
"[[[[[[[[[[[[[[[[[[[[[[[[[[[[[[[[[[[[[[[[[[[[[[[[[[[[[[[[[[[[[[[[",
"[[[[[[[[[[[[[[[[[[[[[[[[[[[[[[[[[[[[[[[[[[[[[[[[[[[[[[[[[[[[[[[[",
"[[[[[[[[[[[[[[[[[[[[[[[[[[[[[[[[[[[[[[[[[[[[[[[[[[[[[[[[[[[[[[[[",
"[[[[[[[[[[[[[[[[[[[[[[[[[[[[[[[[[[[[[[[[[[[[[[[[[[[[[[[[[[[[[[[[",
"[[[[[[[[[[[[[[[[[[[[[[[[[[[[[[[[[[[[[[[[[[[[[[[[[[[[[[[[[[[[[[[[",
"[[[[[[[[[[[[[[[[[[[[[[[[[[[[[[[[[[[[[[[[[[[[[[[[[[[[[[[[[[[[[[[[",
"[[[[[[[[[[[[[[[[[[[[[[[[[[[[[[[[[[[[[[[[[[[[[[[[[[[[[[[[[[[[[[[[",
"[[[[[[[[[[[[[[[[[[[[[[[[[[[[[[[[[[[[[[[[[[[[[[[[[[[[[[[[[[[[[[[[",
"[[[[[[[[[[[[[[[[[[[[[[[[[[[[[[[[[[[[[[[[[[[[[[[[[[[[[[[[[[[[[[[["
};
