/* XPM */
static char *result[] = {
/* columns rows colors chars-per-pixel */
"64 64 90 1 ",
"  c #B85A00",
". c #BB6000",
"X c #BF6612",
"o c #C35D02",
"O c #C56304",
"+ c #C56C01",
"@ c #C67100",
"# c #CA7400",
"$ c #CF7D03",
"% c #CD7E13",
"& c #D48300",
"* c #DD8401",
"= c #DD8B00",
"- c #DA8709",
"; c #D68A0A",
": c #DA9100",
"> c #DF9800",
", c #D68417",
"< c #D48D16",
"1 c #E38900",
"2 c #E98D00",
"3 c #E49500",
"4 c #ED9500",
"5 c #E79E02",
"6 c #EC9B00",
"7 c #F09700",
"8 c #F19D00",
"9 c #D4AA00",
"0 c #DAAF00",
"q c #DDB100",
"w c #E4A400",
"e c #ECA300",
"r c #E6AB00",
"t c #EDAC00",
"y c #F5A400",
"u c #F5AC00",
"i c #E2B500",
"p c #EDB200",
"a c #E6B900",
"s c #ECBC00",
"d c #F5B400",
"f c #F8B300",
"g c #F4BB00",
"h c #F9BD00",
"j c #F1B10B",
"k c #F0B312",
"l c #CC8120",
"z c #C98129",
"x c #D79D3D",
"c c #D8A42E",
"v c #E0B230",
"b c #ECC100",
"n c #F5C300",
"m c #FAC400",
"M c #F4CB00",
"N c #FECC00",
"B c #EFD300",
"V c #F3D100",
"C c #FDD300",
"Z c #F4DB00",
"A c #FDDC00",
"S c #F6E300",
"D c #FDE300",
"F c #F7EC00",
"G c #FDEB00",
"H c #FCF400",
"J c #FEFC01",
"K c #FEFE08",
"L c #FBEF18",
"P c #FEFE1B",
"I c #F0DE39",
"U c #FBEF2D",
"Y c #F2E43C",
"T c #FBEF3D",
"R c #FDFD34",
"E c #E6C844",
"W c #EFDC4D",
"Q c #E7CB55",
"! c #FAF644",
"~ c #FDFD46",
"^ c #FDFD48",
"/ c #F5EB57",
"( c #FAEE51",
") c #FCFB5E",
"_ c #EEDB62",
"` c #F9ED62",
"' c #FCFC61",
"] c #FAF771",
"[ c #FCFB73",
"{ c None",
/* pixels */
"{{{{{{{{{{{{{{{{{{{{{{{{{{{{{{{{{{{{{{{{{{{{{{{{{{{{{{{{{{{{{{{{",
"{{{{{{{{{{{{{{{{{{{{{{{{{{{{{{{{{{{{{{{{{{{{{{{{{{{{{{{{{{{{{{{{",
"{{{{{{{{{{{{{{{{{{{{{{{{{{{{{{{{{{{{{{{{{{{{{{{{{{{{{{{{{{{{{{{{",
"{{{{{{{{{{{{{{{{{{{{{{{{{{{{{{{{{{{{{{{{{{{{{{{{{{{{{{{{{{{{{{{{",
"{{{{{{{{{{{{{{{{{{{{{{{{{{{{{{{{{{{{{{{{{{{{{{{{{{{{{{{{{{{{{{{{",
"{{{{{{{{{{{{{{{{{{{{{{{{{{{{{{{{{{{{{{{{{{{{{{{{{{{{{{{{{{{{{{{{",
"{{{{{{{{{{{{{{{{{{{{{{{{{{{{{{{{{{{{{{{{{{{{{{{{{{{{{{{{{{{{{{{{",
"{{{{{{{{{{{{{{{{{{{{{{{{{{{{{{{{{{{{{{{{{{{{{{{{{{{{{{{{{{{{{{{{",
"{{{{{{{{{{{{{{{{{{{{{{{{{{{{{FGDAN{{{{{{{{{{{{{{{{{{{{{{{{{{{{{{",
"{{{{{{{{{{{{{{{{{{{{{{{{{HHGGGDDDDANNNNN{{{{{{{{{{{{{{{{{{{{{{{{",
"{{{{{{{{{{{{{{{{{{{{{{HHHFSVCMNMCCACCNNNNN{{{{{{{{{{{{{{{{{{{{{{",
"{{{{{{{{{{{{{{{{{{{{{JHFZnnhgddfddgNCCNNNNN{{{{{{{{{{{{{{{{{{{{{",
"{{{{{{{{{{{{{{{{{{{{JHSngghgddfduuuufmNCNNNN{{{{{{{{{{{{{{{{{{{{",
"{{{{{{{{{{{{{{{{{{JHFBgggggddfuuuuuyyyfCACNNNN{{{{{{{{{{{{{{{{{{",
"{{{{{{{{{{{{{{{{{{JFBsggggdddduuuuyyyyuhCANNNN{{{{{{{{{{{{{{{{{{",
"{{{{{{{{{{{{{{{{{HFBggggggdddfuuuyyyyyuumADCNNN{{{{{{{{{{{{{{{{{",
"{{{{{{{{{{{{{{{{JHVnsgggdddddMtuuyyyyuuudNDANNNN{{{{{{{{{{{{{{{{",
"{{{{{{{{{{{{{{{HHZgsgggdddddAJiyyyyyuuuddgAGANNN{{{{{{{{{{{{{{{{",
"{{{{{{{{{{{{{{{JSbgggggddddNJJJryyyuuuudddnDHCNNN{{{{{{{{{{{{{{{",
"{{{{{{{{{{{{{{JFBsgsgggddddFJJJV8yyuuufddghCHGNNN{{{{{{{{{{{{{{{",
"{{{{{{{{{{{{{{JZgsgdddddddAJJJJJtyuuufdfgghmFJCNNN{{{{{{{{{{{{{{",
"{{{{{{{{{{{{{HHMgpgggddduNJJJJJJZ4uudddgghhnAJDNNN{{{{{{{{{{{{{{",
"{{{{{{{{{{{{{HSnsgdgddddgHJJJJJJJbeffdgghgnmNHGNNNN{{{{{{{{{{{{{",
"{{{{{{{{{{{{{HVssdgdgdugAJJJJJJJJHtdddgggnmnMAGCNNN{{{{{{{{{{{{{",
"{{{{{{{{{{{{HFMgdsdddmCGHHHHHHHHHHGAmgggnnmnnMGCNNN{{{{{{{{{{{{{",
"{{{{{{{{{{{{FSbgpddmAGGGGGGGGGGGGGGGGAmhnnmnggDCNNN{{{{{{{{{{{{{",
"{{{{{{{{{{{{HMttgMADDDDDDDDDDDDDDGDDDDDANmnggfACNNNN{{{{{{{{{{{{",
"{{{{{{{{{{{{Fsee&CAAAAAAAAAAAAAAAAAAAAAAAV:dfdNCNNNN{{{{{{{{{{{{",
"{{{{{{{{{{{{Gpee3rCCCCCCCCCCCACCACCCCCCCCw#ddfmNNNNN{{{{{{{{{{{{",
"{{{{{{{{{{{FFtee5=NNNNNNNNNNNNNCNNCNNCNCn.tduufNNNNN{{{{{{{{{{{{",
"{{{{{{{{{{{SSre666wNNNNNNNNNNNNNNNNNNNNN#$ffuudNNNNN{{{{{{{{{{{{",
"{{{{{{{{{{{SAe5565=gNNNNNNNNNNNNNNNNNNNr uduyydNmmNm{{{{{{{{{{{{",
"{{{{{{{{{{{SZe566663NNNNNNNNNNNNNNNNNNm+5fuuyyfNNNnN{{{{{{{{{{{{",
"{{{{{{{{{{{SAe566662hNNNNNNNNNNNNNNNNNw#ufuyyyfNmnnN{{{{{{{{{{{{",
"{{{{{{{{{{{{Ze5654645NNNNNNNNNNNNNNNNh#5fyyyyyfNNnnN{{{{{{{{{{{{",
"{{{{{{{{{{{{Ae5446446NCCCCNCNCCCCCNCC:Ouuuy8y8fNnnnn{{{{{{{{{{{{",
"{{{{{{{{{{{{Zt653444yCAAAAAAAAAAAAAAA+=6788yyyhNnnnn{{{{{{{{{{{{",
"{{{{{{{{{{{{Ap644446tAFGGGGGGGGGGGGDD@1677778ymNnbnn{{{{{{{{{{{{",
"{{{{{{{{{{{{Cn544246uFJHHHHHHHHHHHHHH@16744777Nnsbn{{{{{{{{{{{{{",
"{{{{{{{{{{{{VMe44466uGKKKKKKJKKKKJKJK+14447748Nnsnn{{{{{{{{{{{{{",
"{{{{{{{{{{{{{Ct33466dLPPPPPPPPPPPPPPP+1747744dNssns{{{{{{{{{{{{{",
"{{{{{{{{{{{{{Mg43466jURRRRRRRRRRRRRRRO1744478hmssss{{{{{{{{{{{{{",
"{{{{{{{{{{{{{Nme4456j!^^~^~TIY!~~~~~~o144742uNnaas{{{{{{{{{{{{{{",
"{{{{{{{{{{{{{{Md6565k(''/Ecl%;<vW)))'o274478mNaasa{{{{{{{{{{{{{{",
"{{{{{{{{{{{{{{MNe655k`_%O%>ttty3-%Q]]o27474uNniaa{{{{{{{{{{{{{{{",
"{{{{{{{{{{{{{{{Vne6e5%$;tpppttee861,xo27728mniiii{{{{{{{{{{{{{{{",
"{{{{{{{{{{{{{{{AAbeeetjtppptuee86744424474hNaqii{{{{{{{{{{{{{{{{",
"{{{{{{{{{{{{{{{{AZpreruppptuee86444474444uNnqqq{{{{{{{{{{{{{{{{{",
"{{{{{{{{{{{{{{{{{SAbtttppttee66644444446dmnq0qq{{{{{{{{{{{{{{{{{",
"{{{{{{{{{{{{{{{{{{FSstpppttey6847474444umNq00q{{{{{{{{{{{{{{{{{{",
"{{{{{{{{{{{{{{{{{{{HFBatruey8674444446dNNq999{{{{{{{{{{{{{{{{{{{",
"{{{{{{{{{{{{{{{{{{{{HJSaree664444444umNn0999{{{{{{{{{{{{{{{{{{{{",
"{{{{{{{{{{{{{{{{{{{{{HHSNst866748yuhNNsq999{{{{{{{{{{{{{{{{{{{{{",
"{{{{{{{{{{{{{{{{{{{{{{{DSCVmggghmmNNnq999{{{{{{{{{{{{{{{{{{{{{{{",
"{{{{{{{{{{{{{{{{{{{{{{{{{CVNNNNNNnsi999{{{{{{{{{{{{{{{{{{{{{{{{{",
"{{{{{{{{{{{{{{{{{{{{{{{{{{{{{{{{{{{{{{{{{{{{{{{{{{{{{{{{{{{{{{{{",
"{{{{{{{{{{{{{{{{{{{{{{{{{{{{{{{{{{{{{{{{{{{{{{{{{{{{{{{{{{{{{{{{",
"{{{{{{{{{{{{{{{{{{{{{{{{{{{{{{{{{{{{{{{{{{{{{{{{{{{{{{{{{{{{{{{{",
"{{{{{{{{{{{{{{{{{{{{{{{{{{{{{{{{{{{{{{{{{{{{{{{{{{{{{{{{{{{{{{{{",
"{{{{{{{{{{{{{{{{{{{{{{{{{{{{{{{{{{{{{{{{{{{{{{{{{{{{{{{{{{{{{{{{",
"{{{{{{{{{{{{{{{{{{{{{{{{{{{{{{{{{{{{{{{{{{{{{{{{{{{{{{{{{{{{{{{{",
"{{{{{{{{{{{{{{{{{{{{{{{{{{{{{{{{{{{{{{{{{{{{{{{{{{{{{{{{{{{{{{{{",
"{{{{{{{{{{{{{{{{{{{{{{{{{{{{{{{{{{{{{{{{{{{{{{{{{{{{{{{{{{{{{{{{",
"{{{{{{{{{{{{{{{{{{{{{{{{{{{{{{{{{{{{{{{{{{{{{{{{{{{{{{{{{{{{{{{{"
};
