/* XPM */
static char *result[] = {
/* columns rows colors chars-per-pixel */
"64 64 217 2 ",
"   c black",
".  c #0C0C0C",
"X  c #0E0F0F",
"o  c #151516",
"O  c #181717",
"+  c #232222",
"@  c #272828",
"#  c #2D2E2F",
"$  c #2E2F2F",
"%  c #2F3031",
"&  c #313233",
"*  c #373838",
"=  c #38393A",
"-  c #3D3C3C",
";  c #3F3F40",
":  c #3F4041",
">  c #234A72",
",  c #404142",
"<  c #404243",
"1  c #414243",
"2  c #424344",
"3  c #424445",
"4  c #474748",
"5  c #4A4B4B",
"6  c #4D4D4E",
"7  c #4E4E4F",
"8  c #525355",
"9  c #525454",
"0  c gray35",
"q  c #5F5F5F",
"w  c #646464",
"e  c #66686B",
"r  c #67696C",
"t  c #6A6C6E",
"y  c #6A6C6F",
"u  c #6B6E70",
"i  c #6C6E71",
"p  c #6D6F72",
"a  c #6F7275",
"s  c #727477",
"d  c #75777B",
"f  c #76797C",
"g  c #77797C",
"h  c #767A7D",
"j  c #777B7D",
"k  c #7A7C7E",
"l  c #7A7C7F",
"z  c gray49",
"x  c #7E7E7F",
"c  c #07529F",
"v  c #1C5996",
"b  c #11579D",
"n  c #2E5F92",
"m  c #1C5EA1",
"M  c #0160BF",
"N  c #4F6F91",
"B  c #757D87",
"V  c #7B7D80",
"C  c #7C7E80",
"Z  c #7F7F80",
"A  c #457FB9",
"S  c #0866C5",
"D  c #7F8181",
"F  c #7F8284",
"G  c #5582B0",
"H  c #6D94BC",
"J  c #7995B2",
"K  c #438AD1",
"L  c #808285",
"P  c #83878A",
"I  c #85888A",
"U  c #87898C",
"Y  c #878B8E",
"T  c #888A8D",
"R  c #888B8D",
"E  c #8A8C8F",
"W  c #898D90",
"Q  c #8A8D90",
"!  c #8B8D90",
"~  c #8A8D91",
"^  c #8B8E90",
"/  c #8B8E91",
"(  c #8A8F92",
")  c #8C9094",
"_  c #8F9295",
"`  c #8F9296",
"'  c #909090",
"]  c #929496",
"[  c #929596",
"{  c #959595",
"}  c #979797",
"|  c #939598",
" . c #91969B",
".. c #94989C",
"X. c #94999D",
"o. c #979A9C",
"O. c #959A9E",
"+. c #969A9E",
"@. c #979B9F",
"#. c gray60",
"$. c #989A9C",
"%. c #989A9D",
"&. c #999C9F",
"*. c #979BA0",
"=. c #949DA7",
"-. c #989CA0",
";. c #9A9DA1",
":. c #9B9EA0",
">. c #9A9FA3",
",. c #9C9FA2",
"<. c #9B9FA4",
"1. c #919EAA",
"2. c #8A9EB2",
"3. c #9EA1A4",
"4. c #9DA2A7",
"5. c #9CA4AC",
"6. c #8EA3B8",
"7. c #9BA8B5",
"8. c gray64",
"9. c #A1A4A7",
"0. c #A4A4A6",
"q. c #A7A7A7",
"w. c #A1A4A8",
"e. c #A1A5A8",
"r. c #A1A5A9",
"t. c #A2A5A8",
"y. c #A3A6A9",
"u. c #A1A5AA",
"i. c #A2A6AA",
"p. c #A4A8AC",
"a. c #A4A8AD",
"s. c #A7A9AC",
"d. c #A5A9AE",
"f. c #A6AAAE",
"g. c #A7AAAE",
"h. c #AAAAAA",
"j. c #AAABAC",
"k. c #A8ABAE",
"l. c #ABACAC",
"z. c #A8ACAF",
"x. c #A9ACAF",
"c. c #AFAFAF",
"v. c #ABAEB1",
"b. c #AAAEB3",
"n. c #ABAFB3",
"m. c #AAAFB4",
"M. c #ABAFB4",
"N. c #A4AFB9",
"B. c #ACB3BB",
"V. c #AFB4B9",
"C. c #B1B1B1",
"Z. c gray70",
"A. c #B4B4B4",
"S. c #B6B6B6",
"D. c #B0B4B9",
"F. c #B2B7BB",
"G. c #B2B7BC",
"H. c #BCBCBC",
"J. c #BDBDBE",
"K. c #B8BDC2",
"L. c #BBC0C6",
"P. c #BCC0C6",
"I. c #BCC1C6",
"U. c #BEC3C8",
"Y. c #C0C0C0",
"T. c #C0C4C9",
"R. c #C2C7CC",
"E. c #C3C8CD",
"W. c #C4CACF",
"Q. c #C7CBCE",
"!. c #CACACA",
"~. c #C5CAD0",
"^. c #C7CCD1",
"/. c #C8CDD2",
"(. c #C8CED3",
"). c #CAD0D5",
"_. c #CCD1D6",
"`. c #CDD3D8",
"'. c #CFD4D9",
"]. c #CFD5DA",
"[. c #CFD5DB",
"{. c #D0D1D3",
"}. c #D0D6DB",
"|. c #D1D7DC",
" X c #D1D7DD",
".X c #D2D7DC",
"XX c #D3D9DE",
"oX c gray86",
"OX c gray87",
"+X c #D7DCE2",
"@X c #D7DDE3",
"#X c #D8DDE3",
"$X c #D8DEE3",
"%X c #D9DEE4",
"&X c #D9DFE5",
"*X c #DADFE5",
"=X c #DAE0E6",
"-X c #DBE0E6",
";X c #DBE1E7",
":X c #DCE2E8",
">X c #DDE3E9",
",X c #DEE4EA",
"<X c gray88",
"1X c gray89",
"2X c gray90",
"3X c #E6E6E6",
"4X c #E7E7E7",
"5X c gray91",
"6X c #ECECEC",
"7X c #EEEEEE",
"8X c #F1F1F1",
"9X c #FBFBFB",
"0X c gray99",
"qX c #FDFDFD",
"wX c #FEFEFE",
"eX c white",
"rX c None",
/* pixels */
"rXrXrXrXrXrXrXrXrXrXrX*.) F.,X*X#X@X,X&X( +.+.+.+.+.+.+.+.+.+.+.+.+.+.+.+.+.+.+.+.+.+.Y +X>X$X@X*X,XP.W +.O.@.rXrXrXrXrXrXrXrXrX",
"rXrXrXrXrXrXrXrXrXXX|.|.[.%X,X,X,X,X,X,X.X|.|.|.|.|.|.|.|.|.|.|.|.|.|.|.|.|.|.|.|.|.|.[.,X,X,X,X,X,X=X[.|.|.|. X].rXrXrXrXrXrXrX",
"rXrXrXrXrXrXrX,X,X,X,X,X,X,X,X,X,X,X,X,X,X,X,X,X,X,X>XXXW.E.W.~.^.(.(.^.`.=X,X,X,X,X,X,X,X,X,X,X,X,X,X,X,X,X,X,X,X,X,XrXrXrXrXrX",
"rXrXrXrXrXrX,X,X,X,X,X,X,X,X,X,X,X,X,X,X,X,X,X,X,X-XU.r.Q ] $.:.3.t.t.&.` m.}.,X,X,X,X,X,X,X,X,X,X,X,X,X,X,X,X,X,X,X,X,XrXrXrXrX",
"rXrXrXrX,X,X,X,X,X,X,X,X,X,X,X,X,X,X,X,X,X,X,X,X,Xw.s.0.l.H.j.=.1.4.Y.J.} [ ;.).,X,X,X,X,X,X,X,X,X,X,X,X,X,X,X,X,X,X,X,X,XrXrXrX",
"rXrXrX,X,X,X,X,X,X,X,X,X,X,X,X,X,X,X,X,X,X,X,X,X}.4 <XqXqX{.J H A G N.9X0X6XD @.:X,X,X,X,X,X,X,X,X,X,X,X,X,X,X,X,X,X,X,X,XrXrXrX",
"rXrXrX,X,X,X,X,X,X,X,X,X,X,X,X,X,X,X,X,X,X,X,X,XD.6 7XeXeXB c K S M > 3XeXeXh.d .X,X,X,X,X,X,X,X,X,X,X,X,X,X,X,X,X,X,X,X,XrXrXrX",
"rXrXrX,X,X,X,X,X,X,X,X,X,X,X,X,X,X,X,X,X,X,X,X,Xi.6 3XqXqX5.n m b v N OXwX9X8.i R.,X,X,X,X,X,X,X,X,X,X,X,X,X,X,X,X,X,X,X,XrXrXrX",
"rXrXrX,X,X,X,X,X,X,X,X,X,X,X,X,X,X,X,X,X,X,X,X,Xp.7 !.4X2X1XB.6.2.7.Q.5X8XoX{ p U.,X,X,X,X,X,X,X,X,X,X,X,X,X,X,X,X,X,X,X,XrXrXrX",
"rXrXrX,X,X,X,X,X,X,X,X,X,X,X,X,X,X,X,X,X,X,X,X,Xd.; z } ' c.A.C.c.Z.S.{ q.#.0 g U.,X,X,X,X,X,X,X,X,X,X,X,X,X,X,X,X,X,X,X,XrXrXrX",
"rXrXrX,X,X,X,X,X,X,X,X,X,X,X,X,X,X,X,X,X,X,X,X,Xb.h 8 5 q x x x x x Z w w 9 e ..W.,X,X,X,X,X,X,X,X,X,X,X,X,X,X,X,X,X,X,X,XrXrXrX",
"rXrXrX,X,X,X,X,X,X,X,X,X,X,X,X,X,X,X,X,X,X,X,X,X(.f.<.~ a t t t t t t y P -.a./.&X,X,X,X,X,X,X,X,X,X,X,X,X,X,X,X,X,X,X,X,XrXrXrX",
"rXrXrX,X,X,X,X,X,X,X,X,X,X,X,X,X,X,X,X,X,X,X,X,X:X=X'.T.G.M.n.n.n.n.n.V.I._.&X:X,X,X,X,X,X,X,X,X,X,X,X,X,X,X,X,X,X,X,X,X,XrXrXrX",
"rXrXrX,X,X,X,X,X,X,X,X,X,X,X,X,X,X,X,X,X,X,X,X,X,X,X>X;X=X%X%X%X%X%X%X*X-X:X,X,X,X,X,X,X,X,X,X,X,X,X,X,X,X,X,X,X,X,X,X,X,XrXrXrX",
"rXrXrXK.K.K.K.K.K.K.K.K.K.K.K.K.K.K.K.K.K.K.K.K.K.K.K.K.K.K.K.K.K.K.K.K.K.K.K.K.K.K.K.K.K.K.K.K.K.K.K.K.K.K.K.K.L.I.I.I.I.rXrXrX",
"rXrXrXj j j j j j j j j j j j j j j j j j j j j j j j j j j j j j j j j j j j j j j j j j j j j j j j j j j j j f f f f f rXrXrX",
"rXrXrXR / / / / / / / / / / / / / / / / T I I I I I I I I F F F F F F F V k k k k k k k k l F F F F F F F F F F C C C L U rXrXrX",
"rXrXrX>.e.v.v.v.v.2   - - - - - - - - - - - - - - - - - - - - - - - - - - - - - - - - - - - - - - - - - -   3 v.v.v.z.u.u.rXrXrX",
"rXrXrXu _ v.v.v.v.2   - - - - - - - - - - - - - - - - - - - - - - - - - - - - - - - - - - - - - - - - - -   3 v.v.v.9.s r rXrXrX",
"rXrXrX^ y.v.v.v.v.2   - - - - - - - - - - - - - - - - - - - - - - - - - - - - - - - - - - - - - - - - - -   3 v.v.v.k.! E rXrXrX",
"rXrXrX .g.v.v.v.v.2   - - - - - - - - - - - - - - - - - - - - - - - - - - - - - - - - - - - - - - - - - -   3 v.v.v.x.X.,.rXrXrX",
"rXrXrXv.v.v.v.v.v.2   - - - - - - - - - - - - - - - - - - - - - - - - - - - - - - - - - - - - - - - - - -   3 v.v.v.v.v.v.rXrXrX",
"rXrXrXv.v.v.v.v.v.2   - - - - - - - - - - - - - - - - - - - - - - - - - - - - - - - - - - - - - - - - - -   3 v.v.v.v.v.v.rXrXrX",
"rXrXrXv.v.v.v.v.v.2   - - - - - - - - - - - - - - - - - - - - - - - - - - - - - - - - - - - - - - - - - -   3 v.v.v.v.v.v.rXrXrX",
"rXrXrXv.v.v.v.v.v.2   - - - - - - - - - - - - - - - - - - - - - - - - - - - - - - - - - - - - - - - - - -   3 v.v.v.v.v.v.rXrXrX",
"rXrXrXv.v.v.v.v.v.2   - - - - - - - - - - - - - - - - - - - - - - - - - - - - - - - - - - - - - - - - - -   3 v.v.v.v.v.v.rXrXrX",
"rXrXrXv.v.v.v.v.v.2   - - - - - - - - - - - - - - - - - - - - - - - - - - - - - - - - - - - - - - - - - -   3 v.v.v.v.v.v.rXrXrX",
"rXrXrXv.v.v.v.v.v.2   - - - - - - - - - - - - - - - - - - - - - - - - - - - - - - - - - - - - - - - - - -   3 v.v.v.v.v.v.rXrXrX",
"rXrXrXv.v.v.v.v.v.2                                                                                         3 v.v.v.v.v.v.rXrXrX",
"rXrXrXv.v.v.v.v.v.2   + + + + + + + + + + + + + + + + + + + + + + + + + + + + + + + + + + + + + + + + + +   3 v.v.v.v.v.v.rXrXrX",
"rXrXrXv.v.v.v.v.v.2   + + + + + + + + + + + + + + + + + + + + + + + + + + + + + + + + + + + + + + + + + +   3 v.v.v.v.v.v.rXrXrX",
"rXrXrXv.v.v.v.v.v.2   + + + + + + + + + + + + + + + + + + + + + + + + + + + + + + + + + + + + + + + + + +   3 v.v.v.v.v.v.rXrXrX",
"rXrXrXv.v.v.v.v.v.2   + + + + + + + + + + + + + + + + + + + + + + + + + + + + + + + + + + + + + + + + + +   3 v.v.v.v.v.v.rXrXrX",
"rXrXrXv.v.v.v.v.v.2   + + + + + + + + + + + + + + + + + + + + + + + + + + + + + + + + + + + + + + + + + +   3 v.v.v.v.v.v.rXrXrX",
"rXrXrXv.v.v.v.v.v.2   + + + + + + + + + + + + + + + + + + + + + + + + + + + + + + + + + + + + + + + + + +   3 v.v.v.v.v.v.rXrXrX",
"rXrXrXv.v.v.v.v.v.2   + + + + + + + + + + + + + + + + + + + + + + + + + + + + + + + + + + + + + + + + + +   3 v.v.v.v.v.v.rXrXrX",
"rXrXrXv.v.v.v.v.v.2   + + + + + + + + + + + + + + + + + + + + + + + + + + + + + + + + + + + + + + + + + +   3 v.v.v.v.v.v.rXrXrX",
"rXrXrXv.v.v.v.v.v.2   + + + + + + + + + + + + + + + + + + + + + + + + + + + + + + + + + + + + + + + + + +   3 v.v.v.v.v.v.rXrXrX",
"rXrXrXv.v.v.v.v.v.2   + + + + + + + + + + + + + + + + + + + + + + + + + + + + + + + + + + + + + + + + + +   3 v.v.v.v.v.v.rXrXrX",
"rXrXrXv.v.v.v.v.v.2   + + + + + + + + + + + + + + + + + + + + + + + + + + + + + + + + + + + + + + + + + +   3 v.v.v.v.v.v.rXrXrX",
"rXrXrXv.v.v.v.v.v.2                                                                                         3 v.v.v.v.v.v.rXrXrX",
"rXrXrXv.v.v.v.v.v.2   O O O O O O O O O O O O O O O O O O O O O O O O O O O O O O O O O O O O O O O O O O   3 v.v.v.v.v.v.rXrXrX",
"rXrXrXv.v.v.v.v.v.2   O O O O O O O O O O O O O O O O O O O O O O O O O O O O O O O O O O O O O O O O O O   3 v.v.v.v.v.v.rXrXrX",
"rXrXrXv.v.v.v.v.v.2   O O O O O O O O O O O O O O O O O O O O O O O O O O O O O O O O O O O O O O O O O O   3 v.v.v.v.v.v.rXrXrX",
"rXrXrXv.v.v.v.v.v.2   O O O O O O O O O O O O O O O O O O O O O O O O O O O O O O O O O O O O O O O O O O   3 v.v.v.v.v.v.rXrXrX",
"rXrXrXv.v.v.v.v.v.2   O O O O O O O O O O O O O O O O O O O O O O O O O O O O O O O O O O O O O O O O O O   3 v.v.v.v.v.v.rXrXrX",
"rXrXrXv.v.v.v.v.v.2   O O O O O O O O O O O O O O O O O O O O O O O O O O O O O O O O O O O O O O O O O O   3 v.v.v.v.v.v.rXrXrX",
"rXrXrXv.v.v.v.v.v.2   O O O O O O O O O O O O O O O O O O O O O O O O O O O O O O O O O O O O O O O O O O   3 v.v.v.v.v.v.rXrXrX",
"rXrXrXv.v.v.v.v.v.2   O O O O O O O O O O O O O O O O O O O O O O O O O O O O O O O O O O O O O O O O O O   3 v.v.v.v.v.v.rXrXrX",
"rXrXrXv.v.v.v.v.v.2   O O O O O O O O O O O O O O O O O O O O O O O O O O O O O O O O O O O O O O O O O O   3 v.v.v.v.v.v.rXrXrX",
"rXrXrXv.v.v.v.v.v.2   O O O O O O O O O O O O O O O O O O O O O O O O O O O O O O O O O O O O O O O O O O   3 v.v.v.v.v.v.rXrXrX",
"rXrXrXv.v.v.v.v.v.2   O O O O O O O O O O O O O O O O O O O O O O O O O O O O O O O O O O O O O O O O O O   3 v.v.v.v.v.v.rXrXrX",
"rXrXrXv.v.v.v.v.v.2                                                                                         3 v.v.v.v.v.v.rXrXrX",
"rXrXrXv.v.v.v.v.v.2   . . . . . . . . . . . . . . . . . . . . . . . . . . . . . . . . . . . . . . . . . .   3 v.v.v.v.v.v.rXrXrX",
"rXrXrXv.v.v.v.v.v.2   . . . . . . . . . . . . . . . . . . . . . . . . . . . . . . . . . . . . . . . . . .   3 v.v.v.v.v.v.rXrXrX",
"rXrXrXv.v.v.v.v.v.2   . . . . . . . . . . . . . . . . . . . . . . . . . . . . . . . . . . . . . . . . . .   3 v.v.v.v.v.v.rXrXrX",
"rXrXrXv.v.v.v.v.v.,   . . . . . . . . . . . . . . . . . . . . . . . . . . . . . . . . . . . . . . . . . .   ; v.v.v.v.v.v.rXrXrX",
"rXrXrXv.v.v.v.v.v.:   . . . . . . . . . . . . . . . . . . . . . . . . . . . . . . . . . . . . . . . . . .   * v.v.v.v.v.v.rXrXrX",
"rXrXrXv.v.v.v.v.v.1   . . . . . . . . . . . . . . . . . . . . . . . . . . . . . . . . . . . . . . . . . .   & v.v.v.v.v.v.rXrXrX",
"rXrXrXv.v.v.v.v.v.2   . . . . . . . . . . . . . . . . . . . . . . . . . . . . . . . . . . . . . . . . . .   % v.v.v.v.v.v.rXrXrX",
"rXrXrXv.v.v.v.v.v.2   . . . . . . . . . . . . . . . . . . . . . . . . . . . . . . . . . . . . . . . . . .   $ v.v.v.v.v.v.rXrXrX",
"rXrXrXx.x.x.x.x.x.1   . . . . . . . . . . . . . . . . . . . . . . . . . . . . . . . . . . . . . . . . . .   # x.x.x.x.x.x.rXrXrX",
"rXrXrX| | | | | | =   . . . . . . . . . . . . . . . . . . . . . . . . . . . . . . . . . . . . . . . . . .   @ | o.%.%.%.%.rXrXrX",
"rXrXrX= = = = = = o   . . . . . . . . . . . . . . . . . . . . . . . . . . . . . . . . . . . . . . . . . .   X = : < < < < rXrXrX"
};
