/* XPM */
static char *a64dd716ccf04daee89b4d0b78684b3dykXOmcCPfBTWuIaa[] = {
/* columns rows colors chars-per-pixel */
"64 64 149 2 ",
"   c None",
".  c #01044E",
"X  c #000452",
"o  c #070E55",
"O  c #080B55",
"+  c #01075C",
"@  c #030A5C",
"#  c #091154",
"$  c #07115D",
"%  c #0B145D",
"&  c #0C185F",
"*  c #10155C",
"=  c #101B5E",
"-  c #000762",
";  c #010964",
":  c #050D68",
">  c #071161",
",  c #0B1765",
"<  c #0F1E61",
"1  c #0A126A",
"2  c #0F2067",
"3  c #132364",
"4  c #1D2265",
"5  c #13216B",
"6  c #1D236A",
"7  c #162A6B",
"8  c #1B2E6D",
"9  c #1A3273",
"0  c #1D3A75",
"q  c #23296A",
"w  c #272F7D",
"e  c #2F3471",
"r  c #213C79",
"t  c #22417D",
"y  c #234781",
"u  c #274E85",
"i  c #2A4B84",
"p  c #384D83",
"a  c #3A4088",
"s  c #275086",
"d  c #2F548C",
"f  c #30568E",
"g  c #2F5D91",
"h  c #335F93",
"j  c #376297",
"k  c #346699",
"l  c #3C6699",
"z  c #3D73A5",
"x  c #494F91",
"c  c #575C99",
"v  c #476694",
"b  c #5A6390",
"n  c #5D6B98",
"m  c #686C97",
"M  c #4174A7",
"N  c #467EAF",
"B  c #477FB0",
"V  c #3F94B5",
"C  c #4487B4",
"Z  c #4B83B2",
"A  c #4A8AB7",
"S  c #4C8EBB",
"D  c #5389B4",
"F  c #508FBD",
"G  c #4196B7",
"H  c #4297B8",
"J  c #4C93BE",
"K  c #449ABB",
"L  c #4C9DBD",
"P  c #499FC1",
"I  c #5397C1",
"U  c #559BC6",
"Y  c #599ECA",
"T  c #6597C1",
"R  c #4AA2C5",
"E  c #4DA6C9",
"W  c #4FA9CB",
"Q  c #54A3C3",
"!  c #58A6C4",
"~  c #5DA9C7",
"^  c #5CA4CF",
"/  c #52AACD",
"(  c #59AECF",
")  c #5CA6D0",
"_  c #53AED1",
"`  c #5BADD4",
"'  c #56B2D6",
"]  c #58B3D7",
"[  c #57B4D8",
"{  c #58B5D9",
"}  c #5CB9DD",
"|  c #69AFCA",
" . c #67B1CD",
".. c #6CB1CD",
"X. c #63ADD4",
"o. c #62AFD8",
"O. c #6DB6D3",
"+. c #64B5DC",
"@. c #63B9DA",
"#. c #6ABADA",
"$. c #71B9D5",
"%. c #71BFDF",
"&. c #78BED9",
"*. c #5FBCE0",
"=. c #62BEE2",
"-. c #6ABCE3",
";. c #65C1E5",
":. c #69C3E7",
">. c #67C3E8",
",. c #6AC5EA",
"<. c #6DC9ED",
"1. c #75C4E5",
"2. c #70C7ED",
"3. c #71C9EE",
"4. c #7CCBE9",
"5. c #72CEF2",
"6. c #76D2F6",
"7. c #7AD3F6",
"8. c #8084B2",
"9. c #8A8DB8",
"0. c #A7A9C7",
"q. c #BCBDD0",
"w. c #82C5DE",
"e. c #8DCCE5",
"r. c #89CFEA",
"t. c #93D1E9",
"y. c #9BD6ED",
"u. c #83D5F6",
"i. c #88D7F7",
"p. c #8AD8F7",
"a. c #93DCF9",
"s. c #9BDFFA",
"d. c #A4DEF5",
"f. c #9EE0FA",
"g. c #A9E1F6",
"h. c #A1E1FA",
"j. c #ABE4FB",
"k. c #B1E6FB",
"l. c #B3E8FC",
"z. c #B4E8FC",
"x. c #C4C7D9",
"c. c #CECFDD",
"v. c #D2D3E2",
"b. c #D5D5E1",
"n. c #E5E6EF",
"m. c #E9E9F0",
"M. c #FDFDFE",
"N. c #FEFEFF",
"B. c #FCFCFD",
/* pixels */
"                                                                                                                                ",
"                                                                                                                                ",
"                                                                                                                                ",
"                                                                                                                                ",
"                                                                                                                                ",
"                                                                                                                                ",
"                                                                                                                                ",
"                                                                                                Q L                             ",
"                                                          K R Q ! Q L                     L  .w.r./                             ",
"                                                  L $.4.5.6.6.7.p.u.u.u.4.1.1.#.$.&.w.t.d.j.h.7.{ E                             ",
"                                              ! e.d.u.6.6.6.6.7.7.7.7.7.7.7.7.6.7.7.7.u.7.7.5.} { R                             ",
"                                          L w.k.s.7.6.6.6.6.6.6.6.6.6.6.6.6.6.6.6.6.6.5.<.;.} { { H                             ",
"                                        ~ d.l.a.6.6.6.6.6.6.6.6.6.6.6.6.6.6.6.6.6.;.{ { { { { { R                               ",
"                                      $.j.l.a.6.6.6.6.6.6.6.6.6.6.6.6.6.6.6.6.7.6.6.:.W { { [ R                                 ",
"                                    $.k.z.a.6.6.6.6.6.6.6.6.7.6.6.6.6.6.6.6.6.6.7.6.6.:.E E K                                   ",
"                                  O.z.z.s.7.6.6.6.6.6.6.6.7.6.6.6.6.6.6.6.6.6.6.6.7.6.6.<.K                                     ",
"                                 .k.z.j.7.6.6.6.6.6.6.6.7.6.6.6.6.6.6.6.6.6.6.6.6.6.7.6.6.=.H                                   ",
"                              Q g.z.l.u.6.6.6.6.6.6.6.7.6.6.6.6.6.6.6.6.6.6.6.6.6.6.6.7.6.5.' H                                 ",
"                              t.z.z.s.6.6.6.6.6.6.6.6.6.6.6.6.6.6.6.6.6.6.6.6.6.6.6.6.6.6.7.=./                                 ",
"                            O.z.z.j.7.6.6.6.6.6.6.6.6.6.6.6.6.6.6.6.6.6.6.6.6.6.6.6.6.6.6.6.,.{ R                               ",
"                          G d.z.f.7.6.6.6.6.6.6.7.6.7.6.6.6.6.6.6.6.6.6.6.6.6.6.6.6.6.7.6.6.5.{ ' H                             ",
"                          $.l.a.6.6.6.6.6.6.6.7.6.6.6.6.6.6.6.6.6.6.6.6.6.6.6.6.6.6.7.6.6.6.6.} { R                             ",
"                          y.a.6.6.6.6.6.6.6.7.6.6.6.6.6.6.6.6.6.6.6.6.6.6.6.6.6.6.7.6.6.6.6.6.=.{ ' V                           ",
"                        Q p.6.6.6.6.6.6.6.7.6.6.6.6.6.6.6.6.6.6.6.6.6.6.6.6.6.6.7.6.6.6.6.6.6.,.{ { K                           ",
"                        / 7.6.6.6.6.6.6.7.6.6.6.6.6.6.6.6.6.6.6.6.6.6.6.6.6.6.7.6.6.6.6.6.6.6.<.{ { E                           ",
"                        ` -.6.6.6.6.6.6.6.6.6.6.6.6.6.6.6.6.6.6.6.6.6.6.6.6.6.6.6.6.6.6.6.6.6.5.{ { /                           ",
"                        J # U 6.6.6.6.6.6.6.6.6.6.6.6.6.6.6.6.6.6.6.) F 6.6.6.6.6.6.6.6.6.6.6.6.} { _                           ",
"                        I O = Z 3.6.7.u.6.5.6.6.5.5.6.6.6.6.6.6.3.S 3 l 7.7.u.7.6.6.6.6.6.6.6.6.} { '                           ",
"                        X.6 q m n D %.1.} z 5.6.+.C >.<.<.,.=.A p q 4 T i.u.i.7.6.6.6.6.6.6.6.6.*.{ ] ..                        ",
"                      K 1.5 , x.N.c.e 8 0 J 5.6.:.g u g h v b * * % * -.7.7.7.6.6.6.6.6.6.6.6.6.=.{ @.Q                         ",
"                      V 5.t ; 8.N.n.% X < ;.6.6.<.0 4 q.b.m.v.@ + + 9 6.6.6.6.6.6.6.6.6.6.6.6.6.;.{ [ H                         ",
"                      V 6.+.% 1 c w ; - $ 6.6.6.-.@ + 0.N.N.9.; ; % Y 6.6.6.6.6.6.6.6.6.6.6.6.6.>.{ { H                         ",
"                      G 6.6.o.7 + - - + h 6.6.6.-.$ ; 1 x a : - & Y 6.6.6.6.6.6.6.6.6.6.6.6.6.6.,.{ { K                         ",
"                      K 6.6.6.3.U M M Y 5.6.6.6.6.N 5 > : , 9 z -.6.6.6.6.6.6.6.6.6.6.6.6.6.6.6.,.{ { K                         ",
"                      G 6.6.6.6.6.6.6.6.6.7.6.6.6.6.-.^ Y +.5.6.6.6.6.6.6.6.6.6.6.6.6.6.6.6.6.6.<.{ { K                         ",
"                      G 6.6.6.6.6.6.6.6.6.6.5.2.6.6.6.6.7.6.6.6.6.6.6.6.6.6.6.6.6.6.6.6.6.6.6.7.<.{ { K                         ",
"                      G 6.6.6.6.:.N B +.` f 3 < r F 5.7.6.:.5.6.6.6.6.6.6.6.6.6.6.6.6.6.6.6.7.6.<.{ { K                         ",
"                      G 6.6.6.-.8 . . % o X X X X . i Z j 7 d :.6.6.6.6.6.6.6.6.6.6.6.6.6.6.6.6.<.{ { H                         ",
"                      G 6.6.+.% X X X X X X X X X X X X X X X 3 3.6.6.6.6.6.6.6.6.6.6.6.6.6.6.6.,.{ { H                         ",
"                      G 6.6.r X X X X - ; ; ; - - - + + X X X X t 3.6.6.6.6.6.6.6.6.6.7.6.6.6.6.,.{ [ H                         ",
"                      H 6.5.. X o s y + ; - 2 g t + ; ; - X X X . A 6.6.6.6.6.6.6.6.7.6.6.6.6.6.;.{ ' H                         ",
"                      H 6.6.r 0 ` 5.6.J 7 k =.6.5.S $ + @ k 9 X X r 6.6.6.6.6.6.6.7.6.6.6.6.6.6.;.{ ' H                         ",
"                      K 6.6.5.5.6.6.6.6.5.6.6.6.6.6.+.S U <.+.u . d 6.6.6.6.6.6.7.6.6.6.6.6.6.6.=.{ ' H                         ",
"                      L 6.6.6.6.6.6.6.6.7.6.6.6.6.6.6.6.6.6.6.5.=.5.6.6.6.6.6.7.6.6.6.6.6.6.6.6.} { ' H                         ",
"                      K 6.6.6.6.6.6.6.6.6.6.6.6.6.6.6.6.6.6.6.6.6.6.6.6.6.6.6.6.6.6.6.6.6.6.6.5.} { ' H                         ",
"                      P 6.6.6.6.6.6.6.6.6.6.6.6.6.6.6.6.6.6.6.6.6.6.6.6.6.6.6.6.6.6.6.6.6.6.6.5.{ { ' H                         ",
"                      R 6.6.6.6.6.6.7.u.6.6.6.6.6.6.6.6.6.6.6.6.6.6.6.6.6.7.u.6.6.6.6.6.6.6.6.,.{ { ' K                         ",
"                      / 7.p.p.p.p.u.p.p.6.6.6.6.6.6.6.6.6.6.6.7.p.p.u.p.u.p.p.7.6.6.6.6.6.6.6.;.{ { { |                         ",
"                      ( 7.7.u.u.7.u.u.u.6.6.6.6.6.6.6.6.6.6.7.7.u.u.u.7.u.7.u.6.6.6.6.6.6.6.6.{ { { @.!                         ",
"                      } 6.6.6.6.6.6.6.6.6.6.6.6.6.6.6.6.6.6.6.6.6.6.6.6.6.6.6.6.6.6.6.6.6.6.<.{ { { { R                         ",
"                      :.6.6.6.6.6.6.6.6.6.6.6.6.6.6.6.6.6.6.6.6.6.6.6.6.6.6.6.6.6.6.6.6.6.6.;.{ { { { W                         ",
"                    K 6.6.6.6.6.6.6.6.6.6.6.6.6.6.6.6.6.6.6.6.6.6.6.6.6.6.6.6.6.6.6.6.6.6.6.} { { { { ' V                       ",
"                    } 7.6.6.6.6.6.6.6.6.7.6.6.6.6.6.6.6.6.6.7.6.6.6.6.6.6.6.6.7.6.6.6.6.6.<.{ { { { { { K                       ",
"                  K 3.6.6.6.6.6.<.} ' =.5.7.6.6.6.6.6.6.6.3.5.5.6.6.6.6.6.6.6.6.6.<.=.;.5.} { { { { { { R                       ",
"                  _ 6.6.6.6.6.;.' K     R 6.7.6.6.6.6.<.} _ R R ,.6.6.6.6.6.6.5.} E G   K _ { { { { { { W                       ",
"                  :.6.6.6.6.;.' K         / 6.7.6.6.<.} / V     H ;.6.6.6.6.5.} /         V / { { { { { _ V                     ",
"                  ;.6.6.5.;.{ R             =.6.7.5.} ' H         R <.6.6.6.*.' K           K _ { { { { ' V                     ",
"                  P =.=.{ { E               K <.<.} { R             R <.<.=.[ K               G E [ { { /                       ",
"                    K R R K                   K W / R                 H R R H                     H R R H                       ",
"                                                                                                                                ",
"                                                                                                                                ",
"                                                                                                                                ",
"                                                                                                                                ",
"                                                                                                                                "
};
