/* XPM */
static char *_15d28923caa4199e94fedc27e29a6d4E0Uun4qaMw73fGOu[] = {
/* columns rows colors chars-per-pixel */
"64 64 76 1 ",
"  c #BACACA",
". c #B6C6C6",
"X c #BACACA",
"o c #B8C8C8",
"O c #B1C0C0",
"+ c #B5C5C5",
"@ c #BAC9C9",
"# c #C0CFCF",
"$ c #B6C6C6",
"% c #B9C9C9",
"& c #B5C4C4",
"* c #B3C3C3",
"= c #B7C6C6",
"- c #BCCBCB",
"; c #BACACA",
": c #BACACA",
"> c #B8C8C8",
", c #B1C0C0",
"< c #B2C1C1",
"1 c #B6C6C6",
"2 c #B3C3C3",
"3 c #B3C2C2",
"4 c #B9C9C9",
"5 c #B5C5C5",
"6 c #B7C7C7",
"7 c #B4C4C4",
"8 c #B5C4C4",
"9 c #B4C3C3",
"0 c #B9C8C8",
"q c #BECECE",
"w c #BBCBCB",
"e c #B6C5C5",
"r c #BCCBCB",
"t c #BAC9C9",
"y c #C2CFCF",
"u c #C0CECE",
"i c #BCCCCC",
"p c #C1CECE",
"a c #BECCCC",
"s c #B7C6C6",
"d c #B2C2C2",
"f c #B1C1C1",
"g c #B8C7C7",
"h c #B0C0C0",
"j c #BBCACA",
"k c #C2D0D0",
"l c #B6C4C4",
"z c #C0CFCF",
"x c #BECDCD",
"c c #C1CFCF",
"v c #BDCCCC",
"b c #BFCECE",
"n c #C1D0D0",
"m c #BDCDCD",
"M c #C4D2D2",
"N c #BDCBCB",
"B c #BCCACA",
"V c #C8D5D5",
"C c #C5D3D3",
"Z c #C6D3D3",
"A c #C6D4D4",
"S c #C3D1D1",
"D c #C2D1D1",
"F c #C3D2D2",
"G c #B0BFBF",
"H c #AFBFBF",
"J c #AEBEBE",
"K c #BFCFCF",
"L c #BFCDCD",
"P c #C9D6D6",
"I c #C7D4D4",
"U c #B1C1C1",
"Y c None",
"T c #AFBEBE",
"R c #BACACA",
"E c #BBC9C9",
/* pixels */
"      .XXXoOoXXX+@#o$XXXXXo$X%%XXXXXX%&XXX%*+XXX==#-*XXXXX; :   ",
"     >   >, <>  12314                14  42156  67<84           ",
"     1      96                       60     69                  ",
"     55q   w2>                       e5rw  w11                  ",
"     61tyur81        >     wi        >50upas8        6      r   ",
"       1>64 6  4     64>wdf<tw         >6g> >  4     g46w7hf5   ",
"        >4    521      is8  91          4>    6d8        9t 12  ",
"   6  4       ej1t      e    <     6  4       sts4      2    f  ",
"   56         1g        5w ww7     5>4        6>4       2   i9  ",
"f74                    >7guk04 s<9>                     1lukj> >",
">1f1 jj                  4466 65>137  w                  4466 >8",
"   3 zzxc  v07657wr          >g    5gxzqbr ww7119tv          41 ",
"   7       4d5e 67vj         2     66       769 42iw         2  ",
"xnc7       g1    74          >gkmnk5       45w   5>          48M",
"881         ebrw 5          4 48885         6xiwj8          4  8",
"            6eaN14       5471               >8Bas4       5475   ",
"    t        122>                   t        >2d6               ",
"   763d1           42dd74          512d74           8dd36       ",
"  s  6 77         >e4158h5        >> g46d         474655<2      ",
"  1  39 3        41>64   91       >> 27656        e 64   17     ",
"  1iw40 3        1g>>     f       >4i4> 84       >1 6     ,     ",
"   sVCu9       bm>1       f        1ZAzgs      xb45       f     ",
"4  1df5    jxj uMv1vr   i41    >>  62<2     m jxSu6tm   ww8    4",
"hf4         j     >ezSDSv5    7<ff>               48aSDFc5    5f",
" 4d               >5e988g    61  4d               496285e     9 ",
"zm3    61 4            6>    4<Nbu3    >844            >6     <j",
"h2      >       5d1           4fG34     0t      135            d",
"       x vw    1> 76       g>1         i wx    >1 65       >>14 ",
"       w       4>v64     >2>>5f4       w       46v>6     t71>1f>",
"                >114     3 4  >1                >114     3 4   7",
"                47dH6    76xii>6                t5dJ7    18xii 5",
"      45995     8s447    47sr024      4e8974    1e>4f    458rjd4",
"     >8   6f4   5tK4e     61 4>      474  >d1   16zi3     >5 46 ",
"     5   4, <4  12d54                14  42156  67<74           ",
"     1      96                       6>     69                  ",
"     e1x    2>                       11r    1e                  ",
"     1eBczree        >     wr        >50pcag8        g      i   ",
"       6>64 1        64>w3,djw         >gg> >        646w8hf0i  ",
"        6>    531      i67  21          >6    6d5       j2  57  ",
"   6  4       5j14      e4  4d     6  4       sts4      2    f  ",
"   56         1s4       5   w7     5>4        160       2   r2  ",
"d54                    >70ukt4 6d7>                     5sukN> >",
">5,6                     >46> 65>5<5  j                  >466 >8",
"   d zzvz  i08655ww          >6    8>xnxbr ww7117 i          41 ",
"   7        38e 68mj         9     66       719 >3vw         9  ",
"xnc7       6s    74          6>Dmnk5       45    5>          45M",
"e51         5Lww 5            >7e55         6xrwj7            47",
"            61La14      t5481               >5NLs4       5485   ",
"             122>                            6236               ",
"   71336           49dd74          1e935            5dd2>       ",
"  st46 95         >54157he        >g4>41d         474655f9      ",
"  6  d7 3        41>64   26       >> 356e6        e 64   18     ",
"  1i >g d        1>66     f       >4w46 54       >1 64    ,     ",
"   gPCz9       bv>s       f        sIIcgs      mq4e       f     ",
"t  1ff7    jx  zCm1vw   r41    44  6df24    m  qMz6 i   jw7    t",
"Gdt         ww    0ecDDSx5    7f,f>         j w   47LSDSnet   1,",
" 03               >889556    6s  0d               4212555     9 ",
"zx3    66 4            6>    4fvbud    4144            66     fB",
"U3      6       52s           >hGd>     g4      s35            Y",
"       m vw    1>476       >>6         i wx    >1 15       >1e  ",
"       r       >0vs4     >2>>8f4       w       46v06      91 6f4",
"                >16      344  >1                >614     3 >  te",
"                47<H6    9gmww>6                 edT8    55  ;e5",
"     R45791     814>7    42gaE24      t17954    s5>>f     6993d "
};
