/* XPM */
static char *_c43bd2161274bba9ce693c7466d0513VbxZhmkJbhECjROW[] = {
/* columns rows colors chars-per-pixel */
"64 64 73 1 ",
"  c #B7C6C6",
". c #B6C6C6",
"X c #B8C8C8",
"o c #BACACA",
"O c #B9C9C9",
"+ c #B1C1C1",
"@ c #B2C1C1",
"# c #B2C2C2",
"$ c #B5C5C5",
"% c #B3C3C3",
"& c #B4C4C4",
"* c #B7C7C7",
"= c #AEBEBE",
"- c #ABBABA",
"; c #AEBDBD",
": c #B5C4C4",
"> c #B1C0C0",
", c #AFBFBF",
"< c #ABBBBB",
"1 c #B0C0C0",
"2 c #ADBCBC",
"3 c #B9C8C8",
"4 c #B4C3C3",
"5 c #AAB9B9",
"6 c #AABABA",
"7 c #AFBEBE",
"8 c #B0BFBF",
"9 c #C6D4D4",
"0 c #C0CFCF",
"q c #BBCBCB",
"w c #ADBDBD",
"e c #BCCCCC",
"r c #C1CFCF",
"t c #CEDADA",
"y c #CBD8D8",
"u c #C2D1D1",
"i c #BECDCD",
"p c #C1D0D0",
"a c #C4D2D2",
"s c #C8D5D5",
"d c #C2D0D0",
"f c #C8D6D6",
"g c #C9D6D6",
"h c #C6D3D3",
"j c #C4D1D1",
"k c #BDCCCC",
"l c #CAD7D7",
"z c #C5D3D3",
"x c #B3C2C2",
"c c #B6C5C5",
"v c #B6C4C4",
"b c #BFCECE",
"n c #BDCDCD",
"m c #BFCDCD",
"M c #B8C7C7",
"N c #BAC9C9",
"B c #ACBBBB",
"V c #BCCBCB",
"C c #C7D4D4",
"Z c #ACBCBC",
"A c #C3D1D1",
"S c #BECECE",
"D c #BBCACA",
"F c #C3D2D2",
"G c #BFCFCF",
"H c #B8C6C6",
"J c #C7D5D5",
"K c #B4C2C2",
"L c #BAC8C8",
"P c #CDD9D9",
"I c #A8B7B7",
"U c #A9B9B9",
"Y c #C4D3D3",
/* pixels */
" ..XoooooooooooooooooooooooOXooooooooooooooooooooooooooooooooooo",
"+@#$Oooooooooooooooooooooooooooooooooooooooooooooooooooooooooooo",
"%%&*OooooooooooooooooooooooooooooooooooooooooooOOooooooooooooooo",
"ooooooooooooX....*Oooooooooooooooooooooooooooo&%**&%.Ooooooooooo",
"oooooooooooo=-----;+*oooooooooooooooooooooooo:>oo.#,<=:ooooooooo",
"ooooooooooX1XooooX$>-2.ooooooooooooooooooooo&>o3&%%%o&2;Oooooooo",
"ooooooooo4>Ooo&+++>#*%5#oooooooooooooooooooO#OooooOoooo+-3oooooo",
"oooooooo:%oooooooooXOoX6&ooooooooooooooooooX4oooo:7.*ooo7>oooooo",
"oooooooX@Oo*O*ooooooooo <&ooooooooooooooooo*&oooo#.o#.oo.=oooooo",
"ooooooo4$oo1X+Xooooooooo&2Xoooooooooooooooo*%oooo*+#+*oo:,oooooo",
"ooooooo+*oo+*Xooooooooooo7$ooooooooooooooooX#ooooo*&*ooo8%oooooo",
"ooooooo8*oooooooooooooooo&>ooooooooooooooooo#.90qoooooo.wooooooo",
"ooeqooo+$oooooooooooooooo%@oooooooooooooooooX8rty9uipaX7Xooooooo",
"oes9eqo.#oooooooooooooooo@&oooooooooooooooooo*@dfgfhj3+.oooooooo",
"oklzszoo#*qeooooooooooooO8Xoooooooooooooooooo*.x4cvx+cOooooooooo",
"oq0ebaooX@o9eooooooooq0q@xooooooooooO**OoooooOx##@@+.ooooooooooo",
"ooooooooo41zs0ooooooongO1Xooooooooo*17;,&Oooooo*$&$Xoooooooooooo",
"ooooooooOO.=msl9hhgygzM1Nooooooooo%=>xx+1B+Ooooooooooooooooooooo",
"ooooooooX8.X77 mrrbk.1%oooooooooo+1oXOoO%X7+oooooooooooooooooooo",
"ooooooooo:,4X$+1+@##% oooooooooooB$oooooOoM7Oooooooooooooooooooo",
"ooooooooooO.OooOOOOoOXOoooooooooo=>oqoooqqo>Xooooooooooooooooooo",
"oooooooooooooooooo$#@.oooooooooooO5$guVnauo8Xoooooooooo$Xooooooo",
"oooooooooooooooooooooooooooooooooo.-4oi9CVx8ooooooooooo;>@Xo*Ooo",
"ooooM%+4Ooooooooooooooooooooooooooo.x;BZZ;#OoooooooooooO.*Oooooo",
"ooo#1#+#7*ooooooooooooooooooooooooo.%># oooooooooooooooooooooooo",
"ooM#OO* $8OooooooooooooooooooooooooooXXOooooooooooooooooooobpooo",
"oo.&ooooo1.oooooooooooooooO*...%%*oooooooooooooooooooqAeoookSooo",
"oo*@bzauo>Xoooooooooooooo 8&*.XX@-1ooooooooooooooooooDdeoooooooo",
"ooo&+ XM4$oooooooooooooo%1..oO:44.7>oooooooooooooooooooooooooooo",
"oooOOXMMOoooooooooooooo*+O&woooooOo7:ooooooooooooooooooooooooooo",
"oooO4%&$Ooooooooooooooo1*oooooooooo$2ooooooooooooooooooooooooooo",
"oooooX*@,,%Oooooooooooo,$oooooooooo.Booooooooooooooooooooooooooo",
"oooooO@1x%;2*oooooooooo.Z.qkqooooqo#%ooooooooooooooooooooooooooo",
"ooooow%+.7>@ZXooooooooooxZ39sFrrrGO7oooooooooooooooooooooooooooo",
"oooo&+O%oO*OB$ooooooooooO.;>Va9hr.=.ooooooooooooooooooooO33Ooooo",
"oooX=Ooooooow&oooooooooo4%X*#8==7% #ooooooooooooooooO82ww2Z--7$o",
"oooX;Oobeooo2cooooooooooo 1>*oooM%:ooooooooooooooooX=&XoooooO#-;",
"oooo.8*9zAb&+OooooooooooooO*XooooOoooooooooooooooo*1XoooooooooX#",
"ooo*$.++4&@#Oooooooooooooooooooooooooooooooooooooo#&oooooooO*>Xo",
"oooX#+%44.XXOooooooooooooooooooooooooooooooooooooo1OoooooooM+Z%o",
"oooooo*..OoXoooooooooooooooooooooooooooooooooooooo1ooooooooo..oo",
"oooooooooooooooooooooooooooooooooooooooooooooooooox.oooooooooooo",
"oooooooooooooooooooooooooooooooooooooooooooooooooo.1oooooooooooo",
"oooooooooooooooooooooooooooooooooooooooooooooooooX*.&qVooooooooo",
"ooooooooooooooooooooooooooooooooooooooooooooooooo*8X&MzuiVqqqVnb",
"oooooooooooooooooooooooooooooooooooooooooooooooooo#=X4HsyJzzzauD",
"oooooooooooooo$&oooooooooooonpkooooooooooooooooooooO&OO4KHL3c,Z7",
"ooooooooooooooX>Xo$%ooo$wBBw#kAdqooooooooooooooooooooO*oooXXXXoo",
"ooOooooooooooooXOoOOqeo&7#.%=7*eoooooooooooooooooooooo$&*OX*Xooo",
" ,8.OooooooooooooooopS$#Ooooo4B4ooooooooooooooooooooooo.&%x$Xooo",
"2MX&8ooooooooooooooqe.@x.ooooo.B.ooooooooooooooooooooooooooooooo",
"wooO7oooooooooooooooO;Xc%Oooooo11ooooooooooooooooooooooooooooooo",
"8szo7ooooooooooooooo*=ooooooooo*=oooooooooooO.oooooooooooooooooo",
"48>+.ooooooooooooooo*=oooooooooM,oooooooooooXBOO&Ooo&ooooooooooo",
"$M Xoooooooooooooooo*wooooooooo*+oooooooooooO>OO$OooOooooooooooo",
"XoooooooooooooooooooO@@iieqqbab%.ooooooooooooooooooooooooooooooo",
"oooooooooooooooooooo#O@:ClglPC %ooooo*.*Oooooooooooooooooooooooo",
"oooooooooooooooooooo #$%+43N #:oooooX#<IUZ+*oooooooooooooooooooo",
"ooooooooooooooooooooooO$*OOOOooooooO#+.OX$@B1Xoooooooooooooooooo",
"ooooooooooooooooooooooooooO&%%&Ooo.1XooO4$OO>-Xoooqeqooooooooooo",
"O.:*oooooooooooooooooooooooO*.*oo*@XooooooooO@,ooqYsAieV00oooooo",
"OX:8,Xk0eoooooooooooooooooooooooX8Oooooooooooo2Xoonkqrbnpioooook",
"oooOcBo09boooooooooooooooooooooo%.oooooooooooo1coooooooooooooooi",
"ooooo1+oqeoooooooooooooooooooooo1Xoooooooooooo8*oooooooooooooooo"
};
