/* XPM */
static char *result[] = {
/* columns rows colors chars-per-pixel */
"64 64 170 2 ",
"   c #010101",
".  c #090705",
"X  c #0B0B0B",
"o  c #050708",
"O  c #110F0C",
"+  c #151109",
"@  c #1A150B",
"#  c #1F190C",
"$  c #040C14",
"%  c #080D12",
"&  c #000D1B",
"*  c #03101E",
"=  c #0B121A",
"-  c #141413",
";  c #1A1715",
":  c #1C1C1C",
">  c #1B1816",
",  c #241D0F",
"<  c #221E1C",
"1  c #2A2211",
"2  c #25201E",
"3  c #352A15",
"4  c #3C3018",
"5  c #001223",
"6  c #01162C",
"7  c #001932",
"8  c #001D3B",
"9  c #0B2238",
"0  c #222222",
"q  c #2A2522",
"w  c #2B2B2B",
"e  c #2F2926",
"r  c #332D2A",
"t  c #37302D",
"y  c #39322E",
"u  c #343434",
"i  c #3C3531",
"p  c #3F3834",
"a  c #3C3C3C",
"s  c #41341A",
"d  c #4C3D1E",
"f  c #47391C",
"g  c #423A36",
"h  c #463E3A",
"j  c #544322",
"k  c #5D4A25",
"l  c #594724",
"z  c #4A423D",
"x  c #614E27",
"c  c #69542A",
"v  c #6A552B",
"b  c #705A2E",
"n  c #7C6432",
"m  c #002143",
"M  c #00254A",
"N  c #002B56",
"B  c #062D56",
"V  c #00356B",
"C  c #003D7A",
"Z  c #10467D",
"A  c #444444",
"S  c #4E4541",
"D  c #4B4B4B",
"F  c #504742",
"G  c #534A46",
"H  c #564D48",
"J  c #5A514B",
"K  c #555555",
"L  c #5B5B5B",
"P  c #615651",
"I  c #655A54",
"U  c #695D57",
"Y  c #6A5E58",
"T  c #6E615B",
"R  c #74665F",
"E  c #656565",
"W  c #6B6B6B",
"Q  c #746660",
"!  c #7B6C65",
"~  c #7F6F69",
"^  c #7F7069",
"/  c #737373",
"(  c #7B7B7B",
")  c #866B35",
"_  c #997A3D",
"`  c #84746D",
"'  c #AC8A45",
"]  c #A78643",
"[  c #B69249",
"{  c #B9944A",
"}  c #BF994C",
"|  c #C29B4E",
" . c #DAAE57",
".. c #D5AB56",
"X. c #DDB058",
"o. c #EBBC5E",
"O. c #E6B75C",
"+. c #F4C361",
"@. c #F9C763",
"#. c #FFCC66",
"$. c #00458A",
"%. c #024587",
"&. c #004A94",
"*. c #004D9A",
"=. c #105498",
"-. c #215E9B",
";. c #0056AC",
":. c #005AB3",
">. c #005DBA",
",. c #206EBC",
"<. c #537FAB",
"1. c #0062C4",
"2. c #0066CC",
"3. c #0569CD",
"4. c #0C6DCF",
"5. c #1473D0",
"6. c #1A75D1",
"7. c #1E78D2",
"8. c #227AD3",
"9. c #2A7FD4",
"0. c #5882AC",
"q. c #3485D6",
"w. c #2B80D5",
"e. c #5C90C3",
"r. c #428ED9",
"t. c #5699DD",
"y. c #5599DD",
"u. c #6CA7E1",
"i. c #75ACE3",
"p. c #848484",
"a. c #8B8B8B",
"s. c #939393",
"d. c #9A9A9A",
"f. c #899199",
"g. c #9BACBD",
"h. c #A4A4A4",
"j. c #ACACAC",
"k. c #B3B3B3",
"l. c #BCBCBC",
"z. c #93AEC9",
"x. c #A6B7C7",
"c. c #B7BEC5",
"v. c #83B5E7",
"b. c #8DBBE9",
"n. c #94BEEA",
"m. c #BAC0C7",
"M. c #9CC3EB",
"N. c #97C1EA",
"B. c #ACCDEE",
"V. c #B0D0EF",
"C. c #BED9F2",
"Z. c #B3D1F0",
"A. c #C3C3C3",
"S. c #CCCCCC",
"D. c #C4C7CA",
"F. c #D3D3D3",
"G. c #DCDCDC",
"H. c #C9DFF4",
"J. c #C3DBF3",
"K. c #D5E5F7",
"L. c #DBE9F8",
"P. c #D9E1E9",
"I. c #E3E3E3",
"U. c #EBEBEB",
"Y. c #EAF2FB",
"T. c #F4F4F4",
"R. c #F4F9FD",
"E. c #FFFFFF",
"W. c #F1F7FC",
"Q. c None",
/* pixels */
"Q.Q.Q.Q.Q.Q.Q.Q.Q.Q.Q.Q.Q.Q.Q.Q.Q.Q.Q.Q.Q.Q.Q.Q.Q.Q.Q.Q.Q.Q.Q.Q.Q.Q.Q.Q.Q.Q.  Q.Q.Q.Q.Q.Q.Q.Q.Q.Q.Q.Q.Q.Q.Q.Q.Q.Q.Q.Q.Q.Q.Q.Q.Q.",
"Q.Q.Q.Q.Q.Q.Q.Q.Q.Q.Q.Q.Q.Q.Q.Q.Q.Q.Q.Q.Q.Q.Q.Q.Q.Q.Q.Q.Q.Q.Q.Q.Q.Q.Q.Q.Q.Q.A u Q.Q.Q.Q.Q.Q.Q.Q.Q.Q.Q.Q.Q.Q.Q.Q.Q.Q.Q.Q.Q.Q.Q.Q.",
"Q.Q.Q.Q.Q.Q.Q.Q.Q.Q.Q.Q.Q.Q.Q.Q.Q.Q.Q.Q.Q.Q.Q.Q.Q.Q.Q.Q.Q.Q.Q.Q.Q.Q.Q.Q.Q.  k.W Q.Q.Q.Q.Q.Q.Q.Q.Q.Q.Q.Q.Q.Q.Q.Q.Q.Q.Q.Q.Q.Q.Q.Q.",
"Q.Q.Q.Q.Q.Q.Q.Q.Q.Q.Q.Q.Q.Q.Q.Q.Q.Q.Q.Q.Q.Q.Q.Q.Q.Q.Q.                  Q.  k.E Q.Q.Q.Q.Q.Q.Q.Q.Q.Q.Q.Q.Q.Q.Q.Q.Q.Q.Q.Q.Q.Q.Q.Q.",
"Q.Q.Q.Q.Q.Q.Q.Q.Q.Q.Q.Q.Q.Q.Q.Q.Q.Q.Q.Q.Q.Q.Q.    o & 7 m m m m m m 7 & $   . -   Q.Q.Q.Q.Q.Q.Q.Q.Q.Q.Q.Q.Q.Q.Q.Q.Q.Q.Q.Q.Q.Q.Q.",
"Q.Q.Q.Q.Q.Q.Q.Q.Q.Q.Q.Q.Q.Q.Q.Q.Q.Q.Q.    ; E h.e.2.2.2.2.2.2.2.2.2.2.2.2.2.,.k./ w     Q.Q.Q.Q.Q.Q.Q.Q.Q.Q.Q.Q.Q.Q.Q.Q.Q.Q.Q.Q.",
"Q.Q.Q.Q.Q.Q.Q.Q.Q.Q.Q.Q.Q.Q.Q.Q.Q.Q.  u h.E.E.E.q.2.2.2.2.>.>.:.:.>.1.2.2.2.3.K.E.E.S.D .   Q.Q.Q.Q.Q.Q.Q.Q.Q.Q.Q.Q.Q.Q.Q.Q.Q.Q.",
"Q.Q.Q.Q.Q.Q.Q.Q.Q.Q.Q.Q.Q.Q.Q.Q.  0 h.T.E.E.E.P.=.V m 6 * $ % X % % $ 5 8 N %.z.E.E.E.R.A.D o Q.Q.Q.Q.Q.Q.Q.Q.Q.Q.Q.Q.Q.Q.Q.Q.Q.",
"Q.Q.Q.Q.Q.Q.Q.Q.Q.Q.Q.Q.Q.Q.Q.  E T.E.E.T.j.H : + 2 e t y i p i p p i t r q > - u p.I.E.E.R.d.  Q.Q.Q.Q.Q.Q.Q.Q.Q.Q.Q.Q.Q.Q.Q.Q.",
"Q.Q.Q.Q.Q.Q.Q.Q.Q.Q.Q.Q.Q.Q.Q.o U.E.E.I.D X < p g g g g g g z z h h g g g g g g r + - k.E.E.E.A   Q.Q.Q.Q.Q.Q.Q.Q.Q.Q.Q.Q.Q.Q.Q.",
"Q.Q.Q.Q.Q.Q.Q.Q.Q.Q.Q.Q.Q.Q.  / E.E.l.: < g g h S F H H H H H H H G H H H G F z g g i X E T.E.S.  Q.Q.Q.Q.Q.Q.Q.Q.Q.Q.Q.Q.Q.Q.Q.",
"Q.Q.Q.Q.Q.Q.Q.Q.Q.Q.Q.Q.Q.Q.. U.E.S.; r g z G H H H J J I T U T U U U I J H H H G S h p - T R.E.A   Q.Q.Q.Q.Q.Q.Q.Q.Q.Q.Q.Q.Q.Q.",
"Q.Q.Q.Q.Q.Q.Q.Q.Q.Q.Q.Q.Q.  E E.R.A < h S H H H J Y ! ` ` ` ` ` ` ` ` ` ` T P H H H G h p X l.E.s.  Q.Q.Q.Q.Q.Q.Q.Q.Q.Q.Q.Q.Q.Q.",
"Q.Q.Q.Q.Q.Q.Q.Q.Q.Q.Q.Q.Q.  A.E.h.. p z H H H P ^ ` ` ` ` ` ` ` ` ` ` ` ` ` ` Q J H H G h q w E.U.X   Q.Q.Q.Q.Q.Q.Q.Q.Q.Q.Q.Q.Q.",
"Q.Q.Q.Q.Q.Q.Q.Q.Q.Q.Q.Q.  : T.E.D : z H H H I ^ ` ` ` ` ` ` ` ` ` ` ` ` ` ` ` ` Q H H H G i   D.E.L   Q.Q.Q.Q.Q.Q.Q.Q.Q.Q.Q.Q.Q.",
"Q.Q.Q.Q.Q.Q.Q.Q.Q.Q.Q.Q.  D E.E.0 q S H H H ! ` ` ` ` ! ! R T T T T ! ! ` ` ` ` ` P H H H h . h.E.d.    Q.Q.Q.Q.Q.Q.Q.Q.Q.Q.Q.Q.",
"Q.Q.Q.Q.Q.Q.Q.Q.Q.Q.Q.    ( E.E.- q G H h t r < + X   . + , 3 4 1 1 1 @   . X ; q t y G H z X s.E.S.      Q.Q.Q.Q.Q.Q.Q.Q.Q.Q.Q.",
"Q.Q.Q.Q.Q.Q.Q.Q.Q.Q.  o   s.E.E.- r h @ @ d n |  .#.#.#.#.#.#.#.#.#.#.#.#.#.O. ._ c 3 O q z X s.E.I.X u X Q.Q.Q.Q.Q.Q.Q.Q.Q.Q.Q.",
"Q.Q.Q.Q.Q.Q.Q.Q.Q.Q.o W   k.E.E.: < o _ +.#.#.#.d { #.#.#.#.#.#.#.#.#.#.#.] 4 @.#.#.@. ., ; X d.E.U.: W (   Q.Q.Q.Q.Q.Q.Q.Q.Q.Q.",
"Q.Q.Q.Q.Q.Q.Q.Q.Q.  E s.  l.E.E.u o .  .#.#.#.X.. k #.#.#.#.#.#.#.#.#.#.#.k .  .#.#.#.#.f     k.E.T.0 W T.X Q.Q.Q.Q.Q.Q.Q.Q.Q.Q.",
"Q.Q.Q.Q.Q.Q.Q.Q.Q.  l.s.  A.E.E.L   @ o.#.#.#.|   j #.#.#.#.#.#.#.#.#.#.#.j   | #.#.#.#.x     G.E.T.: W E.a Q.Q.Q.Q.Q.Q.Q.Q.Q.Q.",
"Q.Q.Q.Q.Q.Q.Q.Q.Q.  I.h.  j.E.E.F.0 3 #.#.#.#.]   s #.#.#.#.#.#.#.#.#.#.#.j   ] #.#.#.#.) X d.E.E.U.: ( R.A Q.Q.Q.Q.Q.Q.Q.Q.Q.Q.",
"Q.Q.Q.Q.Q.Q.Q.Q.Q.  j.k.o s.E.E.E.: j #.#.#.#.}   4 #.#.#.#.#.#.#.#.#.#.#.d   ] #.#.#.#.] X G.E.E.I.X / S.X Q.Q.Q.Q.Q.Q.Q.Q.Q.Q.",
"Q.Q.Q.Q.Q.Q.Q.Q.Q.Q.L j.- / E.E.E.  v #.#.#.#...o f #.#.#.#.#.#.#.#.#.#.#.f o ..#.#.#.#.}   F.E.E.A.  a.(   Q.Q.Q.Q.Q.Q.Q.Q.Q.Q.",
"Q.Q.Q.Q.Q.Q.Q.Q.Q.Q.X h.w a E.E.U.  v #.#.#.#.@.d b #.#.#.#.#.#.#.#.#.#.#.n f +.#.#.#.#.}   A.E.E.a.o L X Q.Q.Q.Q.Q.Q.Q.Q.Q.Q.Q.",
"Q.Q.Q.Q.Q.Q.Q.Q.Q.Q.Q.0 h - U.E.R.o l #.#.#.#.#.@.#.#.#.#.#.#.#.#.#.#.#.#.@.#.#.#.#.#.#.'   F.E.E.a     Q.Q.Q.Q.Q.Q.Q.Q.Q.Q.Q.Q.",
"Q.Q.Q.Q.Q.Q.Q.Q.Q.Q.Q.      j.E.E.A 1 @.#.#.#.#.#.#.+.{ _ n v k c n _ { o.#.#.#.#.#.#.#.n - U.E.G.    Q.Q.Q.Q.Q.Q.Q.Q.Q.Q.Q.Q.Q.",
"Q.Q.Q.Q.Q.Q.Q.Q.Q.Q.Q.Q.Q.  u E.E.h.  [ @.#.#.#.o.j X : w a z D A a w : X s o.#.#.#.+.' # K E.E./   Q.Q.Q.Q.Q.Q.Q.Q.Q.Q.Q.Q.Q.Q.",
"Q.Q.Q.Q.Q.Q.Q.Q.Q.Q.Q.Q.Q.    A.E.U.u @ 3 n { O.b K p.a.s.d.d.d.d.d.s.f.p.A k O.| n 3 . ; k.E.T.:   Q.Q.Q.Q.Q.Q.Q.Q.Q.Q.Q.Q.Q.Q.",
"Q.Q.Q.Q.Q.Q.Q.Q.Q.Q.Q.Q.Q.o o A R.E.T.F.d.L 2 O X / d.d.d.d.d.s.d.d.d.d.d.p.o + - a a.S.U.E.E.s.    Q.Q.Q.Q.Q.Q.Q.Q.Q.Q.Q.Q.Q.Q.",
"Q.Q.Q.Q.Q.Q.Q.Q.Q.Q.Q.Q.Q.a K   d.E.E.E.E.E.T.S.0 W d.d.d.d.d.d.d.d.d.d.f.] X k.U.E.E.E.E.E.F.- r w Q.Q.Q.Q.Q.Q.Q.Q.Q.Q.Q.Q.Q.Q.",
"Q.Q.Q.Q.Q.Q.Q.Q.Q.Q.Q.Q.  d.U.0 < A.T.E.E.E.E.R.w L a.d.d.d.d.d.s.d.d.f.g.W : U.E.E.E.E.E.G.a   l.l.o Q.Q.Q.Q.Q.Q.Q.Q.Q.Q.Q.Q.Q.",
"Q.Q.Q.Q.Q.Q.Q.Q.Q.Q.Q.Q.: U.E.S.o w A.G.T.E.E.E.L u / a.a.s.s.s.f.a.a.p.p.a a E.E.E.E.I.S.T   ( E.E.D   Q.Q.Q.Q.Q.Q.Q.Q.Q.Q.Q.Q.",
"Q.Q.Q.Q.Q.Q.Q.Q.Q.Q.Q.  L E.E.E.a.  A A.S.I.T.R.d.o L E E E E E E E W E E X f.T.R.U.S.S.0.o H T.E.E.k.  Q.Q.Q.Q.Q.Q.Q.Q.Q.Q.Q.Q.",
"Q.Q.Q.Q.Q.Q.Q.Q.Q.Q.Q.  p.E.E.E.R.a.  K A.S.S.S.c.9 - L E E E E W E E K : 6 x.S.S.S.S./ + . F.E.E.E.I.: Q.Q.Q.Q.Q.Q.Q.Q.Q.Q.Q.Q.",
"Q.Q.Q.Q.Q.Q.Q.Q.Q.Q.Q.  d.R.E.E.E.S.. X w j.S.S.D.-.8 $ w A A A A A w % 7 $.A.S.S.A.K X J . S.E.E.E.U.A   Q.Q.Q.Q.Q.Q.Q.Q.Q.Q.Q.",
"Q.Q.Q.Q.Q.Q.Q.Q.Q.Q.Q.  j.T.E.E.E.l.X h.r : s.S.S.<.&.C N m 7 7 7 m N C &.-.S.S.j.a X h.G.X A.E.E.E.U.E   Q.Q.Q.Q.Q.Q.Q.Q.Q.Q.Q.",
"Q.Q.Q.Q.Q.Q.Q.Q.Q.Q.Q.X k.U.E.E.E.j.- U.R.a.- w a.g.&.&.&.&.*.&.&.&.&.&.&.<.h.D X L I.E.U.- j.E.E.E.U.p.  Q.Q.Q.Q.Q.Q.Q.Q.Q.Q.Q.",
"Q.Q.Q.Q.Q.Q.Q.Q.Q.Q.Q.- k.U.E.E.E.d.: T.E.E.T.p.; O 8 C $.&.&.&.&.&.&.C M = % L I.E.E.E.T.: d.E.E.E.I.d.  Q.Q.Q.Q.Q.Q.Q.Q.Q.Q.Q.",
"Q.Q.Q.Q.Q.Q.Q.Q.Q.Q.Q.  j.G.E.E.E.h.; U.E.E.E.E.U.k.B 5 & 5 7 7 7 5 & * 8 Z G.E.E.E.E.E.U.- h.E.E.E.G.j.  Q.Q.Q.Q.Q.Q.Q.Q.Q.Q.Q.",
"Q.Q.Q.Q.Q.Q.Q.Q.Q.Q.Q.  h.F.R.E.E.j.- U.E.E.E.E.E.E.5.1.:.*.$.$.$.*.;.1.2.5.E.E.E.E.E.E.U.- j.E.E.E.F.h.  Q.Q.Q.Q.Q.Q.Q.Q.Q.Q.Q.",
"Q.Q.Q.Q.Q.Q.Q.Q.Q.Q.Q.  W l.U.E.E.l.X G.E.E.E.E.E.E.5.2.2.3.2.2.2.2.2.2.2.5.E.E.E.E.E.E.G.X l.E.E.T.S.s.  Q.Q.Q.Q.Q.Q.Q.Q.Q.Q.Q.",
"Q.Q.Q.Q.Q.Q.Q.Q.Q.Q.Q.  X - X 0 L ( X G.E.E.E.E.E.E.8.2.2.2.2.2.2.2.2.2.2.8.E.E.E.E.E.E.G.X A.U.j.E A 0   Q.Q.Q.Q.Q.Q.Q.Q.Q.Q.Q.",
"Q.Q.Q.Q.Q.Q.Q.Q.Q.Q.Q.Q.w S.T.F.a.u o G.E.E.E.E.E.E.9.2.2.3.t.n.n.i.6.2.2.9.E.E.E.E.E.E.G.  a - D p.a.a   Q.Q.Q.Q.Q.Q.Q.Q.Q.Q.Q.",
"Q.Q.Q.Q.Q.Q.Q.Q.Q.Q.Q.Q.- l.U.E.E.l.  F.E.E.E.E.E.E.7.2.3.N.E.E.E.E.J.5.2.5.W.E.E.E.E.E.F.  a l.R.T.S.u Q.Q.Q.Q.Q.Q.Q.Q.Q.Q.Q.Q.",
"Q.Q.Q.Q.Q.Q.Q.Q.Q.Q.Q.Q.  d.S.R.E.F.  F.E.E.E.E.E.H.2.2.t.E.E.K.J.W.E.B.2.2.B.E.E.E.E.E.F.  j.E.E.U.A.< Q.Q.Q.Q.Q.Q.Q.Q.Q.Q.Q.Q.",
"Q.Q.Q.Q.Q.Q.Q.Q.Q.Q.Q.Q.Q.E S.F.U.A.  S.E.E.E.E.E.n.2.2.B.E.V.3.2.y.E.Y.9.2.u.E.E.E.E.E.A.  A.E.R.F.l.O Q.Q.Q.Q.Q.Q.Q.Q.Q.Q.Q.Q.",
"Q.Q.Q.Q.Q.Q.Q.Q.Q.Q.Q.Q.Q.0 l.S.S.h.  l.E.E.E.E.E.b.2.2.C.E.u.2.2.8.W.W.r.2.u.E.E.E.E.E.l.  k.I.F.S.d.  Q.Q.Q.Q.Q.Q.Q.Q.Q.Q.Q.Q.",
"Q.Q.Q.Q.Q.Q.Q.Q.Q.Q.Q.Q.Q.Q.          l.E.E.E.E.E.V.2.2.M.E.H.7.3.v.E.L.5.2.n.E.E.E.E.E.j.  D a.p./ : Q.Q.Q.Q.Q.Q.Q.Q.Q.Q.Q.Q.Q.",
"Q.Q.Q.Q.Q.Q.Q.Q.Q.Q.Q.Q.Q.Q.Q.Q.Q.Q.  k.E.E.E.E.E.Y.3.2.r.E.E.E.E.E.E.v.2.3.K.E.E.E.E.E.s.        Q.Q.Q.Q.Q.Q.Q.Q.Q.Q.Q.Q.Q.Q.Q.",
"Q.Q.Q.Q.Q.Q.Q.Q.Q.Q.Q.Q.Q.Q.Q.Q.Q.Q.  j.E.E.E.E.E.E.t.2.2.i.W.E.E.E.B.4.2.r.E.E.E.E.E.T.a.  Q.Q.Q.Q.Q.Q.Q.Q.Q.Q.Q.Q.Q.Q.Q.Q.Q.Q.",
"Q.Q.Q.Q.Q.Q.Q.Q.Q.Q.Q.Q.Q.Q.Q.Q.Q.Q.  a.E.E.E.E.E.E.N.2.2.2.6.y.y.q.3.2.2.N.E.E.E.E.E.U./   Q.Q.Q.Q.Q.Q.Q.Q.Q.Q.Q.Q.Q.Q.Q.Q.Q.Q.",
"Q.Q.Q.Q.Q.Q.Q.Q.Q.Q.Q.Q.Q.Q.Q.Q.Q.Q.  W U.E.E.E.E.E.B.2.2.2.2.2.2.2.2.2.2.B.E.E.E.E.E.G.W   Q.Q.Q.Q.Q.Q.Q.Q.Q.Q.Q.Q.Q.Q.Q.Q.Q.Q.",
"Q.Q.Q.Q.Q.Q.Q.Q.Q.Q.Q.Q.Q.Q.Q.Q.Q.Q.  L F.R.E.E.E.E.C.3.2.1.1.1.1.2.2.2.2.C.E.E.E.E.T.S.L   Q.Q.Q.Q.Q.Q.Q.Q.Q.Q.Q.Q.Q.Q.Q.Q.Q.Q.",
"Q.Q.Q.Q.Q.Q.Q.Q.Q.Q.Q.Q.Q.Q.Q.Q.Q.Q.  K S.F.G.G.F.F.x.*.&.&.&.&.&.&.&.&.*.x.F.F.G.G.S.S.K   Q.Q.Q.Q.Q.Q.Q.Q.Q.Q.Q.Q.Q.Q.Q.Q.Q.Q.",
"Q.Q.Q.Q.Q.Q.Q.Q.Q.Q.Q.Q.Q.Q.Q.Q.Q.Q.  z S.S.S.S.S.S.m.&.&.&.&.&.&.&.&.&.&.c.S.S.S.S.S.S.A   Q.Q.Q.Q.Q.Q.Q.Q.Q.Q.Q.Q.Q.Q.Q.Q.Q.Q.",
"Q.Q.Q.Q.Q.Q.Q.Q.Q.Q.Q.Q.Q.Q.Q.Q.Q.Q.Q.0 S.S.k.E K K K M M M M M M M M M M K K K K j.S.S.w Q.Q.Q.Q.Q.Q.Q.Q.Q.Q.Q.Q.Q.Q.Q.Q.Q.Q.Q.",
"Q.Q.Q.Q.Q.Q.Q.Q.Q.Q.Q.Q.Q.Q.Q.Q.Q.Q.Q.- j.S.K                                     K S.j.- Q.Q.Q.Q.Q.Q.Q.Q.Q.Q.Q.Q.Q.Q.Q.Q.Q.Q.Q.",
"Q.Q.Q.Q.Q.Q.Q.Q.Q.Q.Q.Q.Q.Q.Q.Q.Q.Q.Q.  a.S.:   Q.Q.Q.Q.Q.Q.Q.Q.Q.Q.Q.Q.Q.Q.Q.Q.  - S.p.  Q.Q.Q.Q.Q.Q.Q.Q.Q.Q.Q.Q.Q.Q.Q.Q.Q.Q.Q.",
"Q.Q.Q.Q.Q.Q.Q.Q.Q.Q.Q.Q.Q.Q.Q.Q.Q.Q.Q.  L l.  Q.Q.Q.Q.Q.Q.Q.Q.Q.Q.Q.Q.Q.Q.Q.Q.Q.Q.  j.L   Q.Q.Q.Q.Q.Q.Q.Q.Q.Q.Q.Q.Q.Q.Q.Q.Q.Q.Q.",
"Q.Q.Q.Q.Q.Q.Q.Q.Q.Q.Q.Q.Q.Q.Q.Q.Q.Q.Q.  a p.  Q.Q.Q.Q.Q.Q.Q.Q.Q.Q.Q.Q.Q.Q.Q.Q.Q.Q.  p.u   Q.Q.Q.Q.Q.Q.Q.Q.Q.Q.Q.Q.Q.Q.Q.Q.Q.Q.Q.",
"Q.Q.Q.Q.Q.Q.Q.Q.Q.Q.Q.Q.Q.Q.Q.Q.Q.Q.Q.  - a   Q.Q.Q.Q.Q.Q.Q.Q.Q.Q.Q.Q.Q.Q.Q.Q.Q.Q.  : o   Q.Q.Q.Q.Q.Q.Q.Q.Q.Q.Q.Q.Q.Q.Q.Q.Q.Q.Q.",
"Q.Q.Q.Q.Q.Q.Q.Q.Q.Q.Q.Q.Q.Q.Q.Q.Q.Q.Q.Q.Q.  Q.Q.Q.Q.Q.Q.Q.Q.Q.Q.Q.Q.Q.Q.Q.Q.Q.Q.Q.Q.  Q.Q.Q.Q.Q.Q.Q.Q.Q.Q.Q.Q.Q.Q.Q.Q.Q.Q.Q.Q.Q.",
"Q.Q.Q.Q.Q.Q.Q.Q.Q.Q.Q.Q.Q.Q.Q.Q.Q.Q.Q.Q.Q.Q.Q.Q.Q.Q.Q.Q.Q.Q.Q.Q.Q.Q.Q.Q.Q.Q.Q.Q.Q.Q.Q.Q.Q.Q.Q.Q.Q.Q.Q.Q.Q.Q.Q.Q.Q.Q.Q.Q.Q.Q.Q.Q."
};
