/* XPM */
static char *result[] = {
/* columns rows colors chars-per-pixel */
"64 64 175 2 ",
"   c #010101",
".  c #080706",
"X  c #0C0A06",
"o  c #0C0C0C",
"O  c #00050B",
"+  c #100E0D",
"@  c #110E07",
"#  c #13100C",
"$  c #1A140A",
"%  c #1F190C",
"&  c #010A13",
"*  c #000C19",
"=  c #090E14",
"-  c #151414",
";  c #191614",
":  c #1B1817",
">  c #1B1B1B",
",  c #221B0E",
"<  c #231E1C",
"1  c #282118",
"2  c #392E17",
"3  c #342915",
"4  c #011222",
"5  c #00152B",
"6  c #0C1A28",
"7  c #001E3C",
"8  c #001830",
"9  c #232322",
"0  c #2B2623",
"q  c #2F2927",
"w  c #2B2B2B",
"e  c #262A2D",
"r  c #342D2A",
"t  c #37302D",
"y  c #39322E",
"u  c #323232",
"i  c #3D3532",
"p  c #3B3B3B",
"a  c #403319",
"s  c #483A1D",
"d  c #423A36",
"f  c #453D39",
"g  c #483F3B",
"h  c #534321",
"j  c #594723",
"k  c #5B4924",
"l  c #4B423E",
"z  c #665229",
"x  c #6A552A",
"c  c #6F592C",
"v  c #745D2F",
"b  c #7E6532",
"n  c #012243",
"m  c #00264C",
"M  c #002A54",
"N  c #002F5F",
"B  c #10375E",
"V  c #003162",
"C  c #00376D",
"Z  c #00386F",
"A  c #003F7D",
"S  c #003A75",
"D  c #3D4145",
"F  c #384E64",
"G  c #434343",
"H  c #4E4540",
"J  c #4A4A4A",
"K  c #504743",
"L  c #544B46",
"P  c #564D48",
"I  c #584E4A",
"U  c #5C524C",
"Y  c #4D4F51",
"T  c #535353",
"R  c #5A5A5A",
"E  c #52575B",
"W  c #60554F",
"Q  c #665A54",
"!  c #685C56",
"~  c #6F625C",
"^  c #71645E",
"/  c #656565",
"(  c #6C6C6C",
")  c #776963",
"_  c #7B6C66",
"`  c #7F7069",
"'  c #737373",
"]  c #7C7C7C",
"[  c #846A35",
"{  c #8E7239",
"}  c #95773B",
"|  c #9F7F40",
" . c #84746D",
".. c #9F8040",
"X. c #A48342",
"o. c #AC8945",
"O. c #A88743",
"+. c #B49048",
"@. c #BF994C",
"#. c #BA954A",
"$. c #C49D4F",
"%. c #CBA251",
"&. c #D4AA55",
"*. c #DDB158",
"=. c #EABB5E",
"-. c #E3B65B",
";. c #F3C361",
":. c #FFCC66",
">. c #F9C763",
",. c #004080",
"<. c #00458A",
"1. c #004A94",
"2. c #004D9B",
"3. c #165594",
"4. c #0052A4",
"5. c #005DBA",
"6. c #135EA8",
"7. c #3E71A5",
"8. c #2770B9",
"9. c #4072A5",
"0. c #0063C5",
"q. c #0066CC",
"w. c #0B6DCE",
"e. c #0468CD",
"r. c #1271CF",
"t. c #1874D1",
"y. c #277CD2",
"u. c #6290BE",
"i. c #7F9BB7",
"p. c #3485D6",
"a. c #3988D7",
"s. c #3D8BD8",
"d. c #2B80D5",
"f. c #5E9EDF",
"g. c #6EA8E2",
"h. c #7AAFE4",
"j. c #838383",
"k. c #8B8B8B",
"l. c gray58",
"z. c #9A9A9A",
"x. c #848A90",
"c. c #97A8B9",
"v. c #A4A4A4",
"b. c #ABABAB",
"n. c #B4B4B4",
"m. c #BCBCBC",
"M. c #B2B7BD",
"N. c #ACBCCC",
"B. c #B6BBC0",
"V. c #8FBCE9",
"C. c #84B5E6",
"Z. c #94BEE9",
"A. c #A5C1DE",
"S. c #BBC1C7",
"D. c #99C2EB",
"F. c #A6CAED",
"G. c #ADCDEE",
"H. c #BFD9F2",
"J. c #B8D5F1",
"K. c #C4C4C4",
"L. c #CCCCCC",
"P. c #C3C7CA",
"I. c gray83",
"U. c #DCDCDC",
"Y. c #C5DCF4",
"T. c #CADFF4",
"R. c #D9E8F7",
"E. c #E2E2E2",
"W. c #ECECEC",
"Q. c #EBF3FB",
"!. c #F3F3F3",
"~. c #F2F7FC",
"^. c #FFFFFF",
"/. c #F6FAFD",
"(. c None",
/* pixels */
"(.(.(.(.(.(.(.(.(.(.(.(.(.(.(.(.(.(.(.(.(.(.(.(.(.(.(.(.(.(.(.(.(.(.(.(.(.(.(.(.(.(.(.(.(.(.(.(.(.(.(.(.(.(.(.(.(.(.(.(.(.(.(.(.",
"(.(.(.(.(.(.(.(.(.(.(.(.(.(.(.(.(.(.(.(.(.(.(.(.(.(.(.(.(.(.(.(.(.(.(.(.(.(.(.(.(.(.(.(.(.(.(.(.(.(.(.(.(.(.(.(.(.(.(.(.(.(.(.(.",
"(.(.(.(.(.(.(.(.(.(.(.(.(.(.(.(.(.(.(.(.(.(.(.(.(.(.(.(.(.(.(.(.(.(.(.(.(.(.  > . (.(.(.(.(.(.(.(.(.(.(.(.(.(.(.(.(.(.(.(.(.(.(.",
"(.(.(.(.(.(.(.(.(.(.(.(.(.(.(.(.(.(.(.(.(.(.(.(.(.(.(.(.(.(.(.(.(.(.(.(.(.(.  m.> (.(.(.(.(.(.(.(.(.(.(.(.(.(.(.(.(.(.(.(.(.(.(.",
"(.(.(.(.(.(.(.(.(.(.(.(.(.(.(.(.(.(.(.(.(.(.(.(.(.(.(.(.(.(.(.(.(.(.(.(.(.(.o I.; (.(.(.(.(.(.(.(.(.(.(.(.(.(.(.(.(.(.(.(.(.(.(.",
"(.(.(.(.(.(.(.(.(.(.(.(.(.(.(.(.(.(.(.(.(.(.(.(.(.(.(.(.(.(.(.(.(.(.(.(.(.(.9 E.9 (.(.(.(.(.(.(.(.(.(.(.(.(.(.(.(.(.(.(.(.(.(.(.",
"(.(.(.(.(.(.(.(.(.(.(.(.(.(.(.(.(.(.(.(.(.(.(.(.(.(.(.(.(.(.(.(.(.(.(.(.(.(.G !.9 (.(.(.(.(.(.(.(.(.(.(.(.(.(.(.(.(.(.(.(.(.(.(.",
"(.(.(.(.(.(.(.(.(.(.(.(.(.(.(.(.(.(.(.(.(.(.(.(.(.(.(.(.              (.(.  / W.9 (.(.(.(.(.(.(.(.(.(.(.(.(.(.(.(.(.(.(.(.(.(.(.",
"(.(.(.(.(.(.(.(.(.(.(.(.(.(.(.(.(.(.(.(.(.(.(.    * 5 7 M M M M n n 8 4 * & o e . (.(.(.(.(.(.(.(.(.(.(.(.(.(.(.(.(.(.(.(.(.(.(.",
"(.(.(.(.(.(.(.(.(.(.(.(.(.(.(.(.(.(.(.(.    p k.u.0.q.q.q.q.q.q.q.q.q.q.q.5.8.v.Y .   (.(.(.(.(.(.(.(.(.(.(.(.(.(.(.(.(.(.(.(.(.",
"(.(.(.(.(.(.(.(.(.(.(.(.(.(.(.(.(.(.  9 ] E.^.^.s.q.q.q.q.q.q.q.q.q.q.q.q.q.w.R.^.!.v.w   (.(.(.(.(.(.(.(.(.(.(.(.(.(.(.(.(.(.(.",
"(.(.(.(.(.(.(.(.(.(.(.(.(.(.(.(.(.- l.!.^.^.^.Q.6.Z n 5 & &       O & 4 7 M ,.N.^.^.^.^.m.p   (.(.(.(.(.(.(.(.(.(.(.(.(.(.(.(.(.",
"(.(.(.(.(.(.(.(.(.(.(.(.(.(.(.(.p I.^.^.^.W.v.Y = o > 0 q r t t r r q 0 < - X e ] I.^.^.^.W.~   (.(.(.(.(.(.(.(.(.(.(.(.(.(.(.(.",
"(.(.(.(.(.(.(.(.(.(.(.(.(.(.(.. I.^.^.!.k.> ; q i f d d d d d f f f d d d d d y < ; J I.^.^.^.u (.(.(.(.(.(.(.(.(.(.(.(.(.(.(.(.",
"(.(.(.(.(.(.(.(.(.(.(.(.(.(.  R ^.^.W.p - y d d l l K L L L P P P L L L L K l f d d 0 - l.^.^.b.  (.(.(.(.(.(.(.(.(.(.(.(.(.(.(.",
"(.(.(.(.(.(.(.(.(.(.(.(.(.(.  K.^.!.Y < d f l L P P P L P P P U P P I P P P P L H l d r o b.^.^.>   (.(.(.(.(.(.(.(.(.(.(.(.(.(.",
"(.(.(.(.(.(.(.(.(.(.(.(.(.  G ^.^.' ; d l L P P I U ^ ` `  . . . . . . .) Q P P P P K d r ; U.^.j.  (.(.(.(.(.(.(.(.(.(.(.(.(.(.",
"(.(.(.(.(.(.(.(.(.(.(.(.(.  v.^.I.  r l P P P I ^  . . . . . . . . . . . . .` Q P P I K d ; / ^.I.  (.(.(.(.(.(.(.(.(.(.(.(.(.(.",
"(.(.(.(.(.(.(.(.(.(.(.(.(.- E.^./ # f L P P I )  . . . . . . . . . . . . . . . .Q P P P H r   E.^.w   (.(.(.(.(.(.(.(.(.(.(.(.(.",
"(.(.(.(.(.(.(.(.(.(.(.(.  u ^.^.u < H P P L )  . . . . . . . . . . . . . . . . . .U P I L p . n.^.k.    (.(.(.(.(.(.(.(.(.(.(.(.",
"(.(.(.(.(.(.(.(.(.(.(.(.  / ^.^.> 0 L P P U ` ~ U U l f d y t t r i d d g K I Q ) ~ L P P f . z.^.n.    (.(.(.(.(.(.(.(.(.(.(.(.",
"(.(.(.(.(.(.(.(.(.(.(.    k.^.^.- 0 P i < o X 2 h j x v [ { ..O.} } } [ x z k s , . ; r H l . l.^.U.. o   (.(.(.(.(.(.(.(.(.(.(.",
"(.(.(.(.(.(.(.(.(.(.  w   v.^.^.- r : 3 { %.>.:.$.;.:.:.:.:.:.:.:.:.:.:.:.=.+.:.:.=.o.k . y X l.^.W.- / u   (.(.(.(.(.(.(.(.(.(.",
"(.(.(.(.(.(.(.(.(.(.> k.  n.^.^.> ;   $.:.:.:.;., { :.:.:.:.:.:.:.:.:.:.:.b $ ;.:.:.:.:.3 o o z.^.W.> ( n.  (.(.(.(.(.(.(.(.(.(.",
"(.(.(.(.(.(.(.(.(.  k.l.  m.^.^.p   X -.:.:.:.&.  j :.:.:.:.:.:.:.:.:.:.:.k   &.:.:.:.:.h     m.^.!.> ( ^.> (.(.(.(.(.(.(.(.(.(.",
"(.(.(.(.(.(.(.(.(.  L.l.  m.^.^.(   % ;.:.:.:.#.  h :.:.:.:.:.:.:.:.:.:.:.h   #.:.:.:.:.c     W.^.!.> ( ^.J (.(.(.(.(.(.(.(.(.(.",
"(.(.(.(.(.(.(.(.(.  U.b.  v.^.^.W.e 2 :.:.:.:.o.  a :.:.:.:.:.:.:.:.:.:.:.h   O.:.:.:.:.{ o K.^.^.W.- ] W.p (.(.(.(.(.(.(.(.(.(.",
"(.(.(.(.(.(.(.(.(.  z.b.o k.^.^.^.o k :.:.:.:.$.  2 :.:.:.:.:.:.:.:.:.:.:.s   +.:.:.:.:.+.  U.^.^.U.. ] n.. (.(.(.(.(.(.(.(.(.(.",
"(.(.(.(.(.(.(.(.(.(.Y n.; / ^.^.^.  x :.:.:.:.*.. a :.:.:.:.:.:.:.:.:.:.:.a . *.:.:.:.:.@.  I.^.^.m.  k./   (.(.(.(.(.(.(.(.(.(.",
"(.(.(.(.(.(.(.(.(.(.. z.u u ^.^.W.  x :.:.:.:.>.j [ :.:.:.:.:.:.:.:.:.:.:.[ j ;.:.:.:.:.@.  m.^.^.j.o J . (.(.(.(.(.(.(.(.(.(.(.",
"(.(.(.(.(.(.(.(.(.(.(.- u o E.^.^.o j :.:.:.:.:.:.:.:.:.:.:.:.:.:.:.:.:.:.:.:.:.:.:.:.:.O.  U.^.^.w     (.(.(.(.(.(.(.(.(.(.(.(.",
"(.(.(.(.(.(.(.(.(.(.(.      v.^.^.G 1 >.:.:.:.:.:.:.*.X.[ c j s h x b X.&.:.:.:.:.:.:.:.v > W.^.L.    (.(.(.(.(.(.(.(.(.(.(.(.(.",
"(.(.(.(.(.(.(.(.(.(.(.(.(.  e ^.^.v.  +.>.:.:.:.=.2 o > w p J T J p w > - 2 =.:.:.:.>.| $ Y ^.^.'   (.(.(.(.(.(.(.(.(.(.(.(.(.(.",
"(.(.(.(.(.(.(.(.(.(.(.(.(.    m.^.W.w   , [ $.-.z / z.z.z.z.l.z.z.z.l.z.z.T h =.$.[ $   o n.^.!.;   (.(.(.(.(.(.(.(.(.(.(.(.(.(.",
"(.(.(.(.(.(.(.(.(.(.(.(.  u . G ^.^.W.K.k.G ; X o ' z.z.z.z.z.z.z.l.z.z.z.]   @ # w ' n.E.^.^.l.  p   (.(.(.(.(.(.(.(.(.(.(.(.(.",
"(.(.(.(.(.(.(.(.(.(.(.(.o L.R   z.^.^.^.^.^.W.m.9 / z.z.l.z.z.z.z.z.z.z.z.j.X v.U.^.^.^.^.^.L.; u W.p   (.(.(.(.(.(.(.(.(.(.(.(.",
"(.(.(.(.(.(.(.(.(.(.(.  w ^.E.; 9 I./.^.^.^.^.^.w R l.z.z.z.z.z.z.z.z.z.z.( - W.^.^.^.^.^.E.J   b.^.z.  (.(.(.(.(.(.(.(.(.(.(.(.",
"(.(.(.(.(.(.(.(.(.(.(.  ( ^.^.b.  p K.W.^.^.^.^.J G ' l.l.z.z.l.z.z.l.k.k.G u ^.^.^.^.W.I.'   R ^.^.W.>   (.(.(.(.(.(.(.(.(.(.(.",
"(.(.(.(.(.(.(.(.(.(.(.  l.^.^.^.(   ~ P.L.W.^.^.l.X / / / / / / / / / / / - x.^.^.!.I.L.z.o u !.^.^.!.T   (.(.(.(.(.(.(.(.(.(.(.",
"(.(.(.(.(.(.(.(.(.(.(.  z.^.^.^.!.Y . ] L.L.I.I.M.4 9 / / ( / / ( / / / w & c.I.I.L.L.l.>   n.^.^.^.!.'   (.(.(.(.(.(.(.(.(.(.(.",
"(.(.(.(.(.(.(.(.(.(.(.  b.!.^.^.^.b.  o R P.L.L.P.3.* > G R R R R R G - & ,.S.L.L.L.k.o w o b.^.^.^.W.l.  (.(.(.(.(.(.(.(.(.(.(.",
"(.(.(.(.(.(.(.(.(.(.(.- n.W.^.^.^.z.> (   p K.L.L.7.<.V 5 &   . O & 4 N <.3.L.L.P.(   R U.> z.^.^.^.W.n.o (.(.(.(.(.(.(.(.(.(.(.",
"(.(.(.(.(.(.(.(.(.(.(.o n.E.^.^.^.b.; W.L.w # ' K.i.1.1.1.1.1.1.1.1.1.1.1.7.L.z.w o l.^.W.; b.^.^.^.E.m.> (.(.(.(.(.(.(.(.(.(.(.",
"(.(.(.(.(.(.(.(.(.(.(.  b.I.^.^.^.n.o E.^./.v.u ; E S 1.1.1.1.1.1.1.1.1.A F 9 : k.W.^.^.E.o n.^.^.^.E.m.9 (.(.(.(.(.(.(.(.(.(.(.",
"(.(.(.(.(.(.(.(.(.(.(.  z.L.!.^.^.m.o U.^.^.^.W.l.G = 5 n N C C C V M 5 & 6 ] I.^.^.^.^.U.o m.^.^.^.I.n.- (.(.(.(.(.(.(.(.(.(.(.",
"(.(.(.(.(.(.(.(.(.(.(.  w T ] v.I.m.o U.^.^.^.^.^.^.8.<.C n e w w D B ,.4.y.^.^.^.^.^.^.U.. m.^.^.U.b.j.  (.(.(.(.(.(.(.(.(.(.(.",
"(.(.(.(.(.(.(.(.(.(.(.  0 ] ] G o >   I.^.^.^.^.^.^.t.q.e.F.^.^.^.^.R.r.q.w./.^.^.^.^.^.I.  z.v.p - . >   (.(.(.(.(.(.(.(.(.(.(.",
"(.(.(.(.(.(.(.(.(.(.(.(.> K.!.^.E.'   I.^.^.^.^.^.T.e.q.f.^.^.H.G.Q.^.F.e.q.G.^.^.^.^.^.I.  . w l.L.L./   (.(.(.(.(.(.(.(.(.(.(.",
"(.(.(.(.(.(.(.(.(.(.(.(.. b.U.^.^.I.  K.^.^.^.^.^.V.q.q.J.^.V.q.q.a.^.Q.p.q.g.^.^.^.^.^.m.  R ^.^.^.L.G   (.(.(.(.(.(.(.(.(.(.(.",
"(.(.(.(.(.(.(.(.(.(.(.(.  k.L.W.^.I.  K.^.^.^.^.^.V.q.q.J.^.h.q.q.y.^.Q.a.q.g.^.^.^.^.^.m.  k.^.^.W.L.w (.(.(.(.(.(.(.(.(.(.(.(.",
"(.(.(.(.(.(.(.(.(.(.(.(.(.J L.L.I.m.. m.^.^.^.^.^.Y.q.q.h.^.~.h.f.Y.^.Y.w.q.G.^.^.^.^.^.v.  z.^.!.L.B.> (.(.(.(.(.(.(.(.(.(.(.(.",
"(.(.(.(.(.(.(.(.(.(.(.(.(.. T ( ( T   b.^.^.^.^.^.^.a.q.r.H.^.^.^.^.R.p.q.y./.^.^.^.^.^.k.  ( L.L.K.] (.(.(.(.(.(.(.(.(.(.(.(.(.",
"(.(.(.(.(.(.(.(.(.(.(.(.(.(.(.(.(.(.  z.^.^.^.^.^.^.V.q.q.r.C.J.H.D.p.q.q.C.^.^.^.^.^.W.]   o G l u o (.(.(.(.(.(.(.(.(.(.(.(.(.",
"(.(.(.(.(.(.(.(.(.(.(.(.(.(.(.(.(.(.  ( !.^.^.^.^.^.F.q.q.q.q.q.q.q.q.q.q.F.^.^.^.^.^.U.(   (.(.(.(.(.(.(.(.(.(.(.(.(.(.(.(.(.(.",
"(.(.(.(.(.(.(.(.(.(.(.(.(.(.(.(.(.(.  / L.^.^.^.^.^.H.q.q.0.0.0.q.0.q.q.q.H.^.^.^.^.!.L./   (.(.(.(.(.(.(.(.(.(.(.(.(.(.(.(.(.(.",
"(.(.(.(.(.(.(.(.(.(.(.(.(.(.(.(.(.(.  T L.I.U.U.U.U.N.2.1.2.2.1.1.2.2.2.2.N.U.U.U.U.I.L.T   (.(.(.(.(.(.(.(.(.(.(.(.(.(.(.(.(.(.",
"(.(.(.(.(.(.(.(.(.(.(.(.(.(.(.(.(.(.(.p L.L.L.L.K.K.B.1.1.1.1.1.1.1.1.1.1.B.K.K.K.L.L.L.p (.(.(.(.(.(.(.(.(.(.(.(.(.(.(.(.(.(.(.",
"(.(.(.(.(.(.(.(.(.(.(.(.(.(.(.(.(.(.(.9 K.L.z.9 > > > * * * * * * * * * * > > > > l.L.K.9 (.(.(.(.(.(.(.(.(.(.(.(.(.(.(.(.(.(.(.",
"(.(.(.(.(.(.(.(.(.(.(.(.(.(.(.(.(.(.(.o z.L.p   (.(.(.(.(.(.(.(.(.(.(.(.(.(.(.(.  p L.z.o (.(.(.(.(.(.(.(.(.(.(.(.(.(.(.(.(.(.(.",
"(.(.(.(.(.(.(.(.(.(.(.(.(.(.(.(.(.(.(.  ' L.o   (.(.(.(.(.(.(.(.(.(.(.(.(.(.(.(.  . m.(   (.(.(.(.(.(.(.(.(.(.(.(.(.(.(.(.(.(.(.",
"(.(.(.(.(.(.(.(.(.(.(.(.(.(.(.(.(.(.(.  J z.  (.(.(.(.(.(.(.(.(.(.(.(.(.(.(.(.(.(.  k.G   (.(.(.(.(.(.(.(.(.(.(.(.(.(.(.(.(.(.(.",
"(.(.(.(.(.(.(.(.(.(.(.(.(.(.(.(.(.(.(.  ; J   (.(.(.(.(.(.(.(.(.(.(.(.(.(.(.(.(.(.  u -   (.(.(.(.(.(.(.(.(.(.(.(.(.(.(.(.(.(.(.",
"(.(.(.(.(.(.(.(.(.(.(.(.(.(.(.(.(.(.(.(.    (.(.(.(.(.(.(.(.(.(.(.(.(.(.(.(.(.(.(.(.    (.(.(.(.(.(.(.(.(.(.(.(.(.(.(.(.(.(.(.(.",
"(.(.(.(.(.(.(.(.(.(.(.(.(.(.(.(.(.(.(.(.(.(.(.(.(.(.(.(.(.(.(.(.(.(.(.(.(.(.(.(.(.(.(.(.(.(.(.(.(.(.(.(.(.(.(.(.(.(.(.(.(.(.(.(."
};
