/* XPM */
static char *result[] = {
/* columns rows colors chars-per-pixel */
"64 64 167 2 ",
"   c #010101",
".  c #080707",
"X  c #0D0A05",
"o  c #02060B",
"O  c #0B0B0B",
"+  c #15120C",
"@  c #000A13",
"#  c #010D19",
"$  c #141313",
"%  c #191615",
"&  c #1C1B1B",
"*  c #1F1A13",
"=  c #231C0E",
"-  c #251F13",
";  c #221E1C",
":  c #2D2412",
">  c #25211F",
",  c #362C19",
"<  c #3D3119",
"1  c #001223",
"2  c #111921",
"3  c #001D39",
"4  c #1F2020",
"5  c #232323",
"6  c #2B2623",
"7  c #2F2926",
"8  c #2C2C2C",
"9  c #322D2A",
"0  c #302A27",
"q  c #37312D",
"w  c #39322E",
"e  c #333333",
"r  c #3C3532",
"t  c #3C3C3C",
"y  c #41341A",
"u  c #4B3C1E",
"i  c #423A36",
"p  c #453D39",
"a  c #483F3B",
"s  c #534321",
"d  c #584723",
"f  c #5D4B25",
"g  c #4B423E",
"h  c #665129",
"j  c #6A552A",
"k  c #6F592C",
"l  c #735C2E",
"z  c #7B6231",
"x  c #776030",
"c  c #002245",
"v  c #072A4E",
"b  c #002A54",
"n  c #002D5A",
"m  c #373D43",
"M  c #003164",
"N  c #08396A",
"B  c #003D7B",
"V  c #15406B",
"C  c #00407F",
"Z  c #314D69",
"A  c #454545",
"S  c #4E4641",
"D  c #4C4C4C",
"F  c #514743",
"G  c #534A45",
"H  c #564D48",
"J  c #594E4A",
"K  c #5B514C",
"L  c #545454",
"P  c #5D5D5D",
"I  c #625651",
"U  c #685C56",
"Y  c #6E625B",
"T  c #72645E",
"R  c #656565",
"E  c gray42",
"W  c #7B6D66",
"Q  c #786A63",
"!  c #747474",
"~  c #7B7B7B",
"^  c #806633",
"/  c #876C36",
"(  c #8E7138",
")  c #9C7D3E",
"_  c #91743A",
"`  c #84746D",
"'  c #AC8A45",
"]  c #B28F47",
"[  c #B59149",
"{  c #BC964B",
"}  c #C69F4F",
"|  c #CAA251",
" . c #D4A954",
".. c #DFB259",
"X. c #E2B55B",
"o. c #EABB5D",
"O. c #EFBF60",
"+. c #EFC060",
"@. c #F2C261",
"#. c #FFCC66",
"$. c #004285",
"%. c #00458A",
"&. c #004A94",
"*. c #004E9C",
"=. c #27639F",
"-. c #0052A4",
";. c #0055AA",
":. c #005DBA",
">. c #135BA2",
",. c #0060BF",
"<. c #7B7E81",
"1. c #557EA8",
"2. c #0066CC",
"3. c #0467CA",
"4. c #1271CF",
"5. c #1C71C7",
"6. c #1573D0",
"7. c #1B76D2",
"8. c #2A7FD4",
"9. c #5F87AE",
"0. c #2E82D5",
"q. c #3284D6",
"w. c #3988D7",
"e. c #3D8BD8",
"r. c #5B9DDF",
"t. c #5398DC",
"y. c #418DD9",
"u. c #6AA6E1",
"i. c #79AFE4",
"p. c #7BB0E4",
"a. c #848484",
"s. c #8A8A8A",
"d. c gray58",
"f. c #9A9A9A",
"g. c #8B99A7",
"h. c #91A2B3",
"j. c #A3A3A3",
"k. c #ABABAB",
"l. c #B4B4B4",
"z. c #BDBDBD",
"x. c #A1B1C0",
"c. c #B4BDC5",
"v. c #83B4E6",
"b. c #8CBAE8",
"n. c #ADC1D5",
"m. c #9AC3EA",
"M. c #A6CAED",
"N. c #BAD5F1",
"B. c #BAD6F1",
"V. c #B7D2EE",
"C. c #C3C3C3",
"Z. c #CCCCCC",
"A. c #C5C7CA",
"S. c #D5D5D5",
"D. c #DCDCDC",
"F. c #C5DCF3",
"G. c #D7E7F7",
"H. c #DDEBF8",
"J. c #CCE0F5",
"K. c #E3E3E3",
"L. c #ECECEC",
"P. c #EBF3FA",
"I. c #F3F3F3",
"U. c #F1F6FC",
"Y. c #FFFFFF",
"T. c #F3F8FD",
"R. c None",
/* pixels */
"R.R.R.R.R.R.R.R.R.R.R.R.R.R.R.R.R.R.R.R.R.R.R.R.R.R.R.R.R.R.R.R.R.R.R.R.R.R.R.R.R.R.R.R.R.R.R.R.R.R.R.R.R.R.R.R.R.R.R.R.R.R.R.R.",
"R.R.R.R.R.R.R.R.R.R.R.R.R.R.R.R.R.R.R.R.R.R.R.R.R.R.R.R.R.R.R.R.R.R.R.R.R.R.. . R.R.R.R.R.R.R.R.R.R.R.R.R.R.R.R.R.R.R.R.R.R.R.R.",
"R.R.R.R.R.R.R.R.R.R.R.R.R.R.R.R.R.R.R.R.R.R.R.R.R.R.R.R.R.R.R.R.R.R.R.R.R.R.A a.R.R.R.R.R.R.R.R.R.R.R.R.R.R.R.R.R.R.R.R.R.R.R.R.",
"R.R.R.R.R.R.R.R.R.R.R.R.R.R.R.R.R.R.R.R.R.R.R.R.R.R.R.R.R.R.R.R.R.R.R.R.R.  ! d.  R.R.R.R.R.R.R.R.R.R.R.R.R.R.R.R.R.R.R.R.R.R.R.",
"R.R.R.R.R.R.R.R.R.R.R.R.R.R.R.R.R.R.R.R.R.R.R.R.R.R.R.R.R.R.R.R.R.R.R.R.R.  d.j.  R.R.R.R.R.R.R.R.R.R.R.R.R.R.R.R.R.R.R.R.R.R.R.",
"R.R.R.R.R.R.R.R.R.R.R.R.R.R.R.R.R.R.R.R.R.R.R.R.                            A L   R.R.R.R.R.R.R.R.R.R.R.R.R.R.R.R.R.R.R.R.R.R.R.",
"R.R.R.R.R.R.R.R.R.R.R.R.R.R.R.R.R.R.R.R.R.  X 8 Z &.;.,.2.2.2.2.:.:.;.*.&.$.V A %     R.R.R.R.R.R.R.R.R.R.R.R.R.R.R.R.R.R.R.R.R.",
"R.R.R.R.R.R.R.R.R.R.R.R.R.R.R.R.R.R.  . e d.D.T.t.2.2.2.2.2.2.2.2.2.2.2.2.2.4.P.K.k.D O   R.R.R.R.R.R.R.R.R.R.R.R.R.R.R.R.R.R.R.",
"R.R.R.R.R.R.R.R.R.R.R.R.R.R.R.R.R.. D C.T.Y.Y.U.5.;.%.N n b c c c b b M C *.:.V.Y.Y.Y.S.~ $ R.R.R.R.R.R.R.R.R.R.R.R.R.R.R.R.R.R.",
"R.R.R.R.R.R.R.R.R.R.R.R.R.R.R.R.& l.Y.Y.Y.Y.K.<.# o . $ % > 7 7 7 6 ; $ +   o m z.Y.Y.Y.Y.S.e R.R.R.R.R.R.R.R.R.R.R.R.R.R.R.R.R.",
"R.R.R.R.R.R.R.R.R.R.R.R.R.R.R.  l.Y.Y.Y.A.A . % 0 i i i i i i i i i i i i i q > O 5 s.I.Y.Y.L.& R.R.R.R.R.R.R.R.R.R.R.R.R.R.R.R.",
"R.R.R.R.R.R.R.R.R.R.R.R.R.R.  A Y.Y.I.E + 7 r i i g g F F G G G F G F g g g a i i w & e C.Y.Y.f.  R.R.R.R.R.R.R.R.R.R.R.R.R.R.R.",
"R.R.R.R.R.R.R.R.R.R.R.R.R.R.  k.Y.Y.' # w i g F G H H H H H H H J H H H H H H F g p i ; ; S.Y.L.$   R.R.R.R.R.R.R.R.R.R.R.R.R.R.",
"R.R.R.R.R.R.R.R.R.R.R.R.R.  9 T.Y.j.1 m a F G H H K U T Q W W W W W W Q T I H H H H g i 6 8 L.Y.E   R.R.R.R.R.R.R.R.R.R.R.R.R.R.",
"R.R.R.R.R.R.R.R.R.R.R.R.R.  f.Y.D.O 9 g G H H H Y ` ` ` ` ` ` ` ` ` ` ` ` ` Q I H H H g i $ ! Y.A.  R.R.R.R.R.R.R.R.R.R.R.R.R.R.",
"R.R.R.R.R.R.R.R.R.R.R.R.R.O D.Y.! O i G H H H T ` ` ` ` ` ` ` ` ` ` ` ` ` ` ` ` I H H H g 9 . L.Y.5   R.R.R.R.R.R.R.R.R.R.R.R.R.",
"R.R.R.R.R.R.R.R.R.R.R.R.  8 T.Y.e > g H H H Y ` ` ` ` ` ` ` ` ` ` ` ` ` ` ` ` ` W J H H H r . l.Y.~   R.R.R.R.R.R.R.R.R.R.R.R.R.",
"R.R.R.R.R.R.R.R.R.R.R.R.  R Y.Y.& 6 G H H H W Q Y U H F g a i i i i g g G K U T Q Y H H H a . f.Y.l.    R.R.R.R.R.R.R.R.R.R.R.R.",
"R.R.R.R.R.R.R.R.R.R.R.    a.Y.Y.% 6 G p 6 % * : < y s f j z ( _ ^ ^ ^ l s s y , : $ & q S S . d.Y.S.  O   R.R.R.R.R.R.R.R.R.R.R.",
"R.R.R.R.R.R.R.R.R.R.  8   j.Y.Y.% 7 & < z [ X.#.' @.#.#.#.#.#.#.#.#.#.#.#.X.) #.O. .) f + q . d.Y.K.$ R e   R.R.R.R.R.R.R.R.R.R.",
"R.R.R.R.R.R.R.R.R.R.% s.  l.Y.Y.& %   } #.#.#.@.= ) #.#.#.#.#.#.#.#.#.#.#.^ + @.#.#.#.#.: . . j.Y.I.; E l.  R.R.R.R.R.R.R.R.R.R.",
"R.R.R.R.R.R.R.R.R.  a.d.  z.Y.Y.t   X X.#.#.#. .  d #.#.#.#.#.#.#.#.#.#.#.f    .#.#.#.#.s     z.Y.I.2 E Y.& R.R.R.R.R.R.R.R.R.R.",
"R.R.R.R.R.R.R.R.R.  Z.d.  z.Y.Y.~   * @.#.#.#.[   s #.#.#.#.#.#.#.#.#.#.#.s   [ #.#.#.#.l   . I.Y.I.& E Y.D R.R.R.R.R.R.R.R.R.R.",
"R.R.R.R.R.R.R.R.R.  K.k.  k.Y.Y.I.8 < #.#.#.#.'   < #.#.#.#.#.#.#.#.#.#.#.s   ' #.#.#.#._ + A.Y.Y.L.% ~ L.r R.R.R.R.R.R.R.R.R.R.",
"R.R.R.R.R.R.R.R.R.  d.k.. s.Y.Y.Y.O f #.#.#.#.|   < #.#.#.#.#.#.#.#.#.#.#.u   [ #.#.#.#.[   D.Y.Y.D.. ~ l.. R.R.R.R.R.R.R.R.R.R.",
"R.R.R.R.R.R.R.R.R.R.t z.& R Y.Y.T.  j #.#.#.#...X < #.#.#.#.#.#.#.#.#.#.#.y . ..#.#.#.#.}   Z.Y.Y.l.  d.L   R.R.R.R.R.R.R.R.R.R.",
"R.R.R.R.R.R.R.R.R.R.  s.r q Y.Y.L.  j #.#.#.#.#.x ) #.#.#.#.#.#.#.#.#.#.#.) l #.#.#.#.#.{   C.Y.Y.~ . A   R.R.R.R.R.R.R.R.R.R.R.",
"R.R.R.R.R.R.R.R.R.R.R.. 2 . S.Y.Y.% u #.#.#.#.#.#.#.#.#.#.#.#.+.#.#.#.#.#.#.#.#.#.#.#.#.) . D.Y.T.%     R.R.R.R.R.R.R.R.R.R.R.R.",
"R.R.R.R.R.R.R.R.R.R.R.R.    d.Y.Y.L = @.#.#.#.#.#.+.[ x d y : : : < s l ' o.#.#.#.#.#.#.h & L.Y.C.    R.R.R.R.R.R.R.R.R.R.R.R.R.",
"R.R.R.R.R.R.R.R.R.R.R.R.R.  % I.Y.l.  (  .#.#.#.| , 8 A L R R E R R L A e - } #.#.#.| k X R Y.Y.L   R.R.R.R.R.R.R.R.R.R.R.R.R.R.",
"R.R.R.R.R.R.R.R.R.R.R.R.R.    d.Y.T.! + . : h ) < ! d.f.f.f.d.f.f.f.f.f.f.E = ] j :   . D D.Y.K..   R.R.R.R.R.R.R.R.R.R.R.R.R.R.",
"R.R.R.R.R.R.R.R.R.R.R.R.R.$ . 8 T.Y.Y.I.A.a.g O O ! f.f.f.f.f.f.f.f.f.f.f.a.    8 R l.I.Y.Y.Y.~   % R.R.R.R.R.R.R.R.R.R.R.R.R.R.",
"R.R.R.R.R.R.R.R.R.R.R.R.  s.'   ~ I.Y.Y.Y.Y.Y.L.8 R d.f.f.f.f.f.d.f.f.d.f.<.O D.Y.Y.Y.Y.Y.T.k.. D C.. R.R.R.R.R.R.R.R.R.R.R.R.R.",
"R.R.R.R.R.R.R.R.R.R.R.R.O J.U.e + k.L.Y.Y.Y.Y.Y.8 P ' d.f.f.f.f.f.f.f.f.f.P % I.Y.Y.Y.Y.T.Z.5 . D.Y.A   R.R.R.R.R.R.R.R.R.R.R.R.",
"R.R.R.R.R.R.R.R.R.R.R.  D Y.Y.S.$ & l.D.L.Y.Y.Y.R 8 ! 9.a.a.s.a.s.s.a.a.! e L Y.Y.Y.I.K.Z.D   d.Y.Y.l.  R.R.R.R.R.R.R.R.R.R.R.R.",
"R.R.R.R.R.R.R.R.R.R.R.  <.Y.Y.Y.l.O 8 z.A.D.L.L.k.@ A E R R R E R R R R L . g.L.L.D.Z.C.U   a.Y.Y.Y.L.8   R.R.R.R.R.R.R.R.R.R.R.",
"R.R.R.R.R.R.R.R.R.R.R.  d.Y.Y.Y.Y.d.  t l.Z.Z.Z.c.v O L R R R R R R R D $ 3 x.Z.Z.Z.A.L     A.Y.Y.Y.L.D   R.R.R.R.R.R.R.R.R.R.R.",
"R.R.R.R.R.R.R.R.R.R.R.  j.T.Y.Y.Y.z.. O $ j.Z.Z.A.=.n @ % e e e e e & @ c &.A.Z.Z.z.t . E + l.Y.Y.Y.L.!   R.R.R.R.R.R.R.R.R.R.R.",
"R.R.R.R.R.R.R.R.R.R.R.. k.I.Y.Y.Y.k.% Z.D o R A.Z.9.&.&.C M b b b M C &.&.=.Z.Z.a.$ & Z.L.$ j.Y.Y.Y.L.d.  R.R.R.R.R.R.R.R.R.R.R.",
"R.R.R.R.R.R.R.R.R.R.R.$ l.L.Y.Y.Y.f.& I.I.d.4 6 a.h.&.&.&.&.&.&.&.&.&.&.&.1.f.A & E K.Y.I.& f.Y.Y.Y.K.k.. R.R.R.R.R.R.R.R.R.R.R.",
"R.R.R.R.R.R.R.R.R.R.R.. k.D.Y.Y.Y.k.$ L.Y.Y.I.f.t 2 3 b B %.&.&.&.%.$.M c 2 8 ~ K.Y.Y.Y.L.$ k.Y.Y.Y.K.l.$ R.R.R.R.R.R.R.R.R.R.R.",
"R.R.R.R.R.R.R.R.R.R.R.  k.S.Y.Y.Y.k.$ L.Y.Y.Y.Y.Y.D.N 2 o o # # # @ o # c >.T.Y.Y.Y.Y.Y.L.$ k.Y.Y.Y.D.k.O R.R.R.R.R.R.R.R.R.R.R.",
"R.R.R.R.R.R.R.R.R.R.R.  s.Z.I.Y.Y.C.. D.Y.Y.Y.Y.Y.Y.6.2.2.-.%.%.%.*.:.2.2.6.Y.Y.Y.Y.Y.Y.K.O l.Y.Y.T.S.j.  R.R.R.R.R.R.R.R.R.R.R.",
"R.R.R.R.R.R.R.R.R.R.R.    $ 8 D a.f.O K.Y.Y.Y.Y.Y.Y.8.2.2.2.2.2.2.2.2.2.2.8.Y.Y.Y.Y.Y.Y.D.X z.T.A.a.L e   R.R.R.R.R.R.R.R.R.R.R.",
"R.R.R.R.R.R.R.R.R.R.R.  8 j.h.' t &   D.Y.Y.Y.Y.Y.Y.0.2.2.7.v.B.B.M.w.2.2.8.Y.Y.Y.Y.Y.Y.D.. R D 6 r P e   R.R.R.R.R.R.R.R.R.R.R.",
"R.R.R.R.R.R.R.R.R.R.R.R.$ c.H.Y.T.k.  S.Y.Y.Y.Y.Y.U.6.2.7.G.Y.Y.Y.Y.T.y.2.3.H.Y.Y.Y.Y.Y.S.  > j.L.Y.Z.A   R.R.R.R.R.R.R.R.R.R.R.",
"R.R.R.R.R.R.R.R.R.R.R.R.o j.S.Y.Y.S.  S.Y.Y.Y.Y.Y.V.2.2.p.Y.Y.u.r.F.Y.F.3.2.b.Y.Y.Y.Y.Y.S.  d.Y.Y.I.Z.8 R.R.R.R.R.R.R.R.R.R.R.R.",
"R.R.R.R.R.R.R.R.R.R.R.R.R.! Z.K.T.S.  C.Y.Y.Y.Y.Y.b.2.2.B.Y.v.2.2.0.T.U.w.2.u.Y.Y.Y.Y.Y.n.  k.Y.Y.D.C.& R.R.R.R.R.R.R.R.R.R.R.R.",
"R.R.R.R.R.R.R.R.R.R.R.R.R.8 C.Z.A.k.  z.Y.Y.Y.Y.Y.m.2.2.V.Y.v.2.2.q.Y.P.q.2.i.Y.Y.Y.Y.Y.l.  k.K.D.A.k.. R.R.R.R.R.R.R.R.R.R.R.R.",
"R.R.R.R.R.R.R.R.R.R.R.R.R.R.5 e e 8   z.Y.Y.Y.Y.Y.F.2.2.p.Y.Y.v.r.G.Y.F.3.2.M.Y.Y.Y.Y.Y.j.  P l.l.j.t R.R.R.R.R.R.R.R.R.R.R.R.R.",
"R.R.R.R.R.R.R.R.R.R.R.R.R.R.R.R.R.R.  k.Y.Y.Y.Y.Y.Y.0.2.6.J.Y.Y.Y.Y.P.e.2.7.T.Y.Y.Y.Y.Y.s.    O O   R.R.R.R.R.R.R.R.R.R.R.R.R.R.",
"R.R.R.R.R.R.R.R.R.R.R.R.R.R.R.R.R.R.  f.Y.Y.Y.Y.Y.Y.b.2.2.4.i.N.B.m.q.2.2.v.Y.Y.Y.Y.Y.L.a.  R.R.R.R.R.R.R.R.R.R.R.R.R.R.R.R.R.R.",
"R.R.R.R.R.R.R.R.R.R.R.R.R.R.R.R.R.R.  ! I.Y.Y.Y.Y.Y.M.2.2.2.2.2.2.2.2.2.2.M.Y.Y.Y.Y.Y.K.!   R.R.R.R.R.R.R.R.R.R.R.R.R.R.R.R.R.R.",
"R.R.R.R.R.R.R.R.R.R.R.R.R.R.R.R.R.R.  R D.Y.Y.Y.Y.Y.B.2.2.2.2.2.2.2.2.2.2.B.Y.Y.Y.Y.Y.Z.R   R.R.R.R.R.R.R.R.R.R.R.R.R.R.R.R.R.R.",
"R.R.R.R.R.R.R.R.R.R.R.R.R.R.R.R.R.R.  L A.D.L.L.K.K.n.-.-.*.*.*.*.*.-.;.;.n.K.K.L.L.S.A.L   R.R.R.R.R.R.R.R.R.R.R.R.R.R.R.R.R.R.",
"R.R.R.R.R.R.R.R.R.R.R.R.R.R.R.R.R.R.  D Z.Z.Z.Z.Z.Z.c.&.&.&.&.&.&.&.&.&.&.c.Z.Z.Z.Z.Z.Z.D   R.R.R.R.R.R.R.R.R.R.R.R.R.R.R.R.R.R.",
"R.R.R.R.R.R.R.R.R.R.R.R.R.R.R.R.R.R.R.8 Z.Z.z.a.~ ! ! M M M M M M M M M M ! ! ~ ~ z.A.Z.q R.R.R.R.R.R.R.R.R.R.R.R.R.R.R.R.R.R.R.",
"R.R.R.R.R.R.R.R.R.R.R.R.R.R.R.R.R.R.R.& l.Z.R                                     R Z.l.% R.R.R.R.R.R.R.R.R.R.R.R.R.R.R.R.R.R.R.",
"R.R.R.R.R.R.R.R.R.R.R.R.R.R.R.R.R.R.R.  s.Z.5   R.R.R.R.R.R.R.R.R.R.R.R.R.R.R.R.  & Z.s.  R.R.R.R.R.R.R.R.R.R.R.R.R.R.R.R.R.R.R.",
"R.R.R.R.R.R.R.R.R.R.R.R.R.R.R.R.R.R.R.  R z.  R.R.R.R.R.R.R.R.R.R.R.R.R.R.R.R.R.R.  k.P   R.R.R.R.R.R.R.R.R.R.R.R.R.R.R.R.R.R.R.",
"R.R.R.R.R.R.R.R.R.R.R.R.R.R.R.R.R.R.R.  t s.  R.R.R.R.R.R.R.R.R.R.R.R.R.R.R.R.R.R.  a.t   R.R.R.R.R.R.R.R.R.R.R.R.R.R.R.R.R.R.R.",
"R.R.R.R.R.R.R.R.R.R.R.R.R.R.R.R.R.R.R.  $ t   R.R.R.R.R.R.R.R.R.R.R.R.R.R.R.R.R.R.  8 .   R.R.R.R.R.R.R.R.R.R.R.R.R.R.R.R.R.R.R.",
"R.R.R.R.R.R.R.R.R.R.R.R.R.R.R.R.R.R.R.R.R.  R.R.R.R.R.R.R.R.R.R.R.R.R.R.R.R.R.R.R.R.  R.R.R.R.R.R.R.R.R.R.R.R.R.R.R.R.R.R.R.R.R.",
"R.R.R.R.R.R.R.R.R.R.R.R.R.R.R.R.R.R.R.R.R.R.R.R.R.R.R.R.R.R.R.R.R.R.R.R.R.R.R.R.R.R.R.R.R.R.R.R.R.R.R.R.R.R.R.R.R.R.R.R.R.R.R.R."
};
