/* XPM */
static char *result[] = {
/* columns rows colors chars-per-pixel */
"64 64 175 2 ",
"   c #010101",
".  c #080706",
"X  c #0C0A06",
"o  c #0C0C0C",
"O  c #00050B",
"+  c #100E0D",
"@  c #110E07",
"#  c #13100C",
"$  c #1A140A",
"%  c #1F190C",
"&  c #010A13",
"*  c #000C19",
"=  c #090E14",
"-  c #141414",
";  c #191614",
":  c #1B1817",
">  c #1C1B1B",
",  c #221B0E",
"<  c #231E1C",
"1  c #282118",
"2  c #392E17",
"3  c #342915",
"4  c #011222",
"5  c #00152B",
"6  c #0C1A28",
"7  c #001E3C",
"8  c #001830",
"9  c #232222",
"0  c #2B2623",
"q  c #2F2927",
"w  c #2B2B2B",
"e  c #262A2D",
"r  c #342D2A",
"t  c #37302D",
"y  c #39322E",
"u  c #323232",
"i  c #3D3532",
"p  c #3C3C3C",
"a  c #403319",
"s  c #483A1D",
"d  c #423A36",
"f  c #453D39",
"g  c #483F3B",
"h  c #534321",
"j  c #594723",
"k  c #5B4924",
"l  c #4B423E",
"z  c #665229",
"x  c #6A552A",
"c  c #6F592C",
"v  c #745D2F",
"b  c #7E6532",
"n  c #012243",
"m  c #00264C",
"M  c #002A54",
"N  c #002F5F",
"B  c #10375E",
"V  c #003162",
"C  c #00376D",
"Z  c #00386F",
"A  c #003F7D",
"S  c #003A75",
"D  c #3D4145",
"F  c #384E64",
"G  c #434343",
"H  c #4E4540",
"J  c #4A4A4A",
"K  c #504743",
"L  c #544B46",
"P  c #564D48",
"I  c #584E4A",
"U  c #5C524C",
"Y  c #4D4F51",
"T  c #535353",
"R  c #5A5A5A",
"E  c #52575B",
"W  c #60554F",
"Q  c #665A54",
"!  c #685C56",
"~  c #6F625C",
"^  c #71645E",
"/  c #656565",
"(  c #6C6C6C",
")  c #776963",
"_  c #7B6C66",
"`  c #7F7069",
"'  c #737373",
"]  c #7C7C7C",
"[  c #846A35",
"{  c #8E7239",
"}  c #95773B",
"|  c #9F7F40",
" . c #84746D",
".. c #9F8040",
"X. c #A48342",
"o. c #AC8945",
"O. c #A88743",
"+. c #B49048",
"@. c #BF994C",
"#. c #BA954A",
"$. c #C49D4F",
"%. c #CBA251",
"&. c #D4AA55",
"*. c #DDB158",
"=. c #EABB5E",
"-. c #E3B65B",
";. c #F3C361",
":. c #FFCC66",
">. c #F9C763",
",. c #004080",
"<. c #00458A",
"1. c #004A94",
"2. c #004D9B",
"3. c #165594",
"4. c #0052A4",
"5. c #005DBA",
"6. c #135EA8",
"7. c #3E71A5",
"8. c #2770B9",
"9. c #4072A5",
"0. c #0063C5",
"q. c #0066CC",
"w. c #0B6DCE",
"e. c #0468CD",
"r. c #1271CF",
"t. c #1874D1",
"y. c #277CD2",
"u. c #6290BE",
"i. c #7F9BB7",
"p. c #3485D6",
"a. c #3988D7",
"s. c #3D8BD8",
"d. c #2B80D5",
"f. c #5E9EDF",
"g. c #6EA8E2",
"h. c #7AAFE4",
"j. c #838383",
"k. c #8B8B8B",
"l. c #949494",
"z. c #9A9A9A",
"x. c #848A90",
"c. c #97A8B9",
"v. c #A5A5A5",
"b. c #AAAAAB",
"n. c #B4B4B4",
"m. c #BCBCBC",
"M. c #B2B7BD",
"N. c #ACBCCC",
"B. c #B6BBC0",
"V. c #8FBCE9",
"C. c #84B5E6",
"Z. c #94BEE9",
"A. c #A5C1DE",
"S. c #BBC1C7",
"D. c #99C2EB",
"F. c #A6CAED",
"G. c #ADCDEE",
"H. c #BFD9F2",
"J. c #B8D5F1",
"K. c #C4C4C4",
"L. c #CCCCCC",
"P. c #C3C7CA",
"I. c #D4D4D4",
"U. c #DBDBDB",
"Y. c #C5DCF4",
"T. c #CADFF4",
"R. c #D9E8F7",
"E. c #E2E2E2",
"W. c #EBEBEB",
"Q. c #EBF3FB",
"!. c #F3F3F3",
"~. c #F2F7FC",
"^. c #FFFFFF",
"/. c #F6FAFD",
"(. c None",
/* pixels */
"(.(.(.(.(.(.(.(.(.(.(.(.(.(.(.(.(.(.(.(.(.(.(.(.(.(.(.(.(.(.(.(.(.(.(.(.(.(.(.(.(.(.(.(.(.(.(.(.(.(.(.(.(.(.(.(.(.(.(.(.(.(.(.(.",
"(.(.(.(.(.(.(.(.(.(.(.(.(.(.(.(.(.(.(.(.(.(.(.(.(.(.(.(.(.(.(.(.(.(.(.(.(.(.(.(.(.(.(.(.(.(.(.(.(.(.(.(.(.(.(.(.(.(.(.(.(.(.(.(.",
"(.(.(.(.(.(.(.(.(.(.(.(.(.(.(.(.(.(.(.(.(.(.(.(.(.(.(.(.(.(.(.(.(.(.(.(.(.(.  - (.(.(.(.(.(.(.(.(.(.(.(.(.(.(.(.(.(.(.(.(.(.(.(.",
"(.(.(.(.(.(.(.(.(.(.(.(.(.(.(.(.(.(.(.(.(.(.(.(.(.(.(.(.(.(.(.(.(.(.(.(.(.(.  n.> (.(.(.(.(.(.(.(.(.(.(.(.(.(.(.(.(.(.(.(.(.(.(.",
"(.(.(.(.(.(.(.(.(.(.(.(.(.(.(.(.(.(.(.(.(.(.(.(.(.(.(.(.(.(.(.(.(.(.(.(.(.(.o L.> (.(.(.(.(.(.(.(.(.(.(.(.(.(.(.(.(.(.(.(.(.(.(.",
"(.(.(.(.(.(.(.(.(.(.(.(.(.(.(.(.(.(.(.(.(.(.(.(.(.(.(.(.(.(.(.(.(.(.(.(.(.(.9 E.> (.(.(.(.(.(.(.(.(.(.(.(.(.(.(.(.(.(.(.(.(.(.(.",
"(.(.(.(.(.(.(.(.(.(.(.(.(.(.(.(.(.(.(.(.(.(.(.(.(.(.(.(.(.(.(.(.(.(.(.(.(.(.p !.9 (.(.(.(.(.(.(.(.(.(.(.(.(.(.(.(.(.(.(.(.(.(.(.",
"(.(.(.(.(.(.(.(.(.(.(.(.(.(.(.(.(.(.(.(.(.(.(.(.(.(.(.(.              (.(.  R !.9 (.(.(.(.(.(.(.(.(.(.(.(.(.(.(.(.(.(.(.(.(.(.(.",
"(.(.(.(.(.(.(.(.(.(.(.(.(.(.(.(.(.(.(.(.(.(.(.    * 5 7 M M M M n n 8 4 * O = 9 . (.(.(.(.(.(.(.(.(.(.(.(.(.(.(.(.(.(.(.(.(.(.(.",
"(.(.(.(.(.(.(.(.(.(.(.(.(.(.(.(.(.(.(.(.    p k.u.0.q.q.q.q.q.q.q.q.q.q.0.5.8.b.Y o   (.(.(.(.(.(.(.(.(.(.(.(.(.(.(.(.(.(.(.(.(.",
"(.(.(.(.(.(.(.(.(.(.(.(.(.(.(.(.(.(.  9 ] E.^.^.s.q.q.q.q.q.q.q.q.q.q.q.q.q.e.R.^.!.v.w   (.(.(.(.(.(.(.(.(.(.(.(.(.(.(.(.(.(.(.",
"(.(.(.(.(.(.(.(.(.(.(.(.(.(.(.(.(.- l.!.^.^.^.Q.6.Z n 5 * O       O & 4 7 N ,.N.^.^.^.^.m.p   (.(.(.(.(.(.(.(.(.(.(.(.(.(.(.(.(.",
"(.(.(.(.(.(.(.(.(.(.(.(.(.(.(.(.p I.^.^.^.W.v.Y = o : 0 q r t t r r r 0 < # o e ] I.^.^.^.W.~   (.(.(.(.(.(.(.(.(.(.(.(.(.(.(.(.",
"(.(.(.(.(.(.(.(.(.(.(.(.(.(.(.. I.^.^.!.k.> - q i f d d d d d l f f d d d d d y < - J I.^.^.^.u (.(.(.(.(.(.(.(.(.(.(.(.(.(.(.(.",
"(.(.(.(.(.(.(.(.(.(.(.(.(.(.  R ^.^.W.p - y d d f H L L L L P P P L L L L H l f d d 0 - l.^.^.b.  (.(.(.(.(.(.(.(.(.(.(.(.(.(.(.",
"(.(.(.(.(.(.(.(.(.(.(.(.(.(.  K.^.!.T < d f H L P P P L P P P I P P I P P P P P K l d r o b.^.^.>   (.(.(.(.(.(.(.(.(.(.(.(.(.(.",
"(.(.(.(.(.(.(.(.(.(.(.(.(.  G ^.^.' ; d l L P P U U ~ _  . . . . . . .` ) Q P P P P H f r ; U.^.j.  (.(.(.(.(.(.(.(.(.(.(.(.(.(.",
"(.(.(.(.(.(.(.(.(.(.(.(.(.  v.^.L.  r l P P P I ^  . . . . . . . . . . . . . .Q P P P K d ; / ^.I.  (.(.(.(.(.(.(.(.(.(.(.(.(.(.",
"(.(.(.(.(.(.(.(.(.(.(.(.(.- E.^.( + f L P P I )  . . . . . . . . . . . . . . . .Q P P P H r   E.^.w   (.(.(.(.(.(.(.(.(.(.(.(.(.",
"(.(.(.(.(.(.(.(.(.(.(.(.  u ^.^.u < H P P P ^  . . . . . . . . . . . . . . . . .` U P P P d o b.^.k.    (.(.(.(.(.(.(.(.(.(.(.(.",
"(.(.(.(.(.(.(.(.(.(.(.(.  / ^.^.> 0 L P P I ` ~ U U l f d y t t r i d d l K I ! ) ~ P P P f . z.^.n.    (.(.(.(.(.(.(.(.(.(.(.(.",
"(.(.(.(.(.(.(.(.(.(.(.    k.^.^.- 0 L i 1 + o 2 h j x v [ { ..O.} } } [ x z h s , o - r l l o l.^.U.. o   (.(.(.(.(.(.(.(.(.(.(.",
"(.(.(.(.(.(.(.(.(.(.  w   v.^.^.- r : 3 [ %.:.:.$.;.:.:.:.:.:.:.:.:.:.:.:.=.+.:.:.=.o.k . i o l.^.W.- / u   (.(.(.(.(.(.(.(.(.(.",
"(.(.(.(.(.(.(.(.(.(.> k.  n.^.^.> ;   %.:.:.:.;., { :.:.:.:.:.:.:.:.:.:.:.b $ ;.:.:.:.:.3 o . z.^.W.> ( n.  (.(.(.(.(.(.(.(.(.(.",
"(.(.(.(.(.(.(.(.(.  k.l.  m.^.^.p   o -.:.:.:.&.  j :.:.:.:.:.:.:.:.:.:.:.j   &.:.:.:.:.h     m.^.!.9 / ^.> (.(.(.(.(.(.(.(.(.(.",
"(.(.(.(.(.(.(.(.(.  L.l.  m.^.^.(   % ;.:.:.:.#.  h :.:.:.:.:.:.:.:.:.:.:.h   #.:.:.:.:.c     W.^.!.> ( ^.J (.(.(.(.(.(.(.(.(.(.",
"(.(.(.(.(.(.(.(.(.  U.b.  v.^.^.W.9 2 :.:.:.:.o.  a :.:.:.:.:.:.:.:.:.:.:.h   O.:.:.:.:.{ o K.^.^.W.- ] W.p (.(.(.(.(.(.(.(.(.(.",
"(.(.(.(.(.(.(.(.(.  z.b.o k.^.^.^.o k :.:.:.:.$.  2 :.:.:.:.:.:.:.:.:.:.:.s   +.:.:.:.:.+.  U.^.^.U.. ] n.. (.(.(.(.(.(.(.(.(.(.",
"(.(.(.(.(.(.(.(.(.(.Y n.; / ^.^.^.  x :.:.:.:.*.. a :.:.:.:.:.:.:.:.:.:.:.a . *.:.:.:.:.@.  I.^.^.m.  k./   (.(.(.(.(.(.(.(.(.(.",
"(.(.(.(.(.(.(.(.(.(.. z.u u ^.^.W.  x :.:.:.:.>.j [ :.:.:.:.:.:.:.:.:.:.:.[ j ;.:.:.:.:.@.  m.^.^.j.o J . (.(.(.(.(.(.(.(.(.(.(.",
"(.(.(.(.(.(.(.(.(.(.(.- u o E.^.^.o j :.:.:.:.:.:.:.:.:.:.:.:.:.:.:.:.:.:.:.:.:.:.:.:.:.O.  U.^.^.w     (.(.(.(.(.(.(.(.(.(.(.(.",
"(.(.(.(.(.(.(.(.(.(.(.      v.^.^.G 1 >.:.:.:.:.:.:.*.X.[ c j s h x b X.&.:.:.:.:.:.:.:.v > W.^.L.    (.(.(.(.(.(.(.(.(.(.(.(.(.",
"(.(.(.(.(.(.(.(.(.(.(.(.(.  w ^.^.v.  +.:.:.:.:.=.2 o > w p J T J p w : + 2 ;.:.:.:.>.| $ Y ^.^.(   (.(.(.(.(.(.(.(.(.(.(.(.(.(.",
"(.(.(.(.(.(.(.(.(.(.(.(.(.    n.^.W.q   % [ $.-.x R z.z.z.l.z.z.z.z.z.z.z.T h -.$.[ $   o n.^.!.>   (.(.(.(.(.(.(.(.(.(.(.(.(.(.",
"(.(.(.(.(.(.(.(.(.(.(.(.  G . G ^.^.W.S.k.G ; X o ' z.z.z.z.z.z.z.z.l.z.o.i.  # # w ' n.E.^.^.l.  p   (.(.(.(.(.(.(.(.(.(.(.(.(.",
"(.(.(.(.(.(.(.(.(.(.(.(.- U.R   z.^.^.^.^.^.W.m.9 ( z.l.z.z.z.z.z.z.z.z.z.j.. v.U.^.^.^.^.^.L.; u W.p   (.(.(.(.(.(.(.(.(.(.(.(.",
"(.(.(.(.(.(.(.(.(.(.(.  G ^.U.- 9 I.^.^.^.^.^.^.w R l.z.z.z.z.l.z.z.z.l.z./ - E.^.^.^.^.^.E.J   b.^.z.  (.(.(.(.(.(.(.(.(.(.(.(.",
"(.(.(.(.(.(.(.(.(.(.(.  k.^.^.n.  p L.E.^.^.^.^.J p ] l.z.z.z.z.z.z.l.l.i.p u ^.^.^.^.W.I.'   R ^.^.W.>   (.(.(.(.(.(.(.(.(.(.(.",
"(.(.(.(.(.(.(.(.(.(.(.  v.^.^.^.(   R L.L.W.^.^.l.. / / / / / / / / / / / - x.^.^.!.I.L.z.o u !.^.^.!.T   (.(.(.(.(.(.(.(.(.(.(.",
"(.(.(.(.(.(.(.(.(.(.(.  b.^.^.^.!.T . ] L.L.I.I.M.4 9 / / ( / / / / / / w * c.I.I.L.L.l.>   n.^.^.^.!.'   (.(.(.(.(.(.(.(.(.(.(.",
"(.(.(.(.(.(.(.(.(.(.(.- n.^.^.^.^.b.  o T P.L.L.P.3.* > G T R R R R G - & ,.B.L.L.L.k.o w o b.^.^.^.W.l.  (.(.(.(.(.(.(.(.(.(.(.",
"(.(.(.(.(.(.(.(.(.(.(.9 n.!.^.^.^.z.> (   G K.L.L.7.<.V 8 =   . . & 5 V <.3.L.L.L.(   R U.> z.^.^.^.W.n.o (.(.(.(.(.(.(.(.(.(.(.",
"(.(.(.(.(.(.(.(.(.(.(.> m.W./.^.^.b.; W.L.w # ' K.i.1.1.1.1.1.1.1.1.1.1.1.9.L.z.w o l.^.W.; b.^.^.^.E.m.> (.(.(.(.(.(.(.(.(.(.(.",
"(.(.(.(.(.(.(.(.(.(.(.+ n.U.^.^.^.n.o E.^.^.z.u ; E S 1.1.1.1.1.1.1.1.1.,.F 9 ; j.W.^.^.E.o n.^.^.^.E.m.9 (.(.(.(.(.(.(.(.(.(.(.",
"(.(.(.(.(.(.(.(.(.(.(.. v.I.^.^.^.B.o E.^.^.^.W.l.G = 5 n N Z Z C V m 8 & 6 ] I.^.^.^.^.U.o K.^.^.^.I.n.- (.(.(.(.(.(.(.(.(.(.(.",
"(.(.(.(.(.(.(.(.(.(.(.  u T ] v.U.m.. U.^.^.^.^.^.^.8.<.C n e w w D B ,.4.y.^.^.^.^.^.^.U.o m.^.^.U.b.k.  (.(.(.(.(.(.(.(.(.(.(.",
"(.(.(.(.(.(.(.(.(.(.(.  u ] ' p o 9   I.^.^.^.^.^.^.t.q.e.F.^.^.^.^.R.r.q.w./.^.^.^.^.^.I.  z.z.p -   >   (.(.(.(.(.(.(.(.(.(.(.",
"(.(.(.(.(.(.(.(.(.(.(.(.0 L.!.^.U./   I.^.^.^.^.^.T.e.q.f.^.^.J.G.Q.^.F.e.q.G.^.^.^.^.^.I.  . w l.L.L./   (.(.(.(.(.(.(.(.(.(.(.",
"(.(.(.(.(.(.(.(.(.(.(.(.o n.E.^.^.I.  K.^.^.^.^.^.V.q.q.J.^.V.q.q.s.^.Q.p.q.g.^.^.^.^.^.m.  R ^.^.^.L.G   (.(.(.(.(.(.(.(.(.(.(.",
"(.(.(.(.(.(.(.(.(.(.(.(.  z.L.!.^.I.  S.^.^.^.^.^.V.q.q.J.^.h.q.q.y./.~.a.q.g.^.^.^.^.^.m.  k.^.^.W.L.w (.(.(.(.(.(.(.(.(.(.(.(.",
"(.(.(.(.(.(.(.(.(.(.(.(.(.R L.I.U.m.. m.^.^.^.^.^.T.q.q.h.^.~.h.f.Y.^.Y.w.q.G.^.^.^.^.^.v.  z.^.!.L.m.> (.(.(.(.(.(.(.(.(.(.(.(.",
"(.(.(.(.(.(.(.(.(.(.(.(.(.o T / / T   b.^.^.^.^.^./.s.q.t.J.^.^.^.^.R.d.q.y./.^.^.^.^.^.k.  ( L.L.K.] (.(.(.(.(.(.(.(.(.(.(.(.(.",
"(.(.(.(.(.(.(.(.(.(.(.(.(.(.(.(.(.(.  z.^.^.^.^.^.^.V.q.q.r.C.J.Y.D.y.q.q.C.^.^.^.^.^.W.]   o G p u o (.(.(.(.(.(.(.(.(.(.(.(.(.",
"(.(.(.(.(.(.(.(.(.(.(.(.(.(.(.(.(.(.  ( !.^.^.^.^.^.F.q.q.q.q.q.q.q.q.q.q.F.^.^.^.^.^.U.(   (.(.(.(.(.(.(.(.(.(.(.(.(.(.(.(.(.(.",
"(.(.(.(.(.(.(.(.(.(.(.(.(.(.(.(.(.(.  / L.^.^.^.^.^.H.q.q.q.0.q.0.q.q.q.q.H.^.^.^.^.!.L./   (.(.(.(.(.(.(.(.(.(.(.(.(.(.(.(.(.(.",
"(.(.(.(.(.(.(.(.(.(.(.(.(.(.(.(.(.(.  T L.I.U.U.U.U.N.2.1.1.1.1.2.2.2.2.2.N.U.U.U.U.I.L.T   (.(.(.(.(.(.(.(.(.(.(.(.(.(.(.(.(.(.",
"(.(.(.(.(.(.(.(.(.(.(.(.(.(.(.(.(.(.(.p L.L.L.L.K.K.B.1.1.1.1.1.1.1.1.1.1.B.K.K.K.L.L.L.p (.(.(.(.(.(.(.(.(.(.(.(.(.(.(.(.(.(.(.",
"(.(.(.(.(.(.(.(.(.(.(.(.(.(.(.(.(.(.(.9 K.L.z.9 > > > * * * * * * * * * * : > > > l.L.K.9 (.(.(.(.(.(.(.(.(.(.(.(.(.(.(.(.(.(.(.",
"(.(.(.(.(.(.(.(.(.(.(.(.(.(.(.(.(.(.(.o z.L.p   (.(.(.(.(.(.(.(.(.(.(.(.(.(.(.(.  p L.z.o (.(.(.(.(.(.(.(.(.(.(.(.(.(.(.(.(.(.(.",
"(.(.(.(.(.(.(.(.(.(.(.(.(.(.(.(.(.(.(.  ' L.o   (.(.(.(.(.(.(.(.(.(.(.(.(.(.(.(.  . m.(   (.(.(.(.(.(.(.(.(.(.(.(.(.(.(.(.(.(.(.",
"(.(.(.(.(.(.(.(.(.(.(.(.(.(.(.(.(.(.(.  J z.  (.(.(.(.(.(.(.(.(.(.(.(.(.(.(.(.(.(.  k.G   (.(.(.(.(.(.(.(.(.(.(.(.(.(.(.(.(.(.(.",
"(.(.(.(.(.(.(.(.(.(.(.(.(.(.(.(.(.(.(.  ; J   (.(.(.(.(.(.(.(.(.(.(.(.(.(.(.(.(.(.  u -   (.(.(.(.(.(.(.(.(.(.(.(.(.(.(.(.(.(.(.",
"(.(.(.(.(.(.(.(.(.(.(.(.(.(.(.(.(.(.(.(.    (.(.(.(.(.(.(.(.(.(.(.(.(.(.(.(.(.(.(.(.    (.(.(.(.(.(.(.(.(.(.(.(.(.(.(.(.(.(.(.(.",
"(.(.(.(.(.(.(.(.(.(.(.(.(.(.(.(.(.(.(.(.(.(.(.(.(.(.(.(.(.(.(.(.(.(.(.(.(.(.(.(.(.(.(.(.(.(.(.(.(.(.(.(.(.(.(.(.(.(.(.(.(.(.(.(."
};
