/* XPM */
static char *result[] = {
/* columns rows colors chars-per-pixel */
"64 64 172 2 ",
"   c #010101",
".  c #080707",
"X  c #0C0A05",
"o  c #0B0A0A",
"O  c #00070E",
"+  c #110F0C",
"@  c #110E07",
"#  c #15120A",
"$  c #1B160B",
"%  c #1E180C",
"&  c #000A14",
"*  c #010E1B",
"=  c #0B0D10",
"-  c #01101E",
";  c #141414",
":  c #1A1715",
">  c #1C1C1C",
",  c #261E0F",
"<  c #221E1C",
"1  c #2B2211",
"2  c #24201E",
"3  c #342915",
"4  c #3E3219",
"5  c #011223",
"6  c #00162D",
"7  c #07192B",
"8  c #001D3A",
"9  c #242424",
"0  c #2A2523",
"q  c #2C2C2C",
"w  c #2F2A27",
"e  c #332D2A",
"r  c #302A27",
"t  c #37312D",
"y  c #3A332F",
"u  c #343434",
"i  c #3B3431",
"p  c #3B3B3B",
"a  c #36393B",
"s  c #42351A",
"d  c #4A3B1E",
"f  c #423A36",
"g  c #463E3A",
"h  c #544422",
"j  c #5E4B25",
"k  c #4A423E",
"l  c #614E27",
"z  c #675229",
"x  c #6A552A",
"c  c #7D6432",
"v  c #002245",
"b  c #00254A",
"n  c #002A54",
"m  c #002D5C",
"M  c #0B2E51",
"N  c #00305F",
"B  c #28394A",
"V  c #00356B",
"C  c #003366",
"Z  c #003C79",
"A  c #444444",
"S  c #4E4641",
"D  c #4C4C4C",
"F  c #504743",
"G  c #544B46",
"H  c #564D48",
"J  c #5C524D",
"K  c #545454",
"L  c #5B5B5B",
"P  c #615751",
"I  c #685C56",
"U  c #6E625C",
"Y  c #73665F",
"T  c #646464",
"R  c #6C6C6C",
"E  c #796B64",
"W  c #7E6F68",
"Q  c #7F7069",
"!  c #747474",
"~  c #7B7B7B",
"^  c #886D36",
"/  c #8D7138",
"(  c #97793D",
")  c #84746D",
"_  c #9F8040",
"`  c #A48442",
"'  c #AC8A45",
"]  c #B18E47",
"[  c #B69148",
"{  c #BA954A",
"}  c #BF994D",
"|  c #C49D4E",
" . c #CAA251",
".. c #D4AA55",
"X. c #DDB259",
"o. c #E2B55A",
"O. c #E7B95C",
"+. c #EBBC5E",
"@. c #F3C261",
"#. c #FFCC66",
"$. c #F8C663",
"%. c #00468D",
"&. c #014385",
"*. c #004A94",
"=. c #004C99",
"-. c #195897",
";. c #0056AC",
":. c #0051A3",
">. c #0059B2",
",. c #005DBA",
"<. c #1564B4",
"1. c #4E769F",
"2. c #4476A7",
"3. c #0062C4",
"4. c #0066CC",
"5. c #0468CD",
"6. c #0B6DCE",
"7. c #1571CC",
"8. c #1573D0",
"9. c #1975D1",
"0. c #237BD3",
"q. c #2A7FD4",
"w. c #2D81D5",
"e. c #3E8BD8",
"r. c #418DD9",
"t. c #4F95DC",
"y. c #5C9DDF",
"u. c #5398DD",
"i. c #6BA6E1",
"p. c #65A2E0",
"a. c #76ADE4",
"s. c #7FB2E5",
"d. c #838383",
"f. c #8B8B8B",
"g. c #81868C",
"h. c #949494",
"j. c #9A9A9A",
"k. c #90A5BA",
"l. c #A5A5A5",
"z. c #ACACAC",
"x. c #B3B3B3",
"c. c #BDBDBD",
"v. c #B3B9BF",
"b. c #A8B8C8",
"n. c #B7BEC6",
"m. c #89B9E7",
"M. c #8DBBE9",
"N. c #94BEEA",
"B. c #B9C0C7",
"V. c #9AC2EB",
"C. c #AACCEE",
"Z. c #A7C4E0",
"A. c #B1D0EF",
"S. c #BFD9F2",
"D. c #B8D4F1",
"F. c #C4C4C4",
"G. c #CCCCCC",
"H. c #C3C6C9",
"J. c #D4D4D4",
"K. c #DCDCDC",
"L. c #C7DDF4",
"P. c #CFE2F5",
"I. c #D5E6F7",
"U. c #DEEBF8",
"Y. c #E3E3E3",
"T. c #EBEBEB",
"R. c #E9F1F9",
"E. c #E7F0FA",
"W. c #F3F3F3",
"Q. c #F5F9FD",
"!. c #FFFFFF",
"~. c None",
/* pixels */
"~.~.~.~.~.~.~.~.~.~.~.~.~.~.~.~.~.~.~.~.~.~.~.~.~.~.~.~.~.~.~.~.~.~.~.~.~.~.  ~.~.~.~.~.~.~.~.~.~.~.~.~.~.~.~.~.~.~.~.~.~.~.~.~.",
"~.~.~.~.~.~.~.~.~.~.~.~.~.~.~.~.~.~.~.~.~.~.~.~.~.~.~.~.~.~.~.~.~.~.~.~.~.~.a 0 ~.~.~.~.~.~.~.~.~.~.~.~.~.~.~.~.~.~.~.~.~.~.~.~.",
"~.~.~.~.~.~.~.~.~.~.~.~.~.~.~.~.~.~.~.~.~.~.~.~.~.~.~.~.~.~.~.~.~.~.~.~.~.  x.R ~.~.~.~.~.~.~.~.~.~.~.~.~.~.~.~.~.~.~.~.~.~.~.~.",
"~.~.~.~.~.~.~.~.~.~.~.~.~.~.~.~.~.~.~.~.~.~.~.~.~.~.~.~.~.~.        ~.~.~.  F.R ~.~.~.~.~.~.~.~.~.~.~.~.~.~.~.~.~.~.~.~.~.~.~.~.",
"~.~.~.~.~.~.~.~.~.~.~.~.~.~.~.~.~.~.~.~.~.~.~.~.      & 5 5 5 5 5 - O       q 9   ~.~.~.~.~.~.~.~.~.~.~.~.~.~.~.~.~.~.~.~.~.~.~.",
"~.~.~.~.~.~.~.~.~.~.~.~.~.~.~.~.~.~.~.~.    a ~ 1.>.3.4.4.4.4.4.4.4.4.4.,.;.-.f.D X   ~.~.~.~.~.~.~.~.~.~.~.~.~.~.~.~.~.~.~.~.~.",
"~.~.~.~.~.~.~.~.~.~.~.~.~.~.~.~.~.~.  ; R Y.!.!.e.4.4.4.4.4.3.3.3.4.4.4.4.4.6.U.!.Q.j.9   ~.~.~.~.~.~.~.~.~.~.~.~.~.~.~.~.~.~.~.",
"~.~.~.~.~.~.~.~.~.~.~.~.~.~.~.~.~.; ~ Y.!.!.!.R.<.%.C b 8 5 * * * - 6 v m Z :.Z.!.!.!.T.l.0   ~.~.~.~.~.~.~.~.~.~.~.~.~.~.~.~.~.",
"~.~.~.~.~.~.~.~.~.~.~.~.~.~.~.~.A Y.!.!.!.K.~ u o : < w r y y y y y t r 0 : # > L x.Q.!.!.T.!   ~.~.~.~.~.~.~.~.~.~.~.~.~.~.~.~.",
"~.~.~.~.~.~.~.~.~.~.~.~.~.~.~.  K.!.!.Q.j.# ; r p f f f f f f f f f f f f f f i < . A Y.!.!.!.e ~.~.~.~.~.~.~.~.~.~.~.~.~.~.~.~.",
"~.~.~.~.~.~.~.~.~.~.~.~.~.~.  L !.!.Y.p : i f f k k F G H H H H H H H G G F k g f f 0 : h.!.!.x.  ~.~.~.~.~.~.~.~.~.~.~.~.~.~.~.",
"~.~.~.~.~.~.~.~.~.~.~.~.~.~.  K.!.T.q 0 f g S H H H H J J P P P P P P J H H G H F k f i o f.!.!.u   ~.~.~.~.~.~.~.~.~.~.~.~.~.~.",
"~.~.~.~.~.~.~.~.~.~.~.~.~.  D !.!.U ; p k G H H H P Y ) ) ) Q ) ) ) ) W E I J H H H F g e ; J.!.d.  ~.~.~.~.~.~.~.~.~.~.~.~.~.~.",
"~.~.~.~.~.~.~.~.~.~.~.~.~.  c.!.x.. i S H H H J E ) ) ) ) ) ) ) ) ) ) ) ) ) ) Y H H H F g < A !.Y.    ~.~.~.~.~.~.~.~.~.~.~.~.~.",
"~.~.~.~.~.~.~.~.~.~.~.~.~.; T.!.L : g H H H J W ) ) ) ) ) ) ) ) ) ) ) ) ) ) ) ) U H H H F i   K.!.A   ~.~.~.~.~.~.~.~.~.~.~.~.~.",
"~.~.~.~.~.~.~.~.~.~.~.~.  k !.!.q 2 F H H H E ) ) ) ) ) ) ) ) ) ) ) ) ) ) ) ) ) ) P H H H f . z.!.h.    ~.~.~.~.~.~.~.~.~.~.~.~.",
"~.~.~.~.~.~.~.~.~.~.~.    ! !.!.; 0 H H H k k r 0 < < : ; X X #   o + ; < < 2 0 i S S H H k o h.!.G.      ~.~.~.~.~.~.~.~.~.~.~.",
"~.~.~.~.~.~.~.~.~.~.~.    h.!.!.; r k 2   % d c ( ' }  .X.$.#.#.#.#.#.O.} { ( / l 3 X + i k . h.!.K.o 9   ~.~.~.~.~.~.~.~.~.~.~.",
"~.~.~.~.~.~.~.~.~.~.  K   z.!.!.: 0 o c  .@.#.$.x  .#.#.#.#.#.#.#.#.#.#.#.{ h #.#.#.o.[ $ < o h.!.T.; R T   ~.~.~.~.~.~.~.~.~.~.",
"~.~.~.~.~.~.~.~.~.  D h.  c.!.!.q .   ..#.#.#.o.X x #.#.#.#.#.#.#.#.#.#.#.l X X.#.#.#.#.4     z.!.W.> R T.  ~.~.~.~.~.~.~.~.~.~.",
"~.~.~.~.~.~.~.~.~.  l.j.  c.!.!.D   @ O.#.#.#. .  h #.#.#.#.#.#.#.#.#.#.#.h    .#.#.#.#.j     G.!.W.> R !.u ~.~.~.~.~.~.~.~.~.~.",
"~.~.~.~.~.~.~.~.~.  K.j.  x.!.!.x.> 1 #.#.#.#.'   s #.#.#.#.#.#.#.#.#.#.#.h   ' #.#.#.#.^ o T !.!.T.> ! !.D ~.~.~.~.~.~.~.~.~.~.",
"~.~.~.~.~.~.~.~.~.  G.z.  j.!.!.!.< d #.#.#.#.{   s #.#.#.#.#.#.#.#.#.#.#.h   ' #.#.#.#._ o K.!.!.Y.o ! G.> ~.~.~.~.~.~.~.~.~.~.",
"~.~.~.~.~.~.~.~.~.~.! z.; ~ !.!.!.. x #.#.#.#. .  4 #.#.#.#.#.#.#.#.#.#.#.s   | #.#.#.#.{   K.!.!.G.  f.f.  ~.~.~.~.~.~.~.~.~.~.",
"~.~.~.~.~.~.~.~.~.~.: x.9 A !.!.T.  x #.#.#.#.@.1 j #.#.#.#.#.#.#.#.#.#.#.z , +.#.#.#.#.}   F.!.!.j.  ~ ; ~.~.~.~.~.~.~.~.~.~.~.",
"~.~.~.~.~.~.~.~.~.~.  A A > W.!.Q.  j #.#.#.#.#.O.@.#.#.#.#.#.#.#.#.#.#.#.@.O.#.#.#.#.#.[   G.!.!.K   o   ~.~.~.~.~.~.~.~.~.~.~.",
"~.~.~.~.~.~.~.~.~.~.~.      c.!.!.u 3 #.#.#.#.#.#.#.#.o.| ' ( ^ ( ' { o.#.#.#.#.#.#.#.#.^ ; Y.!.T.    ~.~.~.~.~.~.~.~.~.~.~.~.~.",
"~.~.~.~.~.~.~.~.~.~.~.~.~.  D !.!.h.X ..#.#.#.#.$.c %   ; 9 0 q 9 9 ;   # x $.#.#.#.#.X.1 A !.!.f.  ~.~.~.~.~.~.~.~.~.~.~.~.~.~.",
"~.~.~.~.~.~.~.~.~.~.~.~.~.    J.!.K.; , z ] o.$./ p R d.g.h.h.h.h.h.f.) ! d ^ $.o.[ z %   h.!.Q.0   ~.~.~.~.~.~.~.~.~.~.~.~.~.~.",
"~.~.~.~.~.~.~.~.~.~.~.~.~.    L !.!.K.h.T > @ , $ ! j.j.j.h.j.j.j.j.j.j.j.1.X 1 # ; A f.F.!.!.z.    ~.~.~.~.~.~.~.~.~.~.~.~.~.~.",
"~.~.~.~.~.~.~.~.~.~.~.~.~.9 a . c.!.!.!.!.W.J.l.> R j.j.j.j.j.j.j.j.j.h.j.d.. f.G.T.!.!.!.!.T.9 > > ~.~.~.~.~.~.~.~.~.~.~.~.~.~.",
"~.~.~.~.~.~.~.~.~.~.~.~.  f.J.o q K.!.!.!.!.!.Q.q L h.j.j.j.j.h.j.j.j.j.j.R : T.!.!.!.!.!.T.L   j.x.  ~.~.~.~.~.~.~.~.~.~.~.~.~.",
"~.~.~.~.~.~.~.~.~.~.~.~.; Y.!.l.  A G.T.!.!.!.!.D A ! h.h.j.j.j.j.j.h.h.f.A u !.!.!.!.W.K.~ . D !.!.A   ~.~.~.~.~.~.~.~.~.~.~.~.",
"~.~.~.~.~.~.~.~.~.~.~.  D !.!.!.L   R G.J.T.!.!.h.  T T T T T T T T T T T ; g.!.!.W.K.G.l.o 9 T.!.!.l.  ~.~.~.~.~.~.~.~.~.~.~.~.",
"~.~.~.~.~.~.~.~.~.~.~.  d.!.!.!.W.K . ! H.G.J.J.n.5 < T R T R T T T R T 0 * k.J.J.G.G.f.>   H.!.!.!.Y.> ~.~.~.~.~.~.~.~.~.~.~.~.",
"~.~.~.~.~.~.~.~.~.~.~.  h.!.!.!.!.G.  . A c.G.G.F.-.6 ; a K K K K K p = 5 &.B.G.G.G.~ . 0 O G.!.!.!.T.A   ~.~.~.~.~.~.~.~.~.~.~.",
"~.~.~.~.~.~.~.~.~.~.~.  l.W.!.!.!.c.o R o a x.G.G.2.&.N 8 5 * & * - 8 m &.-.G.G.B.U   T F.o F.!.!.!.T.T   ~.~.~.~.~.~.~.~.~.~.~.",
"~.~.~.~.~.~.~.~.~.~.~.o z.W.!.!.!.z.; T.Y.D . K x.k.*.*.*.*.*.*.*.*.*.*.=.2.F.~ ; 0 x.!.T.; z.!.!.!.Y.d.  ~.~.~.~.~.~.~.~.~.~.~.",
"~.~.~.~.~.~.~.~.~.~.~.; x.T.!.!.!.j.> W.!.!.H.A o a V &.*.*.*.*.*.*.*.*.Z B . 9 l.!.!.!.W.> j.!.!.!.Y.j.  ~.~.~.~.~.~.~.~.~.~.~.",
"~.~.~.~.~.~.~.~.~.~.~.  z.Y.!.!.!.l.; T.!.!.!.!.H.! 7 * 5 v n n n v 6 * 5 M x.T.!.!.!.!.T.: l.!.!.!.K.z.  ~.~.~.~.~.~.~.~.~.~.~.",
"~.~.~.~.~.~.~.~.~.~.~.  z.J.!.!.!.z.; Y.!.!.!.!.!.!.8.;.*.V m n n V %.>.3.8.!.!.!.!.!.!.T.; z.!.!.!.J.l.  ~.~.~.~.~.~.~.~.~.~.~.",
"~.~.~.~.~.~.~.~.~.~.~.  f.G.T.!.!.c.o Y.!.!.!.!.!.!.8.4.4.4.4.4.4.4.4.4.4.8.!.!.!.!.!.!.K.o c.!.!.!.G.h.  ~.~.~.~.~.~.~.~.~.~.~.",
"~.~.~.~.~.~.~.~.~.~.~.    o q K d.j.o Y.!.!.!.!.!.!.0.4.4.4.4.4.4.5.4.4.4.0.!.!.!.!.!.!.Y.o c.!.c.~ K q   ~.~.~.~.~.~.~.~.~.~.~.",
"~.~.~.~.~.~.~.~.~.~.~.~.q F.G.z.T ;   K.!.!.!.!.!.!.q.4.4.5.r.a.m.y.6.4.4.q.!.!.!.!.!.!.J.  D > u R ~ u   ~.~.~.~.~.~.~.~.~.~.~.",
"~.~.~.~.~.~.~.~.~.~.~.~.; c.T.!.!.l.  J.!.!.!.!.!.!.0.4.5.m.Q.!.!.Q.D.8.4.9.Q.!.!.!.!.!.J.  u z.W.Q.G.i ~.~.~.~.~.~.~.~.~.~.~.~.",
"~.~.~.~.~.~.~.~.~.~.~.~.  j.J.!.!.J.  J.!.!.!.!.!.I.4.4.u.!.!.U.I.Q.!.V.4.4.D.!.!.!.!.!.J.  l.!.!.T.H.< ~.~.~.~.~.~.~.~.~.~.~.~.",
"~.~.~.~.~.~.~.~.~.~.~.~.~.! G.K.!.G.  G.!.!.!.!.!.N.4.4.C.!.D.6.4.y.!.R.q.4.a.!.!.!.!.!.F.  F.!.!.J.c.+ ~.~.~.~.~.~.~.~.~.~.~.~.",
"~.~.~.~.~.~.~.~.~.~.~.~.~.q F.G.G.z.  c.!.!.!.!.!.m.4.4.S.!.i.4.4.0.Q.Q.e.4.p.!.!.!.!.!.c.  c.K.K.G.j.. ~.~.~.~.~.~.~.~.~.~.~.~.",
"~.~.~.~.~.~.~.~.~.~.~.~.~.~.> 9 9 >   F.!.!.!.!.!.C.4.4.C.Q.L.8.5.a.!.U.9.4.M.!.!.!.!.!.z.  K j.f.d.9 ~.~.~.~.~.~.~.~.~.~.~.~.~.",
"~.~.~.~.~.~.~.~.~.~.~.~.~.~.~.~.~.~.  x.!.!.!.!.!.R.5.4.t.!.!.Q.E.!.!.N.4.4.I.!.!.!.!.!.j.          ~.~.~.~.~.~.~.~.~.~.~.~.~.~.",
"~.~.~.~.~.~.~.~.~.~.~.~.~.~.~.~.~.~.  l.!.!.!.!.!.!.y.4.5.m.Q.!.!.!.A.8.4.r.!.!.!.!.!.W.f.  ~.~.~.~.~.~.~.~.~.~.~.~.~.~.~.~.~.~.",
"~.~.~.~.~.~.~.~.~.~.~.~.~.~.~.~.~.~.  f.!.!.!.!.!.!.V.4.4.4.w.p.i.r.5.4.4.N.!.!.!.!.!.T.~   ~.~.~.~.~.~.~.~.~.~.~.~.~.~.~.~.~.~.",
"~.~.~.~.~.~.~.~.~.~.~.~.~.~.~.~.~.~.  R T.!.!.!.!.!.C.4.4.4.4.4.4.4.4.4.4.C.!.!.!.!.!.K.R   ~.~.~.~.~.~.~.~.~.~.~.~.~.~.~.~.~.~.",
"~.~.~.~.~.~.~.~.~.~.~.~.~.~.~.~.~.~.  T J.!.!.!.!.!.L.4.4.3.3.3.4.4.4.4.4.S.!.!.!.!.W.G.T   ~.~.~.~.~.~.~.~.~.~.~.~.~.~.~.~.~.~.",
"~.~.~.~.~.~.~.~.~.~.~.~.~.~.~.~.~.~.  K G.J.K.K.J.J.b.=.*.*.*.*.*.*.=.=.=.b.J.J.K.K.J.G.K   ~.~.~.~.~.~.~.~.~.~.~.~.~.~.~.~.~.~.",
"~.~.~.~.~.~.~.~.~.~.~.~.~.~.~.~.~.~.  A G.G.G.G.G.G.n.*.*.*.*.*.*.*.*.*.*.n.G.G.G.G.G.G.A   ~.~.~.~.~.~.~.~.~.~.~.~.~.~.~.~.~.~.",
"~.~.~.~.~.~.~.~.~.~.~.~.~.~.~.~.~.~.~.0 G.G.x.T K K K b b b b b b b b b b K K K K z.G.G.q ~.~.~.~.~.~.~.~.~.~.~.~.~.~.~.~.~.~.~.",
"~.~.~.~.~.~.~.~.~.~.~.~.~.~.~.~.~.~.~.; x.G.K                                     K G.z.; ~.~.~.~.~.~.~.~.~.~.~.~.~.~.~.~.~.~.~.",
"~.~.~.~.~.~.~.~.~.~.~.~.~.~.~.~.~.~.~.  f.G.<   ~.~.~.~.~.~.~.~.~.~.~.~.~.~.~.~.  ; G.f.  ~.~.~.~.~.~.~.~.~.~.~.~.~.~.~.~.~.~.~.",
"~.~.~.~.~.~.~.~.~.~.~.~.~.~.~.~.~.~.~.  L v.  ~.~.~.~.~.~.~.~.~.~.~.~.~.~.~.~.~.~.  z.L   ~.~.~.~.~.~.~.~.~.~.~.~.~.~.~.~.~.~.~.",
"~.~.~.~.~.~.~.~.~.~.~.~.~.~.~.~.~.~.~.  p f.  ~.~.~.~.~.~.~.~.~.~.~.~.~.~.~.~.~.~.  d.u   ~.~.~.~.~.~.~.~.~.~.~.~.~.~.~.~.~.~.~.",
"~.~.~.~.~.~.~.~.~.~.~.~.~.~.~.~.~.~.~.  + a   ~.~.~.~.~.~.~.~.~.~.~.~.~.~.~.~.~.~.  > .   ~.~.~.~.~.~.~.~.~.~.~.~.~.~.~.~.~.~.~.",
"~.~.~.~.~.~.~.~.~.~.~.~.~.~.~.~.~.~.~.~.~.  ~.~.~.~.~.~.~.~.~.~.~.~.~.~.~.~.~.~.~.~.  ~.~.~.~.~.~.~.~.~.~.~.~.~.~.~.~.~.~.~.~.~.",
"~.~.~.~.~.~.~.~.~.~.~.~.~.~.~.~.~.~.~.~.~.~.~.~.~.~.~.~.~.~.~.~.~.~.~.~.~.~.~.~.~.~.~.~.~.~.~.~.~.~.~.~.~.~.~.~.~.~.~.~.~.~.~.~."
};
