/* XPM */
static char *result[] = {
/* columns rows colors chars-per-pixel */
"64 64 172 2 ",
"   c #010101",
".  c #080707",
"X  c #0C0A05",
"o  c #0B0B0A",
"O  c #00070E",
"+  c #110F0C",
"@  c #110E07",
"#  c #15120A",
"$  c #1B160B",
"%  c #1E180C",
"&  c #010E1B",
"*  c #060C12",
"=  c #01101E",
"-  c #141414",
";  c #1B1716",
":  c #1C1C1C",
">  c #261E0F",
",  c #221E1C",
"<  c #2B2211",
"1  c #24201E",
"2  c #342915",
"3  c #3E3219",
"4  c #011223",
"5  c #00162D",
"6  c #07192B",
"7  c #001D3A",
"8  c #242424",
"9  c #2A2523",
"0  c gray17",
"q  c #2F2A27",
"w  c #332D2A",
"e  c #302A27",
"r  c #37312D",
"t  c #3A332F",
"y  c #343434",
"u  c #3B3431",
"i  c #3C3C3C",
"p  c #36393B",
"a  c #42351A",
"s  c #4A3B1E",
"d  c #423A36",
"f  c #463E3A",
"g  c #544422",
"h  c #5E4B25",
"j  c #4A423E",
"k  c #614E27",
"l  c #675229",
"z  c #6A552A",
"x  c #7D6432",
"c  c #002245",
"v  c #00254A",
"b  c #002A54",
"n  c #002E5C",
"m  c #0B2E51",
"M  c #00305F",
"N  c #28394A",
"B  c #00366C",
"V  c #003366",
"C  c #003B76",
"Z  c #003D7A",
"A  c #434343",
"S  c #4E4641",
"D  c #4C4C4C",
"F  c #504743",
"G  c #544B46",
"H  c #564D48",
"J  c #5C524D",
"K  c #545454",
"L  c #5B5B5B",
"P  c #615751",
"I  c #685C56",
"U  c #6E625C",
"Y  c #73665F",
"T  c #646464",
"R  c #6C6C6C",
"E  c #796B64",
"W  c #7E6F68",
"Q  c #7F7069",
"!  c #757575",
"~  c #7B7B7B",
"^  c #886D36",
"/  c #8D7138",
"(  c #97793D",
")  c #84746D",
"_  c #9F8040",
"`  c #A48442",
"'  c #AC8A45",
"]  c #B18E47",
"[  c #B69148",
"{  c #BA954A",
"}  c #BF994D",
"|  c #C49D4E",
" . c #CAA251",
".. c #D4AA55",
"X. c #DDB259",
"o. c #E2B55A",
"O. c #E7B95C",
"+. c #EBBC5E",
"@. c #F3C261",
"#. c #FFCC66",
"$. c #F8C663",
"%. c #00468D",
"&. c #014385",
"*. c #004A94",
"=. c #004D9A",
"-. c #195897",
";. c #0056AC",
":. c #0051A3",
">. c #005AB4",
",. c #005DBA",
"<. c #1564B4",
"1. c #4E769F",
"2. c #4476A7",
"3. c #0062C4",
"4. c #0066CC",
"5. c #0468CD",
"6. c #0B6DCE",
"7. c #1571CC",
"8. c #1573D0",
"9. c #1975D1",
"0. c #237BD3",
"q. c #2A7FD4",
"w. c #2D81D5",
"e. c #3E8BD8",
"r. c #418DD9",
"t. c #4F95DC",
"y. c #5C9DDF",
"u. c #5398DD",
"i. c #6BA6E1",
"p. c #65A2E0",
"a. c #76ADE4",
"s. c #7FB2E5",
"d. c #838383",
"f. c #8B8B8B",
"g. c #81868C",
"h. c #949494",
"j. c #9A9A9A",
"k. c #90A5BA",
"l. c #A5A5A5",
"z. c #ACACAC",
"x. c #B3B3B3",
"c. c #BCBCBC",
"v. c #B3B9BF",
"b. c #A8B8C8",
"n. c #B7BEC6",
"m. c #89B9E7",
"M. c #8DBBE9",
"N. c #94BEEA",
"B. c #B9C0C7",
"V. c #9AC2EB",
"C. c #AACCEE",
"Z. c #A7C4E0",
"A. c #B1D0EF",
"S. c #BFD9F2",
"D. c #B8D4F1",
"F. c #C4C4C4",
"G. c #CCCCCC",
"H. c #C3C6C9",
"J. c #D4D4D4",
"K. c #DBDBDB",
"L. c #C7DDF4",
"P. c #CFE2F5",
"I. c #D5E6F7",
"U. c #DEEBF8",
"Y. c gray89",
"T. c #EBEBEB",
"R. c #E9F1F9",
"E. c #E7F0FA",
"W. c #F3F3F3",
"Q. c #F5F9FD",
"!. c #FFFFFF",
"~. c None",
/* pixels */
"~.~.~.~.~.~.~.~.~.~.~.~.~.~.~.~.~.~.~.~.~.~.~.~.~.~.~.~.~.~.~.~.~.~.~.~.~.~.  ~.~.~.~.~.~.~.~.~.~.~.~.~.~.~.~.~.~.~.~.~.~.~.~.~.",
"~.~.~.~.~.~.~.~.~.~.~.~.~.~.~.~.~.~.~.~.~.~.~.~.~.~.~.~.~.~.~.~.~.~.~.~.~.~.y 0 ~.~.~.~.~.~.~.~.~.~.~.~.~.~.~.~.~.~.~.~.~.~.~.~.",
"~.~.~.~.~.~.~.~.~.~.~.~.~.~.~.~.~.~.~.~.~.~.~.~.~.~.~.~.~.~.~.~.~.~.~.~.~.  x.R ~.~.~.~.~.~.~.~.~.~.~.~.~.~.~.~.~.~.~.~.~.~.~.~.",
"~.~.~.~.~.~.~.~.~.~.~.~.~.~.~.~.~.~.~.~.~.~.~.~.~.~.~.~.~.~.        ~.~.~.  F.R ~.~.~.~.~.~.~.~.~.~.~.~.~.~.~.~.~.~.~.~.~.~.~.~.",
"~.~.~.~.~.~.~.~.~.~.~.~.~.~.~.~.~.~.~.~.~.~.~.~.      O 4 4 4 4 4 = O       0 8   ~.~.~.~.~.~.~.~.~.~.~.~.~.~.~.~.~.~.~.~.~.~.~.",
"~.~.~.~.~.~.~.~.~.~.~.~.~.~.~.~.~.~.~.~.    p ~ 1.>.3.4.4.4.4.4.4.4.4.4.,.;.-.f.D X   ~.~.~.~.~.~.~.~.~.~.~.~.~.~.~.~.~.~.~.~.~.",
"~.~.~.~.~.~.~.~.~.~.~.~.~.~.~.~.~.~.  ; R Y.!.!.e.4.4.4.4.4.3.3.3.3.4.4.4.4.6.U.!.Q.j.:   ~.~.~.~.~.~.~.~.~.~.~.~.~.~.~.~.~.~.~.",
"~.~.~.~.~.~.~.~.~.~.~.~.~.~.~.~.~.- ! Y.!.!.!.R.<.%.V v 7 4 = & & 4 5 c n Z :.Z.!.!.!.T.l.0   ~.~.~.~.~.~.~.~.~.~.~.~.~.~.~.~.~.",
"~.~.~.~.~.~.~.~.~.~.~.~.~.~.~.~.D K.!.!.!.K.~ y + ; 1 9 w t t t u t r e 9 : + : L x.W.!.!.T.!   ~.~.~.~.~.~.~.~.~.~.~.~.~.~.~.~.",
"~.~.~.~.~.~.~.~.~.~.~.~.~.~.~.  J.!.!.Q.j.- # w i d d d d d d f d d d d d d d u , . A Y.!.!.!.y ~.~.~.~.~.~.~.~.~.~.~.~.~.~.~.~.",
"~.~.~.~.~.~.~.~.~.~.~.~.~.~.  L !.!.Y.p - t d d f S F G G H H H H H G G G S j f d d q ; h.!.!.x.  ~.~.~.~.~.~.~.~.~.~.~.~.~.~.~.",
"~.~.~.~.~.~.~.~.~.~.~.~.~.~.. K.!.T.w 9 d f F H H H H J J P P J P P P J H H H H G j d t + f.!.!.y   ~.~.~.~.~.~.~.~.~.~.~.~.~.~.",
"~.~.~.~.~.~.~.~.~.~.~.~.~.  D !.!.T ; d j G H H H P E W ) ) ) ) ) ) ) Q E I J H H H S f w ; J.!.d.  ~.~.~.~.~.~.~.~.~.~.~.~.~.~.",
"~.~.~.~.~.~.~.~.~.~.~.~.~.  c.!.x.. u S H H H J E ) ) ) ) ) ) ) ) ) ) ) ) ) ) Y H H H G d , A Q.Y..   ~.~.~.~.~.~.~.~.~.~.~.~.~.",
"~.~.~.~.~.~.~.~.~.~.~.~.~.; T.!.K ; f H H H J W ) ) ) ) ) ) ) ) ) ) ) ) ) ) ) ) U H H H F u   K.!.A   ~.~.~.~.~.~.~.~.~.~.~.~.~.",
"~.~.~.~.~.~.~.~.~.~.~.~.  i !.!.0 9 S H H H E ) ) ) ) ) ) ) ) ) ) ) ) ) ) ) ) ) ) J H H H d . z.!.h.    ~.~.~.~.~.~.~.~.~.~.~.~.",
"~.~.~.~.~.~.~.~.~.~.~.    ! !.!.; 9 G H G f j w 9 , , ; - X X @   . o ; , , 1 9 u S F H H j . h.!.G.      ~.~.~.~.~.~.~.~.~.~.~.",
"~.~.~.~.~.~.~.~.~.~.~.    h.!.!.- q j , . $ s x ( ' }  .X.$.#.#.#.#.#.O.} { ( / k 2 X o u S . h.!.K.. 8   ~.~.~.~.~.~.~.~.~.~.~.",
"~.~.~.~.~.~.~.~.~.~.  K   z.!.!.; 8 . x ..@.#.$.z  .#.#.#.#.#.#.#.#.#.#.#.{ g #.#.#.o.[ # , . j.!.T.; R T   ~.~.~.~.~.~.~.~.~.~.",
"~.~.~.~.~.~.~.~.~.  D h.  c.!.!.0 . . ..#.#.#.o.X z #.#.#.#.#.#.#.#.#.#.#.k X X.#.#.#.#.a     z.!.W.: R T.. ~.~.~.~.~.~.~.~.~.~.",
"~.~.~.~.~.~.~.~.~.  l.h.  c.!.!.D   # O.#.#.#.|   g #.#.#.#.#.#.#.#.#.#.#.g    .#.#.#.#.h     G.!.W.: R !.y ~.~.~.~.~.~.~.~.~.~.",
"~.~.~.~.~.~.~.~.~.  K.l.  x.!.!.x.: < #.#.#.#.'   a #.#.#.#.#.#.#.#.#.#.#.g   ' #.#.#.#.^ . T !.!.T.: ! !.D ~.~.~.~.~.~.~.~.~.~.",
"~.~.~.~.~.~.~.~.~.  G.z.. j.!.!.!.: s #.#.#.#.{   3 #.#.#.#.#.#.#.#.#.#.#.g   ' #.#.#.#.` . K.!.!.Y.o ! G.: ~.~.~.~.~.~.~.~.~.~.",
"~.~.~.~.~.~.~.~.~.~.R z.- ! !.!.!.. l #.#.#.#. .. 3 #.#.#.#.#.#.#.#.#.#.#.a   | #.#.#.#.{   K.!.!.G.  f.f.  ~.~.~.~.~.~.~.~.~.~.",
"~.~.~.~.~.~.~.~.~.~.; x.8 A !.!.W.  z #.#.#.#.@.< h #.#.#.#.#.#.#.#.#.#.#.l > +.#.#.#.#.{   F.!.!.j.  ~ ; ~.~.~.~.~.~.~.~.~.~.~.",
"~.~.~.~.~.~.~.~.~.~.  A i : W.!.W.  h #.#.#.#.#.O.@.#.#.#.#.#.#.#.#.#.#.#.@.O.#.#.#.#.#.[   G.!.!.D . o   ~.~.~.~.~.~.~.~.~.~.~.",
"~.~.~.~.~.~.~.~.~.~.~.  .   c.!.!.y 2 #.#.#.#.#.#.#.#.o.| ' ( / ( ' { X.#.#.#.#.#.#.#.#.^ - Y.!.T.    ~.~.~.~.~.~.~.~.~.~.~.~.~.",
"~.~.~.~.~.~.~.~.~.~.~.~.~.  D !.!.h.X ..#.#.#.#.$.x %   - 8 8 0 8 8 - . # z #.#.#.#.#.X.< j Q.!.f.  ~.~.~.~.~.~.~.~.~.~.~.~.~.~.",
"~.~.~.~.~.~.~.~.~.~.~.~.~.  . J.!.K.- > l ] o.$./ i R d.f.h.h.h.h.h.f.) ! s ^ $.o.[ l $ . h.!.Q.0   ~.~.~.~.~.~.~.~.~.~.~.~.~.~.",
"~.~.~.~.~.~.~.~.~.~.~.~.~.    L !.!.K.h.T : @ > $ ! h.j.j.h.h.j.j.j.j.j.h.1.X < @ ; D f.F.Q.!.x.    ~.~.~.~.~.~.~.~.~.~.~.~.~.~.",
"~.~.~.~.~.~.~.~.~.~.~.~.~.p i   c.!.!.!.!.W.J.l.: R j.j.j.h.j.j.j.h.j.j.j.d.. f.G.T.!.!.!.!.Y.8 : : ~.~.~.~.~.~.~.~.~.~.~.~.~.~.",
"~.~.~.~.~.~.~.~.~.~.~.~.  j.J.+ 0 K.!.!.!.!.!.Q.0 L h.j.j.j.j.j.j.j.h.j.j.R ; T.!.!.!.!.!.Y.L   j.z.. ~.~.~.~.~.~.~.~.~.~.~.~.~.",
"~.~.~.~.~.~.~.~.~.~.~.  : W.!.l.  A G.T.!.!.!.!.D A ! h.h.h.j.j.j.j.j.h.f.A y Q.!.!.!.W.K.~   K !.Q.A   ~.~.~.~.~.~.~.~.~.~.~.~.",
"~.~.~.~.~.~.~.~.~.~.~.  U !.!.!.L   R G.J.W.!.!.h.. T T T R T T T T T T T - g.!.!.W.K.G.l.o 8 T.!.!.l.  ~.~.~.~.~.~.~.~.~.~.~.~.",
"~.~.~.~.~.~.~.~.~.~.~.  h.Q.!.!.W.K . ! F.G.J.J.v.4 , T R T T T T R T I 0 = k.J.J.G.G.h.:   F.!.!.!.Y.: ~.~.~.~.~.~.~.~.~.~.~.~.",
"~.~.~.~.~.~.~.~.~.~.~.  z.Q.!.!.!.G.  . A c.G.G.F.-.5 - p K K K K K N $ & &.B.G.G.H.! . 0 . G.!.!.!.T.A   ~.~.~.~.~.~.~.~.~.~.~.",
"~.~.~.~.~.~.~.~.~.~.~.. x.Q.!.!.!.c.o R o p x.G.G.2.%.n 7 4 & & & & 7 M &.-.G.G.c.L . T F.o F.!.!.!.T.T   ~.~.~.~.~.~.~.~.~.~.~.",
"~.~.~.~.~.~.~.~.~.~.~.: c.W.!.!.!.z.- T.Y.D   K x.k.*.*.*.*.*.*.*.*.*.*.*.2.F.~ - 0 x.!.T.- z.!.!.!.Y.d.  ~.~.~.~.~.~.~.~.~.~.~.",
"~.~.~.~.~.~.~.~.~.~.~.8 c.W.!.!.!.j.: W.!.!.G.A . i B %.*.*.*.*.*.*.*.%.Z N . 8 l.!.!.!.W.: j.!.!.!.Y.j.  ~.~.~.~.~.~.~.~.~.~.~.",
"~.~.~.~.~.~.~.~.~.~.~.; x.Y.!.!.!.l.; T.!.!.!.!.H.! 4 & 4 c b b b c 5 & = m x.W.!.!.!.!.T.; l.!.!.!.K.z.  ~.~.~.~.~.~.~.~.~.~.~.",
"~.~.~.~.~.~.~.~.~.~.~.o x.J.!.!.!.z.- T.Q.!.!.!.!.!.7.>.=.C n b b B %.>.3.7.!.!.!.!.!.!.Y.- z.!.!.!.J.l.  ~.~.~.~.~.~.~.~.~.~.~.",
"~.~.~.~.~.~.~.~.~.~.~.  j.G.W.!.!.c.. Y.!.!.!.!.!.!.8.4.4.4.4.4.4.4.4.4.4.8.!.!.!.!.!.!.Y.o c.!.!.Q.G.h.  ~.~.~.~.~.~.~.~.~.~.~.",
"~.~.~.~.~.~.~.~.~.~.~.  . - y D f.l.. K.!.!.!.!.!.!.0.4.4.4.4.4.4.4.4.4.4.0.!.!.!.!.!.!.Y.. c.Q.F.~ K 0   ~.~.~.~.~.~.~.~.~.~.~.",
"~.~.~.~.~.~.~.~.~.~.~.  A c.G.l.L o . K.!.!.!.!.!.!.q.4.4.5.r.s.m.y.6.4.4.q.!.!.!.!.!.!.J.. D : y R ~ y   ~.~.~.~.~.~.~.~.~.~.~.",
"~.~.~.~.~.~.~.~.~.~.~.~.1 F.T.!.!.j.  J.!.!.!.!.!.!.0.4.5.M.Q.!.!.Q.D.8.4.9.Q.!.!.!.!.!.J.  y z.W.W.G.p ~.~.~.~.~.~.~.~.~.~.~.~.",
"~.~.~.~.~.~.~.~.~.~.~.~.. z.K.!.!.J.  J.!.!.!.!.!.I.4.4.u.Q.!.U.I.Q.!.V.4.4.D.!.!.!.!.!.J.  l.!.!.T.F., ~.~.~.~.~.~.~.~.~.~.~.~.",
"~.~.~.~.~.~.~.~.~.~.~.~.~.d.G.Y.Q.G.  G.!.!.!.!.!.N.4.4.C.!.D.6.5.y.!.E.0.4.a.!.!.!.!.!.F.  F.!.!.J.c.- ~.~.~.~.~.~.~.~.~.~.~.~.",
"~.~.~.~.~.~.~.~.~.~.~.~.~.i F.G.G.z.  c.!.!.!.!.!.m.4.4.S.!.i.4.4.0.Q.Q.r.4.i.!.!.!.!.!.c.  c.K.K.G.j.  ~.~.~.~.~.~.~.~.~.~.~.~.",
"~.~.~.~.~.~.~.~.~.~.~.~.~.~.: 8 8 :   c.!.!.!.!.!.C.4.4.Z.!.L.8.5.a.!.U.9.4.M.!.!.!.!.!.z.  K j.h.d.8 ~.~.~.~.~.~.~.~.~.~.~.~.~.",
"~.~.~.~.~.~.~.~.~.~.~.~.~.~.~.~.~.~.  x.!.!.!.!.!.R.5.4.t.!.!.Q.E.!.!.N.4.4.I.!.!.!.!.!.j.          ~.~.~.~.~.~.~.~.~.~.~.~.~.~.",
"~.~.~.~.~.~.~.~.~.~.~.~.~.~.~.~.~.~.  l.!.!.!.!.!.!.y.4.5.m.Q.!.!.!.A.8.4.r.!.!.!.!.!.W.f.  ~.~.~.~.~.~.~.~.~.~.~.~.~.~.~.~.~.~.",
"~.~.~.~.~.~.~.~.~.~.~.~.~.~.~.~.~.~.  f.!.!.!.!.!.!.V.4.4.4.w.p.i.r.5.4.4.N.!.!.!.!.!.T.~   ~.~.~.~.~.~.~.~.~.~.~.~.~.~.~.~.~.~.",
"~.~.~.~.~.~.~.~.~.~.~.~.~.~.~.~.~.~.  R T.!.!.!.!.!.C.4.4.4.4.4.4.4.4.4.4.C.!.!.!.!.!.K.R   ~.~.~.~.~.~.~.~.~.~.~.~.~.~.~.~.~.~.",
"~.~.~.~.~.~.~.~.~.~.~.~.~.~.~.~.~.~.  T J.Q.!.!.!.!.L.4.4.3.3.3.4.4.4.4.4.S.!.!.!.!.W.G.T   ~.~.~.~.~.~.~.~.~.~.~.~.~.~.~.~.~.~.",
"~.~.~.~.~.~.~.~.~.~.~.~.~.~.~.~.~.~.  K G.J.K.K.J.J.b.=.*.*.*.*.*.*.=.=.=.b.J.J.K.K.J.G.K   ~.~.~.~.~.~.~.~.~.~.~.~.~.~.~.~.~.~.",
"~.~.~.~.~.~.~.~.~.~.~.~.~.~.~.~.~.~.  A G.G.G.G.G.G.n.*.*.*.*.*.*.*.*.*.*.n.G.G.G.G.G.G.A   ~.~.~.~.~.~.~.~.~.~.~.~.~.~.~.~.~.~.",
"~.~.~.~.~.~.~.~.~.~.~.~.~.~.~.~.~.~.~.0 H.G.x.T K K K v v v v v v v v v v K K K L z.G.G.0 ~.~.~.~.~.~.~.~.~.~.~.~.~.~.~.~.~.~.~.",
"~.~.~.~.~.~.~.~.~.~.~.~.~.~.~.~.~.~.~.; x.G.K                                     D G.z.- ~.~.~.~.~.~.~.~.~.~.~.~.~.~.~.~.~.~.~.",
"~.~.~.~.~.~.~.~.~.~.~.~.~.~.~.~.~.~.~.  f.G.8   ~.~.~.~.~.~.~.~.~.~.~.~.~.~.~.~.  ; G.f.  ~.~.~.~.~.~.~.~.~.~.~.~.~.~.~.~.~.~.~.",
"~.~.~.~.~.~.~.~.~.~.~.~.~.~.~.~.~.~.~.  L x.  ~.~.~.~.~.~.~.~.~.~.~.~.~.~.~.~.~.~.  z.L   ~.~.~.~.~.~.~.~.~.~.~.~.~.~.~.~.~.~.~.",
"~.~.~.~.~.~.~.~.~.~.~.~.~.~.~.~.~.~.~.  i f.  ~.~.~.~.~.~.~.~.~.~.~.~.~.~.~.~.~.~.  d.y   ~.~.~.~.~.~.~.~.~.~.~.~.~.~.~.~.~.~.~.",
"~.~.~.~.~.~.~.~.~.~.~.~.~.~.~.~.~.~.~.  + p   ~.~.~.~.~.~.~.~.~.~.~.~.~.~.~.~.~.~.  : .   ~.~.~.~.~.~.~.~.~.~.~.~.~.~.~.~.~.~.~.",
"~.~.~.~.~.~.~.~.~.~.~.~.~.~.~.~.~.~.~.~.~.  ~.~.~.~.~.~.~.~.~.~.~.~.~.~.~.~.~.~.~.~.  ~.~.~.~.~.~.~.~.~.~.~.~.~.~.~.~.~.~.~.~.~.",
"~.~.~.~.~.~.~.~.~.~.~.~.~.~.~.~.~.~.~.~.~.~.~.~.~.~.~.~.~.~.~.~.~.~.~.~.~.~.~.~.~.~.~.~.~.~.~.~.~.~.~.~.~.~.~.~.~.~.~.~.~.~.~.~."
};
