/* XPM */
static char *result[] = {
/* columns rows colors chars-per-pixel */
"64 64 170 2 ",
"   c #010101",
".  c #080706",
"X  c #0B0905",
"o  c #00070D",
"O  c #0C0C0C",
"+  c #00080F",
"@  c #110D07",
"#  c #100E0D",
"$  c #151109",
"%  c #1B160B",
"&  c #1F190C",
"*  c #010B15",
"=  c #000D1B",
"-  c #05101B",
";  c #131313",
":  c #1B1B1B",
">  c #1B1714",
",  c #231D0E",
"<  c #231D11",
"1  c #221E1C",
"2  c #2B2311",
"3  c #302713",
"4  c #382D17",
"5  c #3E3119",
"6  c #001223",
"7  c #001934",
"8  c #001F3E",
"9  c #151F29",
"0  c #232323",
"q  c #2A2522",
"w  c #2C2B2B",
"e  c #302A27",
"r  c #322C29",
"t  c #38322F",
"y  c #36302C",
"u  c #343434",
"i  c #3E3632",
"p  c #3C3C3C",
"a  c #2D3339",
"s  c #41341A",
"d  c #4B3C1E",
"f  c #423A36",
"g  c #453D39",
"h  c #4F4020",
"j  c #544322",
"k  c #5E4B25",
"l  c #4B423E",
"z  c #624E27",
"x  c #634F28",
"c  c #69542A",
"v  c #002142",
"b  c #00274E",
"n  c #00284F",
"m  c #002D5A",
"M  c #002B56",
"N  c #0E3052",
"B  c #1E3E5F",
"V  c #003366",
"C  c #00366B",
"Z  c #003E7C",
"A  c #003A75",
"S  c #424242",
"D  c #4F4641",
"F  c #4B4B4B",
"G  c #504743",
"H  c #534A45",
"J  c #564D48",
"K  c #584D49",
"L  c #5C514C",
"P  c #545454",
"I  c #5B5B5B",
"U  c #605550",
"Y  c #665A54",
"T  c #6B5E59",
"R  c #6E615B",
"E  c #71645E",
"W  c #5F6264",
"Q  c #656565",
"!  c #6B6B6B",
"~  c #766861",
"^  c #7A6B64",
"/  c #7F7069",
"(  c #747474",
")  c #7C7C7C",
"_  c #856B35",
"`  c #9D7D3F",
"'  c #94773B",
"]  c #8C7038",
"[  c #84746D",
"{  c #A48342",
"}  c #A88743",
"|  c #AC8A45",
" . c #BA954B",
".. c #BA954A",
"X. c #B18D47",
"o. c #C49D4E",
"O. c #CCA351",
"+. c #D9AE56",
"@. c #D3A854",
"#. c #DDB158",
"$. c #ECBD5F",
"%. c #E5B75B",
"&. c #EFBF60",
"*. c #F4C362",
"=. c #FFCC66",
"-. c #F8C763",
";. c #004181",
":. c #00458A",
">. c #1D548B",
",. c #004A94",
"<. c #004E9B",
"1. c #26629E",
"2. c #0052A4",
"3. c #0055AA",
"4. c #005CB8",
"5. c #2668A9",
"6. c #46698D",
"7. c #557FA9",
"8. c #0066CC",
"9. c #0B6CCE",
"0. c #0265C8",
"q. c #1A75D1",
"w. c #1472D0",
"e. c #1B70C6",
"r. c #267DD4",
"t. c #6288AF",
"y. c #3B89D8",
"u. c #2C80D5",
"i. c #418DD9",
"p. c #5899DB",
"a. c #6BA7E1",
"s. c #65A2E0",
"d. c #7EB1E5",
"f. c #76ADE4",
"g. c #848484",
"h. c #8B8B8B",
"j. c #949494",
"k. c #9A9A9A",
"l. c #8E9BA9",
"z. c #98A3AE",
"x. c #A3A3A3",
"c. c #ACACAC",
"v. c #B3B3B3",
"b. c #BDBDBD",
"n. c #AEB9C4",
"m. c #8AB9E8",
"M. c #B9C0C7",
"N. c #B0C4D8",
"B. c #9DC4EB",
"V. c #A8CBEE",
"C. c #B5D1EE",
"Z. c #BBD6F1",
"A. c #C3C3C3",
"S. c #CCCCCC",
"D. c #C5C7C9",
"F. c gray83",
"G. c #DBDBDB",
"H. c #C2DAF3",
"J. c #D1E3F6",
"K. c #DDEBF9",
"L. c #E4E4E4",
"P. c gray92",
"I. c #E2EDF9",
"U. c #EDF4FC",
"Y. c #E5F0FA",
"T. c #F3F3F3",
"R. c #F5F9FD",
"E. c #FFFFFF",
"W. c #F2F7FC",
"Q. c None",
/* pixels */
"Q.Q.Q.Q.Q.Q.Q.Q.Q.Q.Q.Q.Q.Q.Q.Q.Q.Q.Q.Q.Q.Q.Q.Q.Q.Q.Q.Q.Q.Q.Q.Q.Q.Q.Q.Q.Q.Q.Q.Q.Q.Q.Q.Q.Q.Q.Q.Q.Q.Q.Q.Q.Q.Q.Q.Q.Q.Q.Q.Q.Q.Q.Q.Q.",
"Q.Q.Q.Q.Q.Q.Q.Q.Q.Q.Q.Q.Q.Q.Q.Q.Q.Q.Q.Q.Q.Q.Q.Q.Q.Q.Q.Q.Q.Q.Q.Q.Q.Q.Q.Q.Q.Q.Q.Q.Q.Q.Q.Q.Q.Q.Q.Q.Q.Q.Q.Q.Q.Q.Q.Q.Q.Q.Q.Q.Q.Q.Q.Q.",
"Q.Q.Q.Q.Q.Q.Q.Q.Q.Q.Q.Q.Q.Q.Q.Q.Q.Q.Q.Q.Q.Q.Q.Q.Q.Q.Q.Q.Q.Q.Q.Q.Q.Q.Q.Q.Q.Q.Q.  Q.Q.Q.Q.Q.Q.Q.Q.Q.Q.Q.Q.Q.Q.Q.Q.Q.Q.Q.Q.Q.Q.Q.Q.",
"Q.Q.Q.Q.Q.Q.Q.Q.Q.Q.Q.Q.Q.Q.Q.Q.Q.Q.Q.Q.Q.Q.Q.Q.Q.Q.Q.Q.Q.Q.Q.Q.Q.Q.Q.Q.Q.Q.  ( 0 Q.Q.Q.Q.Q.Q.Q.Q.Q.Q.Q.Q.Q.Q.Q.Q.Q.Q.Q.Q.Q.Q.Q.",
"Q.Q.Q.Q.Q.Q.Q.Q.Q.Q.Q.Q.Q.Q.Q.Q.Q.Q.Q.Q.Q.Q.Q.Q.Q.Q.Q.Q.Q.Q.Q.Q.Q.Q.Q.Q.Q.Q.  v.w Q.Q.Q.Q.Q.Q.Q.Q.Q.Q.Q.Q.Q.Q.Q.Q.Q.Q.Q.Q.Q.Q.Q.",
"Q.Q.Q.Q.Q.Q.Q.Q.Q.Q.Q.Q.Q.Q.Q.Q.Q.Q.Q.Q.Q.Q.Q.Q.Q.Q.Q.Q.Q.Q.Q.Q.Q.Q.Q.Q.Q.Q.. F.u Q.Q.Q.Q.Q.Q.Q.Q.Q.Q.Q.Q.Q.Q.Q.Q.Q.Q.Q.Q.Q.Q.Q.",
"Q.Q.Q.Q.Q.Q.Q.Q.Q.Q.Q.Q.Q.Q.Q.Q.Q.Q.Q.Q.Q.Q.Q.Q.Q.Q.Q.Q.Q.Q.Q.Q.Q.Q.Q.Q.Q.Q.# L.p Q.Q.Q.Q.Q.Q.Q.Q.Q.Q.Q.Q.Q.Q.Q.Q.Q.Q.Q.Q.Q.Q.Q.",
"Q.Q.Q.Q.Q.Q.Q.Q.Q.Q.Q.Q.Q.Q.Q.Q.Q.Q.Q.Q.Q.Q.Q.Q.Q.Q.Q.Q.Q.Q.Q.Q.Q.Q.Q.Q.Q.Q.: T.S Q.Q.Q.Q.Q.Q.Q.Q.Q.Q.Q.Q.Q.Q.Q.Q.Q.Q.Q.Q.Q.Q.Q.",
"Q.Q.Q.Q.Q.Q.Q.Q.Q.Q.Q.Q.Q.Q.Q.Q.Q.Q.Q.Q.Q.Q.Q.Q.Q.Q.Q.Q.Q.Q.        Q.Q.Q.  0 R.l Q.Q.Q.Q.Q.Q.Q.Q.Q.Q.Q.Q.Q.Q.Q.Q.Q.Q.Q.Q.Q.Q.Q.",
"Q.Q.Q.Q.Q.Q.Q.Q.Q.Q.Q.Q.Q.Q.Q.Q.Q.Q.Q.Q.Q.Q.Q.Q.      o = 6 6 6 * o         . p : Q.Q.Q.Q.Q.Q.Q.Q.Q.Q.Q.Q.Q.Q.Q.Q.Q.Q.Q.Q.Q.Q.Q.",
"Q.Q.Q.Q.Q.Q.Q.Q.Q.Q.Q.Q.Q.Q.Q.Q.Q.Q.Q.Q.    q Q 6.3.0.8.8.8.8.8.8.8.8.4.2.<.>.) u     Q.Q.Q.Q.Q.Q.Q.Q.Q.Q.Q.Q.Q.Q.Q.Q.Q.Q.Q.Q.Q.",
"Q.Q.Q.Q.Q.Q.Q.Q.Q.Q.Q.Q.Q.Q.Q.Q.Q.Q.  O I S.E.E.i.8.8.8.8.8.8.8.8.8.8.8.8.0.9.I.E.L.g.>   Q.Q.Q.Q.Q.Q.Q.Q.Q.Q.Q.Q.Q.Q.Q.Q.Q.Q.Q.",
"Q.Q.Q.Q.Q.Q.Q.Q.Q.Q.Q.Q.Q.Q.Q.Q.Q.. F D.E.E.E.U.e.3.:.C m b 7 7 7 8 M V ;.<.4.C.E.E.E.F.( ; Q.Q.Q.Q.Q.Q.Q.Q.Q.Q.Q.Q.Q.Q.Q.Q.Q.Q.",
"Q.Q.Q.Q.Q.Q.Q.Q.Q.Q.Q.Q.Q.Q.Q.Q.3 v.R.E.E.R.v.W = O ; 1 2 e e e e e 2 1 > # * a j.L.E.E.E.F.S   Q.Q.Q.Q.Q.Q.Q.Q.Q.Q.Q.Q.Q.Q.Q.Q.",
"Q.Q.Q.Q.Q.Q.Q.Q.Q.Q.Q.Q.Q.Q.Q.  b.E.E.T.S.u . 1 t f f f f f f p f f f f f f i e ; ; ( E.E.E.P.: Q.Q.Q.Q.Q.Q.Q.Q.Q.Q.Q.Q.Q.Q.Q.Q.",
"Q.Q.Q.Q.Q.Q.Q.Q.Q.Q.Q.Q.Q.Q.  u E.E.T.7.; 3 f f f l l l l G G G G G G l D g g f f r > S F.E.E.h.  Q.Q.Q.Q.Q.Q.Q.Q.Q.Q.Q.Q.Q.Q.Q.",
"Q.Q.Q.Q.Q.Q.Q.Q.Q.Q.Q.Q.Q.Q.  c.E.E.( ; i g g D J J J J J J J J J J J J J J J H g g f 3 ; A.E.R.;   Q.Q.Q.Q.Q.Q.Q.Q.Q.Q.Q.Q.Q.Q.",
"Q.Q.Q.Q.Q.Q.Q.Q.Q.Q.Q.Q.Q.  : R.E.x.# i g D J J J J L R ~ ^ ^ ^ ^ ^ ~ E Y L J K K K S f q w T.E.Q   Q.Q.Q.Q.Q.Q.Q.Q.Q.Q.Q.Q.Q.Q.",
"Q.Q.Q.Q.Q.Q.Q.Q.Q.Q.Q.Q.Q.  j.E.P.; r g H J J J Y ^ [ [ [ [ [ [ [ [ [ [ [ [ E L J J J l f # g.E.b.  Q.Q.Q.Q.Q.Q.Q.Q.Q.Q.Q.Q.Q.Q.",
"Q.Q.Q.Q.Q.Q.Q.Q.Q.Q.Q.Q.Q.. G.E.) $ g H J J J R [ [ [ [ [ [ [ [ [ [ [ [ [ [ [ ^ U J J K l r . T.R.:   Q.Q.Q.Q.Q.Q.Q.Q.Q.Q.Q.Q.Q.",
"Q.Q.Q.Q.Q.Q.Q.Q.Q.Q.Q.Q.  q R.E.p 1 l J J J Y [ [ [ [ [ [ [ [ [ [ [ [ [ [ [ [ [ ^ J J J H i . A.E.!   Q.Q.Q.Q.Q.Q.Q.Q.Q.Q.Q.Q.Q.",
"Q.Q.Q.Q.Q.Q.Q.Q.Q.Q.Q.Q.  P E.E.: q H J J J / [ ~ R R Y U J G l l J L Y T R E [ [ T J J J g . k.E.c.    Q.Q.Q.Q.Q.Q.Q.Q.Q.Q.Q.Q.",
"Q.Q.Q.Q.Q.Q.Q.Q.Q.Q.Q.    ) E.E.> q H H g q : X X % $ % , 2 5 h d 4 2 % @ $ @ . ; q r G J l . j.E.F.      Q.Q.Q.Q.Q.Q.Q.Q.Q.Q.Q.",
"Q.Q.Q.Q.Q.Q.Q.Q.Q.Q.  .   k.E.E.> r i > 2 x ` @.@.%.%.$.*.=.=.=.=.=.=.*.$.%.O.#. ._ s < : l . k.E.L.O S O Q.Q.Q.Q.Q.Q.Q.Q.Q.Q.Q.",
"Q.Q.Q.Q.Q.Q.Q.Q.Q.Q.. (   v.E.E.: :   X.=.=.=.-.5 | =.=.=.=.=.=.=.=.=.=.=.' 3 -.=.=.=.&.< ; . k.E.P.> ( j.  Q.Q.Q.Q.Q.Q.Q.Q.Q.Q.",
"Q.Q.Q.Q.Q.Q.Q.Q.Q.  I j.  b.E.E.a   . +.=.=.=.#.. z =.=.=.=.=.=.=.=.=.=.=.k . #.=.=.=.=.s     c.E.W.: ! T.. Q.Q.Q.Q.Q.Q.Q.Q.Q.Q.",
"Q.Q.Q.Q.Q.Q.Q.Q.Q.  v.j.  b.E.E.I   % $.=.=.=.o.  j =.=.=.=.=.=.=.=.=.=.=.j   o.=.=.=.=.x     G.E.T.1 ! E.p Q.Q.Q.Q.Q.Q.Q.Q.Q.Q.",
"Q.Q.Q.Q.Q.Q.Q.Q.Q.  L.x.  c.E.E.S.1 3 =.=.=.=.|   s =.=.=.=.=.=.=.=.=.=.=.j   { =.=.=.=.] X h.E.E.P.: ( E.S Q.Q.Q.Q.Q.Q.Q.Q.Q.Q.",
"Q.Q.Q.Q.Q.Q.Q.Q.Q.  A.c.. k.E.E.E.0 d =.=.=.=...  5 =.=.=.=.=.=.=.=.=.=.=.j   { =.=.=.=.{ O G.E.E.L.. ( F.: Q.Q.Q.Q.Q.Q.Q.Q.Q.Q.",
"Q.Q.Q.Q.Q.Q.Q.Q.Q.Q.Q c.; ( E.E.E.  c =.=.=.=.O.  s =.=.=.=.=.=.=.=.=.=.=.s   O.=.=.=.=...  F.E.E.S.  h.h.  Q.Q.Q.Q.Q.Q.Q.Q.Q.Q.",
"Q.Q.Q.Q.Q.Q.Q.Q.Q.Q.; b.0 F E.E.P.  c =.=.=.=.*.& d =.=.=.=.=.=.=.=.=.=.=.j % $.=.=.=.=.o.  A.E.E.k.  g.> Q.Q.Q.Q.Q.Q.Q.Q.Q.Q.Q.",
"Q.Q.Q.Q.Q.Q.Q.Q.Q.Q.  F p : T.E.R.  z =.=.=.=.=.o.#.=.=.=.=.=.=.=.=.=.=.=.+.O.=.=.=.=.=. .  S.E.E.P . ;   Q.Q.Q.Q.Q.Q.Q.Q.Q.Q.Q.",
"Q.Q.Q.Q.Q.Q.Q.Q.Q.Q.Q.      A.E.E.w 5 =.=.=.=.=.=.=.=.*.@.o.| ` { ..@.*.=.=.=.=.=.=.=.=.] O L.E.P..     Q.Q.Q.Q.Q.Q.Q.Q.Q.Q.Q.Q.",
"Q.Q.Q.Q.Q.Q.Q.Q.Q.Q.Q.Q.    ! E.E.) @ %.=.=.=.=.-. .d .   . O ; . .   . 5 X.=.=.=.=.=.-.d w R.E.k.    Q.Q.Q.Q.Q.Q.Q.Q.Q.Q.Q.Q.Q.",
"Q.Q.Q.Q.Q.Q.Q.Q.Q.Q.Q.Q.Q.  . L.E.S.. d ' +.-.=.{ w P Q ) g.g.h.g.g.) Q I q ` =.-.%.' 3 . g.E.E.p   Q.Q.Q.Q.Q.Q.Q.Q.Q.Q.Q.Q.Q.Q.",
"Q.Q.Q.Q.Q.Q.Q.Q.Q.Q.Q.Q.  0   ( E.E.v.I w . , j < ( k.k.k.k.k.k.k.k.k.k.k.( @ z 2 . > P j.T.E.D.  :   Q.Q.Q.Q.Q.Q.Q.Q.Q.Q.Q.Q.Q.",
"Q.Q.Q.Q.Q.Q.Q.Q.Q.Q.Q.Q.. c.: > P.E.E.E.T.x.( S # ! k.k.k.k.j.k.k.k.k.k.k.g.  u Q k.G.E.E.E.E.P . b.w Q.Q.Q.Q.Q.Q.Q.Q.Q.Q.Q.Q.Q.",
"Q.Q.Q.Q.Q.Q.Q.Q.Q.Q.Q.  r R.x.  I P.E.E.E.E.E.T.w Q j.k.k.k.k.k.k.j.k.k.k.( # L.E.E.E.E.E.R.h.  Q E.k.  Q.Q.Q.Q.Q.Q.Q.Q.Q.Q.Q.Q.",
"Q.Q.Q.Q.Q.Q.Q.Q.Q.Q.Q.  ( E.E.P   h.L.E.E.E.E.E.i P g.k.k.k.k.k.k.k.k.k.k.P 1 U.E.E.E.E.P.v.O ; P.E.L.>   Q.Q.Q.Q.Q.Q.Q.Q.Q.Q.Q.",
"Q.Q.Q.Q.Q.Q.Q.Q.Q.Q.Q.  h.R.E.L.: ; x.F.P.E.E.E.! 0 ! ) g.g.g.g.{ t.g.( ( w I E.E.E.T.G.A.p   x.E.E.R.F   Q.Q.Q.Q.Q.Q.Q.Q.Q.Q.Q.",
"Q.Q.Q.Q.Q.Q.Q.Q.Q.Q.Q.  k.E.E.E.b.O 0 v.S.F.L.P.c.. S Q Q Q Q Q Q Q Q Q J o l.L.P.G.S.b.F   ) E.E.E.T.(   Q.Q.Q.Q.Q.Q.Q.Q.Q.Q.Q.",
"Q.Q.Q.Q.Q.Q.Q.Q.Q.Q.Q.  x.R.E.E.E.k.  w v.S.S.S.n.N . F Q ! Q Q Q Q Q F X v n.D.S.S.S.S     c.E.E.E.T.j.  Q.Q.Q.Q.Q.Q.Q.Q.Q.Q.Q.",
"Q.Q.Q.Q.Q.Q.Q.Q.Q.Q.Q.; v.P.E.E.E.x.. . : k.S.S.D.1.b o : i p p p i 9 + 8 ,.D.S.S.n.p . ! > x.E.E.E.P.c.. Q.Q.Q.Q.Q.Q.Q.Q.Q.Q.Q.",
"Q.Q.Q.Q.Q.Q.Q.Q.Q.Q.Q.. v.L.E.E.E.c.; A.F   W b.S.t.,.,.;.V m M m V Z ,.,.1.S.D.[ O 0 D.L.; c.E.E.E.P.b.: Q.Q.Q.Q.Q.Q.Q.Q.Q.Q.Q.",
"Q.Q.Q.Q.Q.Q.Q.Q.Q.Q.Q.  c.G.E.E.E.b.. L.R.) ; w h.z.<.<.,.,.,.,.,.,.,.,.,.7.x.F ; P G.E.L.. c.E.E.E.L.b.0 Q.Q.Q.Q.Q.Q.Q.Q.Q.Q.Q.",
"Q.Q.Q.Q.Q.Q.Q.Q.Q.Q.Q.  k.S.R.E.E.A.O G.E.E.L.g.q : v C ;.,.,.,.,.,.:.A b 9 : I S.E.E.E.L.. b.E.E.E.F.v.; Q.Q.Q.Q.Q.Q.Q.Q.Q.Q.Q.",
"Q.Q.Q.Q.Q.Q.Q.Q.Q.Q.Q.  w P ) v.T.b.  G.E.E.E.E.T.b.B * o * 6 6 6 = + o v >.P.E.E.E.E.E.F.  M.E.E.T.S.j.  Q.Q.Q.Q.Q.Q.Q.Q.Q.Q.Q.",
"Q.Q.Q.Q.Q.Q.Q.Q.Q.Q.Q.  : I P w O p   F.E.E.E.E.E.Y.9.8.5.x.g.g.g.k.D.p.8.8.J.E.E.E.E.E.F.  x.b.Q 0 . ;   Q.Q.Q.Q.Q.Q.Q.Q.Q.Q.Q.",
"Q.Q.Q.Q.Q.Q.Q.Q.Q.Q.Q.Q.: D.T.E.L.(   S.E.E.E.E.E.V.8.8.B.E.J.r.w.m.E.K.q.8.d.E.E.E.E.E.S.  . w j.S.S.Q   Q.Q.Q.Q.Q.Q.Q.Q.Q.Q.Q.",
"Q.Q.Q.Q.Q.Q.Q.Q.Q.Q.Q.Q.. v.G.E.E.F.  b.E.E.E.E.E.m.8.8.Z.E.a.8.8.r.R.W.y.8.a.E.E.E.E.E.b.  F E.E.R.S.F   Q.Q.Q.Q.Q.Q.Q.Q.Q.Q.Q.",
"Q.Q.Q.Q.Q.Q.Q.Q.Q.Q.Q.Q.  h.S.T.E.F.  A.E.E.E.E.E.V.8.8.B.E.J.r.q.d.E.K.q.8.m.E.E.E.E.E.c.  h.E.E.P.S.y Q.Q.Q.Q.Q.Q.Q.Q.Q.Q.Q.Q.",
"Q.Q.Q.Q.Q.Q.Q.Q.Q.Q.Q.Q.Q.F S.S.G.b.. c.E.E.E.E.E.W.w.8.u.I.E.W.U.E.E.p.8.9.Y.E.E.E.E.E.j.  k.R.T.F.M.: Q.Q.Q.Q.Q.Q.Q.Q.Q.Q.Q.Q.",
"Q.Q.Q.Q.Q.Q.Q.Q.Q.Q.Q.Q.Q.O ( h.h.( . x.E.E.E.E.E.E.f.8.8.y.H.E.E.I.a.8.8.s.E.E.E.E.E.R.g.  ) S.S.S.j.. Q.Q.Q.Q.Q.Q.Q.Q.Q.Q.Q.Q.",
"Q.Q.Q.Q.Q.Q.Q.Q.Q.Q.Q.Q.Q.Q.Q.Q.Q.Q.  ) R.E.E.E.E.E.B.8.8.8.8.8.8.8.8.8.8.V.E.E.E.E.E.L.(   ; S S y . Q.Q.Q.Q.Q.Q.Q.Q.Q.Q.Q.Q.Q.",
"Q.Q.Q.Q.Q.Q.Q.Q.Q.Q.Q.Q.Q.Q.Q.Q.Q.Q.  Q G.E.E.E.E.E.Z.8.8.8.8.8.8.8.8.8.8.Z.E.E.E.E.R.S.Q   Q.Q.Q.Q.Q.Q.Q.Q.Q.Q.Q.Q.Q.Q.Q.Q.Q.Q.",
"Q.Q.Q.Q.Q.Q.Q.Q.Q.Q.Q.Q.Q.Q.Q.Q.Q.Q.  P S.G.L.L.L.P.N.3.2.2.<.<.2.2.3.3.3.N.L.L.L.L.G.S.P   Q.Q.Q.Q.Q.Q.Q.Q.Q.Q.Q.Q.Q.Q.Q.Q.Q.Q.",
"Q.Q.Q.Q.Q.Q.Q.Q.Q.Q.Q.Q.Q.Q.Q.Q.Q.Q.  p S.S.S.S.S.S.M.,.,.,.,.,.,.,.,.,.,.M.S.S.S.S.S.S.S   Q.Q.Q.Q.Q.Q.Q.Q.Q.Q.Q.Q.Q.Q.Q.Q.Q.Q.",
"Q.Q.Q.Q.Q.Q.Q.Q.Q.Q.Q.Q.Q.Q.Q.Q.Q.Q.Q.w S.S.v.P p p p 8 v 8 8 8 8 8 8 8 8 p p p p c.S.S.w Q.Q.Q.Q.Q.Q.Q.Q.Q.Q.Q.Q.Q.Q.Q.Q.Q.Q.Q.",
"Q.Q.Q.Q.Q.Q.Q.Q.Q.Q.Q.Q.Q.Q.Q.Q.Q.Q.Q.O x.S.S   Q.Q.Q.Q.Q.Q.Q.Q.Q.Q.Q.Q.Q.Q.Q.Q.  p S.x.. Q.Q.Q.Q.Q.Q.Q.Q.Q.Q.Q.Q.Q.Q.Q.Q.Q.Q.Q.",
"Q.Q.Q.Q.Q.Q.Q.Q.Q.Q.Q.Q.Q.Q.Q.Q.Q.Q.Q.  ( D..   Q.Q.Q.Q.Q.Q.Q.Q.Q.Q.Q.Q.Q.Q.Q.Q.Q.. b.(   Q.Q.Q.Q.Q.Q.Q.Q.Q.Q.Q.Q.Q.Q.Q.Q.Q.Q.Q.",
"Q.Q.Q.Q.Q.Q.Q.Q.Q.Q.Q.Q.Q.Q.Q.Q.Q.Q.Q.  F k.  Q.Q.Q.Q.Q.Q.Q.Q.Q.Q.Q.Q.Q.Q.Q.Q.Q.Q.  j.S   Q.Q.Q.Q.Q.Q.Q.Q.Q.Q.Q.Q.Q.Q.Q.Q.Q.Q.Q.",
"Q.Q.Q.Q.Q.Q.Q.Q.Q.Q.Q.Q.Q.Q.Q.Q.Q.Q.Q.  : F   Q.Q.Q.Q.Q.Q.Q.Q.Q.Q.Q.Q.Q.Q.Q.Q.Q.Q.  p ;   Q.Q.Q.Q.Q.Q.Q.Q.Q.Q.Q.Q.Q.Q.Q.Q.Q.Q.Q.",
"Q.Q.Q.Q.Q.Q.Q.Q.Q.Q.Q.Q.Q.Q.Q.Q.Q.Q.Q.Q.    Q.Q.Q.Q.Q.Q.Q.Q.Q.Q.Q.Q.Q.Q.Q.Q.Q.Q.Q.Q.    Q.Q.Q.Q.Q.Q.Q.Q.Q.Q.Q.Q.Q.Q.Q.Q.Q.Q.Q.Q.",
"Q.Q.Q.Q.Q.Q.Q.Q.Q.Q.Q.Q.Q.Q.Q.Q.Q.Q.Q.Q.Q.Q.Q.Q.Q.Q.Q.Q.Q.Q.Q.Q.Q.Q.Q.Q.Q.Q.Q.Q.Q.Q.Q.Q.Q.Q.Q.Q.Q.Q.Q.Q.Q.Q.Q.Q.Q.Q.Q.Q.Q.Q.Q.Q."
};
