/* XPM */
static char *result[] = {
/* columns rows colors chars-per-pixel */
"64 64 171 2 ",
"   c #010101",
".  c #080706",
"X  c #0B0905",
"o  c #00060D",
"O  c #0C0C0C",
"+  c #00080F",
"@  c #110D07",
"#  c #100E0D",
"$  c #151109",
"%  c #1B160B",
"&  c #1F190C",
"*  c #010B15",
"=  c #000D1B",
"-  c #05101B",
";  c #131313",
":  c #1B1B1B",
">  c #1B1714",
",  c #231D0E",
"<  c #231D11",
"1  c #221E1C",
"2  c #2B2311",
"3  c #302713",
"4  c #382D17",
"5  c #3E3119",
"6  c #001223",
"7  c #001934",
"8  c #001F3E",
"9  c #151F29",
"0  c #242323",
"q  c #2A2522",
"w  c #2B2B2B",
"e  c #302A27",
"r  c #322C29",
"t  c #38322F",
"y  c #36302C",
"u  c gray20",
"i  c #3E3632",
"p  c #3C3C3C",
"a  c #2D3339",
"s  c #41341A",
"d  c #4B3C1E",
"f  c #423A36",
"g  c #453D39",
"h  c #4F4020",
"j  c #544322",
"k  c #5E4B25",
"l  c #4B423E",
"z  c #624E27",
"x  c #634F28",
"c  c #69542A",
"v  c #002142",
"b  c #00274E",
"n  c #00284F",
"m  c #002D5A",
"M  c #002B56",
"N  c #0E3052",
"B  c #1E3E5F",
"V  c #003366",
"C  c #00366B",
"Z  c #003E7C",
"A  c #003A75",
"S  c #414141",
"D  c #4F4641",
"F  c #4A4A4A",
"G  c #504743",
"H  c #534A45",
"J  c #564D48",
"K  c #584D49",
"L  c #5C514C",
"P  c #555555",
"I  c #5B5B5B",
"U  c #605550",
"Y  c #665A54",
"T  c #6B5E59",
"R  c #6E615B",
"E  c #71645E",
"W  c #5F6264",
"Q  c #656565",
"!  c #6B6B6B",
"~  c #766861",
"^  c #7A6B64",
"/  c #7F7069",
"(  c #747474",
")  c #7B7B7C",
"_  c #856B35",
"`  c #9D7D3F",
"'  c #94773B",
"]  c #8C7038",
"[  c #84746D",
"{  c #A48342",
"}  c #A88743",
"|  c #AC8A45",
" . c #BA954B",
".. c #BA954A",
"X. c #B18D47",
"o. c #C49D4E",
"O. c #CCA351",
"+. c #D9AE56",
"@. c #D3A854",
"#. c #DDB158",
"$. c #ECBD5F",
"%. c #E5B75B",
"&. c #EFBF60",
"*. c #F4C362",
"=. c #FFCC66",
"-. c #F8C763",
";. c #004181",
":. c #00458A",
">. c #004A94",
",. c #004E9B",
"<. c #1A5188",
"1. c #215991",
"2. c #26629E",
"3. c #0052A4",
"4. c #0055AA",
"5. c #005CB8",
"6. c #2668A9",
"7. c #46698D",
"8. c #557FA9",
"9. c #0066CC",
"0. c #0B6CCE",
"q. c #0265C8",
"w. c #1A75D1",
"e. c #1472D0",
"r. c #1B70C6",
"t. c #267DD4",
"y. c #6288AF",
"u. c #3B89D8",
"i. c #2C80D5",
"p. c #418DD9",
"a. c #5899DB",
"s. c #6BA7E1",
"d. c #65A2E0",
"f. c #7EB1E5",
"g. c #76ADE4",
"h. c #848484",
"j. c #8B8B8B",
"k. c #949494",
"l. c #9A9A9A",
"z. c #8E9BA9",
"x. c #98A3AE",
"c. c #A3A3A3",
"v. c #ACACAC",
"b. c #B4B4B4",
"n. c #BDBDBD",
"m. c #AEB9C4",
"M. c #8AB9E8",
"N. c #B9C0C7",
"B. c #B0C4D8",
"V. c #9DC4EB",
"C. c #A8CBEE",
"Z. c #B5D1EE",
"A. c #BBD6F1",
"S. c #C3C3C3",
"D. c #CCCCCC",
"F. c #C5C7C9",
"G. c #D4D4D4",
"H. c #DBDBDB",
"J. c #C2DAF3",
"K. c #D1E3F6",
"L. c #DDEBF9",
"P. c #E4E4E4",
"I. c #EBEBEB",
"U. c #E2EDF9",
"Y. c #EDF4FC",
"T. c #E5F0FA",
"R. c #F3F3F3",
"E. c #F5F9FD",
"W. c #FFFFFF",
"Q. c #F2F7FC",
"!. c None",
/* pixels */
"!.!.!.!.!.!.!.!.!.!.!.!.!.!.!.!.!.!.!.!.!.!.!.!.!.!.!.!.!.!.!.!.!.!.!.!.!.!.!.!.!.!.!.!.!.!.!.!.!.!.!.!.!.!.!.!.!.!.!.!.!.!.!.!.",
"!.!.!.!.!.!.!.!.!.!.!.!.!.!.!.!.!.!.!.!.!.!.!.!.!.!.!.!.!.!.!.!.!.!.!.!.!.!.!.!.!.!.!.!.!.!.!.!.!.!.!.!.!.!.!.!.!.!.!.!.!.!.!.!.",
"!.!.!.!.!.!.!.!.!.!.!.!.!.!.!.!.!.!.!.!.!.!.!.!.!.!.!.!.!.!.!.!.!.!.!.!.!.!.!.  !.!.!.!.!.!.!.!.!.!.!.!.!.!.!.!.!.!.!.!.!.!.!.!.",
"!.!.!.!.!.!.!.!.!.!.!.!.!.!.!.!.!.!.!.!.!.!.!.!.!.!.!.!.!.!.!.!.!.!.!.!.!.!.  ( 0 !.!.!.!.!.!.!.!.!.!.!.!.!.!.!.!.!.!.!.!.!.!.!.",
"!.!.!.!.!.!.!.!.!.!.!.!.!.!.!.!.!.!.!.!.!.!.!.!.!.!.!.!.!.!.!.!.!.!.!.!.!.!.  b.w !.!.!.!.!.!.!.!.!.!.!.!.!.!.!.!.!.!.!.!.!.!.!.",
"!.!.!.!.!.!.!.!.!.!.!.!.!.!.!.!.!.!.!.!.!.!.!.!.!.!.!.!.!.!.!.!.!.!.!.!.!.!.. G.u !.!.!.!.!.!.!.!.!.!.!.!.!.!.!.!.!.!.!.!.!.!.!.",
"!.!.!.!.!.!.!.!.!.!.!.!.!.!.!.!.!.!.!.!.!.!.!.!.!.!.!.!.!.!.!.!.!.!.!.!.!.!.# P.p !.!.!.!.!.!.!.!.!.!.!.!.!.!.!.!.!.!.!.!.!.!.!.",
"!.!.!.!.!.!.!.!.!.!.!.!.!.!.!.!.!.!.!.!.!.!.!.!.!.!.!.!.!.!.!.!.!.!.!.!.!.!.: R.S !.!.!.!.!.!.!.!.!.!.!.!.!.!.!.!.!.!.!.!.!.!.!.",
"!.!.!.!.!.!.!.!.!.!.!.!.!.!.!.!.!.!.!.!.!.!.!.!.!.!.!.!.!.!.        !.!.!.  0 E.g !.!.!.!.!.!.!.!.!.!.!.!.!.!.!.!.!.!.!.!.!.!.!.",
"!.!.!.!.!.!.!.!.!.!.!.!.!.!.!.!.!.!.!.!.!.!.!.!.      o = 6 6 6 * o         . p : !.!.!.!.!.!.!.!.!.!.!.!.!.!.!.!.!.!.!.!.!.!.!.",
"!.!.!.!.!.!.!.!.!.!.!.!.!.!.!.!.!.!.!.!.    q Q 7.4.q.9.9.9.9.9.9.9.9.5.4.,.<.) u     !.!.!.!.!.!.!.!.!.!.!.!.!.!.!.!.!.!.!.!.!.",
"!.!.!.!.!.!.!.!.!.!.!.!.!.!.!.!.!.!.  O I D.W.W.p.9.9.9.9.9.9.9.9.9.9.9.9.q.0.U.W.P.h.>   !.!.!.!.!.!.!.!.!.!.!.!.!.!.!.!.!.!.!.",
"!.!.!.!.!.!.!.!.!.!.!.!.!.!.!.!.!.. F F.W.W.W.Y.r.4.:.C m b 7 7 7 8 M V ;.,.5.Z.W.W.W.H.( # !.!.!.!.!.!.!.!.!.!.!.!.!.!.!.!.!.!.",
"!.!.!.!.!.!.!.!.!.!.!.!.!.!.!.!.3 b.E.W.W.E.b.W = O ; 1 2 q e e e e 2 1 > # * a k.P.W.W.W.G.S   !.!.!.!.!.!.!.!.!.!.!.!.!.!.!.!.",
"!.!.!.!.!.!.!.!.!.!.!.!.!.!.!.  n.W.W.R.D.u . 1 y f g f g g f p f f f f f f i e $ ; ( E.W.W.I.: !.!.!.!.!.!.!.!.!.!.!.!.!.!.!.!.",
"!.!.!.!.!.!.!.!.!.!.!.!.!.!.  u W.W.R.8.; 3 f f f l l l l G l H G G G l D g g f g r > S G.W.W.j.  !.!.!.!.!.!.!.!.!.!.!.!.!.!.!.",
"!.!.!.!.!.!.!.!.!.!.!.!.!.!.  v.W.W.( ; i g g D J J J J J J J J J J J J J H J H l g f q ; F.W.R.;   !.!.!.!.!.!.!.!.!.!.!.!.!.!.",
"!.!.!.!.!.!.!.!.!.!.!.!.!.  : E.W.c.# i g D J J J J L R ~ ^ ^ ^ ^ ^ ~ E Y L J J J J g i q w R.W.Q   !.!.!.!.!.!.!.!.!.!.!.!.!.!.",
"!.!.!.!.!.!.!.!.!.!.!.!.!.  k.W.I.; r g H J J J Y ^ [ [ [ [ [ [ [ [ [ [ [ [ E L J J J D f $ h.W.n.  !.!.!.!.!.!.!.!.!.!.!.!.!.!.",
"!.!.!.!.!.!.!.!.!.!.!.!.!.. H.W.) $ g H J J J R [ [ [ [ [ [ [ [ [ [ [ [ [ [ [ / L J J J D e . R.E.:   !.!.!.!.!.!.!.!.!.!.!.!.!.",
"!.!.!.!.!.!.!.!.!.!.!.!.  0 R.W.p 1 l J J J Y [ [ [ [ [ [ [ [ [ [ [ [ [ [ [ [ [ ^ J J J H i . S.W.Q   !.!.!.!.!.!.!.!.!.!.!.!.!.",
"!.!.!.!.!.!.!.!.!.!.!.!.  I W.W.: q H J J J / [ ~ R R Y U J G l D J L U T R E / [ T J J J g . l.W.v.    !.!.!.!.!.!.!.!.!.!.!.!.",
"!.!.!.!.!.!.!.!.!.!.!.    ) W.W.> q H H g q : X X $ $ % , 2 5 h d 5 2 & $ $ @ . ; q r G J l . l.W.G.      !.!.!.!.!.!.!.!.!.!.!.",
"!.!.!.!.!.!.!.!.!.!.  .   l.W.W.> r i > 2 x ` @.@.%.$.&.*.-.=.=.=.=.=.&.$.%.O.%.X._ s < : l . k.W.P.O S O !.!.!.!.!.!.!.!.!.!.!.",
"!.!.!.!.!.!.!.!.!.!.. (   b.W.W.: :   X.=.=.=.-.5 | =.=.=.=.=.=.=.=.=.=.=.' 3 -.=.=.=.&.< ; . l.W.I.: ! k.  !.!.!.!.!.!.!.!.!.!.",
"!.!.!.!.!.!.!.!.!.  I k.. m.W.W.a   . +.=.=.=.#.. z =.=.=.=.=.=.=.=.=.=.=.k . #.=.=.=.=.s     v.W.R.0 ! R.. !.!.!.!.!.!.!.!.!.!.",
"!.!.!.!.!.!.!.!.!.  b.k.  n.W.W.I   % $.=.=.=.o.  j =.=.=.=.=.=.=.=.=.=.=.j   o.=.=.=.=.x     H.W.R.1 ! W.p !.!.!.!.!.!.!.!.!.!.",
"!.!.!.!.!.!.!.!.!.  P.c.  v.W.W.D.1 3 =.=.=.=.|   s =.=.=.=.=.=.=.=.=.=.=.j   } =.=.=.=.] X j.W.W.I.: ( W.S !.!.!.!.!.!.!.!.!.!.",
"!.!.!.!.!.!.!.!.!.  S.v.. l.W.W.W.0 d =.=.=.=...  5 =.=.=.=.=.=.=.=.=.=.=.j   { =.=.=.=.{ O H.W.W.P.O ) G.: !.!.!.!.!.!.!.!.!.!.",
"!.!.!.!.!.!.!.!.!.!.Q v.; ( W.W.W.  c =.=.=.=.O.  s =.=.=.=.=.=.=.=.=.=.=.s   o.=.=.=.=. .  G.W.W.F.  h.j.  !.!.!.!.!.!.!.!.!.!.",
"!.!.!.!.!.!.!.!.!.!.; n.0 F W.W.I.  c =.=.=.=.*.& d =.=.=.=.=.=.=.=.=.=.=.j % *.=.=.=.=.o.  S.W.W.x.  { > !.!.!.!.!.!.!.!.!.!.!.",
"!.!.!.!.!.!.!.!.!.!.  F p : R.W.R.  x =.=.=.=.=.o.#.=.=.=.=.=.=.=.=.=.=.=.+.o.=.=.=.=.=. .  F.W.W.P + 7   !.!.!.!.!.!.!.!.!.!.!.",
"!.!.!.!.!.!.!.!.!.!.!.  .   N.W.W.w 5 =.=.=.=.=.=.=.=.*.+.o.| ` } ..@.*.=.=.=.=.=.=.=.=.] O P.W.I..     !.!.!.!.!.!.!.!.!.!.!.!.",
"!.!.!.!.!.!.!.!.!.!.!.!.    ! W.W.) O %.=.=.=.=.=. .d     . O O . .   . 5 X.=.=.=.=.=.-.d w E.W.l.    !.!.!.!.!.!.!.!.!.!.!.!.!.",
"!.!.!.!.!.!.!.!.!.!.!.!.!.  O P.W.G.. d ' +.*.=.{ w P ! ( h.j.j.h.h.) Q P 0 ` =.=.#.] 3 . h.W.W.p   !.!.!.!.!.!.!.!.!.!.!.!.!.!.",
"!.!.!.!.!.!.!.!.!.!.!.!.  w   ( W.W.b.I w X 2 j < ( l.l.l.l.l.l.l.l.l.l.l.) @ z 2 X : P k.R.W.F.  :   !.!.!.!.!.!.!.!.!.!.!.!.!.",
"!.!.!.!.!.!.!.!.!.!.!.!.. n.: ; P.W.W.W.R.v.Q S # ! l.l.k.l.l.l.l.l.l.l.l.h.  u Q l.H.W.W.W.W.P . n.w !.!.!.!.!.!.!.!.!.!.!.!.!.",
"!.!.!.!.!.!.!.!.!.!.!.  l W.c.  I I.W.W.W.W.W.R.w Q k.l.l.l.l.l.l.l.k.l.l.) O P.W.W.W.W.W.R.j.  Q W.l.  !.!.!.!.!.!.!.!.!.!.!.!.",
"!.!.!.!.!.!.!.!.!.!.!.  h.W.W.P   j.P.W.W.W.W.W.u P h.l.l.l.l.l.l.l.l.l.l.P 1 R.W.W.W.W.R.b.# ; I.W.P.:   !.!.!.!.!.!.!.!.!.!.!.",
"!.!.!.!.!.!.!.!.!.!.!.  c.W.W.H.: ; c.G.I.W.W.W.! 0 ! ) h.h.h.h.{ y.) ) ( w I W.W.W.R.G.S.p   c.W.W.R.F   !.!.!.!.!.!.!.!.!.!.!.",
"!.!.!.!.!.!.!.!.!.!.!.  b.E.W.W.n.O 0 v.D.G.I.I.v.. S ! Q Q Q Q Q Q ! Q J o z.P.I.H.D.S.P   ) W.W.W.R.(   !.!.!.!.!.!.!.!.!.!.!.",
"!.!.!.!.!.!.!.!.!.!.!.; b.E.W.W.W.l.  w b.D.D.F.m.N   F Q Q Q Q Q Q Q S X v m.F.D.D.F.S     c.W.W.W.R.k.  !.!.!.!.!.!.!.!.!.!.!.",
"!.!.!.!.!.!.!.!.!.!.!.0 n.R.W.W.W.c.. O ; c.D.D.F.2.b o > u u u u u 9 o 8 >.F.D.G.m.p . ! > c.W.W.W.I.v.. !.!.!.!.!.!.!.!.!.!.!.",
"!.!.!.!.!.!.!.!.!.!.!.: n.P.W.W.W.v.; F.P   Q n.D.y.>.>.;.V m M M V Z >.>.2.D.F.[ # q D.P.; v.W.W.W.I.n.: !.!.!.!.!.!.!.!.!.!.!.",
"!.!.!.!.!.!.!.!.!.!.!.; b.H.W.W.W.n.. P.R.h.: w j.x.,.,.>.>.>.>.>.>.>.>.>.8.c.F ; W H.W.P.. v.W.W.W.P.n.0 !.!.!.!.!.!.!.!.!.!.!.",
"!.!.!.!.!.!.!.!.!.!.!.. v.G.E.W.W.S.O H.W.W.I.j.w 1 v C ;.>.>.>.>.>.:.A b 9 : Q H.W.W.W.H.O n.W.W.W.G.b.; !.!.!.!.!.!.!.!.!.!.!.",
"!.!.!.!.!.!.!.!.!.!.!.  r P h.b.R.S.  H.W.W.W.W.R.S.B * o * 6 6 6 = o o v 1.I.W.E.W.W.W.H.  n.W.W.R.F.l.  !.!.!.!.!.!.!.!.!.!.!.",
"!.!.!.!.!.!.!.!.!.!.!.  0 I P 0 ; S   G.W.W.W.W.W.T.0.9.6.c.h.h.h.l.F.a.9.9.K.W.W.W.W.W.G.  c.n.Q 0 . ;   !.!.!.!.!.!.!.!.!.!.!.",
"!.!.!.!.!.!.!.!.!.!.!.!.w F.R.W.H.Q   D.W.W.W.W.W.C.9.9.V.W.K.t.e.M.W.L.w.9.f.W.W.W.W.W.D.  . w k.D.G.Q   !.!.!.!.!.!.!.!.!.!.!.",
"!.!.!.!.!.!.!.!.!.!.!.!.O n.P.W.W.G.  n.W.W.W.W.W.M.9.9.A.W.s.9.9.t.E.Q.u.9.s.W.W.W.W.W.n.  F W.W.R.G.S   !.!.!.!.!.!.!.!.!.!.!.",
"!.!.!.!.!.!.!.!.!.!.!.!.  l.D.R.W.G.  n.W.W.W.W.W.C.9.9.V.W.K.t.w.f.W.L.w.9.M.W.W.W.W.W.v.  j.W.W.I.F.u !.!.!.!.!.!.!.!.!.!.!.!.",
"!.!.!.!.!.!.!.!.!.!.!.!.!.I D.G.H.S.. v.W.W.W.W.W.Q.e.9.i.U.W.Q.Y.W.W.a.9.0.U.W.W.W.W.W.k.  l.R.R.G.n.: !.!.!.!.!.!.!.!.!.!.!.!.",
"!.!.!.!.!.!.!.!.!.!.!.!.!.; ) h.j.( . c.W.W.W.W.W.W.g.9.9.u.J.W.W.U.s.9.9.d.W.W.W.W.W.R.h.  ) D.D.D.k.. !.!.!.!.!.!.!.!.!.!.!.!.",
"!.!.!.!.!.!.!.!.!.!.!.!.!.!.!.!.!.!.  ) E.W.W.W.W.W.C.9.9.9.9.9.9.9.9.9.9.C.W.W.W.W.W.P.(   ; S S u . !.!.!.!.!.!.!.!.!.!.!.!.!.",
"!.!.!.!.!.!.!.!.!.!.!.!.!.!.!.!.!.!.  Q H.W.W.W.W.W.A.9.9.9.9.9.9.9.9.9.9.A.W.W.W.W.E.G.Q   !.!.!.!.!.!.!.!.!.!.!.!.!.!.!.!.!.!.",
"!.!.!.!.!.!.!.!.!.!.!.!.!.!.!.!.!.!.  P D.H.P.P.P.P.B.4.3.3.,.,.3.3.4.4.4.B.P.I.P.P.G.D.P   !.!.!.!.!.!.!.!.!.!.!.!.!.!.!.!.!.!.",
"!.!.!.!.!.!.!.!.!.!.!.!.!.!.!.!.!.!.  p D.D.D.D.D.D.N.>.>.>.>.>.>.>.>.>.>.N.D.D.D.D.D.D.S   !.!.!.!.!.!.!.!.!.!.!.!.!.!.!.!.!.!.",
"!.!.!.!.!.!.!.!.!.!.!.!.!.!.!.!.!.!.!.w F.D.b.P p p p 8 8 8 8 8 8 8 8 8 8 p p p p v.D.F.w !.!.!.!.!.!.!.!.!.!.!.!.!.!.!.!.!.!.!.",
"!.!.!.!.!.!.!.!.!.!.!.!.!.!.!.!.!.!.!.O c.D.S   !.!.!.!.!.!.!.!.!.!.!.!.!.!.!.!.  p D.c.O !.!.!.!.!.!.!.!.!.!.!.!.!.!.!.!.!.!.!.",
"!.!.!.!.!.!.!.!.!.!.!.!.!.!.!.!.!.!.!.  ( F.O   !.!.!.!.!.!.!.!.!.!.!.!.!.!.!.!.!.. n.(   !.!.!.!.!.!.!.!.!.!.!.!.!.!.!.!.!.!.!.",
"!.!.!.!.!.!.!.!.!.!.!.!.!.!.!.!.!.!.!.  F l.  !.!.!.!.!.!.!.!.!.!.!.!.!.!.!.!.!.!.  k.S   !.!.!.!.!.!.!.!.!.!.!.!.!.!.!.!.!.!.!.",
"!.!.!.!.!.!.!.!.!.!.!.!.!.!.!.!.!.!.!.  : F   !.!.!.!.!.!.!.!.!.!.!.!.!.!.!.!.!.!.  p ;   !.!.!.!.!.!.!.!.!.!.!.!.!.!.!.!.!.!.!.",
"!.!.!.!.!.!.!.!.!.!.!.!.!.!.!.!.!.!.!.!.    !.!.!.!.!.!.!.!.!.!.!.!.!.!.!.!.!.!.!.!.    !.!.!.!.!.!.!.!.!.!.!.!.!.!.!.!.!.!.!.!.",
"!.!.!.!.!.!.!.!.!.!.!.!.!.!.!.!.!.!.!.!.!.!.!.!.!.!.!.!.!.!.!.!.!.!.!.!.!.!.!.!.!.!.!.!.!.!.!.!.!.!.!.!.!.!.!.!.!.!.!.!.!.!.!.!."
};
