/* XPM */
static char *result[] = {
/* columns rows colors chars-per-pixel */
"64 64 174 2 ",
"   c #010101",
".  c #090707",
"X  c #0C0905",
"o  c #020609",
"O  c #0B0B0B",
"+  c #02090F",
"@  c #100E0D",
"#  c #100D06",
"$  c #1E180C",
"%  c #17130B",
"&  c #000912",
"*  c #000F1F",
"=  c #07131E",
"-  c #141313",
";  c #191614",
":  c #1C1B1B",
">  c #181817",
",  c #211B0D",
"<  c #211D1B",
"1  c #241D13",
"2  c #2C2412",
"3  c #26211F",
"4  c #342A16",
"5  c #3E3219",
"6  c #001529",
"7  c #001A34",
"8  c #001F3E",
"9  c #232323",
"0  c #2A2522",
"q  c #2F2924",
"w  c gray17",
"e  c #262A2E",
"r  c #332D2A",
"t  c #37302D",
"y  c #343434",
"u  c #3D3632",
"i  c #3B3B3B",
"p  c #42351A",
"a  c #4A3B1E",
"s  c #47391C",
"d  c #423A36",
"f  c #463E3A",
"g  c #544322",
"h  c #5C4925",
"j  c #584623",
"k  c #4A423E",
"l  c #624F27",
"z  c #634F28",
"x  c #6A552A",
"c  c #655128",
"v  c #745D2E",
"b  c #7C6331",
"n  c #00254B",
"m  c #002244",
"M  c #002A54",
"N  c #002E5B",
"B  c #0E3357",
"V  c #003164",
"C  c #00376E",
"Z  c #003A74",
"A  c #12487F",
"S  c #444444",
"D  c #4E4541",
"F  c #4C4C4C",
"G  c #504742",
"H  c #534A45",
"J  c #564D48",
"K  c #584F4A",
"L  c #5C514C",
"P  c #535353",
"I  c #5C5C5C",
"U  c #60554F",
"Y  c #655954",
"T  c #6B5F59",
"R  c #6D605A",
"E  c #72655F",
"W  c #656565",
"Q  c #6D6D6D",
"!  c #7A6B65",
"~  c #7E6F68",
"^  c #746761",
"/  c #7F7069",
"(  c #747474",
")  c #7B7B7B",
"_  c #846935",
"`  c #856A35",
"'  c #8E7239",
"]  c #94763B",
"[  c #9C7D3E",
"{  c #84746D",
"}  c #9F8040",
"|  c #AC8945",
" . c #A88644",
".. c #B18E47",
"X. c #B59148",
"o. c #BB964B",
"O. c #BE994C",
"+. c #CBA351",
"@. c #DDB158",
"#. c #DBAF57",
"$. c #E3B55B",
"%. c #ECBD5E",
"&. c #F3C261",
"*. c #FFCC66",
"=. c #F8C763",
"-. c #004386",
";. c #00468C",
":. c #004A94",
">. c #004E9B",
",. c #1A5086",
"<. c #28639F",
"1. c #0052A4",
"2. c #0056AD",
"3. c #0058B0",
"4. c #005DBA",
"5. c #1767B8",
"6. c #2D67A0",
"7. c #406284",
"8. c #587EA4",
"9. c #0066CC",
"0. c #066ACD",
"q. c #1271CF",
"w. c #1673D0",
"e. c #1B76D2",
"r. c #2A7FD4",
"t. c #668BB0",
"y. c #2E82D5",
"u. c #3284D6",
"i. c #3988D7",
"p. c #3D8BD8",
"a. c #5B9DDF",
"s. c #4891DA",
"d. c #6AA6E1",
"f. c #79AFE4",
"g. c #7BB0E4",
"h. c #838383",
"j. c #8B8B8B",
"k. c #949494",
"l. c #9A9A9A",
"z. c #919EAC",
"x. c #8C9CAB",
"c. c #A3A3A3",
"v. c #ABABAB",
"b. c #ACAFB2",
"n. c #B4B4B4",
"m. c #BCBCBC",
"M. c #B5BDC5",
"N. c #A4B3C1",
"B. c #83B4E6",
"V. c #8CBAE8",
"C. c #ADC1D5",
"Z. c #9AC3EA",
"A. c #A6CAED",
"S. c #BAD5F1",
"D. c #BAD6F1",
"F. c #B0CCE8",
"G. c #C4C4C4",
"H. c #CCCCCC",
"J. c #C6C8CA",
"K. c gray83",
"L. c #DCDCDC",
"P. c #C5DCF3",
"I. c #D7E7F7",
"U. c #DDEBF8",
"Y. c #CCE0F5",
"T. c #E4E4E4",
"R. c #EBEBEB",
"E. c #EDF4FB",
"W. c #E6F0FA",
"Q. c #F3F3F3",
"!. c #F1F6FC",
"~. c #FFFFFF",
"^. c #F3F8FD",
"/. c None",
/* pixels */
"/./././././././././././././././././././././././././././././././././././././././././././././././././././././././././././././././.",
"/./././././././././././././././././././././././././././././././././././././..   /./././././././././././././././././././././././.",
"/./././././././././././././././././././././././././././././././././././././.S h././././././././././././././././././././././././.",
"/././././././././././././././././././././././././././././././././././././.  ( l.  /././././././././././././././././././././././.",
"/././././././././././././././././././././././././././././././././././././.  k.c.  /././././././././././././././././././././././.",
"/./././././././././././././././././././././././.      o & & & &             y S   /././././././././././././././././././././././.",
"/./././././././././././././././././././.    - S 7.1.4.9.9.9.9.9.9.9.4.2.1.>.,.I >     /././././././././././././././././././././.",
"/./././././././././././././././././.  O i v.T.~.s.0.9.9.9.9.9.9.9.9.9.9.9.9.w.E.Q.m.W -   /././././././././././././././././././.",
"/././././././././././././././././.. W K.~.~.~.E.5.1.Z N n m 7 7 7 8 m M C -.3.F.~.~.~.T.j.: /./././././././././././././././././.",
"/./././././././././././././././.9 H.~.~.~.~.H.W &   @ : < q t t r r 0 < > . o e c.Q.~.~.~.T.S   /./././././././././././././././.",
"/././././././././././././././.  G.~.~.~.n.y . < t f d d d d d d d d d d d d u q - - ( Q.~.~.Q.9 /./././././././././././././././.",
"/./././././././././././././.  F ~.~.R.I @ r d d k k D G G G H J H H H G D D f d d u < 9 v.~.~.c.  /././././././././././././././.",
"/./././././././././././././.  n.~.~.( ; t f k G H J J J J K K K J K J J J J J H k f d 0 > G.~.Q.>   /./././././././././././././.",
"/././././././././././././.  y ~.~.j.- u k H J J J L T ! ~ / ~ ~ ~ ~ ~ ! ^ Y J H J J k d q 9 T.~.(   /./././././././././././././.",
"/././././././././././././.  c.~.K.. t k H J J K E { { { { { { { { { { { { { ~ Y J J J G d ; W ~.K.  /./././././././././././././.",
"/././././././././././././.O T.~.Q # d H J J J E { { { { { { { { { { { { { { { { Y J J J D r   R.~.w   /././././././././././././.",
"/./././././././././././.  y ~.~.y < D J J J ^ { { { { { { { { { { { { { { { { { ~ L J J H d   n.~.h.  /././././././././././././.",
"/./././././././././././.  W ~.~.> 0 H J J K ! T L J G f d u w q r r d d k G L Y ^ T J J J f X l.~.n.    /./././././././././././.",
"/././././././././././.    j.~.~.> q H u < - 1 4 g j x v b '  . .] ] ] ` x c g s 2 ; - r D k . k.~.L.  -   /././././././././././.",
"/./././././././././.  y   c.~.~.- q - a ] +.%.*.[ %.*.*.*.*.*.*.*.*.*.*.*.@.' *.=.$...v # r . k.~.T.- W i o /./././././././././.",
"/./././././././././.: j.  m.~.~.< -   +.*.*.*.&.$ ] *.*.*.*.*.*.*.*.*.*.*.b % &.*.*.*.*.4 .   c.~.Q.> Q m.  /./././././././././.",
"/././././././././.  k.k.  m.~.~.S   # $.*.*.*.+.  j *.*.*.*.*.*.*.*.*.*.*.j   +.*.*.*.*.g     G.~.Q.: Q ~.< /./././././././././.",
"/././././././././.  K.l.  m.~.~.t.X , =.*.*.*.X.  a *.*.*.*.*.*.*.*.*.*.*.g   X.*.*.*.*.v   > Q.~.Q.9 Q ~.S /./././././././././.",
"/././././././././.  L.v.  c.~.~.Q.2 5 *.*.*.*...  p *.*.*.*.*.*.*.*.*.*.*.g    .*.*.*.*.] O K.~.~.T.- ) R.y /./././././././././.",
"/././././././././.  j.v.O h.~.~.~.# z *.*.*.*.+.  5 *.*.*.*.*.*.*.*.*.*.*.s   o.*.*.*.*.X.  L.~.~.K.  h.v.  /./././././././././.",
"/./././././././././.y m.> I ~.~.Q.  x *.*.*.*.$.X p *.*.*.*.*.*.*.*.*.*.*.p X $.*.*.*.*.O.  H.~.~.n.  k.S /././././././././././.",
"/./././././././././.  ) i w ^.~.R.  x *.*.*.*.*.'  .*.*.*.*.*.*.*.*.*.*.*.| ` =.*.*.*.*.O.  G.~.~.( . i   /././././././././././.",
"/././././././././././.  > . K.~.~.: s *.*.*.*.*.*.*.*.*.*.*.%.@.%.*.*.*.*.*.*.*.*.*.*.*.[ . L.~.Q.-     /./././././././././././.",
"/./././././././././././.    j.~.~.I , &.*.*.*.*.*.$.} z p 2 , % $ 2 5 z ] @.*.*.*.*.*.*.l : Q.~.m.    /././././././././././././.",
"/././././././././././././.  - T.~.m.  b +.&.*.*.O.3 i F I Q ( ) ( Q W F i < o.*.*.&.o.j X Q ~.~.S   /./././././././././././././.",
"/././././././././././././.    j.~.~.j.9   $ a _ 4 ( l.l.l.l.l.l.l.l.l.l.l.Q $ ] g $   > W T.~.L.    /./././././././././././././.",
"/././././././././././././.3 - 9 Q.~.~.~.L.l.I : @ ( l.l.l.l.l.l.l.l.l.l.l.h.  - S ) G.~.~.~.~.Q   : /./././././././././././././.",
"/./././././././././././.  l.k.  Q Q.~.~.~.~.~.Q.e W l.l.l.l.l.l.l.l.l.l.l.) O T.~.~.~.~.~.~.c.  I G.. /././././././././././././.",
"/./././././././././././.> R.~.S . c.R.~.~.~.~.~.y I  .l.l.l.l.l.k.l.l.l.l.I > Q.~.~.~.~.Q.m.: . T.~.F   /./././././././././././.",
"/././././././././././.  I ~.~.L.> > v.K.R.~.~.~.Q e Q 8.8. .h.h.h.h.h.) ( y I ~.~.~.Q.L.G.S   c.~.~.n.  /./././././././././././.",
"/././././././././././.  k.~.~.~.G.- 9 v.H.K.T.R.b.& S W W Q W W W W W W S o x.T.T.L.H.m.P   k.~.~.~.R.9   /././././././././././.",
"/././././././././././.  c.~.~.~.~.c.  w v.H.H.H.M.B o F W W W W W W W S O n N.H.H.H.J.S     H.~.~.~.R.P   /././././././././././.",
"/././././././././././.. n.~.~.~.~.m.. > O k.H.H.J.<.V * - w w w w w - * M >.H.H.H.n.y - ) O n.~.~.~.R.(   /././././././././././.",
"/././././././././././.> m.Q.~.~.~.v.> K.W . P m.H.t.:.:.;.Z V V V Z -.:.:.6.H.J.( . w L.R.> c.~.~.~.R.k.  /././././././././././.",
"/././././././././././.9 m.R.~.~.~.z.: Q.^.c.y : ( z.:.:.:.:.:.:.:.:.:.:.:.8.j.u 9 ) R.~.Q.> l.~.~.~.T.v.  /././././././././././.",
"/././././././././././.> n.T.~.~.~.v.- R.~.~.Q.n.F 9 6 n C -.;.;.;.-.Z N 7 = i j.R.~.~.~.R.> v.~.~.~.L.n.- /././././././././././.",
"/././././././././././.- n.K.~.~.~.v.- T.~.~.~.~.~.R.A 7 & o + & & o o 6 N 5.~.~.~.~.~.~.R.> v.~.~.~.L.n.O /././././././././././.",
"/././././././././././.  l.H.Q.~.~.m.X T.~.~.~.~.~.~.w.9.9.4.1.>.>.3.9.9.9.w.~.~.~.~.~.~.L.. n.~.~.~.K.c.  /././././././././././.",
"/././././././././././.    > y P j.c.O L.~.~.~.~.~.~.r.9.9.9.9.9.9.9.9.9.9.r.~.~.~.~.~.~.T.O m.~.G.h.P y   /././././././././././.",
"/././././././././././.  y c.c.) y >   L.~.~.~.~.~.~.y.9.9.e.B.S.D.A.i.9.9.r.~.~.~.~.~.~.L.. W S 9 i P y   /././././././././././.",
"/./././././././././././.9 G.R.~.~.c.  K.~.~.~.~.~.E.q.9.e.I.~.~.~.~.E.s.9.0.U.~.~.~.~.~.K.  9 c.R.~.K.S   /././././././././././.",
"/./././././././././././.  n.K.~.~.K.  K.~.~.~.~.~.S.9.9.g.~.~.d.a.P.~.P.0.9.V.~.~.~.~.~.K.  j.~.~.Q.H.w /./././././././././././.",
"/./././././././././././.  j.H.T.~.K.  G.~.~.~.~.~.V.9.9.S.~.B.9.9.y.^.!.i.9.d.~.~.~.~.~.G.  v.~.~.L.G.: /./././././././././././.",
"/././././././././././././.i J.H.H.v.  m.~.~.~.~.~.Z.9.9.S.~.B.9.9.u.~.E.u.9.f.~.~.~.~.~.n.  v.T.L.H.v.. /./././././././././././.",
"/././././././././././././.  w y y 9   m.~.~.~.~.~.P.9.9.g.~.~.B.a.I.~.P.0.9.A.~.~.~.~.~.c.  I n.n.c.i /././././././././././././.",
"/./././././././././././././././././.  v.~.~.~.~.~.~.y.9.w.P.~.~.~.~.E.p.9.w.^.~.~.~.~.~.j.    O .   /./././././././././././././.",
"/./././././././././././././././././.  k.~.~.~.~.~.~.V.9.9.q.g.S.D.Z.u.9.9.B.~.~.~.~.~.Q.)   /./././././././././././././././././.",
"/./././././././././././././././././.  ) Q.~.~.~.~.~.A.9.9.9.9.9.9.9.9.9.9.A.~.~.~.~.~.T.(   /./././././././././././././././././.",
"/./././././././././././././././././.  W L.~.~.~.~.~.S.9.9.9.9.9.9.9.9.9.9.D.~.~.~.~.~.H.W   /./././././././././././././././././.",
"/./././././././././././././././././.  P H.L.R.R.T.T.C.1.1.>.>.:.>.>.1.1.1.M.T.T.R.R.K.H.P o /./././././././././././././././././.",
"/./././././././././././././././././.  S H.H.H.H.H.H.M.:.:.:.:.:.:.:.:.:.:.M.H.H.H.H.H.H.S   /./././././././././././././././././.",
"/././././././././././././././././././.y H.H.m.h.) ( ( V V V V V V V V V V ( ( ) ) m.H.H.w /././././././././././././././././././.",
"/././././././././././././././././././.> n.H.W                                     W H.n.> /././././././././././././././././././.",
"/././././././././././././././././././.  j.H.9   /./././././././././././././././.  : H.h.  /././././././././././././././././././.",
"/././././././././././././././././././.  W m.  /./././././././././././././././././.  v.W   /././././././././././././././././././.",
"/././././././././././././././././././.  i j.  /./././././././././././././././././.  h.i   /././././././././././././././././././.",
"/././././././././././././././././././.  - i   /./././././././././././././././././.  w .   /././././././././././././././././././.",
"/././././././././././././././././././././.  /./././././././././././././././././././.  /././././././././././././././././././././.",
"/./././././././././././././././././././././././././././././././././././././././././././././././././././././././././././././././."
};
