/* XPM */
static char *result[] = {
/* columns rows colors chars-per-pixel */
"64 64 171 2 ",
"   c #010101",
".  c #080707",
"X  c #0C0A05",
"o  c #00050B",
"O  c #0C0B0B",
"+  c #070B0E",
"@  c #120E07",
"#  c #110F0E",
"$  c #151109",
"%  c #1A150B",
"&  c #1E180C",
"*  c #020E1B",
"=  c #0D1116",
"-  c #131313",
";  c #191615",
":  c #1E1B17",
">  c #1C1B1B",
",  c #201A0D",
"<  c #211D1B",
"1  c #26221E",
"2  c #282111",
"3  c #332915",
"4  c #3F3219",
"5  c #001122",
"6  c #011A33",
"7  c #001F3E",
"8  c #0B223B",
"9  c #232323",
"0  c #2A2523",
"q  c #2D2825",
"w  c #2B2B2B",
"e  c #342D2A",
"r  c #37302D",
"t  c #38312E",
"y  c #333333",
"u  c #3C3532",
"i  c #3C3C3C",
"p  c #3B3938",
"a  c #43351B",
"s  c #4A3C1E",
"d  c #423A36",
"f  c #453D39",
"g  c #544321",
"h  c #5B4924",
"j  c #594723",
"k  c #4A423D",
"l  c #665129",
"z  c #6A552A",
"x  c #7C6331",
"c  c #002345",
"v  c #002549",
"b  c #002A56",
"n  c #002E5D",
"m  c #193654",
"M  c #273746",
"N  c #003162",
"B  c #00366B",
"V  c #003A74",
"C  c #003E7D",
"Z  c #143D65",
"A  c #184A7D",
"S  c #344E67",
"D  c #434343",
"F  c #4E4541",
"G  c #4C4C4C",
"H  c #534A45",
"J  c #564D48",
"K  c #594F4A",
"L  c #504742",
"P  c #5D524D",
"I  c #545454",
"U  c #5B5B5B",
"Y  c #48535E",
"T  c #605650",
"R  c #665A55",
"E  c #685D57",
"W  c #6B5F59",
"Q  c #6E615B",
"!  c #74665F",
"~  c #666666",
"^  c #6B6B6B",
"/  c #756761",
"(  c #7B6C65",
")  c #7E6F68",
"_  c #737373",
"`  c #7C7C7C",
"'  c #876C36",
"]  c #95773C",
"[  c #84746D",
"{  c #A38241",
"}  c #AC8A45",
"|  c #B28E47",
" . c #BB954B",
".. c #BE994C",
"X. c #B69249",
"o. c #C39C4E",
"O. c #C9A151",
"+. c #D1A754",
"@. c #D5AB55",
"#. c #D9AE57",
"$. c #DFB359",
"%. c #E3B65B",
"&. c #E7B95C",
"*. c #EABB5E",
"=. c #EFBF60",
"-. c #F4C361",
";. c #FFCC66",
":. c #004385",
">. c #004489",
",. c #004A94",
"<. c #004F9F",
"1. c #1E5C9B",
"2. c #0052A4",
"3. c #0055AA",
"4. c #005AB4",
"5. c #005EBC",
"6. c #4677A9",
"7. c #517DAA",
"8. c #0062C4",
"9. c #0066CC",
"0. c #096BCD",
"q. c #1171CF",
"w. c #1573D0",
"e. c #1A76D2",
"r. c #247BD3",
"t. c #2E81D5",
"y. c #3A88D7",
"u. c #4B93DB",
"i. c #5F9FDF",
"p. c #6BA6E1",
"a. c #74ACE3",
"s. c #838383",
"d. c #8C8C8C",
"f. c #858A8E",
"g. c #959595",
"h. c #9A9A9A",
"j. c #8995A1",
"k. c #9DAEBF",
"l. c #8AA2B9",
"z. c #A3A3A3",
"x. c #ACACAC",
"c. c #B4B4B4",
"v. c #BDBDBD",
"b. c #B5BCC4",
"n. c #86B7E7",
"m. c #93BEEA",
"M. c #BAC1C7",
"N. c #B0C4D8",
"B. c #9EC4EC",
"V. c #95C0EA",
"C. c #AACCEE",
"Z. c #BED8F2",
"A. c #BAD5F1",
"S. c #C4C4C4",
"D. c #CCCCCC",
"F. c #C4C7CA",
"G. c #D3D3D3",
"H. c #DCDCDC",
"J. c #C1DAF2",
"K. c #D9E8F7",
"L. c #DBEAF8",
"P. c #E3E3E3",
"I. c #ECECEC",
"U. c #EDF4FC",
"Y. c #E5F0FA",
"T. c #F4F4F4",
"R. c #F4F9FD",
"E. c #FFFFFF",
"W. c #F2F7FC",
"Q. c #E3EEF9",
"!. c None",
/* pixels */
"!.!.!.!.!.!.!.!.!.!.!.!.!.!.!.!.!.!.!.!.!.!.!.!.!.!.!.!.!.!.!.!.!.!.!.!.!.!.!.!.!.!.!.!.!.!.!.!.!.!.!.!.!.!.!.!.!.!.!.!.!.!.!.!.",
"!.!.!.!.!.!.!.!.!.!.!.!.!.!.!.!.!.!.!.!.!.!.!.!.!.!.!.!.!.!.!.!.!.!.!.!.!.!.!.!.!.!.!.!.!.!.!.!.!.!.!.!.!.!.!.!.!.!.!.!.!.!.!.!.",
"!.!.!.!.!.!.!.!.!.!.!.!.!.!.!.!.!.!.!.!.!.!.!.!.!.!.!.!.!.!.!.!.!.!.!.!.!.!.!.  !.!.!.!.!.!.!.!.!.!.!.!.!.!.!.!.!.!.!.!.!.!.!.!.",
"!.!.!.!.!.!.!.!.!.!.!.!.!.!.!.!.!.!.!.!.!.!.!.!.!.!.!.!.!.!.!.!.!.!.!.!.!.!.  ~ 9 !.!.!.!.!.!.!.!.!.!.!.!.!.!.!.!.!.!.!.!.!.!.!.",
"!.!.!.!.!.!.!.!.!.!.!.!.!.!.!.!.!.!.!.!.!.!.!.!.!.!.!.!.!.!.!.!.!.!.!.!.!.!.  c.w !.!.!.!.!.!.!.!.!.!.!.!.!.!.!.!.!.!.!.!.!.!.!.",
"!.!.!.!.!.!.!.!.!.!.!.!.!.!.!.!.!.!.!.!.!.!.!.!.!.!.!.!.!.!.!.!.!.!.!.!.!.!.  G.y !.!.!.!.!.!.!.!.!.!.!.!.!.!.!.!.!.!.!.!.!.!.!.",
"!.!.!.!.!.!.!.!.!.!.!.!.!.!.!.!.!.!.!.!.!.!.!.!.!.!.!.!.!.!.!.!.!.!.!.!.!.!.O P.D !.!.!.!.!.!.!.!.!.!.!.!.!.!.!.!.!.!.!.!.!.!.!.",
"!.!.!.!.!.!.!.!.!.!.!.!.!.!.!.!.!.!.!.!.!.!.!.!.!.!.!.!.!.!.!.!.!.!.!.!.!.!.> T.D !.!.!.!.!.!.!.!.!.!.!.!.!.!.!.!.!.!.!.!.!.!.!.",
"!.!.!.!.!.!.!.!.!.!.!.!.!.!.!.!.!.!.!.!.!.!.!.!.!.!.!.!.!.!.!.!.!.!.!.!.!.!.9 R.k !.!.!.!.!.!.!.!.!.!.!.!.!.!.!.!.!.!.!.!.!.!.!.",
"!.!.!.!.!.!.!.!.!.!.!.!.!.!.!.!.!.!.!.!.!.!.!.!.                            O ` w !.!.!.!.!.!.!.!.!.!.!.!.!.!.!.!.!.!.!.!.!.!.!.",
"!.!.!.!.!.!.!.!.!.!.!.!.!.!.!.!.!.!.!.!.!.    i S :.2.4.8.9.9.9.5.5.2.,.:.V Z I -     !.!.!.!.!.!.!.!.!.!.!.!.!.!.!.!.!.!.!.!.!.",
"!.!.!.!.!.!.!.!.!.!.!.!.!.!.!.!.!.!.    y z.T.E.u.9.9.9.9.9.9.9.9.9.9.9.9.9.q.Y.R.v.U     !.!.!.!.!.!.!.!.!.!.!.!.!.!.!.!.!.!.!.",
"!.!.!.!.!.!.!.!.!.!.!.!.!.!.!.!.!.  w z.I.E.E.R.r.5.2.,.C B b b b N V :.<.4.9.J.E.E.R.c.I . !.!.!.!.!.!.!.!.!.!.!.!.!.!.!.!.!.!.",
"!.!.!.!.!.!.!.!.!.!.!.!.!.!.!.!.; d.I.E.E.E.H.f.6 * X # ; < 1 1 1 1 : - O + 5 Y v.T.E.E.T.c.0 !.!.!.!.!.!.!.!.!.!.!.!.!.!.!.!.!.",
"!.!.!.!.!.!.!.!.!.!.!.!.!.!.!.  z.E.E.E.I.U O - q u d d p d d d d d d d d d e < . 0 x.E.E.E.P.O !.!.!.!.!.!.!.!.!.!.!.!.!.!.!.!.",
"!.!.!.!.!.!.!.!.!.!.!.!.!.!.  9 R.E.E.x.< > t d d f f k k F F F F F k k f f d d d 1 O ^ I.E.E._   !.!.!.!.!.!.!.!.!.!.!.!.!.!.!.",
"!.!.!.!.!.!.!.!.!.!.!.!.!.!.  h.E.E.g.$ r p f k H J J J J J J J J J J J J J J F k d d : 9 H.E.I.  !.!.!.!.!.!.!.!.!.!.!.!.!.!.!.",
"!.!.!.!.!.!.!.!.!.!.!.!.!.  - T.E.S.O t f F J K J K P R E Q Q Q Q Q E E P K J J J L f d > D T.E.I   !.!.!.!.!.!.!.!.!.!.!.!.!.!.",
"!.!.!.!.!.!.!.!.!.!.!.!.!.  s.E.T.9 0 f L J J J P / ) [ [ [ [ [ [ [ [ [ [ ) E K J J J k d # z.E.x.  !.!.!.!.!.!.!.!.!.!.!.!.!.!.",
"!.!.!.!.!.!.!.!.!.!.!.!.!.  D.E.d.O d L J J J E [ [ [ [ [ [ [ [ [ [ [ [ [ [ [ ) P J J H k q ; T.T.-   !.!.!.!.!.!.!.!.!.!.!.!.!.",
"!.!.!.!.!.!.!.!.!.!.!.!.  > T.E.G > f J J J T [ [ [ [ [ [ [ [ [ [ [ [ [ [ [ [ [ / J J J L u . S.E.U   !.!.!.!.!.!.!.!.!.!.!.!.!.",
"!.!.!.!.!.!.!.!.!.!.!.!.  G E.E.9 9 H J J J ) [ [ [ [ ) ( ! Q Q Q Q ( ) [ [ [ [ [ R J J J f   z.E.z.    !.!.!.!.!.!.!.!.!.!.!.!.",
"!.!.!.!.!.!.!.!.!.!.!.    ` E.E.- 0 H J F f t < $ O     X @ & & $ $ $ X     O ; q f k H J k . g.E.G.      !.!.!.!.!.!.!.!.!.!.!.",
"!.!.!.!.!.!.!.!.!.!.!.    g.E.E.- e f ; % a x ] } ..+.#.$.&.=.-.*.*.*.%.@.O.} { ' l 2 $ 0 k O g.E.H.O y   !.!.!.!.!.!.!.!.!.!.!.",
"!.!.!.!.!.!.!.!.!.!.  U   x.E.E.; 9 . ] *.;.;.;.j ..;.;.;.;.;.;.;.;.;.;.;.| s ;.;.;.-.+.& > . g.E.I.; _ _   !.!.!.!.!.!.!.!.!.!.",
"!.!.!.!.!.!.!.!.!.  G g.  v.E.E.w .   +.;.;.;.%.@ z ;.;.;.;.;.;.;.;.;.;.;.l X %.;.;.;.;.a     x.E.T.9 ^ I.  !.!.!.!.!.!.!.!.!.!.",
"!.!.!.!.!.!.!.!.!.  z.g.  v.E.E.I   @ *.;.;.;.O.  j ;.;.;.;.;.;.;.;.;.;.;.g   O.;.;.;.;.h     G.E.T.> ^ E.y !.!.!.!.!.!.!.!.!.!.",
"!.!.!.!.!.!.!.!.!.  H.h.  c.E.E.c.< , ;.;.;.;.}   a ;.;.;.;.;.;.;.;.;.;.;.g   } ;.;.;.;.x O ~ E.E.I.> _ E.G !.!.!.!.!.!.!.!.!.!.",
"!.!.!.!.!.!.!.!.!.  G.x.  z.E.E.E.9 a ;.;.;.;.X.  4 ;.;.;.;.;.;.;.;.;.;.;.g   { ;.;.;.;.] O P.E.E.P.= ` P.9 !.!.!.!.!.!.!.!.!.!.",
"!.!.!.!.!.!.!.!.!.  ` x.- ` E.E.E.  l ;.;.;.;.O.  4 ;.;.;.;.;.;.;.;.;.;.;.a   o.;.;.;.;...  G.E.E.G.* { h.  !.!.!.!.!.!.!.!.!.!.",
"!.!.!.!.!.!.!.!.!.!.9 S.> G E.E.T.  z ;.;.;.;.*.$ a ;.;.;.;.;.;.;.;.;.;.;.s @ *.;.;.;.;.o.  F.E.E.z.o j.w !.!.!.!.!.!.!.!.!.!.!.",
"!.!.!.!.!.!.!.!.!.!.  ^ i w R.E.I.  l ;.;.;.;.;.{ o.;.;.;.;.;.;.;.;.;.;.;. .{ ;.;.;.;.;...  S.E.E.^ . w   !.!.!.!.!.!.!.!.!.!.!.",
"!.!.!.!.!.!.!.!.!.!.!.  ;   G.E.E.9 a ;.;.;.;.;.;.;.;.;.;.*.#.o.@.*.;.;.;.;.;.;.;.;.;.;.] O H.E.T.-     !.!.!.!.!.!.!.!.!.!.!.!.",
"!.!.!.!.!.!.!.!.!.!.!.!.    s.E.E.~ $ =.;.;.;.;.;.#.' 3               3 x @.;.;.;.;.;.;.h 9 T.E.c.    !.!.!.!.!.!.!.!.!.!.!.!.!.",
"!.!.!.!.!.!.!.!.!.!.!.!.!.  ; T.E.v.  x O.-.;.;...9 p G E _ ` s._ ^ ~ G i :  .;.;.-. .h X ^ E.E.I   !.!.!.!.!.!.!.!.!.!.!.!.!.!.",
"!.!.!.!.!.!.!.!.!.!.!.!.  >   d.E.R.` y # & g x 3 _ h.h.h.h.h.h.h.h.h.h.h._ & ' g ,   w U H.E.H.  O   !.!.!.!.!.!.!.!.!.!.!.!.!.",
"!.!.!.!.!.!.!.!.!.!.!.!.  z.; 9 T.E.E.T.D.s.D O O _ g.h.h.h.g.h.h.g.h.h.h.s.    w ^ c.I.E.E.E._   h.> !.!.!.!.!.!.!.!.!.!.!.!.!.",
"!.!.!.!.!.!.!.!.!.!.!.  y E.s.  _ T.E.E.E.E.E.I.w ~ h.h.h.h.h.h.h.h.h.h.h.` O H.E.E.E.E.E.E.x.  I E.d.  !.!.!.!.!.!.!.!.!.!.!.!.",
"!.!.!.!.!.!.!.!.!.!.!.  ` E.E.p O c.T.E.E.E.E.E.w U f.h.g.h.h.h.h.h.h.g.h.U > T.E.E.E.E.R.D.9 . H.E.H.- !.!.!.!.!.!.!.!.!.!.!.!.",
"!.!.!.!.!.!.!.!.!.!.!.  h.E.E.D.O 9 v.H.T.E.E.E.U w _ s.d.d.d.d.d.d.d.s.` y G E.E.E.T.P.G.U   s.E.E.T.D   !.!.!.!.!.!.!.!.!.!.!.",
"!.!.!.!.!.!.!.!.!.!.!.  x.R.E.E.z.  i S.D.H.T.T.z.o G ~ ~ ~ ~ ~ ~ ~ ~ ~ I . j.T.T.P.G.D.`   ~ R.E.E.T.^   !.!.!.!.!.!.!.!.!.!.!.",
"!.!.!.!.!.!.!.!.!.!.!.- c.E.E.E.E.s.  U D.D.D.D.b.8 O U ~ ~ ~ ~ ~ ~ ~ I - 6 k.D.D.D.D._     x.E.E.E.I.d.  !.!.!.!.!.!.!.!.!.!.!.",
"!.!.!.!.!.!.!.!.!.!.!.9 c.T.E.E.E.h.    p M.D.D.D.1.6   w G G G G G w . 5 >.F.D.D.D.^   D - z.E.E.E.I.x.  !.!.!.!.!.!.!.!.!.!.!.",
"!.!.!.!.!.!.!.!.!.!.!.9 v.I.E.E.E.x.; z.w > d.D.D.7.,.:.N v 7 7 7 c n :.,.1.D.D.z.y O z.P.- x.E.E.E.I.v.> !.!.!.!.!.!.!.!.!.!.!.",
"!.!.!.!.!.!.!.!.!.!.!.- c.P.E.E.E.v.O P.H.I O I x.l.,.,.,.,.,.,.,.,.,.,.,.6.v._ > y c.E.P.- x.E.E.E.P.v.9 !.!.!.!.!.!.!.!.!.!.!.",
"!.!.!.!.!.!.!.!.!.!.!.O x.G.R.E.E.v.O H.E.E.v.I - i n :.,.,.,.,.,.,.,.:.B M ; y z.R.E.E.H.O v.E.E.E.H.c.> !.!.!.!.!.!.!.!.!.!.!.",
"!.!.!.!.!.!.!.!.!.!.!.  G [ S.T.E.v.  H.E.E.E.E.G.s.= o 5 6 v v c 7 5 o   m S.T.E.E.E.E.H.O v.E.E.R.D.x.  !.!.!.!.!.!.!.!.!.!.!.",
"!.!.!.!.!.!.!.!.!.!.!.  > i 9 O y ~   G.E.E.E.E.E.W.0.2.A ~ D i D U d.6.8.9.L.E.E.E.E.E.G.  x.P.d.G 9 O   !.!.!.!.!.!.!.!.!.!.!.",
"!.!.!.!.!.!.!.!.!.!.!.!.w D.T.E.x.D   G.E.E.E.E.E.C.9.9.m.E.L.u.t.m.E.K.w.9.n.E.E.E.E.E.D.  > = ^ z.x.~   !.!.!.!.!.!.!.!.!.!.!.",
"!.!.!.!.!.!.!.!.!.!.!.!.; b.I.E.E.D.  v.E.E.E.E.E.n.9.9.Z.E.p.9.9.r.R.W.y.9.p.E.E.E.E.E.v.  y T.E.R.G.J   !.!.!.!.!.!.!.!.!.!.!.",
"!.!.!.!.!.!.!.!.!.!.!.!.  z.G.T.E.H.  v.E.E.E.E.E.C.9.9.B.E.J.r.e.a.E.Q.e.9.m.E.E.E.E.E.x.  s.E.E.T.D.y !.!.!.!.!.!.!.!.!.!.!.!.",
"!.!.!.!.!.!.!.!.!.!.!.!.!.~ D.G.P.D.# x.E.E.E.E.E.W.w.9.t.U.E.W.U.E.E.p.9.0.Q.E.E.E.E.E.g.  h.E.R.G.S.> !.!.!.!.!.!.!.!.!.!.!.!.",
"!.!.!.!.!.!.!.!.!.!.!.!.!.< h.x.x.g.O z.E.E.E.E.E.E.a.9.9.u.K.E.E.U.a.0.9.i.E.E.E.E.E.T.s.  d.G.G.D.z.O !.!.!.!.!.!.!.!.!.!.!.!.",
"!.!.!.!.!.!.!.!.!.!.!.!.!.!.          ` R.E.E.E.E.E.B.9.9.9.9.q.w.9.9.9.9.C.E.E.E.E.E.P._   > ~ ~ I > !.!.!.!.!.!.!.!.!.!.!.!.!.",
"!.!.!.!.!.!.!.!.!.!.!.!.!.!.!.!.!.!.  ~ H.E.E.E.E.E.A.9.9.9.9.9.9.9.9.9.9.A.E.E.E.E.E.D.~   !.!.!.!.!.!.!.!.!.!.!.!.!.!.!.!.!.!.",
"!.!.!.!.!.!.!.!.!.!.!.!.!.!.!.!.!.!.  I D.H.I.I.P.I.N.3.2.2.<.<.2.3.3.3.3.N.P.P.I.I.H.D.I   !.!.!.!.!.!.!.!.!.!.!.!.!.!.!.!.!.!.",
"!.!.!.!.!.!.!.!.!.!.!.!.!.!.!.!.!.!.  i D.D.D.D.D.D.M.,.,.,.,.,.,.,.,.,.,.M.D.D.D.D.D.D.D   !.!.!.!.!.!.!.!.!.!.!.!.!.!.!.!.!.!.",
"!.!.!.!.!.!.!.!.!.!.!.!.!.!.!.!.!.!.!.w D.D.c.U G i i 7 7 7 7 7 c 7 7 7 7 i i G I x.D.D.w !.!.!.!.!.!.!.!.!.!.!.!.!.!.!.!.!.!.!.",
"!.!.!.!.!.!.!.!.!.!.!.!.!.!.!.!.!.!.!.O z.D.D   !.!.!.!.!.!.!.!.!.!.!.!.!.!.!.!.  D D.z.O !.!.!.!.!.!.!.!.!.!.!.!.!.!.!.!.!.!.!.",
"!.!.!.!.!.!.!.!.!.!.!.!.!.!.!.!.!.!.!.  _ D.O   !.!.!.!.!.!.!.!.!.!.!.!.!.!.!.!.    S._   !.!.!.!.!.!.!.!.!.!.!.!.!.!.!.!.!.!.!.",
"!.!.!.!.!.!.!.!.!.!.!.!.!.!.!.!.!.!.!.  G z.  !.!.!.!.!.!.!.!.!.!.!.!.!.!.!.!.!.!.  g.D   !.!.!.!.!.!.!.!.!.!.!.!.!.!.!.!.!.!.!.",
"!.!.!.!.!.!.!.!.!.!.!.!.!.!.!.!.!.!.!.  ; G   !.!.!.!.!.!.!.!.!.!.!.!.!.!.!.!.!.!.  i ;   !.!.!.!.!.!.!.!.!.!.!.!.!.!.!.!.!.!.!.",
"!.!.!.!.!.!.!.!.!.!.!.!.!.!.!.!.!.!.!.!.    !.!.!.!.!.!.!.!.!.!.!.!.!.!.!.!.!.!.!.!.    !.!.!.!.!.!.!.!.!.!.!.!.!.!.!.!.!.!.!.!.",
"!.!.!.!.!.!.!.!.!.!.!.!.!.!.!.!.!.!.!.!.!.!.!.!.!.!.!.!.!.!.!.!.!.!.!.!.!.!.!.!.!.!.!.!.!.!.!.!.!.!.!.!.!.!.!.!.!.!.!.!.!.!.!.!."
};
