/* XPM */
static char *result[] = {
/* columns rows colors chars-per-pixel */
"64 64 107 2 ",
"   c #010101",
".  c #080707",
"X  c #090807",
"o  c #01060B",
"O  c #00080F",
"+  c #0B0B0B",
"@  c #100F0E",
"#  c #12100F",
"$  c #010A14",
"%  c #0B0D11",
"&  c #030D18",
"*  c #141413",
"=  c #1A1715",
"-  c #1C1917",
";  c #1D1C1C",
":  c #221E1C",
">  c #25211F",
",  c #001225",
"<  c #001429",
"1  c #001933",
"2  c #001D3A",
"3  c #242424",
"4  c #2A2523",
"5  c #2F2926",
"6  c #2B2B2B",
"7  c #342E2B",
"8  c #37312D",
"9  c #39322F",
"0  c #333333",
"q  c #3B3430",
"w  c #3B3B3B",
"e  c #002850",
"r  c #273441",
"t  c #003263",
"y  c #00366B",
"u  c #003F7F",
"i  c #3A434C",
"p  c #444444",
"a  c #4B4B4B",
"s  c #545454",
"d  c #5B5B5B",
"f  c #646464",
"g  c #6B6B6B",
"h  c #737373",
"j  c #767778",
"k  c #7B7B7B",
"l  c #034486",
"z  c #00468A",
"x  c #004A94",
"c  c #004E9C",
"v  c #0A5097",
"b  c #0C539B",
"n  c #115395",
"m  c #115599",
"M  c #195A9B",
"N  c #0051A3",
"B  c #0056AB",
"V  c #0059B3",
"C  c #005FBC",
"Z  c #0060BF",
"A  c #2D66A0",
"S  c #0063C6",
"D  c #0066CC",
"F  c #0368CD",
"G  c #106FCE",
"H  c #1774D1",
"J  c #1B76D1",
"K  c #1E78D2",
"L  c #247CD3",
"P  c #3687D7",
"I  c #438ED9",
"U  c #4790DA",
"Y  c #5197DC",
"T  c #6CA7E1",
"R  c #70A9E2",
"E  c #838383",
"W  c #8D8D8D",
"Q  c #939393",
"!  c #9C9C9C",
"~  c #92A7BC",
"^  c #94A9BD",
"/  c #A3A3A3",
"(  c #ACACAC",
")  c #B3B3B3",
"_  c #BBBBBB",
"`  c #A1B1C0",
"'  c #B3BCC5",
"]  c #94BFE9",
"[  c #BDC3C8",
"{  c #B4C5D6",
"}  c #A1C6EC",
"|  c #C3C3C3",
" . c #C3C6CA",
".. c #CCCCCC",
"X. c #D4D4D4",
"o. c #DBDBDB",
"O. c #CCE0F5",
"+. c #D6E6F7",
"@. c #E4E4E4",
"#. c #E2E8EE",
"$. c #EBEBEB",
"%. c #E4EFFA",
"&. c #EFF5FC",
"*. c #F4F4F4",
"=. c #F2F7FC",
"-. c #FFFFFF",
";. c None",
/* pixels */
";.;.;.;.;.;.;.;.;.;.;.;.;.;.;.;.;.;.;.;.;.;.;.;.;.;.;.;.;.;.;.;.;.;.;.;.;.;.;.;.;.;.;.;.;.;.;.;.;.;.;.;.;.;.;.;.;.;.;.;.;.;.;.;.",
";.;.;.;.;.;.;.;.;.;.;.;.;.;.;.;.;.;.;.;.;.;.;.;.;.;.;.;.;.;.;.;.;.;.;.;.;.;.;.;.;.;.;.;.;.;.;.;.;.;.;.;.;.;.;.;.;.;.;.;.;.;.;.;.",
";.;.;.;.;.;.;.;.;.;.;.;.;.;.;.;.;.;.;.;.;.;.;.;.;.;.;.;.;.;.;.;.;.;.;.;.;.;.;.;.;.;.;.;.;.;.;.;.;.;.;.;.;.;.;.;.;.;.;.;.;.;.;.;.",
";.;.;.;.;.;.;.;.;.;.;.;.;.;.;.;.;.;.;.;.;.;.;.;.;.;.  . X + @ = * * @ + X .     ;.;.;.;.;.;.;.;.;.;.;.;.;.;.;.;.;.;.;.;.;.;.;.;.",
";.;.;.;.;.;.;.;.;.;.;.;.;.;.;.;.;.;.;.;.;.;.    @ - 4 7 8 q 9 8 7 7 7 7 8 7 5 > * X   ;.;.;.;.;.;.;.;.;.;.;.;.;.;.;.;.;.;.;.;.;.",
";.;.;.;.;.;.;.;.;.;.;.;.;.;.;.;.;.;.;.;.;.X : 7 8 4 - * % & & $ & $ O O o + @ - > 7 : X ;.;.;.;.;.;.;.;.;.;.;.;.;.;.;.;.;.;.;.;.",
";.;.;.;.;.;.;.;.;.;.;.;.;.;.;.;.;.;.;.  # 7 4 * ; i t z N V C Z Z C V B N c l j p * * : X ;.;.;.;.;.;.;.;.;.;.;.;.;.;.;.;.;.;.;.",
";.;.;.;.;.;.;.;.;.;.;.;.;.;.;.;.;.;.;.  - + a ) *.} D D F D D D D D D D D D D O.-.@.W 6     ;.;.;.;.;.;.;.;.;.;.;.;.;.;.;.;.;.;.",
";.;.;.;.;.;.;.;.;.;.;.;.;.;.;.;.;.;.;.. s X.-.-.-.R D D D D D D D D D D D D D ] -.-.-.*.! = ;.;.;.;.;.;.;.;.;.;.;.;.;.;.;.;.;.;.",
";.;.;.;.;.;.;.;.;.;.;.;.;.;.;.;.;.;.+ ! =.-.-.-.-.I D D D D D D D D D D D D D T -.-.-.-.-.o.6 ;.;.;.;.;.;.;.;.;.;.;.;.;.;.;.;.;.",
";.;.;.;.;.;.;.;.;.;.;.;.;.;.;.;.;.. / -.-.-.-.-.-.L D D D D D D D D D D D D D Y -.-.-.-.-.-.X.* ;.;.;.;.;.;.;.;.;.;.;.;.;.;.;.;.",
";.;.;.;.;.;.;.;.;.;.;.;.;.;.;.;.  d -.-.-.-.-.-.-.J D D D D D D D D D D D D D U -.-.-.-.-.-.-.Q   ;.;.;.;.;.;.;.;.;.;.;.;.;.;.;.",
";.;.;.;.;.;.;.;.;.;.;.;.;.;.;.;.X X.-.-.-.-.-.-.-.J D D D D D D D D D D D D D P -.-.-.-.-.-.-.$.* ;.;.;.;.;.;.;.;.;.;.;.;.;.;.;.",
";.;.;.;.;.;.;.;.;.;.;.;.;.;.;.  0 =.-.-.-.-.-.-.-.D D D D D D D D D D D D D D L -.-.-.-.-.-.-.-.d   ;.;.;.;.;.;.;.;.;.;.;.;.;.;.",
";.;.;.;.;.;.;.;.;.;.;.;.;.;.;.  W -.-.-.-.-.-.-.-.D D D D D D D D D D D D D D K =.-.-.-.-.-.-.-.)   ;.;.;.;.;.;.;.;.;.;.;.;.;.;.",
";.;.;.;.;.;.;.;.;.;.;.;.;.;.;.  ..-.-.-.-.-.-.-.-.D D D D D D D D D D D D D D H %.-.-.-.-.-.-.-.@.+   ;.;.;.;.;.;.;.;.;.;.;.;.;.",
";.;.;.;.;.;.;.;.;.;.;.;.;.;.  + $.-.-.-.-.-.-.-.&.D D S C V B B N B B B V Z S G +.-.-.-.-.-.-.-.=.3   ;.;.;.;.;.;.;.;.;.;.;.;.;.",
";.;.;.;.;.;.;.;.;.;.;.;.;.  + 3 =.-.-.-.-.-.-.-.#.N c x x x x x x x x x x x x b { *.-.-.-.-.-.-.-.p . + ;.;.;.;.;.;.;.;.;.;.;.;.",
";.;.;.;.;.;.;.;.;.;.;.;.  p 6 0 -.-.-.-.-.-.=.@. .x x x x x x x x x x x x x x x ^ X.$.-.-.-.-.-.-.d + h   ;.;.;.;.;.;.;.;.;.;.;.",
";.;.;.;.;.;.;.;.;.;.;.;.* X.3 a -.-.-.-.-.*.X...[ x x x x x x x x x x x x x x x ~ ....@.=.-.-.-.-.j + X.; ;.;.;.;.;.;.;.;.;.;.;.",
";.;.;.;.;.;.;.;.;.;.;.;.d -.3 d -.-.-.-.*.X.....[ x x x x x x x x x x x x x x x ~ ......o.-.-.-.-.W + @.a ;.;.;.;.;.;.;.;.;.;.;.",
";.;.;.;.;.;.;.;.;.;.;.  ( -.w p -.-.-.-.X...E s ) x x x x x x x x x x x x x x x ~ ........@.-.-.-.k * o.p ;.;.;.;.;.;.;.;.;.;.;.",
";.;.;.;.;.;.;.;.;.;.;.;.( -.s 0 -.-.-.o.....w a j x x x x x x x x x x x x x x x ~ ..........*.-.-.f = _ - ;.;.;.;.;.;.;.;.;.;.;.",
";.;.;.;.;.;.;.;.;.;.;.;.s X.g - *.-.*.....) 8 | a v x x x x x x x x x x x x x v ^ ..........X.-.-.p 6 f   ;.;.;.;.;.;.;.;.;.;.;.",
";.;.;.;.;.;.;.;.;.;.;.;.+ ) W   X.-.o.....! 6 @.0 m x x x x x x x x x x x x x v ` ............*.*.; 3 . ;.;.;.;.;.;.;.;.;.;.;.;.",
";.;.;.;.;.;.;.;.;.;.;.;.;.3 ! . ! *......./ ; $.p y x x x x x x x x x x x x x x ` ............o.X.    ;.;.;.;.;.;.;.;.;.;.;.;.;.",
";.;.;.;.;.;.;.;.;.;.;.;.;.  - + 0 @.......) 3 @.g e x x x x x x x x x x x x x v ) ..............E   ;.;.;.;.;.;.;.;.;.;.;.;.;.;.",
";.;.;.;.;.;.;.;.;.;.;.;.;.;.;.    ) ........- X.W 2 x x x x x x x x x x x x x m ' ............[ ;   ;.;.;.;.;.;.;.;.;.;.;.;.;.;.",
";.;.;.;.;.;.;.;.;.;.;.;.;.;.;.;.  s ........5 _ ( , x x x x x x x x x x x x x M  .............W   ;.;.;.;.;.;.;.;.;.;.;.;.;.;.;.",
";.;.;.;.;.;.;.;.;.;.;.;.;.;.;.;.  . ( ......w / ..$ x x x x x x x x x l u u l A ............ .3   ;.;.;.;.;.;.;.;.;.;.;.;.;.;.;.",
";.;.;.;.;.;.;.;.;.;.;.;.;.;.;.;.;.  w  .....a W $.  x x x x x x x t $ = p a * r _ ..........g   ;.;.;.;.;.;.;.;.;.;.;.;.;.;.;.;.",
";.;.;.;.;.;.;.;.;.;.;.;.;.;.;.;.;.;.  h ....f j -.= y y y x x x t . Q *.-.-.*.0 p ......../ .   ;.;.;.;.;.;.;.;.;.;.;.;.;.;.;.;.",
";.;.;.;.;.;.;.;.;.;.;.;.;.;.;.;.;.;.;.. d p > f -.a 3 g ; 1 1 < o ) $.Q h h h E . s ( ..( *   ;.;.;.;.;.;.;.;.;.;.;.;.;.;.;.;.;.",
";.;.;.;.;.;.;.;.;.;.;.;.;.;.;.;.;.;.;.  3 ! h a $.f W -.E d X._ = Q + p / ) Q - * p * j ;   ;.;.;.;.;.;.;.;.;.;.;.;.;.;.;.;.;.;.",
";.;.;.;.;.;.;.;.;.;.;.;.;.;.;.;.;.;.;.  a -.X.w  .k h -.) p -.$.+ X _ -.-.-.-.( + _ w     ;.;.;.;.;.;.;.;.;.;.;.;.;.;.;.;.;.;.;.",
";.;.;.;.;.;.;.;.;.;.;.;.;.;.;.;.        a -.*.0 p 3 d -.$.6 -.-.p k -.-.( ! -.*.p / Q         ;.;.;.;.;.;.;.;.;.;.;.;.;.;.;.;.;.",
";.;.;.;.;.;.;.;.;.;.;.;.;.;.;.  w k * d 0 @.-.( k ! $.=.@.# -.-.6 ..-.Q d w Q *.d ..)   E ! w   ;.;.;.;.;.;.;.;.;.;.;.;.;.;.;.;.",
";.;.;.;.;.;.;.;.;.;.;.;.;.  = j ..h 6 o.4 ( o...k h o.X.Q 0 -.-.f Q @.0 @._ w p f *.d 4 g -.@.W 6   ;.;.;.;.;.;.;.;.;.;.;.;.;.;.",
";.;.;.;.;.;.;.;.;.;.;.;.  6 ( o.=.s d -.k p W | / ( _ j 6 | -.-.*.W f / -.-.@...@.W j ! a -.-.$.| f + ;.;.;.;.;.;.;.;.;.;.;.;.;.",
";.;.;.;.;.;.;.;.;.;.;.  : ) X.=.-.p w *.-./ p p s a 8 g o.-.-.-.-.-.-.-.-.-.$.Q d ! =.| w -.-.-.$...W + ;.;.;.;.;.;.;.;.;.;.;.;.",
";.;.;.;.;.;.;.;.;.;.;.  d ..$.-.-.a + k $.-.-.@... .$.-.-.-.-.-.-.-.-.-.=.X.! ) $.-.-. .3 -.-.-.-.@...j   ;.;.;.;.;.;.;.;.;.;.;.",
";.;.;.;.;.;.;.;.;.;.+ h - _ -.-.-.d h h p f ( X.$.-.-.-.-.-.-.-.-.*.-.-.-.-.-.-.-.-.-. .3 -.-.-.-.-.X.p w . ;.;.;.;.;.;.;.;.;.;.",
";.;.;.;.;.;.;.;.;.. j X.W a -.-.-.k d -.*. ./ ( ) $.-.-.-.| @.d @.3 -.-.-.-.-.-.-.-.-.X.; $.-.-.-.-.) 6 | g   ;.;.;.;.;.;.;.;.;.",
";.;.;.;.;.;.;.;.;.d ..$.*.3 X.-.( ; w -.-.-.-.-.-.-.-.-.-.g ) 4 X.+ *.-.-.-.-.-.-.-.-.o.  = W $.-.-.w ( @...s ;.;.;.;.;.;.;.;.;.",
";.;.;.;.;.;.;.;.- _ X.-.-.E f p   ;.= *.-.-.-.-.-.-.-.-.-.W E p ) 3 X.-.-.-.-.-.-.-.-.o.      ; ! o.- $.-.o. .6 ;.;.;.;.;.;.;.;.",
";.;.;.;.;.;.;.;.= ) X.-.-.k   ;.;.;.  ..-.-.-.-.-.-.-.-.-.( d g Q p _ -.-.-.-.-.-.-.-.o.  ;.;.;.  ; p -.-.$...p ;.;.;.;.;.;.;.;.",
";.;.;.;.;.;.;.;.;.w ..$./ . ;.;.;.;.  Q -.-.-.-.-.-.-.-.-. .w ! f h ( -.-.-.-.-.-.-.-.o.  ;.;.;.;.;.+ | -.o.! * ;.;.;.;.;.;.;.;.",
";.;.;.;.;.;.;.;.;.;.a f . ;.;.;.;.;.;.d -.-.-.-.-.-.-.-.-.*.) $.@.*.=.-.-.-.-.-.-.-.-.o.  ;.;.;.;.;.;.+ W ) 6 ;.;.;.;.;.;.;.;.;.",
";.;.;.;.;.;.;.;.;.;.;.;.;.;.;.;.;.;.  ; $.-.-.-.-.-.-.-.-.-.-.-.-.-.-.-.-.-.-.-.-.-.-.o.  ;.;.;.;.;.;.;.  * ;.;.;.;.;.;.;.;.;.;.",
";.;.;.;.;.;.;.;.;.;.;.;.;.;.;.;.;.  d 3 | -.-.-.-.-.-.-.-.$.o.X.@.-.-.-.-.-.-.-.-.-.-.o.  ;.;.;.;.;.;.;.;.;.;.;.;.;.;.;.;.;.;.;.",
";.;.;.;.;.;.;.;.;.;.;.;.;.;.;.;.;.+ o.f E -.-.-.-.=.-.-.-.@.......-.-.-.-.-.-.-.-.-.-.o.  ;.;.;.;.;.;.;.;.;.;.;.;.;.;.;.;.;.;.;.",
";.;.;.;.;.;.;.;.;.;.;.;.;.;.;.;.;.= $./ a =.-.o...X.o.-.-.$.......=.-.-.*.*.$.@.@.$.-.X.  ;.;.;.;.;.;.;.;.;.;.;.;.;.;.;.;.;.;.;.",
";.;.;.;.;.;.;.;.;.;.;.;.;.;.;.;.;.X o.o.3 o.-.o.......-.-.*.......*.-.$...........@.-...  ;.;.;.;.;.;.;.;.;.;.;.;.;.;.;.;.;.;.;.",
";.;.;.;.;.;.;.;.;.;.;.;.;.;.;.;.;.  / -.i ( -.@.......*.-.*.......*.-.@...........@.-.)   ;.;.;.;.;.;.;.;.;.;.;.;.;.;.;.;.;.;.;.",
";.;.;.;.;.;.;.;.;.;.;.;.;.;.;.;.;.;.w *.E f -.$.......$.-.=.......*.-.@...........@.-.(   ;.;.;.;.;.;.;.;.;.;.;.;.;.;.;.;.;.;.;.",
";.;.;.;.;.;.;.;.;.;.;.;.;.;.;.;.;.;.  Q | > $.*.......o.-.-.*.$.$.-.-.$...........@.-.Q   ;.;.;.;.;.;.;.;.;.;.;.;.;.;.;.;.;.;.;.",
";.;.;.;.;.;.;.;.;.;.;.;.;.;.;.;.;.;.;.* ! 6 ) -.X.....X.-.-.-.-.-.-.-.*...........@.-.h ;.;.;.;.;.;.;.;.;.;.;.;.;.;.;.;.;.;.;.;.",
";.;.;.;.;.;.;.;.;.;.;.;.;.;.;.;.;.;.;.;.  * f -.@.......$.-.-.-.-.-.*.X...........@.-.p ;.;.;.;.;.;.;.;.;.;.;.;.;.;.;.;.;.;.;.;.",
";.;.;.;.;.;.;.;.;.;.;.;.;.;.;.;.;.;.;.;.;.  = @.=.......X.@.$.@.@.X...............$.@.3 ;.;.;.;.;.;.;.;.;.;.;.;.;.;.;.;.;.;.;.;.",
";.;.;.;.;.;.;.;.;.;.;.;.;.;.;.;.;.;.;.;.;.;.  W -.o........................... ./ h =   ;.;.;.;.;.;.;.;.;.;.;.;.;.;.;.;.;.;.;.;.",
";.;.;.;.;.;.;.;.;.;.;.;.;.;.;.;.;.;.;.;.;.;.;.6 $.$.....................) W f 3     ;.;.;.;.;.;.;.;.;.;.;.;.;.;.;.;.;.;.;.;.;.;.",
";.;.;.;.;.;.;.;.;.;.;.;.;.;.;.;.;.;.;.;.;.;.;.  s E E E E E E E j h d 3     .     ;.;.;.;.;.;.;.;.;.;.;.;.;.;.;.;.;.;.;.;.;.;.;.",
";.;.;.;.;.;.;.;.;.;.;.;.;.;.;.;.;.;.;.;.;.;.;.;.;.                    ;.;.    ;.;.;.;.;.;.;.;.;.;.;.;.;.;.;.;.;.;.;.;.;.;.;.;.;.",
";.;.;.;.;.;.;.;.;.;.;.;.;.;.;.;.;.;.;.;.;.;.;.;.;.;.;.;.;.;.;.;.;.;.;.;.;.;.;.;.;.;.;.;.;.;.;.;.;.;.;.;.;.;.;.;.;.;.;.;.;.;.;.;."
};
