/* XPM */
static char *result[] = {
/* columns rows colors chars-per-pixel */
"64 64 186 2 ",
"   c #010101",
".  c #0C0A06",
"X  c #00050A",
"o  c #0C0B0B",
"O  c #090704",
"+  c #100E0B",
"@  c #120E07",
"#  c #14110A",
"$  c #1B160B",
"%  c #000912",
"&  c #000F1D",
"*  c #0D1014",
"=  c #09121C",
"-  c #131313",
";  c #1A1615",
":  c #1C1817",
">  c #1C1B1B",
",  c #241D0E",
"<  c #221E1C",
"1  c #231D12",
"2  c #2C2311",
"3  c #26221F",
"4  c #392E17",
"5  c #332915",
"6  c #3E3219",
"7  c #011122",
"8  c #00152A",
"9  c #0E1C2B",
"0  c #001A34",
"q  c #001E3B",
"w  c #151D24",
"e  c #17222F",
"r  c #132639",
"t  c #242323",
"y  c #2B2522",
"u  c #2F2926",
"i  c #2D2D2D",
"p  c #332D29",
"a  c #202831",
"s  c #2D3032",
"d  c #333333",
"f  c #3D3532",
"g  c #3C3C3C",
"h  c #3E3835",
"j  c #37312E",
"k  c #403319",
"l  c #4C3D1E",
"z  c #45381C",
"x  c #413A36",
"c  c #453D39",
"v  c #544422",
"b  c #5D4B25",
"n  c #4B423E",
"m  c #6A552A",
"M  c #645028",
"N  c #796130",
"B  c #002143",
"V  c #01264C",
"C  c #002E5C",
"Z  c #002A54",
"A  c #1A3046",
"S  c #01386F",
"D  c #003163",
"F  c #003A75",
"G  c #003D7B",
"H  c #27496B",
"J  c #434343",
"K  c #4E4641",
"L  c #4C4C4C",
"P  c #454749",
"I  c #534A46",
"U  c #564D48",
"Y  c #584E49",
"T  c #5C524D",
"R  c #535353",
"E  c #5C5C5C",
"W  c #58585A",
"Q  c #655A54",
"!  c #665B55",
"~  c #6F615C",
"^  c #71645E",
"/  c #4C5D6D",
"(  c #646464",
")  c #6C6C6C",
"_  c #7E6F68",
"`  c #7A6B65",
"'  c #7F7069",
"]  c #737373",
"[  c #7B7B7B",
"{  c #94763B",
"}  c #8A6E37",
"|  c #9F7F40",
" . c #84746D",
".. c #A88643",
"X. c #B69149",
"o. c #CCA352",
"O. c #D8AC56",
"+. c #E3B55B",
"@. c #EBBC5E",
"#. c #E6B85C",
"$. c #F4C362",
"%. c #FFCC66",
"&. c #F8C663",
"*. c #004080",
"=. c #00458B",
"-. c #004A94",
";. c #004D99",
":. c #15589A",
">. c #0B5197",
",. c #235C95",
"<. c #24619E",
"1. c #0053A6",
"2. c #005AB4",
"3. c #005EBB",
"4. c #1762AE",
"5. c #0060BF",
"6. c #0963BD",
"7. c #1B69B8",
"8. c #3169A1",
"9. c #4877A6",
"0. c #527EAA",
"q. c #0062C3",
"w. c #0066CC",
"e. c #066ACD",
"r. c #0A6CCE",
"t. c #106ECB",
"y. c #1271CF",
"u. c #1C77D1",
"i. c #247CD3",
"p. c #2A7FD4",
"a. c #6D89A5",
"s. c #3D8AD8",
"d. c #3486D7",
"f. c #2E81D5",
"g. c #408DD9",
"h. c #5C9DDE",
"j. c #4B93DB",
"k. c #64A2DF",
"l. c #76ABDF",
"z. c #65A3E0",
"x. c #6EA8E2",
"c. c #79AFE4",
"v. c #7CB0E5",
"b. c #838383",
"n. c #8B8B8B",
"m. c #888D93",
"M. c #939393",
"N. c #9A9A9A",
"B. c #9BADBF",
"V. c #A2A2A2",
"C. c #ABABAB",
"Z. c #B4B4B4",
"A. c #BCBCBC",
"S. c #B4B8BB",
"D. c #AEB3B8",
"F. c #90A9C2",
"G. c #A3B2C1",
"H. c #B1BBC5",
"J. c #8DBAE8",
"K. c #88B8E7",
"L. c #91BDE9",
"P. c #B9C2CB",
"I. c #A5C1DC",
"U. c #9CC4EB",
"Y. c #A6C9ED",
"T. c #B1D0EF",
"R. c #B9D5F1",
"E. c #B4D2F0",
"W. c #C4C4C4",
"Q. c #CCCCCC",
"!. c #D3D3D3",
"~. c #DBDBDB",
"^. c #C3CBD3",
"/. c #C5D4E3",
"(. c #C4DCF4",
"). c #CCE1F5",
"_. c #D8E7F6",
"`. c #E4E4E4",
"'. c #EBEBEB",
"]. c #E3EDF6",
"[. c #EAF3FB",
"{. c #F4F4F4",
"}. c #F5F9FD",
"|. c #FFFFFF",
" X c #F0F6FC",
".X c None",
/* pixels */
".X.X.X.X.X.X.X.X.X.X.X.X.X.X.X.X.X.X.X.X.X.X.X.X.X.X.X.X.X.X.X.X.X.X.X.X.X.X.X.X.X.X.X.X.X.X.X.X.X.X.X.X.X.X.X.X.X.X.X.X.X.X.X.X",
".X.X.X.X.X.X.X.X.X.X.X.X.X.X.X.X.X.X.X.X.X.X.X.X.X.X.X.X.X.X.X.X.X.X.X.X.X.X.X.X.X.X.X.X.X.X.X.X.X.X.X.X.X.X.X.X.X.X.X.X.X.X.X.X",
".X.X.X.X.X.X.X.X.X.X.X.X.X.X.X.X.X.X.X.X.X.X.X.X.X.X.X.X.X.X.X.X.X.X.X.X.X.X.X.X.X.X.X.X.X.X.X.X.X.X.X.X.X.X.X.X.X.X.X.X.X.X.X.X",
".X.X.X.X.X.X.X.X.X.X.X.X.X.X.X.X.X.X.X.X.X.X.X.X.X.X.X.X.X.X.X.X.X.X.X.X.X.X.X.X.X.X.X.X.X.X.X.X.X.X.X.X.X.X.X.X.X.X.X.X.X.X.X.X",
".X.X.X.X.X.X.X.X.X.X.X.X.X.X.X.X.X.X.X.X.X.X.X.X.X.X.X.X.X.X.X.X.X.X.X.X.X                .X.X.X.X.X.X.X.X.X.X.X.X.X.X.X.X.X.X.X",
".X.X.X.X.X.X.X.X.X.X.X.X.X.X.X.X.X.X.X.X.X.X.X.X.X.X.X.X.X.X              % & 8 0 0 0 8 7 & X     .X.X.X.X.X.X.X.X.X.X.X.X.X.X.X",
".X.X.X.X.X.X.X.X.X.X.X.X.X.X.X.X.X.X.X.X.X.X.X.X.X.X.X      o t R [ V.S.4.2.3.q.q.q.q.3.3.3.1.*.B *   .X.X.X.X.X.X.X.X.X.X.X.X.X",
".X.X.X.X.X.X.X.X.X.X.X.X.X.X.X.X.X.X.X.X.X.X.X.X.X    X ! S.`.}.|.|.|.|.J.w.w.w.w.w.w.w.w.w.w.w.w.I.] o   .X.X.X.X.X.X.X.X.X.X.X",
".X.X.X.X.X.X.X.X.X.X.X.X.X.X.X.X.X.X.X.X.X.X.X.X  t M.'.|.|.|.|.|.|.|.|.}.y.q.1.=.F F G G =.-.1.2.J.|.`.) X .X.X.X.X.X.X.X.X.X.X",
".X.X.X.X.X.X.X.X.X.X.X.X.X.X.X.X.X.X.X.X.X.X    E ~.|.|.|.|.|.|.|.|.|.~.n.r & * - ; : : : - - * = a ] S.'.V.: .X.X.X.X.X.X.X.X.X",
".X.X.X.X.X.X.X.X.X.X    .X.X.X.X.X.X.X.X.X  O N.|.|.|.|.|.|.|.|.|.Q.J o < f n I U U U U U U U I K n j - 3 [ )   .X.X.X.X.X.X.X.X",
".X.X.X.X.X.X.X.X.X.XR J .X.X.X.X.X.X.X.X.XX V.|.|.|.|.|.|.|.|.|.[ o ; h U U U U U U U U U U U U U I U U n < -   .X.X.X.X.X.X.X.X",
".X.X.X.X.X.X.X.X.X.X[ N.  .X.X.X.X.X.X.X  [ |.|.|.|.|.|.|.|.|.( O u x I U U I U T T T Q Q Q ! T T I I U U U u X   .X.X.X.X.X.X.X",
".X.X.X.X.X.X.X.X.X.X) !.  .X.X.X.X.X.X  i !.|.|.|.|.|.|.|.|.V.  p x n U U U T ^ _ '  . . . . . . .` T U U U c y   .X.X.X.X.X.X.X",
".X.X.X.X.X.X.X.X.X.XR |.o .X.X.X.X.X.Xo C.~.|.|.|.|.|.|.|.`.t ; h x K U U Q _  . . . . . . . . . . . .! U U K f .   .X.X.X.X.X.X",
".X.X.X.X.X.X.X.X.X.Xg |.J   .X.X.X.X  L Q.~.|.|.|.|.|.|.|.N.  y x x K U Y '  . . . . . . . . . . . . . .! U I c :   .X.X.X.X.X.X",
".X.X.X.X.X.X.X.X.X.Xt }.b.  .X.X.X.X  M.Z.E M.{.|.|.|.|.|.b.. y x x n I Y ! T U K c x x n n K Y T T ! ^ ` I I n y O .X.X.X.X.X.X",
".X.X.X.X.X.X.X.X.X.X> ~.A.  .X.X.X.Xt Z.J g > [ |.|.|.|.|.[ . 3 x x h ; . 4 M m m m m b v v k k 5 , O   + > x c u . .X.X.X.X.X.X",
".X.X.X.X.X.X.X.X.X.Xo A.`.- .X.X.X.XL C.e Q.A.: W.|.|.|.|.M.O < f p O } $.%.%.%.%.%.%.%.%.%.%.%.%.%.%.@...  < h t o   .X.X.X.X.X",
".X.X.X.X.X.X.X.X.X.X  V.|.t .X.X.X  ] ] [ !.Q.[ ( |.|.|.|.N.X 3 : # X.%.%.%.%.%.%.%.%.%.%.%.%.%.%.%.%.%.#.  : p ;     .X.X.X.X.X",
".X.X.X.X.X.X.X.X.X.X  n.|.P .X.X.X  b.R Q.{.!.W.t |.|.|.|.C.  ; X k %.%.%.%.%.%.O.o.%.%.%.%.%.%.%.%.%.%.%.  ; < X     .X.X.X.X.X",
".X.X.X.X.X.X.X.X.X.X  g W :   O - O N.J ~.|.{.Q.d ~.|.|.|.Q.  t [ l %.%.%.%.%.%.v l %.%.%.%.%.%.%.#...%.%.# # - n.>   .X.X.X.X.X",
".X.X.X.X.X.X.X.X.X  # g ) N.Z.!.`.L N.J `.|.{.Q.J A.|.|.|.{.] ~...v %.%.%.%.%.%., , &.%.%.%.%.%.%.N 4 &.%., t C.'.3   .X.X.X.X.X",
".X.X.X.X.X.X.X  - ] Q.|.|.|.|.|.|.] M.f ~.|.{.Q.J A.|.|.|.|.|.|.0.v %.%.%.%.%.%.@ # @.%.%.%.%.%.%.b $ @.%.2 ] |.`.>   .X.X.X.X.X",
".X.X.X.X.X.XO 0.{.{.|.`.Z.b.a.) ) d b.L M.|.~.Q.t `.|.|.|.|.|.|.[ m %.%.%.%.%.%.  O +.%.%.%.%.%.%.v . +.%.k ) |.Q.o .X.X.X.X.X.X",
".X.X.X.X.X.Xi Q.~.Z.Y p f L Q ` ] ] ( [ c `.Q.Z.> |.|.|.|.|.|.|.) m %.%.%.%.%.%.  @ #.%.%.%.%.%.%.v @ +.%.l E |.C.O .X.X.X.X.X.X",
".X.X.X.X.X.XJ A.g % .._.|.}.'.A.A.A.J V.X Z.Q.L ( |.|.|.|.|.|.|.) m %.%.%.%.%.%.X 1 $.%.%.%.%.%.%.v , &.%.v R |.[   .X.X.X.X.X.X",
".X.X.X.X.X.X: i g V./ s :             M.E i L d `.|.|.|.|.|.|.|.) v %.%.%.%.%.%.o b %.%.%.%.%.%.%.....%.%.v R |.g   .X.X.X.X.X.X",
".X.X.X.X.X.X    : o i ( M.N.V.C.C.Z.b.W W.] ] `.|.|.|.|.|.|.|.|.) v %.%.%.%.%.%...O.%.%.%.%.%.%.%.%.%.%.%.6 ) |.o   .X.X.X.X.X.X",
".X.X.X.X.X.X  > R   C.Q.Q.!.`.}.|.|.|.R Z.Q.Q.~.|.|.|.|.|.|.|.|.) 6 $.%.%.%.%.%.O.| l 5 2 2 6 z l } o.$.%.@ N.A.  .X.X.X.X.X.X.X",
".X.X.X.Xt ) V.Q.Q.  C.'.|.|.|.|.|.|.|.Z.c Q.Q.Q.'.|.|.|.|.|.|.|.M.    z { O.%.X.a J o L ] ] ] ] ) R d 2 l   A.W   .X.X.X.X.X.X.X",
".X.X.Xo Z.Q.!.`.'.X !.|.|.|.|.|.|.|.|.}.g M.Q.Q.Q.'.|.|.|.|.|.|.|.!.R o     $ . ..a.t N.N.N.N.N.N.N.N.i O J A.X   .X.X.X.X.X.X.X",
".X.X.Xt Q.!.|.|.`.+ `.|.|.|.|.|.|.|.|.|.~.> W.Q.Q.Q.`.|.|.|.|.|.|.|.|.~.N.W t ; N.W R M.N.N.N.N.N.N.N.s n.'.R   .X.X.X.X.X.X.X.X",
".X.X.X: W.'.|.|.A.> }.|.|.|.|.|.|.|.|.|.|.) J Q.Q.Q.Q.~.}.|.|.|.|.|.|.|.|.|.Z.> [ L ( N.N.N.N.N.N.N.N.y C.V.X   .X.X.X.X.X.X.X.X",
".X.X.X- A.`.|.'.( d C.Z.W.!.~.`.{.|.|.|.|.{.i [ Q.Q.Q.Q.Q.~.{.|.|.|.|.|.|.|.Q.t ( g L M.N.N.N.N.N.N.[ > N.;   .X.X.X.X.X.X.X.X.X",
".X.X.X.XL ( J ; ; t o       X - > J M.`.|.|.Q.- M.Q.Q.Q.Q.Q.Q.~.{.|.|.|.|.|./.= ( J > ) [ 0...m.b.[ L s L   .X.X.X.X.X.X.X.X.X.X",
".X.X.X.X.X.X  n.~.|.|.}.'.`.P t N.C.C.~.|.|.|.V.- M.Q.Q.Q.Q.Q.Q.Q.!.`.{.|.|.v.D i W O R ( ( ( ( ( ( ; *   .X.X.X.X.X.X.X.X.X.X.X",
".X.X.X.X.X.X  [ !.|.|.|.|.A.O [ Q.Q.!.|.|.|.|.|.C.O ] Q.Q.Q.Q.Q.Q.Q.Q.Q.Q.^.7.5.B - o - d d g g d -     .X.X.X.X.X.X.X.X.X.X.X.X",
".X.X.X.X.X.X.XW Q.|.|.|.|.E # P.Q.Q.'.|.|.|.|.|.|.A.t L Z.Q.Q.Q.Q.Q.Q.Q.Q.0.-.-.-.G Z 0 8 7 8 0 e     .X.X.X.X.X.X.X.X.X.X.X.X.X",
".X.X.X.X.X.X.Xg Q.{.|.|.'.- R Q.Q.Q.|.|.|.|.|.|.|.|.!.J ; [ A.Q.Q.Q.Q.Q.H.>.-.-.-.-.-.-.-.-.=.V X X .X.X.X.X.X.X.X.X.X.X.X.X.X.X",
".X.X.X.X.X.X.X: A.'.|.|.] - C.Q.Q.`.|.|.|.|.|.|.|.|.|.|.Z.i @ ( Z.Q.Q.P.<.-.-.-.-.-.-.-.G B X     .X.X.X.X.X.X.X.X.X.X.X.X.X.X.X",
".X.X.X.X.X.X.Xo M.~.|.{.- ( Q.Q.Q.|.|.|.|.|.|.|.|.|.|.|.|.{.W./ 9 s ( / S G G G F C q & X     .X.X.X.X.X.X.X.X.X.X.X.X.X.X.X.X.X",
".X.X.X.X.X.X.X  ) Q.}.C.X C.Q.Q.~.|.|.|.|.|.|.|.|.|.|.|.|.|.R.f.3.=.Z q X               .X.X.X.X.X.X.X.X.X.X.X.X.X.X.X.X.X.X.X.X",
".X.X.X.X.X.X.X.XJ Q.`.c n Q.Q.Q.{.|.|.|.|.|.|.|.|.|.|.|.}.h.w.w.w.w.w.w.w.q.6./.[   .X.X.X.X.X.X.X.X.X.X.X.X.X.X.X.X.X.X.X.X.X.X",
".X.X.X.X.X.X.X.X: Q.M.X C.Q.Q.~.|.|.|.|.|.|.|.|.|.|.|.|.h.e.e.k.L.c.u.w.w.w.h.|.i   .X.X.X.X.X.X.X.X.X.X.X.X.X.X.X.X.X.X.X.X.X.X",
".X.X.X.X.X.X.X.X  Z.J i Q.Q.Q.~.Q.Z.M.] [ '.|.|.|.|.|.Y.w.y.T.|.|.|.[.i.w.r.(.Q.  .X.X.X.X.X.X.X.X.X.X.X.X.X.X.X.X.X.X.X.X.X.X.X",
".X.X.X.X.X.X.X.X  ) ; b.Q.M.g X o L n.N.E : Z.|.|.|.|.p.e.R.|.[.(.|.|.z.w.p.].g   .X.X.X.X.X.X.X.X.X.X.X.X.X.X.X.X.X.X.X.X.X.X.X",
".X.X.X.X.X.X.X.X.Xo i W.[ d R N.Q.|.|.|.|.M.t ~.|.|.R.w.s.|.).i.y.T.|.c.w.s.D.  .X.X.X.X.X.X.X.X.X.X.X.X.X.X.X.X.X.X.X.X.X.X.X.X",
".X.X.X.X.X.X.X.X.X  ] W.Z.Q.!.`.{.|.|.|.|.|.n.d }.|.k.w.U.|.c.w.w.U.|.z.w.k.L   .X.X.X.X.X.X.X.X.X.X.X.X.X.X.X.X.X.X.X.X.X.X.X.X",
".X.X.X.X.X.X.X.X.XX C.Q.Q.Q.Z.n.Q.~.|.|.|.|.'.: N.|.d.w.).|.K.w.j.[.[.u.w.a.o .X.X.X.X.X.X.X.X.X.X.X.X.X.X.X.X.X.X.X.X.X.X.X.X.X",
".X.X.X.X.X.X.X.X.X; H.Q.Q.M.x Z.Q.~.|.|.|.|.{.> n.|.i.w.E.|. X(.[.|.x.w.p.P   .X.X.X.X.X.X.X.X.X.X.X.X.X.X.X.X.X.X.X.X.X.X.X.X.X",
".X.X.X.X.X.X.X.X.XO Z.Q.M.; M.Q.Q.}.|.|.|.|.[   V.T.e.w.s.}.|.|.|.J.w.r.F.    .X.X.X.X.X.X.X.X.X.X.X.X.X.X.X.X.X.X.X.X.X.X.X.X.X",
".X.X.X.X.X.X.X.X.X  n A.- ( Q.Q.`.|.|.|.|.A.X ; H.r.w.w.w.g.J.J.d.w.w.l.J   .X.X.X.X.X.X.X.X.X.X.X.X.X.X.X.X.X.X.X.X.X.X.X.X.X.X",
".X.X.X.X.X.X.X.X.X.X  X ; A.Q.!.{.|.|.|.'.< X m.8.;.2.q.w.w.w.w.w.e.v.S.    .X.X.X.X.X.X.X.X.X.X.X.X.X.X.X.X.X.X.X.X.X.X.X.X.X.X",
".X.X.X.X.X.X.X.X.X.X.X  ) Q.!.{.|.|.|.}.L   E 8.-.-.-.;.2.w.w.r.z.(.|.n   .X.X.X.X.X.X.X.X.X.X.X.X.X.X.X.X.X.X.X.X.X.X.X.X.X.X.X",
".X.X.X.X.X.X.X.X.X.X.XX A.Q.`.|.|.|.|.b.  L 9.-.-.-.-.-.-.;.4._.|.|.V.X   .X.X.X.X.X.X.X.X.X.X.X.X.X.X.X.X.X.X.X.X.X.X.X.X.X.X.X",
".X.X.X.X.X.X.X.X.X.X.Xi Q.!.}.|.|.|.[   s 9.-.-.-.-.-.-.-.:.B.~.|.|.>   .X.X.X.X.X.X.X.X.X.X.X.X.X.X.X.X.X.X.X.X.X.X.X.X.X.X.X.X",
".X.X.X.X.X.X.X.X.X.X  J Q.Q.'.|.|.(   w ,.-.-.-.-.-.-.-.>.B.Q.Q.|.N.    .X.X.X.X.X.X.X.X.X.X.X.X.X.X.X.X.X.X.X.X.X.X.X.X.X.X.X.X",
".X.X.X.X.X.X.X.X.X.X.Xo ~ A.Q.A.J       % B S =.-.-.-.:.G.Q.Q.!.!.t   .X.X.X.X.X.X.X.X.X.X.X.X.X.X.X.X.X.X.X.X.X.X.X.X.X.X.X.X.X",
".X.X.X.X.X.X.X.X.X.X.X.X  @ W X     ; g g t t > e A H m.N.W.Q.V.:   .X.X.X.X.X.X.X.X.X.X.X.X.X.X.X.X.X.X.X.X.X.X.X.X.X.X.X.X.X.X",
".X.X.X.X.X.X.X.X.X.X.X.X.X.X    .X  ( Q.Q.Q.Q.W.W.W.Q.Q.C.] d X   .X.X.X.X.X.X.X.X.X.X.X.X.X.X.X.X.X.X.X.X.X.X.X.X.X.X.X.X.X.X.X",
".X.X.X.X.X.X.X.X.X.X.X.X.X.X.X.X.X  ) Q.Q.Q.Q.Q.Q.W.N.R o     .X.X.X.X.X.X.X.X.X.X.X.X.X.X.X.X.X.X.X.X.X.X.X.X.X.X.X.X.X.X.X.X.X",
".X.X.X.X.X.X.X.X.X.X.X.X.X.X.X.X.X.X  L C.A.S.n.h X       .X.X.X.X.X.X.X.X.X.X.X.X.X.X.X.X.X.X.X.X.X.X.X.X.X.X.X.X.X.X.X.X.X.X.X",
".X.X.X.X.X.X.X.X.X.X.X.X.X.X.X.X.X.X.X  X ; #     .X.X.X.X.X.X.X.X.X.X.X.X.X.X.X.X.X.X.X.X.X.X.X.X.X.X.X.X.X.X.X.X.X.X.X.X.X.X.X"
};
