/* XPM */
static char *result[] = {
/* columns rows colors chars-per-pixel */
"64 64 170 2 ",
"   c #010101",
".  c #080706",
"X  c #0B0A06",
"o  c #00060B",
"O  c #06080A",
"+  c #0C0C0C",
"@  c #120F07",
"#  c #110F0C",
"$  c #15110A",
"%  c #1A150A",
"&  c #1E180C",
"*  c #000912",
"=  c #000D1A",
"-  c #03101D",
";  c #141413",
":  c #1B1A1A",
">  c #1B1816",
",  c #231C0E",
"<  c #211D1B",
"1  c #292010",
"2  c #3A2F17",
"3  c #342A15",
"4  c #001224",
"5  c #00162D",
"6  c #001B36",
"7  c #001E3C",
"8  c #081F37",
"9  c #232322",
"0  c #2B2623",
"q  c #2F2A27",
"w  c #2B2B2B",
"e  c #332D2A",
"r  c #302A27",
"t  c #37312D",
"y  c #39322E",
"u  c #25303B",
"i  c #333333",
"p  c #3C3532",
"a  c #3B3B3B",
"s  c #42351A",
"d  c #47391C",
"f  c #423A36",
"g  c #453D39",
"h  c #584723",
"j  c #5D4A25",
"k  c #544322",
"l  c #4B423E",
"z  c #604C26",
"x  c #655128",
"c  c #6D572C",
"v  c #755E2F",
"b  c #7A6231",
"n  c #00274E",
"m  c #002142",
"M  c #002D5A",
"N  c #002850",
"B  c #133353",
"V  c #0D345C",
"C  c #003265",
"Z  c #00356A",
"A  c #003973",
"S  c #003D7A",
"D  c #434444",
"F  c #4F4742",
"G  c #4B4B4B",
"H  c #504742",
"J  c #534A46",
"K  c #564D48",
"L  c #584F49",
"P  c #5C524D",
"I  c #545454",
"U  c #5B5B5B",
"Y  c #4A5157",
"T  c #655954",
"R  c #665B55",
"E  c #6E615B",
"W  c #74665F",
"Q  c #656565",
"!  c #6B6B6B",
"~  c #65696D",
"^  c #746660",
"/  c #776962",
"(  c #7A6B65",
")  c #7F6F68",
"_  c #747474",
"`  c #7C7C7C",
"'  c #806733",
"]  c #876C36",
"[  c #886D36",
"{  c #8C7038",
"}  c #96783C",
"|  c #9B7C3E",
" . c #93763B",
".. c #84746D",
"X. c #A68543",
"o. c #AC8A45",
"O. c #B79249",
"+. c #BA944A",
"@. c #BE984C",
"#. c #C39C4E",
"$. c #CDA452",
"%. c #D4AA55",
"&. c #D9AE57",
"*. c #DDB159",
"=. c #EABC5E",
"-. c #E5B75C",
";. c #EFBF60",
":. c #F5C462",
">. c #FFCC66",
",. c #00458A",
"<. c #004182",
"1. c #004A94",
"2. c #004E9B",
"3. c #0B4E91",
"4. c #2C649D",
"5. c #24609C",
"6. c #0052A4",
"7. c #0056AC",
"8. c #005AB5",
"9. c #005EBB",
"0. c #0961B9",
"q. c #40668D",
"w. c #587999",
"e. c #767D83",
"r. c #4B7AA9",
"t. c #0062C3",
"y. c #0066CC",
"u. c #0B6DCE",
"i. c #0468CD",
"p. c #5681AB",
"a. c #7E93AA",
"s. c #7594B4",
"d. c #3988D7",
"f. c #438ED9",
"g. c #5599DD",
"h. c #4C94DB",
"j. c #7CA5CD",
"k. c #7BB0E4",
"l. c #838383",
"z. c #8D8D8D",
"x. c #8D9298",
"c. c #959595",
"v. c #9A9A9A",
"b. c #8AA2BA",
"n. c #A5A5A5",
"m. c #ADADAD",
"M. c #B3B3B3",
"N. c #BCBCBC",
"B. c #88ACD0",
"V. c #A2B3C3",
"C. c #91BDE9",
"Z. c #84B5E6",
"A. c #BDC2C7",
"S. c #9BC4EB",
"D. c #A2C7EC",
"F. c #B7D4F1",
"G. c #C5C5C5",
"H. c #CCCCCC",
"J. c #D4D4D4",
"K. c gainsboro",
"L. c #C1DAF3",
"P. c #DAE8F8",
"I. c #E3E3E3",
"U. c #ECECEC",
"Y. c #E1EDF9",
"T. c #ECF4FB",
"R. c #F4F4F4",
"E. c #FEFFFF",
"W. c #F1F6FC",
"Q. c None",
/* pixels */
"Q.Q.Q.Q.Q.Q.Q.Q.Q.Q.Q.Q.Q.Q.Q.Q.Q.Q.Q.Q.Q.Q.Q.Q.Q.Q.Q.Q.Q.Q.Q.Q.Q.Q.Q.Q.Q.Q.Q.Q.Q.Q.Q.Q.Q.Q.Q.Q.Q.Q.Q.Q.Q.Q.Q.Q.Q.Q.Q.Q.Q.Q.Q.Q.",
"Q.Q.Q.Q.Q.Q.Q.Q.Q.Q.Q.Q.Q.Q.Q.Q.Q.Q.Q.Q.Q.Q.Q.Q.Q.Q.Q.Q.Q.Q.Q.Q.Q.Q.Q.Q.Q.Q.Q.Q.Q.Q.Q.Q.Q.Q.Q.Q.Q.Q.Q.Q.Q.Q.Q.Q.Q.Q.Q.Q.Q.Q.Q.Q.",
"Q.Q.Q.Q.Q.Q.Q.Q.Q.Q.Q.Q.Q.Q.Q.Q.Q.Q.Q.Q.Q.Q.Q.Q.Q.Q.Q.Q.Q.Q.Q.Q.Q.Q.Q.Q.Q.Q.Q.Q.Q.Q.Q.Q.Q.Q.Q.Q.Q.Q.Q.Q.Q.Q.Q.Q.Q.Q.Q.Q.Q.Q.Q.Q.",
"Q.Q.Q.Q.Q.Q.Q.Q.Q.Q.Q.Q.Q.Q.Q.Q.Q.Q.Q.Q.Q.Q.Q.Q.Q.Q.Q.Q.Q.Q.Q.Q.Q.Q.Q.Q.Q.Q.Q.Q.Q.Q.Q.Q.Q.  Q.Q.Q.Q.Q.Q.Q.Q.Q.Q.Q.Q.Q.Q.Q.Q.Q.Q.",
"Q.Q.Q.Q.Q.Q.Q.Q.Q.Q.Q.Q.Q.Q.Q.Q.Q.Q.Q.Q.Q.Q.Q.Q.Q.Q.Q.Q.Q.Q.Q.Q.Q.Q.Q.Q.Q.Q.Q.Q.Q.Q.Q.Q.+ Q   Q.Q.Q.Q.Q.Q.Q.Q.Q.Q.Q.Q.Q.Q.Q.Q.Q.",
"Q.Q.Q.Q.Q.Q.Q.Q.Q.Q.Q.Q.Q.Q.Q.Q.Q.Q.Q.Q.Q.Q.Q.Q.Q.Q.Q.Q.Q.Q.Q.Q.Q.Q.Q.Q.Q.Q.Q.Q.Q.Q.Q.  U N.  Q.Q.Q.Q.Q.Q.Q.Q.Q.Q.Q.Q.Q.Q.Q.Q.Q.",
"Q.Q.Q.Q.Q.Q.Q.Q.Q.Q.Q.Q.Q.Q.Q.Q.Q.Q.Q.Q.Q.Q.Q.Q.Q.      o * * o * o o             Q.Q.O n.` Q.Q.Q.Q.Q.Q.Q.Q.Q.Q.Q.Q.Q.Q.Q.Q.Q.Q.",
"Q.Q.Q.Q.Q.Q.Q.Q.Q.Q.Q.Q.Q.Q.Q.Q.Q.Q.Q.Q.Q.Q.    ; D S 2.7.9.9.9.9.9.8.7.6.,.A M 8 ;   + l.i Q.Q.Q.Q.Q.Q.Q.Q.Q.Q.Q.Q.Q.Q.Q.Q.Q.Q.",
"Q.Q.Q.Q.Q.Q.Q.Q.Q.Q.Q.Q.Q.Q.Q.Q.Q.Q.Q.Q.  : ! H.E.L.y.y.y.y.y.y.y.y.y.y.y.y.y.y.u.W.J.l.w     Q.Q.Q.Q.Q.Q.Q.Q.Q.Q.Q.Q.Q.Q.Q.Q.Q.",
"Q.Q.Q.Q.Q.Q.Q.Q.Q.Q.Q.Q.Q.Q.Q.Q.Q.Q.  ; ! J.E.E.E.Z.y.t.8.6.2.1.,.,.,.1.7.8.t.y.y.F.E.E.I.z.9   Q.Q.Q.Q.Q.Q.Q.Q.Q.Q.Q.Q.Q.Q.Q.Q.",
"Q.Q.Q.Q.Q.Q.Q.Q.Q.Q.Q.Q.Q.Q.Q.Q.Q.  I K.E.E.E.E.R.4.7 = o     + O . .     o = 6 M B.E.E.E.E.U.l.. Q.Q.Q.Q.Q.Q.Q.Q.Q.Q.Q.Q.Q.Q.Q.",
"Q.Q.Q.Q.Q.Q.Q.Q.Q.Q.Q.Q.Q.Q.Q.Q.  Q E.E.E.E.H.U $ @ : q t p f f f f f f p t q < + . D n.E.E.E.E.G.; Q.Q.Q.Q.Q.Q.Q.Q.Q.Q.Q.Q.Q.Q.",
"Q.Q.Q.Q.Q.Q.Q.Q.Q.Q.Q.Q.Q.Q.Q.  > U.E.E.R.! . > y f f f f g f g g g g f f f f f f y > . w J.E.E.E._   Q.Q.Q.Q.Q.Q.Q.Q.Q.Q.Q.Q.Q.",
"Q.Q.Q.Q.Q.Q.Q.Q.Q.Q.Q.Q.Q.Q.Q.  l.E.E.I.i $ t g f g l l J J J K K J J J J J H l g f f f 1 + v.E.E.K.; Q.Q.Q.Q.Q.Q.Q.Q.Q.Q.Q.Q.Q.",
"Q.Q.Q.Q.Q.Q.Q.Q.Q.Q.Q.Q.Q.Q.  . I.E.R.D > f g g H L L L L L K J K L K L L J K K L J l f g r # z.E.E.Q   Q.Q.Q.Q.Q.Q.Q.Q.Q.Q.Q.Q.",
"Q.Q.Q.Q.Q.Q.Q.Q.Q.Q.Q.Q.Q.Q.  Q E.E.Q # f f H K K L L P R / ( ..) / / ( W W T L L K K J D g q . J.E.J.  Q.Q.Q.Q.Q.Q.Q.Q.Q.Q.Q.Q.",
"Q.Q.Q.Q.Q.Q.Q.Q.Q.Q.Q.Q.Q.Q.  G.E.G.. e g J K K J P ( ..........................E K K K K F f < i R.E.w   Q.Q.Q.Q.Q.Q.Q.Q.Q.Q.Q.",
"Q.Q.Q.Q.Q.Q.Q.Q.Q.Q.Q.Q.Q.  : U.E._ ; f J L K K T ................................/ P K K K l p   N.E.!   Q.Q.Q.Q.Q.Q.Q.Q.Q.Q.Q.",
"Q.Q.Q.Q.Q.Q.Q.Q.Q.Q.Q.Q.Q.  D E.E.. 0 l K K K P ....................................W K K K J g $ ` E.m.    Q.Q.Q.Q.Q.Q.Q.Q.Q.Q.",
"Q.Q.Q.Q.Q.Q.Q.Q.Q.Q.Q.Q.Q.  ` E.I.  r H K K K ( ....( ..) / / ^ W ^ ^ / ( ) ..........T K K K l : I E.K.:   Q.Q.Q.Q.Q.Q.Q.Q.Q.Q.",
"Q.Q.Q.Q.Q.Q.Q.Q.Q.Q.Q.Q.    v.E.J.  e J K J g J p q < < : ; % O + . + ; > < q r p g P R L K K H : G E.E.w     Q.Q.Q.Q.Q.Q.Q.Q.Q.",
"Q.Q.Q.Q.Q.Q.Q.Q.Q.Q.Q.      G.E.J.  p H 9 . @ 1 j ] X.O.#.%.%.%.=.*.%.%.%.@.X.] c d , . O : l J < a E.E.G   +   Q.Q.Q.Q.Q.Q.Q.Q.",
"Q.Q.Q.Q.Q.Q.Q.Q.Q.Q.  : 9 . J.E.J.  e # h @.-.>.>.O.#.>.>.>.>.>.>.>.>.>.>.>.>.%.@.>.;.*.o.x $ q : K E.E.Q   _ O Q.Q.Q.Q.Q.Q.Q.Q.",
"Q.Q.Q.Q.Q.Q.Q.Q.Q.Q.  ` w ; I.E.I.  +   $.>.>.>.>.k s >.>.>.>.>.>.>.>.>.>.>.>.j 2 >.>.>.>.>.2 . > U E.E._   H.a Q.Q.Q.Q.Q.Q.Q.Q.",
"Q.Q.Q.Q.Q.Q.Q.Q.Q.Q.9 I.w ; I.E.E..   . >.>.>.>.*.@ , :.>.>.>.>.>.>.>.>.>.>.>.1   =.>.>.>.>.j     _ E.E.X.  J.v.  Q.Q.Q.Q.Q.Q.Q.",
"Q.Q.Q.Q.Q.Q.Q.Q.Q.Q.U E.w ; K.E.E.D   , >.>.>.>.%.  & :.>.>.>.>.>.>.>.>.>.>.>.,   %.>.>.>.>.b     v.E.E.w.o J.G.  Q.Q.Q.Q.Q.Q.Q.",
"Q.Q.Q.Q.Q.Q.Q.Q.Q.Q.` E.D ; K.E.E.K.; d >.>.>.>.@.  $ =.>.>.>.>.>.>.>.>.>.>.>..   #.>.>.>.>.}   U I.E.E.e.o I.J.  Q.Q.Q.Q.Q.Q.Q.",
"Q.Q.Q.Q.Q.Q.Q.Q.Q.Q.G I.U   J.E.E.I.+ x >.>.>.>.#.  @ =.>.>.>.>.>.>.>.>.>.>.>.    @.>.>.>.>.o.  M.E.E.E.U   J.z.  Q.Q.Q.Q.Q.Q.Q.",
"Q.Q.Q.Q.Q.Q.Q.Q.Q.Q.: M.!   N.E.E.K.. b >.>.>.>.&.X $ =.>.>.>.>.>.>.>.>.>.>.>.    %.>.>.>.>.@.  n.E.E.E.D + H.G   Q.Q.Q.Q.Q.Q.Q.",
"Q.Q.Q.Q.Q.Q.Q.Q.Q.: : ~ z.  c.E.E.H.   .>.>.>.>.:.s , :.>.>.>.>.>.>.>.>.>.>.>.X % >.>.>.>.>.%.  z.E.E.R.9 0 c.> D   Q.Q.Q.Q.Q.Q.",
"Q.Q.Q.Q.Q.Q.Q.Q.> M.z.# l.  Q E.E.H.  [ >.>.>.>.>.#.X.>.>.>.>.>.>.>.>.>.>.>.>. .O.>.>.>.>.>.$.  z.E.E.N.O D ; ! H.a Q.Q.Q.Q.Q.Q.",
"Q.Q.Q.Q.Q.Q.Q.  ! H.I._ O   w E.E.K.O x >.>.>.>.>.>.>.>.>.>.>.>.:.;.:.>.>.>.>.>.>.>.>.>.>.>.o.  n.E.E.l.    U I.J.n.. Q.Q.Q.Q.Q.",
"Q.Q.Q.Q.Q.Q.Q.+ M.K.E.R.Q   O K.E.R.9 3 >.>.>.>.>.>.>.#.' d 2 1 & % , 2 h { &.>.>.>.>.>.>.>.v   J.E.E.a o U R.E.R.H.w Q.Q.Q.Q.Q.",
"Q.Q.Q.Q.Q.Q.Q.Q.U K.E.E.I.>   z.E.E.I   O.>.>.>.>.:.k ; 1 i D G G I G i i 1 o h :.>.>.>.>.$., ; E.E.K.. + v.E.E.K.U   Q.Q.Q.Q.Q.",
"Q.Q.Q.Q.Q.Q.Q.Q.  . Q v.9 I : : R.E.J.:   % v +.;. .a v.v.v.c.v.v.v.v.v.v.v.x.i | :.&.| 2     _ E.E.!   I ; Q R .   Q.Q.Q.Q.Q.Q.",
"Q.Q.Q.Q.Q.Q.Q.Q.Q.Q.Q.  + K.`   v.E.E.U.G.! ;   # O U v.v.v.v.v.v.v.v.v.v.v.c._ @ , .   ; ! N.R.E.I.+ w I._   Q.Q.Q.Q.Q.Q.Q.Q.Q.",
"Q.Q.Q.Q.Q.Q.Q.Q.Q.Q.Q.Q.  : ` + 9 U.E.E.E.E.E.N.l.: U c.v.v.v.v.c.v.v.v.v.c.v.! . I c.H.E.E.E.E.E._   z._ o Q.Q.Q.Q.Q.Q.Q.Q.Q.Q.",
"Q.Q.Q.Q.Q.Q.Q.Q.Q.Q.Q.Q.Q.Q.      U U.E.E.E.E.E.R.D I z.c.v.v.v.v.v.v.v.v.v.v.U + E.E.E.E.E.E.E.M.O # i   Q.Q.Q.Q.Q.Q.Q.Q.Q.Q.Q.",
"Q.Q.Q.Q.Q.Q.Q.Q.Q.Q.Q.Q.Q.Q.Q.    O n.I.R.E.E.E.E.Q a ` v.v.v.v.v.v.v.v.v.v.z.D D E.E.E.E.E.U.H.9       Q.Q.Q.Q.Q.Q.Q.Q.Q.Q.Q.Q.",
"Q.Q.Q.Q.Q.Q.Q.Q.Q.Q.Q.Q.Q.Q.Q.Q.    9 G.J.U.E.E.E.v.; Q ` ` l.l.l.l.l.l.` ` _ : z.E.E.E.E.K.H.!       Q.Q.Q.Q.Q.Q.Q.Q.Q.Q.Q.Q.Q.",
"Q.Q.Q.Q.Q.Q.Q.Q.Q.Q.Q.Q.Q.Q.Q.Q.Q.Q.  D H.H.J.R.R.K.o a Q Q Q Q Q Q ! Q Q Q a O G.E.R.I.H.H._ o     Q.Q.Q.Q.Q.Q.Q.Q.Q.Q.Q.Q.Q.Q.",
"Q.Q.Q.Q.Q.Q.Q.Q.Q.Q.Q.Q.Q.Q.Q.Q.Q.Q.    I G.H.H.H.H.V O g Q Q Q Q Q Q Q Q D . B V.J.H.H.H.l.+     Q.Q.Q.Q.Q.Q.Q.Q.Q.Q.Q.Q.Q.Q.Q.",
"Q.Q.Q.Q.Q.Q.Q.Q.Q.Q.Q.Q.Q.Q.Q.Q.Q.Q.  +   Q G.H.H.H.4.m o w G I U I I G w   7 5.H.H.H.H.l.. .   Q.Q.Q.Q.Q.Q.Q.Q.Q.Q.Q.Q.Q.Q.Q.Q.",
"Q.Q.Q.Q.Q.Q.Q.Q.Q.Q.Q.Q.Q.Q.Q.Q.Q.Q.  _ z.. w N.H.H.r.1.<.n 4 * o o * 4 n S 1.r.H.H.G.J   D z.  Q.Q.Q.Q.Q.Q.Q.Q.Q.Q.Q.Q.Q.Q.Q.Q.",
"Q.Q.Q.Q.Q.Q.Q.Q.Q.Q.Q.Q.Q.Q.Q.Q.Q.Q.  l.E.m.w : ` N.b.1.1.1.1.,.,.,.,.1.1.1.1.s.G.z.9 : l.R.m.  Q.Q.Q.Q.Q.Q.Q.Q.Q.Q.Q.Q.Q.Q.Q.Q.",
"Q.Q.Q.Q.Q.Q.Q.Q.Q.Q.Q.Q.Q.Q.Q.Q.Q.Q.  z.E.E.R.! . < e.3.1.1.1.1.1.1.1.1.1.1.1.x.i   D J.E.E.M.  Q.Q.Q.Q.Q.Q.Q.Q.Q.Q.Q.Q.Q.Q.Q.Q.",
"Q.Q.Q.Q.Q.Q.Q.Q.Q.Q.Q.Q.Q.Q.Q.Q.Q.Q.  ` E.E.E.P.0.C = o 5 M A <.1.1.,.A M 7 * # Q G.E.E.E.E.m.  Q.Q.Q.Q.Q.Q.Q.Q.Q.Q.Q.Q.Q.Q.Q.Q.",
"Q.Q.Q.Q.Q.Q.Q.Q.Q.Q.Q.Q.Q.Q.Q.Q.Q.Q.  _ E.E.E.D.y.y.j.n.~ 4 = * = = = = = Y c.J.E.E.E.E.E.E.v.  Q.Q.Q.Q.Q.Q.Q.Q.Q.Q.Q.Q.Q.Q.Q.Q.",
"Q.Q.Q.Q.Q.Q.Q.Q.Q.Q.Q.Q.Q.Q.Q.Q.Q.Q.  ! R.N.n.w.t.y.D.E.P.y.8.6.a.M.V.8.t.L.E.E.E.E.E.E.E.E.m.  Q.Q.Q.Q.Q.Q.Q.Q.Q.Q.Q.Q.Q.Q.Q.Q.",
"Q.Q.Q.Q.Q.Q.Q.Q.Q.Q.Q.Q.Q.Q.Q.Q.Q.Q.  ; 9 ! ` ! u Z g.E.E.C.g.k.E.E.k.y.u.Y.E.E.E.E.E.E.E.E.M.+ Q.Q.Q.Q.Q.Q.Q.Q.Q.Q.Q.Q.Q.Q.Q.Q.",
"Q.Q.Q.Q.Q.Q.Q.Q.Q.Q.Q.Q.Q.Q.Q.Q.Q.Q.9 c.I.E.E.K.v.O 0.S.E.E.E.E.E.F.u.i.h.E.E.E.E.E.E.E.E.I.M.+ Q.Q.Q.Q.Q.Q.Q.Q.Q.Q.Q.Q.Q.Q.Q.Q.",
"Q.Q.Q.Q.Q.Q.Q.Q.Q.Q.Q.Q.Q.Q.Q.Q.Q.i U.E.E.E.E.K.G.D S i.d.C.S.S.f.i.y.y.T.E.E.E.E.E.E.E.E.H.M.; Q.Q.Q.Q.Q.Q.Q.Q.Q.Q.Q.Q.Q.Q.Q.Q.",
"Q.Q.Q.Q.Q.Q.Q.Q.Q.Q.Q.Q.Q.Q.Q.Q.  M.E.E.E.E.E.I.H.` 6 y.y.y.y.y.y.y.y.y.E.E.E.E.E.E.E.E.K.H.M.; Q.Q.Q.Q.Q.Q.Q.Q.Q.Q.Q.Q.Q.Q.Q.Q.",
"Q.Q.Q.Q.Q.Q.Q.Q.Q.Q.Q.Q.Q.Q.Q.Q.  N.E.E.E.E.E.U.H.n.= 8.y.y.y.y.y.y.y.y.T.E.E.E.E.E.E.I.H.H.M.+ Q.Q.Q.Q.Q.Q.Q.Q.Q.Q.Q.Q.Q.Q.Q.Q.",
"Q.Q.Q.Q.Q.Q.Q.Q.Q.Q.Q.Q.Q.Q.Q.Q.  _ E.E.E.E.E.E.H.G.o S 6.t.y.y.y.y.y.y.P.E.E.E.E.E.U.H.H.H.v.  Q.Q.Q.Q.Q.Q.Q.Q.Q.Q.Q.Q.Q.Q.Q.Q.",
"Q.Q.Q.Q.Q.Q.Q.Q.Q.Q.Q.Q.Q.Q.Q.Q.Q.9 U.E.E.E.E.E.K.H.: C 1.1.6.t.y.y.y.y.F.E.E.E.E.I.H.H.H.H.!   Q.Q.Q.Q.Q.Q.Q.Q.Q.Q.Q.Q.Q.Q.Q.Q.",
"Q.Q.Q.Q.Q.Q.Q.Q.Q.Q.Q.Q.Q.Q.Q.Q.Q.  ! E.E.E.E.E.I.H.a N 1.1.1.1.6.7.8.9.Z.R.R.U.K.H.H.H.H.H.w   Q.Q.Q.Q.Q.Q.Q.Q.Q.Q.Q.Q.Q.Q.Q.Q.",
"Q.Q.Q.Q.Q.Q.Q.Q.Q.Q.Q.Q.Q.Q.Q.Q.Q.Q.  _ E.E.R.I.H.H.! - C ,.1.1.1.1.1.1.p.H.H.H.H.H.H.H.H.z.  Q.Q.Q.Q.Q.Q.Q.Q.Q.Q.Q.Q.Q.Q.Q.Q.Q.",
"Q.Q.Q.Q.Q.Q.Q.Q.Q.Q.Q.Q.Q.Q.Q.Q.Q.Q.Q.  G M.H.H.H.N.a       * 4 7 N C S 4.H.H.H.H.H.H.H.G.:   Q.Q.Q.Q.Q.Q.Q.Q.Q.Q.Q.Q.Q.Q.Q.Q.Q.",
"Q.Q.Q.Q.Q.Q.Q.Q.Q.Q.Q.Q.Q.Q.Q.Q.Q.Q.Q.Q.Q.. a U a O Q.Q.Q.Q.Q.Q.Q.Q.      : a E N.H.H.H.!   Q.Q.Q.Q.Q.Q.Q.Q.Q.Q.Q.Q.Q.Q.Q.Q.Q.Q.",
"Q.Q.Q.Q.Q.Q.Q.Q.Q.Q.Q.Q.Q.Q.Q.Q.Q.Q.Q.Q.Q.Q.Q.Q.Q.Q.Q.Q.Q.Q.Q.Q.Q.Q.Q.Q.Q.Q.  U H.H.H.l.O Q.Q.Q.Q.Q.Q.Q.Q.Q.Q.Q.Q.Q.Q.Q.Q.Q.Q.Q.",
"Q.Q.Q.Q.Q.Q.Q.Q.Q.Q.Q.Q.Q.Q.Q.Q.Q.Q.Q.Q.Q.Q.Q.Q.Q.Q.Q.Q.Q.Q.Q.Q.Q.Q.Q.Q.Q.  i G.H.H.c.; Q.Q.Q.Q.Q.Q.Q.Q.Q.Q.Q.Q.Q.Q.Q.Q.Q.Q.Q.Q.",
"Q.Q.Q.Q.Q.Q.Q.Q.Q.Q.Q.Q.Q.Q.Q.Q.Q.Q.Q.Q.Q.Q.Q.Q.Q.Q.Q.Q.Q.Q.Q.Q.Q.Q.Q.Q.Q.  9 l.c.I   Q.Q.Q.Q.Q.Q.Q.Q.Q.Q.Q.Q.Q.Q.Q.Q.Q.Q.Q.Q.Q.",
"Q.Q.Q.Q.Q.Q.Q.Q.Q.Q.Q.Q.Q.Q.Q.Q.Q.Q.Q.Q.Q.Q.Q.Q.Q.Q.Q.Q.Q.Q.Q.Q.Q.Q.Q.Q.Q.Q.Q.  Q.Q.Q.Q.Q.Q.Q.Q.Q.Q.Q.Q.Q.Q.Q.Q.Q.Q.Q.Q.Q.Q.Q.Q."
};
