/* XPM */
static char *result[] = {
/* columns rows colors chars-per-pixel */
"64 64 186 2 ",
"   c #010101",
".  c #0C0A06",
"X  c #00050A",
"o  c #0C0B0B",
"O  c #090704",
"+  c #100E0B",
"@  c #120E07",
"#  c #14110A",
"$  c #1B160B",
"%  c #000912",
"&  c #000F1D",
"*  c #0D1014",
"=  c #09121C",
"-  c #131313",
";  c #1A1615",
":  c #1C1817",
">  c #1C1B1B",
",  c #241D0E",
"<  c #221E1C",
"1  c #231D12",
"2  c #2C2311",
"3  c #26221F",
"4  c #392E17",
"5  c #332915",
"6  c #3E3219",
"7  c #011122",
"8  c #00152A",
"9  c #0E1C2B",
"0  c #001A34",
"q  c #001E3B",
"w  c #151D24",
"e  c #17222F",
"r  c #132639",
"t  c #242323",
"y  c #2B2522",
"u  c #2F2926",
"i  c #2D2D2D",
"p  c #332D29",
"a  c #202831",
"s  c #2D3032",
"d  c #333333",
"f  c #3D3532",
"g  c #3C3C3C",
"h  c #3E3835",
"j  c #37312E",
"k  c #403319",
"l  c #4C3D1E",
"z  c #45381C",
"x  c #413A36",
"c  c #453D39",
"v  c #544422",
"b  c #5D4B25",
"n  c #4B423E",
"m  c #6A552A",
"M  c #645028",
"N  c #796130",
"B  c #002143",
"V  c #01264C",
"C  c #002E5C",
"Z  c #002A54",
"A  c #1A3046",
"S  c #01386F",
"D  c #003163",
"F  c #003A75",
"G  c #003D7B",
"H  c #27496B",
"J  c #434343",
"K  c #4E4641",
"L  c #4C4C4C",
"P  c #454749",
"I  c #534A46",
"U  c #564D48",
"Y  c #584E49",
"T  c #5C524D",
"R  c #535353",
"E  c #5C5C5C",
"W  c #58585A",
"Q  c #655A54",
"!  c #665B55",
"~  c #6F615C",
"^  c #71645E",
"/  c #4C5D6D",
"(  c #646464",
")  c #6C6C6C",
"_  c #7E6F68",
"`  c #7A6B65",
"'  c #7F7069",
"]  c #737373",
"[  c #7B7B7B",
"{  c #94763B",
"}  c #8A6E37",
"|  c #9F7F40",
" . c #84746D",
".. c #A88643",
"X. c #B69149",
"o. c #CCA352",
"O. c #D8AC56",
"+. c #E3B55B",
"@. c #EBBC5E",
"#. c #E6B85C",
"$. c #F4C362",
"%. c #FFCC66",
"&. c #F8C663",
"*. c #004080",
"=. c #00458B",
"-. c #004A94",
";. c #004D99",
":. c #15589A",
">. c #0B5197",
",. c #235C95",
"<. c #24619E",
"1. c #0053A6",
"2. c #005AB4",
"3. c #005EBB",
"4. c #1762AE",
"5. c #0060BF",
"6. c #0963BD",
"7. c #1B69B8",
"8. c #3169A1",
"9. c #4877A6",
"0. c #527EAA",
"q. c #0062C3",
"w. c #0066CC",
"e. c #066ACD",
"r. c #0A6CCE",
"t. c #106ECB",
"y. c #1271CF",
"u. c #1C77D1",
"i. c #247CD3",
"p. c #2A7FD4",
"a. c #6D89A5",
"s. c #3D8AD8",
"d. c #3486D7",
"f. c #2E81D5",
"g. c #408DD9",
"h. c #5C9DDE",
"j. c #4B93DB",
"k. c #64A2DF",
"l. c #76ABDF",
"z. c #65A3E0",
"x. c #6EA8E2",
"c. c #79AFE4",
"v. c #7CB0E5",
"b. c #838383",
"n. c #8B8B8B",
"m. c #888D93",
"M. c #939393",
"N. c #9A9A9A",
"B. c #9BADBF",
"V. c #A2A2A2",
"C. c #ABABAB",
"Z. c #B4B4B4",
"A. c #BCBCBC",
"S. c #B4B8BB",
"D. c #AEB3B8",
"F. c #90A9C2",
"G. c #A3B2C1",
"H. c #B1BBC5",
"J. c #8DBAE8",
"K. c #88B8E7",
"L. c #91BDE9",
"P. c #B9C2CB",
"I. c #A5C1DC",
"U. c #9CC4EB",
"Y. c #A6C9ED",
"T. c #B1D0EF",
"R. c #B9D5F1",
"E. c #B4D2F0",
"W. c #C4C4C4",
"Q. c #CCCCCC",
"!. c #D3D3D3",
"~. c #DBDBDB",
"^. c #C3CBD3",
"/. c #C5D4E3",
"(. c #C4DCF4",
"). c #CCE1F5",
"_. c #D8E7F6",
"`. c #E4E4E4",
"'. c #EBEBEB",
"]. c #E3EDF6",
"[. c #EAF3FB",
"{. c #F4F4F4",
"}. c #F5F9FD",
"|. c #FFFFFF",
" X c #F0F6FC",
".X c None",
/* pixels */
".X.X.X.X.X.X.X.X.X.X.X.X.X.X.X.X.X.X.X.X.X.X.X.X.X.X.X.X.X.X.X.X.X.X.X.X.X.X.X.X.X.X.X.X.X.X.X.X.X.X.X.X.X.X.X.X.X.X.X.X.X.X.X.X",
".X.X.X.X.X.X.X.X.X.X.X.X.X.X.X.X.X.X.X.X.X.X.X.X.X.X.X.X.X.X.X.X.X.X.X.X.X.X.X.X.X.X.X.X.X.X.X.X.X.X.X.X.X.X.X.X.X.X.X.X.X.X.X.X",
".X.X.X.X.X.X.X.X.X.X.X.X.X.X.X.X.X.X.X.X.X.X.X.X.X.X.X.X.X.X.X.X.X.X.X.X.X.X.X.X.X.X.X.X.X.X.X.X.X.X.X.X.X.X.X.X.X.X.X.X.X.X.X.X",
".X.X.X.X.X.X.X.X.X.X.X.X.X.X.X.X.X.X.X.X.X.X.X.X.X.X.X.X.X.X.X.X.X.X.X.X.X.X.X.X.X.X.X.X.X.X.X.X.X.X.X.X.X.X.X.X.X.X.X.X.X.X.X.X",
".X.X.X.X.X.X.X.X.X.X.X.X.X.X.X.X.X.X.X                .X.X.X.X.X.X.X.X.X.X.X.X.X.X.X.X.X.X.X.X.X.X.X.X.X.X.X.X.X.X.X.X.X.X.X.X.X",
".X.X.X.X.X.X.X.X.X.X.X.X.X.X.X    X & 7 8 0 0 0 8 7 %               .X.X.X.X.X.X.X.X.X.X.X.X.X.X.X.X.X.X.X.X.X.X.X.X.X.X.X.X.X.X",
".X.X.X.X.X.X.X.X.X.X.X.X.X  * B *.1.3.3.3.q.q.q.5.3.2.4.S.V.[ R t o       .X.X.X.X.X.X.X.X.X.X.X.X.X.X.X.X.X.X.X.X.X.X.X.X.X.X.X",
".X.X.X.X.X.X.X.X.X.X.X  o ] I.w.w.w.w.w.w.w.w.w.w.w.w.J.|.|.|.|.}.`.S.E O     .X.X.X.X.X.X.X.X.X.X.X.X.X.X.X.X.X.X.X.X.X.X.X.X.X",
".X.X.X.X.X.X.X.X.X.XO ) `.|.L.2.1.-.=.G G F F =.1.5.y.}.|.|.|.|.|.|.|.|.'.M.>   .X.X.X.X.X.X.X.X.X.X.X.X.X.X.X.X.X.X.X.X.X.X.X.X",
".X.X.X.X.X.X.X.X.X; V.'.Z.] a = * * # : : > ; - * 7 r n.~.|.|.|.|.|.|.|.|.|.~.(     .X.X.X.X.X.X.X.X.X.X.X.X.X.X.X.X.X.X.X.X.X.X",
".X.X.X.X.X.X.X.X  ) a.1 ; p n K I U Y Y Y I T Y I n f 3 o P Q.|.|.|.|.|.|.|.|.|.N.    .X.X.X.X.X.X.X.X.X@ O .X.X.X.X.X.X.X.X.X.X",
".X.X.X.X.X.X.X.X  - , c Y U U U U Y I I I Y I I I I I Y f ; O [ }.|.|.|.|.|.|.|.|.V.O .X.X.X.X.X.X.X.X.XK T .X.X.X.X.X.X.X.X.X.X",
".X.X.X.X.X.X.X    y I Y Y Y U Y Q ! ! Q T T T I T I I Y I c u . ( |.|.|.|.|.|.|.|.|.[   .X.X.X.X.X.X.X  N.0..X.X.X.X.X.X.X.X.X.X",
".X.X.X.X.X.X.X  t n Y I U T `  . . . . . . . .' ~ T U U I n x p   V.|.|.|.|.|.|.|.|.~.i   .X.X.X.X.X.X  !.) .X.X.X.X.X.X.X.X.X.X",
".X.X.X.X.X.X  o f K Y Y !  . . . . . . . . . . . .' Q I I I x f ; y `.|.|.|.|.|.|.|.~.C.. .X.X.X.X.X.Xo |.L .X.X.X.X.X.X.X.X.X.X",
".X.X.X.X.X.X  ; c I Y !  . . . . . . . . . . . . . .' T Y n x x 3   N.|.|.|.|.|.|.|.~.Q.P   .X.X.X.X  P |.g .X.X.X.X.X.X.X.X.X.X",
".X.X.X.X.X.XO y n I I ^ ~ ! T T Y K n n c x c K Y T ! T I n x x t . b.|.|.|.|.|.{.M.E Z.M.  .X.X.X.X  b.{.y .X.X.X.X.X.X.X.X.X.X",
".X.X.X.X.X.Xo u c x < +   O , 5 k k v v b m m m m M 4 O ; h x x 3 o [ |.|.|.|.|.[ t g J Z.> .X.X.X.X  A.~.: .X.X.X.X.X.X.X.X.X.X",
".X.X.X.X.X  . t x <   ..@.%.%.%.%.%.%.%.%.%.%.%.%.%.%.$.} . p f < o M.|.|.|.|.W.- A.W.t C.R .X.X.X.X- `.P.. .X.X.X.X.X.X.X.X.X.X",
".X.X.X.X.X    ; p >   #.%.%.%.%.%.%.%.%.%.%.%.%.%.%.%.%.&.X.$ > < O N.|.|.|.|.( [ Q.!.[ ] ]   .X.X.Xy }.V.  .X.X.X.X.X.X.X.X.X.X",
".X.X.X.X.X    O 3 -   &.%.%.%.%.%.%.%.%.%.%.o.O.%.%.%.%.%.%.6 O :   C.|.|.|.|.t W.!.{.Q.R b.  .X.X.XP |.n.  .X.X.X.X.X.X.X.X.X.X",
".X.X.X.X.X  > n.* # @ %.%...#.%.%.%.%.%.%.%.l v %.%.%.%.%.%.l ] y   Q.|.|.|.~.d Q.{.|.`.J N.O *     ; E g   .X.X.X.X.X.X.X.X.X.X",
".X.X.X.X.X  e '.C.t , %.%.4 N %.%.%.%.%.%.$., , %.%.%.%.%.%.v b.~.] {.|.|.|.A.J Q.{.|.`.J N.L `.~.Z.N.) g o   .X.X.X.X.X.X.X.X.X",
".X.X.X.X.X  1 `.|.[ 2 %.@.$ b %.%.%.%.%.%.@.# @ %.%.%.%.%.%.v b.|.|.|.|.|.|.A.g Q.{.|.~.g M.[ |.|.|.|.|.|.Q.] -   .X.X.X.X.X.X.X",
".X.X.X.X.X.X- Q.|.) 6 %.+.. v %.%.%.%.%.%.+.O   %.%.%.%.%.%.m ] |.|.|.|.|.|.`.t Q.~.|.M.L b.d ) ) [ b.D.`.|.|.{.b.O .X.X.X.X.X.X",
".X.X.X.X.X.X  C.|.E l %.+.. v %.%.%.%.%.%.@.@   %.%.%.%.%.%.m ) |.|.|.|.|.|.|.> Z.Q.`.J ] ( ] ] ) ( L h s R Z.~.Q.i .X.X.X.X.X.X",
".X.X.X.X.X.X  [ |.R v %.$.2 v %.%.%.%.%.%.$.;   %.%.%.%.%.%.m ( |.|.|.|.|.|.|.( L Q.Z.O V.P A.A.W.`.{.|.`...o g S.J .X.X.X.X.X.X",
".X.X.X.X.X.X  J |.R v %.%.....%.%.%.%.%.%.%.b o %.%.%.%.%.%.b ) |.|.|.|.|.|.|.`.d L t E M.          X w A / N.g i ; .X.X.X.X.X.X",
".X.X.X.X.X.X  o |.) 6 %.%.%.%.%.%.%.%.%.%.%.o...%.%.%.%.%.%.v ) |.|.|.|.|.|.|.|.`.] ] W.R n.Z.C.C.V.N.M.) y X >     .X.X.X.X.X.X",
".X.X.X.X.X.X.X  A.N.+ %.$.o.} v l 6 2 , 5 v | +.%.%.%.%.%.$.k ] |.|.|.|.|.|.|.|.~.Q.Q.Z.R |.|.|.{.'.~.Q.Q.C.O R ;   .X.X.X.X.X.X",
".X.X.X.X.X.X.X  R A.  l 1 d R ) ] ] ] ] L + J a X.&.O.{ z O   M.|.|.|.|.|.|.|.'.Q.Q.Q.J Z.|.|.|.|.|.|.{.`.Z.  Q.Q.V.) 3 .X.X.X.X",
".X.X.X.X.X.X.X  . A.J   i N.N.N.N.N.N.N.N.t ..a.o $     o L !.|.|.|.|.|.|.|.'.Q.Q.Q.M.g {.|.|.|.|.|.|.|.|.!.  '.'.!.Q.Z.* .X.X.X",
".X.X.X.X.X.X.X.X  L {.n.d N.M.N.N.N.N.N.N.R W N.- t E N.~.|.|.|.|.|.|.|.|.`.Q.Q.Q.W.> ~.|.|.|.|.|.|.|.|.|.`.* `.|.|.~.Q.3 .X.X.X",
".X.X.X.X.X.X.X.X  O V.C.i N.N.N.N.N.N.N.N.( P b.> Z.|.|.|.|.|.|.|.|.|.{.~.Q.Q.Q.W.J ] |.|.|.|.|.|.|.|.|.|.{.< A.|.|.'.W.; .X.X.X",
".X.X.X.X.X.X.X.X.X  - N.; a.N.N.N.N.N.N.M.L d ( t Q.|.|.|.|.|.|.|.{.~.Q.Q.Q.Q.Q.[ i {.|.|.|.|.{.`.~.!.A.Z.C.d ( '.|.`.A.- .X.X.X",
".X.X.X.X.X.X.X.X.X.XO I p n [ b.b.b. .[ ) > P ( = /.|.|.|.|.|.{.~.Q.Q.Q.Q.Q.Q.M.# !.|.|.`.N.g e - O       o 3 - ; P ( P .X.X.X.X",
".X.X.X.X.X.X.X.X.X.X.X  o - ( ) ) ( ( ) W O W i D K.|.|.{.`.Q.Q.Q.Q.Q.Q.Q.Q.N.- V.|.|.|.!.C.C.V.t P `.'.}.|.|.~.n.  .X.X.X.X.X.X",
".X.X.X.X.X.X.X.X.X.X.X.X    - d g g s s - O * B q.7.^.Q.Q.Q.Q.Q.Q.Q.Q.Q.Q.] . C.|.|.|.|.|.!.Q.Q.[ O A.|.|.|.|.!.[   .X.X.X.X.X.X",
".X.X.X.X.X.X.X.X.X.X.X.X.X    e 0 8 7 7 0 Z G -.-.-.0.Q.Q.Q.Q.Q.Q.Q.Q.Z.P t S.|.|.|.|.|.|.'.Q.Q.W.- E |.|.|.|.Q.R .X.X.X.X.X.X.X",
".X.X.X.X.X.X.X.X.X.X.X.X.X.X  X V =.-.;.-.-.-.-.-.-.>.H.Q.Q.Q.Q.Q.A.[ ; J !.|.|.|.|.|.|.|.|.Q.Q.Q.R - '.|.|.}.Q.g .X.X.X.X.X.X.X",
".X.X.X.X.X.X.X.X.X.X.X.X.X.X.X    X q *.-.-.-.-.-.-.-.<.P.Q.Q.Z.( + p Z.|.|.|.|.|.|.|.|.|.|.`.Q.Q.C.- ] |.|.'.S.; .X.X.X.X.X.X.X",
".X.X.X.X.X.X.X.X.X.X.X.X.X.X.X.X.X    X & B C F G G F F / ~ d 9 / W.{.|.|.|.|.|.|.|.|.|.|.|.}.!.Q.Q.( * {.|.~.M.X .X.X.X.X.X.X.X",
".X.X.X.X.X.X.X.X.X.X.X.X.X.X.X.X.X.X.X.X              % q C =.3.f.R.|.|.|.|.|.|.|.|.|.|.|.|.|.~.Q.Q.C.O C.}.!.)   .X.X.X.X.X.X.X",
".X.X.X.X.X.X.X.X.X.X.X.X.X.X.X.X.X.X.X.X.X.X  [ /.6.q.w.w.w.w.w.w.w.h.}.|.|.|.|.|.|.|.|.|.|.|.{.Q.Q.Q.J c `.Q.g .X.X.X.X.X.X.X.X",
".X.X.X.X.X.X.X.X.X.X.X.X.X.X.X.X.X.X.X.X.X.X  i |.h.w.w.w.i.c.L.k.e.w.h.|.|.|.|.|.|.|.|.|.|.|.|.~.Q.Q.C.O M.Q.> .X.X.X.X.X.X.X.X",
".X.X.X.X.X.X.X.X.X.X.X.X.X.X.X.X.X.X.X.X.X.X.X  Q.).e.w.u.[.|.|.|.E.y.w.Y.|.|.|.|.|.'.[ ) N.Z.Q.~.Q.Q.Q.i J Z.  .X.X.X.X.X.X.X.X",
".X.X.X.X.X.X.X.X.X.X.X.X.X.X.X.X.X.X.X.X.X.X.X  g ].p.w.z.|.|.).].|.R.e.p.|.|.|.|.Z.; E N.n.L o O g M.Q.b.; )   .X.X.X.X.X.X.X.X",
".X.X.X.X.X.X.X.X.X.X.X.X.X.X.X.X.X.X.X.X.X.X.X.X  D.s.w.v.|.Y.y.i.).|.s.w.R.|.|.~.t N.}.|.|.|.Q.M.R d [ W.i + .X.X.X.X.X.X.X.X.X",
".X.X.X.X.X.X.X.X.X.X.X.X.X.X.X.X.X.X.X.X.X.X.X.X  L z.w.h.|.U.w.w.c.|.U.w.h.|.}.d n.|.|.|.|.|.{.`.!.Q.Z.W.]   .X.X.X.X.X.X.X.X.X",
".X.X.X.X.X.X.X.X.X.X.X.X.X.X.X.X.X.X.X.X.X.X.X.X.X. a.w.i. X[.j.w.K.|.).w.d.|.N.; '.|.|.|.|.~.Q.m.Z.Q.Q.Q.C.X .X.X.X.X.X.X.X.X.X",
".X.X.X.X.X.X.X.X.X.X.X.X.X.X.X.X.X.X.X.X.X.X.X.X.X  P p.w.x.|.[.(. X|.E.w.p.|.n.> {.|.|.|.|.~.Q.Z.h M.Q.Q.W.- .X.X.X.X.X.X.X.X.X",
".X.X.X.X.X.X.X.X.X.X.X.X.X.X.X.X.X.X.X.X.X.X.X.X.X    F.e.w.K.|.|.|.}.s.w.e.E.V.  [ |.|.|.|.{.!.Q.M.- M.Q.C.. .X.X.X.X.X.X.X.X.X",
".X.X.X.X.X.X.X.X.X.X.X.X.X.X.X.X.X.X.X.X.X.X.X.X.X.X  J c.w.w.d.J.J.s.w.w.w.t.P.-   A.|.|.|.|.`.Q.Q.( - S.P   .X.X.X.X.X.X.X.X.X",
".X.X.X.X.X.X.X.X.X.X.X.X.X.X.X.X.X.X.X.X.X.X.X.X.X.X    S.c.e.w.w.w.w.w.q.2.;.<.m.O > {.|.|.|.}.!.Q.A.> O   .X.X.X.X.X.X.X.X.X.X",
".X.X.X.X.X.X.X.X.X.X.X.X.X.X.X.X.X.X.X.X.X.X.X.X.X.X.X  n |.(.k.e.w.w.2.;.-.-.-.8.W   P {.|.|.|.{.Q.Q.)   .X.X.X.X.X.X.X.X.X.X.X",
".X.X.X.X.X.X.X.X.X.X.X.X.X.X.X.X.X.X.X.X.X.X.X.X.X.X.X    C.|.|._.4.-.-.-.-.-.;.;.9.L   b.|.|.|.|.`.Q.A.  .X.X.X.X.X.X.X.X.X.X.X",
".X.X.X.X.X.X.X.X.X.X.X.X.X.X.X.X.X.X.X.X.X.X.X.X.X.X.X.X  > }.|.~.B.:.-.-.-.-.-.-.-.9.i   [ |.|.|.{.Q.Q.i .X.X.X.X.X.X.X.X.X.X.X",
".X.X.X.X.X.X.X.X.X.X.X.X.X.X.X.X.X.X.X.X.X.X.X.X.X.X.X.X    V.}.Q.!.B.>.-.-.-.-.-.-.-.,.w O ) {.|.{.!.Q.P   .X.X.X.X.X.X.X.X.X.X",
".X.X.X.X.X.X.X.X.X.X.X.X.X.X.X.X.X.X.X.X.X.X.X.X.X.X.X.X.X  t !.!.Q.Q.B.:.-.-.-.-.S V %       J A.Q.A.( O .X.X.X.X.X.X.X.X.X.X.X",
".X.X.X.X.X.X.X.X.X.X.X.X.X.X.X.X.X.X.X.X.X.X.X.X.X.X.X.X.X.X  ; V.Q.W.N.m.H A e ; t t h g -     O R o   .X.X.X.X.X.X.X.X.X.X.X.X",
".X.X.X.X.X.X.X.X.X.X.X.X.X.X.X.X.X.X.X.X.X.X.X.X.X.X.X.X.X.X.X  O d ] C.Q.Q.W.W.W.!.Q.Q.Q.(   .X    .X.X.X.X.X.X.X.X.X.X.X.X.X.X",
".X.X.X.X.X.X.X.X.X.X.X.X.X.X.X.X.X.X.X.X.X.X.X.X.X.X.X.X.X.X.X.X.X    o R N.W.Q.Q.Q.Q.Q.Q.)   .X.X.X.X.X.X.X.X.X.X.X.X.X.X.X.X.X",
".X.X.X.X.X.X.X.X.X.X.X.X.X.X.X.X.X.X.X.X.X.X.X.X.X.X.X.X.X.X.X.X.X.X.X      O g n.Z.A.C.P   .X.X.X.X.X.X.X.X.X.X.X.X.X.X.X.X.X.X",
".X.X.X.X.X.X.X.X.X.X.X.X.X.X.X.X.X.X.X.X.X.X.X.X.X.X.X.X.X.X.X.X.X.X.X.X.X.X.X    * - O   .X.X.X.X.X.X.X.X.X.X.X.X.X.X.X.X.X.X.X"
};
