/* XPM */
static char *result[] = {
/* columns rows colors chars-per-pixel */
"64 64 115 2 ",
"   c black",
".  c gray5",
"X  c #0F0F10",
"o  c #151516",
"O  c #171718",
"+  c #1D1E1E",
"@  c #242526",
"#  c #262728",
"$  c #2C2E2F",
"%  c #313232",
"&  c #393A3B",
"*  c #193A5B",
"=  c #003366",
"-  c #02366B",
";  c #013B76",
":  c #324E6B",
">  c #3F5367",
",  c #404141",
"<  c #474849",
"1  c #4B4C4D",
"2  c #4D4F51",
"3  c #4F5253",
"4  c #535354",
"5  c #55585A",
"6  c #5B5B5C",
"7  c #5E6368",
"8  c #546474",
"9  c #626466",
"0  c #646668",
"q  c #67696C",
"w  c #686B6E",
"e  c #6C6E71",
"r  c #6E7173",
"t  c #727476",
"y  c #76797B",
"u  c #7B7C7C",
"i  c #07519B",
"p  c #0255A9",
"a  c #005EBC",
"s  c #257CB3",
"d  c #7A7E83",
"f  c #0262C3",
"g  c #0064C8",
"h  c #0C6DCE",
"j  c #176EC5",
"k  c #2D81B5",
"l  c #3082B6",
"z  c #7E8185",
"x  c #7E8489",
"c  c #5695BC",
"v  c #5896BC",
"b  c #6589AC",
"n  c #708AA5",
"m  c #4E95C1",
"M  c #5E9EC6",
"N  c #609FC7",
"B  c #7AA7C3",
"V  c #77ADCF",
"C  c #66A3E0",
"Z  c #838384",
"A  c #828689",
"S  c #868A8D",
"D  c #8D8D8D",
"F  c #858C93",
"G  c #8B8E90",
"H  c #8E9296",
"J  c #8D949A",
"K  c #949697",
"L  c #91969A",
"P  c #969A9E",
"I  c #9B9B9B",
"U  c #8693A1",
"Y  c #959BA1",
"T  c #999EA2",
"R  c #9EA1A4",
"E  c #A2A3A4",
"W  c #A2A6AA",
"Q  c #A5A9AD",
"!  c #AAACAE",
"~  c #A7ABB0",
"^  c #ABAEB1",
"/  c #ACB1B5",
"(  c #AFB3B8",
")  c #B0B0B0",
"_  c #B1B5BA",
"`  c #BDBDBD",
"'  c #86ADC5",
"]  c #92B3C7",
"[  c #BABFC3",
"{  c #BDC2C7",
"}  c #B5C4CD",
"|  c #BEC3C8",
" . c #BEC9CF",
".. c #C3C3C3",
"X. c #C1C6CB",
"o. c #C4C9CE",
"O. c #CBCBCB",
"+. c #C7CCD1",
"@. c #C8CED3",
"#. c #CDD1D6",
"$. c #CED3D9",
"%. c #D3D3D3",
"&. c #D4D9DF",
"*. c #D8D8D8",
"=. c #D6DCE1",
"-. c #DADFE5",
";. c #CFE0EB",
":. c #DBE0E6",
">. c #DEE4EA",
",. c #E3E3E3",
"<. c #ECECEC",
"1. c #EFF3F6",
"2. c #F3F3F3",
"3. c #FFFFFF",
"4. c None",
/* pixels */
"4.4.4.4.4.4.4.4.4.4.4.4.4.4.4.4.4.4.4.4.4.4.4.4.4.4.4.4.4.4.4.4.4.4.4.4.4.4.4.4.4.4.4.4.4.4.4.4.4.4.4.4.4.4.4.4.4.4.4.4.4.4.4.4.",
"4.4.4.4.4.4.4.4.4.4.4.4.4.  & < 1 3 3 X 4.4.4.4.4.4.4.4.4.4.4.4.4.4.4.4.4.4.4.4.4.4.4.4.O < 1 1 2 ,   4.4.4.4.4.4.4.4.4.4.4.4.4.",
"4.4.4.4.4.4.4.4.4.4.4.4.4.O X._ R R @.5   4.4.4.4.4.4.4.4.4.4.4.4.4.4.4.4.4.4.4.4.4.4.  q @.R R / { . 4.4.4.4.4.4.4.4.4.4.4.4.4.",
"@ # @ @ @ # @ @ $ $ $ $ + z >.$.| X.>.| + $ $ $ $ $ $ $ $ $ $ $ $ $ $ $ $ $ $ $ $ $ $ + #.>. .X.#.>.w @ $ $ $ $ $ $ $ $ $ $ $ $ ",
"T T T T T T T T ~ ~ ~ ~ W $.>.>.>.>.>.>.R ~ ~ ~ ~ ~ ~ ~ ~ ~ ~ ~ ~ ~ ~ ~ ~ ~ ~ ~ ~ ~ ~ ~ >.>.>.>.>.>.@.W Q ~ ~ ~ ~ ~ ~ ~ ~ ~ ~ ~ ",
">.>.>.>.>.>.>.>.>.>.>.>.>.>.>.>.>.>.>.>.>.>.>.>.>.>.>.>.>.>.>.>.>.>.>.>.>.>.>.>.>.>.>.>.>.>.>.>.>.>.>.>.>.>.>.>.>.>.>.>.>.>.>.>.",
">.>.>.>.>.>.>.>.>.>.>.>.>.>.>.>.>.>.>.>.>.>.>.>.>.>.>.>.>.>.>.>.>.>.>.>.>.>.>.>.>.>.>.>.>.>.>.>.>.>.>.>.>.>.>.>.>.>.>.>.>.>.>.>.",
">.>.>.>.>.>.>.>.>.>.>.>.>.>.>.>.>.>.>.>.>.>.>.>.>.>.$.T z S S Z d y r y ( >.>.>.>.>.>.>.>.>.>.>.>.>.>.>.>.>.>.>.>.>.>.>.>.>.>.>.",
">.>.>.>.>.>.>.>.>.>.>.>.>.>.>.>.>.>.>.>.>.>.>.>.,._ 4 4 I ^ ) ) ^ ! I Z 9 Z =.>.>.>.>.>.>.>.>.>.>.>.>.>.>.>.>.>.>.>.>.>.>.>.>.>.",
">.>.>.>.>.>.>.>.>.>.>.>.>.>.>.>.>.>.>.>.>.>.>.>.~ 9 ,.3.3.<.J b n [ 3.3.3.*., >.>.>.>.>.>.>.>.>.>.>.>.>.>.>.>.>.>.>.>.>.>.>.>.>.",
">.>.>.>.>.>.>.>.>.>.>.>.>.>.>.>.>.>.>.>.>.>.>.:.z ^ 3.3.2.: g h C i A 3.3.2.1 { >.>.>.>.>.>.>.>.>.>.>.>.>.>.>.>.>.>.>.>.>.>.>.>.",
">.>.>.>.>.>.>.>.>.>.>.>.>.>.>.>.>.>.>.>.>.>.>.+.e E 3.3.O.; a f j p 8 3.3.<.1 E >.>.>.>.>.>.>.>.>.>.>.>.>.>.>.>.>.>.>.>.>.>.>.>.",
">.>.>.>.>.>.>.>.>.>.>.>.>.>.>.>.>.>.>.>.>.>.>.| e E 3.3.2.P * = - > ,.3.3.,.1 Q >.>.>.>.>.>.>.>.>.>.>.>.>.>.>.>.>.>.>.>.>.>.>.>.",
">.>.>.>.>.>.>.>.>.>.>.>.>.>.>.>.>.>.>.>.>.>.>.{ e K O.2.2.2.3.<.2.3.<.,.,...4 Q >.>.>.>.>.>.>.>.>.>.>.>.>.>.>.>.>.>.>.>.>.>.>.>.",
">.>.>.>.>.>.>.>.>.>.>.>.>.>.>.>.>.>.>.>.>.>.>.| u , D D t I I I I K I t Z 9 % Q >.>.>.>.>.>.>.>.>.>.>.>.>.>.>.>.>.>.>.>.>.>.>.>.",
">.>.>.>.>.>.>.>.>.>.>.>.>.>.>.>.>.>.>.>.>.>.>.+.P e < 6 9 u y u u u u 6 , 1 A ^ >.>.>.>.>.>.>.>.>.>.>.>.>.>.>.>.>.>.>.>.>.>.>.>.",
">.>.>.>.>.>.>.>.>.>.>.>.>.>.>.>.>.>.>.>.>.>.>.:.@.W T x q q q q q q q r G T Q @.>.>.>.>.>.>.>.>.>.>.>.>.>.>.>.>.>.>.>.>.>.>.>.>.",
">.>.>.>.>.>.>.>.>.>.>.>.>.>.>.>.>.>.>.>.>.>.>.>.>.>.#.{ / Q Q Q Q Q ~ ( | $.>.>.>.>.>.>.>.>.>.>.>.>.>.>.>.>.>.>.>.>.>.>.>.>.>.>.",
">.>.>.>.>.>.>.>.>.>.>.>.>.>.>.>.>.>.>.>.>.>.>.>.>.>.>.>.>.>.>.>.>.>.>.>.>.>.>.>.>.>.>.>.>.>.>.>.>.>.>.>.>.>.>.>.>.>.>.>.>.>.>.>.",
">.>.>.>.>.>.>.>.>.>.>.>.>.>.>.>.>.>.>.>.>.>.>.>.>.>.>.>.>.>.>.>.>.>.>.>.>.>.>.>.>.>.>.>.>.>.>.>.>.>.>.>.>.>.>.>.>.>.>.>.>.>.>.>.",
"G L H H J H L H S S S S S S S F S F S A S S A S H H H H S S A x x A A A Z x A A A A A A A A A A A A A A A A A A A A A A A A A A ",
"L [ [ X.[ { [ X.{ { | { | | X.| { | X.{ | | @.#.#.$.$.$.$.#.H 9 0 7 7 9 9 7 9 9 e t t t t t t t t t t r t t t t t t t t t t r t ",
"~ >.>.>.>.>.>.>.>.>.>.>.>.>.,.>.>.>.>.>.>.>.>.>.>.>.>.>.>.>.Y 9 K Q Q ! ! ^ ^ ^ ! ^ ^ ^ ^ ^ ^ ^ ^ ^ ^ ^ ^ ^ ^ ^ ^ ^ ^ ^ ^ ^ ^ ^ ",
"~ >.>.>.>.>.>.>.>.>.>.:.+.| { { o.:.>.>.>.>.>.>.>.>.>.>.>.>.R 9 T ^ ^ ^ ^ ^ ^ ^ ^ ^ ^ ^ ^ ^ ^ ^ ^ ^ ^ ^ ^ ^ ^ ^ ^ ^ ^ ^ ^ ^ ^ ^ ",
"~ >.>.>.>.>.>.>.>.>.~ d e e r u P @.>.>.>.>.>.>.>.>.>.-.>.>.Y 9 R ^ ^ ^ ^ ^ ^ ^ ^ ^ ^ ^ ^ ^ ^ ^ ^ ^ ^ ^ ^ ^ ^ ^ ^ ^ ^ ^ ^ ^ ^ ^ ",
"~ >.>.>.>.>.>.>.>._ 9 ! E E K , e Q >.>.>.>.>.>.>.>.>.>.>.>.T 7 R ^ ^ ^ ^ ^ ^ ^ ^ ^ ^ ^ ^ ^ ^ ^ ^ ^ ^ ^ ^ ^ ^ ^ ^ ^ ^ ^ ^ ^ ^ ^ ",
"Q >.>.>.>.>.>.>.$.4 ,.3.3.3.O.D < Y #.>.>.>.>.>.>.>.>.>.:.>.T 9 T ^ ^ ^ ^ ^ ^ ^ ^ ^ ^ ^ ^ ^ ^ ^ ^ ^ ^ ^ ^ ^ ^ ^ ^ ^ ^ ^ ^ ^ ^ ^ ",
"~ >.>.>.>.>.>.>.T 4 3.3.3.3.2.D 6 A [ >.>.>.>.>.>.>.>.>.>.>.T 9 Y ^ ^ ^ ^ ^ ^ ^ ^ ^ ^ ^ ^ ^ ^ ^ ^ ^ ^ ^ ^ ^ ^ ^ ^ ^ ^ ^ ^ ^ ^ ^ ",
"~ >.>.-.>.>.>.>.A I 3.2.O.2.2.t 9 w ^ >.>.>.>.>.>.>.>.>.>.>.T 9 L ^ ^ ^ ^ ^ ^ ^ ^ ^ ^ ^ ^ ^ ^ ^ ^ ^ ^ ^ ^ ^ ^ ^ ^ ^ ^ ^ ^ ^ ^ ^ ",
"~ >.>.>.>.>.>.>.S ) <.: ; Y 2.T u q Q >.>.>.>.>.>.>.>.>.>.>.R 9 H ^ ^ ^ ^ ^ ^ ^ ^ ^ ^ ^ / ^ ^ ^ ^ ^ ^ ^ ^ ^ ^ ^ ^ ^ ^ ^ ^ ^ ^ ^ ",
"~ >.>.>.>.>.>.>.S ) U g a * 3.I u q Q >.>.>.>.>.>.>.>.>.>.>.I 9 F ^ ^ ^ ^ ^ ^ ^ ^ ^ ^ ^ ^ ^ ^ ^ ^ ^ ^ ^ ^ ^ ^ ^ ^ ^ ^ ^ ^ ^ ^ ^ ",
"~ >.>.>.>.>.>.>.Z ) b h f = <.I u q Q >.>.>.>.>.>.>.>.>.>.>.T 9 x ~ ^ ^ ^ ^ ^ ^ ^ ^ ^ ^ ^ ^ ^ ^ ^ ^ ^ ^ ^ ^ ^ ^ ^ ^ ^ ^ ^ ^ ^ ^ ",
"Q >.>.>.>.>.>.>.u ) n C j = 2.I u q W >.>.>.>.>.>.>.>.>.>.>.R 0 d ^ ^ ^ ^ ^ ^ ^ ^ ^ ^ ^ ^ ^ ^ ^ ^ ^ ^ ^ ^ ^ ^ ^ ^ ^ ^ ^ / ^ ^ ^ ",
"! >.>.>.>.>.>.>.y Q [ i p > 3.I u q Q >.>.>.>.>.>.>.>.>.>.>.P 9 d ^ ^ ^ ^ ^ ^ ^ ^ ^ ^ ^ ^ ^ ^ ^ ^ ^ ^ ^ ^ ^ ^ ^ ^ ^ ^ ^ ! ^ ^ ^ ",
"~ >.>.>.>.>.>.>.t I 3.A 8 ,.<.I u q ~ >.>.>.>.>.>.>.>.>.:.>.Y 0 x ^ ^ ^ ^ ^ ^ ^ ^ ^ ^ / ^ ^ ^ ^ ^ ^ ^ ^ ^ ^ ^ ^ ^ ^ ^ ^ ^ ^ ^ ^ ",
"~ >.>.>.>.>.>.>.y Z 3.3.3.3.,.t 6 r { >.>.>.>.>.>.>.>.>.>.>.R 9 J ^ ^ ^ ^ ^ ^ ^ ^ ^ ^ ^ ^ ^ ^ ^ ^ ^ ^ ^ ^ ^ ^ ^ ^ ^ ^ ^ ^ ^ ^ ^ ",
"~ >.>.>.>.>.>.>._ 0 3.3.3.3.,.Z , G @.>.>.>.>.>.>.>.>.>.>.>.R 0 J ^ ^ ^ ^ ^ ^ ^ ^ ^ ^ ^ ^ ^ ^ ^ ^ ^ ^ ^ ^ ^ ^ ^ ^ ^ ^ ^ ^ ^ ^ ^ ",
"~ >.>.>.>.>.>.>.>.d *.2.<.,...9 3 R =.>.>.>.>.>.>.>.>.>.>.>.Y 9 J ^ ^ ^ ^ ^ ^ ^ ^ ^ ^ ^ ^ ^ ^ ^ ^ ^ ^ ^ ^ ^ ^ ^ ^ ^ ^ ^ ^ ^ ^ ^ ",
"~ >.>.>.>.>.>.>.>.&., 1 3 1 4 % x W >.>.>.>.>.>.>.>.>.>.>.>.R 0 H ^ ^ ^ ^ ^ ^ ^ ^ ^ ^ ^ ^ ^ ^ ^ ^ ^ ^ ^ ^ ^ ^ ^ ^ ^ ^ ^ ^ ^ ^ / ",
"~ >.>.>.>.>.>.>.>.>.>.[ W W W Q / +.>.>.>.>.>.>.>.>.>.>.>.>.Y 9 J ^ ^ ^ ^ ^ ^ ^ ^ ^ ^ ^ ^ ^ ^ ^ ^ ^ ^ ^ ^ ^ ^ ^ ^ ^ ^ ^ ^ ^ ^ ! ",
"~ >.>.>.>.>.>.>.>.>.>.>.>.>.>.>.>.>.>.>.>.>.>.>.>.>.>.>.>.>.P 0 Y ^ ^ ^ ^ ^ ^ ^ ^ ^ ^ ^ ^ ^ ^ ^ ^ ^ ^ ^ ^ ^ ^ ^ ^ / ^ ^ ^ ^ ^ ^ ",
"~ >.>.>.>.>.>.>.>.>.>.>.>.>.>.>.>.>.>.>.>.>.>.>.>.>.>.>.>.>.R 0 P ^ ^ ^ ^ ^ ^ ^ ^ ^ ^ ^ ^ ^ ^ ^ ^ ^ ^ ! ^ ^ ^ ^ ^ ! ^ ^ ^ ^ ^ ^ ",
"~ >.>.>.>.>.>.>.>.>.>.>.>.>.>.>.>.>.>.>.>.>.>.>.>.>.>.>.>.>.R 9 L ^ ^ ^ ^ ^ ^ ^ ^ ^ ^ ^ ^ ^ ^ ^ ^ ^ ^ / ^ ^ ^ ^ ^ ^ ^ ^ ^ ) ^ ^ ",
"^ >.>.>.>.>.>.>.>.>.>.>.>.>.>.>.>.>.>.>.>.>.>.>.>.>.>.>.>.>.Y 0 J ^ ^ ^ ^ ^ ^ ^ ^ ^ ^ ^ ^ ^ ^ ^ ^ ^ ^ ^ ^ ^ ^ ^ ^ ^ ^ ^ ^ ! ! / ",
">.>.>.>.>.>.>.>.>.>.>.>.>.>.>.>.>.>.>.>.>.>.>.>.>.>.>.>.>.>.R 0 H ^ ^ ^ ^ ^ ^ ^ ^ ^ ^ ^ ^ ^ ^ ^ ^ ^ ^ ^ ^ / ! ^ ^ ^ ^ ^ ^ ^ ^ ^ ",
">.>.>.>.>.>.>.>.>.>.>.>.>.>.>.>.>.>.>.>.>.>.>.>.>.>.>.>.>.>.Y 0 F ^ ^ ^ ^ ^ ^ ^ ^ ^ ^ ^ ^ ^ ^ ^ ^ ^ ^ ^ ^ ^ ^ ^ ^ ^ ^ ^ ^ ^ ^ ^ ",
">.>.>.>.>.>.>.>.>.>.>.>.>.>.>.>.>.>.>.>.>.>.>.>.>.>.>.>.>.>.P 0 F ~ ^ ^ ^ ^ ^ ^ ^ ^ ^ ^ ^ ^ ^ ^ ^ ! ^ ^ ^ ^ ^ ^ ^ ^ / ! ^ ^ ^ ^ ",
">.>.>.>.>.>.>.>.>.>.>.>.>.>.>.>.>.>.>.>.>.>.>.>.>.>.>.>.>.>.R 0 F ~ ^ ^ ^ ^ ^ ^ ^ ^ ^ ^ ^ ^ ^ ^ ^ / ^ ^ ^ ^ ^ ^ ^ ^ ^ ^ ^ ^ ^ ^ ",
">.>.>.>.>.>.>.>.>.>.>.>.>.>.>.>.>.>.>.>.>.>.>.>.>.>.>.>.>.>.R 0 F ^ ^ ^ ^ ^ ^ ^ ^ ^ ^ ^ / ! ! / ^ ^ ^ ^ ^ ^ ^ ^ ^ ^ ^ ^ ^ ^ ^ ^ ",
">.>.>.>.>.>.>.>.>.>.>.>.>.>.>.>.>.>.>.>.>.>.>.>.>.>.>.>.>.>.Y 0 F ^ ^ ^ ^ ^ ^ ^ ^ ^ ^ ^ ! / ! ! ^ ^ ^ ^ ^ ^ ^ ^ ^ ^ ^ ^ ^ ^ ^ ^ ",
"+.>.>.>.>.>.>.>.>.>.>.>.>.>.>.>.>.>.>.>.>.>.>.>.>.>.>.>.>.>.R 0 F ^ ^ ^ ^ ^ ^ ^ ^ ^ ^ ^ / ! ! / ^ ^ ^ ^ ^ ^ ^ ^ ^ ^ ^ ^ ^ ^ ^ ^ ",
"W >.>.>.>.>.>.>.>.>.>.>.>.>.>.>.>.>.>.>.>.>.>.>.>.>.>.>.>.>.Y 0 F ~ ^ ^ ^ ^ ^ ^ ^ ^ ! / ^ ^ / ! ^ ^ ^ ^ ^ ^ ^ ^ ^ ^ ^ ^ ^ ^ ^ ^ ",
"~ >.>.>.>.>.>.>.>.>.>.>.>.>.>.>.>.>.>.>.>.>.>.>.>.>.>.>.>.>.Y 0 J ~ ^ ^ ^ ^ ^ ^ ^ ^ ^ ^ / ! / / ^ ^ ^ ^ ^ ^ ^ ^ ^ ^ ^ ^ ^ ^ ^ ^ ",
"~ >.>.>.>.>.>.>.>.>.>.>.>.>.>.>.>.>.>.>.>.>.>.>.>.>.>.>.>.>.T q J ~ ^ ^ ^ ^ ^ ^ ^ ^ ^ ^ ! / ! ! ^ ^ ^ ^ ^ ^ ^ ^ ^ ^ ^ ^ ^ ^ ^ ^ ",
"~ >.>.>.>.>.>.>.>.>.>.>.>.>.>.>.>.>.>.>.>.>.>.>.>.>.>.>.>.>.R 9 U ^ ^ ^ ^ ^ ^ ^ ^ ^ / ! ! ! ! ! ! ! ! Q ! ^ ^ ^ ^ ^ ^ ^ ^ ^ ^ ^ ",
"~ >.>.>.>.>.>.>.>.>.>.>.>.>.>.>.>.>.>.>.>.>.>.>.>.>.>.>.>.>.Y q Y ^ ^ ^ ^ ^ ^ ^ ^ ^ E I P K H D H D D G G Q ^ ^ ^ ^ ^ ^ ^ ^ ^ ^ ",
"~ >.>.>.>.>.>.>.>.>.>.>.>.>.>.>.>.>.>.>.>.>.>.>.>.>.>.>.>.>.R 0 Y ^ ^ ^ ^ ^ ^ ^ ! 6 Z Z Z Z Z Z Z Z Z Z u 2 ! ^ ^ ^ ^ ^ ^ ^ ^ ^ ",
"~ >.>.>.>.>.>.>.>.>.>.>.>.>.>.>.>.>.>.>.>.>.>.>.>.>.>.>.>.>.Y 0 Y ^ ^ ^ ^ ^ ^ ^ E 1 O...` ` ` ` ` ` ` O...% W ^ ^ ^ ^ ^ ^ ^ ^ ^ ",
"~ >.>.>.>.>.>.>.>.>.>.>.>.>.>.>.>.>.>.>.>.>.>.>.>.>.>.>.>.>.T 9 Y ^ ^ ^ ^ ^ ^ ^ P 1 ....` ` ` ` ` ` ` O...$ Q ^ ^ ^ ^ ! ^ ^ ^ ^ ",
"~ >.>.>.>.>.>.>.>.>.>.>.>.>.>.>.>.>.>.>.>.>.>.>.>.>.>.>.>.>.T q Y / ^ ^ ^ ^ ^ ^ K 1 %.%.*.@.' B { %.%.%...$ ^ ^ ^ ^ ^ / ^ ^ ^ ^ ",
"~ >.>.>.>.>.>.>.>.>.>.>.>.>.>.>.>.>.>.>.>.>.>.>.>.>.>.>.>.>.T 9 J ^ ^ ^ ^ ^ ^ ^ D < O.%.#.c m V k  .%.%.` % ! ^ ^ ^ ^ ^ ^ ! ^ ^ ",
"~ >.>.>.>.>.>.>.>.>.>.>.>.>.>.>.>.>.>.>.>.>.>.>.>.>.>.>.>.>.T 0 R ^ ^ ^ ^ ^ ^ ^ D 1 O.%.#.s ;.1.N ] %.%...$ ) ^ ^ ^ ^ / ^ / ^ ^ ",
"~ >.>.>.>.>.>.>.>.>.>.>.>.>.>.>.>.>.>.>.>.>.>.>.>.>.>.>.>.>.T 0 ^ ^ ! ! E I T T Z < O.%.#.s ;.1.N ] %.%.` $ T I T T T I T I T T ",
"~ >.>.>.>.>.>.>.>.>.>.>.>.>.>.>.>.>.>.>.>.>.>.>.>.>.>.>.>.>.T 0 ^ ^ P 6 & & & & $ 1 ..%.%.v c V l  .%.%.) $ & & & & & & & & & & "
};
