/* XPM */
static char *result[] = {
/* columns rows colors chars-per-pixel */
"64 64 146 2 ",
"   c #161616",
".  c #191919",
"X  c #1B1F23",
"o  c #232526",
"O  c #2E2E2F",
"+  c #313232",
"@  c #3C3D3E",
"#  c #193A5B",
"$  c #3B3E41",
"%  c #003366",
"&  c #02366B",
"*  c #013B76",
"=  c #3A4753",
"-  c #324E6B",
";  c #3F5367",
":  c #424244",
">  c #474849",
",  c #494A4A",
"<  c #4C4E50",
"1  c #4F5152",
"2  c #535455",
"3  c #575858",
"4  c #5B5B5D",
"5  c #485969",
"6  c #546474",
"7  c #5C6671",
"8  c #5D6874",
"9  c #636466",
"0  c #646668",
"q  c #67696C",
"w  c #686A6D",
"e  c #6A6F73",
"r  c #6A7076",
"t  c #67727C",
"y  c #6A7279",
"u  c #727374",
"i  c #73787D",
"p  c #7B7B7C",
"a  c #07519B",
"s  c #3B5E81",
"d  c #386086",
"f  c #3A648E",
"g  c #3B6792",
"h  c #3D6B97",
"j  c #3F6D99",
"k  c #0255A9",
"l  c #005EBC",
"z  c #257CB3",
"x  c #436D97",
"c  c #46729D",
"v  c #7A7E82",
"b  c #4272A2",
"n  c #4975A0",
"m  c #4D7AA7",
"M  c #4577A9",
"N  c #477BAE",
"B  c #507EAB",
"V  c #487CB0",
"C  c #0064C8",
"Z  c #0768C9",
"A  c #176EC5",
"S  c #2A80B5",
"D  c #3786B7",
"F  c #3886B7",
"G  c #3C88B7",
"H  c #3786B9",
"J  c #7F8285",
"K  c #7B8289",
"L  c #4A81B6",
"P  c #4D85BD",
"I  c #4791BF",
"U  c #5092BB",
"Y  c #6589AC",
"T  c #708AA5",
"R  c #4E87C0",
"E  c #4F88C1",
"W  c #508BC5",
"Q  c #528ECA",
"!  c #5F9FC7",
"~  c #5390CC",
"^  c #5A97D1",
"/  c #5E9AD3",
"(  c #649DD7",
")  c #62A0C7",
"_  c #6EA8CC",
"`  c #79AECF",
"'  c #6AA3DA",
"]  c #70A8DF",
"[  c #66A3E0",
"{  c #77AEE4",
"}  c #7AB0E6",
"|  c #808284",
" . c #838689",
".. c #85898D",
"X. c #8A8C8D",
"o. c #858C93",
"O. c #8B8E90",
"+. c #899199",
"@. c #969696",
"#. c #969A9D",
"$. c #9A9A9A",
"%. c #8693A1",
"&. c #999EA2",
"*. c #9DA0A4",
"=. c #9FA3A8",
"-. c #A3A3A4",
";. c #A2A5A8",
":. c #A5A9AC",
">. c #AAABAD",
",. c #A7ABB0",
"<. c #ABAEB1",
"1. c #ABB0B4",
"2. c #B1B1B1",
"3. c #B1B6BA",
"4. c #BCBCBC",
"5. c #83AAC3",
"6. c #8AAEC4",
"7. c #92B3C7",
"8. c #83B3D2",
"9. c #88B7D4",
"0. c #8EBAD6",
"q. c #93BDD8",
"w. c #BABEC2",
"e. c #BDC2C7",
"r. c #B5C4CD",
"t. c #BEC4CA",
"y. c #C3C3C3",
"u. c #C4CBCF",
"i. c #CCCCCC",
"p. c #C6CCD0",
"a. c #C9CED3",
"s. c #CED1D4",
"d. c #CED3D9",
"f. c #D2D2D3",
"g. c #D4D9DF",
"h. c #D8D8D8",
"j. c #DADFE5",
"k. c #CFE0EB",
"l. c #DBE0E6",
"z. c #DEE4EA",
"x. c #DEE9F0",
"c. c #E3E3E3",
"v. c #ECECEC",
"b. c #EDF2F6",
"n. c #F3F3F3",
"m. c #FFFFFF",
/* pixels */
"1 :.<.<.<.<.<.<.<.<.<.<.<.<.<.<.<.<.<.<.<.<.<.<.<.<.<.<.>.<.<.<.4 ;.z.z.z.z.z.z.z.z.z.z.z.z.z.z.z.z.z.z.z.z.z.z.z.z.z.z.z.z.z.&.",
"1 :.<.<.<.<.<.<.:.@                                   . = =.<.<.4 ;.z.z.z.z.z.z.z.z.z.z.z.z.z.z.z.z.z.z.z.z.z.z.z.z.z.z.z.z.z.&.",
"1 :.<.<.<.<.<.;.< d ~ ~ ~ ~ ~ ~ ~ ~ ~ ~ ~ ~ ~ ~ ~ ~ ~ ~ f O X.<.4 =.z.z.z.z.z.z.z.z.z.z.z.z.z.z.z.z.z.z.z.z.z.z.z.z.z.z.z.z.z.#.",
"1 :.<.<.<.<.<.p s Q ~ ~ ~ ~ ~ ~ Q ~ ~ ~ ~ ~ ~ ~ ~ ~ ~ ~ Q M = @.4 =.z.z.z.z.z.z.z.z.z.z.z.z.z.z.z.z.z.z.z.z.z.z.z.z.z.z.z.z.z.*.",
"1 :.<.<.<.<.<.8 M ~ E M L ~ ~ ~ ~ ~ ~ ~ ~ ~ ~ ~ ~ ~ { / ~ ~ x v 4 ;.z.z.z.z.z.z.z.z.z.z.z.z.z.z.z.z.z.z.z.z.z.z.z.z.z.z.z.z.z.&.",
", :.<.<.<.<.<.8 M ~ M h R ~ ~ ~ ~ ~ ~ ~ Q ~ ~ ~ ~ ~ [ { / ~ x i 4 =.z.z.z.z.z.z.z.z.z.z.z.z.z.z.z.z.z.z.z.z.z.z.z.z.z.z.z.z.z.&.",
"2 :.<.<.<.<.<.8 M L g N Q ~ ~ ~ ~ ~ ~ ~ ~ ~ ~ ~ ~ ~ ^ } ' ~ c i 4 =.z.z.z.z.z.z.z.z.z.z.z.z.z.z.z.z.z.z.z.z.z.z.z.z.z.z.z.z.z.&.",
", >.<.<.<.<.<.8 N j h P ~ ~ ~ ~ ~ ~ ~ ~ ~ ~ ~ ~ ~ ~ ~ ' } ~ x i 4 =.z.z.z.z.z.z.z.z.z.x.z.z.z.z.z.z.z.z.z.z.z.z.z.z.z.z.z.z.z.&.",
"> ;.<.2.<.>.<.8 M M h P ~ ~ ~ ~ ~ ~ ~ ~ ~ Q ~ ~ ~ ~ ^ ' } ~ x i 9 *.z.z.z.z.z.z.z.z.z.z.z.z.z.z.z.z.z.z.z.z.z.z.z.z.z.z.z.z.z.>.",
"+ u i p X.:.<.8 N j h R ~ ~ ~ ~ ~ ~ ~ ~ ~ ~ ~ ~ ~ ~ ~ ' } ~ x i 9 *.z.z.z.z.z.z.z.z.z.z.z.z.z.z.z.z.z.z.z.z.z.z.z.z.z.z.z.z.z.,.",
"4 4 4 0 9 2 ;.8 M b h E ~ ~ ~ ~ ~ ~ ~ ~ ~ ~ ~ ~ ~ ~ ~ ' } ~ x i 9 &.z.z.k.z.z.z.z.z.z.z.z.z.z.z.z.z.z.z.z.z.z.z.z.z.z.z.z.z.z.,.",
"f.f.f.f.y.$...8 M b h E ~ ~ ~ ~ ~ ~ ~ ~ ~ ~ ~ ~ ~ ~ ~ ' } ~ x i 9 &.z.z.z.z.z.z.z.z.z.z.z.z.z.z.z.z.z.z.z.z.z.z.z.z.z.z.z.z.z.,.",
"f.f.f.f.y.$.O.8 M b h E ~ ~ ~ ~ ~ ~ ~ ~ ~ ~ ~ ~ ~ ~ ~ ' } Q x i 9 *.z.z.z.z.z.z.z.z.z.z.z.z.z.z.z.z.z.z.z.z.z.z.z.z.z.z.z.z.z.=.",
"f.t.s.f.4.@.O.8 M M h E ~ ~ ~ ~ ~ ~ ~ ~ ~ ~ ~ ~ ~ ~ ~ ' } ~ x i 9 &.z.z.z.z.z.z.z.z.z.z.z.z.z.z.z.z.z.z.z.z.z.z.z.z.z.z.z.z.z.d.",
"G S G u.4.@.O.8 M b h E Q ~ ~ ~ ~ ~ ~ ~ ~ ~ ~ ~ ~ ~ ~ ' } ~ x y 9 &.z.z.z.z.z.z.z.z.z.z.z.z.z.z.z.z.z.z.z.z.z.z.z.z.z.z.z.z.z.z.",
"_ x.` 5.4.@.O.7 M M h R ~ ~ ~ ~ ~ ~ ~ ~ ~ ~ ~ ~ ~ ~ ~ ' } ~ c v 9 *.z.z.z.z.z.z.z.z.z.z.z.z.z.z.z.z.z.z.z.z.z.z.z.z.z.z.z.z.z.z.",
"8.b.0.5.4.@.X.8 M b h E ~ ~ ~ ~ ~ ~ ~ ~ ~ ~ ~ ~ ~ ~ ~ ' } ~ x y 0 &.z.z.z.z.z.z.z.z.z.z.z.z.z.z.z.z.z.z.z.z.z.z.z.z.z.z.z.z.z.z.",
"F I D t.4.@.X.8 M M h E ~ ~ ~ ~ ~ ~ ~ ~ ~ ~ ~ ~ ~ ~ ~ ' } ~ x v 0 &.z.z.z.z.z.z.z.z.z.z.z.z.z.z.z.z.z.z.z.z.z.z.z.z.z.z.z.z.z.z.",
"u.r.u.s.4.@.O.8 M j h E ~ ~ ~ ~ ~ ~ ~ ~ ~ ~ ~ ~ ~ ~ ~ ' } ~ x e 9 &.z.z.z.z.z.z.z.z.z.z.z.z.z.z.z.z.z.z.z.z.z.z.z.z.z.z.z.z.z.z.",
"f.f.s.f.4.@.O.8 M M h E ~ ~ ~ ~ ~ ~ ~ ~ ~ ~ ~ ~ ~ ~ ~ ' } ~ x e 9 &.z.z.z.z.z.z.z.z.z.z.z.z.z.z.z.z.z.z.z.z.z.z.z.z.z.z.z.z.z.z.",
"f.f.f.f.s.$.X.8 M j h W ~ ~ ~ ~ ~ ~ ~ ~ Q ~ ~ ~ ~ ~ ~ ' } Q h e 9 &.l.z.z.z.z.z.z.z.z.z.z.z.z.z.z.z.z.z.z.z.z.z.z.z.z.z.z.z.z.;.",
"2.2.3.4.4.X.O.8 M M h E ~ ~ ~ ~ ~ ~ ~ ~ ~ ~ ~ ~ ~ ~ ~ ' } Q x e 9 &.z.z.z.z.z.z.z.z.z.z.z.z.z.z.z.z.z.z.z.z.z.z.z.z.z.z.z.z.z.<.",
"o + + + O , >.8 M b h R ~ ~ ~ ~ ~ ~ ~ ~ ~ ~ ~ ~ ~ ~ ^ ' } ~ h e 0 &.z.z.z.z.z.z.z.z.z.z.z.z.z.z.z.z.z.z.z.z.z.z.z.z.z.z.z.z.z.,.",
"> -.<.<.<.<.2.8 M j h R ~ ~ ~ ~ ~ ~ ~ ~ ~ ~ ~ ~ ~ Q ~ [ } ~ x e 9 &.z.z.l.z.z.z.z.z.z.z.z.z.j.u.t.e.t.u.l.z.z.z.z.z.z.z.z.z.z.,.",
"> ;.>.2.<.<.<.7 b b h E ~ ~ ~ ~ ~ Q ~ ~ ~ ~ ~ ~ ~ ~ ~ ( } ~ c y 9 &.z.z.j.z.z.z.z.z.z.z.z.z.p.&.p w e e J :.z.z.z.z.z.z.z.z.z.,.",
"> :.<.<.<.<.<.7 b j h E ~ ~ ~ ~ ~ ~ ~ ~ ~ ~ ~ ~ ~ ~ ~ [ } ~ c y 9 &.z.z.z.z.z.z.z.z.z.z.z.z.:.w @ $.-.-.>.9 3.z.z.z.z.z.z.z.z.,.",
"> ;.<.<.<.<.<.7 b M h E ~ ~ ~ ~ ~ ~ ~ ~ ~ ~ ~ ~ ~ ~ ~ ' } Q c y 9 &.z.j.z.z.z.z.z.z.z.z.z.d.&.> X.i.m.m.m.c.2 d.z.z.z.z.z.z.z.,.",
"> ;.<.<.<.<.<.t M j h E ~ ~ ~ ~ ~ ~ ~ ~ ~ ~ ~ ~ ~ ~ ~ ' } Q x y 9 &.z.l.z.z.z.z.z.z.z.z.z.w. .4 O.n.m.m.m.m.2 &.z.z.z.z.l.z.z.,.",
"> ;.<.<.<.<.<.t b j h E ~ ~ ~ ~ ~ ~ ~ ~ ~ ~ ~ ~ ~ ~ ~ ' } ~ c i 9 &.z.z.z.z.z.z.z.z.z.z.c.<.q 9 u n.n.i.m.m.$.| z.z.z.z.z.z.z.,.",
"> ;.<.<.<.<.<.t M j h E ~ ~ ~ ~ ~ ~ ~ ~ ~ ~ ~ ~ ~ ~ Q ' } ~ b v 9 &.z.z.z.z.z.z.z.z.z.z.z.>.0 p -.n.#.* - v.2...z.z.z.z.z.z.z.,.",
"> ;.<.<.<.>.2.t M b h E ~ ~ ~ ~ ~ ~ ~ ~ ~ ~ ~ ~ Q ~ ~ ' } ~ n y 9 &.z.z.z.z.z.z.z.z.z.z.z.:.q p $.m.# l C %.2...z.z.z.z.z.z.z.,.",
", :.<.<.<.<.<.t b j h E ~ ~ ~ ~ ~ ~ ~ ~ Q ~ ~ ~ ~ ~ ~ [ } ~ n v 9 &.z.z.z.z.z.z.z.z.z.z.z.:.0 p $.v.% C Z Y 2.J z.z.z.z.l.z.z.,.",
", -.<.<.<.<.>.v j j j R ~ ~ ~ ~ ~ ~ ~ ~ ~ ~ ~ ~ ~ ~ ~ ' } ~ b v 9 &.z.z.z.z.z.z.z.z.z.z.z.,.q p $.n.& A ' T 2.p z.z.z.z.z.z.z.:.",
", =.<.<.<.<.<.s V j h R ~ ~ ~ ~ ~ ~ ~ Q ~ ~ ~ ~ ~ ~ ~ ' } Q c y 7 &.z.l.z.z.z.z.z.z.z.z.z.:.q p $.m.; k a w.>.i z.z.z.z.z.z.z.,.",
"> -.<.<.<.<.,.v j j h R ~ ~ ~ ~ ~ ~ ~ ~ ~ ~ ~ ~ ~ ~ ~ ' } ~ c v 9 &.z.z.z.z.z.z.z.z.z.z.z.<.q p $.v.c.6 ..m.-.u z.z.z.z.z.z.z.,.",
", ;.<.<.<.<.=.v j V h R ~ ~ ~ ~ ~ ~ ~ ~ ~ ~ ~ ~ ~ ~ ~ ' } ~ c K 9 &.z.z.z.z.z.z.z.z.z.z.z.w.r 4 u c.m.m.m.m.p i z.z.z.z.z.z.z.,.",
", -.1.<.<.<.<.8 N z c E ~ ~ ~ ~ ~ ~ ~ ~ ~ ~ ~ ~ ~ ~ ~ ' } ~ n K 0 &.z.z.z.z.z.z.z.z.z.z.c.s.X.= p c.m.m.m.m.0 3.z.z.z.z.z.z.z.,.",
", =.<.<.<.,.<.v j j j E ~ ~ ~ ~ ~ ~ ~ ~ ~ ~ ~ ~ ~ ~ ~ ' { ~ n K 9 &.z.z.z.z.z.z.z.z.z.z.z.g.$.1 0 y.v.v.n.h.J j.z.z.z.z.z.z.z.,.",
", -.<.<.>.2.2.s b b j E ~ ~ ~ ~ Q ~ ~ ~ ~ ~ ~ ~ ~ ~ ~ ' } ~ c K 0 &.z.z.z.z.z.z.z.z.z.z.z.z.,.K + 2 , , , : g.z.z.z.z.z.z.z.z.,.",
", ;.<.<.2.>.2.v b b h E ~ ~ ~ ~ ~ ~ ~ ~ ~ ~ ~ ~ ~ ~ ~ ' } ~ n K 0 &.z.z.z.z.z.z.z.z.z.z.z.z.a.1.>.:.:.;.w.z.z.z.z.z.z.z.z.z.z.,.",
"$  .X.@.&.,.<.v M j j R ~ ~ ~ ~ ~ ~ ~ ~ ~ ~ ~ ~ ~ ~ ~ ' } ~ n K 9 &.z.z.z.z.z.z.z.z.z.z.z.z.z.z.z.z.z.z.z.z.z.z.z.z.z.z.z.z.z.,.",
", , , , , 3 =.t N j j W ~ ~ ~ ~ ~ ~ ~ ~ ~ ~ ~ ~ ~ ~ ~ ' } ~ n K 9 &.z.z.z.z.z.z.z.z.z.z.z.z.z.z.z.z.z.z.z.z.z.z.z.z.z.z.z.z.z.,.",
"y.i.i.f.y.$. .v M j h W ~ ~ ~ ~ ~ ~ ~ ~ ~ ~ Q ~ ~ ~ ~ ' } ~ n K 0 &.z.z.z.z.z.z.z.z.z.z.z.z.z.z.z.z.z.z.z.z.z.z.z.z.z.z.z.z.z.,.",
"h.f.f.f.y.@.o.8 j j h R ~ ~ ~ ~ ~ ~ ~ ~ ~ ~ ~ ~ ~ ~ ~ ' } ~ n ..0 &.z.z.z.z.z.z.z.z.z.z.z.z.z.z.z.z.z.z.z.z.z.z.z.z.z.z.z.z.z.,.",
"f.f.f.f.4.@.O.v j j j W ~ ~ ~ ~ ~ ~ ~ ~ ~ ~ ~ ~ ~ ~ ~ ' } ~ n o.0 &.z.z.z.z.z.z.z.z.z.z.z.z.z.z.z.z.z.z.z.z.z.z.z.z.z.z.z.z.z.z.",
"U z P i.4.$.v v M M j Q ~ ~ ~ ~ ~ ~ ~ ~ ~ ~ ~ ~ ~ ~ ~ ' } ~ n o.0 &.z.z.z.z.z.z.z.z.z.z.z.z.z.z.z.z.z.z.z.z.z.z.z.z.z.z.z.z.z.z.",
") j._ 6.4.@.o.v j j h E Q ~ ~ ~ ~ ~ Q ~ ~ ~ ~ ~ ~ ~ ~ ' } ~ n o.0 &.l.z.z.z.z.z.z.z.z.z.z.z.z.z.z.z.z.z.z.z.z.z.z.z.z.z.z.z.z.z.",
"9.b.q.5.4.@.X.s M j h E ~ ~ ~ ~ ~ ~ ~ ~ ~ ~ ~ ~ ~ ~ ~ ' } ~ n o.0 &.z.z.z.z.z.z.z.z.z.z.z.z.z.z.z.z.z.z.z.z.z.z.z.z.z.z.z.z.z.z.",
"H ! H r.4.@.O.t b c h E Q ~ ~ ~ ~ ~ ~ ~ ~ ~ ~ ~ ~ ~ ~ ' } ~ m o.q &.z.z.z.z.z.z.z.z.z.z.z.z.z.z.z.z.z.z.z.z.z.z.z.z.z.z.z.z.z.z.",
"r.7.r.f.4.@.O.y b b h E ~ ~ ~ ~ ~ ~ ~ ~ Q ~ ~ ~ ~ ~ ~ ' } ~ m o.0 *.z.z.z.z.z.z.z.z.z.z.z.z.z.z.z.z.z.z.z.z.z.z.z.z.z.z.z.z.z.z.",
"f.f.f.a.4.@.O.t b b h E ~ ~ ~ ~ ~ ~ ~ ~ ~ ~ ~ ~ ~ ~ ~ ' } ~ m o.0 &.z.z.z.z.z.z.z.z.z.z.z.z.z.z.z.z.z.z.z.z.z.z.z.z.z.z.z.z.z.a.",
"f.f.f.f.i.$.O.t b b h E ~ ~ ~ ~ ~ Q ~ ~ ~ ~ ~ ~ ~ ~ ~ ' } ~ m O.0 &.z.z.z.z.z.z.z.z.z.z.z.z.z.z.z.z.z.z.z.z.z.z.z.z.z.z.z.z.z.;.",
"3.4.y.y.y.O.O.t b b h E ~ ~ ~ ~ ~ ~ ~ ~ ~ ~ ~ ~ ~ ~ ~ ' } ~ B O.0 &.z.z.z.z.z.z.z.z.z.z.z.z.z.z.z.z.z.z.z.z.z.z.z.z.z.z.z.z.z.,.",
"O + O O O > :.t b b h E ~ ~ ~ Q ~ ~ ~ ~ ~ ~ ~ ~ ~ ~ ~ ' } ~ L +.0 &.z.z.z.z.z.z.z.z.z.z.z.z.z.z.z.z.z.z.z.z.z.z.z.z.z.z.z.z.z.,.",
", ;.<.<.:.>.<.t b b h R ~ ~ ~ ~ ~ ~ ~ ~ ~ ~ ~ ~ ~ ~ ~ ' } ~ L O.0 &.z.z.z.z.z.z.z.z.z.z.z.z.z.z.z.z.z.z.z.z.z.z.z.z.z.z.z.z.z.,.",
", ;.<.<.>.<.<.y b b h R ~ ~ ~ ~ ~ ~ ~ ~ Q ~ ~ ~ ~ ~ ~ ' } ~ L O.0 &.z.z.z.z.z.z.z.z.z.z.z.z.z.z.z.z.z.z.z.z.z.z.z.z.z.z.z.z.z.,.",
", ;.<.<.<.<.<.t b b h R Q ~ ~ ~ ~ ~ ~ ~ ~ ~ ~ ~ ~ ~ ~ ' } ~ B +.0 &.z.z.z.z.z.z.z.z.z.z.z.z.z.z.z.z.z.z.z.z.z.z.z.z.z.z.z.z.z.,.",
", ;.<.<.<.<.<.t b b h L Q Q ~ ~ ~ ~ ~ ~ ~ ~ ~ ~ ~ ~ ~ ] { Q B +.0 &.z.z.z.z.z.z.z.z.z.z.z.z.z.z.z.z.z.z.z.z.z.z.z.z.z.z.z.z.z.,.",
", ;.<.<.<.<.<.t b W g M Q ~ ~ ~ ~ ~ ~ ~ ~ ~ ~ ~ ~ ~ ' } ( ~ B +.0 &.z.z.z.z.z.z.z.z.z.z.z.z.z.z.z.z.z.z.z.z.z.z.z.z.z.z.z.z.z.,.",
", ;.<.<.<.<.<.t b Q V h P ~ ~ ~ ~ ~ ~ ~ ~ ~ ~ ~ ~ ^ } [ ~ ~ B +.0 &.z.z.z.z.z.z.z.z.z.z.z.z.z.z.z.z.z.z.z.z.z.z.z.z.z.z.z.z.z.,.",
", ;.<.<.<.<.<.t j ~ Q E W ~ ~ ~ ~ ~ ~ ~ ~ ~ ~ ~ ~ ~ / ~ ~ ~ c ..0 &.z.z.z.z.z.z.z.z.z.z.z.z.z.z.z.z.z.z.z.z.z.z.z.z.z.z.z.z.z.,.",
", -.<.<.<.<.<.#.= V ~ ~ Q ~ ~ ~ ~ ~ ~ ~ ~ ~ ~ ~ ~ ~ ~ ~ ~ E 5 &.0 &.z.z.z.z.z.z.z.z.z.z.z.z.z.z.z.z.z.z.z.z.z.z.z.z.z.z.z.z.z.,.",
", ;.<.<.<.<.<.<.&.$ X X X X X X X X X X X X X X X X X X X o  .<.0 &.z.z.z.z.z.z.z.z.z.z.z.z.z.z.z.z.z.z.z.z.z.z.z.z.z.z.z.z.z.,.",
", ;.<.<.<.<.<.<.<.<.<.<.<.<.<.<.<.<.<.<.<.<.<.<.<.<.<.2.<.<.<.<.0 &.z.z.z.z.z.z.z.z.z.z.z.z.z.z.z.z.z.z.z.z.z.z.z.z.z.z.z.z.z.,."
};
