/* XPM */
static char *result[] = {
/* columns rows colors chars-per-pixel */
"64 64 105 2 ",
"   c #232323",
".  c #2D2D2D",
"X  c #343434",
"o  c #35393E",
"O  c #3B3B3B",
"+  c #373D43",
"@  c #3F4040",
"#  c #3F5164",
"$  c #3E5469",
"%  c #3C5D7E",
"&  c #444444",
"*  c #454749",
"=  c #45494C",
"-  c #4D4D4D",
";  c #434C56",
":  c #4F4F50",
">  c #414D5A",
",  c #46525D",
"<  c #545454",
"1  c #575758",
"2  c #575859",
"3  c #5C5C5C",
"4  c #445361",
"5  c #475869",
"6  c #425D77",
"7  c #485F75",
"8  c #425D78",
"9  c #5F6061",
"0  c #43607D",
"q  c #646464",
"w  c #666768",
"e  c #67696A",
"r  c #6B6C6C",
"t  c #6E6F71",
"y  c #6F7072",
"u  c #737373",
"i  c #77797B",
"p  c #7B7C7C",
"a  c #3A5E82",
"s  c #396087",
"d  c #3A648E",
"f  c #3D6994",
"g  c #3E6B98",
"h  c #4A6783",
"j  c #496886",
"k  c #4C6F91",
"l  c #406F9D",
"z  c #46739F",
"x  c #4D7399",
"c  c #7E7E80",
"v  c #4474A3",
"b  c #4E7AA6",
"n  c #4577A9",
"m  c #467AAC",
"M  c #4F7EAC",
"N  c #4A7FB3",
"B  c #7F8284",
"V  c #4C84BB",
"C  c #4F88BF",
"Z  c #5186B9",
"A  c #518AC3",
"S  c #538FCA",
"D  c #5390CC",
"F  c #828486",
"G  c #848688",
"H  c #878A8C",
"J  c #8A8C8D",
"K  c #8B8D90",
"L  c #8F9294",
"P  c #949494",
"I  c #939699",
"U  c #97999C",
"Y  c #9D9D9D",
"T  c #9B9EA1",
"R  c #9EA1A4",
"E  c #A2A4A7",
"W  c #A3A6AA",
"Q  c #A6A9AC",
"!  c #AAACAF",
"~  c #ACAEB1",
"^  c #AFB1B4",
"/  c #B1B3B5",
"(  c #B4B6B8",
")  c #B5B9BD",
"_  c #B9BCBF",
"`  c #B7BBC0",
"'  c #BBBEC2",
"]  c #BEC1C4",
"[  c #BFC4C8",
"{  c #C3C6CA",
"}  c #C4C9CE",
"|  c #C8CCCF",
" . c #C7CBD0",
".. c #CACED2",
"X. c #CDD1D5",
"o. c #CED3D8",
"O. c #D2D6DB",
"+. c #D3D8DD",
"@. c #D7DCE2",
"#. c #D8DEE3",
"$. c #DCE1E6",
"%. c #DEE4EA",
"&. c #E1E7EC",
"*. c #E4E9ED",
"=. c None",
/* pixels */
"=.=.=.=.=.=.=.=.=.=.=.=.=.=.X X =.=.=.=.=.=.=.=.=.=.=.=.=.=.=.=.=.=.=.=.=.=.=.=.=.=.=.=.=.=.=.X X X =.=.=.=.=.=.=.=.=.=.=.=.=.=.",
"=.=.=.=.=.=.=.=.=.=.=.=.X X 1 9 X X =.=.=.=.=.=.=.=.=.=.=.=.=.=.=.=.=.=.=.=.=.=.=.=.=.=.=.=.X o w & X X =.=.=.=.=.=.=.=.=.=.=.=.",
"=.=.=.=.=.=.=.=.=.=.X X O H +.#.F X O =.=.=.=.=.=.=.=.=.=.=.=.=.=.=.=.=.=.=.=.=.=.=.=.=.=.X X F $.` q X X =.=.=.=.=.=.=.=.=.=.=.",
"=.=.=.=.=.=.=.=.=.X O w O.&.&.*.*.' & X O X X X X X X X X X X X X X X X X X X X X X X X X X R &.%.%.%.^ = X X =.=.=.=.=.=.=.=.=.",
"=.=.=.=.=.=.=.X X 2 ~ %.&.&.*.*.*.*.+.p 1 1 < 3 1 1 3 1 1 1 3 1 < 1 1 1 1 1 < < < < < < 1 E $.&.%.%.%.%.o.H @ X X =.=.=.=.=.=.=.",
"=.=.=.=.=.X X O F @.&.&.*.*.*.&.*.*.*.*.*.*.*.*.*.*.*.*.*.*.*.*.*.&.&.*.*.*.&.&.&.&.&.&.*.&.&.&.%.%.%.%.%.%.' 3 X X =.=.=.=.=.=.",
"=.=.=.=.X X w { &.&.&.*.&.*.*.*.*.*.*.*.*.*.*.*.*.*.*.*.*.*.*.*.*.*.*.&.&.*.*.&.&.&.&.&.&.&.&.&.%.%.%.%.%.%.%.$.T - X X =.=.=.=.",
"=.=.X X = ~ %.&.&.&.&.*.*.*.*.*.*.*.*.*.*.*.*.*.*.*.*.*.*.*.*.*.*.*.*.*.*.*.&.*.&.&.&.&.&.&.$.&.&.%.*.%.%.%.%.%.%.O.B O X =.=.=.",
"=.X O H O.&.&.*.&.&.*.*.&.*.*.*.*.*.*.*.*.Y G G G G G G G J G G G G G G F F G F F F F P #.&.&.&.&.%.&.%.%.%.%.%.%.%.%.` 9 X X =.",
"X < { %.&.&.&.&.&.*.&.*.*.*.*.*.*.*.*.X.9 & & - & - & & * & & * * * & * & - * * * - & & 3 ] &.&.&.%.%.%.%.%.%.%.%.%.%.%.%.T & X ",
"X u &.&.&.&.*.&.*.&.*.*.*.*.*.*.*.*.Y - & 3 r q q q q r q w q q w w w w q w w w w w w 3 & - P *.%.%.%.%.%.%.%.%.$.%.%.%.%.%.y X ",
"X w o.&.&.&.&.&.*.*.*.*.*.*.*.*.X.u @ : q q 3 3 3 9 3 9 3 9 3 3 3 9 3 3 9 3 3 3 3 3 q w q : @ q } %.&.%.%.%.%.%.%.%.%.%.%.X.w X ",
"X w ( #.&.&.&.&.*.*.*.*.*.*.*.^ - & 1 q q - * : : - - - - : - - : - - - - - - - : - & 1 q q 3 & & Q #.%.%.%.%.%.%.%.%.%.@.^ 9 X ",
"X w ( X.&.&.&.*.*.*.*.*.*.#.p & - q r 3 & 3 P Y Y Y Y Y U U Y Y Y Y U Y Y Y Y U Y Y F - < q q q : & t O.%.%.%.%.%.%.%.%. .~ w X ",
"X w ( ..&.*.*.*.*.*.*.*./ 1 & 1 q w 3 & u Y Y Y Y u r r r r r r r r r r r r r u P Y Y P 3 - 9 q w 1 & : ^ $.%.%.%.%.%.%. .~ 9 X ",
"X 2 / ..&.&.*.*.*.*.+.I * - 3 q q : - p Y Y Y Y J & ; = = # # , ; ; ; ; ; > ; = J Y Y Y P q - 3 w w 3 - = H O.%.%.%.%.%. .~ 2 X ",
"X X u X.*.&.*.*.*.*.J & : q q q - : P Y Y Y Y Y L & s d d d d d d d d f d d s = J Y Y Y Y Y p & < w w q : & p &.&.#.%.%.} y X X ",
"=.X X E &.&.&.&.*.*.F & w w 3 & r Y Y Y Y Y Y Y K * z m m m m m m m m m m m v - J Y Y Y Y Y Y P 2 - 9 w w * y &.&.&.%.%.T X X =.",
"=.=.X J *.&.&.*.*.*.F * q < - p Y Y Y Y Y Y Y p 2 = C D D D D D D D D D D D A , < p Y Y Y Y Y Y P q - 3 w - r $.$.$.&.%.H X =.=.",
"=.=.X K &.&.&.*.*.*.F * 9 - J Y Y Y Y Y Y J - & # z D D D D D D D D D D D D D v 4 @ : F Y Y Y Y Y Y u & w - r &.&.$.%.%.K X =.=.",
"=.=.X K &.&.&.*.*.*.c & - y Y Y Y Y Y Y Y p & 7 d n D D D D D D D D D D D D D Z k a @ i Y Y Y Y Y Y Y 1 1 - r &.%.%.%.%.K X =.=.",
"=.=.X K &.*.&.*.*.*.F & & P Y Y Y Y Y Y Y Y 3 ; k C D D D D D D D D D D D D D D C , 2 U Y E Y Y Y Y Y J & & r &.%.$.%.%.K X =.=.",
"=.=.X K &.&.&.*.*.*.F & q Y Y Y Y Y Y Y Y Y P * h D D D D D D D D D D D D D D D x * J Y Y Y Y Y Y Y Y Y 3 & y &.%.%.%.%.K X =.=.",
"=.=.X K &.&.&.*.*.*.c & P Y Y Y Y Y Y Y Y Y Y c & Z D D D D D D D D D D D D D M = p Y Y Y Y Y Y Y Y Y Y G & y &.%.%.%.%.K X =.=.",
"=.=.X K &.*.&.*.*.*.B = Y Y Y Y Y Y Y Y Y Y Y Y u - C D D D D D D D D D D D A 4 q Y Y Y Y Y Y Y Y Y Y Y T < t %.$.%.%.%.H X =.=.",
"=.=.X K &.%.&.&.*.&.F = P Y Y Y Y Y Y Y Y Y Y Y P < h S D D D D D D D D D D h 1 P Y Y Y Y Y Y Y Y Y Y Y J : t %.%.%.%.%.K X =.=.",
"=.=.X K %.*.&.&.&.&.' 1 & u Y Y Y E Y Y Y Y Y Y Y P & x D D D D D D D D D M & G Y Y Y Y Y Y Y E Y Y Y p & < ` %.%.%.%.%.K X =.=.",
"=.=.X K &.&.&.*.&.*.*.O.p * 3 K Y Y Y Y Y Y Y Y Y Y u : Z D D C b A D D Z ; u Y Y Y Y Y Y Y Y Y Y K 9 & p  .%.%.%.%.%.%.K X =.=.",
"=.=.X J &.&.*.&.*.&.*.&.&.Y : - c Y Y Y Y Y Y Y Y Y Y 3 5 A x , & , k A 7 < Y Y Y Y Y Y Y Y Y Y G - - I #.%.%.%.%.%.%.%.H X =.=.",
"=.=.X R %.&.%.&.&.&.*.*.*.*.+.w & q P Y Y Y Y Y Y Y Y P - * - i P p : & - J Y Y Y Y Y Y Y Y I q & e } &.%.%.%.%.%.%.%.%.! X =.=.",
"=.X & #.&.&.&.&.*.&.&.&.&.&.*.$.Y & : G Y Y Y Y Y Y Y Y G c P Y Y Y Y p F Y Y Y Y Y Y Y Y J < & H #.&.&.%.%.%.%.%.%.%.%.#.- X =.",
"X o W &.%.&.&.&.&.&.*.&.*.*.*.&.*.] 9 & u Y Y Y Y Y Y Y Y Y Y Y Y Y Y Y Y Y Y Y Y Y Y Y y & 2 ) &.$.&.$.%.%.%.%.%.%.%.%.%.^ o X ",
"X 3 +.&.&.&.&.&.&.&.&.&.*.&.*.*.*.*.$.c & < p p p p p p p p i i p p p p p p p p i i p 1 & p +.&.&.&.$.&.%.%.%.%.%.%.%.%.%.@.2 X ",
"X q ( X.$.&.&.&.&.&.&.&.&.&.&.&.*.*.*.&._ - @ @ @ @ & @ @ & @ & & & @ & @ @ @ @ & & @ - ^ &.$.&.$.&.&.$.%.%.%.%.%.%.%.$. ./ q X ",
"X q ^ ^ _ O.&.&.&.&.&.&.&.&.&.&.*.*.*.*.*.$.O.+.+.+.+.+.O.O.+.+.O.+.O.+.O.O.O.+.X.O.O.+.&.&.&.&.&.%.%.%.%.%.%.%.%.%.o.) ~ ~ q X ",
"X q / ~ / ^ ] #.&.&.&.&.&.&.&.&.&.&.&.*.*.*.*.*.*.*.&.*.*.&.*.&.&.&.&.&.&.&.&.&.&.&.&.&.&.&.#.&.$.%.%.%.%.%.%.%.@.` ~ ~ ~ ~ q X ",
"X q ^ ^ ^ / / ( ] &.&.&.&.&.&.&.&.$.*.*.*.&.&.&.&.&.*.&.&.*.&.&.&.&.&.&.&.&.&.&.&.&.&.$.&.&.&.$.&.%.%.%.%.%.$.' ~ ~ ~ ~ ~ ~ 9 X ",
"X 3 ^ ^ ^ ^ / ^ / ( X.&.&.*.&.&.&.*.&.*.*.*.*.&.*.&.&.&.&.&.&.&.&.&.&.&.&.&.&.&.&.&.&.&.&.$.&.&.%.%.%.%.$. ./ ~ ~ ~ ~ ~ ~ ~ 9 X ",
"X X 1 Y ~ ^ ^ / / / / _ +.*.*.#.] _ _ ] ] ] ] ] ] ] ] ] ] ] ] ] ] ] ] ] ' ' _ _ ' ' _ ' _ _ _ { %.%.%.O./ ~ ~ ~ ~ ~ ~ ~ T 1 X X ",
"=.X X O y ! / ~ / ~ / / ( { #.| ( ( ( ( ( ( ( ( ( ( ( ( ( ( ( ( / / / / / / ^ ^ ^ ^ ^ ^ ~ ! ~ ^ @.+.' ~ ~ ~ ~ ~ ~ ~ Q t X X X =.",
"=.=.=.. X & c ! ^ ^ / / / / ( ( Y p c c c c c c p c c c c c p c c c c c p p p c p p c p p p F E ( / ^ ! ~ ~ ~ ! Q c @ X . =.=.=.",
"=.=.=.=.X X X < J ^ ^ ^ / ^ / / < X X X X X X X X X X X X X X X X X X X X X X X X X X X X X X u ~ ~ ~ ~ ~ ~ ~ J < X X X =.=.=.=.",
"=.=.=.=.X O & X X q E ( ^ ^ / / - O & - - - - & - - - - - - * - & - - & - - & - - - - - - & X r / ! ~ ~ ~ R 3 X X @ o . =.=.=.=.",
"=.=.=.=.. O - - @ X O r Q ^ ^ ^ - O : - - - - : - - - - - - - - : : : < < : - - - - - - - - X r ~ ! ~ E w O X & : : O X =.=.=.=.",
"=.=.=.=.X O - - - - O X - G ! ^ - O - < - - 1 < < - - - - - - - - : - q q < - - - - - : - : X r ~ W F * X O - - - - O . =.=.=.=.",
"=.=.=.=.. O - : - - - & X X < P & O - - - < q q 3 3 1 1 < < - - - - 1 q q q 1 - - - : - : - X 9 P - X X * - - - < : O X =.=.=.=.",
"=.=.=.=.X O : : < - - - - @ X X X O - - - 3 q q q q q q q q q 3 3 3 q q q q q 3 : : - - - : X X X X & - : - - : - - O . =.=.=.=.",
"=.=.=.=.X O : - - - : : - - - & & - - - 1 q q q q q q q q q q q q q q q q q q q q 3 3 - : - & & & - - - : - : - - - O X =.=.=.=.",
"=.=.=.=.. O : - : - : : - : - - - - - - 3 q q q q q q q q q q q q q q q q q q q q q q q 3 < : - - : : - : - - - : - O . =.=.=.=.",
"=.=.=.=.X O - : - : - : : - - : 1 3 9 3 q q q 3 - - - - - = - = - - - = = - - - 3 q q q q q q < - - - : - : : - : - O X =.=.=.=.",
"=.=.=.=.. O - - : - - - - - - : 1 q q q q q q - X o X O + o o + o o + + o o o X - q q q q q q < : : : 1 < - - - - - O . =.=.=.=.",
"=.=.=.=.X O - 1 1 - - : < : - - 1 q q q q q q - O % s s d a a d a a s s s a a o & q q q q q q < - : : q 9 : - - 1 < O X =.=.=.=.",
"=.=.=.=.X @ q q q 3 < < 3 - : - 3 q q q q q q - o s d d d d d d f d d d d d d o - q q q q q q < : < q q q 3 3 q q q & . =.=.=.=.",
"=.=.=.=.. X 2 q q q 9 q q < : - 1 q q q q q q * o s f l v m m N V N m n l g s o - q q q q q q : : 9 q q q q q q q 1 O X =.=.=.=.",
"=.=.=.=.=.X O 1 q q q q q 3 - : 1 q q q q q q - o s C D S D D D D D D D S S j O - q q q q q q 1 9 q q q q q q q : O O =.=.=.=.=.",
"=.=.=.=.=.=.. X & q q q q q 1 - 1 q q q q q q - o n D D D D D D D D D D S S N O & q q q q q q 9 q q q q q q q & X . =.=.=.=.=.=.",
"=.=.=.=.=.=.=.. X & 9 q q q q 3 3 q q q q q q * + A D D D D D D D D D D D D A + - q q q q q q q q q q q q 9 @ X   =.=.=.=.=.=.=.",
"=.=.=.=.=.=.=.=.  X O 2 q q q q q q q q q q q - + A D D D D D D D D D D D D A + - q q q q 9 q q q q q q < O X =.=.=.=.=.=.=.=.=.",
"=.=.=.=.=.=.=.=.=.=.X X : q q q q q q q q q q - + A D D D D D D D D D D D D A + * q q q q q q q q q 9 : X X =.=.=.=.=.=.=.=.=.=.",
"=.=.=.=.=.=.=.=.=.=.=.. O * q q q q q q q q q * + A D D D D D D D D D D D D A + - q q q q q q q q 3 & X . =.=.=.=.=.=.=.=.=.=.=.",
"=.=.=.=.=.=.=.=.=.=.=.=.  X @ 3 q q q q q q q - + A S S D D D D D D S S D S A + - q q q q q q q 3 O X   =.=.=.=.=.=.=.=.=.=.=.=.",
"=.=.=.=.=.=.=.=.=.=.=.=.=.  X X 1 q q q q q q = O 6 h 8 0 a 0 0 % h 8 h % 8 8 o - q q q q q q < O . =.=.=.=.=.=.=.=.=.=.=.=.=.=.",
"=.=.=.=.=.=.=.=.=.=.=.=.=.=.=.X X O O O O O O O X X X X X X X X X X X X X X X X X @ O O O O @ X X =.=.=.=.=.=.=.=.=.=.=.=.=.=.=.",
"=.=.=.=.=.=.=.=.=.=.=.=.=.=.=.=.. . . . . . . . . . . . . . . . . . . . . . . . . . . . . . .   =.=.=.=.=.=.=.=.=.=.=.=.=.=.=.=."
};
