/* XPM */
static char *result[] = {
/* columns rows colors chars-per-pixel */
"64 64 146 2 ",
"   c #161616",
".  c #191919",
"X  c #1B1F23",
"o  c #232526",
"O  c #2E2E2F",
"+  c #313232",
"@  c #3C3D3E",
"#  c #193A5B",
"$  c #3B3E41",
"%  c #003366",
"&  c #02366B",
"*  c #013B76",
"=  c #3A4753",
"-  c #324E6B",
";  c #424244",
":  c #474849",
">  c #494A4A",
",  c #4C4E50",
"<  c #4F5152",
"1  c #535455",
"2  c #575858",
"3  c #5B5B5D",
"4  c #485969",
"5  c #546474",
"6  c #5C6671",
"7  c #5D6874",
"8  c #636466",
"9  c #646668",
"0  c #67696C",
"q  c #686A6D",
"w  c #6A6F73",
"e  c #67727C",
"r  c #6A7279",
"t  c #727374",
"y  c #73787D",
"u  c #7B7B7C",
"i  c #07519B",
"p  c #386086",
"a  c #3A648E",
"s  c #3B6792",
"d  c #3D6B97",
"f  c #3F6D99",
"g  c #0255A9",
"h  c #005EBC",
"j  c #257CB3",
"k  c #436D97",
"l  c #46729D",
"z  c #49749E",
"x  c #7A7E82",
"c  c #4272A2",
"v  c #4975A0",
"b  c #4D7AA7",
"n  c #4577A9",
"m  c #477BAE",
"M  c #507EAB",
"N  c #487CB0",
"B  c #0768C9",
"V  c #176EC5",
"C  c #2A80B5",
"Z  c #3786B7",
"A  c #3886B7",
"S  c #3C88B7",
"D  c #3786B9",
"F  c #3C89B9",
"G  c #7F8285",
"H  c #7B8289",
"J  c #4A81B6",
"K  c #4D85BD",
"L  c #4A8FBA",
"P  c #4791BF",
"I  c #5092BB",
"U  c #6589AC",
"Y  c #708AA5",
"T  c #4E87C0",
"R  c #4F88C1",
"E  c #508BC5",
"W  c #528ECA",
"Q  c #5F9FC7",
"!  c #5390CC",
"~  c #5A97D1",
"^  c #5E9AD3",
"/  c #649DD7",
"(  c #6CA7CB",
")  c #6EA8CC",
"_  c #7FA8C2",
"`  c #79AECF",
"'  c #6AA3DA",
"]  c #70A8DF",
"[  c #66A3E0",
"{  c #77AEE4",
"}  c #7AB0E6",
"|  c #808284",
" . c #838689",
".. c #85898D",
"X. c #8A8C8D",
"o. c #858C93",
"O. c #8B8E90",
"+. c #899199",
"@. c #969696",
"#. c #969A9D",
"$. c #9A9A9A",
"%. c #8693A1",
"&. c #999EA2",
"*. c #9DA0A4",
"=. c #9FA3A8",
"-. c #A3A3A4",
";. c #A2A5A8",
":. c #A5A9AC",
">. c #AAABAD",
",. c #A7ABB0",
"<. c #ABAEB1",
"1. c #ABB0B4",
"2. c #B1B1B1",
"3. c #B1B6BA",
"4. c #BCBCBC",
"5. c #83AAC3",
"6. c #8AAEC4",
"7. c #92B3C7",
"8. c #83B3D2",
"9. c #88B7D4",
"0. c #8EBAD6",
"q. c #93BDD8",
"w. c #A9BECB",
"e. c #BABEC2",
"r. c #BDC2C7",
"t. c #B5C4CD",
"y. c #BEC4CA",
"u. c #BDC8CF",
"i. c #C3C3C3",
"p. c #C4CBCF",
"a. c #CCCCCC",
"s. c #C6CCD0",
"d. c #C9CED3",
"f. c #CED3D9",
"g. c #D2D2D3",
"h. c #D8D8D8",
"j. c #D6DCE1",
"k. c #DADFE5",
"l. c #DBE0E6",
"z. c #DEE4EA",
"x. c #DEE9F0",
"c. c #E3E3E3",
"v. c #ECECEC",
"b. c #EDF2F6",
"n. c #F3F3F3",
"m. c #FFFFFF",
/* pixels */
"&.z.z.z.z.z.z.z.z.z.z.z.z.z.z.z.z.z.z.z.z.z.z.z.z.z.z.z.z.z.=.3 1.1.1.1.>.1.<.<.,.1.>.1.<.<.>.1.<.<.<.<.>.1.>.<.<.<.<.<.<.<.:.< ",
"&.z.z.z.z.z.z.z.z.z.z.z.z.z.z.z.z.z.z.z.z.z.z.z.z.z.z.z.z.z.=.3 <.<.:.; .                                   $ :.<.<.<.<.<.<.:.< ",
"&.z.z.z.z.z.z.z.z.z.z.z.z.z.z.z.z.z.z.z.z.z.z.z.z.z.z.z.z.z.=.3 <.O.O a ! ! ! ! ! ! ! ! ! ! ! ! ! ! ! ! ! ! p > ;.>.1.<.<.<.:.< ",
"&.z.z.z.z.z.z.z.z.z.z.z.z.z.z.z.z.z.z.z.z.z.z.z.z.z.z.z.z.x.=.3 +.= c ! ! ! ! ! ! ! ! ! ! ! ! ! ! ! ! ! ! ! ! p u 1.>.1.<.<.;.< ",
"#.z.z.z.z.z.z.z.z.z.z.z.z.z.z.z.z.z.z.z.z.z.z.z.z.z.z.z.z.z.=.3 x k ! ! ^ ] ! ! ! ! ! ! ! ! ! ! ! ! ! J n R ! n 7 <.<.<.<.<.:.< ",
"&.z.z.z.z.z.z.z.z.z.z.z.z.z.z.z.z.z.z.z.z.z.z.z.z.z.z.z.z.z.=.3 y k ! ^ { ] ! ! ! ! W ! ! ! ! ! ! ! ! T d n ! n 7 <.<.<.<.<.:.< ",
"&.z.z.z.z.z.z.z.z.z.z.z.z.z.z.z.z.z.z.z.z.z.z.z.z.z.z.z.z.z.;.3 y k ! ] } ~ ! ! ! ! ! ! ! ! ! ! ! ! ! W m s J n 7 <.<.<.<.<.:.< ",
"&.c.z.z.z.z.z.z.z.z.z.z.z.z.z.z.z.z.z.z.z.z.z.z.z.z.z.z.z.z.=.3 y k ! } ' ! ! ! ! ! ! ! ! ! ! ! ! ! ! ! K d c n 7 <.<.<.<.>.;.< ",
",.z.z.z.z.z.z.z.z.z.z.z.z.z.z.z.z.z.z.z.z.z.z.z.z.z.z.z.z.z.&.8 y k ! } ] ! ! ! ! ! ! ! ! ! ! ! ! ! ! ! K d c n 7 <.>.>.<.>.;.> ",
",.z.z.z.z.z.z.z.z.z.z.z.z.z.z.z.z.z.z.z.z.z.z.z.z.z.z.z.z.z.&.8 y k ! } ' ! ! ! ! ! ! ! ! ! ! ! ! ! ! ! K f c n 7 <.;.X.G y t + ",
",.z.z.z.z.z.z.z.z.z.z.z.z.z.z.z.z.z.z.z.z.z.z.z.z.z.z.z.z.z.&.9 y k ! } ' ! ! ! ! ! ! ! ! ! ! ! ! ! ! ! E d c n 7 ;.2 8 8 3 3 3 ",
",.z.z.z.z.z.z.z.z.z.z.z.z.z.z.z.z.z.z.z.z.z.z.z.z.z.z.z.z.z.&.9 y k ! } ' ! ! ! ! ! ! ! ! ! ! ! ! ! ! ! E d c n 7 X.$.i.g.g.g.g.",
";.z.z.z.z.z.z.z.z.z.z.z.z.z.z.z.z.z.z.z.z.z.z.z.z.z.z.z.z.z.&.8 y k ! } ' ! ! ! ! ! ! ! ! ! ! ! ! ! ! ! K k c n 7 O.$.i.g.g.g.g.",
"f.z.z.z.z.z.z.z.z.z.z.z.z.z.z.z.z.z.z.z.z.z.z.z.z.z.z.z.z.z.&.8 y k ! } ' ! ! ! ! ! ! ! ! ! ! ! ! ! ! ! E d c n 7 O.@.4.g.g.y.g.",
"z.z.z.z.z.z.z.z.z.z.z.z.z.z.z.z.z.z.z.z.z.z.z.z.z.z.z.z.z.z.&.6 y k ! } ' ! ! ! ! ! ! ! ! ! ! ! ! ! ! ! E d c n 7 O.@.4.p.S C S ",
"z.z.z.z.z.z.z.z.z.z.z.z.z.z.z.z.z.z.z.z.z.z.z.z.z.z.z.z.z.z.&.8 y k ! } ' ! ! ! ! ! ! ! ! ! ! ! ! ! ! ! K d c n 7 O.$.4.5.` x.) ",
"z.z.z.z.z.z.z.z.z.z.z.z.z.z.z.z.z.z.z.z.z.z.z.z.z.z.z.z.z.z.&.8 y k ! } ' ! ! ! ! ! ! ! ! ! ! ! ! ! ! ! E d c n 7 X.@.4.5.0.b.8.",
"z.z.z.z.z.z.z.z.z.z.z.z.z.z.z.z.z.z.z.z.z.z.z.z.z.z.z.z.z.z.&.8 y l ! } ' ! ! ! ! ! ! ! ! ! ! ! ! W ! ! K d c n 7 O.@.4.u.Z P A ",
"z.z.z.z.z.z.z.z.z.z.z.z.z.z.z.z.z.z.z.z.z.z.z.z.z.z.z.z.z.z.*.8 w d ! } ' ! ! ! ! ! ! W ! ! ! ! ! ! ! ! E d c n 7 O.$.4.g.s.w.p.",
"z.z.z.z.z.z.z.z.z.z.z.z.z.z.z.z.z.z.z.z.z.z.z.z.z.z.z.z.z.z.&.8 w k ! } ' ! ! ! ! ! ! ! ! ! ! ! ! ! ! ! E f c n 7 O.@.4.g.g.g.g.",
";.z.z.z.z.z.z.z.z.z.z.z.z.z.z.z.z.z.z.z.z.z.z.z.z.z.z.z.z.z.&.8 w k W } ' ! ! ! ! ! ! ! ! ! ! ! ! ! ! ! T d c n q O.$.a.g.g.g.g.",
",.z.z.z.z.z.z.z.z.z.z.z.z.z.z.z.z.z.z.z.z.z.z.z.z.z.z.z.z.l.&.8 w d W } ' ! ! ! ! ! ! ! W ! ! ! ! ! ! W K d c n 7 X.X.4.3.4.2.>.",
",.x.z.z.z.z.z.z.z.z.z.z.z.z.z.z.z.z.z.z.z.z.z.z.z.z.z.z.z.z.&.8 w k ! } ' ! ! ! ! W ! ! ! ! ! ! ! ! ! ! K d c m 7 ,.> + + + + o ",
",.z.z.z.z.z.z.z.z.z.z.l.a.r.r.y.s.l.z.z.z.z.z.z.z.z.z.l.z.z.&.8 r k ! } [ ! ! ! ! ! ! ! ! ! ! ! ! ! ! ! T d c c 7 <.<.>.>.2.;.> ",
",.z.z.z.z.z.z.z.z.z.,.x q t q u &.s.z.z.z.z.z.z.z.z.z.k.z.z.&.8 r l ! } ' ! ! ! ! ! ! W ! ! ! ! ! ! ! ! T f f c 6 <.<.<.<.<.;.> ",
",.z.z.z.z.z.z.z.z.3.8 <.-.-.$.@ q :.z.z.z.z.z.z.z.z.z.l.z.z.&.9 w l ! } ' ! ! ! ! ! ! ! ! ! ! ! ! ! ! ! T f c c 6 <.<.<.<.<.;.> ",
",.z.z.z.z.z.z.z.f.1 c.m.m.m.a.X.: &.f.l.z.z.z.z.z.z.z.z.l.z.&.8 r k ! } ' ! ! ! ! ! ! ! ! ! ! ! ! ! ! ! T f c n 6 <.<.<.<.<.;.> ",
",.z.z.l.z.z.z.z.&.1 m.m.m.m.n.O.3  .e.z.z.z.z.z.z.z.z.z.l.l.&.8 r l ! } ' ! ! ! ! ! ! ! ! ! ! ! ! ! ! ! T d f c e <.<.<.<.<.;.> ",
",.z.z.l.z.z.z.z.| *.m.n.a.n.n.t 8 0 1.z.z.z.z.z.z.z.z.z.z.z.&.9 x l ! } ' ! ! ! ! ! ! ! ! ! ! ! ! ! ! ! T f f c e <.<.<.<.<.;.> ",
",.z.z.z.z.z.z.z...2.v.- * %.n.-.u 0 :.z.z.z.z.z.z.z.z.z.z.z.&.8 e c ! } ' ! ! ! ! ! ! ! ! ! ! ! ! ! ! ! T d c n e <.<.<.<.<.;.: ",
",.z.z.z.z.z.z.z...2.+.B h # m.$.u 0 :.z.z.z.z.z.z.z.z.z.z.z.&.9 x l ! } ' ! ! ! ! ! ! ! ! ! ! ! ! ! ! ! T d c c e <.<.<.<.<.;.> ",
",.z.z.z.z.z.z.z.| 2.U B B % v.$.u 0 :.z.z.z.z.z.z.z.z.z.z.z.&.9 x l ! } ' ! ! ! ! ! ! ! ! ! ! ! ! ! ! ! T d l c e <.<.<.<.<.;.: ",
":.z.z.z.z.z.z.z.u 2.Y [ V & n.$.u 0 ,.z.z.z.z.z.z.z.z.z.z.z.&.8 e l ! } ' ! ! ! ! ! ! ! ! ! ! ! ! ! ! ! R f f f x ,.<.<.<.<.;.> ",
",.z.z.z.z.z.z.z.y >.e.i g 4 m.$.u 9 ,.k.z.z.z.z.z.z.z.z.k.z.&.8 y c W } ' ! ! ! ! W ! ! ! ! ! ! ! W ! ! R d f n k ,.<.<.<.<.;.> ",
",.z.z.z.z.z.z.z.t $.m. .5 k.n.@.u 9 ,.x.z.z.z.z.z.z.z.z.z.z.&.9 y l ! } ' ! ! ! ! ! ! ! ! ! ! ! ! ! ! ! R d f f y <.<.<.<.<.;.> ",
",.z.z.z.z.z.z.z.u | m.m.m.m.c.t 3 r e.z.z.z.z.z.z.z.z.z.z.z.&.9 H v ! } ' ! ! ! ! ! ! ! ! ! ! ! ! ! ! ! R f n n r <.<.<.<.<.-.> ",
",.z.z.z.z.z.z.z.3.9 m.m.m.m.c.u ; O.d.c.z.z.z.z.z.z.z.z.z.z.&.9 H v ! } ' ! ! ! ! ! ! ! ! ! ! ! ! ! ! ! T d f n e <.<.<.<.<.;.> ",
",.z.z.z.z.z.z.z.k.x h.n.v.c.i.8 , &.j.x.z.z.z.z.z.z.z.z.z.z.&.9 H v ! } ' ! ! ! ! ! ! ! ! ! ! ! ! ! ! ! R d f n e <.<.<.<.<.;.> ",
",.z.z.z.z.z.z.z.z.j.; > , , < + G ,.z.z.z.z.z.z.z.z.z.z.z.z.&.8 H v ! } ' ! ! ! ! ! ! ! ! ! ! ! ! ! ! ! R d f n e <.<.<.<.<.;.> ",
",.z.z.z.z.z.z.z.z.z.z.e.;.;.,.,.<.d.z.z.z.z.z.z.z.z.z.z.z.k.&.9 H v ! } ' ! ! ! ! ! ! ! ! W ! ! ! ! ! ! R d f n e <.<.<.<.<.;.: ",
",.z.z.z.z.z.z.z.z.z.z.z.z.z.z.z.z.z.z.z.z.z.z.z.z.z.z.z.z.z.&.9 H v W } ' ! ! ! ! ! ! ! ! ! ! ! ! ! ! ! R d c c e <.>.&.@.O. .@ ",
",.z.z.z.z.z.z.z.z.z.z.z.z.z.z.z.z.z.z.z.z.z.z.z.z.z.z.z.z.z.&.9 H c W } ' ! ! ! ! ! ! ! ! ! ! ! ! ! ! ! R d c c e :.2 , > : : : ",
",.z.z.z.z.z.z.z.z.z.z.z.z.z.z.z.z.z.z.z.z.z.z.z.z.z.z.z.z.z.&.9 H v ! } ' ! ! ! ! ! ! ! ! ! ! ! ! ! W W R d c c e X.@.i.g.a.a.i.",
",.z.z.z.z.z.z.z.z.z.z.z.z.z.z.z.z.z.z.z.z.z.z.z.z.z.z.z.z.z.&.9  .v ! } ' ! ! ! ! ! ! ! ! W ! ! ! ! W W R d c c e O.@.i.g.g.g.h.",
"z.z.z.z.z.z.z.z.z.z.z.z.z.z.z.z.z.z.z.z.z.z.z.z.x.z.z.z.z.z.&.9 o.v ! } ' ! ! ! ! ! ! ! ! ! ! ! ! ! ! ! R d c c e O.@.4.g.g.g.g.",
"z.z.z.z.z.z.z.z.z.z.z.z.z.z.z.z.z.z.z.z.z.z.z.z.z.z.z.z.z.z.&.9 o.v ! } ' ! ! ! ! ! ! ! ! ! ! ! ! ! ! ! R d c c e O.@.4.a.L j I ",
"z.z.z.z.z.z.z.z.z.z.z.z.z.z.z.z.z.z.z.z.z.z.z.z.z.z.z.z.z.z.&.9 o.v ! } ' ! ! ! ! ! ! ! ! ! ! ! ! ! ! ! R d c c e O.@.e.6.( k.Q ",
"z.z.z.z.z.z.z.z.z.z.z.z.z.z.z.z.z.z.z.z.z.z.z.z.z.z.z.z.z.z.&.9 o.v ! } ' ! ! ! ! ! ! ! ! ! ! ! ! ! ! ! R d c c e O.@.4._ q.b.9.",
"z.z.z.c.z.z.z.z.z.z.z.z.z.z.z.z.z.z.z.z.z.z.z.z.z.z.z.z.z.z.&.9 o.b ! } ' ~ ! ! ! ! ! ! ! ! ! ! ! ! ! W R d c c e O.@.4.t.F Q D ",
"z.z.z.z.z.z.z.z.z.z.z.z.z.z.z.z.z.z.z.z.z.z.z.z.z.z.z.z.z.z.&.9 o.M ! } / ! ! ! ! ! ! ! ! ! ! ! ! ! ! ! T d c c e O.@.4.g.t.7.t.",
"s.z.z.z.z.z.z.z.z.z.z.z.z.z.z.z.z.z.z.z.z.z.z.z.z.z.z.z.z.z.&.9 o.M ! } ' ! ! ! ! ! ! ! ! ! ! ! ! ! ! ! T d c c e O.@.4.g.g.g.g.",
";.z.z.z.z.z.z.z.z.z.z.z.z.z.z.z.z.z.z.z.z.z.z.z.z.z.z.z.z.z.&.9 o.b ! } ' ! ! ! ! ! W ! ! ! ! ! ! ! ! ! T d c c e O.@.a.g.g.g.g.",
",.x.z.z.z.z.z.z.z.z.z.z.z.z.z.z.z.z.z.z.z.z.z.z.z.z.z.z.z.z.&.9 +.M W } / ! ! ! ! ! ! ! ! ! ! ! ! ! ! ! R d c c e O.@.i.i.i.4.2.",
",.z.z.z.z.z.z.z.z.z.z.z.z.z.z.z.z.z.z.z.z.z.z.z.z.z.z.z.z.z.&.9 +.M W } ' ~ ! ! ! ! ! ! ! ! ! ! ! ! ! ! R d c c e :.; O O O O O ",
",.z.z.z.z.z.z.z.z.z.z.z.z.z.z.z.z.z.z.z.z.z.z.z.z.z.z.z.z.z.&.9 +.M W } ' ! ! ! ! ! ! ! ! ! ! ! ! ! ! ! T d c c e <.>.:.<.<.;.> ",
",.z.z.z.z.z.z.z.z.z.z.z.z.z.z.z.z.z.z.z.z.z.z.z.z.z.z.z.z.z.&.9 +.M W } [ ! ! ! ! ! ! ! ! ! ! ! ! ! ! ! T d c c e <.<.<.<.<.;.> ",
",.z.z.z.z.z.z.z.z.z.z.z.z.z.z.z.z.z.z.z.z.z.z.z.z.z.z.z.z.z.&.9 +.M ! } [ ! W ! ! ! ! ! ! ! ! W ! ! ! W K d c c e <.<.<.<.<.;.: ",
",.z.z.z.z.z.z.z.z.z.z.z.z.z.z.z.z.z.z.z.z.z.z.z.z.z.z.z.z.z.&.9 +.M W { { ! ! ! ! ! ! ! ! ! ! ! ! ! ! ! J d c c e <.<.<.<.<.;.: ",
",.z.z.z.z.z.z.z.z.z.z.z.z.z.z.z.z.z.z.z.z.z.z.z.z.z.z.z.z.z.&.9 +.M W / } / ! ! ! ! ! ! ! ! ! ! ! ! W W c d W c e <.<.<.<.<.;.: ",
",.z.z.z.z.z.z.z.z.z.z.z.z.z.z.z.z.z.z.z.z.z.z.z.z.z.z.z.z.z.&.9 +.M W ~ ] } ~ ! ! ! ! ! ! ! ! ! ! ! W K d N ! c e <.<.<.<.<.:.: ",
",.z.z.z.z.z.z.z.z.z.z.z.z.z.z.z.z.z.z.z.z.z.z.z.z.z.z.z.z.z.&.9  .z ! ! W ^ ! ! ! ! W ! ! ! ! ! ! ! ! W E W W k r <.<.<.<.<.-.: ",
",.z.z.z.z.z.z.z.z.z.z.z.z.z.z.z.z.z.z.z.z.z.z.z.z.z.z.z.z.z.&.9 &.4 E ! W ! ! ! ! ! ! ! ! ! ! ! ! ! W W W W N = @.<.<.<.<.<.;.> ",
",.z.z.z.z.z.z.z.z.z.z.z.z.z.z.z.z.z.z.z.z.z.z.z.z.z.z.z.z.z.&.9 <. .o X X X X X X X X X X X X X X X X X X X $ =.<.<.<.<.<.<.;.: ",
",.z.z.z.z.z.z.z.z.z.z.z.z.z.z.z.z.z.z.z.z.z.z.z.z.z.z.z.x.c.&.9 <.<.<.<.<.<.<.<.<.<.<.<.<.<.<.<.<.<.<.<.<.<.<.<.<.<.<.<.<.<.;.> "
};
