/* XPM */
static char *result[] = {
/* columns rows colors chars-per-pixel */
"64 64 172 2 ",
"   c #161617",
".  c #161618",
"X  c #181819",
"o  c #292A2B",
"O  c #2F3031",
"+  c #333334",
"@  c #363839",
"#  c #3B3C3C",
"$  c #3E3F40",
"%  c #0A3865",
"&  c #163C62",
"*  c #3F4041",
"=  c #1A416A",
"-  c #12457A",
";  c #12487F",
":  c #1B4877",
">  c #284768",
",  c #294A6A",
"<  c #354E68",
"1  c #204973",
"2  c #284D72",
"3  c #2A5176",
"4  c #3C5B7A",
"5  c #345272",
"6  c #424344",
"7  c #444648",
"8  c #4B4C4D",
"9  c #4C4E51",
"0  c #4F5050",
"q  c #525354",
"w  c #555659",
"e  c #56595B",
"r  c #5A5C5D",
"t  c #5D5F62",
"y  c #4C5F74",
"u  c #425E79",
"i  c #5F6061",
"p  c #4B637B",
"a  c #45607D",
"s  c #626465",
"d  c #646769",
"f  c #66686A",
"g  c #696B6C",
"h  c #6C6E71",
"j  c #616E7C",
"k  c #6D7073",
"l  c #66717C",
"z  c #717273",
"x  c #767A7C",
"c  c #7B7C7C",
"v  c #727578",
"b  c #074B8F",
"n  c #0A4B8D",
"m  c #124A81",
"M  c #184E84",
"N  c #1D558E",
"B  c #044B93",
"V  c #054E9A",
"C  c #084F98",
"Z  c #094D91",
"A  c #06519C",
"S  c #0E5298",
"D  c #155698",
"F  c #225283",
"G  c #365D84",
"H  c #2A649D",
"J  c #34669A",
"K  c #0353A4",
"L  c #0457AA",
"P  c #0459AF",
"I  c #035AB2",
"U  c #025EBB",
"Y  c #0060BE",
"T  c #1067BE",
"R  c #1A65B1",
"E  c #3573B1",
"W  c #426386",
"Q  c #476889",
"!  c #496887",
"~  c #516B86",
"^  c #58728C",
"/  c #486E94",
"(  c #6A7A8A",
")  c #637587",
"_  c #7C7F82",
"`  c #737F8C",
"'  c #737C86",
"]  c #607E9C",
"[  c #0263C4",
"{  c #0166CA",
"}  c #0868C8",
"|  c #146CC3",
" . c #106FCD",
".. c #1C76D1",
"X. c #2478CE",
"o. c #3E7FC1",
"O. c #317BC4",
"+. c #277CD1",
"@. c #7E8285",
"#. c #77828C",
"$. c #718293",
"%. c #3B84CA",
"&. c #3081D1",
"*. c #3887D5",
"=. c #3F8CD8",
"-. c #428DD7",
";. c #4D94DB",
":. c #5195D8",
">. c #818386",
",. c #828588",
"<. c #868A8D",
"1. c #8C8C8C",
"2. c #8A8D91",
"3. c #838F9B",
"4. c #8D9195",
"5. c #86919C",
"6. c #8D969F",
"7. c #949494",
"8. c #919599",
"9. c #95999C",
"0. c #9A9B9C",
"q. c #8394A4",
"w. c #8697A8",
"e. c #8F9EAC",
"r. c #8A96A1",
"t. c #949DA5",
"y. c #999DA1",
"u. c #9EA2A6",
"i. c #96A3AF",
"p. c #9FA4A9",
"a. c #9EA8B3",
"s. c #A5A5A5",
"d. c #A1A5AA",
"f. c #A5A9AE",
"g. c #ACACAC",
"h. c #A6ABB0",
"j. c #A9ADB1",
"k. c #A5AFB9",
"l. c #ACB0B5",
"z. c #AEB3B9",
"x. c #B3B3B3",
"c. c #B0B5BA",
"v. c #B4B9BE",
"b. c #BBBBBB",
"n. c #B7BBC1",
"m. c #B9BEC3",
"M. c #BDC1C6",
"N. c #BFC5CA",
"B. c #C3C3C3",
"V. c #C1C6CB",
"C. c #C3C8CD",
"Z. c #CBCCCC",
"A. c #C5CBD0",
"S. c #C9CED3",
"D. c #CCD1D6",
"F. c #CED3D9",
"G. c #D3D3D3",
"H. c #D1D6DB",
"J. c #D3D9DF",
"K. c #DCDCDC",
"L. c #D6DCE2",
"P. c #D9DFE5",
"I. c #DBE0E6",
"U. c #DEE4EA",
"Y. c #E3E4E4",
"T. c #E7E7E8",
"R. c #ECECED",
"E. c #EFEFF0",
"W. c #EFF0F0",
"Q. c #F3F4F4",
"!. c #FEFEFE",
"~. c None",
/* pixels */
"~.~.~.~.~.~.~.~.~.~.~.~.~.~.~.~.~.~.~.~.~.~.~.~.~.~.~.~.~.~.~.~.~.~.~.~.~.~.~.~.~.~.~.~.~.~.~.~.~.~.~.~.~.~.~.~.~.~.~.~.~.~.~.~.",
"~.~.~.~.~.~.~.~.~.~.~.~.~.~.~.~.~.~.~.~.~.~.~.~.~.~.~.~.~.~.~.~.~.~.~.~.~.~.~.~.~.~.~.~.~.~.~.~.~.~.~.~.~.~.~.~.~.~.~.~.~.~.~.~.",
"~.~.~.~.~.~.~.~.~.~.~.~.~.~.~.~.~.~.~.~.~.~.~.~.~.~.~.~.~.~.~.~.~.~.~.~.~.~.~.~.~.~.~.~.~.~.~.~.~.~.~.~.~.~.~.~.~.~.~.~.~.~.~.~.",
"~.~.~.~.~.~.~.~.~.~.~.~.~.~.~.~.~.~.~.~.~.~.~.~.~.~.~.~.~.~.~.~.~.~.~.~.~.~.~.~.~.~.~.~.~.~.~.~.~.~.~.~.~.~.~.~.~.~.~.~.~.~.~.~.",
"~.~.~.~.~.~.~.~.~.~.~.~.~.~.~.~.~.~.~.~.~.~.~.~.~.~.~.~.~.~.~.~.~.~.~.~.~.~.~.~.~.~.~.~.~.~.~.~.~.~.~.~.~.~.~.~.~.~.~.~.~.~.~.~.",
"~.~.~.~.~.~.~.~.~.~.~.~.~.~.~.~.~.~.~.~.~.~.~.~.~.~.~.~.~.~.~.~.~.~.~.~.~.~.~.~.~.~.~.~.~.~.~.~.~.~.~.~.~.~.~.~.~.~.~.~.~.~.~.~.",
"~.~.~.~.~.~.~.~.~.~.~.~.~.~.~.~.~.~.~.~.~.~.~.~.~.~.~.~.~.~.~.~.~.~.~.~.~.~.~.~.~.~.~.~.~.~.~.~.~.~.~.~.~.~.~.~.~.~.~.~.~.~.~.~.",
"                                . . . . . X . . . . . . . X X X X X X X X X X X X X X X X X X X X X X X X X X X X X X X X X X X ",
"7 7 7 7 7 7 7 7 7 7 7 7 7 7 7 7 7 7 7 7 7 7 6 6 7 7 7 7 7 8 8 9 9 9 9 9 9 9 9 9 9 9 9 9 9 9 9 9 9 9 9 9 9 9 9 9 9 9 9 9 9 9 9 9 ",
">.>._ _ >.,._ _ @.>.>._ _ >.>.>.@.' >.>.>.>.>.>.@.@.@._ >.2.4.4.4.4.4.4.4.4.4.4.4.4.4.4.4.4.4.4.4.4.4.4.4.4.4.4.4.4.4.4.4.4.4.4.",
"n.n.z.n.n.n.z.n.v.v.v.v.n.c.n.v.n.n.n.n.n.n.n.n.n.n.c.n.n.m.N.N.N.N.N.N.N.N.N.N.N.N.N.N.N.N.N.N.N.N.N.N.N.N.N.N.N.N.N.N.N.N.N.N.",
"F.L.L.L.F.L.L.L.J.L.J.J.L.L.H.L.J.J.H.L.F.J.F.J.H.H.L.L.L.P.P.P.I.P.P.P.P.P.I.I.P.P.P.P.P.P.I.I.P.P.P.P.P.P.P.U.P.P.P.P.I.P.P.P.",
"P.U.U.P.U.U.U.U.P.U.U.U.P.P.U.U.U.U.U.U.P.U.U.U.U.P.U.U.U.U.U.U.U.U.U.U.U.U.U.U.U.U.U.U.U.U.U.U.U.U.U.U.U.U.U.U.U.U.U.U.U.U.U.U.",
"U.U.U.T.U.U.U.U.U.U.U.U.U.U.U.U.U.U.U.U.U.U.U.U.U.U.U.U.U.U.U.U.U.U.U.U.U.U.U.U.U.U.U.U.U.U.U.U.U.U.U.U.U.U.U.U.U.U.U.U.U.U.U.U.",
"U.U.U.U.U.U.U.U.U.U.U.U.U.U.U.U.U.U.U.U.U.U.U.U.U.U.U.U.U.U.U.U.U.U.U.U.U.U.U.U.U.U.U.U.U.U.U.U.U.U.U.U.U.U.U.U.U.U.U.U.U.U.U.U.",
"U.U.U.U.U.U.U.U.U.U.U.U.U.U.U.U.U.U.U.U.U.U.U.U.U.U.U.U.U.U.U.U.U.U.U.U.U.U.U.U.U.U.U.U.U.U.U.U.U.U.U.U.U.U.U.U.U.U.U.U.U.U.U.U.",
"U.U.U.U.U.U.U.U.U.U.U.U.U.U.U.U.U.U.U.U.U.U.U.U.U.U.U.U.T.P.U.U.U.U.U.U.U.U.U.U.U.U.U.U.U.U.U.U.U.U.U.U.U.U.U.U.U.U.U.U.U.U.U.U.",
"U.U.U.U.U.U.U.U.U.U.U.U.U.U.U.U.U.U.U.U.U.U.U.U.U.U.U.U.U.U.U.U.U.U.I.U.U.U.I.U.U.U.U.U.U.U.U.U.U.U.U.U.U.U.U.U.U.U.U.U.U.U.U.U.",
"U.U.U.U.U.U.U.U.U.U.U.U.U.T.P.U.U.U.U.P.P.P.F.A.C.A.C.Z.A.A.C.N.M.N.M.M.M.M.B.V.A.F.I.U.U.U.U.U.U.U.U.U.U.U.U.U.U.U.U.U.U.U.U.U.",
"U.U.U.U.U.U.U.U.U.U.U.U.U.Y.U.U.U.U.P.L.S.n.h.t.y.y.y.0.y.y.t.2.2.2.1.2.1.<.,.7.8.j.N.F.I.U.U.U.U.U.U.U.U.U.U.U.U.U.U.U.U.U.U.U.",
"U.U.U.U.U.U.U.U.U.U.U.U.U.U.U.U.P.L.S.b.y._ h h g z z z z z h s i s i i r e w e r k 4.l.S.L.I.I.U.U.U.U.U.U.U.U.U.U.U.U.U.U.U.U.",
"U.U.U.U.U.U.U.U.U.U.U.U.U.U.U.P.L.V.h.>.t 9 9 t g z z z h z h g f f f s i r q 0 8 8 w @.d.V.J.I.U.U.U.U.U.U.U.U.U.U.U.U.U.U.U.U.",
"U.U.U.U.U.U.U.U.U.U.U.U.U.U.P.F.v.9.z 0 7 q x 7.s.g.g.g.g.g.g.g.g.g.g.g.0.0.0.7.c f w t z 9.v.Z.L.P.U.U.U.U.U.U.U.U.U.U.U.U.U.U.",
"U.U.U.U.U.U.U.U.U.U.U.U.U.U.F.f._ t w i c 0.b.G.K.K.K.K.K.K.H.G.G.G.K.K.K.G.G.Z.B.x.s.7.c k _ 0.n.J.U.U.U.U.U.U.U.U.U.U.U.U.U.U.",
"U.U.U.U.U.U.U.U.U.U.U.U.U.P.n.x q e z 7.b.K.R.Q.Q.Q.!.Q.T.K.H.G.H.K.U.Q.Q.Q.Q.Q.Q.T.Y.G.s.c s f 2.V.U.U.U.U.U.U.U.U.U.U.U.U.U.U.",
"U.U.U.U.U.U.U.U.U.U.U.U.P.L.r.9 8 ,.x.K.Q.Q.!.!.!.!.Q.Y.C.z.f.i.a.z.N.I.Q.!.!.!.!.!.!.Q.Y.x._ 8 w k.U.U.U.U.U.U.U.U.U.U.U.U.U.U.",
"U.U.U.U.U.U.U.U.U.U.U.U.T.F.>.9 c Z.T.Q.!.!.!.!.!.Q.D.h.` u 4 W W ! $.k.F.W.!.!.!.!.!.!.Q.T.b.f 7 u.U.U.U.U.U.U.U.U.U.U.U.U.U.U.",
"U.U.U.U.U.T.U.U.U.U.U.U.P.C.x 0 0.Y.!.!.!.!.!.!.Q.D.t.^ G M D D H J / $.e.C.R.!.!.!.!.!.!.Q.G.c * 4.L.U.U.U.U.U.U.U.U.U.U.U.U.U.",
"U.U.U.U.U.U.U.U.U.U.U.I.J.n.h 9 s.E.!.!.!.!.!.!.Y.f.~ F S L Y | O.o.E J / 6.S.Q.!.!.!.!.!.Q.G.c * ,.S.P.U.U.U.U.U.U.U.U.U.U.U.U.",
"U.U.U.U.U.U.U.U.U.U.U.P.A.k.s 9 s.W.!.!.!.!.!.!.S.( F K I [ { ..-.:.%.R N p p.R.!.!.!.!.!.Q.Z.c $ ' M.H.U.U.U.U.U.U.U.U.U.U.U.U.",
"U.U.U.U.U.U.U.U.U.U.U.J.m.y.t 8 s.W.!.!.!.!.!.Q.j.4 Z U { { { ..=.;.*.| A & ' K.!.!.!.!.!.Q.Z.c # z c.S.U.U.U.U.U.U.U.U.U.U.U.U.",
"U.U.U.U.U.U.U.U.U.U.U.F.n.5.t 8 g.W.!.!.!.!.!.T.5.1 V U [ { {  .+.&.X.} K % j K.!.!.!.!.!.Q.B.c # k f.C.U.U.U.U.U.U.U.U.U.U.U.U.",
"U.U.U.U.U.U.U.U.U.U.I.C.h.8.r 0 g.Q.!.!.!.!.!.Y.#.= B L U Y Y } | | T I Z & ` Y.!.!.!.!.!.W.B.c # g f.C.P.U.U.U.U.U.U.U.U.U.U.U.",
"U.U.U.U.U.U.U.U.U.Y.P.V.f.8.r 8 g.Q.!.!.!.!.!.K.#.> m C K L P I I P L A - < u.T.!.!.!.!.!.W.B.c # z d.V.P.U.U.U.U.U.U.U.U.U.U.U.",
"U.U.U.U.U.U.U.U.U.U.P.V.d.8.r 9 g.Q.!.!.!.!.!.T.y.p 2 M n b B A A C b m , l B.Q.!.!.!.!.!.R.b.c # k f.M.P.U.U.U.U.U.U.U.U.U.U.U.",
"U.U.U.U.U.U.U.U.U.U.P.M.d.8.r 0 g.R.!.!.!.!.!.Q.Z.y.( u 2 : - ; m ; : 5 j f.Y.!.!.!.!.!.!.R.b._ # g f.V.I.U.U.U.U.U.U.U.U.U.U.U.",
"U.U.U.U.U.U.U.U.U.U.P.M.d.8.r 9 g.R.Q.!.!.!.!.!.R.D.l.5.) p p W W Q ^ $.p.G.Q.Q.Q.Q.!.!.!.T.b.c * k h.N.P.U.U.U.U.U.U.U.U.U.U.U.",
"U.U.U.U.U.U.U.U.U.U.L.M.d.8.r q s.Y.Q.Q.!.Q.!.Q.Q.W.K.M.f.7.5.5.q.w.i.z.F.R.Q.Q.R.W.Q.Q.W.K.x.>.6 h h.V.P.U.U.U.U.U.U.U.U.U.U.U.",
"U.U.U.U.U.U.U.U.U.U.L.M.d.4.t q y.G.K.Y.R.W.Q.Q.Q.Q.R.Y.K.Z.Z.B.C.S.G.Y.W.Q.R.Y.K.Y.T.Y.K.Z.x.>.6 k f.V.P.U.U.U.U.U.U.U.U.U.U.U.",
"U.U.U.U.U.U.U.U.U.U.L.M.d.8.r 9 7.b.B.B.G.G.K.K.Y.T.R.R.R.Y.K.Y.I.U.T.R.W.R.K.K.G.G.Z.B.B.b.g.c 6 g g.C.I.U.U.U.U.U.U.U.U.U.U.U.",
"U.U.U.U.U.U.U.U.U.U.L.M.d.8.t 8 >.s.s.g.g.x.b.b.B.Z.G.G.G.G.G.G.G.G.G.G.G.G.B.b.b.x.s.s.s.s.7.g # h h.A.I.U.U.U.U.U.U.U.U.U.U.U.",
"U.U.U.U.U.U.U.U.U.U.L.M.d.8.i * s >.7.0.s.0.7.7.s.g.x.x.x.g.g.g.g.x.g.x.x.x.s.7.1.1.1.1.7.1.z 8 @ v h.N.I.U.U.U.U.U.U.U.U.U.U.U.",
"U.U.U.T.U.U.U.U.U.U.P.M.d.9.g * 8 i c 1.7.7.c c 7.0.0.0.0.0.0.0.0.0.0.0.0.7.7.c z z c c z s 8 # * _ h.A.P.U.U.U.U.U.U.U.U.U.U.U.",
"U.U.U.U.U.U.U.U.U.U.L.N.d.y._ 0 $ 6 q z 1.c z z 1.7.7.7.1.1.1.7.1.1.1.1.1.1.1.z i z z g q * # * e 2.h.A.I.U.U.U.U.U.U.U.U.U.U.T.",
"U.U.U.U.U.U.U.U.U.U.P.N.f.y.4.v i 6 * 8 q f f z c 1.1.1.,.1.<.<.1.1.1.1.>.1.1.z g i 8 # + * q g @.9.h.S.I.U.U.U.U.U.U.U.U.U.U.U.",
"U.U.U.U.U.U.U.U.U.U.P.A.j.u.y.4.c f q 6 * 6 8 0 i i i i i i i i i i i i i i i q 8 * + + 6 i z ,.9.u.j.D.U.U.U.U.U.U.U.U.U.U.U.U.",
"U.U.U.U.U.U.U.U.U.U.I.S.v.f.f.u.7.1.z q 6 * # # * 6 6 6 6 6 7 7 6 6 6 6 * 6 6 * # # + 6 g >.7.0.u.d.z.F.U.U.U.U.U.U.U.U.U.U.U.U.",
"U.U.U.U.U.U.U.U.U.U.U.J.V.n.l.h.s.0.1.c f q 6 * * 6 * * * * * * * * 6 * * * * * # 8 r g 1.7.s.s.d.j.M.J.U.U.U.U.U.U.U.U.U.U.U.U.",
"U.U.U.U.U.U.U.U.U.U.U.U.J.S.N.n.l.f.y.4.<.x h s s s s s i i d i i s i s i s s s i v @.1.9.u.f.l.c.m.S.L.U.U.U.U.U.U.U.U.U.U.U.U.",
"U.U.U.U.U.U.U.U.U.U.U.U.P.L.F.S.V.n.l.f.u.9.2.,.,.,.@.,.<.@.@.<.,.,.,.,.,.,.,.,.<.4.y.p.f.l.v.M.C.D.J.I.U.U.U.U.U.U.U.U.U.U.U.U.",
"U.U.U.U.U.U.U.U.U.U.U.U.U.P.P.L.F.S.M.v.l.j.d.u.y.0.y.y.y.0.0.y.t.y.0.y.y.y.0.y.u.d.h.z.n.N.A.D.J.L.I.U.U.U.U.U.U.U.U.U.U.U.U.U.",
"U.U.U.U.U.U.U.U.U.U.U.U.U.U.U.U.P.L.F.A.N.m.n.c.l.j.h.h.h.h.h.h.j.j.h.h.h.h.j.l.z.v.M.N.S.H.L.I.I.I.U.U.U.U.U.U.U.U.U.U.U.U.U.U.",
"U.U.U.U.U.U.U.U.U.U.U.U.U.U.U.U.U.I.I.L.F.D.S.V.M.n.M.n.M.n.M.n.m.m.m.n.m.m.m.M.C.S.D.F.I.I.I.I.I.U.U.U.U.U.U.U.U.U.U.U.U.U.U.U.",
"U.U.U.U.U.U.U.U.U.U.U.U.U.U.U.U.U.U.U.I.I.P.L.L.H.F.D.D.D.D.D.D.F.F.F.D.F.D.F.J.J.L.P.I.I.U.U.U.U.U.U.U.U.U.U.U.U.U.U.U.U.T.U.U.",
"U.U.U.U.U.U.U.U.U.U.U.U.U.U.U.U.U.U.U.U.U.U.I.I.I.I.I.I.I.I.I.I.P.P.P.P.P.P.I.I.I.I.I.U.U.U.U.U.U.U.U.U.U.U.U.U.U.U.U.U.U.U.U.U.",
"U.U.U.U.U.U.U.U.U.U.U.U.U.U.U.U.U.U.U.U.U.U.U.U.U.U.I.U.U.U.I.U.U.U.U.U.U.U.U.U.U.U.U.U.U.U.U.U.U.U.U.U.U.U.U.U.U.U.U.U.U.U.U.U.",
"U.U.U.U.U.U.U.U.U.U.U.U.U.U.U.U.U.U.U.U.U.U.U.U.U.U.U.U.U.U.U.U.U.U.U.U.U.U.U.U.U.U.U.U.U.U.U.U.U.U.U.U.U.U.U.U.U.U.U.U.U.U.U.U.",
"U.U.U.U.U.U.U.I.U.U.U.U.U.U.U.U.U.U.U.U.U.U.U.U.U.U.U.U.U.U.U.I.U.U.U.U.U.U.U.U.U.U.U.U.U.U.U.I.U.U.U.U.U.U.U.U.U.U.U.U.U.U.U.U.",
"I.I.I.I.I.I.I.I.U.U.P.U.U.P.P.U.P.I.P.U.U.I.I.I.I.I.I.I.I.I.I.P.I.P.P.I.P.I.I.I.I.I.I.I.I.I.I.I.I.I.I.I.I.I.I.I.I.I.I.I.I.I.I.I.",
"D.F.D.D.D.F.D.D.D.S.D.D.D.D.D.D.F.D.F.F.D.D.F.D.D.D.D.D.D.S.A.A.A.A.A.A.A.A.A.A.C.S.C.C.S.C.A.A.A.N.A.A.A.A.A.A.A.A.A.A.N.A.A.A.",
"l.l.l.h.j.l.j.l.j.l.j.j.k.k.l.j.l.l.l.l.l.l.l.l.z.j.l.l.h.p.u.u.u.u.u.u.u.u.u.p.p.p.p.u.u.p.p.p.p.p.p.p.u.u.u.u.u.u.u.u.a.u.u.p.",
"x x x x x x x x x x x _ _ _ _ @._ _ _ _ _ _ _ _ #._ _ _ x v k h i d h h k k k k k k k k k k k k l k k k k k k k k k k k k k k k ",
"w w w w w w w w w w w r t t t t t t t t t t t t t i t t e w q 9 $ @ 8 w w w w w w w w w w w w w w w w w w w w w w w w w w w w w ",
"s s s s s s d s s s d g h h h h h h h h h h h h h h k g h h f w O o 9 d g g g f f g g g f f g g g f g f g g f g g g g g f g g g "
};
