/* XPM */
static char *_47805b873c444c4c1127beaa2bf96begK0r1bObqCDZlTqA[] = {
/* columns rows colors chars-per-pixel */
"64 64 166 2 ",
"   c None",
".  c #010202",
"X  c #0C0C0C",
"o  c #000F1E",
"O  c #0F1010",
"+  c #111111",
"@  c #171718",
"#  c #171819",
"$  c #1C1C1D",
"%  c #0E1823",
"&  c #121E2B",
"*  c #011E3B",
"=  c #1F2021",
"-  c #13212E",
";  c #0F273F",
":  c #1A2D3F",
">  c #152534",
",  c #222324",
"<  c #262728",
"1  c #272829",
"2  c #28292A",
"3  c #2E2F30",
"4  c #313234",
"5  c #373838",
"6  c #3B3C3D",
"7  c #062748",
"8  c #1E3349",
"9  c #04315E",
"0  c #1A3B5D",
"q  c #3F3F41",
"w  c #083460",
"e  c #01376C",
"r  c #003B76",
"t  c #3F4142",
"y  c #314050",
"u  c #16426E",
"i  c #0A437C",
"p  c #164A7D",
"a  c #2C4C6C",
"s  c #274767",
"d  c #375068",
"f  c #2F5274",
"g  c #315478",
"h  c #434445",
"j  c #454748",
"k  c #4B4C4C",
"l  c #4D4F50",
"z  c #4F5152",
"x  c #4B555F",
"c  c #525455",
"v  c #57595B",
"b  c #595B5C",
"n  c #535558",
"m  c #485A6C",
"M  c #5B5D60",
"N  c #505F6E",
"B  c #5E6267",
"V  c #586675",
"C  c #646667",
"Z  c #676A6C",
"A  c #6A6B6C",
"S  c #61676D",
"D  c #6B6E71",
"F  c #6E7174",
"G  c #65707B",
"H  c #737373",
"J  c #73767B",
"K  c #76797C",
"L  c #7B7B7B",
"P  c #014283",
"I  c #00468D",
"U  c #18538F",
"Y  c #004A95",
"T  c #004E9C",
"R  c #0F5091",
"E  c #105398",
"W  c #1C5894",
"Q  c #2F5A83",
"!  c #3E6C9A",
"~  c #0151A2",
"^  c #0055AB",
"/  c #0059B3",
"(  c #005DBC",
")  c #406F9E",
"_  c #40709F",
"`  c #627180",
"'  c #7D7F82",
"]  c #4171A2",
"[  c #4679AB",
"{  c #0262C2",
"}  c #0066CB",
"|  c #0569CD",
" . c #0C6DCE",
".. c #1B72C9",
"X. c #2076CB",
"o. c #257CD3",
"O. c #7C8288",
"+. c #7B8997",
"@. c #4C85BD",
"#. c #4482BF",
"$. c #2E81D5",
"%. c #4F8AC3",
"&. c #5390CC",
"*. c #67A3E0",
"=. c #7BB0E4",
"-. c #858586",
";. c #858788",
":. c #85898C",
">. c #8C8C8D",
",. c #8B8D90",
"<. c #878D92",
"1. c #8E9195",
"2. c #8A949D",
"3. c #949494",
"4. c #919599",
"5. c #969A9E",
"6. c #9A9A9A",
"7. c #9A9EA2",
"8. c #9DA1A5",
"9. c #9FA4A8",
"0. c #A2A3A4",
"q. c #A3A6A9",
"w. c #A5A9AD",
"e. c #ACACAC",
"r. c #A7ACB0",
"t. c #AAAEB2",
"y. c #AEB1B6",
"u. c #AEB3B8",
"i. c #B1B1B1",
"p. c #B2B7BB",
"a. c #B4B9BE",
"s. c #BABABB",
"d. c #B7BCC1",
"f. c #B9BEC3",
"g. c #BAC0C5",
"h. c #BDC3C8",
"j. c #C1C2C2",
"k. c #C1C6CB",
"l. c #C4C9CD",
"z. c #CBCBCB",
"x. c #C6CBD1",
"c. c #C9CED4",
"v. c #CAD0D6",
"b. c #CFD5DA",
"n. c #D3D3D3",
"m. c #D1D6DB",
"M. c #D4DADF",
"N. c #DBDCDC",
"B. c #D6DBE1",
"V. c #D9DFE4",
"C. c #DBE1E7",
"Z. c #DEE4EA",
"A. c #E3E3E3",
"S. c #E7E8EA",
"D. c #EAEAEA",
"F. c gray93",
"G. c #ECECEC",
"H. c #EEEFEF",
"J. c #EAEAEA",
"K. c #F1F1F1",
"L. c #F5F5F5",
"P. c #F8F8F8",
"I. c #FDFDFD",
"U. c white",
"Y. c #FEFEFE",
"T. c #FEFEFE",
/* pixels */
"% a _ @.&.&.&.[ : . C q.,.2 M c.Z.Z.Z.Z.Z.Z.Z.Z.Z.Z.Z.Z.Z.Z.Z.Z.Z.Z.Z.Z.Z.Z.Z.Z.Z.Z.Z.Z.Z.Z.Z.Z.Z.Z.Z.Z.Z.Z.u.4 .               ",
"% a _ @.&.&.&.[ : . C q.,.2 M c.Z.Z.Z.Z.Z.Z.Z.Z.Z.Z.Z.Z.Z.Z.Z.Z.Z.Z.Z.Z.Z.Z.Z.Z.Z.Z.Z.Z.Z.Z.Z.Z.Z.Z.Z.Z.Z.Z.u.4 .               ",
"% a _ @.&.&.&.[ : . C q.,.2 M c.Z.Z.Z.Z.Z.Z.Z.Z.Z.Z.Z.Z.Z.Z.Z.Z.Z.Z.Z.Z.Z.Z.Z.Z.Z.Z.Z.Z.Z.Z.Z.Z.Z.Z.Z.Z.Z.Z.u.4 .               ",
"% a _ @.&.&.&.[ : . C q.,.2 M c.Z.Z.Z.Z.Z.Z.Z.Z.Z.Z.Z.Z.Z.Z.Z.Z.Z.Z.Z.Z.Z.Z.Z.Z.Z.Z.Z.Z.Z.Z.Z.Z.Z.Z.Z.Z.Z.Z.u.4 .               ",
"% a _ @.&.&.&.[ : . C q.,.2 M c.Z.Z.Z.Z.Z.Z.Z.Z.Z.Z.Z.Z.Z.Z.Z.Z.Z.Z.Z.Z.Z.Z.Z.Z.Z.Z.Z.Z.Z.Z.Z.Z.Z.Z.Z.Z.Z.Z.u.4 .               ",
"% a _ @.&.&.&.[ : . C q.,.2 M c.Z.Z.Z.Z.Z.Z.Z.Z.Z.Z.Z.Z.Z.Z.Z.Z.Z.Z.Z.Z.Z.Z.Z.Z.Z.Z.Z.Z.Z.Z.Z.Z.Z.Z.Z.Z.Z.Z.u.4 .               ",
"% a _ @.&.&.&.[ : . C q.,.2 M c.Z.Z.Z.Z.Z.Z.Z.Z.Z.Z.Z.Z.Z.Z.Z.Z.Z.Z.Z.Z.Z.Z.Z.Z.Z.Z.Z.Z.Z.Z.Z.Z.Z.Z.Z.Z.Z.Z.u.4 .               ",
"% a _ @.&.&.&.[ : . C q.,.2 M c.Z.Z.Z.Z.Z.Z.Z.Z.Z.Z.Z.Z.Z.Z.Z.Z.Z.Z.Z.Z.Z.Z.Z.Z.Z.Z.Z.Z.Z.Z.Z.Z.Z.Z.Z.Z.Z.Z.u.4 .               ",
"% a _ @.&.&.&.[ : . C q.,.2 M c.Z.Z.Z.Z.Z.Z.Z.Z.Z.Z.Z.Z.Z.Z.Z.Z.Z.Z.Z.Z.Z.Z.Z.Z.Z.Z.Z.Z.Z.Z.Z.Z.Z.Z.Z.Z.Z.Z.u.4 .               ",
"% a _ @.&.&.&.[ : . C q.,.2 M c.Z.Z.Z.Z.Z.Z.Z.Z.Z.Z.Z.Z.Z.Z.Z.Z.Z.Z.Z.Z.Z.Z.Z.Z.Z.Z.Z.Z.Z.Z.Z.Z.Z.Z.Z.Z.Z.Z.u.4 .               ",
"% a _ @.&.&.&.[ : . C q.,.2 M c.Z.Z.Z.Z.Z.Z.Z.Z.Z.Z.Z.Z.Z.Z.Z.Z.Z.Z.Z.Z.Z.Z.Z.Z.Z.Z.Z.Z.Z.Z.Z.Z.Z.Z.Z.Z.Z.Z.u.4 .               ",
"% a _ @.&.&.&.[ : . C q.,.2 M c.Z.Z.Z.Z.Z.Z.Z.Z.Z.Z.Z.Z.Z.Z.Z.Z.Z.Z.Z.Z.Z.Z.Z.Z.Z.Z.Z.Z.Z.Z.Z.Z.Z.Z.Z.Z.Z.Z.u.4 .               ",
"% a _ @.&.&.&.[ : . C q.,.2 M c.Z.Z.Z.Z.Z.Z.Z.Z.Z.Z.Z.Z.Z.Z.Z.Z.Z.Z.Z.Z.Z.Z.Z.Z.Z.Z.Z.Z.Z.Z.Z.Z.Z.Z.Z.Z.Z.Z.u.4 .               ",
"% a _ @.&.&.&.[ : . C q.,.2 M c.Z.Z.Z.Z.Z.Z.Z.Z.Z.Z.Z.Z.Z.Z.Z.Z.Z.Z.Z.Z.Z.Z.Z.Z.Z.Z.Z.Z.Z.Z.Z.Z.Z.Z.Z.Z.Z.Z.u.4 .               ",
"% a _ @.&.&.&.[ : . C q.,.2 M c.Z.Z.Z.Z.Z.Z.Z.Z.Z.Z.Z.Z.Z.Z.Z.Z.Z.Z.Z.Z.Z.Z.Z.Z.Z.Z.Z.Z.Z.Z.Z.Z.Z.Z.Z.Z.Z.Z.u.4 .               ",
"% a _ @.&.&.&.[ : . C q.,.2 M c.Z.Z.Z.Z.Z.Z.Z.Z.Z.Z.Z.Z.Z.Z.Z.Z.Z.Z.Z.Z.Z.Z.Z.Z.Z.Z.Z.Z.Z.Z.Z.Z.Z.Z.Z.Z.Z.Z.u.4 .               ",
"% a _ @.&.&.&.[ : . C q.,.2 M c.Z.Z.Z.Z.Z.Z.Z.Z.Z.Z.Z.Z.Z.Z.Z.Z.Z.Z.Z.Z.Z.Z.Z.Z.Z.Z.Z.Z.Z.Z.Z.Z.Z.Z.Z.Z.Z.Z.u.4 .               ",
"% a _ @.&.&.&.[ : . C q.,.2 M c.Z.Z.Z.Z.Z.Z.Z.Z.Z.Z.Z.Z.Z.Z.Z.Z.Z.Z.Z.Z.Z.Z.Z.Z.Z.Z.Z.Z.Z.Z.Z.Z.Z.Z.Z.Z.Z.Z.u.4 .               ",
"% a _ @.&.&.&.[ : . C q.,.2 M c.Z.Z.Z.Z.Z.Z.Z.Z.Z.Z.Z.Z.Z.Z.Z.Z.Z.Z.C.C.Z.Z.Z.Z.Z.Z.Z.Z.Z.Z.Z.Z.Z.Z.Z.Z.Z.Z.u.4 .               ",
"% a _ @.&.&.&.[ : . C q.,.2 M c.Z.Z.Z.Z.Z.Z.Z.Z.Z.Z.Z.Z.Z.Z.Z.Z.Z.Z.C.C.Z.Z.Z.Z.Z.Z.Z.Z.Z.Z.Z.Z.Z.Z.Z.Z.Z.Z.u.4 .               ",
"% a _ @.&.&.&.[ : . C q.,.2 M c.Z.Z.Z.Z.Z.Z.Z.Z.C.C.Z.Z.Z.Z.Z.Z.Z.Z.C.C.C.Z.C.C.Z.Z.Z.Z.Z.Z.Z.Z.Z.Z.Z.Z.Z.Z.u.4 .               ",
"% a _ @.&.&.&.[ : . C q.,.2 M c.Z.Z.Z.Z.Z.Z.Z.Z.C.C.C.C.B.M.M.M.M.M.M.m.m.M.m.M.B.C.Z.Z.Z.Z.Z.Z.Z.Z.Z.Z.Z.Z.u.4 .               ",
"% a _ @.&.&.&.[ : . C q.,.2 M c.Z.Z.Z.Z.Z.Z.Z.C.b.x.a.r.9.9.9.9.9.9.9.9.9.9.9.9.9.w.p.k.b.B.C.Z.Z.Z.Z.Z.Z.Z.u.4 .               ",
"% a _ @.&.&.&.[ : . C q.,.2 M c.Z.Z.Z.Z.Z.C.m.l.t.9.9.9.9.9.9.9.9.9.9.9.9.9.7.8.9.9.9.9.t.g.v.B.C.Z.Z.Z.Z.Z.w.3 .               ",
"% a _ @.&.&.&.[ : . C q.,.2 M c.Z.Z.Z.C.b.a.w.9.9.9.8.8.8.9.9.9.8.8.8.7.7.7.9.8.9.9.7.7.9.9.q.y.k.B.Z.Z.Z.C.:.$ . . .           ",
"% a _ @.&.&.&.[ : . C q.,.2 M c.Z.V.b.p.9.9.9.8.7.1.D Z Z Z Z Z Z Z Z Z Z Z Z Z Z Z J 1.7.9.8.9.9.q.f.B.Z.C.g.Z 3 X . . . .     ",
"% a _ @.&.&.&.[ : . C q.,.2 M c.B.a.q.9.8.7.7.,.c 2 X X . X . . . . X X X X X X X X O 2 b :.5.7.9.9.w.x.C.Z.Z.V.k.:.h O X .     ",
"% a ! @.&.&.&.[ : . C q.,.2 M c.x.q.9.7.5.K t . + 2 b K K K K K K K K K K K K K K A j # X + j O.5.7.q.h.V.Z.Z.Z.Z.Z.Z.g.J $     ",
"% a ! @.&.&.&.[ : . C q.,.2 b c.k.q.9.,.c # X h L 6.-.6.e.i.i.i.i.i.i.i.i.i.i.i.e.0.>.L j # X , b 1.9.f.B.Z.Z.Z.Z.C.C.Z.p.4     ",
"% a ! @.&.&.&.[ : . C q.,.2 b c.a.9.9., X 6 -.i.e.0.M h ;.>.>.;.;.;.;.;.;.;.;.;.L C C 3.e.6.C 2 + h ,.a.B.Z.Z.Z.Z.l.c.C.p.4     ",
"% a ! @.&.&.&.[ : . C q.,.2 b c.a.9.9.@ c 0.i.0.L n ' 0.e.i.0.6.6.6.6.6.6.6.6.6.6.;.C k Z 0.e.3.k h :.a.B.Z.Z.Z.Z.3.q.B.p.4     ",
"% a ! @.&.&.&.[ : . C q.,.2 M c.a.9.9.$ K e.6.C -.0.i.z.n.N.F.F.F.F.F.F.F.F.F.F.J.N.z.0.H L 0.i.A z :.a.B.Z.Z.Z.Z.>.0.M.p.4 X   ",
"% a ! @.&.&.&.[ : . C q.,.2 M c.a.9.7.$ L e.s.F.U.U.L.U.U.U.U.U.U.U.U.U.U.U.U.I.A.z.n.F.U.J.z.s.A l :.a.B.Z.Z.Z.C.>.0.M.p.4 X   ",
"% a ! @.&.&.&.[ : . C q.,.2 M c.a.9.9.$ L A.U.U.U.U.U.U.U.I.F.A.N.m.m.m.V.S.K.I.L.J.A.K.U.U.J.j.C j :.a.B.Z.Z.Z.m.;.0.M.p.4 X   ",
"% a ! @.&.&.&.[ : . C q.,.2 M c.a.9.9.$ L I.U.U.U.U.U.U.J.j.O.N 8 * 7 7 s ` 4.z.U.U.U.U.U.U.F.z.C j :.a.B.Z.Z.Z.m.;.0.M.p.4 X   ",
"% a ! @.&.&.&.[ : . C q.,.2 M c.d.9.9.$ L I.U.U.U.U.U.F.' y 9 r P Y Y Y I e ; B N.U.U.U.U.U.K.z.C j :.a.B.Z.Z.Z.V.7.y.B.p.4 X   ",
"% a ! @.&.&.&.[ : . C q.,.2 M c.k.q.9.$ L I.U.U.U.U.U.k.o e T ^ / ( ( ( ^ ~ P 0 :.K.U.U.U.U.L.n.C j :.a.B.Z.Z.Z.Z.V.C.C.p.4 X   ",
"% a ! @.&.&.&.] > . C q.,.2 M c.l.q.9.= L I.U.U.U.U.U.l.* Y ( } } } } | } { ^ i V N.U.U.U.U.L.n.Z j :.a.B.Z.Z.Z.Z.Z.Z.Z.p.4 X   ",
"% a ! @.&.&.&.] - . C q.,.2 M c.m.t.9., ;.I.U.U.U.U.U.S.8 Y } } } }  .$.o.| ( P m n.U.U.U.U.L.n.Z j :.d.B.Z.Z.Z.Z.B.v.a.:., .   ",
"% a ! @.&.&.&.] - . C q.,.2 M c.C.l.w.2 >.I.U.U.U.U.U.L.J w ( } } | $.=.*...~ u K A.U.U.U.U.I.n.Z j 1.k.V.Z.Z.B.k.7.F 6 + . .   ",
"% a ! @.&.&.&.] - . C q.,.2 M c.Z.V.k.3 >.L.U.U.U.U.U.U.z.x i ~ ( { X.&.#.W s G n.U.U.U.U.U.I.N.A k w.B.C.Z.k.,.n < X . .       ",
"& f ! @.&.&.&.] - . C q.,.2 M c.Z.Z.C.2 H J.U.U.U.U.U.U.I.z.S d p R E U Q V 6.N.U.U.U.U.U.U.U.N.Z v f.Z.Z.Z.,.= . . . .         ",
"- g ! @.&.&.&.] - . C q.,.2 M c.Z.Z.Z.h 5 3.z.A.I.U.U.U.U.U.A.s.<.+.+.2.y.N.L.U.U.U.U.U.U.L.n.6.k F x.Z.Z.Z.7.1 . .             ",
"- g ! @.&.&.&.] - . C q.,.2 M c.Z.Z.Z.9.z $ j K i.A.U.U.U.U.U.U.U.U.U.U.U.U.U.U.U.U.U.K.n.e.Z h Z u.B.Z.Z.Z.u.4 .               ",
"- g ! @.&.&.&.] - . C q.,.2 M c.Z.Z.Z.V.f.F 2 X 4 A j.A.U.U.U.U.U.U.U.U.U.I.J.A.A.z.e.;.b q v 4.l.C.Z.Z.Z.Z.u.4 .               ",
"- g ! @.&.&.&.] - . C q.,.2 M c.Z.Z.Z.Z.Z.M.7.n , X 6 Z >.>.>.>.>.>.>.>.>.>.H Z C k , # 6 F p.Z.Z.Z.Z.Z.Z.Z.u.4 .               ",
"- g ! @.&.&.&.] - . C q.,.2 M c.Z.Z.Z.Z.Z.Z.Z.v.1.B 6 4 4 4 4 4 4 3 , , , , , , , 2 q Z r.m.C.Z.Z.Z.Z.Z.Z.Z.u.4 .               ",
"- g ) @.&.&.&.] - . C q.,.2 M c.Z.Z.Z.Z.Z.Z.Z.Z.V.x.y.w.w.w.w.w.w.9.5.4.4.4.4.4.4.7.y.x.C.Z.Z.Z.Z.Z.Z.Z.Z.Z.u.4 .               ",
"- g _ @.&.&.&.] - . C q.,.2 M c.Z.Z.Z.Z.Z.Z.Z.Z.Z.Z.Z.Z.Z.Z.Z.Z.Z.Z.Z.Z.Z.Z.Z.Z.Z.Z.Z.Z.Z.Z.Z.Z.Z.Z.Z.Z.Z.Z.u.4 .               ",
"- g _ @.&.&.&.] - . C q.,.2 M c.Z.Z.Z.Z.Z.Z.Z.Z.Z.Z.Z.Z.Z.Z.Z.Z.Z.Z.Z.Z.Z.Z.Z.Z.Z.Z.Z.Z.Z.Z.Z.Z.Z.Z.Z.Z.Z.Z.u.4 .               ",
"- g _ @.&.&.&.] - . C q.,.2 M c.Z.Z.Z.Z.Z.Z.Z.Z.Z.Z.Z.Z.Z.Z.Z.Z.Z.Z.Z.Z.Z.Z.Z.Z.Z.Z.Z.Z.Z.Z.Z.Z.Z.Z.Z.Z.Z.Z.u.4 .               ",
"- g _ @.&.&.&.] - . C q.,.2 M c.Z.Z.Z.Z.Z.Z.Z.Z.Z.Z.Z.Z.Z.Z.Z.Z.Z.Z.Z.Z.Z.Z.Z.Z.Z.Z.Z.Z.Z.Z.Z.Z.Z.Z.Z.Z.Z.Z.u.4 .               ",
"- g _ @.&.&.&.] - . C q.,.2 M c.Z.Z.Z.Z.Z.Z.Z.Z.Z.Z.Z.Z.Z.Z.Z.Z.Z.Z.Z.Z.Z.Z.Z.Z.Z.Z.Z.Z.Z.Z.Z.Z.Z.Z.Z.Z.Z.Z.u.4 .               ",
"- g _ @.&.&.&.] - . C q.,.2 M c.Z.Z.Z.Z.Z.Z.Z.Z.Z.Z.Z.Z.Z.Z.Z.Z.Z.Z.Z.Z.Z.Z.Z.Z.Z.Z.Z.Z.Z.Z.Z.Z.Z.Z.Z.Z.Z.Z.u.4 .               ",
"- g _ @.&.&.&.] - . C q.,.2 M c.Z.Z.Z.Z.Z.Z.Z.Z.Z.Z.Z.Z.Z.Z.Z.Z.Z.Z.Z.Z.Z.Z.Z.Z.Z.Z.Z.Z.Z.Z.Z.Z.Z.Z.Z.Z.Z.Z.u.4 .               ",
"- g _ @.&.&.&.] - . C q.,.2 M c.Z.Z.Z.Z.Z.Z.Z.Z.Z.Z.Z.Z.Z.Z.Z.Z.Z.Z.Z.Z.Z.Z.Z.Z.Z.Z.Z.Z.Z.Z.Z.Z.Z.Z.Z.Z.Z.Z.u.4 .               ",
"- g _ @.&.&.&.] - . C q.,.2 M c.Z.Z.Z.Z.Z.Z.Z.Z.Z.Z.Z.Z.Z.Z.Z.Z.Z.Z.Z.Z.Z.Z.Z.Z.Z.Z.Z.Z.Z.Z.Z.Z.Z.Z.Z.Z.Z.Z.u.4 .               ",
"- g _ @.&.&.&.] - . C q.,.2 M c.Z.Z.Z.Z.Z.Z.Z.Z.Z.Z.Z.Z.Z.Z.Z.Z.Z.Z.Z.Z.Z.Z.Z.Z.Z.Z.Z.Z.Z.Z.Z.Z.Z.Z.Z.Z.Z.Z.u.4 .               ",
"- g _ @.&.&.&.] - . C q.,.2 M c.Z.Z.Z.Z.Z.Z.Z.Z.Z.Z.Z.Z.Z.Z.Z.Z.Z.Z.Z.Z.Z.Z.Z.Z.Z.Z.Z.Z.Z.Z.Z.Z.Z.Z.Z.Z.Z.Z.u.4 .               ",
"- g ] @.&.&.&.] - . C q.,.2 M c.Z.Z.Z.Z.Z.Z.Z.Z.Z.Z.Z.Z.Z.Z.Z.Z.Z.Z.Z.Z.Z.Z.Z.Z.Z.Z.Z.Z.Z.Z.Z.Z.Z.Z.Z.Z.Z.Z.u.4 .               ",
"- g ] %.&.&.&.] - . C q.,.2 M c.Z.Z.Z.Z.Z.Z.Z.Z.Z.Z.Z.Z.Z.Z.Z.Z.Z.Z.Z.Z.Z.Z.Z.Z.Z.Z.Z.Z.Z.Z.Z.Z.Z.Z.Z.Z.Z.Z.u.4 .               ",
"- g ] %.&.&.&.] - . C q.,.2 M c.Z.Z.Z.Z.Z.Z.Z.Z.Z.Z.Z.Z.Z.Z.Z.Z.Z.Z.Z.Z.Z.Z.Z.Z.Z.Z.Z.Z.Z.Z.Z.Z.Z.Z.Z.Z.Z.Z.u.4 .               ",
"- g ] %.&.&.&.] - . C q.,.2 M c.Z.Z.Z.Z.Z.Z.Z.Z.Z.Z.Z.Z.Z.Z.Z.Z.Z.Z.Z.Z.Z.Z.Z.Z.Z.Z.Z.Z.Z.Z.Z.Z.Z.Z.Z.Z.Z.Z.u.4 .               ",
"- g ] %.&.&.&.] - . C q.,.2 M c.Z.Z.Z.Z.Z.Z.Z.Z.Z.Z.Z.Z.Z.Z.Z.Z.Z.Z.Z.Z.Z.Z.Z.Z.Z.Z.Z.Z.Z.Z.Z.Z.Z.Z.Z.Z.Z.Z.u.4 .               "
};
