/* XPM */
static char *result[] = {
/* columns rows colors chars-per-pixel */
"64 64 115 2 ",
"   c black",
".  c gray5",
"X  c #0F0F10",
"o  c #151516",
"O  c #171718",
"+  c #1D1E1E",
"@  c #242526",
"#  c #262728",
"$  c #2C2E2F",
"%  c #313232",
"&  c #393A3B",
"*  c #193A5B",
"=  c #003366",
"-  c #02366B",
";  c #013B76",
":  c #324E6B",
">  c #3F5367",
",  c #404141",
"<  c #474849",
"1  c #4B4C4D",
"2  c #4D4F51",
"3  c #4F5253",
"4  c #535354",
"5  c #55585A",
"6  c #5B5B5C",
"7  c #5E6368",
"8  c #546474",
"9  c #626466",
"0  c #646668",
"q  c #67696C",
"w  c #686B6E",
"e  c #6C6E71",
"r  c #6E7173",
"t  c #727476",
"y  c #76797B",
"u  c #7B7C7C",
"i  c #07519B",
"p  c #0255A9",
"a  c #005EBC",
"s  c #257CB3",
"d  c #7A7E83",
"f  c #0262C3",
"g  c #0064C8",
"h  c #0C6DCE",
"j  c #176EC5",
"k  c #2D81B5",
"l  c #3082B6",
"z  c #7E8185",
"x  c #7E8489",
"c  c #5695BC",
"v  c #5896BC",
"b  c #6589AC",
"n  c #708AA5",
"m  c #4E95C1",
"M  c #5E9EC6",
"N  c #609FC7",
"B  c #7AA7C3",
"V  c #77ADCF",
"C  c #66A3E0",
"Z  c #838384",
"A  c #828689",
"S  c #868A8D",
"D  c #8D8D8D",
"F  c #858C93",
"G  c #8B8E90",
"H  c #8E9296",
"J  c #8D949A",
"K  c #949697",
"L  c #91969A",
"P  c #969A9E",
"I  c #9B9B9B",
"U  c #8693A1",
"Y  c #959BA1",
"T  c #999EA2",
"R  c #9EA1A4",
"E  c #A2A3A4",
"W  c #A2A6AA",
"Q  c #A5A9AD",
"!  c #AAACAE",
"~  c #A7ABB0",
"^  c #ABAEB1",
"/  c #ACB1B5",
"(  c #AFB3B8",
")  c #B0B0B0",
"_  c #B1B5BA",
"`  c #BDBDBD",
"'  c #86ADC5",
"]  c #92B3C7",
"[  c #BABFC3",
"{  c #BDC2C7",
"}  c #B5C4CD",
"|  c #BEC3C8",
" . c #BEC9CF",
".. c #C3C3C3",
"X. c #C1C6CB",
"o. c #C4C9CE",
"O. c #CBCBCB",
"+. c #C7CCD1",
"@. c #C8CED3",
"#. c #CDD1D6",
"$. c #CED3D9",
"%. c #D3D3D3",
"&. c #D4D9DF",
"*. c #D8D8D8",
"=. c #D6DCE1",
"-. c #DADFE5",
";. c #CFE0EB",
":. c #DBE0E6",
">. c #DEE4EA",
",. c #E3E3E3",
"<. c #ECECEC",
"1. c #EFF3F6",
"2. c #F3F3F3",
"3. c #FFFFFF",
"4. c None",
/* pixels */
"4.4.4.4.4.4.4.4.4.4.4.4.4.4.4.4.4.4.4.4.4.4.4.4.4.4.4.4.4.4.4.4.4.4.4.4.4.4.4.4.4.4.4.4.4.4.4.4.4.4.4.4.4.4.4.4.4.4.4.4.4.4.4.4.",
"4.4.4.4.4.4.4.4.4.4.4.4.4.  & 2 2 1 < o 4.4.4.4.4.4.4.4.4.4.4.4.4.4.4.4.4.4.4.4.4.4.4.4.X 3 1 1 < &   4.4.4.4.4.4.4.4.4.4.4.4.4.",
"4.4.4.4.4.4.4.4.4.4.4.4.4.. { ( R R @.q   4.4.4.4.4.4.4.4.4.4.4.4.4.4.4.4.4.4.4.4.4.4.  5 o.W R _ o.O 4.4.4.4.4.4.4.4.4.4.4.4.4.",
"$ $ $ $ $ $ $ $ $ $ $ $ @ w >.$.o.| >.#.@ $ $ $ $ $ $ $ $ $ $ $ $ $ $ $ $ $ $ $ $ $ $ + | :.o.X.$.>.z + $ $ $ $ # # # @ @ # @ # ",
"~ ~ ~ ~ ~ ~ ~ ~ ~ ~ ~ Q W +.>.>.>.>.>.>.^ ~ ~ ~ ~ ~ ~ ~ ~ ~ ~ ~ ~ ~ ~ ~ ~ ~ ~ ~ ~ ~ ~ W >.>.>.>.>.>.$.R ~ ~ ~ ~ T T T T T T T T ",
">.>.>.>.>.>.>.>.>.>.>.>.>.>.>.>.>.>.>.>.>.>.>.>.>.>.>.>.>.>.>.>.>.>.>.>.>.>.>.>.>.>.>.>.>.>.>.>.>.>.>.>.>.>.>.>.>.>.>.>.>.>.>.>.",
">.>.>.>.>.>.>.>.>.>.>.>.>.>.>.>.>.>.>.>.>.>.>.>.>.>.>.>.>.>.>.>.>.>.>.>.>.>.>.>.>.>.>.>.>.>.>.>.>.>.>.>.>.>.>.>.>.>.>.>.>.>.>.>.",
">.>.>.>.>.>.>.>.>.>.>.>.>.>.>.>.>.>.>.>.>.>.>.>.>.>.:._ y t y u Z S S x T $.>.>.>.>.>.>.>.>.>.>.>.>.>.>.>.>.>.>.>.>.>.>.>.>.>.>.",
">.>.>.>.>.>.>.>.>.>.>.>.>.>.>.>.>.>.>.>.>.>.>.>.>.&.Z 9 Z I ! ) ) ) ^ R 4 4 _ >.>.>.>.>.>.>.>.>.>.>.>.>.>.>.>.>.>.>.>.>.>.>.>.>.",
">.>.>.>.>.>.>.>.>.>.>.>.>.>.>.>.>.>.>.>.>.>.>.>.>., *.3.3.3.` n b U <.3.3.,.9 ! >.>.>.>.>.>.>.>.>.>.>.>.>.>.>.>.>.>.>.>.>.>.>.>.",
">.>.>.>.>.>.>.>.>.>.>.>.>.>.>.>.>.>.>.>.>.>.>.>.[ 1 2.3.3.A i C h g : 2.3.3.) z :.>.>.>.>.>.>.>.>.>.>.>.>.>.>.>.>.>.>.>.>.>.>.>.",
">.>.>.>.>.>.>.>.>.>.>.>.>.>.>.>.>.>.>.>.>.>.>.>.W 2 <.3.3.8 p j f a ; O.3.3.E w +.>.>.>.>.>.>.>.>.>.>.>.>.>.>.>.>.>.>.>.>.>.>.>.",
">.>.>.>.>.>.>.>.>.>.>.>.>.>.>.>.>.>.>.>.>.>.>.>.W 1 ,.3.3.,.> - = * P 2.3.3.E r | >.>.>.>.>.>.>.>.>.>.>.>.>.>.>.>.>.>.>.>.>.>.>.",
">.>.>.>.>.>.>.>.>.>.>.>.>.>.>.>.>.>.>.>.>.>.>.>.Q 4 ..,.,.<.3.2.<.3.2.2.2.O.K e { >.>.>.>.>.>.>.>.>.>.>.>.>.>.>.>.>.>.>.>.>.>.>.",
">.>.>.>.>.>.>.>.>.>.>.>.>.>.>.>.>.>.>.>.>.>.>.>.Q % 9 Z t I I I I I R t D D & d | >.>.>.>.>.>.>.>.>.>.>.>.>.>.>.>.>.>.>.>.>.>.>.",
">.>.>.>.>.>.>.>.>.>.>.>.>.>.>.>.>.>.>.>.>.>.>.>.^ A 1 , 6 y y u u u u 6 6 1 w I o.>.>.>.>.>.>.>.>.>.>.>.>.>.>.>.>.>.>.>.>.>.>.>.",
">.>.>.>.>.>.>.>.>.>.>.>.>.>.>.>.>.>.>.>.>.>.>.>.+.Q R G r q q q q q q q A Y Q +.-.>.>.>.>.>.>.>.>.>.>.>.>.>.>.>.>.>.>.>.>.>.>.>.",
">.>.>.>.>.>.>.>.>.>.>.>.>.>.>.>.>.>.>.>.>.>.>.>.>.>.$.{ ( ~ Q Q Q Q Q / [ #.>.>.>.>.>.>.>.>.>.>.>.>.>.>.>.>.>.>.>.>.>.>.>.>.>.>.",
">.>.>.>.>.>.>.>.>.>.>.>.>.>.>.>.>.>.>.>.>.>.>.>.>.>.>.>.>.>.>.>.>.>.>.>.>.>.>.>.>.>.>.>.>.>.>.>.>.>.>.>.>.>.>.>.>.>.>.>.>.>.>.>.",
">.>.>.>.>.>.>.>.>.>.>.>.>.>.>.>.>.>.>.>.>.>.>.>.>.>.>.>.>.>.>.>.>.>.>.>.>.>.>.>.>.>.>.>.>.>.>.>.>.>.>.>.>.>.>.>.>.>.>.>.>.>.>.>.",
"A A A A A A A A A A A A A A A A A A A A A A A A A A A A A A A A A A S F H H H G S S S A S S S S S S S S S S S S G L H L L H H H ",
"t r t t t t t t r t t t t t t t r t t t t t t r 9 9 9 9 7 7 7 0 9 H #.$.$.$.$.$.@.@.| | | X.{ { { o.{ { | | { { X.[ [ [ X.[ [ L ",
"^ ^ ^ ^ ^ ^ / ^ ^ ^ ^ ^ ! ^ ^ ^ ^ ^ ^ ^ ^ ^ ^ ^ ^ ! / ! ! Q Q L 9 Y >.>.>.>.>.>.>.>.>.>.>.>.>.>.>.>.>.>.>.>.>.>.>.>.>.>.>.>.>.~ ",
"^ ^ ^ ^ ^ ^ ^ ^ ^ ^ ^ ^ ^ ^ ^ ^ ^ ^ ^ ^ ^ ^ ^ ^ ! / ! ! ! ! ^ T 9 T >.>.>.>.>.>.>.>.>.>.>.>.-.+.| { | +.:.>.>.>.>.>.>.>.>.>.>.~ ",
"^ ^ ^ ^ ^ ^ ^ ^ ^ ^ ^ ^ ^ ^ ^ ^ ^ ^ ^ ^ ^ ^ ^ ^ ^ ^ ^ ^ ^ ^ ^ W 9 T >.>.-.>.>.>.>.>.>.>.>.>.@.Y u t e e d ! >.>.>.>.>.>.>.>.>.~ ",
"^ ^ ^ ^ ^ ^ ^ ^ ^ ^ ^ ^ ^ ^ ^ ^ ^ ^ ^ ^ ^ ^ ^ ^ ^ ^ ^ ^ ^ ^ ^ R 9 T >.>.>.>.>.>.>.>.:.,.>.>.W e & K E E ! 9 _ >.>.>.>.>.>.>.>.~ ",
"^ ^ ^ ^ ^ ^ ^ ^ ^ ^ ^ ^ ^ ^ / ^ ^ ^ ^ ^ ^ ^ ^ ^ ^ ^ ^ ^ ^ ^ ^ T 9 T >.:.>.>.>.>.>.>.>.>.>.#.Y 1 D O.3.3.3.,.4 $.>.>.>.>.>.>.>.~ ",
"^ ^ ^ ^ ^ ^ ^ ^ ^ ^ ^ ^ ^ ^ ! ^ ^ ^ ^ ^ ^ ^ ^ ^ ^ ^ ^ ^ ^ ^ ^ P 9 T >.>.>.>.>.>.>.>.>.>.>.[ A 6 D 2.3.3.3.3.4 T >.>.>.>.>.>.>.~ ",
"^ ^ ^ ^ ^ ^ ^ ^ ^ ^ ^ ^ ^ ^ ^ ^ ^ ^ ^ ^ ^ ^ ^ ^ ^ ^ ^ ^ ^ ^ ^ L 9 T >.>.>.>.>.>.>.>.>.>.>.^ q 9 t 2.2.O.2.3.R Z >.>.>.>.>.>.>.Q ",
"^ ^ ^ ^ ^ ^ ^ ^ ^ ^ ^ ^ ^ ^ ^ ^ ^ ^ ^ ^ ^ ^ ^ ^ ^ ^ ^ ^ ^ ^ ^ H 9 Y >.>.>.>.>.>.>.>.>.>.>.! q u E 2.L ; : <.) S >.>.>.>.>.>.>.~ ",
"^ ^ ^ ^ ^ ^ ^ ^ ^ ^ ^ ^ ^ ^ ^ ^ ^ ^ ^ ^ ^ ^ ^ ^ ^ ^ ^ ^ ^ ^ ^ F 0 T >.>.>.>.>.>.>.>.>.>.>.Q q u I 3.* a g U ) S >.>.>.>.>.>.>.~ ",
"^ ^ ^ ^ ^ ^ ^ ^ ^ ^ ^ ^ ^ ^ ^ ^ ^ ^ ^ ^ ^ ^ ^ ^ ^ ^ ^ ^ ^ ^ ~ x 9 R >.>.>.>.>.>.>.>.>.>.>.Q q u K 2.= f h b ) d >.>.>.>.>.>.>.~ ",
"! / ^ ^ ^ ^ ^ ^ ^ ^ ^ ^ ^ ^ ^ ^ ^ ^ ^ ^ ^ ^ ^ ^ ^ ^ ^ ^ ~ / ~ z 9 Y >.>.>.>.>.>.>.>.>.>.>.! q u I 2.- j C n ) u >.>.>.>.>.>.>.^ ",
"^ ^ ^ ^ ^ ^ ^ ^ ^ ^ ^ ^ ^ ^ ^ ^ ^ ^ ^ ^ ^ ^ ^ ^ / ^ ^ ^ / ~ ~ z 9 R >.>.>.>.>.>.>.>.>.>.>.Q q u I 3.> p i [ ! t >.>.>.>.>.>.>.Q ",
"^ ^ ^ ^ ^ ^ ! ^ ^ ^ ^ ^ ^ ^ ^ ^ ^ ^ ^ ^ / ! ^ ^ ! ^ ^ ^ ! / ^ x 0 R >.:.>.>.>.>.>.>.>.>.>.~ q u K <.:.8 S 3.E t >.>.>.>.>.>.>.~ ",
"^ ^ ^ ^ ^ ^ / ^ ^ ^ ^ ^ ^ ^ ^ ^ ^ ^ ^ ^ ^ ^ ^ ^ ^ ^ ^ ^ ^ ! ^ H 0 Y >.>.>.>.>.>.>.>.>.>.>.[ r 6 t ,.3.3.3.3.u y >.>.>.>.>.>.>.~ ",
"^ ^ ^ ^ ^ ^ ^ ^ ^ ^ ^ ^ ^ ^ ^ ^ ^ ^ / ! ^ ^ ^ ^ ^ ^ ^ ^ ^ ^ ^ H 7 R >.>.>.>.>.>.>.>.>.>.>.o.H , Z ,.3.3.3.3.9 _ >.>.>.>.>.>.>.~ ",
"^ ^ ^ ^ ^ ^ ^ ^ ^ ^ ^ ^ ^ ^ ^ ^ ^ ^ ^ ^ ^ ^ ^ ^ ^ ^ ^ ^ ^ ^ / H 9 Y >.>.>.>.>.>.>.>.>.>.>.&.R 2 9 ..,.<.2.*.z :.>.>.>.>.>.>.>.~ ",
"^ ^ ^ ^ ^ ^ ^ ^ ^ ^ ^ ^ ^ ^ ^ ^ ^ ^ ^ ^ ^ ^ ^ ^ ^ ^ ^ ^ ^ ^ / J 9 R >.>.>.>.>.>.>.>.>.>.>.>.Q x % 4 1 1 1 , &.>.>.>.>.>.>.>.>.~ ",
"^ ^ ^ ^ ^ ^ ^ ^ ^ ^ ^ ^ ^ ^ ^ ^ ^ ^ ^ ^ ^ ! / ^ ^ ^ ^ ^ ^ ^ ! J 9 Y >.>.>.>.>.>.>.>.>.>.>.>.@./ ! W W W [ >.>.>.>.>.>.>.>.>.>.~ ",
"^ ^ ^ ^ ^ ^ ^ ^ ^ ^ ^ ^ ^ ^ ^ ^ ^ ^ ! ! / ! / ! ^ ^ ^ ^ ^ / ^ P 0 Y >.>.>.>.>.>.>.>.>.>.>.>.>.>.>.>.>.>.>.>.>.>.>.>.>.>.>.>.>.~ ",
"! / ^ ^ ^ ^ ^ ^ ^ ^ ^ ^ ^ ) ^ ^ ^ ^ / ^ ! / ^ ^ ^ ^ ^ ^ ^ ! ^ P 9 R >.>.>.>.>.>.>.>.>.>.>.>.>.>.>.>.>.>.>.>.>.>.>.>.>.>.>.>.>.~ ",
") ^ ^ ^ ^ ^ ^ ^ ^ ^ / ^ ^ ^ ^ ^ ^ ^ ^ ^ ^ ^ ^ / ^ ^ ^ ^ ^ ^ ^ L 0 Y >.>.>.>.>.>.>.>.>.>.>.>.>.>.>.>.>.>.>.>.>.>.>.>.>.>.>.>.>.~ ",
"^ ^ ^ ^ ^ ^ ^ ^ ^ ^ ! ^ ^ ^ ^ ^ ^ ^ ^ ^ ^ ^ ^ ! ^ ^ ^ ^ ^ ^ ^ J 0 R >.>.>.>.>.>.>.>.>.>.>.>.>.>.>.>.>.>.>.>.>.>.>.>.>.>.>.>.>.~ ",
"^ ^ ^ ^ ^ ^ ^ ^ ! / ! ^ ^ ^ ^ ^ ^ ! / ! ^ ^ ^ ^ ^ ^ ^ ^ ^ ^ ~ J 0 R >.>.>.>.>.>.>.>.>.>.>.>.>.>.>.>.>.>.>.>.>.>.>.>.>.>.>.>.>.>.",
"^ ^ ^ ^ ^ ^ ^ ^ / ! / ! ^ ^ ^ ^ ^ / ! / ^ ^ ^ ^ ! / ^ ^ ^ ! / F 0 P >.>.>.>.>.>.>.>.>.>.>.>.>.>.>.>.>.>.>.>.>.>.>.>.>.>.>.>.>.>.",
"^ ^ ^ ^ ^ ^ ^ ^ / ! ^ ^ ^ ^ ^ ^ ^ / ! ! ^ ^ ^ ^ ^ ^ ^ ^ ^ ^ ^ F 0 Y >.>.>.>.>.>.>.>.>.>.>.>.>.>.>.>.>.>.>.>.>.>.>.>.>.>.>.>.>.>.",
"^ ^ ^ ^ ^ ^ ^ ^ ^ ^ ^ ^ ^ ^ ^ ^ ^ ! / ^ ^ ^ ^ ^ ^ ^ ^ ^ ^ ^ ~ F 0 R >.>.>.>.>.>.>.>.>.>.>.>.>.>.>.>.>.>.>.>.>.>.>.>.>.>.>.>.>.>.",
"^ ^ ^ ^ ^ ^ ^ ^ ^ ^ ^ ^ ^ ^ ^ ) ^ ^ ^ ^ ^ ^ ^ ^ ^ ^ ^ ^ ^ ^ ^ F 0 T >.>.>.>.>.>.>.>.>.>.>.>.>.>.>.>.>.>.>.>.>.>.>.>.>.>.>.>.>.>.",
"^ ^ ^ ^ ^ ^ ^ ^ ^ ^ ^ ^ ^ ^ ^ ^ ^ ^ ^ ^ ^ ^ ^ ^ ^ ^ ^ ^ ^ ^ ~ F 0 R >.>.>.>.>.>.>.>.>.>.>.>.>.>.>.>.>.>.>.>.>.>.>.>.>.>.>.>.>.>.",
"^ ^ ^ ^ ^ ^ ! / ^ ^ ^ ^ ^ ^ ^ ^ ^ ^ ^ ^ ^ ^ / ^ ^ ^ ^ ^ ^ ^ ~ F 0 T >.>.>.>.>.>.>.>.>.>.>.>.>.>.>.>.>.>.>.>.>.>.>.>.>.>.>.>.>.@.",
"^ ^ ^ ^ ^ ^ ^ ^ ^ ^ / ! ^ ^ ^ ^ ^ ^ ^ ! ^ ^ ! ^ ^ ^ ^ ^ ^ / ~ F 0 T >.>.>.>.>.>.>.>.>.>.>.>.>.>.>.>.>.>.>.>.>.>.>.>.>.>.>.>.>.W ",
"^ ^ ^ ^ ^ ^ ^ ^ ^ ^ ^ ^ ^ ^ ^ ^ ^ ^ ^ / / ! / ! / ! ^ ^ ^ ^ ~ J 7 T >.>.>.>.>.>.>.>.>.>.>.>.>.>.>.>.>.>.>.>.>.>.>.>.>.>.>.>.>.~ ",
"^ ^ ^ ^ ^ ^ ^ ^ ^ ^ ^ ^ ^ ^ ^ ^ ^ ^ ^ ^ ! / ! / ^ ^ ^ ^ ^ ^ ~ J q T >.>.>.>.>.>.>.>.>.>.>.>.>.>.>.>.>.>.>.>.>.>.>.>.>.>.>.>.>.~ ",
"^ ^ ^ ^ ^ ^ ^ ^ ^ ^ ^ Q ! ! ! ! ! ^ ^ ^ ! / / ! ^ ^ ^ ^ ^ ^ ^ J 0 T >.>.,.>.>.>.>.>.>.>.>.>.>.>.>.>.>.>.>.>.>.>.>.>.>.>.>.>.>.~ ",
"^ ^ ^ ^ ^ ^ ^ ^ ^ ^ Q D G G G G D G L P I E ! ! ^ ^ ^ ^ ^ ^ / P 0 T >.>.>.>.>.>.>.>.>.>.>.>.>.>.>.>.>.>.>.>.>.>.>.>.>.>.>.>.>.~ ",
"^ ^ ^ ^ ^ ^ ^ ^ ^ ^ 2 u Z Z Z Z A Z Z Z Z Z 6 / / ! ! / ^ ^ / Y 0 T >.>.>.>.>.>.>.>.>.>.>.>.>.>.>.>.>.>.>.>.>.>.>.>.>.>.>.>.>.~ ",
"^ ^ ^ ^ ^ ^ ^ ^ ^ W % ..O...` ` ` ` ` ` ..O.1 E ! / ! ^ ^ ^ ! Y 7 T >.>.>.>.>.>.>.>.>.>.>.>.>.>.>.>.>.>.>.>.>.>.>.>.>.>.>.>.>.~ ",
"^ ^ ^ ^ ^ ^ ^ ^ ^ Q $ ..O.` ` ` ` ` ` ` ....1 K / ! ^ ^ ^ ^ / P q T >.>.>.>.>.>.>.>.>.>.>.>.>.>.>.>.>.>.>.>.>.>.>.>.>.>.>.>.>.~ ",
"^ ^ ^ ^ ^ ^ ^ ^ ^ ^ $ ` %.%.%.{ B ' O.%.%.%.1 K ^ ^ ^ ^ ^ ^ / Y 0 T >.>.>.>.>.>.>.>.>.>.>.>.>.>.>.>.>.>.>.>.>.>.>.>.>.>.>.>.>.~ ",
"^ ^ ^ ^ ^ ^ ^ ^ ! / % ` %.%. .k V m c %.%.O.1 G ^ ^ ^ ^ ! ^ ^ J 7 T >.>.>.>.>.>.>.>.>.>.>.>.>.>.>.>.>.>.>.>.>.>.>.>.>.>.>.>.>.~ ",
"^ ^ ^ ^ ^ ^ ^ ^ ^ ! $ ` %.%.] M 1.;.s #.%.O.1 G / ! ^ ^ / ~ ! R 0 R >.>.>.>.>.>.>.>.>.>.>.>.>.>.>.>.>.>.>.>.>.>.>.>.>.>.>.>.>.~ ",
"T I T T I T T I T E $ ` %.%.] M 1.;.s %.%.O.1 u T I T E ! / / ^ 0 R >.>.>.>.>.>.>.>.>.>.>.>.>.>.>.>.>.>.>.>.>.>.>.>.>.>.>.>.>.~ ",
"& & & & & & & & & & % ) %.%. .l V m v %.%...1 $ & & & & 5 I ~ ^ 0 Y >.>.>.>.>.>.>.>.>.>.>.>.>.>.>.>.>.>.>.>.>.>.>.>.>.>.>.>.>.~ "
};
