/* XPM */
static char *_7012850a7874fa89dc3b5607a9a4b04TpAG6zP87N7uCT48[] = {
/* columns rows colors chars-per-pixel */
"64 64 163 2 ",
"   c None",
".  c black",
"X  c gray5",
"o  c #0F0F10",
"O  c #161616",
"+  c #171718",
"@  c #1D1D1D",
"#  c #1B1F23",
"$  c #1E2125",
"%  c #242526",
"&  c #262728",
"*  c #2C2E2F",
"=  c #26292B",
"-  c #2A343E",
";  c #323232",
":  c #38393A",
">  c #323538",
",  c #193A5B",
"<  c #203041",
"1  c #2A3642",
"2  c #2D3B49",
"3  c #263748",
"4  c #303C48",
"5  c #243C53",
"6  c #003366",
"7  c #02366B",
"8  c #013B76",
"9  c #3F4041",
"0  c #32404E",
"q  c #2C455D",
"w  c #384654",
"e  c #3A4856",
"r  c #3D4B59",
"t  c #374553",
"y  c #2A4866",
"u  c #2D4E6F",
"i  c #324E6B",
"p  c #3F5367",
"a  c #2F5173",
"s  c #305477",
"d  c #404243",
"f  c #464849",
"g  c #4B4B4C",
"h  c #4D4F51",
"j  c #404D59",
"k  c #40505F",
"l  c #4F5253",
"z  c #535355",
"x  c #565759",
"c  c #56585A",
"v  c #5C5C5C",
"b  c #4A5B6A",
"n  c #546474",
"m  c #606264",
"M  c #656769",
"N  c #67696C",
"B  c #696B6E",
"V  c #6C6E71",
"C  c #6E7174",
"Z  c #717274",
"A  c #76787B",
"S  c #7B7C7C",
"D  c #07519B",
"F  c #3A658F",
"G  c #3B6690",
"H  c #3D6995",
"J  c #3F6D9B",
"K  c #0255A9",
"L  c #005EBC",
"P  c #257CB3",
"I  c #41709F",
"U  c #7C7E81",
"Y  c #4273A3",
"T  c #477BAE",
"R  c #4577A9",
"E  c #497EB2",
"W  c #0064C8",
"Q  c #0768C9",
"!  c #176EC5",
"~  c #2B80B5",
"^  c #3283B6",
"/  c #7E8184",
"(  c #4A80B5",
")  c #4E87BF",
"_  c #428BB8",
"`  c #4690BE",
"'  c #4891BF",
"]  c #5796BC",
"[  c #6589AC",
"{  c #708AA5",
"}  c #4F88C1",
"|  c #518CC6",
" . c #528ECA",
".. c #4E95C1",
"X. c #5B9DC5",
"o. c #5390CC",
"O. c #5894CF",
"+. c #5C98D2",
"@. c #5B97D1",
"#. c #609FC7",
"$. c #609BD4",
"%. c #74ABCE",
"&. c #7CA8C3",
"*. c #6CA4DC",
"=. c #67A1D9",
"-. c #66A3E0",
";. c #73ABE1",
":. c #7BB1E6",
">. c #818385",
",. c #828689",
"<. c #86898D",
"1. c #8B8C8D",
"2. c #8B8E91",
"3. c #8F979F",
"4. c #8E9093",
"5. c #949697",
"6. c #949699",
"7. c #96999B",
"8. c #9B9B9B",
"9. c #8693A1",
"0. c #9B9EA1",
"q. c #9EA1A4",
"w. c #A1A3A6",
"e. c #A2A6A9",
"r. c #A5A9AD",
"t. c #ABACAC",
"y. c #A7ABB0",
"u. c #ABAEB1",
"i. c #ADB2B6",
"p. c #AFB3B8",
"a. c #B2B2B2",
"s. c #B1B5BA",
"d. c #BCBCBC",
"f. c #84ACC5",
"g. c #92B3C7",
"h. c #A9BECB",
"j. c #BABEC2",
"k. c #BCC1C6",
"l. c #BEC4CA",
"z. c #BEC9CF",
"x. c #B5C4CD",
"c. c #C3C3C3",
"v. c #C2C6CB",
"b. c #C4CACE",
"n. c #CCCCCC",
"m. c #C6CCD0",
"M. c #CACED2",
"N. c #CDD1D5",
"B. c #CED3D9",
"V. c #D3D3D3",
"C. c #D8D8D8",
"Z. c #D4D9DF",
"A. c #CFE0EB",
"S. c #DBE0E6",
"D. c #DEE4EA",
"F. c #DEE9F0",
"G. c #E3E3E3",
"H. c #ECECEC",
"J. c #EDF2F6",
"K. c #F3F3F3",
"L. c white",
"P. c #FDFDFD",
"I. c #F9F9F9",
/* pixels */
"                                                                                                                                ",
"                          . : h g g f O                                                 o l g g f : .                           ",
"                          X k.p.q.q.M.N .                                             . x b.w.q.s.v.+                           ",
"* * * * * * * * * * * * % B D.N.v.v.D.N.% * * * * * * * * * * * * * * * * * * * * * * @ l.S.b.v.B.D./ @ * * * * & & & & & & & & ",
"y.y.y.y.y.y.y.y.y.y.y.y.e.m.D.D.D.D.D.D.y.y.y.y.y.y.y.y.y.y.y.y.y.y.y.y.y.y.y.y.y.y.y.e.D.D.D.D.D.D.B.e.y.y.y.y.0.0.0.0.0.0.0.0.",
"D.D.D.D.D.D.D.D.D.D.D.D.D.D.D.D.D.D.D.D.D.D.D.D.D.D.D.D.D.D.D.D.D.D.D.D.D.D.D.D.D.D.D.D.D.D.D.D.D.D.D.D.D.D.D.D.D.D.D.D.D.D.D.D.",
"D.D.D.D.D.D.D.D.D.D.D.D.D.D.D.D.D.D.D.D.D.D.D.D.D.D.D.D.D.D.D.D.D.D.D.D.D.D.D.D.D.D.D.D.D.D.D.D.D.D.D.D.D.D.D.D.D.D.D.D.D.D.D.D.",
"D.D.D.D.D.D.D.D.D.D.D.D.D.D.D.D.D.D.D.D.D.D.D.D.D.D.S.s.A Z A S / <.<./ 0.B.D.D.D.D.D.D.D.D.D.D.D.D.D.D.D.D.D.D.D.D.D.D.D.D.D.D.",
"D.D.D.D.D.D.D.D.D.D.D.D.D.D.D.D.D.D.D.D.D.D.D.D.D.Z./ M >.8.t.a.a.a.a.8.z z s.D.D.D.D.D.D.D.D.D.D.D.D.D.D.D.D.D.D.D.D.D.D.D.D.D.",
"D.D.D.D.D.D.D.D.D.D.D.D.D.D.D.D.D.D.D.D.D.D.D.D.D.d C.L.L.L.j.{ [ 9.H.L.L.G.m r.D.D.D.D.D.D.D.D.D.D.D.D.D.D.D.D.D.D.D.D.D.D.D.D.",
"D.D.D.D.D.D.D.D.D.D.D.D.D.D.D.D.D.D.D.D.D.D.D.D.j.g K.L.L.<.D -.Q W i I.L.L.t.U S.D.D.D.D.D.D.D.D.D.D.D.D.D.D.D.D.D.D.D.D.D.D.D.",
"D.D.D.D.D.D.D.D.D.D.D.D.D.D.D.D.D.D.D.D.D.D.D.D.e.g H.L.L.n K ! W L 8 n.L.L.w.V m.D.D.D.D.D.D.D.D.D.D.D.D.D.D.D.D.D.D.D.D.D.D.D.",
"D.D.D.D.D.D.D.D.D.D.D.D.D.D.D.D.D.D.D.D.D.D.D.D.e.g G.L.L.G.p 7 6 , 6.K.L.L.w.V l.D.D.D.D.D.D.D.D.D.D.D.D.D.D.D.D.D.D.D.D.D.D.D.",
"D.D.D.D.D.D.D.D.D.D.D.D.D.D.D.D.D.D.D.D.D.D.D.D.r.z c.G.G.K.L.K.H.L.K.K.K.n.5.V k.D.D.D.D.D.D.D.D.D.D.D.D.D.D.D.D.D.D.D.D.D.D.D.",
"D.D.D.D.D.D.D.D.D.D.D.D.D.D.D.D.D.D.D.D.D.D.D.D.r.; m S Z 8.8.8.8.8.w.Z 1.1.: S l.D.D.D.D.D.D.D.D.D.D.D.D.D.D.D.D.D.D.D.D.D.D.D.",
"D.D.D.D.D.D.D.D.D.D.D.D.D.D.D.D.D.D.D.D.D.D.D.D.y.>.h d v S S S S S S m v f V 7.b.D.D.D.D.D.D.D.D.D.D.D.D.D.D.D.D.D.D.D.D.D.D.D.",
"D.D.D.D.D.D.D.D.D.D.D.D.D.D.D.D.D.D.D.D.D.D.D.D.M.r.q.2.C N N N N N N N ,.0.r.M.S.D.D.D.D.D.D.D.D.D.D.D.D.D.D.D.D.D.D.D.D.D.D.D.",
"D.D.D.D.D.D.D.D.D.D.D.D.D.D.D.D.D.D.D.D.D.D.D.D.D.D.B.k.p.r.r.r.r.r.r.i.j.N.D.D.D.D.D.D.D.D.D.D.D.D.D.D.D.D.D.D.D.D.D.D.D.D.D.D.",
"D.D.D.D.D.D.D.D.D.D.D.D.D.D.D.D.D.D.D.D.D.D.D.D.D.D.D.D.D.D.D.D.D.D.D.D.D.D.D.D.D.D.D.D.D.D.D.D.D.D.D.D.D.D.D.D.D.D.D.D.D.D.D.D.",
"D.D.D.D.D.D.D.D.D.D.D.D.D.D.D.D.D.D.D.D.D.D.D.D.D.D.D.D.D.D.D.D.D.D.D.D.D.D.D.D.D.D.D.D.D.D.D.D.D.D.D.D.D.D.D.D.D.D.D.D.D.D.D.D.",
",.,.,.,.,.,.,.,.,.,.,.,.,.,.,.,.,.,.,.,.,.,.,.,.,.,.,.,.,.,.,.,.,.,.,.,.,.,.,.,.,.,.,.,.,.,.,.,.,.,.,.,.,.,.,.,.2.2.2.2.4.4.4.4.",
"m m m m m m m m m m m m m m m m m m m m m m m m m m m m m m m m m m m m m m m m m m m m m m m m m m m m m m m m x x x x x x x x ",
"y.y.y.r.y.u.y.y.y.y.y.y.y.y.y.y.y.y.y.y.r.w.w.w.w.w.w.w.q.7.7.7.7.7.7.7.4.2.2.2.2.2.2.2.2.2.7.7.7.7.7.7.7.7.7.7.7.7.7.q.y.u.y.y.",
"y.y./ j b b b b b b b b k k k k r r r r e w w w w w w w t 0 0 0 0 0 0 0 2 2 2 2 1 1 1 1 1 1 4 4 4 4 4 4 4 4 4 4 4 4 4 4 M y.y.y.",
"y.Z q ) o.o.o.o.o.o.o.o.o.o.o.o.| | | | | | | | | | | | | | | | | | | | | | | | } ) ) ) ) ) ) ) ) ) ) ) ) ) ) ) ) ) ) ) 3 S y.y.",
"y.$ | o.o.o.o.o.o.o.o.o.o.o.o.o.o.o.o.o.o.o.o.o.o.o.o.o.o.o.o.o.o.o.o.o.o.o.o.o.o.o.o.o.o.o.o.o.o.o.o.o.o.o.o.o.o.o.o.o.R = r.y.",
"y.# o.o.o.@.;.:.:.:.:.:.:.:.:.:.:.:.:.:.:.:.:.:.:.:.:.:.:.:.:.:.:.:.:.:.:.:.:.:.:.:.:.:.:.:.:.:.:.:.:.:.:.:.:.:.:.=.o.o.o.s z y.",
"y.# o.o.+.:.:.:.:.:.:.:.:.:.:.:.:.:.:.:.:.:.:.:.:.:.:.:.:.:.:.:.:.:.:.:.:.:.:.:.:.:.:.:.:.:.:.:.:.:.:.:.:.:.:.:.:.:.*.o.o. .@ y.",
"y.# o.o.:.:.=.$.$.+.+.+.+.+.+.+.+.+.+.+.+.+.+.+.+.+.+.+.+.+.+.+.+.+.+.+.+.+.+.+.+.$.+.+.+.+.+.+.+.+.+.+.+.+.+.$.$.;.:.=.o.o.O y.",
"y.# o.+.:.$.o.o.o.o.o.o.o.o.o.o.o.o.o.o.o.o.o.o.o.o.o.o.o.o.o.o.o.o.o.o.o.o.o.o.o.o.o.o.o.o.o.o.o.o.o.o.o.o.o.o.o.o.*.;.o.o.O y.",
"y.# o.o.O.o.o.o.o.o.o.o.o.o.o.o.o.o.o.o.o.o.o.o.o.o.o.o.o.o.o.o.o.o.o.o.o.o.o.o.o.o.o.o.o.o.o.o.o.o.o.o.o.o.o.o.o.o.o.O.o.o.O y.",
"y.# o.o.o.o.o.o.o.o.o.o.o.o.o.o.o.o.o.o.o.o.o.o.o.o.o.o.o.o.o.o.o.o.o.o.o.o.o.o.o.o.o.o.o.o.o.o.o.o.o.o.o.o.o.o.o.o.o.o.o.o.O u.",
"y.$ o.o.o.o.o.o.o.o.o.o.o.o.o.o.o.o.o.o.o.o.o.o.o.o.o.o.o.o.o.o.o.o.o.o.o.o.o.o.o.o.o.o.o.o.o.o.o.o.o.o.o.o.o.o.o.o.o.o.o.o.O u.",
"y.# o.o.o.o.o.o.o.o.o.o.o.o.o.o.o.o.o.o.o.o.o.o.o.o.o.o.o.o.o.o.o.o.o.o.o.o.o.o.o.o.o.o.o.o.o.o.o.o.o.o.o.o.o.o.o.o.o.o.o.o.O u.",
"u.# o.o.o.o.o.o.o.o.o.o.o.o.o.o.o.o.o.o.o.o.o.o.o.o.o.o.o.o.o.o.o.o.o.o.o.o.o.o.o.o.o.o.o.o.o.o.o.o.o.o.o.o.o.o.o.o.o.o.o.o.O y.",
"u.$ o.o.o.o.o.o.o.o.o.o.o.o.o.o.o.o.o.o.o.o.o.o.o.o.o.o.o.o.o.o.o.o.o.o.o.o.o.o.o.o.o.o.o.o.o.o.o.o.o.o.o.o.o.o.o.o.o.o.o.o.O y.",
"u.# o.o.o.o.o.o.o.o.o.o.o.o.o.o.o.o.o.o.o.o.o.o.o.o.o.o.o.o.o.o.o.o.o.o.o.o.o.o.o.o.o.o.o.o.o.o.o.o.o.o.o.o.o.o.o.o.o.o.o.o.O y.",
"y.# o.o.o.o.o.o.o.o.o.o.o.o.o.o.o.o.o.o.o.o.o.o.o.o.o.o.o.o.o.o.o.o.o.o.o.o.o.o.o.o.o.o.o.o.o.o.o.o.o.o.o.o.o.o.o.o.o.o.o.o.O y.",
"y.# o.o.o.o.o.o.o.o.o.o.o.o.o.o.o.o.o.o.o.o.o.o.o.o.o.o.o.o.o.o.o.o.o.o.o.o.o.o.o.o.o.o.o.o.o.o.o.o.o.o.o.o.o.o.o.o.o.o.o.o.O y.",
"y.# o.o.o.o.o.o.o.o.o.o.o.o.o.o.o.o.o.o.o.o.o.o.o.o.o.o.o.o.o.o.o.o.o.o.o.o.o.o.o.o.o.o.o.o.o.o.o.o.o.o.o.o.o.o.o.o.o.o.o.o.O y.",
"y.# o.o.o.o.o.o.o.o.o.o.o.o.o.o.o.o.o.o.o.o.o.o.o.o.o.o.o.o.o.o.o.o.o.o.o.o.o.o.o.o.o.o.o.o.o.o.o.o.o.o.o.o.o.o.o.o.o.o.o.o.O y.",
"y.# o.o.o.o.o.o.o.o.o.o.o.o.o.o.o.o.o.o.o.o.o.o.o.o.o.o.o.o.o.o.o.o.o.o.o.o.o.o.o.o.o.o.o.o.o.o.o.o.o.o.o.o.o.o.o.o.o.o.o.o.O y.",
"y.# o.o.o.o.o.o.o.o.o.o.o.o.o.o.o.o.o.o.o.o.o.o.o.o.o.o.o.o.o.o.o.o.o.o.o.o.o.o.o.o.o.o.o.o.o.o.o.o.o.o.o.o.o.o.o.o.o.o.o.o.O y.",
"y.# o.o.o.o.o.o.o.o.o.o.o.o.o.o.o.o.o.o.o.o.o.o.o.o.o.o.o.o.o.o.o.o.o.o.o.o.o.o.o.o.o.o.o.o.o.o.o.o.o.o.o.o.o.o.o.o.o.o.o.o.O u.",
"y.# o.o.o.o.o.o.o.o.o.o.o.o.o.o.o.o.o.o.o.o.o.o.o.o.o.o.o.o.o.o.o.o.o.o.o.o.o.o.o.o.o.o.o.o.o.o.o.o.o.o.o.o.o.o.o.o.o.o.o.o.O u.",
"y.# o.o.o.o.o.o.o.o.o.o.o.o.o.o.o.o.o.o.o.o.o.o.o.o.o.o.o.o.o.o.o.o.o.o.o.o.o.o.o.o.o.o.o.o.o.o.o.o.o.o.o.o.o.o.o.o.o.o.o.o.O u.",
"u.# o.o.o.o.o.o.o.o.o.o.o.o.o.o.o.o.o.o.o.o.o.o.o.o.o.o.o.o.o.o.o.o.o.o.o.o.o.o.o.o.o.o.o.o.o.o.o.o.o.o.o.o.o.o.o.o.o.o.o.o.O y.",
"u.$ o.| | o.o.o.o.o.o.o.o.o.o.o.o.o.o.o.o.o.o.o.o.o.o.o.o.o.o.o.o.o.o.o.o.o.o.o.o.o.o.o.o.o.o.o.o.o.o.o.o.o.o.o.o.o. .) o.o.O y.",
"u.# o.) G E  .o.o.o.o.o.o.o.o.o.o.o.o.o.o.o.o.o.o.o.o.o.o.o.o.o.o.o.o.o.o.o.o.o.o.o.o.o.o.o.o.o.o.o.o.o.o.o.o.o.o.| J Y o.o.O y.",
"y.# o.| H G Y T T E ( ( ( ( ( ( ( ( ( ( ( ( ( ( ( ( ( ( ( ( ( ( ( ( ( ( ( ( ( ( E T E ( ( ( ( ( ( ( ( ( ( ( T T T H G E o.o.O y.",
"y.# o.o.} H F F F F F F F F F F F F F F F F F F F F F F F F F F F F F F F F F F F F F F F F F F F F F F F F F F F F T  .o.o.O y.",
"y.> ) o.o.| I J J J J J J J J J J J J J J J J J J J I I J J J J J J J J J J J J J I I I I I I I I I I I I I I I I E o.o.o.G ; y.",
"u.6.<  .o.o.o.o.o.o.o.o.o.o.o.o.o.o.o.o.o.o.o.o.o.o.o.o.o.o.o.o.o.o.o.o.o.o.o.o.o.o.o.o.o.o.o.o.o.o.o.o.o.o.o.o.o.o.o.o.T $ w.u.",
"u.y.M 5 y y y y y y y y y y y y y y y y y y y y y y y y y y y y y y y y y y y y u a a a a s a a a a a a a a a a s s s a - 2.u.u.",
"u.y.t.,.>.>.>.>.>.>.>.>.>.>.>.>.>.>.>.>.>.>.>.>.>.>.>.>.>.>.>.>.>.>.>.>.>.Z Z Z Z Z Z Z Z Z Z Z Z Z Z Z Z Z Z Z Z Z Z Z 7.y.u.u.",
"u.u.y.y.y.y.y.y.y.y.r.2.2.2.2.2.2.2.2.2.2.<.r.y.y.y.y.y.y.y.u.u.u.y.y.y.y.y.y.y.y.y.2.2.2.2.2.2.2.2.2.2.<.e.y.y.y.y.y.y.y.y.u.u.",
"u.y.y.y.u.u.u.u.u.y.h S >.>.>.>.>.>.>.>.>.>.v y.y.y.y.y.u.u.u.u.y.y.y.y.u.u.u.u.u.v A >.>.>.>.>.>.>.>.>.>.z u.u.u.u.u.u.u.u.u.u.",
"y.y.u.u.y.y.u.u.u.e.; c.n.d.d.d.d.d.d.d.c.c.g w.y.y.u.y.y.y.u.u.y.y.y.y.y.y.u.u.u.* d.n.d.d.d.d.d.d.d.c.c.v 6.u.u.u.u.u.u.u.u.u.",
"u.u.u.u.y.y.u.u.y.r.* c.n.d.d.d.d.d.d.d.c.c.g 7.u.u.u.u.y.y.u.u.u.u.y.u.y.y.u.u.y.* d.n.d.d.d.d.d.d.d.c.c.m >.y.y.y.u.u.y.y.u.u.",
"u.u.u.u.y.y.y.u.u.y.* c.V.V.V.x.&.f.M.V.V.V.g 5.u.u.u.u.y.y.y.u.u.u.u.u.y.y.u.u.y.; d.V.V.V.z.&.f.m.V.V.V.m U y.y.y.y.y.y.y.y.y.",
"u.u.y.y.y.y.u.u.u.u.* c.V.V.z.~ %...] V.V.n.g 2.u.u.y.y.y.y.u.u.u.u.y.y.y.y.u.u.y.; d.V.V.M.^ %.X._ V.V.V.m A y.y.y.u.u.u.u.y.y.",
"u.u.y.y.y.y.u.u.u.u.* d.V.V.g.X.K.A.P N.V.n.g 2.u.u.y.y.y.y.u.u.u.u.y.y.y.y.u.u.y.; s.V.V.h.` J.F.~ z.V.V.v A y.u.y.u.u.y.y.y.y.",
"0.0.0.0.0.0.0.0.0.0.* d.V.V.g.#.J.A.P N.V.n.g / 0.0.0.0.0.0.0.0.0.0.0.0.0.0.0.0.0.; a.V.V.h.' J.F.~ z.V.V.v B 0.w.w.w.w.w.w.w.w.",
": : : : : : : : : : * a.V.V.z.^ %...] V.V.c.g * : : : : : : : : : : : : : : : : : % t.V.V.M.^ %.X._ V.V.n.v & : d d d d d d d d "
};
